<svg width="158" height="110" viewBox="0 0 158 110" fill="none" xmlns="http://www.w3.org/2000/svg">
<g opacity="0.2">
<mask id="mask0_797_6001" style="mask-type:alpha" maskUnits="userSpaceOnUse" x="0" y="0" width="158" height="110">
<rect x="0.5" y="0.5" width="157" height="109" fill="#D9D9D9" stroke="#F33E5C"/>
</mask>
<g mask="url(#mask0_797_6001)">
<mask id="path-2-outside-1_797_6001" maskUnits="userSpaceOnUse" x="-9.42841" y="2.11476" width="176.747" height="111.579" fill="black">
<rect fill="white" x="-9.42841" y="2.11476" width="176.747" height="111.579"/>
<path d="M30.5316 108.044C25.8738 108.808 21.4955 108.31 17.3965 106.551C13.2976 104.791 9.85854 102.112 7.07944 98.5149C4.36633 94.8255 2.62122 90.6125 1.8441 85.8758C1.67572 84.8495 1.55977 83.8957 1.49624 83.0144C1.49871 82.0411 1.51413 81.1468 1.5425 80.3315C2.97765 58.9369 11.3969 42.5577 26.8004 31.194C33.2436 26.4887 38.9125 23.7346 43.8071 22.9316C47.8332 22.271 51.844 22.5048 55.8393 23.6328C59.8347 24.7609 63.5389 26.5852 66.952 29.1059C70.4441 31.6136 73.3299 34.6261 75.6094 38.1435C77.955 41.5689 79.458 45.2948 80.1185 49.3209C80.3258 50.584 80.4541 51.8601 80.5034 53.1491C80.5527 54.4381 80.5296 55.7796 80.434 57.1734C80.0153 61.5388 78.3981 66.5062 75.5827 72.0755C73.4943 76.1473 70.9724 80.047 68.0169 83.7747C65.0485 87.4234 61.6795 90.8541 57.9099 94.0668C49.8699 100.899 41.6516 105.409 33.2551 107.597L33.2357 107.479C32.9329 107.609 32.5446 107.713 32.071 107.791C31.6762 107.856 31.1631 107.94 30.5316 108.044ZM29.9099 104.254C34.5676 103.49 39.4057 101.602 44.4242 98.5898C49.4428 95.5776 54.1804 91.8413 58.637 87.3809C63.1726 82.9076 66.8806 78.0836 69.7608 72.909C74.6091 64.412 76.4504 56.611 75.2847 49.506C74.7148 46.0324 73.4539 42.7938 71.5018 39.7902C69.6288 36.7737 67.2613 34.2031 64.3996 32.0783C61.6168 29.9407 58.5629 28.3744 55.238 27.3796C51.9131 26.3848 48.5138 26.1723 45.0403 26.7422C40.3825 27.5064 35.1614 30.0249 29.3769 34.2978C14.856 45.1114 7.04361 60.7424 5.93965 81.1909C5.92423 82.0852 5.90882 82.9795 5.8934 83.8738C5.94397 84.6762 6.0405 85.5116 6.18297 86.38C6.84352 90.4062 8.26823 93.9016 10.4571 96.8663C12.712 99.7392 15.4948 101.877 18.8055 103.279C22.1822 104.59 25.8837 104.915 29.9099 104.254ZM134.791 90.8169C125.397 92.3582 114.513 92.4819 102.14 91.1879L102.16 91.3064C97.7587 94.6226 93.7424 96.5787 90.111 97.1745C87.9795 97.5242 85.9217 97.3348 83.9376 96.6065C81.4539 95.7979 80.0566 94.4463 79.7458 92.5516C79.4738 90.8938 80.0825 89.4157 81.572 88.1175C82.7056 87.1208 84.2197 86.467 86.1144 86.1562C87.6143 85.9101 92.5058 86.3236 100.789 87.3967L101.441 86.9249L101.975 86.4725C126.386 65.2808 141.504 47.2352 147.328 32.3356C149.963 25.6611 150.962 20.3897 150.328 16.5214C149.382 10.7584 145.081 8.50512 137.423 9.76146C132.371 10.5904 127.341 12.7937 122.334 16.3715C117.683 19.6478 113.741 23.5373 110.507 28.0403C109.913 28.8673 109.207 29.9966 108.388 31.4281C107.556 32.7806 106.611 34.4354 105.554 36.3924C105.329 36.9968 104.861 37.3573 104.151 37.4738C102.809 37.694 102.027 37.1331 101.807 35.791C101.743 35.3963 101.842 35.0151 102.106 34.6476C105.346 27.7115 110.136 21.5751 116.475 16.2383C123.237 10.5081 130.13 7.06656 137.157 5.91383C141.42 5.21443 145.009 5.59835 147.925 7.06561C151.196 8.71789 153.168 11.5966 153.841 15.7017C154.67 20.7542 153.682 26.8344 150.875 33.9425C144.813 49.3676 130.011 67.3614 106.469 87.9241C117.042 88.6216 126.117 88.3487 133.696 87.1053C147.353 84.8646 153.643 81.198 152.564 76.1054L152.329 75.4144C152.083 73.9144 152.631 73.0543 153.973 72.8342C155.157 72.6399 155.898 73.4506 156.196 75.2663C157.478 83.0818 150.343 88.2654 134.791 90.8169ZM89.233 93.3056C91.2856 92.9688 93.4908 92.0801 95.8486 90.6393C91.5893 89.8789 88.8676 89.5958 87.6834 89.7901C85.5519 90.1398 84.5833 90.9067 84.7776 92.0909C84.9848 93.354 86.4699 93.7589 89.233 93.3056Z"/>
</mask>
<path d="M30.5316 108.044C25.8738 108.808 21.4955 108.31 17.3965 106.551C13.2976 104.791 9.85854 102.112 7.07944 98.5149C4.36633 94.8255 2.62122 90.6125 1.8441 85.8758C1.67572 84.8495 1.55977 83.8957 1.49624 83.0144C1.49871 82.0411 1.51413 81.1468 1.5425 80.3315C2.97765 58.9369 11.3969 42.5577 26.8004 31.194C33.2436 26.4887 38.9125 23.7346 43.8071 22.9316C47.8332 22.271 51.844 22.5048 55.8393 23.6328C59.8347 24.7609 63.5389 26.5852 66.952 29.1059C70.4441 31.6136 73.3299 34.6261 75.6094 38.1435C77.955 41.5689 79.458 45.2948 80.1185 49.3209C80.3258 50.584 80.4541 51.8601 80.5034 53.1491C80.5527 54.4381 80.5296 55.7796 80.434 57.1734C80.0153 61.5388 78.3981 66.5062 75.5827 72.0755C73.4943 76.1473 70.9724 80.047 68.0169 83.7747C65.0485 87.4234 61.6795 90.8541 57.9099 94.0668C49.8699 100.899 41.6516 105.409 33.2551 107.597L33.2357 107.479C32.9329 107.609 32.5446 107.713 32.071 107.791C31.6762 107.856 31.1631 107.94 30.5316 108.044ZM29.9099 104.254C34.5676 103.49 39.4057 101.602 44.4242 98.5898C49.4428 95.5776 54.1804 91.8413 58.637 87.3809C63.1726 82.9076 66.8806 78.0836 69.7608 72.909C74.6091 64.412 76.4504 56.611 75.2847 49.506C74.7148 46.0324 73.4539 42.7938 71.5018 39.7902C69.6288 36.7737 67.2613 34.2031 64.3996 32.0783C61.6168 29.9407 58.5629 28.3744 55.238 27.3796C51.9131 26.3848 48.5138 26.1723 45.0403 26.7422C40.3825 27.5064 35.1614 30.0249 29.3769 34.2978C14.856 45.1114 7.04361 60.7424 5.93965 81.1909C5.92423 82.0852 5.90882 82.9795 5.8934 83.8738C5.94397 84.6762 6.0405 85.5116 6.18297 86.38C6.84352 90.4062 8.26823 93.9016 10.4571 96.8663C12.712 99.7392 15.4948 101.877 18.8055 103.279C22.1822 104.59 25.8837 104.915 29.9099 104.254ZM134.791 90.8169C125.397 92.3582 114.513 92.4819 102.14 91.1879L102.16 91.3064C97.7587 94.6226 93.7424 96.5787 90.111 97.1745C87.9795 97.5242 85.9217 97.3348 83.9376 96.6065C81.4539 95.7979 80.0566 94.4463 79.7458 92.5516C79.4738 90.8938 80.0825 89.4157 81.572 88.1175C82.7056 87.1208 84.2197 86.467 86.1144 86.1562C87.6143 85.9101 92.5058 86.3236 100.789 87.3967L101.441 86.9249L101.975 86.4725C126.386 65.2808 141.504 47.2352 147.328 32.3356C149.963 25.6611 150.962 20.3897 150.328 16.5214C149.382 10.7584 145.081 8.50512 137.423 9.76146C132.371 10.5904 127.341 12.7937 122.334 16.3715C117.683 19.6478 113.741 23.5373 110.507 28.0403C109.913 28.8673 109.207 29.9966 108.388 31.4281C107.556 32.7806 106.611 34.4354 105.554 36.3924C105.329 36.9968 104.861 37.3573 104.151 37.4738C102.809 37.694 102.027 37.1331 101.807 35.791C101.743 35.3963 101.842 35.0151 102.106 34.6476C105.346 27.7115 110.136 21.5751 116.475 16.2383C123.237 10.5081 130.13 7.06656 137.157 5.91383C141.42 5.21443 145.009 5.59835 147.925 7.06561C151.196 8.71789 153.168 11.5966 153.841 15.7017C154.67 20.7542 153.682 26.8344 150.875 33.9425C144.813 49.3676 130.011 67.3614 106.469 87.9241C117.042 88.6216 126.117 88.3487 133.696 87.1053C147.353 84.8646 153.643 81.198 152.564 76.1054L152.329 75.4144C152.083 73.9144 152.631 73.0543 153.973 72.8342C155.157 72.6399 155.898 73.4506 156.196 75.2663C157.478 83.0818 150.343 88.2654 134.791 90.8169ZM89.233 93.3056C91.2856 92.9688 93.4908 92.0801 95.8486 90.6393C91.5893 89.8789 88.8676 89.5958 87.6834 89.7901C85.5519 90.1398 84.5833 90.9067 84.7776 92.0909C84.9848 93.354 86.4699 93.7589 89.233 93.3056Z" fill="#F33E5C"/>
<path d="M17.3965 106.551L17.0021 107.47L17.3965 106.551ZM7.07944 98.5149L6.27382 99.1074L6.28083 99.1169L6.28807 99.1263L7.07944 98.5149ZM1.49624 83.0144L0.496247 83.0118L0.496153 83.0491L0.498832 83.0863L1.49624 83.0144ZM1.5425 80.3315L0.544739 80.2645L0.543661 80.2806L0.543102 80.2967L1.5425 80.3315ZM26.8004 31.194L26.2106 30.3864L26.2067 30.3893L26.8004 31.194ZM55.8393 23.6328L55.5676 24.5952L55.8393 23.6328ZM66.952 29.1059L66.3579 29.9104L66.3687 29.9181L66.952 29.1059ZM75.6094 38.1435L74.7703 38.6873L74.7771 38.698L74.7843 38.7085L75.6094 38.1435ZM80.5034 53.1491L79.5041 53.1874L79.5041 53.1874L80.5034 53.1491ZM80.434 57.1734L81.4295 57.2689L81.4307 57.2554L81.4317 57.2419L80.434 57.1734ZM75.5827 72.0755L76.4725 72.5318L76.4751 72.5266L75.5827 72.0755ZM68.0169 83.7747L68.7927 84.4059L68.8005 84.396L68.0169 83.7747ZM57.9099 94.0668L58.5574 94.8289L58.5585 94.8279L57.9099 94.0668ZM33.2551 107.597L32.2683 107.759L32.4459 108.841L33.5073 108.565L33.2551 107.597ZM33.2357 107.478L34.2225 107.317L34.0152 106.053L32.8393 106.56L33.2357 107.478ZM44.4242 98.5898L44.9389 99.4472L44.4242 98.5898ZM58.637 87.3809L57.9348 86.6689L57.9296 86.6741L58.637 87.3809ZM69.7608 72.909L68.8922 72.4134L68.887 72.4227L69.7608 72.909ZM71.5018 39.7902L70.6523 40.3177L70.6577 40.3265L70.6634 40.3352L71.5018 39.7902ZM64.3996 32.0783L63.7904 32.8714L63.7969 32.8764L63.8035 32.8812L64.3996 32.0783ZM55.238 27.3796L55.5247 26.4216L55.238 27.3796ZM29.3769 34.2978L28.7827 33.4934L28.7796 33.4957L29.3769 34.2978ZM5.93965 81.1909L4.9411 81.137L4.94012 81.1553L4.9398 81.1737L5.93965 81.1909ZM5.8934 83.8738L4.89355 83.8566L4.89286 83.8967L4.89538 83.9367L5.8934 83.8738ZM10.4571 96.8663L9.6526 97.4603L9.66136 97.4722L9.67046 97.4838L10.4571 96.8663ZM18.8055 103.279L18.4154 104.2L18.4295 104.206L18.4437 104.212L18.8055 103.279ZM30.5316 108.044L30.3697 107.057C25.8886 107.792 21.7044 107.312 17.791 105.632L17.3965 106.551L17.0021 107.47C21.2866 109.309 25.859 109.824 30.6935 109.031L30.5316 108.044ZM17.3965 106.551L17.791 105.632C13.8514 103.941 10.548 101.369 7.87081 97.9036L7.07944 98.5149L6.28807 99.1263C9.16908 102.856 12.7437 105.642 17.0021 107.47L17.3965 106.551ZM7.07944 98.5149L7.88506 97.9225C5.27002 94.3664 3.58373 90.3025 2.8309 85.7139L1.8441 85.8758L0.85729 86.0377C1.6587 90.9224 3.46264 95.2846 6.27382 99.1074L7.07944 98.5149ZM1.8441 85.8758L2.8309 85.7139C2.66659 84.7124 2.55467 83.7889 2.49366 82.9425L1.49624 83.0144L0.498832 83.0863C0.564872 84.0025 0.684851 84.9866 0.85729 86.0377L1.8441 85.8758ZM1.49624 83.0144L2.49624 83.0169C2.49868 82.0524 2.51396 81.169 2.54189 80.3662L1.5425 80.3315L0.543102 80.2967C0.514295 81.1246 0.498734 82.0298 0.496247 83.0118L1.49624 83.0144ZM1.5425 80.3315L2.54025 80.3984C3.95839 59.2575 12.2574 43.1656 27.394 31.9987L26.8004 31.194L26.2067 30.3893C10.5365 41.9498 1.99692 58.6162 0.544739 80.2645L1.5425 80.3315ZM26.8004 31.194L27.3901 32.0016C33.7754 27.3387 39.2955 24.6852 43.969 23.9184L43.8071 22.9316L43.6452 21.9448C38.5295 22.7841 32.7118 25.6388 26.2106 30.3864L26.8004 31.194ZM43.8071 22.9316L43.969 23.9184C47.848 23.282 51.7107 23.5063 55.5676 24.5952L55.8393 23.6328L56.111 22.6704C51.9773 21.5033 47.8185 21.2601 43.6452 21.9448L43.8071 22.9316ZM55.8393 23.6328L55.5676 24.5952C59.4443 25.6897 63.0397 27.4597 66.358 29.9103L66.952 29.1059L67.5461 28.3015C64.0381 25.7107 60.2251 23.832 56.111 22.6704L55.8393 23.6328ZM66.952 29.1059L66.3687 29.9181C69.7622 32.355 72.5603 35.2773 74.7703 38.6873L75.6094 38.1435L76.4486 37.5996C74.0995 33.9749 71.126 30.8722 67.5353 28.2936L66.952 29.1059ZM75.6094 38.1435L74.7843 38.7085C77.0486 42.0152 78.4953 45.6038 79.1317 49.4828L80.1185 49.3209L81.1054 49.159C80.4207 44.9857 78.8613 41.1227 76.4345 37.5785L75.6094 38.1435ZM80.1185 49.3209L79.1317 49.4828C79.3322 50.7047 79.4564 51.9395 79.5041 53.1874L80.5034 53.1491L81.5027 53.1109C81.4518 51.7807 81.3193 50.4634 81.1054 49.159L80.1185 49.3209ZM80.5034 53.1491L79.5041 53.1874C79.552 54.438 79.5297 55.7438 79.4364 57.105L80.434 57.1734L81.4317 57.2419C81.5295 55.8154 81.5535 54.4382 81.5027 53.1109L80.5034 53.1491ZM80.434 57.1734L79.4386 57.078C79.0356 61.2789 77.4714 66.1229 74.6902 71.6243L75.5827 72.0755L76.4751 72.5266C79.3249 66.8895 80.9949 61.7988 81.4295 57.2689L80.434 57.1734ZM75.5827 72.0755L74.6929 71.6191C72.6356 75.6304 70.1497 79.4751 67.2333 83.1534L68.0169 83.7747L68.8005 84.396C71.7951 80.619 74.3531 76.6642 76.4725 72.5318L75.5827 72.0755ZM68.0169 83.7747L67.2412 83.1436C64.3131 86.7428 60.9871 90.1304 57.2612 93.3057L57.9099 94.0668L58.5585 94.8279C62.3719 91.5779 65.7839 88.104 68.7927 84.4058L68.0169 83.7747ZM57.9099 94.0668L57.2624 93.3048C49.3127 100.06 41.2258 104.486 33.0029 106.629L33.2551 107.597L33.5073 108.565C42.0774 106.331 50.4271 101.737 58.5574 94.8289L57.9099 94.0668ZM33.2551 107.597L34.2419 107.435L34.2225 107.317L33.2357 107.478L32.2489 107.64L32.2683 107.759L33.2551 107.597ZM33.2357 107.478L32.8393 106.56C32.6371 106.648 32.3351 106.734 31.9091 106.804L32.071 107.791L32.2329 108.778C32.7542 108.692 33.2287 108.571 33.6321 108.397L33.2357 107.478ZM32.071 107.791L31.9091 106.804C31.9083 106.805 31.9075 106.805 31.9068 106.805C31.906 106.805 31.9052 106.805 31.9044 106.805C31.9037 106.805 31.9029 106.805 31.9021 106.806C31.9013 106.806 31.9006 106.806 31.8998 106.806C31.899 106.806 31.8982 106.806 31.8975 106.806C31.8967 106.806 31.8959 106.807 31.8951 106.807C31.8944 106.807 31.8936 106.807 31.8928 106.807C31.892 106.807 31.8913 106.807 31.8905 106.807C31.8897 106.808 31.8889 106.808 31.8881 106.808C31.8874 106.808 31.8866 106.808 31.8858 106.808C31.885 106.808 31.8842 106.808 31.8835 106.809C31.8827 106.809 31.8819 106.809 31.8811 106.809C31.8803 106.809 31.8796 106.809 31.8788 106.809C31.878 106.809 31.8772 106.81 31.8764 106.81C31.8756 106.81 31.8749 106.81 31.8741 106.81C31.8733 106.81 31.8725 106.81 31.8717 106.811C31.8709 106.811 31.8701 106.811 31.8694 106.811C31.8686 106.811 31.8678 106.811 31.867 106.811C31.8662 106.811 31.8654 106.812 31.8646 106.812C31.8638 106.812 31.8631 106.812 31.8623 106.812C31.8615 106.812 31.8607 106.812 31.8599 106.812C31.8591 106.813 31.8583 106.813 31.8575 106.813C31.8567 106.813 31.856 106.813 31.8552 106.813C31.8544 106.813 31.8536 106.813 31.8528 106.814C31.852 106.814 31.8512 106.814 31.8504 106.814C31.8496 106.814 31.8488 106.814 31.848 106.814C31.8472 106.815 31.8464 106.815 31.8456 106.815C31.8448 106.815 31.844 106.815 31.8432 106.815C31.8425 106.815 31.8417 106.815 31.8409 106.816C31.8401 106.816 31.8393 106.816 31.8385 106.816C31.8377 106.816 31.8369 106.816 31.8361 106.816C31.8353 106.816 31.8345 106.817 31.8337 106.817C31.8329 106.817 31.8321 106.817 31.8313 106.817C31.8305 106.817 31.8297 106.817 31.8289 106.818C31.8281 106.818 31.8273 106.818 31.8265 106.818C31.8257 106.818 31.8249 106.818 31.8241 106.818C31.8232 106.818 31.8224 106.819 31.8216 106.819C31.8208 106.819 31.82 106.819 31.8192 106.819C31.8184 106.819 31.8176 106.819 31.8168 106.82C31.816 106.82 31.8152 106.82 31.8144 106.82C31.8136 106.82 31.8128 106.82 31.812 106.82C31.8112 106.82 31.8103 106.821 31.8095 106.821C31.8087 106.821 31.8079 106.821 31.8071 106.821C31.8063 106.821 31.8055 106.821 31.8047 106.822C31.8039 106.822 31.8031 106.822 31.8022 106.822C31.8014 106.822 31.8006 106.822 31.7998 106.822C31.799 106.822 31.7982 106.823 31.7974 106.823C31.7966 106.823 31.7957 106.823 31.7949 106.823C31.7941 106.823 31.7933 106.823 31.7925 106.824C31.7917 106.824 31.7909 106.824 31.79 106.824C31.7892 106.824 31.7884 106.824 31.7876 106.824C31.7868 106.824 31.786 106.825 31.7851 106.825C31.7843 106.825 31.7835 106.825 31.7827 106.825C31.7819 106.825 31.781 106.825 31.7802 106.826C31.7794 106.826 31.7786 106.826 31.7778 106.826C31.7769 106.826 31.7761 106.826 31.7753 106.826C31.7745 106.826 31.7737 106.827 31.7728 106.827C31.772 106.827 31.7712 106.827 31.7704 106.827C31.7695 106.827 31.7687 106.827 31.7679 106.828C31.7671 106.828 31.7662 106.828 31.7654 106.828C31.7646 106.828 31.7638 106.828 31.7629 106.828C31.7621 106.828 31.7613 106.829 31.7605 106.829C31.7596 106.829 31.7588 106.829 31.758 106.829C31.7572 106.829 31.7563 106.829 31.7555 106.83C31.7547 106.83 31.7538 106.83 31.753 106.83C31.7522 106.83 31.7514 106.83 31.7505 106.83C31.7497 106.831 31.7489 106.831 31.748 106.831C31.7472 106.831 31.7464 106.831 31.7455 106.831C31.7447 106.831 31.7439 106.831 31.743 106.832C31.7422 106.832 31.7414 106.832 31.7405 106.832C31.7397 106.832 31.7389 106.832 31.738 106.832C31.7372 106.833 31.7364 106.833 31.7355 106.833C31.7347 106.833 31.7338 106.833 31.733 106.833C31.7322 106.833 31.7313 106.834 31.7305 106.834C31.7297 106.834 31.7288 106.834 31.728 106.834C31.7271 106.834 31.7263 106.834 31.7255 106.835C31.7246 106.835 31.7238 106.835 31.7229 106.835C31.7221 106.835 31.7213 106.835 31.7204 106.835C31.7196 106.835 31.7187 106.836 31.7179 106.836C31.7171 106.836 31.7162 106.836 31.7154 106.836C31.7145 106.836 31.7137 106.836 31.7128 106.837C31.712 106.837 31.7112 106.837 31.7103 106.837C31.7095 106.837 31.7086 106.837 31.7078 106.837C31.7069 106.838 31.7061 106.838 31.7052 106.838C31.7044 106.838 31.7035 106.838 31.7027 106.838C31.7018 106.838 31.701 106.839 31.7001 106.839C31.6993 106.839 31.6984 106.839 31.6976 106.839C31.6967 106.839 31.6959 106.839 31.695 106.84C31.6942 106.84 31.6933 106.84 31.6925 106.84C31.6916 106.84 31.6908 106.84 31.6899 106.84C31.6891 106.84 31.6882 106.841 31.6874 106.841C31.6865 106.841 31.6857 106.841 31.6848 106.841C31.684 106.841 31.6831 106.841 31.6823 106.842C31.6814 106.842 31.6805 106.842 31.6797 106.842C31.6788 106.842 31.678 106.842 31.6771 106.842C31.6763 106.843 31.6754 106.843 31.6745 106.843C31.6737 106.843 31.6728 106.843 31.672 106.843C31.6711 106.843 31.6703 106.844 31.6694 106.844C31.6685 106.844 31.6677 106.844 31.6668 106.844C31.666 106.844 31.6651 106.844 31.6642 106.845C31.6634 106.845 31.6625 106.845 31.6617 106.845C31.6608 106.845 31.6599 106.845 31.6591 106.845C31.6582 106.846 31.6573 106.846 31.6565 106.846C31.6556 106.846 31.6547 106.846 31.6539 106.846C31.653 106.846 31.6521 106.847 31.6513 106.847C31.6504 106.847 31.6496 106.847 31.6487 106.847C31.6478 106.847 31.647 106.847 31.6461 106.848C31.6452 106.848 31.6443 106.848 31.6435 106.848C31.6426 106.848 31.6417 106.848 31.6409 106.848C31.64 106.849 31.6391 106.849 31.6383 106.849C31.6374 106.849 31.6365 106.849 31.6357 106.849C31.6348 106.849 31.6339 106.85 31.633 106.85C31.6322 106.85 31.6313 106.85 31.6304 106.85C31.6295 106.85 31.6287 106.85 31.6278 106.851C31.6269 106.851 31.626 106.851 31.6252 106.851C31.6243 106.851 31.6234 106.851 31.6225 106.851C31.6217 106.852 31.6208 106.852 31.6199 106.852C31.619 106.852 31.6182 106.852 31.6173 106.852C31.6164 106.852 31.6155 106.853 31.6147 106.853C31.6138 106.853 31.6129 106.853 31.612 106.853C31.6111 106.853 31.6103 106.853 31.6094 106.854C31.6085 106.854 31.6076 106.854 31.6067 106.854C31.6059 106.854 31.605 106.854 31.6041 106.854C31.6032 106.855 31.6023 106.855 31.6014 106.855C31.6006 106.855 31.5997 106.855 31.5988 106.855C31.5979 106.855 31.597 106.856 31.5961 106.856C31.5953 106.856 31.5944 106.856 31.5935 106.856C31.5926 106.856 31.5917 106.856 31.5908 106.857C31.5899 106.857 31.5891 106.857 31.5882 106.857C31.5873 106.857 31.5864 106.857 31.5855 106.857C31.5846 106.858 31.5837 106.858 31.5828 106.858C31.5819 106.858 31.5811 106.858 31.5802 106.858C31.5793 106.858 31.5784 106.859 31.5775 106.859C31.5766 106.859 31.5757 106.859 31.5748 106.859C31.5739 106.859 31.573 106.86 31.5721 106.86C31.5712 106.86 31.5704 106.86 31.5695 106.86C31.5686 106.86 31.5677 106.86 31.5668 106.861C31.5659 106.861 31.565 106.861 31.5641 106.861C31.5632 106.861 31.5623 106.861 31.5614 106.861C31.5605 106.862 31.5596 106.862 31.5587 106.862C31.5578 106.862 31.5569 106.862 31.556 106.862C31.5551 106.862 31.5542 106.863 31.5533 106.863C31.5524 106.863 31.5515 106.863 31.5506 106.863C31.5497 106.863 31.5488 106.863 31.5479 106.864C31.547 106.864 31.5461 106.864 31.5452 106.864C31.5443 106.864 31.5434 106.864 31.5425 106.865C31.5416 106.865 31.5407 106.865 31.5398 106.865C31.5389 106.865 31.538 106.865 31.5371 106.865C31.5362 106.866 31.5353 106.866 31.5344 106.866C31.5335 106.866 31.5326 106.866 31.5317 106.866C31.5307 106.866 31.5298 106.867 31.5289 106.867C31.528 106.867 31.5271 106.867 31.5262 106.867C31.5253 106.867 31.5244 106.868 31.5235 106.868C31.5226 106.868 31.5217 106.868 31.5208 106.868C31.5198 106.868 31.5189 106.868 31.518 106.869C31.5171 106.869 31.5162 106.869 31.5153 106.869C31.5144 106.869 31.5135 106.869 31.5126 106.869C31.5116 106.87 31.5107 106.87 31.5098 106.87C31.5089 106.87 31.508 106.87 31.5071 106.87C31.5062 106.87 31.5052 106.871 31.5043 106.871C31.5034 106.871 31.5025 106.871 31.5016 106.871C31.5007 106.871 31.4997 106.872 31.4988 106.872C31.4979 106.872 31.497 106.872 31.4961 106.872C31.4952 106.872 31.4942 106.872 31.4933 106.873C31.4924 106.873 31.4915 106.873 31.4906 106.873C31.4896 106.873 31.4887 106.873 31.4878 106.874C31.4869 106.874 31.486 106.874 31.485 106.874C31.4841 106.874 31.4832 106.874 31.4823 106.874C31.4813 106.875 31.4804 106.875 31.4795 106.875C31.4786 106.875 31.4777 106.875 31.4767 106.875C31.4758 106.875 31.4749 106.876 31.4739 106.876C31.473 106.876 31.4721 106.876 31.4712 106.876C31.4702 106.876 31.4693 106.877 31.4684 106.877C31.4675 106.877 31.4665 106.877 31.4656 106.877C31.4647 106.877 31.4638 106.877 31.4628 106.878C31.4619 106.878 31.461 106.878 31.46 106.878C31.4591 106.878 31.4582 106.878 31.4572 106.879C31.4563 106.879 31.4554 106.879 31.4545 106.879C31.4535 106.879 31.4526 106.879 31.4517 106.879C31.4507 106.88 31.4498 106.88 31.4489 106.88C31.4479 106.88 31.447 106.88 31.4461 106.88C31.4451 106.881 31.4442 106.881 31.4432 106.881C31.4423 106.881 31.4414 106.881 31.4404 106.881C31.4395 106.881 31.4386 106.882 31.4376 106.882C31.4367 106.882 31.4358 106.882 31.4348 106.882C31.4339 106.882 31.4329 106.883 31.432 106.883C31.4311 106.883 31.4301 106.883 31.4292 106.883C31.4282 106.883 31.4273 106.883 31.4264 106.884C31.4254 106.884 31.4245 106.884 31.4235 106.884C31.4226 106.884 31.4217 106.884 31.4207 106.885C31.4198 106.885 31.4188 106.885 31.4179 106.885C31.4169 106.885 31.416 106.885 31.4151 106.885C31.4141 106.886 31.4132 106.886 31.4122 106.886C31.4113 106.886 31.4103 106.886 31.4094 106.886C31.4084 106.887 31.4075 106.887 31.4065 106.887C31.4056 106.887 31.4046 106.887 31.4037 106.887C31.4027 106.887 31.4018 106.888 31.4009 106.888C31.3999 106.888 31.399 106.888 31.398 106.888C31.3971 106.888 31.3961 106.889 31.3952 106.889C31.3942 106.889 31.3932 106.889 31.3923 106.889C31.3913 106.889 31.3904 106.889 31.3894 106.89C31.3885 106.89 31.3875 106.89 31.3866 106.89C31.3856 106.89 31.3847 106.89 31.3837 106.891C31.3828 106.891 31.3818 106.891 31.3809 106.891C31.3799 106.891 31.3789 106.891 31.378 106.892C31.377 106.892 31.3761 106.892 31.3751 106.892C31.3742 106.892 31.3732 106.892 31.3722 106.892C31.3713 106.893 31.3703 106.893 31.3694 106.893C31.3684 106.893 31.3675 106.893 31.3665 106.893C31.3655 106.894 31.3646 106.894 31.3636 106.894C31.3627 106.894 31.3617 106.894 31.3607 106.894C31.3598 106.895 31.3588 106.895 31.3578 106.895C31.3569 106.895 31.3559 106.895 31.355 106.895C31.354 106.895 31.353 106.896 31.3521 106.896C31.3511 106.896 31.3501 106.896 31.3492 106.896C31.3482 106.896 31.3472 106.897 31.3463 106.897C31.3453 106.897 31.3443 106.897 31.3434 106.897C31.3424 106.897 31.3414 106.898 31.3405 106.898C31.3395 106.898 31.3385 106.898 31.3376 106.898C31.3366 106.898 31.3356 106.898 31.3347 106.899C31.3337 106.899 31.3327 106.899 31.3317 106.899C31.3308 106.899 31.3298 106.899 31.3288 106.9C31.3279 106.9 31.3269 106.9 31.3259 106.9C31.3249 106.9 31.324 106.9 31.323 106.901C31.322 106.901 31.3211 106.901 31.3201 106.901C31.3191 106.901 31.3181 106.901 31.3172 106.902C31.3162 106.902 31.3152 106.902 31.3142 106.902C31.3133 106.902 31.3123 106.902 31.3113 106.902C31.3103 106.903 31.3093 106.903 31.3084 106.903C31.3074 106.903 31.3064 106.903 31.3054 106.903C31.3045 106.904 31.3035 106.904 31.3025 106.904C31.3015 106.904 31.3005 106.904 31.2996 106.904C31.2986 106.905 31.2976 106.905 31.2966 106.905C31.2956 106.905 31.2946 106.905 31.2937 106.905C31.2927 106.906 31.2917 106.906 31.2907 106.906C31.2897 106.906 31.2888 106.906 31.2878 106.906C31.2868 106.906 31.2858 106.907 31.2848 106.907C31.2838 106.907 31.2828 106.907 31.2819 106.907C31.2809 106.907 31.2799 106.908 31.2789 106.908C31.2779 106.908 31.2769 106.908 31.2759 106.908C31.2749 106.908 31.274 106.909 31.273 106.909C31.272 106.909 31.271 106.909 31.27 106.909C31.269 106.909 31.268 106.91 31.267 106.91C31.266 106.91 31.2651 106.91 31.2641 106.91C31.2631 106.91 31.2621 106.911 31.2611 106.911C31.2601 106.911 31.2591 106.911 31.2581 106.911C31.2571 106.911 31.2561 106.912 31.2551 106.912C31.2541 106.912 31.2531 106.912 31.2521 106.912C31.2511 106.912 31.2502 106.912 31.2492 106.913C31.2482 106.913 31.2472 106.913 31.2462 106.913C31.2452 106.913 31.2442 106.913 31.2432 106.914C31.2422 106.914 31.2412 106.914 31.2402 106.914C31.2392 106.914 31.2382 106.914 31.2372 106.915C31.2362 106.915 31.2352 106.915 31.2342 106.915C31.2332 106.915 31.2322 106.915 31.2312 106.916C31.2302 106.916 31.2292 106.916 31.2282 106.916C31.2272 106.916 31.2262 106.916 31.2252 106.917C31.2242 106.917 31.2232 106.917 31.2222 106.917C31.2212 106.917 31.2201 106.917 31.2191 106.918C31.2181 106.918 31.2171 106.918 31.2161 106.918C31.2151 106.918 31.2141 106.918 31.2131 106.919C31.2121 106.919 31.2111 106.919 31.2101 106.919C31.2091 106.919 31.2081 106.919 31.2071 106.92C31.2061 106.92 31.205 106.92 31.204 106.92C31.203 106.92 31.202 106.92 31.201 106.921C31.2 106.921 31.199 106.921 31.198 106.921C31.197 106.921 31.1959 106.921 31.1949 106.922C31.1939 106.922 31.1929 106.922 31.1919 106.922C31.1909 106.922 31.1899 106.922 31.1889 106.923C31.1878 106.923 31.1868 106.923 31.1858 106.923C31.1848 106.923 31.1838 106.923 31.1828 106.924C31.1818 106.924 31.1807 106.924 31.1797 106.924C31.1787 106.924 31.1777 106.924 31.1767 106.925C31.1757 106.925 31.1746 106.925 31.1736 106.925C31.1726 106.925 31.1716 106.925 31.1706 106.926C31.1695 106.926 31.1685 106.926 31.1675 106.926C31.1665 106.926 31.1655 106.926 31.1644 106.927C31.1634 106.927 31.1624 106.927 31.1614 106.927C31.1603 106.927 31.1593 106.927 31.1583 106.928C31.1573 106.928 31.1563 106.928 31.1552 106.928C31.1542 106.928 31.1532 106.928 31.1522 106.929C31.1511 106.929 31.1501 106.929 31.1491 106.929C31.1481 106.929 31.147 106.929 31.146 106.93C31.145 106.93 31.144 106.93 31.1429 106.93C31.1419 106.93 31.1409 106.93 31.1398 106.931C31.1388 106.931 31.1378 106.931 31.1368 106.931C31.1357 106.931 31.1347 106.931 31.1337 106.932C31.1326 106.932 31.1316 106.932 31.1306 106.932C31.1295 106.932 31.1285 106.932 31.1275 106.933C31.1264 106.933 31.1254 106.933 31.1244 106.933C31.1233 106.933 31.1223 106.933 31.1213 106.934C31.1202 106.934 31.1192 106.934 31.1182 106.934C31.1171 106.934 31.1161 106.934 31.1151 106.935C31.114 106.935 31.113 106.935 31.112 106.935C31.1109 106.935 31.1099 106.936 31.1089 106.936C31.1078 106.936 31.1068 106.936 31.1057 106.936C31.1047 106.936 31.1037 106.937 31.1026 106.937C31.1016 106.937 31.1005 106.937 31.0995 106.937C31.0985 106.937 31.0974 106.938 31.0964 106.938C31.0953 106.938 31.0943 106.938 31.0933 106.938C31.0922 106.938 31.0912 106.939 31.0901 106.939C31.0891 106.939 31.088 106.939 31.087 106.939C31.086 106.939 31.0849 106.94 31.0839 106.94C31.0828 106.94 31.0818 106.94 31.0807 106.94C31.0797 106.94 31.0786 106.941 31.0776 106.941C31.0765 106.941 31.0755 106.941 31.0745 106.941C31.0734 106.941 31.0724 106.942 31.0713 106.942C31.0703 106.942 31.0692 106.942 31.0682 106.942C31.0671 106.943 31.0661 106.943 31.065 106.943C31.064 106.943 31.0629 106.943 31.0619 106.943C31.0608 106.944 31.0598 106.944 31.0587 106.944C31.0577 106.944 31.0566 106.944 31.0556 106.944C31.0545 106.945 31.0534 106.945 31.0524 106.945C31.0513 106.945 31.0503 106.945 31.0492 106.945C31.0482 106.946 31.0471 106.946 31.0461 106.946C31.045 106.946 31.044 106.946 31.0429 106.946C31.0418 106.947 31.0408 106.947 31.0397 106.947C31.0387 106.947 31.0376 106.947 31.0366 106.948C31.0355 106.948 31.0344 106.948 31.0334 106.948C31.0323 106.948 31.0313 106.948 31.0302 106.949C31.0291 106.949 31.0281 106.949 31.027 106.949C31.026 106.949 31.0249 106.949 31.0238 106.95C31.0228 106.95 31.0217 106.95 31.0206 106.95C31.0196 106.95 31.0185 106.95 31.0175 106.951C31.0164 106.951 31.0153 106.951 31.0143 106.951C31.0132 106.951 31.0121 106.952 31.0111 106.952C31.01 106.952 31.0089 106.952 31.0079 106.952C31.0068 106.952 31.0057 106.953 31.0047 106.953C31.0036 106.953 31.0025 106.953 31.0015 106.953C31.0004 106.953 30.9993 106.954 30.9983 106.954C30.9972 106.954 30.9961 106.954 30.9951 106.954C30.994 106.955 30.9929 106.955 30.9918 106.955C30.9908 106.955 30.9897 106.955 30.9886 106.955C30.9876 106.956 30.9865 106.956 30.9854 106.956C30.9843 106.956 30.9833 106.956 30.9822 106.956C30.9811 106.957 30.98 106.957 30.979 106.957C30.9779 106.957 30.9768 106.957 30.9757 106.958C30.9747 106.958 30.9736 106.958 30.9725 106.958C30.9714 106.958 30.9704 106.958 30.9693 106.959C30.9682 106.959 30.9671 106.959 30.9661 106.959C30.965 106.959 30.9639 106.959 30.9628 106.96C30.9617 106.96 30.9607 106.96 30.9596 106.96C30.9585 106.96 30.9574 106.961 30.9563 106.961C30.9553 106.961 30.9542 106.961 30.9531 106.961C30.952 106.961 30.9509 106.962 30.9498 106.962C30.9488 106.962 30.9477 106.962 30.9466 106.962C30.9455 106.962 30.9444 106.963 30.9433 106.963C30.9423 106.963 30.9412 106.963 30.9401 106.963C30.939 106.964 30.9379 106.964 30.9368 106.964C30.9357 106.964 30.9347 106.964 30.9336 106.964C30.9325 106.965 30.9314 106.965 30.9303 106.965C30.9292 106.965 30.9281 106.965 30.927 106.966C30.926 106.966 30.9249 106.966 30.9238 106.966C30.9227 106.966 30.9216 106.966 30.9205 106.967C30.9194 106.967 30.9183 106.967 30.9172 106.967C30.9161 106.967 30.915 106.967 30.914 106.968C30.9129 106.968 30.9118 106.968 30.9107 106.968C30.9096 106.968 30.9085 106.969 30.9074 106.969C30.9063 106.969 30.9052 106.969 30.9041 106.969C30.903 106.969 30.9019 106.97 30.9008 106.97C30.8997 106.97 30.8986 106.97 30.8975 106.97C30.8964 106.971 30.8953 106.971 30.8942 106.971C30.8931 106.971 30.892 106.971 30.8909 106.971C30.8898 106.972 30.8887 106.972 30.8876 106.972C30.8865 106.972 30.8854 106.972 30.8843 106.973C30.8832 106.973 30.8821 106.973 30.881 106.973C30.8799 106.973 30.8788 106.973 30.8777 106.974C30.8766 106.974 30.8755 106.974 30.8744 106.974C30.8733 106.974 30.8722 106.974 30.8711 106.975C30.87 106.975 30.8689 106.975 30.8678 106.975C30.8667 106.975 30.8656 106.976 30.8645 106.976C30.8634 106.976 30.8623 106.976 30.8612 106.976C30.8601 106.976 30.859 106.977 30.8578 106.977C30.8567 106.977 30.8556 106.977 30.8545 106.977C30.8534 106.978 30.8523 106.978 30.8512 106.978C30.8501 106.978 30.849 106.978 30.8479 106.978C30.8467 106.979 30.8456 106.979 30.8445 106.979C30.8434 106.979 30.8423 106.979 30.8412 106.98C30.8401 106.98 30.839 106.98 30.8379 106.98C30.8367 106.98 30.8356 106.981 30.8345 106.981C30.8334 106.981 30.8323 106.981 30.8312 106.981C30.8301 106.981 30.8289 106.982 30.8278 106.982C30.8267 106.982 30.8256 106.982 30.8245 106.982C30.8234 106.983 30.8222 106.983 30.8211 106.983C30.82 106.983 30.8189 106.983 30.8178 106.983C30.8166 106.984 30.8155 106.984 30.8144 106.984C30.8133 106.984 30.8122 106.984 30.811 106.985C30.8099 106.985 30.8088 106.985 30.8077 106.985C30.8066 106.985 30.8054 106.985 30.8043 106.986C30.8032 106.986 30.8021 106.986 30.8009 106.986C30.7998 106.986 30.7987 106.987 30.7976 106.987C30.7965 106.987 30.7953 106.987 30.7942 106.987C30.7931 106.987 30.792 106.988 30.7908 106.988C30.7897 106.988 30.7886 106.988 30.7874 106.988C30.7863 106.989 30.7852 106.989 30.7841 106.989C30.7829 106.989 30.7818 106.989 30.7807 106.99C30.7795 106.99 30.7784 106.99 30.7773 106.99C30.7762 106.99 30.775 106.99 30.7739 106.991C30.7728 106.991 30.7716 106.991 30.7705 106.991C30.7694 106.991 30.7682 106.992 30.7671 106.992C30.766 106.992 30.7648 106.992 30.7637 106.992C30.7626 106.992 30.7614 106.993 30.7603 106.993C30.7592 106.993 30.758 106.993 30.7569 106.993C30.7558 106.994 30.7546 106.994 30.7535 106.994C30.7524 106.994 30.7512 106.994 30.7501 106.995C30.749 106.995 30.7478 106.995 30.7467 106.995C30.7455 106.995 30.7444 106.995 30.7433 106.996C30.7421 106.996 30.741 106.996 30.7399 106.996C30.7387 106.996 30.7376 106.997 30.7364 106.997C30.7353 106.997 30.7341 106.997 30.733 106.997C30.7319 106.998 30.7307 106.998 30.7296 106.998C30.7284 106.998 30.7273 106.998 30.7262 106.998C30.725 106.999 30.7239 106.999 30.7227 106.999C30.7216 106.999 30.7204 106.999 30.7193 107C30.7181 107 30.717 107 30.7159 107C30.7147 107 30.7136 107.001 30.7124 107.001C30.7113 107.001 30.7101 107.001 30.709 107.001C30.7078 107.001 30.7067 107.002 30.7055 107.002C30.7044 107.002 30.7032 107.002 30.7021 107.002C30.7009 107.003 30.6998 107.003 30.6986 107.003C30.6975 107.003 30.6963 107.003 30.6952 107.004C30.694 107.004 30.6929 107.004 30.6917 107.004C30.6906 107.004 30.6894 107.004 30.6883 107.005C30.6871 107.005 30.686 107.005 30.6848 107.005C30.6837 107.005 30.6825 107.006 30.6813 107.006C30.6802 107.006 30.679 107.006 30.6779 107.006C30.6767 107.007 30.6756 107.007 30.6744 107.007C30.6732 107.007 30.6721 107.007 30.6709 107.008C30.6698 107.008 30.6686 107.008 30.6675 107.008C30.6663 107.008 30.6651 107.008 30.664 107.009C30.6628 107.009 30.6617 107.009 30.6605 107.009C30.6593 107.009 30.6582 107.01 30.657 107.01C30.6559 107.01 30.6547 107.01 30.6535 107.01C30.6524 107.011 30.6512 107.011 30.65 107.011C30.6489 107.011 30.6477 107.011 30.6466 107.012C30.6454 107.012 30.6442 107.012 30.6431 107.012C30.6419 107.012 30.6407 107.012 30.6396 107.013C30.6384 107.013 30.6372 107.013 30.6361 107.013C30.6349 107.013 30.6337 107.014 30.6326 107.014C30.6314 107.014 30.6302 107.014 30.6291 107.014C30.6279 107.015 30.6267 107.015 30.6256 107.015C30.6244 107.015 30.6232 107.015 30.6221 107.016C30.6209 107.016 30.6197 107.016 30.6185 107.016C30.6174 107.016 30.6162 107.017 30.615 107.017C30.6139 107.017 30.6127 107.017 30.6115 107.017C30.6103 107.017 30.6092 107.018 30.608 107.018C30.6068 107.018 30.6056 107.018 30.6045 107.018C30.6033 107.019 30.6021 107.019 30.6009 107.019C30.5998 107.019 30.5986 107.019 30.5974 107.02C30.5962 107.02 30.5951 107.02 30.5939 107.02C30.5927 107.02 30.5915 107.021 30.5903 107.021C30.5892 107.021 30.588 107.021 30.5868 107.021C30.5856 107.022 30.5844 107.022 30.5833 107.022C30.5821 107.022 30.5809 107.022 30.5797 107.022C30.5785 107.023 30.5774 107.023 30.5762 107.023C30.575 107.023 30.5738 107.023 30.5726 107.024C30.5714 107.024 30.5703 107.024 30.5691 107.024C30.5679 107.024 30.5667 107.025 30.5655 107.025C30.5643 107.025 30.5632 107.025 30.562 107.025C30.5608 107.026 30.5596 107.026 30.5584 107.026C30.5572 107.026 30.556 107.026 30.5549 107.027C30.5537 107.027 30.5525 107.027 30.5513 107.027C30.5501 107.027 30.5489 107.028 30.5477 107.028C30.5465 107.028 30.5453 107.028 30.5442 107.028C30.543 107.029 30.5418 107.029 30.5406 107.029C30.5394 107.029 30.5382 107.029 30.537 107.029C30.5358 107.03 30.5346 107.03 30.5334 107.03C30.5322 107.03 30.531 107.03 30.5299 107.031C30.5287 107.031 30.5275 107.031 30.5263 107.031C30.5251 107.031 30.5239 107.032 30.5227 107.032C30.5215 107.032 30.5203 107.032 30.5191 107.032C30.5179 107.033 30.5167 107.033 30.5155 107.033C30.5143 107.033 30.5131 107.033 30.5119 107.034C30.5107 107.034 30.5095 107.034 30.5083 107.034C30.5071 107.034 30.5059 107.035 30.5047 107.035C30.5035 107.035 30.5023 107.035 30.5011 107.035C30.4999 107.036 30.4987 107.036 30.4975 107.036C30.4963 107.036 30.4951 107.036 30.4939 107.037C30.4927 107.037 30.4915 107.037 30.4903 107.037C30.4891 107.037 30.4879 107.038 30.4867 107.038C30.4855 107.038 30.4843 107.038 30.4831 107.038C30.4819 107.039 30.4807 107.039 30.4795 107.039C30.4782 107.039 30.477 107.039 30.4758 107.04C30.4746 107.04 30.4734 107.04 30.4722 107.04C30.471 107.04 30.4698 107.041 30.4686 107.041C30.4674 107.041 30.4662 107.041 30.465 107.041C30.4637 107.042 30.4625 107.042 30.4613 107.042C30.4601 107.042 30.4589 107.042 30.4577 107.043C30.4565 107.043 30.4553 107.043 30.454 107.043C30.4528 107.043 30.4516 107.044 30.4504 107.044C30.4492 107.044 30.448 107.044 30.4468 107.044C30.4456 107.044 30.4443 107.045 30.4431 107.045C30.4419 107.045 30.4407 107.045 30.4395 107.045C30.4383 107.046 30.437 107.046 30.4358 107.046C30.4346 107.046 30.4334 107.046 30.4322 107.047C30.431 107.047 30.4297 107.047 30.4285 107.047C30.4273 107.047 30.4261 107.048 30.4249 107.048C30.4236 107.048 30.4224 107.048 30.4212 107.048C30.42 107.049 30.4188 107.049 30.4175 107.049C30.4163 107.049 30.4151 107.049 30.4139 107.05C30.4126 107.05 30.4114 107.05 30.4102 107.05C30.409 107.051 30.4077 107.051 30.4065 107.051C30.4053 107.051 30.4041 107.051 30.4028 107.052C30.4016 107.052 30.4004 107.052 30.3992 107.052C30.3979 107.052 30.3967 107.053 30.3955 107.053C30.3943 107.053 30.393 107.053 30.3918 107.053C30.3906 107.054 30.3894 107.054 30.3881 107.054C30.3869 107.054 30.3857 107.054 30.3844 107.055C30.3832 107.055 30.382 107.055 30.3807 107.055C30.3795 107.055 30.3783 107.056 30.377 107.056C30.3758 107.056 30.3746 107.056 30.3734 107.056C30.3721 107.057 30.3709 107.057 30.3697 107.057L30.5316 108.044L30.6935 109.031C30.6947 109.03 30.6959 109.03 30.6972 109.03C30.6984 109.03 30.6996 109.03 30.7008 109.029C30.7021 109.029 30.7033 109.029 30.7045 109.029C30.7058 109.029 30.707 109.028 30.7082 109.028C30.7095 109.028 30.7107 109.028 30.7119 109.028C30.7132 109.027 30.7144 109.027 30.7156 109.027C30.7168 109.027 30.7181 109.027 30.7193 109.026C30.7205 109.026 30.7217 109.026 30.723 109.026C30.7242 109.026 30.7254 109.025 30.7266 109.025C30.7279 109.025 30.7291 109.025 30.7303 109.025C30.7315 109.024 30.7328 109.024 30.734 109.024C30.7352 109.024 30.7364 109.024 30.7377 109.023C30.7389 109.023 30.7401 109.023 30.7413 109.023C30.7426 109.023 30.7438 109.022 30.745 109.022C30.7462 109.022 30.7474 109.022 30.7487 109.022C30.7499 109.021 30.7511 109.021 30.7523 109.021C30.7535 109.021 30.7548 109.021 30.756 109.02C30.7572 109.02 30.7584 109.02 30.7596 109.02C30.7608 109.02 30.7621 109.019 30.7633 109.019C30.7645 109.019 30.7657 109.019 30.7669 109.019C30.7681 109.018 30.7694 109.018 30.7706 109.018C30.7718 109.018 30.773 109.018 30.7742 109.017C30.7754 109.017 30.7766 109.017 30.7778 109.017C30.7791 109.017 30.7803 109.016 30.7815 109.016C30.7827 109.016 30.7839 109.016 30.7851 109.016C30.7863 109.015 30.7875 109.015 30.7888 109.015C30.79 109.015 30.7912 109.015 30.7924 109.014C30.7936 109.014 30.7948 109.014 30.796 109.014C30.7972 109.014 30.7984 109.013 30.7996 109.013C30.8008 109.013 30.802 109.013 30.8032 109.013C30.8045 109.012 30.8057 109.012 30.8069 109.012C30.8081 109.012 30.8093 109.012 30.8105 109.011C30.8117 109.011 30.8129 109.011 30.8141 109.011C30.8153 109.011 30.8165 109.01 30.8177 109.01C30.8189 109.01 30.8201 109.01 30.8213 109.01C30.8225 109.009 30.8237 109.009 30.8249 109.009C30.8261 109.009 30.8273 109.009 30.8285 109.008C30.8297 109.008 30.8309 109.008 30.8321 109.008C30.8333 109.008 30.8345 109.007 30.8357 109.007C30.8369 109.007 30.8381 109.007 30.8393 109.007C30.8405 109.006 30.8417 109.006 30.8429 109.006C30.8441 109.006 30.8453 109.006 30.8465 109.005C30.8477 109.005 30.8489 109.005 30.8501 109.005C30.8513 109.005 30.8525 109.004 30.8537 109.004C30.8548 109.004 30.856 109.004 30.8572 109.004C30.8584 109.004 30.8596 109.003 30.8608 109.003C30.862 109.003 30.8632 109.003 30.8644 109.003C30.8656 109.002 30.8668 109.002 30.868 109.002C30.8691 109.002 30.8703 109.002 30.8715 109.001C30.8727 109.001 30.8739 109.001 30.8751 109.001C30.8763 109.001 30.8775 109 30.8787 109C30.8798 109 30.881 109 30.8822 109C30.8834 108.999 30.8846 108.999 30.8858 108.999C30.887 108.999 30.8881 108.999 30.8893 108.998C30.8905 108.998 30.8917 108.998 30.8929 108.998C30.8941 108.998 30.8952 108.997 30.8964 108.997C30.8976 108.997 30.8988 108.997 30.9 108.997C30.9012 108.996 30.9023 108.996 30.9035 108.996C30.9047 108.996 30.9059 108.996 30.9071 108.996C30.9082 108.995 30.9094 108.995 30.9106 108.995C30.9118 108.995 30.913 108.995 30.9141 108.994C30.9153 108.994 30.9165 108.994 30.9177 108.994C30.9189 108.994 30.92 108.993 30.9212 108.993C30.9224 108.993 30.9236 108.993 30.9247 108.993C30.9259 108.992 30.9271 108.992 30.9283 108.992C30.9294 108.992 30.9306 108.992 30.9318 108.991C30.933 108.991 30.9341 108.991 30.9353 108.991C30.9365 108.991 30.9377 108.991 30.9388 108.99C30.94 108.99 30.9412 108.99 30.9423 108.99C30.9435 108.99 30.9447 108.989 30.9458 108.989C30.947 108.989 30.9482 108.989 30.9494 108.989C30.9505 108.988 30.9517 108.988 30.9529 108.988C30.954 108.988 30.9552 108.988 30.9564 108.987C30.9575 108.987 30.9587 108.987 30.9599 108.987C30.961 108.987 30.9622 108.986 30.9634 108.986C30.9645 108.986 30.9657 108.986 30.9669 108.986C30.968 108.986 30.9692 108.985 30.9704 108.985C30.9715 108.985 30.9727 108.985 30.9738 108.985C30.975 108.984 30.9762 108.984 30.9773 108.984C30.9785 108.984 30.9797 108.984 30.9808 108.983C30.982 108.983 30.9831 108.983 30.9843 108.983C30.9855 108.983 30.9866 108.982 30.9878 108.982C30.9889 108.982 30.9901 108.982 30.9913 108.982C30.9924 108.982 30.9936 108.981 30.9947 108.981C30.9959 108.981 30.997 108.981 30.9982 108.981C30.9994 108.98 31.0005 108.98 31.0017 108.98C31.0028 108.98 31.004 108.98 31.0051 108.979C31.0063 108.979 31.0074 108.979 31.0086 108.979C31.0098 108.979 31.0109 108.978 31.0121 108.978C31.0132 108.978 31.0144 108.978 31.0155 108.978C31.0167 108.978 31.0178 108.977 31.019 108.977C31.0201 108.977 31.0213 108.977 31.0224 108.977C31.0236 108.976 31.0247 108.976 31.0259 108.976C31.027 108.976 31.0282 108.976 31.0293 108.975C31.0305 108.975 31.0316 108.975 31.0328 108.975C31.0339 108.975 31.0351 108.975 31.0362 108.974C31.0374 108.974 31.0385 108.974 31.0397 108.974C31.0408 108.974 31.0419 108.973 31.0431 108.973C31.0442 108.973 31.0454 108.973 31.0465 108.973C31.0477 108.972 31.0488 108.972 31.05 108.972C31.0511 108.972 31.0522 108.972 31.0534 108.972C31.0545 108.971 31.0557 108.971 31.0568 108.971C31.0579 108.971 31.0591 108.971 31.0602 108.97C31.0614 108.97 31.0625 108.97 31.0636 108.97C31.0648 108.97 31.0659 108.969 31.0671 108.969C31.0682 108.969 31.0693 108.969 31.0705 108.969C31.0716 108.969 31.0728 108.968 31.0739 108.968C31.075 108.968 31.0762 108.968 31.0773 108.968C31.0784 108.967 31.0796 108.967 31.0807 108.967C31.0818 108.967 31.083 108.967 31.0841 108.966C31.0852 108.966 31.0864 108.966 31.0875 108.966C31.0886 108.966 31.0898 108.966 31.0909 108.965C31.092 108.965 31.0932 108.965 31.0943 108.965C31.0954 108.965 31.0966 108.964 31.0977 108.964C31.0988 108.964 31.1 108.964 31.1011 108.964C31.1022 108.964 31.1033 108.963 31.1045 108.963C31.1056 108.963 31.1067 108.963 31.1079 108.963C31.109 108.962 31.1101 108.962 31.1112 108.962C31.1124 108.962 31.1135 108.962 31.1146 108.961C31.1158 108.961 31.1169 108.961 31.118 108.961C31.1191 108.961 31.1203 108.961 31.1214 108.96C31.1225 108.96 31.1236 108.96 31.1247 108.96C31.1259 108.96 31.127 108.959 31.1281 108.959C31.1292 108.959 31.1304 108.959 31.1315 108.959C31.1326 108.959 31.1337 108.958 31.1348 108.958C31.136 108.958 31.1371 108.958 31.1382 108.958C31.1393 108.957 31.1404 108.957 31.1416 108.957C31.1427 108.957 31.1438 108.957 31.1449 108.956C31.146 108.956 31.1472 108.956 31.1483 108.956C31.1494 108.956 31.1505 108.956 31.1516 108.955C31.1527 108.955 31.1538 108.955 31.155 108.955C31.1561 108.955 31.1572 108.954 31.1583 108.954C31.1594 108.954 31.1605 108.954 31.1617 108.954C31.1628 108.954 31.1639 108.953 31.165 108.953C31.1661 108.953 31.1672 108.953 31.1683 108.953C31.1694 108.952 31.1705 108.952 31.1717 108.952C31.1728 108.952 31.1739 108.952 31.175 108.952C31.1761 108.951 31.1772 108.951 31.1783 108.951C31.1794 108.951 31.1805 108.951 31.1816 108.95C31.1828 108.95 31.1839 108.95 31.185 108.95C31.1861 108.95 31.1872 108.95 31.1883 108.949C31.1894 108.949 31.1905 108.949 31.1916 108.949C31.1927 108.949 31.1938 108.948 31.1949 108.948C31.196 108.948 31.1971 108.948 31.1982 108.948C31.1993 108.948 31.2004 108.947 31.2015 108.947C31.2026 108.947 31.2037 108.947 31.2048 108.947C31.2059 108.946 31.207 108.946 31.2081 108.946C31.2092 108.946 31.2103 108.946 31.2114 108.946C31.2125 108.945 31.2136 108.945 31.2147 108.945C31.2158 108.945 31.2169 108.945 31.218 108.945C31.2191 108.944 31.2202 108.944 31.2213 108.944C31.2224 108.944 31.2235 108.944 31.2246 108.943C31.2257 108.943 31.2268 108.943 31.2279 108.943C31.229 108.943 31.2301 108.943 31.2312 108.942C31.2323 108.942 31.2334 108.942 31.2345 108.942C31.2356 108.942 31.2367 108.941 31.2378 108.941C31.2388 108.941 31.2399 108.941 31.241 108.941C31.2421 108.941 31.2432 108.94 31.2443 108.94C31.2454 108.94 31.2465 108.94 31.2476 108.94C31.2487 108.939 31.2498 108.939 31.2508 108.939C31.2519 108.939 31.253 108.939 31.2541 108.939C31.2552 108.938 31.2563 108.938 31.2574 108.938C31.2585 108.938 31.2595 108.938 31.2606 108.938C31.2617 108.937 31.2628 108.937 31.2639 108.937C31.265 108.937 31.2661 108.937 31.2671 108.936C31.2682 108.936 31.2693 108.936 31.2704 108.936C31.2715 108.936 31.2726 108.936 31.2736 108.935C31.2747 108.935 31.2758 108.935 31.2769 108.935C31.278 108.935 31.2791 108.934 31.2801 108.934C31.2812 108.934 31.2823 108.934 31.2834 108.934C31.2845 108.934 31.2855 108.933 31.2866 108.933C31.2877 108.933 31.2888 108.933 31.2899 108.933C31.2909 108.933 31.292 108.932 31.2931 108.932C31.2942 108.932 31.2952 108.932 31.2963 108.932C31.2974 108.931 31.2985 108.931 31.2995 108.931C31.3006 108.931 31.3017 108.931 31.3028 108.931C31.3038 108.93 31.3049 108.93 31.306 108.93C31.3071 108.93 31.3081 108.93 31.3092 108.93C31.3103 108.929 31.3114 108.929 31.3124 108.929C31.3135 108.929 31.3146 108.929 31.3156 108.928C31.3167 108.928 31.3178 108.928 31.3188 108.928C31.3199 108.928 31.321 108.928 31.3221 108.927C31.3231 108.927 31.3242 108.927 31.3253 108.927C31.3263 108.927 31.3274 108.927 31.3285 108.926C31.3295 108.926 31.3306 108.926 31.3317 108.926C31.3327 108.926 31.3338 108.926 31.3349 108.925C31.3359 108.925 31.337 108.925 31.3381 108.925C31.3391 108.925 31.3402 108.924 31.3413 108.924C31.3423 108.924 31.3434 108.924 31.3444 108.924C31.3455 108.924 31.3466 108.923 31.3476 108.923C31.3487 108.923 31.3498 108.923 31.3508 108.923C31.3519 108.923 31.3529 108.922 31.354 108.922C31.3551 108.922 31.3561 108.922 31.3572 108.922C31.3582 108.921 31.3593 108.921 31.3603 108.921C31.3614 108.921 31.3625 108.921 31.3635 108.921C31.3646 108.92 31.3656 108.92 31.3667 108.92C31.3678 108.92 31.3688 108.92 31.3699 108.92C31.3709 108.919 31.372 108.919 31.373 108.919C31.3741 108.919 31.3751 108.919 31.3762 108.919C31.3772 108.918 31.3783 108.918 31.3794 108.918C31.3804 108.918 31.3815 108.918 31.3825 108.918C31.3836 108.917 31.3846 108.917 31.3857 108.917C31.3867 108.917 31.3878 108.917 31.3888 108.916C31.3899 108.916 31.3909 108.916 31.392 108.916C31.393 108.916 31.3941 108.916 31.3951 108.915C31.3962 108.915 31.3972 108.915 31.3983 108.915C31.3993 108.915 31.4003 108.915 31.4014 108.914C31.4024 108.914 31.4035 108.914 31.4045 108.914C31.4056 108.914 31.4066 108.914 31.4077 108.913C31.4087 108.913 31.4098 108.913 31.4108 108.913C31.4118 108.913 31.4129 108.913 31.4139 108.912C31.415 108.912 31.416 108.912 31.4171 108.912C31.4181 108.912 31.4191 108.912 31.4202 108.911C31.4212 108.911 31.4223 108.911 31.4233 108.911C31.4243 108.911 31.4254 108.91 31.4264 108.91C31.4275 108.91 31.4285 108.91 31.4295 108.91C31.4306 108.91 31.4316 108.909 31.4327 108.909C31.4337 108.909 31.4347 108.909 31.4358 108.909C31.4368 108.909 31.4378 108.908 31.4389 108.908C31.4399 108.908 31.4409 108.908 31.442 108.908C31.443 108.908 31.444 108.907 31.4451 108.907C31.4461 108.907 31.4471 108.907 31.4482 108.907C31.4492 108.907 31.4502 108.906 31.4513 108.906C31.4523 108.906 31.4533 108.906 31.4544 108.906C31.4554 108.906 31.4564 108.905 31.4575 108.905C31.4585 108.905 31.4595 108.905 31.4606 108.905C31.4616 108.905 31.4626 108.904 31.4636 108.904C31.4647 108.904 31.4657 108.904 31.4667 108.904C31.4678 108.904 31.4688 108.903 31.4698 108.903C31.4708 108.903 31.4719 108.903 31.4729 108.903C31.4739 108.903 31.4749 108.902 31.476 108.902C31.477 108.902 31.478 108.902 31.479 108.902C31.4801 108.902 31.4811 108.901 31.4821 108.901C31.4831 108.901 31.4841 108.901 31.4852 108.901C31.4862 108.901 31.4872 108.9 31.4882 108.9C31.4893 108.9 31.4903 108.9 31.4913 108.9C31.4923 108.9 31.4933 108.899 31.4944 108.899C31.4954 108.899 31.4964 108.899 31.4974 108.899C31.4984 108.898 31.4995 108.898 31.5005 108.898C31.5015 108.898 31.5025 108.898 31.5035 108.898C31.5045 108.897 31.5056 108.897 31.5066 108.897C31.5076 108.897 31.5086 108.897 31.5096 108.897C31.5106 108.896 31.5116 108.896 31.5127 108.896C31.5137 108.896 31.5147 108.896 31.5157 108.896C31.5167 108.895 31.5177 108.895 31.5187 108.895C31.5197 108.895 31.5208 108.895 31.5218 108.895C31.5228 108.895 31.5238 108.894 31.5248 108.894C31.5258 108.894 31.5268 108.894 31.5278 108.894C31.5288 108.894 31.5299 108.893 31.5309 108.893C31.5319 108.893 31.5329 108.893 31.5339 108.893C31.5349 108.893 31.5359 108.892 31.5369 108.892C31.5379 108.892 31.5389 108.892 31.5399 108.892C31.5409 108.892 31.5419 108.891 31.5429 108.891C31.5439 108.891 31.545 108.891 31.546 108.891C31.547 108.891 31.548 108.89 31.549 108.89C31.55 108.89 31.551 108.89 31.552 108.89C31.553 108.89 31.554 108.889 31.555 108.889C31.556 108.889 31.557 108.889 31.558 108.889C31.559 108.889 31.56 108.888 31.561 108.888C31.562 108.888 31.563 108.888 31.564 108.888C31.565 108.888 31.566 108.887 31.567 108.887C31.568 108.887 31.569 108.887 31.57 108.887C31.571 108.887 31.572 108.886 31.573 108.886C31.5739 108.886 31.5749 108.886 31.5759 108.886C31.5769 108.886 31.5779 108.885 31.5789 108.885C31.5799 108.885 31.5809 108.885 31.5819 108.885C31.5829 108.885 31.5839 108.884 31.5849 108.884C31.5859 108.884 31.5869 108.884 31.5879 108.884C31.5889 108.884 31.5898 108.884 31.5908 108.883C31.5918 108.883 31.5928 108.883 31.5938 108.883C31.5948 108.883 31.5958 108.883 31.5968 108.882C31.5978 108.882 31.5987 108.882 31.5997 108.882C31.6007 108.882 31.6017 108.882 31.6027 108.881C31.6037 108.881 31.6047 108.881 31.6057 108.881C31.6066 108.881 31.6076 108.881 31.6086 108.88C31.6096 108.88 31.6106 108.88 31.6116 108.88C31.6125 108.88 31.6135 108.88 31.6145 108.879C31.6155 108.879 31.6165 108.879 31.6175 108.879C31.6184 108.879 31.6194 108.879 31.6204 108.878C31.6214 108.878 31.6224 108.878 31.6234 108.878C31.6243 108.878 31.6253 108.878 31.6263 108.878C31.6273 108.877 31.6283 108.877 31.6292 108.877C31.6302 108.877 31.6312 108.877 31.6322 108.877C31.6331 108.876 31.6341 108.876 31.6351 108.876C31.6361 108.876 31.6371 108.876 31.638 108.876C31.639 108.875 31.64 108.875 31.641 108.875C31.6419 108.875 31.6429 108.875 31.6439 108.875C31.6449 108.874 31.6458 108.874 31.6468 108.874C31.6478 108.874 31.6487 108.874 31.6497 108.874C31.6507 108.874 31.6517 108.873 31.6526 108.873C31.6536 108.873 31.6546 108.873 31.6555 108.873C31.6565 108.873 31.6575 108.872 31.6585 108.872C31.6594 108.872 31.6604 108.872 31.6614 108.872C31.6623 108.872 31.6633 108.871 31.6643 108.871C31.6652 108.871 31.6662 108.871 31.6672 108.871C31.6681 108.871 31.6691 108.87 31.6701 108.87C31.671 108.87 31.672 108.87 31.673 108.87C31.6739 108.87 31.6749 108.87 31.6759 108.869C31.6768 108.869 31.6778 108.869 31.6788 108.869C31.6797 108.869 31.6807 108.869 31.6816 108.868C31.6826 108.868 31.6836 108.868 31.6845 108.868C31.6855 108.868 31.6865 108.868 31.6874 108.867C31.6884 108.867 31.6893 108.867 31.6903 108.867C31.6913 108.867 31.6922 108.867 31.6932 108.867C31.6941 108.866 31.6951 108.866 31.696 108.866C31.697 108.866 31.698 108.866 31.6989 108.866C31.6999 108.865 31.7008 108.865 31.7018 108.865C31.7027 108.865 31.7037 108.865 31.7047 108.865C31.7056 108.865 31.7066 108.864 31.7075 108.864C31.7085 108.864 31.7094 108.864 31.7104 108.864C31.7113 108.864 31.7123 108.863 31.7132 108.863C31.7142 108.863 31.7151 108.863 31.7161 108.863C31.717 108.863 31.718 108.862 31.719 108.862C31.7199 108.862 31.7209 108.862 31.7218 108.862C31.7228 108.862 31.7237 108.862 31.7247 108.861C31.7256 108.861 31.7265 108.861 31.7275 108.861C31.7284 108.861 31.7294 108.861 31.7303 108.86C31.7313 108.86 31.7322 108.86 31.7332 108.86C31.7341 108.86 31.7351 108.86 31.736 108.86C31.737 108.859 31.7379 108.859 31.7388 108.859C31.7398 108.859 31.7407 108.859 31.7417 108.859C31.7426 108.858 31.7436 108.858 31.7445 108.858C31.7455 108.858 31.7464 108.858 31.7473 108.858C31.7483 108.858 31.7492 108.857 31.7502 108.857C31.7511 108.857 31.752 108.857 31.753 108.857C31.7539 108.857 31.7549 108.856 31.7558 108.856C31.7567 108.856 31.7577 108.856 31.7586 108.856C31.7596 108.856 31.7605 108.856 31.7614 108.855C31.7624 108.855 31.7633 108.855 31.7642 108.855C31.7652 108.855 31.7661 108.855 31.767 108.854C31.768 108.854 31.7689 108.854 31.7699 108.854C31.7708 108.854 31.7717 108.854 31.7727 108.854C31.7736 108.853 31.7745 108.853 31.7755 108.853C31.7764 108.853 31.7773 108.853 31.7782 108.853C31.7792 108.852 31.7801 108.852 31.781 108.852C31.782 108.852 31.7829 108.852 31.7838 108.852C31.7848 108.852 31.7857 108.851 31.7866 108.851C31.7876 108.851 31.7885 108.851 31.7894 108.851C31.7903 108.851 31.7913 108.85 31.7922 108.85C31.7931 108.85 31.794 108.85 31.795 108.85C31.7959 108.85 31.7968 108.85 31.7977 108.849C31.7987 108.849 31.7996 108.849 31.8005 108.849C31.8014 108.849 31.8024 108.849 31.8033 108.848C31.8042 108.848 31.8051 108.848 31.8061 108.848C31.807 108.848 31.8079 108.848 31.8088 108.848C31.8098 108.847 31.8107 108.847 31.8116 108.847C31.8125 108.847 31.8134 108.847 31.8144 108.847C31.8153 108.847 31.8162 108.846 31.8171 108.846C31.818 108.846 31.819 108.846 31.8199 108.846C31.8208 108.846 31.8217 108.845 31.8226 108.845C31.8235 108.845 31.8245 108.845 31.8254 108.845C31.8263 108.845 31.8272 108.845 31.8281 108.844C31.829 108.844 31.83 108.844 31.8309 108.844C31.8318 108.844 31.8327 108.844 31.8336 108.844C31.8345 108.843 31.8354 108.843 31.8364 108.843C31.8373 108.843 31.8382 108.843 31.8391 108.843C31.84 108.842 31.8409 108.842 31.8418 108.842C31.8427 108.842 31.8436 108.842 31.8446 108.842C31.8455 108.842 31.8464 108.841 31.8473 108.841C31.8482 108.841 31.8491 108.841 31.85 108.841C31.8509 108.841 31.8518 108.841 31.8527 108.84C31.8536 108.84 31.8545 108.84 31.8555 108.84C31.8564 108.84 31.8573 108.84 31.8582 108.839C31.8591 108.839 31.86 108.839 31.8609 108.839C31.8618 108.839 31.8627 108.839 31.8636 108.839C31.8645 108.838 31.8654 108.838 31.8663 108.838C31.8672 108.838 31.8681 108.838 31.869 108.838C31.8699 108.838 31.8708 108.837 31.8717 108.837C31.8726 108.837 31.8735 108.837 31.8744 108.837C31.8753 108.837 31.8762 108.837 31.8771 108.836C31.878 108.836 31.8789 108.836 31.8798 108.836C31.8807 108.836 31.8816 108.836 31.8825 108.835C31.8834 108.835 31.8843 108.835 31.8852 108.835C31.8861 108.835 31.887 108.835 31.8879 108.835C31.8888 108.834 31.8897 108.834 31.8906 108.834C31.8915 108.834 31.8924 108.834 31.8933 108.834C31.8942 108.834 31.895 108.833 31.8959 108.833C31.8968 108.833 31.8977 108.833 31.8986 108.833C31.8995 108.833 31.9004 108.833 31.9013 108.832C31.9022 108.832 31.9031 108.832 31.904 108.832C31.9049 108.832 31.9057 108.832 31.9066 108.832C31.9075 108.831 31.9084 108.831 31.9093 108.831C31.9102 108.831 31.9111 108.831 31.912 108.831C31.9129 108.831 31.9137 108.83 31.9146 108.83C31.9155 108.83 31.9164 108.83 31.9173 108.83C31.9182 108.83 31.9191 108.829 31.9199 108.829C31.9208 108.829 31.9217 108.829 31.9226 108.829C31.9235 108.829 31.9244 108.829 31.9252 108.828C31.9261 108.828 31.927 108.828 31.9279 108.828C31.9288 108.828 31.9297 108.828 31.9305 108.828C31.9314 108.827 31.9323 108.827 31.9332 108.827C31.9341 108.827 31.9349 108.827 31.9358 108.827C31.9367 108.827 31.9376 108.826 31.9385 108.826C31.9393 108.826 31.9402 108.826 31.9411 108.826C31.942 108.826 31.9428 108.826 31.9437 108.825C31.9446 108.825 31.9455 108.825 31.9463 108.825C31.9472 108.825 31.9481 108.825 31.949 108.825C31.9498 108.824 31.9507 108.824 31.9516 108.824C31.9525 108.824 31.9533 108.824 31.9542 108.824C31.9551 108.824 31.956 108.823 31.9568 108.823C31.9577 108.823 31.9586 108.823 31.9594 108.823C31.9603 108.823 31.9612 108.823 31.9621 108.822C31.9629 108.822 31.9638 108.822 31.9647 108.822C31.9655 108.822 31.9664 108.822 31.9673 108.822C31.9681 108.821 31.969 108.821 31.9699 108.821C31.9708 108.821 31.9716 108.821 31.9725 108.821C31.9733 108.821 31.9742 108.82 31.9751 108.82C31.9759 108.82 31.9768 108.82 31.9777 108.82C31.9785 108.82 31.9794 108.82 31.9803 108.819C31.9811 108.819 31.982 108.819 31.9829 108.819C31.9837 108.819 31.9846 108.819 31.9855 108.819C31.9863 108.818 31.9872 108.818 31.988 108.818C31.9889 108.818 31.9898 108.818 31.9906 108.818C31.9915 108.818 31.9923 108.817 31.9932 108.817C31.9941 108.817 31.9949 108.817 31.9958 108.817C31.9966 108.817 31.9975 108.817 31.9983 108.816C31.9992 108.816 32.0001 108.816 32.0009 108.816C32.0018 108.816 32.0026 108.816 32.0035 108.816C32.0043 108.815 32.0052 108.815 32.0061 108.815C32.0069 108.815 32.0078 108.815 32.0086 108.815C32.0095 108.815 32.0103 108.815 32.0112 108.814C32.012 108.814 32.0129 108.814 32.0137 108.814C32.0146 108.814 32.0154 108.814 32.0163 108.814C32.0171 108.813 32.018 108.813 32.0188 108.813C32.0197 108.813 32.0205 108.813 32.0214 108.813C32.0222 108.813 32.0231 108.812 32.0239 108.812C32.0248 108.812 32.0256 108.812 32.0265 108.812C32.0273 108.812 32.0282 108.812 32.029 108.811C32.0299 108.811 32.0307 108.811 32.0316 108.811C32.0324 108.811 32.0333 108.811 32.0341 108.811C32.035 108.81 32.0358 108.81 32.0366 108.81C32.0375 108.81 32.0383 108.81 32.0392 108.81C32.04 108.81 32.0409 108.81 32.0417 108.809C32.0425 108.809 32.0434 108.809 32.0442 108.809C32.0451 108.809 32.0459 108.809 32.0467 108.809C32.0476 108.808 32.0484 108.808 32.0493 108.808C32.0501 108.808 32.0509 108.808 32.0518 108.808C32.0526 108.808 32.0535 108.807 32.0543 108.807C32.0551 108.807 32.056 108.807 32.0568 108.807C32.0576 108.807 32.0585 108.807 32.0593 108.806C32.0602 108.806 32.061 108.806 32.0618 108.806C32.0627 108.806 32.0635 108.806 32.0643 108.806C32.0652 108.806 32.066 108.805 32.0668 108.805C32.0677 108.805 32.0685 108.805 32.0693 108.805C32.0702 108.805 32.071 108.805 32.0718 108.804C32.0727 108.804 32.0735 108.804 32.0743 108.804C32.0751 108.804 32.076 108.804 32.0768 108.804C32.0776 108.803 32.0785 108.803 32.0793 108.803C32.0801 108.803 32.081 108.803 32.0818 108.803C32.0826 108.803 32.0834 108.803 32.0843 108.802C32.0851 108.802 32.0859 108.802 32.0867 108.802C32.0876 108.802 32.0884 108.802 32.0892 108.802C32.09 108.801 32.0909 108.801 32.0917 108.801C32.0925 108.801 32.0933 108.801 32.0942 108.801C32.095 108.801 32.0958 108.8 32.0966 108.8C32.0975 108.8 32.0983 108.8 32.0991 108.8C32.0999 108.8 32.1007 108.8 32.1016 108.8C32.1024 108.799 32.1032 108.799 32.104 108.799C32.1048 108.799 32.1057 108.799 32.1065 108.799C32.1073 108.799 32.1081 108.798 32.1089 108.798C32.1098 108.798 32.1106 108.798 32.1114 108.798C32.1122 108.798 32.113 108.798 32.1138 108.798C32.1147 108.797 32.1155 108.797 32.1163 108.797C32.1171 108.797 32.1179 108.797 32.1187 108.797C32.1195 108.797 32.1204 108.796 32.1212 108.796C32.122 108.796 32.1228 108.796 32.1236 108.796C32.1244 108.796 32.1252 108.796 32.126 108.796C32.1269 108.795 32.1277 108.795 32.1285 108.795C32.1293 108.795 32.1301 108.795 32.1309 108.795C32.1317 108.795 32.1325 108.794 32.1333 108.794C32.1341 108.794 32.135 108.794 32.1358 108.794C32.1366 108.794 32.1374 108.794 32.1382 108.794C32.139 108.793 32.1398 108.793 32.1406 108.793C32.1414 108.793 32.1422 108.793 32.143 108.793C32.1438 108.793 32.1446 108.792 32.1454 108.792C32.1462 108.792 32.147 108.792 32.1479 108.792C32.1487 108.792 32.1495 108.792 32.1503 108.792C32.1511 108.791 32.1519 108.791 32.1527 108.791C32.1535 108.791 32.1543 108.791 32.1551 108.791C32.1559 108.791 32.1567 108.791 32.1575 108.79C32.1583 108.79 32.1591 108.79 32.1599 108.79C32.1607 108.79 32.1615 108.79 32.1623 108.79C32.1631 108.789 32.1639 108.789 32.1647 108.789C32.1655 108.789 32.1663 108.789 32.167 108.789C32.1678 108.789 32.1686 108.789 32.1694 108.788C32.1702 108.788 32.171 108.788 32.1718 108.788C32.1726 108.788 32.1734 108.788 32.1742 108.788C32.175 108.787 32.1758 108.787 32.1766 108.787C32.1774 108.787 32.1782 108.787 32.179 108.787C32.1797 108.787 32.1805 108.787 32.1813 108.786C32.1821 108.786 32.1829 108.786 32.1837 108.786C32.1845 108.786 32.1853 108.786 32.1861 108.786C32.1869 108.786 32.1876 108.785 32.1884 108.785C32.1892 108.785 32.19 108.785 32.1908 108.785C32.1916 108.785 32.1924 108.785 32.1932 108.785C32.1939 108.784 32.1947 108.784 32.1955 108.784C32.1963 108.784 32.1971 108.784 32.1979 108.784C32.1987 108.784 32.1994 108.783 32.2002 108.783C32.201 108.783 32.2018 108.783 32.2026 108.783C32.2034 108.783 32.2041 108.783 32.2049 108.783C32.2057 108.782 32.2065 108.782 32.2073 108.782C32.208 108.782 32.2088 108.782 32.2096 108.782C32.2104 108.782 32.2112 108.782 32.2119 108.781C32.2127 108.781 32.2135 108.781 32.2143 108.781C32.2151 108.781 32.2158 108.781 32.2166 108.781C32.2174 108.781 32.2182 108.78 32.2189 108.78C32.2197 108.78 32.2205 108.78 32.2213 108.78C32.222 108.78 32.2228 108.78 32.2236 108.78C32.2244 108.779 32.2251 108.779 32.2259 108.779C32.2267 108.779 32.2275 108.779 32.2282 108.779C32.229 108.779 32.2298 108.779 32.2306 108.778C32.2313 108.778 32.2321 108.778 32.2329 108.778L32.071 107.791ZM29.9099 104.254L30.0718 105.241C34.8802 104.452 39.8371 102.509 44.9389 99.4472L44.4242 98.5898L43.9096 97.7324C38.9743 100.695 34.255 102.528 29.748 103.268L29.9099 104.254ZM44.4242 98.5898L44.9389 99.4472C50.0328 96.3898 54.8343 92.6015 59.3444 88.0877L58.637 87.3809L57.9296 86.6741C53.5264 91.081 48.8528 94.7654 43.9096 97.7324L44.4242 98.5898ZM58.637 87.3809L59.3392 88.0929C63.9374 83.5579 67.7048 78.659 70.6346 73.3954L69.7608 72.909L68.887 72.4227C66.0563 77.5083 62.4079 82.2572 57.9348 86.6689L58.637 87.3809ZM69.7608 72.909L70.6294 73.4046C75.5507 64.7796 77.4857 56.7447 76.2715 49.3441L75.2847 49.506L74.2979 49.6679C75.4151 56.4772 73.6675 64.0444 68.8922 72.4134L69.7608 72.909ZM75.2847 49.506L76.2715 49.3441C75.6788 45.7315 74.3664 42.3628 72.3403 39.2453L71.5018 39.7902L70.6634 40.3352C72.5414 43.2248 73.7508 46.3333 74.2979 49.6679L75.2847 49.506ZM71.5018 39.7902L72.3514 39.2627C70.4117 36.1388 67.9581 33.4749 64.9957 31.2754L64.3996 32.0783L63.8035 32.8812C66.5646 34.9312 68.8459 37.4085 70.6523 40.3177L71.5018 39.7902ZM64.3996 32.0783L65.0088 31.2853C62.1305 29.0743 58.9676 27.4517 55.5247 26.4216L55.238 27.3796L54.9514 28.3376C58.1583 29.2972 61.1031 30.807 63.7904 32.8714L64.3996 32.0783ZM55.238 27.3796L55.5247 26.4216C52.0522 25.3826 48.4995 25.1613 44.8784 25.7554L45.0403 26.7422L45.2022 27.729C48.5282 27.1833 51.774 27.387 54.9514 28.3376L55.238 27.3796ZM45.0403 26.7422L44.8784 25.7554C40.0035 26.5552 34.6339 29.1713 28.7827 33.4934L29.3769 34.2978L29.971 35.1021C35.6889 30.8785 40.7616 28.4575 45.2022 27.729L45.0403 26.7422ZM29.3769 34.2978L28.7796 33.4957C13.9875 44.5113 6.05872 60.4356 4.9411 81.137L5.93965 81.1909L6.9382 81.2448C8.0285 61.0492 15.7245 45.7114 29.9741 35.0998L29.3769 34.2978ZM5.93965 81.1909L4.9398 81.1737C4.92438 82.068 4.90896 82.9623 4.89355 83.8566L5.8934 83.8738L6.89325 83.891C6.90867 82.9967 6.92408 82.1024 6.9395 81.2082L5.93965 81.1909ZM5.8934 83.8738L4.89538 83.9367C4.94823 84.7752 5.04881 85.6437 5.19616 86.5419L6.18297 86.38L7.16978 86.2181C7.03219 85.3794 6.93972 84.5772 6.89142 83.8109L5.8934 83.8738ZM6.18297 86.38L5.19616 86.5419C5.87959 90.7075 7.35984 94.3548 9.6526 97.4603L10.4571 96.8663L11.2616 96.2724C9.17662 93.4484 7.80745 90.1048 7.16978 86.2181L6.18297 86.38ZM10.4571 96.8663L9.67046 97.4838C12.028 100.487 14.9464 102.731 18.4154 104.2L18.8055 103.279L19.1956 102.359C16.0431 101.023 13.3959 98.9909 11.2437 96.2489L10.4571 96.8663ZM18.8055 103.279L18.4437 104.212C22.0072 105.595 25.892 105.927 30.0718 105.241L29.9099 104.254L29.748 103.268C25.8753 103.903 22.3572 103.585 19.1673 102.347L18.8055 103.279ZM102.14 91.1879L102.244 90.1934L100.942 90.0571L101.154 91.3498L102.14 91.1879ZM102.16 91.3064L102.762 92.105L103.245 91.7411L103.147 91.1445L102.16 91.3064ZM83.9376 96.6065L84.2822 95.6677L84.2648 95.6613L84.2471 95.6556L83.9376 96.6065ZM81.572 88.1175L82.229 88.8713L82.2323 88.8685L81.572 88.1175ZM100.789 87.3967L100.66 88.3885L101.054 88.4394L101.375 88.207L100.789 87.3967ZM101.441 86.9249L102.027 87.7351L102.058 87.7126L102.088 87.6878L101.441 86.9249ZM101.975 86.4725L102.621 87.2355L102.63 87.2277L101.975 86.4725ZM147.328 32.3356L146.398 31.9685L146.397 31.9715L147.328 32.3356ZM122.334 16.3715L122.91 17.1891L122.916 17.1852L122.334 16.3715ZM110.507 28.0403L111.319 28.6236L111.319 28.6236L110.507 28.0403ZM108.388 31.4281L109.24 31.952L109.248 31.9385L109.256 31.9247L108.388 31.4281ZM105.554 36.3924L104.674 35.9171L104.641 35.9782L104.617 36.0433L105.554 36.3924ZM102.106 34.6476L102.918 35.2309L102.973 35.1552L103.012 35.0708L102.106 34.6476ZM116.475 16.2383L117.119 17.0034L117.122 17.0012L116.475 16.2383ZM147.925 7.06561L148.376 6.17304L148.375 6.17232L147.925 7.06561ZM150.875 33.9425L149.945 33.5753L149.945 33.5767L150.875 33.9425ZM106.469 87.9241L105.811 87.1709L103.989 88.7626L106.403 88.9219L106.469 87.9241ZM152.564 76.1054L153.542 75.8982L153.53 75.8399L153.511 75.7835L152.564 76.1054ZM152.329 75.4144L151.342 75.5763L151.355 75.6579L151.382 75.7363L152.329 75.4144ZM95.8486 90.6393L96.37 91.4927L98.6194 90.1182L96.0244 89.6549L95.8486 90.6393ZM134.791 90.8169L134.629 89.8301C125.345 91.3533 114.554 91.4807 102.244 90.1934L102.14 91.1879L102.036 92.1825C114.472 93.483 125.449 93.363 134.953 91.8037L134.791 90.8169ZM102.14 91.1879L101.154 91.3498L101.173 91.4683L102.16 91.3064L103.147 91.1445L103.127 91.026L102.14 91.1879ZM102.16 91.3064L101.558 90.5077C97.2271 93.7711 93.361 95.6279 89.9491 96.1877L90.111 97.1745L90.2729 98.1613C94.1238 97.5295 98.2904 95.4742 102.762 92.105L102.16 91.3064ZM90.111 97.1745L89.9491 96.1877C87.9838 96.5101 86.1007 96.3353 84.2822 95.6677L83.9376 96.6065L83.5929 97.5452C85.7426 98.3344 87.9751 98.5383 90.2729 98.1613L90.111 97.1745ZM83.9376 96.6065L84.2471 95.6556C81.9711 94.9146 80.9613 93.7838 80.7326 92.3897L79.7458 92.5516L78.759 92.7135C79.1519 95.1088 80.9366 96.6812 83.628 97.5573L83.9376 96.6065ZM79.7458 92.5516L80.7326 92.3897C80.5273 91.1387 80.9467 89.989 82.229 88.8713L81.572 88.1175L80.9149 87.3636C79.2183 88.8425 78.4202 90.6488 78.759 92.7135L79.7458 92.5516ZM81.572 88.1175L82.2323 88.8685C83.1915 88.0251 84.5168 87.4316 86.2763 87.143L86.1144 86.1562L85.9525 85.1694C83.9226 85.5024 82.2196 86.2165 80.9117 87.3664L81.572 88.1175ZM86.1144 86.1562L86.2763 87.143C86.8811 87.0437 88.3497 87.069 90.8237 87.2782C93.248 87.4831 96.5249 87.8527 100.66 88.3885L100.789 87.3967L100.917 86.405C96.7697 85.8677 93.4594 85.4939 90.9922 85.2853C88.5747 85.0809 86.8476 85.0225 85.9525 85.1694L86.1144 86.1562ZM100.789 87.3967L101.375 88.207L102.027 87.7351L101.441 86.9249L100.855 86.1147L100.203 86.5865L100.789 87.3967ZM101.441 86.9249L102.088 87.6878L102.621 87.2354L101.975 86.4725L101.328 85.7097L100.795 86.162L101.441 86.9249ZM101.975 86.4725L102.63 87.2277C127.063 66.0171 142.342 47.8382 148.26 32.6997L147.328 32.3356L146.397 31.9715C140.666 46.6321 125.709 64.5445 101.319 85.7174L101.975 86.4725ZM147.328 32.3356L148.259 32.7027C150.912 25.9792 151.994 20.5 151.314 16.3595L150.328 16.5214L149.341 16.6833C149.931 20.2793 149.013 25.3429 146.398 31.9685L147.328 32.3356ZM150.328 16.5214L151.314 16.3595C150.802 13.2385 149.343 10.926 146.856 9.62336C144.429 8.35175 141.185 8.13083 137.261 8.77465L137.423 9.76146L137.585 10.7483C141.318 10.1357 144.054 10.4133 145.928 11.395C147.743 12.3456 148.907 14.0413 149.341 16.6833L150.328 16.5214ZM137.423 9.76146L137.261 8.77465C132.03 9.63291 126.859 11.9088 121.753 15.5579L122.334 16.3715L122.916 17.1852C127.822 13.6787 132.711 11.5479 137.585 10.7483L137.423 9.76146ZM122.334 16.3715L121.758 15.554C117.018 18.8928 112.995 22.8609 109.695 27.457L110.507 28.0403L111.319 28.6236C114.486 24.2137 118.348 20.4027 122.91 17.1891L122.334 16.3715ZM110.507 28.0403L109.695 27.457C109.073 28.3236 108.347 29.486 107.52 30.9315L108.388 31.4281L109.256 31.9247C110.067 30.5072 110.754 29.411 111.319 28.6236L110.507 28.0403ZM108.388 31.4281L107.536 30.9041C106.691 32.2775 105.737 33.9496 104.674 35.9171L105.554 36.3924L106.434 36.8676C107.485 34.9212 108.42 33.2837 109.24 31.952L108.388 31.4281ZM105.554 36.3924L104.617 36.0433C104.534 36.2667 104.395 36.4204 103.989 36.487L104.151 37.4738L104.313 38.4606C105.327 38.2942 106.124 37.7269 106.491 36.7414L105.554 36.3924ZM104.151 37.4738L103.989 36.487C103.47 36.5722 103.241 36.4772 103.142 36.406C103.042 36.3348 102.879 36.148 102.794 35.6291L101.807 35.791L100.821 35.9529C100.956 36.7761 101.293 37.5408 101.975 38.0305C102.657 38.5203 103.489 38.5957 104.313 38.4606L104.151 37.4738ZM101.807 35.791L102.794 35.6291C102.778 35.5313 102.787 35.4139 102.918 35.2309L102.106 34.6476L101.294 34.0643C100.897 34.6164 100.707 35.2613 100.821 35.9529L101.807 35.791ZM102.106 34.6476L103.012 35.0708C106.186 28.2769 110.881 22.2544 117.119 17.0034L116.475 16.2383L115.831 15.4733C109.39 20.8958 104.506 27.1461 101.2 34.2244L102.106 34.6476ZM116.475 16.2383L117.122 17.0012C123.779 11.3596 130.51 8.01763 137.318 6.90064L137.157 5.91383L136.995 4.92703C129.751 6.11549 122.695 9.65647 115.829 15.4755L116.475 16.2383ZM137.157 5.91383L137.318 6.90064C141.44 6.22447 144.801 6.61315 147.476 7.9589L147.925 7.06561L148.375 6.17232C145.217 4.58356 141.399 4.20438 136.995 4.92703L137.157 5.91383ZM147.925 7.06561L147.474 7.95817C150.418 9.44543 152.225 12.0246 152.855 15.8636L153.841 15.7017L154.828 15.5398C154.111 11.1685 151.973 7.99034 148.376 6.17304L147.925 7.06561ZM153.841 15.7017L152.855 15.8636C153.643 20.6708 152.716 26.5582 149.945 33.5753L150.875 33.9425L151.806 34.3097C154.648 27.1106 155.697 20.8375 154.828 15.5398L153.841 15.7017ZM150.875 33.9425L149.945 33.5767C143.972 48.7719 129.321 66.6359 105.811 87.1709L106.469 87.9241L107.127 88.6772C130.7 68.0869 145.653 49.9632 151.806 34.3083L150.875 33.9425ZM106.469 87.9241L106.403 88.9219C117.025 89.6227 126.181 89.3515 133.858 88.0921L133.696 87.1053L133.534 86.1185C126.053 87.3459 117.058 87.6205 106.535 86.9262L106.469 87.9241ZM133.696 87.1053L133.858 88.0921C140.718 86.9665 145.853 85.4665 149.159 83.5387C150.819 82.571 152.083 81.4587 152.851 80.1687C153.634 78.8527 153.863 77.4114 153.542 75.8982L152.564 76.1054L151.586 76.3126C151.804 77.3457 151.652 78.2725 151.132 79.1462C150.597 80.0461 149.637 80.9453 148.152 81.8109C145.17 83.5497 140.331 85.0034 133.534 86.1185L133.696 87.1053ZM152.564 76.1054L153.511 75.7835L153.276 75.0924L152.329 75.4144L151.382 75.7363L151.617 76.4274L152.564 76.1054ZM152.329 75.4144L153.316 75.2525C153.213 74.6292 153.309 74.3228 153.399 74.1817C153.473 74.0646 153.646 73.9012 154.135 73.821L153.973 72.8342L153.811 71.8473C152.958 71.9873 152.185 72.3641 151.712 73.107C151.254 73.826 151.198 74.6996 151.342 75.5763L152.329 75.4144ZM153.973 72.8342L154.135 73.821C154.43 73.7725 154.56 73.8414 154.679 73.9712C154.857 74.1662 155.073 74.5961 155.209 75.4282L156.196 75.2663L157.183 75.1044C157.021 74.1208 156.718 73.2375 156.155 72.6218C155.532 71.9408 154.7 71.7015 153.811 71.8473L153.973 72.8342ZM156.196 75.2663L155.209 75.4282C155.501 77.2105 155.31 78.798 154.668 80.2239C154.023 81.6565 152.895 82.989 151.219 84.2066C147.841 86.6605 142.354 88.5627 134.629 89.8301L134.791 90.8169L134.953 91.8037C142.78 90.5196 148.637 88.5543 152.394 85.8246C154.286 84.4505 155.673 82.8622 156.491 81.045C157.312 79.2212 157.531 77.23 157.183 75.1044L156.196 75.2663ZM89.233 93.3056L89.3949 94.2924C91.6091 93.9291 93.9363 92.9798 96.37 91.4927L95.8486 90.6393L95.3272 89.786C93.0453 91.1804 90.962 92.0085 89.0711 92.3188L89.233 93.3056ZM95.8486 90.6393L96.0244 89.6549C93.8828 89.2725 92.1111 89.0071 90.7163 88.8621C89.3505 88.72 88.2571 88.6826 87.5215 88.8033L87.6834 89.7901L87.8453 90.7769C88.2939 90.7033 89.1535 90.7103 90.5094 90.8513C91.8363 90.9893 93.5552 91.2457 95.6729 91.6238L95.8486 90.6393ZM87.6834 89.7901L87.5215 88.8033C86.3967 88.9878 85.4208 89.3026 84.7376 89.8436C84.3824 90.1248 84.0926 90.4784 83.9204 90.9121C83.7476 91.3475 83.7171 91.804 83.7908 92.2528L84.7776 92.0909L85.7644 91.929C85.7409 91.7857 85.7586 91.7023 85.7794 91.6499C85.8008 91.5958 85.8499 91.5138 85.9791 91.4116C86.2645 91.1856 86.8386 90.9421 87.8453 90.7769L87.6834 89.7901ZM84.7776 92.0909L83.7908 92.2528C83.874 92.7604 84.0964 93.2206 84.4706 93.5895C84.8353 93.949 85.2947 94.1733 85.7838 94.3067C86.7359 94.5662 87.9691 94.5263 89.3949 94.2924L89.233 93.3056L89.0711 92.3188C87.7338 92.5382 86.843 92.5224 86.3099 92.3771C86.0565 92.308 85.933 92.2226 85.8746 92.1651C85.8257 92.117 85.7847 92.0529 85.7644 91.929L84.7776 92.0909Z" fill="#F33E5C" mask="url(#path-2-outside-1_797_6001)"/>
</g>
</g>
</svg>
