<svg width="94" height="38" viewBox="0 0 94 38" fill="none" xmlns="http://www.w3.org/2000/svg">
<mask id="mask0_632_6782" style="mask-type:alpha" maskUnits="userSpaceOnUse" x="0" y="0" width="94" height="38">
<rect x="0.5" y="0.5" width="93" height="37" fill="#D9D9D9" stroke="#F33E5C"/>
</mask>
<g mask="url(#mask0_632_6782)">
<mask id="path-2-outside-1_632_6782" maskUnits="userSpaceOnUse" x="-3.99229" y="-10.2918" width="99.5751" height="50.9055" fill="black">
<rect fill="white" x="-3.99229" y="-10.2918" width="99.5751" height="50.9055"/>
<path d="M17.1521 37.2497C14.2785 37.7211 11.6852 37.6278 9.37209 36.9696C7.09577 36.3378 5.218 35.1704 3.73877 33.4674C2.25436 31.7328 1.29198 29.5235 0.851611 26.8394C0.437148 24.3132 0.530027 21.9145 1.13025 19.6433C1.76205 17.367 2.84605 15.1786 4.38226 13.0782C6.72075 9.93819 9.61813 7.33882 13.0744 5.28008C16.5623 3.21617 20.2798 1.86041 24.2271 1.21282C26.1849 0.891606 27.9629 0.95661 29.561 1.40783C31.154 1.82746 32.47 2.53574 33.5091 3.53266C34.5482 4.52958 35.1792 5.70697 35.4019 7.06482C35.547 7.94899 35.4764 8.80369 35.1903 9.62891C34.8989 10.4226 34.5369 11.0819 34.1042 11.6068C33.6714 12.1318 33.2972 12.4202 32.9814 12.472C32.7288 12.5135 32.458 12.4444 32.1692 12.2648C31.8751 12.0536 31.7151 11.8691 31.6892 11.7112C31.6581 11.5217 31.8351 11.2171 32.2202 10.7972C32.6053 10.3773 32.9565 9.84947 33.2738 9.21371C33.6174 8.5412 33.7193 7.77865 33.5794 6.92605C33.3929 5.78925 32.835 4.8593 31.9057 4.13622C31.0027 3.37638 29.8177 2.87361 28.3506 2.62789C26.9098 2.34542 25.3053 2.34925 23.5369 2.63937C20.0318 3.21444 16.7431 4.51604 13.6709 6.54418C10.5936 8.54075 8.00964 10.9752 5.91909 13.8476C4.46726 15.8693 3.45726 17.9158 2.88911 19.9871C2.32096 22.0584 2.24412 24.3572 2.65858 26.8834C3.0575 29.3149 3.96006 31.2584 5.36626 32.714C6.79886 34.1327 8.56143 35.092 10.654 35.5919C12.7413 36.0601 15.0007 36.0947 17.4322 35.6958C20.2111 35.2399 23.0911 34.3134 26.0722 32.9163C27.8208 32.1106 29.2749 31.2884 30.4344 30.4496C31.5887 29.5792 32.435 28.808 32.9733 28.136C33.4852 27.5007 33.8625 27.0335 34.1053 26.7342C34.348 26.435 34.5642 26.2698 34.7536 26.2387C34.9747 26.2025 35.1085 26.3264 35.1551 26.6106C35.2069 26.9264 35.0822 27.3522 34.781 27.8881C34.5114 28.4187 34.184 28.894 33.7989 29.3139C32.8336 30.3478 31.5553 31.352 29.964 32.3265C28.3992 33.2642 26.8163 34.0914 25.2152 34.8081C23.7932 35.4305 22.4162 35.932 21.0843 36.3127C19.7575 36.7249 18.4468 37.0373 17.1521 37.2497ZM41.0841 31.6208C39.2526 31.9213 38.1944 31.2032 37.9094 29.4664C37.7229 28.3296 37.7919 27.0698 38.1163 25.687C38.4671 24.2675 39.0152 22.8643 39.7604 21.4773C40.5005 20.0588 41.3719 18.7484 42.3745 17.5462C43.3719 16.3125 44.4372 15.2946 45.5703 14.4926C46.6982 13.659 47.8305 13.1489 48.9673 12.9624C50.9883 12.6308 52.162 13.4597 52.4884 15.4491C52.7008 16.7438 52.4912 17.443 51.8597 17.5466C51.2913 17.6399 50.963 17.4181 50.875 16.8812C50.8387 16.6602 50.8498 16.4314 50.9083 16.1948C50.9931 15.9214 51.0123 15.6427 50.9656 15.3585C50.8206 14.4743 50.1481 14.1306 48.9481 14.3275C47.0218 14.6435 44.847 16.5082 42.4237 19.9216C41.8481 20.7619 41.3091 21.7259 40.8066 22.8136C40.304 23.9013 39.9146 24.9867 39.6383 26.0697C39.3884 27.1159 39.336 28.0812 39.4811 28.9653C39.6209 29.8179 40.1645 30.1665 41.1119 30.0111C41.9329 29.8764 42.7598 29.4813 43.5927 28.8258C44.4572 28.1651 45.1927 27.5094 45.7993 26.8586C47.0178 25.5886 48.2057 23.9345 49.3629 21.8962C49.5425 21.6073 49.7723 21.2291 50.0523 20.7616C50.3323 20.2941 50.6519 19.7715 51.0111 19.1937C51.1431 19.0099 51.3196 18.8999 51.5407 18.8636C52.0459 18.7807 52.34 18.9919 52.4229 19.4971L51.0659 22.4924C50.1561 24.4576 49.7944 26.0086 49.9809 27.1454C50.1156 27.9664 50.5777 28.3122 51.3672 28.1827C52.0303 28.0739 52.7281 27.781 53.4605 27.3041C54.193 26.8273 54.7834 26.3737 55.2316 25.9435C56.1333 25.1145 57.0565 24.12 58.0011 22.9597C58.9405 21.7679 59.8326 20.5839 60.6773 19.4076C60.7829 19.2605 60.962 19.1663 61.2146 19.1249C61.6883 19.0471 61.9562 19.1978 62.0184 19.5767C62.0754 19.924 61.9191 20.355 61.5495 20.8697C60.4936 22.34 59.5356 23.6159 58.6753 24.6975C57.8099 25.7475 56.9659 26.6318 56.1434 27.3504C55.6004 27.7962 54.9179 28.2811 54.0959 28.8051C53.2739 29.3291 52.2945 29.6843 51.1577 29.8708C49.6104 30.1247 48.702 29.4306 48.4326 27.7886C48.329 27.157 48.3225 26.623 48.413 26.1866C45.9902 29.4053 43.5472 31.2167 41.0841 31.6208ZM61.6827 29.3601C59.9144 29.6502 58.9344 29.2111 58.7427 28.0427C58.6235 27.3164 58.757 26.5487 59.1431 25.7395C59.5607 24.9251 60.0835 24.1584 60.7113 23.4393C61.3392 22.7201 61.943 22.1509 62.5228 21.7315C62.6967 21.6056 62.9338 21.4695 63.234 21.3229C63.5658 21.1712 63.8422 21.0772 64.0633 21.0409C64.3159 20.9995 64.4578 21.0735 64.4888 21.263C64.5147 21.4209 64.3696 21.623 64.0533 21.8695C62.7147 22.8025 61.7152 23.8258 61.0548 24.9394C60.4207 26.0163 60.1529 26.8547 60.2514 27.4547C60.3446 28.0231 60.8807 28.227 61.8596 28.0664C62.6807 27.9317 63.5312 27.5814 64.4111 27.0154C65.3227 26.4443 66.1504 25.7573 66.8942 24.9542C67.6696 24.146 68.2793 23.3164 68.7234 22.4653C69.1674 21.6141 69.3325 20.8412 69.2185 20.1465C69.1408 19.6728 68.9129 19.2724 68.535 18.9453C68.1886 18.613 67.6683 18.4065 66.9741 18.3259L63.6925 17.8914C62.8616 17.7683 62.2388 17.53 61.8241 17.1765C61.4094 16.823 61.1606 16.3936 61.0777 15.8883C60.9223 14.941 61.1297 14.0314 61.7001 13.1596C62.3021 12.2825 63.1036 11.5349 64.1047 10.9167C65.1058 10.2984 66.1116 9.90641 67.1221 9.74063C68.1326 9.57484 69.0582 9.6824 69.899 10.0633C70.7346 10.4126 71.2197 10.9978 71.3544 11.8188C71.4321 12.2925 71.3626 12.7579 71.1457 13.215C70.9604 13.667 70.6941 13.9215 70.3468 13.9785C69.8099 14.0665 69.5053 13.8895 69.4327 13.4474C69.4068 13.2896 69.4547 13.0871 69.5763 12.8402C69.7243 12.5565 69.7802 12.3041 69.7439 12.0831C69.5885 11.1357 68.7845 10.7812 67.3319 11.0195C66.5425 11.1491 65.7815 11.4522 65.0491 11.9291C64.343 12.3692 63.7814 12.8992 63.3642 13.5189C62.9471 14.1386 62.7903 14.7642 62.8939 15.3958C62.9975 16.0273 63.712 16.429 65.0373 16.6007L68.2241 17.0507C69.1865 17.1846 69.8829 17.4757 70.3131 17.924C70.7382 18.3407 70.9999 18.849 71.0984 19.449C71.3315 20.87 70.704 22.4808 69.2159 24.2815C66.8148 27.2372 64.3037 28.9301 61.6827 29.3601ZM80.0189 25.6222C78.6926 25.8398 77.5754 25.5529 76.6673 24.7614C75.7592 23.97 75.1963 22.9112 74.9787 21.5849C74.6057 19.3113 74.9802 16.8502 76.1022 14.2016C76.4039 13.4711 76.7714 12.7461 77.2046 12.0264C77.6326 11.2752 78.1132 10.5478 78.6463 9.84424C79.4434 8.77306 80.3138 7.85199 81.2574 7.08105C82.201 6.3101 83.1623 5.84433 84.1412 5.68372C85.7517 5.4195 86.6813 6.04526 86.9299 7.561C87.2408 9.45567 86.4179 11.358 84.4613 13.268C82.6367 14.9941 80.7297 16.0204 78.7403 16.3468C78.393 16.4038 78.0746 16.4398 77.7852 16.4549C77.5222 16.4332 77.275 16.4089 77.0436 16.382C76.8263 17.0337 76.669 17.854 76.5718 18.8428C76.4746 19.8316 76.483 20.6733 76.597 21.3681C76.9389 23.4522 78.0256 24.344 79.8571 24.0435C81.3413 23.8 82.7051 23.3169 83.9484 22.594C85.1866 21.8396 86.6023 20.5859 88.1955 18.8328C89.1873 17.7621 89.9233 16.9117 90.4036 16.2817C90.884 15.6516 91.4065 14.9822 91.9712 14.2734C92.1399 14.116 92.3032 14.0243 92.4611 13.9984C92.619 13.9725 92.7847 13.994 92.9581 14.0628C93.1315 14.1316 93.2338 14.2608 93.2649 14.4503C93.3219 14.7976 93.0864 15.3389 92.5585 16.0741C92.1045 16.6674 91.6242 17.2974 91.1175 17.9643C90.6056 18.5995 89.7826 19.5128 88.6485 20.7042C87.4352 22.0058 86.0568 23.0913 84.5131 23.9606C82.9695 24.83 81.4714 25.3839 80.0189 25.6222ZM78.2074 14.8777C79.2179 14.7119 80.1551 14.396 81.0191 13.93C81.883 13.464 82.6763 12.8636 83.3989 12.1289C85.0076 10.4706 85.7136 9.04146 85.5167 7.8415C85.4286 7.30468 85.053 7.09066 84.3899 7.19946C83.1268 7.40669 81.7853 8.42125 80.3656 10.2431C79.6689 11.1357 79.1039 11.9418 78.6707 12.6614C78.2639 13.3443 77.8991 14.0852 77.5761 14.884C77.7759 14.9161 77.9864 14.914 78.2074 14.8777Z"/>
</mask>
<path d="M17.1521 37.2497C14.2785 37.7211 11.6852 37.6278 9.37209 36.9696C7.09577 36.3378 5.218 35.1704 3.73877 33.4674C2.25436 31.7328 1.29198 29.5235 0.851611 26.8394C0.437148 24.3132 0.530027 21.9145 1.13025 19.6433C1.76205 17.367 2.84605 15.1786 4.38226 13.0782C6.72075 9.93819 9.61813 7.33882 13.0744 5.28008C16.5623 3.21617 20.2798 1.86041 24.2271 1.21282C26.1849 0.891606 27.9629 0.95661 29.561 1.40783C31.154 1.82746 32.47 2.53574 33.5091 3.53266C34.5482 4.52958 35.1792 5.70697 35.4019 7.06482C35.547 7.94899 35.4764 8.80369 35.1903 9.62891C34.8989 10.4226 34.5369 11.0819 34.1042 11.6068C33.6714 12.1318 33.2972 12.4202 32.9814 12.472C32.7288 12.5135 32.458 12.4444 32.1692 12.2648C31.8751 12.0536 31.7151 11.8691 31.6892 11.7112C31.6581 11.5217 31.8351 11.2171 32.2202 10.7972C32.6053 10.3773 32.9565 9.84947 33.2738 9.21371C33.6174 8.5412 33.7193 7.77865 33.5794 6.92605C33.3929 5.78925 32.835 4.8593 31.9057 4.13622C31.0027 3.37638 29.8177 2.87361 28.3506 2.62789C26.9098 2.34542 25.3053 2.34925 23.5369 2.63937C20.0318 3.21444 16.7431 4.51604 13.6709 6.54418C10.5936 8.54075 8.00964 10.9752 5.91909 13.8476C4.46726 15.8693 3.45726 17.9158 2.88911 19.9871C2.32096 22.0584 2.24412 24.3572 2.65858 26.8834C3.0575 29.3149 3.96006 31.2584 5.36626 32.714C6.79886 34.1327 8.56143 35.092 10.654 35.5919C12.7413 36.0601 15.0007 36.0947 17.4322 35.6958C20.2111 35.2399 23.0911 34.3134 26.0722 32.9163C27.8208 32.1106 29.2749 31.2884 30.4344 30.4496C31.5887 29.5792 32.435 28.808 32.9733 28.136C33.4852 27.5007 33.8625 27.0335 34.1053 26.7342C34.348 26.435 34.5642 26.2698 34.7536 26.2387C34.9747 26.2025 35.1085 26.3264 35.1551 26.6106C35.2069 26.9264 35.0822 27.3522 34.781 27.8881C34.5114 28.4187 34.184 28.894 33.7989 29.3139C32.8336 30.3478 31.5553 31.352 29.964 32.3265C28.3992 33.2642 26.8163 34.0914 25.2152 34.8081C23.7932 35.4305 22.4162 35.932 21.0843 36.3127C19.7575 36.7249 18.4468 37.0373 17.1521 37.2497ZM41.0841 31.6208C39.2526 31.9213 38.1944 31.2032 37.9094 29.4664C37.7229 28.3296 37.7919 27.0698 38.1163 25.687C38.4671 24.2675 39.0152 22.8643 39.7604 21.4773C40.5005 20.0588 41.3719 18.7484 42.3745 17.5462C43.3719 16.3125 44.4372 15.2946 45.5703 14.4926C46.6982 13.659 47.8305 13.1489 48.9673 12.9624C50.9883 12.6308 52.162 13.4597 52.4884 15.4491C52.7008 16.7438 52.4912 17.443 51.8597 17.5466C51.2913 17.6399 50.963 17.4181 50.875 16.8812C50.8387 16.6602 50.8498 16.4314 50.9083 16.1948C50.9931 15.9214 51.0123 15.6427 50.9656 15.3585C50.8206 14.4743 50.1481 14.1306 48.9481 14.3275C47.0218 14.6435 44.847 16.5082 42.4237 19.9216C41.8481 20.7619 41.3091 21.7259 40.8066 22.8136C40.304 23.9013 39.9146 24.9867 39.6383 26.0697C39.3884 27.1159 39.336 28.0812 39.4811 28.9653C39.6209 29.8179 40.1645 30.1665 41.1119 30.0111C41.9329 29.8764 42.7598 29.4813 43.5927 28.8258C44.4572 28.1651 45.1927 27.5094 45.7993 26.8586C47.0178 25.5886 48.2057 23.9345 49.3629 21.8962C49.5425 21.6073 49.7723 21.2291 50.0523 20.7616C50.3323 20.2941 50.6519 19.7715 51.0111 19.1937C51.1431 19.0099 51.3196 18.8999 51.5407 18.8636C52.0459 18.7807 52.34 18.9919 52.4229 19.4971L51.0659 22.4924C50.1561 24.4576 49.7944 26.0086 49.9809 27.1454C50.1156 27.9664 50.5777 28.3122 51.3672 28.1827C52.0303 28.0739 52.7281 27.781 53.4605 27.3041C54.193 26.8273 54.7834 26.3737 55.2316 25.9435C56.1333 25.1145 57.0565 24.12 58.0011 22.9597C58.9405 21.7679 59.8326 20.5839 60.6773 19.4076C60.7829 19.2605 60.962 19.1663 61.2146 19.1249C61.6883 19.0471 61.9562 19.1978 62.0184 19.5767C62.0754 19.924 61.9191 20.355 61.5495 20.8697C60.4936 22.34 59.5356 23.6159 58.6753 24.6975C57.8099 25.7475 56.9659 26.6318 56.1434 27.3504C55.6004 27.7962 54.9179 28.2811 54.0959 28.8051C53.2739 29.3291 52.2945 29.6843 51.1577 29.8708C49.6104 30.1247 48.702 29.4306 48.4326 27.7886C48.329 27.157 48.3225 26.623 48.413 26.1866C45.9902 29.4053 43.5472 31.2167 41.0841 31.6208ZM61.6827 29.3601C59.9144 29.6502 58.9344 29.2111 58.7427 28.0427C58.6235 27.3164 58.757 26.5487 59.1431 25.7395C59.5607 24.9251 60.0835 24.1584 60.7113 23.4393C61.3392 22.7201 61.943 22.1509 62.5228 21.7315C62.6967 21.6056 62.9338 21.4695 63.234 21.3229C63.5658 21.1712 63.8422 21.0772 64.0633 21.0409C64.3159 20.9995 64.4578 21.0735 64.4888 21.263C64.5147 21.4209 64.3696 21.623 64.0533 21.8695C62.7147 22.8025 61.7152 23.8258 61.0548 24.9394C60.4207 26.0163 60.1529 26.8547 60.2514 27.4547C60.3446 28.0231 60.8807 28.227 61.8596 28.0664C62.6807 27.9317 63.5312 27.5814 64.4111 27.0154C65.3227 26.4443 66.1504 25.7573 66.8942 24.9542C67.6696 24.146 68.2793 23.3164 68.7234 22.4653C69.1674 21.6141 69.3325 20.8412 69.2185 20.1465C69.1408 19.6728 68.9129 19.2724 68.535 18.9453C68.1886 18.613 67.6683 18.4065 66.9741 18.3259L63.6925 17.8914C62.8616 17.7683 62.2388 17.53 61.8241 17.1765C61.4094 16.823 61.1606 16.3936 61.0777 15.8883C60.9223 14.941 61.1297 14.0314 61.7001 13.1596C62.3021 12.2825 63.1036 11.5349 64.1047 10.9167C65.1058 10.2984 66.1116 9.90641 67.1221 9.74063C68.1326 9.57484 69.0582 9.6824 69.899 10.0633C70.7346 10.4126 71.2197 10.9978 71.3544 11.8188C71.4321 12.2925 71.3626 12.7579 71.1457 13.215C70.9604 13.667 70.6941 13.9215 70.3468 13.9785C69.8099 14.0665 69.5053 13.8895 69.4327 13.4474C69.4068 13.2896 69.4547 13.0871 69.5763 12.8402C69.7243 12.5565 69.7802 12.3041 69.7439 12.0831C69.5885 11.1357 68.7845 10.7812 67.3319 11.0195C66.5425 11.1491 65.7815 11.4522 65.0491 11.9291C64.343 12.3692 63.7814 12.8992 63.3642 13.5189C62.9471 14.1386 62.7903 14.7642 62.8939 15.3958C62.9975 16.0273 63.712 16.429 65.0373 16.6007L68.2241 17.0507C69.1865 17.1846 69.8829 17.4757 70.3131 17.924C70.7382 18.3407 70.9999 18.849 71.0984 19.449C71.3315 20.87 70.704 22.4808 69.2159 24.2815C66.8148 27.2372 64.3037 28.9301 61.6827 29.3601ZM80.0189 25.6222C78.6926 25.8398 77.5754 25.5529 76.6673 24.7614C75.7592 23.97 75.1963 22.9112 74.9787 21.5849C74.6057 19.3113 74.9802 16.8502 76.1022 14.2016C76.4039 13.4711 76.7714 12.7461 77.2046 12.0264C77.6326 11.2752 78.1132 10.5478 78.6463 9.84424C79.4434 8.77306 80.3138 7.85199 81.2574 7.08105C82.201 6.3101 83.1623 5.84433 84.1412 5.68372C85.7517 5.4195 86.6813 6.04526 86.9299 7.561C87.2408 9.45567 86.4179 11.358 84.4613 13.268C82.6367 14.9941 80.7297 16.0204 78.7403 16.3468C78.393 16.4038 78.0746 16.4398 77.7852 16.4549C77.5222 16.4332 77.275 16.4089 77.0436 16.382C76.8263 17.0337 76.669 17.854 76.5718 18.8428C76.4746 19.8316 76.483 20.6733 76.597 21.3681C76.9389 23.4522 78.0256 24.344 79.8571 24.0435C81.3413 23.8 82.7051 23.3169 83.9484 22.594C85.1866 21.8396 86.6023 20.5859 88.1955 18.8328C89.1873 17.7621 89.9233 16.9117 90.4036 16.2817C90.884 15.6516 91.4065 14.9822 91.9712 14.2734C92.1399 14.116 92.3032 14.0243 92.4611 13.9984C92.619 13.9725 92.7847 13.994 92.9581 14.0628C93.1315 14.1316 93.2338 14.2608 93.2649 14.4503C93.3219 14.7976 93.0864 15.3389 92.5585 16.0741C92.1045 16.6674 91.6242 17.2974 91.1175 17.9643C90.6056 18.5995 89.7826 19.5128 88.6485 20.7042C87.4352 22.0058 86.0568 23.0913 84.5131 23.9606C82.9695 24.83 81.4714 25.3839 80.0189 25.6222ZM78.2074 14.8777C79.2179 14.7119 80.1551 14.396 81.0191 13.93C81.883 13.464 82.6763 12.8636 83.3989 12.1289C85.0076 10.4706 85.7136 9.04146 85.5167 7.8415C85.4286 7.30468 85.053 7.09066 84.3899 7.19946C83.1268 7.40669 81.7853 8.42125 80.3656 10.2431C79.6689 11.1357 79.1039 11.9418 78.6707 12.6614C78.2639 13.3443 77.8991 14.0852 77.5761 14.884C77.7759 14.9161 77.9864 14.914 78.2074 14.8777Z" fill="white"/>
<path d="M9.37209 36.9696L9.4542 36.681L9.45233 36.6805L9.37209 36.9696ZM3.73877 33.4674L3.51084 33.6625L3.51228 33.6641L3.73877 33.4674ZM1.13025 19.6433L0.841155 19.5631L0.840207 19.5667L1.13025 19.6433ZM4.38226 13.0782L4.14165 12.899L4.14012 12.9011L4.38226 13.0782ZM13.0744 5.28008L12.9216 5.0219L12.9209 5.02234L13.0744 5.28008ZM29.561 1.40783L29.4795 1.69658L29.4846 1.69793L29.561 1.40783ZM33.5091 3.53266L33.7168 3.31618L33.5091 3.53266ZM35.1903 9.62891L35.4719 9.73232L35.4737 9.7272L35.1903 9.62891ZM34.1042 11.6068L34.3357 11.7977L34.1042 11.6068ZM32.1692 12.2648L31.9942 12.5085L32.0023 12.5143L32.0108 12.5196L32.1692 12.2648ZM33.2738 9.21371L33.0066 9.0772L33.0053 9.07976L33.2738 9.21371ZM31.9057 4.13622L31.7124 4.36593L31.7214 4.37299L31.9057 4.13622ZM28.3506 2.62789L28.2928 2.9224L28.301 2.92377L28.3506 2.62789ZM13.6709 6.54418L13.8342 6.79586L13.8362 6.79455L13.6709 6.54418ZM5.91909 13.8476L5.67653 13.671L5.67542 13.6726L5.91909 13.8476ZM2.88911 19.9871L3.17842 20.0665L2.88911 19.9871ZM5.36626 32.714L5.15045 32.9225L5.15516 32.9271L5.36626 32.714ZM10.654 35.5919L10.5842 35.8837L10.5883 35.8846L10.654 35.5919ZM26.0722 32.9163L25.9466 32.6439L25.9449 32.6447L26.0722 32.9163ZM30.4344 30.4496L30.6102 30.6927L30.615 30.6891L30.4344 30.4496ZM32.9733 28.136L32.7397 27.9478L32.7392 27.9484L32.9733 28.136ZM34.1053 26.7342L33.8723 26.5452L34.1053 26.7342ZM34.781 27.8881L34.5193 27.7409L34.5136 27.7522L34.781 27.8881ZM33.7989 29.3139L34.0182 29.5186L34.02 29.5166L33.7989 29.3139ZM29.964 32.3265L30.1183 32.5838L30.1207 32.5823L29.964 32.3265ZM25.2152 34.8081L25.3355 35.0829L25.3377 35.0819L25.2152 34.8081ZM21.0843 36.3127L21.0018 36.0242L20.9952 36.0262L21.0843 36.3127ZM17.1521 37.2497L17.1035 36.9536C14.2645 37.4194 11.7168 37.3248 9.4542 36.681L9.37209 36.9696L9.28999 37.2581C11.6535 37.9307 14.2925 38.0228 17.2007 37.5457L17.1521 37.2497ZM9.37209 36.9696L9.45233 36.6805C7.22994 36.0637 5.40398 34.927 3.96526 33.2707L3.73877 33.4674L3.51228 33.6641C5.03202 35.4137 6.96161 36.6119 9.29186 37.2586L9.37209 36.9696ZM3.73877 33.4674L3.9667 33.2723C2.52427 31.5868 1.58085 29.4312 1.14765 26.7908L0.851611 26.8394L0.555569 26.888C1.0031 29.6158 1.98446 31.8788 3.51084 33.6624L3.73877 33.4674ZM0.851611 26.8394L1.14765 26.7908C0.73941 24.3025 0.831804 21.9467 1.42029 19.72L1.13025 19.6433L0.840207 19.5667C0.22825 21.8822 0.134885 24.3238 0.555569 26.888L0.851611 26.8394ZM1.13025 19.6433L1.41932 19.7236C2.04051 17.4855 3.10739 15.3295 4.62441 13.2553L4.38226 13.0782L4.14012 12.9011C2.58472 15.0278 1.48359 17.2486 0.841178 19.5631L1.13025 19.6433ZM4.38226 13.0782L4.62287 13.2574C6.93712 10.1499 9.80461 7.57693 13.2279 5.53782L13.0744 5.28008L12.9209 5.02234C9.43165 7.10071 6.50437 9.72647 4.14166 12.899L4.38226 13.0782ZM13.0744 5.28008L13.2272 5.53827C16.6834 3.49308 20.3657 2.15034 24.2756 1.50886L24.2271 1.21282L24.1785 0.916773C20.194 1.57049 16.4412 2.93926 12.9216 5.0219L13.0744 5.28008ZM24.2271 1.21282L24.2756 1.50886C26.1984 1.1934 27.9311 1.25937 29.4795 1.69654L29.561 1.40783L29.6425 1.11911C27.9947 0.653853 26.1714 0.589815 24.1785 0.916773L24.2271 1.21282ZM29.561 1.40783L29.4846 1.69793C31.0354 2.10647 32.3041 2.79233 33.3014 3.74914L33.5091 3.53266L33.7168 3.31618C32.6359 2.27916 31.2725 1.54846 29.6374 1.11772L29.561 1.40783ZM33.5091 3.53266L33.3014 3.74914C34.296 4.70336 34.8941 5.82271 35.1059 7.11338L35.4019 7.06481L35.698 7.01624C35.4642 5.59123 34.8004 4.3558 33.7168 3.31618L33.5091 3.53266ZM35.4019 7.06481L35.1059 7.11338C35.2431 7.94965 35.1762 8.7538 34.9068 9.53062L35.1903 9.62891L35.4737 9.7272C35.7767 8.85359 35.8509 7.94834 35.698 7.01624L35.4019 7.06481ZM35.1903 9.62891L34.9086 9.52552C34.6262 10.2948 34.2794 10.9226 33.8727 11.416L34.1042 11.6068L34.3357 11.7977C34.7944 11.2411 35.1716 10.5503 35.4719 9.7323L35.1903 9.62891ZM34.1042 11.6068L33.8727 11.416C33.6649 11.668 33.4792 11.8533 33.3158 11.9792C33.1507 12.1065 33.0239 12.161 32.9329 12.176L32.9814 12.472L33.03 12.7681C33.2547 12.7312 33.473 12.6156 33.6821 12.4545C33.8929 12.292 34.1107 12.0706 34.3357 11.7977L34.1042 11.6068ZM32.9814 12.472L32.9329 12.176C32.7727 12.2023 32.5753 12.164 32.3276 12.01L32.1692 12.2648L32.0108 12.5196C32.3408 12.7248 32.6849 12.8247 33.03 12.7681L32.9814 12.472ZM32.1692 12.2648L32.3441 12.0211C32.2079 11.9233 32.1145 11.8398 32.0553 11.7715C31.994 11.7008 31.9857 11.6652 31.9852 11.6626L31.6892 11.7112L31.3932 11.7598C31.4186 11.9151 31.5033 12.0507 31.6019 12.1645C31.7027 12.2808 31.8363 12.3951 31.9942 12.5085L32.1692 12.2648ZM31.6892 11.7112L31.9852 11.6626C31.9871 11.6742 31.9788 11.6278 32.058 11.4913C32.1311 11.3655 32.2556 11.2024 32.4413 10.9999L32.2202 10.7972L31.9991 10.5944C31.7997 10.8118 31.6432 11.011 31.5392 11.1899C31.4415 11.3581 31.3602 11.5588 31.3932 11.7598L31.6892 11.7112ZM32.2202 10.7972L32.4413 10.9999C32.8493 10.5551 33.2154 10.0026 33.5422 9.34767L33.2738 9.21371L33.0053 9.07976C32.6976 9.69637 32.3613 10.1995 31.9991 10.5944L32.2202 10.7972ZM33.2738 9.21371L33.5409 9.35022C33.9178 8.61269 34.0242 7.7838 33.8755 6.87748L33.5794 6.92605L33.2834 6.97462C33.4144 7.7735 33.317 8.46972 33.0066 9.0772L33.2738 9.21371ZM33.5794 6.92605L33.8755 6.87748C33.6764 5.66429 33.0774 4.6678 32.0899 3.89945L31.9057 4.13622L31.7214 4.37299C32.5926 5.0508 33.1094 5.9142 33.2834 6.97462L33.5794 6.92605ZM31.9057 4.13622L32.0988 3.90668C31.1454 3.10436 29.9066 2.58431 28.4001 2.33201L28.3506 2.62789L28.301 2.92377C29.7288 3.1629 30.8601 3.64841 31.7125 4.36576L31.9057 4.13622ZM28.3506 2.62789L28.4083 2.3335C26.9257 2.04283 25.2844 2.04866 23.4884 2.34333L23.5369 2.63937L23.5855 2.93541C25.3261 2.64984 26.8939 2.64802 28.2928 2.92229L28.3506 2.62789ZM23.5369 2.63937L23.4884 2.34333C19.94 2.92548 16.6118 4.24327 13.5057 6.29382L13.6709 6.54418L13.8362 6.79455C16.8745 4.78881 20.1236 3.50339 23.5855 2.93541L23.5369 2.63937ZM13.6709 6.54418L13.5077 6.29251C10.4005 8.30839 7.78939 10.768 5.67654 13.671L5.91909 13.8476L6.16165 14.0241C8.22989 11.1824 10.7867 8.7731 13.8342 6.79586L13.6709 6.54418ZM5.91909 13.8476L5.67542 13.6726C4.20606 15.7187 3.17873 17.7971 2.5998 19.9078L2.88911 19.9871L3.17842 20.0665C3.73579 18.0345 4.72845 16.0199 6.16277 14.0225L5.91909 13.8476ZM2.88911 19.9871L2.5998 19.9078C2.01824 22.0279 1.9424 24.3712 2.36254 26.932L2.65858 26.8834L2.95462 26.8348C2.54583 24.3432 2.62368 22.0889 3.17842 20.0665L2.88911 19.9871ZM2.65858 26.8834L2.36254 26.932C2.76916 29.4104 3.69343 31.4142 5.15051 32.9224L5.36626 32.714L5.58202 32.5055C4.2267 31.1026 3.34584 29.2194 2.95462 26.8348L2.65858 26.8834ZM5.36626 32.714L5.15516 32.9271C6.62944 34.3872 8.44201 35.372 10.5843 35.8836L10.654 35.5919L10.7236 35.3001C8.68084 34.8121 6.96828 33.8783 5.57736 32.5008L5.36626 32.714ZM10.654 35.5919L10.5883 35.8846C12.7184 36.3624 15.017 36.3961 17.4808 35.9919L17.4322 35.6958L17.3836 35.3998C14.9844 35.7934 12.7642 35.7578 10.7196 35.2991L10.654 35.5919ZM17.4322 35.6958L17.4808 35.9919C20.291 35.5308 23.1975 34.5949 26.1995 33.188L26.0722 32.9163L25.9449 32.6447C22.9846 34.032 20.1311 34.949 17.3836 35.3998L17.4322 35.6958ZM26.0722 32.9163L26.1977 33.1888C27.9584 32.3775 29.4306 31.546 30.6102 30.6926L30.4344 30.4496L30.2585 30.2065C29.1191 31.0307 27.6832 31.8437 25.9467 32.6439L26.0722 32.9163ZM30.4344 30.4496L30.615 30.6891C31.7777 29.8124 32.6465 29.0238 33.2075 28.3236L32.9733 28.136L32.7392 27.9484C32.2235 28.5922 31.3997 29.346 30.2538 30.21L30.4344 30.4496ZM32.9733 28.136L33.2069 28.3242C33.7188 27.689 34.0959 27.2221 34.3383 26.9232L34.1053 26.7342L33.8723 26.5452C33.6292 26.8449 33.2516 27.3125 32.7397 27.9478L32.9733 28.136ZM34.1053 26.7342L34.3383 26.9232C34.5745 26.6321 34.7297 26.5467 34.8022 26.5348L34.7536 26.2387L34.7051 25.9427C34.3986 25.993 34.1216 26.2379 33.8723 26.5452L34.1053 26.7342ZM34.7536 26.2387L34.8022 26.5348C34.8262 26.5308 34.834 26.5335 34.8311 26.5328C34.8263 26.5316 34.8198 26.5282 34.8159 26.5246C34.8135 26.5223 34.8198 26.5271 34.8294 26.5488C34.8392 26.571 34.8504 26.6064 34.8591 26.6592L35.1551 26.6106L35.4512 26.5621C35.4229 26.3898 35.3607 26.2113 35.2237 26.0844C35.0733 25.9452 34.8839 25.9134 34.7051 25.9427L34.7536 26.2387ZM35.1551 26.6106L34.8591 26.6592C34.8935 26.869 34.8138 27.2176 34.5195 27.741L34.781 27.8881L35.0425 28.0351C35.3507 27.4869 35.5204 26.9838 35.4512 26.5621L35.1551 26.6106ZM34.781 27.8881L34.5136 27.7522C34.2557 28.2596 33.9437 28.7122 33.5778 29.1111L33.7989 29.3139L34.02 29.5166C34.4243 29.0758 34.767 28.5778 35.0485 28.024L34.781 27.8881ZM33.7989 29.3139L33.5796 29.1091C32.6375 30.1181 31.3824 31.1061 29.8074 32.0706L29.964 32.3265L30.1207 32.5823C31.7281 31.5979 33.0296 30.5775 34.0182 29.5186L33.7989 29.3139ZM29.964 32.3265L29.8098 32.0691C28.2548 33.001 26.6824 33.8226 25.0926 34.5342L25.2152 34.8081L25.3377 35.0819C26.9501 34.3602 28.5436 33.5274 30.1182 32.5838L29.964 32.3265ZM25.2152 34.8081L25.0949 34.5332C23.6837 35.1509 22.3194 35.6477 21.0018 36.0243L21.0843 36.3127L21.1667 36.6012C22.513 36.2164 23.9026 35.7101 25.3355 35.0829L25.2152 34.8081ZM21.0843 36.3127L20.9952 36.0262C19.681 36.4346 18.3837 36.7436 17.1035 36.9536L17.1521 37.2497L17.2007 37.5457C18.5098 37.3309 19.834 37.0153 21.1733 36.5992L21.0843 36.3127ZM38.1163 25.687L37.825 25.6151L37.8242 25.6185L38.1163 25.687ZM39.7604 21.4773L40.0247 21.6193L40.0264 21.6161L39.7604 21.4773ZM42.3745 17.5462L42.6049 17.7384L42.6078 17.7348L42.3745 17.5462ZM45.5703 14.4926L45.7436 14.7375L45.7486 14.7338L45.5703 14.4926ZM50.9083 16.1948L50.6218 16.1058L50.6191 16.1143L50.617 16.1228L50.9083 16.1948ZM42.4237 19.9216L42.179 19.7479L42.1762 19.7521L42.4237 19.9216ZM39.6383 26.0697L39.3476 25.9955L39.3465 26L39.6383 26.0697ZM43.5927 28.8258L43.4105 28.5874L43.4072 28.5901L43.5927 28.8258ZM45.7993 26.8586L45.5828 26.6509L45.5799 26.6541L45.7993 26.8586ZM49.3629 21.8962L49.108 21.7377L49.1021 21.7481L49.3629 21.8962ZM50.0523 20.7616L49.795 20.6075L50.0523 20.7616ZM51.0111 19.1937L50.7675 19.0187L50.7616 19.0268L50.7564 19.0353L51.0111 19.1937ZM52.4229 19.4971L52.6962 19.6209L52.7336 19.5382L52.7189 19.4486L52.4229 19.4971ZM51.0659 22.4924L51.3382 22.6184L51.3392 22.6162L51.0659 22.4924ZM55.2316 25.9435L55.0285 25.7225L55.0239 25.727L55.2316 25.9435ZM58.0011 22.9597L58.2338 23.1492L58.2367 23.1454L58.0011 22.9597ZM60.6773 19.4076L60.921 19.5826L60.6773 19.4076ZM61.5495 20.8697L61.3058 20.6947L61.5495 20.8697ZM58.6753 24.6975L58.9069 24.8883L58.9101 24.8842L58.6753 24.6975ZM56.1434 27.3504L56.3339 27.5824L56.3408 27.5763L56.1434 27.3504ZM48.413 26.1866L48.7068 26.2475L48.1733 26.0062L48.413 26.1866ZM41.0841 31.6208L41.0356 31.3248C40.1616 31.4682 39.5272 31.3592 39.0853 31.0594C38.6468 30.7618 38.3398 30.2364 38.2055 29.4178L37.9094 29.4664L37.6134 29.515C37.764 30.4331 38.1286 31.1352 38.7484 31.5558C39.3647 31.9741 40.1751 32.074 41.1327 31.9169L41.0841 31.6208ZM37.9094 29.4664L38.2055 29.4178C38.0267 28.3278 38.0909 27.1086 38.4084 25.7556L38.1163 25.687L37.8242 25.6185C37.4928 27.031 37.4192 28.3313 37.6134 29.515L37.9094 29.4664ZM38.1163 25.687L38.4075 25.759C38.7519 24.3657 39.2904 22.9858 40.0247 21.6193L39.7604 21.4773L39.4962 21.3353C38.7399 22.7427 38.1823 24.1694 37.8251 25.6151L38.1163 25.687ZM39.7604 21.4773L40.0264 21.6161C40.7568 20.2161 41.6163 18.9237 42.6049 17.7384L42.3745 17.5462L42.1441 17.3541C41.1275 18.5731 40.2443 19.9014 39.4945 21.3385L39.7604 21.4773ZM42.3745 17.5462L42.6078 17.7348C43.5903 16.5195 44.6359 15.5215 45.7436 14.7374L45.5703 14.4926L45.3969 14.2477C44.2384 15.0677 43.1535 16.1055 42.1412 17.3576L42.3745 17.5462ZM45.5703 14.4926L45.7486 14.7338C46.8464 13.9224 47.9352 13.4357 49.0159 13.2584L48.9673 12.9624L48.9188 12.6663C47.7258 12.8621 46.5499 13.3955 45.3919 14.2513L45.5703 14.4926ZM48.9673 12.9624L49.0159 13.2584C49.9819 13.0999 50.6908 13.2277 51.1903 13.5804C51.6887 13.9325 52.0368 14.5498 52.1924 15.4977L52.4884 15.4491L52.7844 15.4006C52.6136 14.359 52.2116 13.5672 51.5364 13.0903C50.8622 12.6142 49.9737 12.4933 48.9188 12.6663L48.9673 12.9624ZM52.4884 15.4491L52.1924 15.4977C52.2962 16.1305 52.2882 16.5746 52.2032 16.8584C52.1619 16.9959 52.1061 17.0839 52.0471 17.1402C51.99 17.1947 51.9157 17.2334 51.8111 17.2506L51.8597 17.5466L51.9082 17.8426C52.1195 17.808 52.3081 17.7205 52.4613 17.5742C52.6126 17.4299 52.7143 17.2427 52.7779 17.0307C52.9024 16.6153 52.893 16.0625 52.7844 15.4006L52.4884 15.4491ZM51.8597 17.5466L51.8111 17.2506C51.5685 17.2904 51.4321 17.2536 51.3552 17.2016C51.2819 17.1521 51.2068 17.051 51.171 16.8327L50.875 16.8812L50.5789 16.9298C50.6312 17.2483 50.7642 17.5265 51.0192 17.6988C51.2706 17.8686 51.5825 17.8961 51.9082 17.8426L51.8597 17.5466ZM50.875 16.8812L51.171 16.8327C51.1419 16.6551 51.1499 16.4674 51.1995 16.2668L50.9083 16.1948L50.617 16.1228C50.5497 16.3953 50.5355 16.6653 50.5789 16.9298L50.875 16.8812ZM50.9083 16.1948L51.1948 16.2837C51.2935 15.9656 51.3158 15.6398 51.2617 15.3099L50.9656 15.3585L50.6696 15.407C50.7087 15.6456 50.6927 15.8773 50.6218 16.1058L50.9083 16.1948ZM50.9656 15.3585L51.2617 15.3099C51.177 14.7936 50.9265 14.3941 50.489 14.1705C50.0703 13.9565 49.5272 13.9285 48.8995 14.0315L48.9481 14.3275L48.9967 14.6236C49.569 14.5297 49.9621 14.575 50.2159 14.7047C50.4509 14.8248 50.6092 15.0392 50.6696 15.407L50.9656 15.3585ZM48.9481 14.3275L48.8995 14.0315C47.8625 14.2016 46.7879 14.7829 45.677 15.7353C44.5647 16.6891 43.3991 18.0296 42.1791 19.7479L42.4237 19.9216L42.6683 20.0953C43.8717 18.4003 45.0052 17.1017 46.0676 16.1908C47.1316 15.2785 48.1074 14.7694 48.9967 14.6236L48.9481 14.3275ZM42.4237 19.9216L42.1762 19.7521C41.5897 20.6084 41.0426 21.5874 40.5342 22.6878L40.8066 22.8136L41.0789 22.9394C41.5756 21.8643 42.1066 20.9154 42.6712 20.0911L42.4237 19.9216ZM40.8066 22.8136L40.5342 22.6878C40.0246 23.7909 39.6288 24.8935 39.3476 25.9955L39.6383 26.0697L39.929 26.1438C40.2005 25.0798 40.5835 24.0117 41.0789 22.9394L40.8066 22.8136ZM39.6383 26.0697L39.3465 26C39.0892 27.0774 39.0323 28.0834 39.185 29.0139L39.4811 28.9653L39.7771 28.9168C39.6396 28.0789 39.6876 27.1545 39.9301 26.1394L39.6383 26.0697ZM39.4811 28.9653L39.185 29.0139C39.2638 29.4944 39.4664 29.8845 39.8317 30.1188C40.1903 30.3487 40.6484 30.3912 41.1604 30.3071L41.1119 30.0111L41.0633 29.7151C40.628 29.7865 40.3407 29.7324 40.1556 29.6137C39.9774 29.4994 39.8382 29.2889 39.7771 28.9168L39.4811 28.9653ZM41.1119 30.0111L41.1604 30.3071C42.0434 30.1623 42.9162 29.74 43.7782 29.0616L43.5927 28.8258L43.4072 28.5901C42.6035 29.2226 41.8224 29.5905 41.0633 29.7151L41.1119 30.0111ZM43.5927 28.8258L43.7749 29.0642C44.6498 28.3955 45.3985 27.7286 46.0188 27.0632L45.7993 26.8586L45.5799 26.6541C44.9869 27.2902 44.2645 27.9348 43.4105 28.5875L43.5927 28.8258ZM45.7993 26.8586L46.0158 27.0663C47.2561 25.7735 48.4581 24.0975 49.6238 22.0443L49.3629 21.8962L49.1021 21.7481C47.9533 23.7714 46.7795 25.4036 45.5829 26.6509L45.7993 26.8586ZM49.3629 21.8962L49.6177 22.0546C49.7985 21.7637 50.0293 21.384 50.3097 20.9158L50.0523 20.7616L49.795 20.6075C49.5154 21.0743 49.2865 21.4509 49.1082 21.7378L49.3629 21.8962ZM50.0523 20.7616L50.3097 20.9158C50.5887 20.45 50.9074 19.9288 51.2659 19.3521L51.0111 19.1937L50.7564 19.0353C50.3965 19.6142 50.076 20.1382 49.795 20.6075L50.0523 20.7616ZM51.0111 19.1937L51.2548 19.3687C51.3409 19.2488 51.4476 19.1829 51.5893 19.1597L51.5407 18.8636L51.4921 18.5676C51.1917 18.6169 50.9453 18.771 50.7675 19.0187L51.0111 19.1937ZM51.5407 18.8636L51.5893 19.1597C51.7963 19.1257 51.9056 19.1607 51.9652 19.2035C52.0248 19.2463 52.0929 19.3387 52.1269 19.5457L52.4229 19.4971L52.7189 19.4486C52.67 19.1503 52.5496 18.8845 52.3152 18.7162C52.0807 18.5478 51.7904 18.5186 51.4921 18.5676L51.5407 18.8636ZM52.4229 19.4971L52.1496 19.3733L50.7927 22.3686L51.0659 22.4924L51.3392 22.6162L52.6962 19.6209L52.4229 19.4971ZM51.0659 22.4924L50.7937 22.3663C49.8775 24.3452 49.4833 25.9652 49.6849 27.194L49.9809 27.1454L50.277 27.0968C50.1056 26.052 50.4346 24.57 51.3382 22.6184L51.0659 22.4924ZM49.9809 27.1454L49.6849 27.194C49.7593 27.6473 49.9328 28.0243 50.2488 28.2607C50.5672 28.4989 50.9723 28.5514 51.4157 28.4787L51.3671 28.1827L51.3186 27.8866C50.9725 27.9434 50.7519 27.8878 50.6082 27.7803C50.4621 27.6709 50.3373 27.4645 50.277 27.0968L49.9809 27.1454ZM51.3671 28.1827L51.4157 28.4787C52.1303 28.3615 52.8669 28.0486 53.6242 27.5556L53.4605 27.3041L53.2969 27.0527C52.5892 27.5134 51.9303 27.7863 51.3186 27.8866L51.3671 28.1827ZM53.4605 27.3041L53.6242 27.5556C54.3666 27.0722 54.9733 26.6072 55.4394 26.1599L55.2316 25.9435L55.0239 25.727C54.5934 26.1402 54.0194 26.5823 53.2969 27.0527L53.4605 27.3041ZM55.2316 25.9435L55.4346 26.1643C56.349 25.3238 57.2819 24.3182 58.2337 23.1491L58.0011 22.9597L57.7684 22.7703C56.831 23.9217 55.9176 24.9053 55.0286 25.7226L55.2316 25.9435ZM58.0011 22.9597L58.2367 23.1454C59.1788 21.9503 60.0735 20.7626 60.921 19.5826L60.6773 19.4076L60.4336 19.2326C59.5916 20.4051 58.7023 21.5855 57.7655 22.774L58.0011 22.9597ZM60.6773 19.4076L60.921 19.5826C60.9638 19.523 61.0562 19.4549 61.2632 19.4209L61.2146 19.1249L61.166 18.8288C60.8678 18.8777 60.602 18.9981 60.4336 19.2326L60.6773 19.4076ZM61.2146 19.1249L61.2632 19.4209C61.4684 19.3872 61.5744 19.4133 61.6238 19.441C61.6589 19.4608 61.702 19.5011 61.7223 19.6253L62.0184 19.5767L62.3144 19.5281C62.2726 19.2733 62.1507 19.0489 61.9178 18.918C61.6992 18.7951 61.4345 18.7848 61.166 18.8288L61.2146 19.1249ZM62.0184 19.5767L61.7223 19.6253C61.7594 19.851 61.6629 20.1975 61.3058 20.6947L61.5495 20.8697L61.7932 21.0446C62.1753 20.5126 62.3913 19.9971 62.3144 19.5281L62.0184 19.5767ZM61.5495 20.8697L61.3058 20.6947C60.252 22.1622 59.297 23.434 58.4405 24.5107L58.6753 24.6975L58.9101 24.8842C59.7742 23.7979 60.7353 22.5178 61.7932 21.0446L61.5495 20.8697ZM58.6753 24.6975L58.4438 24.5067C57.5864 25.547 56.7537 26.4188 55.946 27.1245L56.1434 27.3504L56.3408 27.5763C57.1782 26.8447 58.0334 25.9479 58.9068 24.8883L58.6753 24.6975ZM56.1434 27.3504L55.9531 27.1185C55.4221 27.5544 54.7501 28.0323 53.9347 28.5521L54.0959 28.8051L54.2572 29.0581C55.0857 28.5299 55.7787 28.0379 56.3338 27.5823L56.1434 27.3504ZM54.0959 28.8051L53.9347 28.5521C53.1526 29.0507 52.213 29.3937 51.1091 29.5748L51.1577 29.8708L51.2063 30.1669C52.376 29.975 53.3953 29.6075 54.2572 29.0581L54.0959 28.8051ZM51.1577 29.8708L51.1091 29.5748C50.3858 29.6935 49.8651 29.5827 49.4981 29.3023C49.1275 29.0191 48.8566 28.5196 48.7287 27.74L48.4326 27.7886L48.1366 27.8371C48.2781 28.6995 48.5961 29.3681 49.1338 29.779C49.6752 30.1927 50.3823 30.3021 51.2063 30.1669L51.1577 29.8708ZM48.4326 27.7886L48.7287 27.74C48.6286 27.1302 48.6262 26.6359 48.7068 26.2475L48.413 26.1866L48.1193 26.1257C48.0188 26.6102 48.0294 27.1838 48.1366 27.8371L48.4326 27.7886ZM48.413 26.1866L48.1733 26.0062C45.7698 29.1993 43.3872 30.939 41.0356 31.3248L41.0841 31.6208L41.1327 31.9169C43.7072 31.4945 46.2106 29.6114 48.6527 26.367L48.413 26.1866ZM59.1431 25.7395L58.876 25.6025L58.8723 25.6103L59.1431 25.7395ZM62.5228 21.7315L62.3469 21.4884L62.5228 21.7315ZM63.234 21.3229L63.1092 21.05L63.1024 21.0533L63.234 21.3229ZM64.0533 21.8695L64.2248 22.1156L64.2314 22.111L64.2377 22.1061L64.0533 21.8695ZM61.0548 24.9394L60.7967 24.7864L60.7962 24.7872L61.0548 24.9394ZM64.4111 27.0154L64.2519 26.7612L64.2489 26.7631L64.4111 27.0154ZM66.8942 24.9542L66.6777 24.7465L66.6741 24.7504L66.8942 24.9542ZM68.7234 22.4653L68.9893 22.604L68.7234 22.4653ZM68.535 18.9453L68.3273 19.1618L68.3329 19.1671L68.3387 19.1722L68.535 18.9453ZM66.9741 18.3259L66.9347 18.6233L66.9395 18.6239L66.9741 18.3259ZM63.6925 17.8914L63.6485 18.1882L63.6531 18.1888L63.6925 17.8914ZM61.7001 13.1596L61.4527 12.9897L61.4491 12.9953L61.7001 13.1596ZM64.1047 10.9167L63.9471 10.6614L63.9471 10.6614L64.1047 10.9167ZM69.899 10.0633L69.7751 10.3367L69.7833 10.3401L69.899 10.0633ZM71.1457 13.215L70.8747 13.0865L70.8712 13.0938L70.8681 13.1013L71.1457 13.215ZM69.5763 12.8402L69.3103 12.7014L69.3072 12.7076L69.5763 12.8402ZM65.0491 11.9291L65.2078 12.1838L65.2128 12.1805L65.0491 11.9291ZM63.3642 13.5189L63.6131 13.6864L63.3642 13.5189ZM65.0373 16.6007L65.0792 16.3036L65.0758 16.3032L65.0373 16.6007ZM68.2242 17.0507L68.1822 17.3477L68.1828 17.3478L68.2242 17.0507ZM70.3131 17.924L70.0966 18.1318L70.1031 18.1382L70.3131 17.924ZM69.2159 24.2815L68.9846 24.0904L68.9831 24.0923L69.2159 24.2815ZM61.6827 29.3601L61.6342 29.0641C60.7732 29.2053 60.1554 29.1589 59.7441 28.9746C59.3567 28.801 59.1202 28.491 59.0387 27.9941L58.7427 28.0427L58.4466 28.0913C58.5568 28.7629 58.9062 29.2566 59.4988 29.5221C60.0675 29.777 60.8239 29.805 61.7313 29.6561L61.6827 29.3601ZM58.7427 28.0427L59.0387 27.9941C58.9315 27.3404 59.0483 26.6348 59.4138 25.8687L59.1431 25.7395L58.8723 25.6103C58.4657 26.4625 58.3156 27.2924 58.4466 28.0913L58.7427 28.0427ZM59.1431 25.7395L59.41 25.8764C59.8161 25.0847 60.3248 24.3381 60.9373 23.6366L60.7113 23.4393L60.4854 23.242C59.8421 23.9787 59.3054 24.7656 58.8761 25.6026L59.1431 25.7395ZM60.7113 23.4393L60.9373 23.6366C61.5549 22.9292 62.1422 22.377 62.6986 21.9745L62.5228 21.7315L62.3469 21.4884C61.7438 21.9247 61.1235 22.511 60.4854 23.242L60.7113 23.4393ZM62.5228 21.7315L62.6986 21.9745C62.8531 21.8627 63.0733 21.7352 63.3656 21.5925L63.234 21.3229L63.1024 21.0533C62.7942 21.2037 62.5402 21.3485 62.3469 21.4884L62.5228 21.7315ZM63.234 21.3229L63.3587 21.5957C63.6795 21.4491 63.9283 21.3671 64.1119 21.337L64.0633 21.0409L64.0147 20.7449C63.7561 20.7873 63.4521 20.8933 63.1092 21.0501L63.234 21.3229ZM64.0633 21.0409L64.1119 21.337C64.1575 21.3295 64.1884 21.3289 64.2073 21.3305C64.2259 21.332 64.2277 21.3352 64.2204 21.3313C64.2112 21.3265 64.2009 21.3177 64.194 21.3071C64.1881 21.2982 64.1904 21.2967 64.1928 21.3115L64.4888 21.263L64.7849 21.2144C64.7575 21.0474 64.6697 20.889 64.4979 20.7994C64.3441 20.7191 64.1695 20.7195 64.0147 20.7449L64.0633 21.0409ZM64.4888 21.263L64.1928 21.3115C64.1873 21.2778 64.207 21.2866 64.1557 21.358C64.1068 21.4261 64.0164 21.5179 63.8689 21.6328L64.0533 21.8695L64.2377 22.1061C64.4064 21.9746 64.5467 21.8421 64.6431 21.708C64.737 21.5773 64.8163 21.406 64.7849 21.2144L64.4888 21.263ZM64.0533 21.8695L63.8817 21.6234C62.5169 22.5747 61.4839 23.6277 60.7967 24.7864L61.0548 24.9394L61.3128 25.0925C61.9465 24.024 62.9125 23.0303 64.2248 22.1156L64.0533 21.8695ZM61.0548 24.9394L60.7962 24.7872C60.158 25.8713 59.8385 26.7909 59.9553 27.5033L60.2514 27.4547L60.5474 27.4061C60.4674 26.9185 60.6835 26.1614 61.3133 25.0917L61.0548 24.9394ZM60.2514 27.4547L59.9553 27.5033C60.0192 27.8924 60.2482 28.1742 60.6167 28.3143C60.9583 28.4442 61.3998 28.4458 61.9082 28.3624L61.8596 28.0664L61.8111 27.7704C61.3406 27.8475 61.0245 27.8275 60.83 27.7535C60.6624 27.6898 60.5768 27.5854 60.5474 27.4061L60.2514 27.4547ZM61.8596 28.0664L61.9082 28.3624C62.7787 28.2196 63.6675 27.8504 64.5734 27.2678L64.4111 27.0154L64.2489 26.7631C63.3948 27.3124 62.5826 27.6438 61.8111 27.7704L61.8596 28.0664ZM64.4111 27.0154L64.5704 27.2697C65.5048 26.6843 66.3528 25.9802 67.1143 25.1581L66.8942 24.9542L66.6741 24.7504C65.9479 25.5343 65.1406 26.2044 64.2519 26.7612L64.4111 27.0154ZM66.8942 24.9542L67.1107 25.1619C67.9025 24.3365 68.5302 23.4841 68.9893 22.604L68.7234 22.4653L68.4574 22.3265C68.0284 23.1486 67.4366 23.9555 66.6777 24.7466L66.8942 24.9542ZM68.7234 22.4653L68.9893 22.604C69.4527 21.716 69.6422 20.8764 69.5145 20.0979L69.2185 20.1465L68.9224 20.1951C69.0227 20.8061 68.8822 21.5123 68.4574 22.3265L68.7234 22.4653ZM69.2185 20.1465L69.5145 20.0979C69.425 19.552 69.16 19.0895 68.7313 18.7185L68.535 18.9453L68.3387 19.1722C68.6659 19.4554 68.8566 19.7937 68.9224 20.1951L69.2185 20.1465ZM68.535 18.9453L68.7427 18.7288C68.3318 18.3347 67.7394 18.1128 67.0087 18.0279L66.9741 18.3259L66.9395 18.6239C67.5972 18.7003 68.0454 18.8913 68.3273 19.1618L68.535 18.9453ZM66.9741 18.3259L67.0135 18.0285L63.7319 17.594L63.6925 17.8914L63.6531 18.1888L66.9347 18.6233L66.9741 18.3259ZM63.6925 17.8914L63.7364 17.5947C62.9334 17.4757 62.3733 17.2505 62.0187 16.9482L61.8241 17.1765L61.6295 17.4048C62.1042 17.8095 62.7898 18.0609 63.6485 18.1882L63.6925 17.8914ZM61.8241 17.1765L62.0187 16.9482C61.6542 16.6375 61.4444 16.2703 61.3737 15.8398L61.0777 15.8883L60.7816 15.9369C60.8768 16.5169 61.1645 17.0084 61.6295 17.4048L61.8241 17.1765ZM61.0777 15.8883L61.3737 15.8398C61.2315 14.9731 61.4181 14.1387 61.9512 13.3238L61.7001 13.1596L61.4491 12.9953C60.8414 13.9241 60.613 14.9089 60.7816 15.9369L61.0777 15.8883ZM61.7001 13.1596L61.9475 13.3293C62.5234 12.4902 63.293 11.7706 64.2623 11.1719L64.1047 10.9167L63.9471 10.6614C62.9142 11.2992 62.0807 12.0748 61.4528 12.9898L61.7001 13.1596ZM64.1047 10.9167L64.2623 11.1719C65.235 10.5712 66.2042 10.1952 67.1707 10.0367L67.1221 9.74063L67.0736 9.44459C66.0191 9.61759 64.9766 10.0256 63.9471 10.6614L64.1047 10.9167ZM67.1221 9.74063L67.1707 10.0367C68.1294 9.87939 68.9942 9.98275 69.7752 10.3366L69.899 10.0633L70.0228 9.79005C69.1223 9.38206 68.1358 9.2703 67.0736 9.44459L67.1221 9.74063ZM69.899 10.0633L69.7833 10.3401C70.5336 10.6538 70.9421 11.1588 71.0584 11.8674L71.3544 11.8188L71.6505 11.7703C71.4973 10.8368 70.9356 10.1715 70.0147 9.78653L69.899 10.0633ZM71.3544 11.8188L71.0584 11.8674C71.1257 12.2775 71.0669 12.6813 70.8747 13.0865L71.1457 13.215L71.4168 13.3436C71.6583 12.8345 71.7386 12.3075 71.6505 11.7703L71.3544 11.8188ZM71.1457 13.215L70.8681 13.1013C70.7054 13.4982 70.5052 13.6485 70.2982 13.6824L70.3468 13.9785L70.3953 14.2745C70.883 14.1945 71.2155 13.8358 71.4233 13.3288L71.1457 13.215ZM70.3468 13.9785L70.2982 13.6824C70.063 13.721 69.9334 13.6913 69.8663 13.6524C69.8118 13.6207 69.7548 13.5575 69.7288 13.3989L69.4327 13.4474L69.1367 13.496C69.1832 13.7795 69.3148 14.0259 69.5649 14.1712C69.8025 14.3092 70.0938 14.324 70.3953 14.2745L70.3468 13.9785ZM69.4327 13.4474L69.7288 13.3989C69.718 13.3331 69.7337 13.1997 69.8454 12.9727L69.5763 12.8402L69.3072 12.7076C69.1757 12.9746 69.0957 13.246 69.1367 13.496L69.4327 13.4474ZM69.5763 12.8402L69.8423 12.979C70.0079 12.6616 70.0904 12.3419 70.04 12.0345L69.744 12.0831L69.4479 12.1316C69.47 12.2663 69.4408 12.4514 69.3103 12.7014L69.5763 12.8402ZM69.744 12.0831L70.04 12.0345C69.9477 11.4718 69.6499 11.0546 69.1454 10.8322C68.6652 10.6204 68.0324 10.6006 67.2834 10.7235L67.3319 11.0195L67.3805 11.3156C68.0841 11.2001 68.5796 11.2384 68.9033 11.3812C69.2028 11.5132 69.3848 11.747 69.4479 12.1316L69.744 12.0831ZM67.3319 11.0195L67.2834 10.7235C66.4492 10.8603 65.6495 11.1803 64.8854 11.6777L65.0491 11.9291L65.2128 12.1805C65.9136 11.7242 66.6358 11.4378 67.3805 11.3156L67.3319 11.0195ZM65.0491 11.9291L64.8904 11.6745C64.1526 12.1344 63.5587 12.6928 63.1154 13.3513L63.3642 13.5189L63.6131 13.6864C64.0041 13.1055 64.5335 12.604 65.2078 12.1837L65.0491 11.9291ZM63.3642 13.5189L63.1154 13.3513C62.6632 14.0231 62.4798 14.7249 62.5979 15.4444L62.8939 15.3958L63.1899 15.3472C63.1008 14.8036 63.231 14.2541 63.6131 13.6864L63.3642 13.5189ZM62.8939 15.3958L62.5979 15.4444C62.6684 15.8743 62.948 16.2003 63.3604 16.4322C63.7657 16.66 64.319 16.8101 64.9987 16.8982L65.0373 16.6007L65.0758 16.3032C64.4303 16.2195 63.9637 16.083 63.6545 15.9092C63.3524 15.7394 63.223 15.5488 63.1899 15.3472L62.8939 15.3958ZM65.0373 16.6007L64.9953 16.8977L68.1822 17.3477L68.2242 17.0507L68.2661 16.7536L65.0792 16.3036L65.0373 16.6007ZM68.2242 17.0507L68.1828 17.3478C69.1138 17.4774 69.7329 17.7527 70.0967 18.1317L70.3131 17.924L70.5295 17.7162C70.0328 17.1987 69.2592 16.8918 68.2655 16.7535L68.2242 17.0507ZM70.3131 17.924L70.1031 18.1382C70.4816 18.5092 70.714 18.9591 70.8023 19.4975L71.0984 19.449L71.3944 19.4004C71.2859 18.7389 70.9948 18.1721 70.5231 17.7097L70.3131 17.924ZM71.0984 19.449L70.8023 19.4975C71.0147 20.792 70.4511 22.3159 68.9847 24.0904L69.2159 24.2815L69.4472 24.4726C70.9569 22.6457 71.6483 20.9479 71.3944 19.4004L71.0984 19.449ZM69.2159 24.2815L68.9831 24.0923C66.6083 27.0155 64.1567 28.6502 61.6342 29.0641L61.6827 29.3601L61.7313 29.6561C64.4507 29.21 67.0212 27.4589 69.4487 24.4706L69.2159 24.2815ZM76.1022 14.2016L76.3784 14.3186L76.3795 14.3161L76.1022 14.2016ZM77.2046 12.0264L77.4617 12.1812L77.4652 12.175L77.2046 12.0264ZM78.6463 9.84424L78.8854 10.0254L78.887 10.0233L78.6463 9.84424ZM81.2574 7.08105L81.0676 6.84873L81.2574 7.08105ZM84.4613 13.268L84.6675 13.4859L84.6709 13.4826L84.4613 13.268ZM77.7852 16.4549L77.7605 16.7538L77.7806 16.7555L77.8008 16.7545L77.7852 16.4549ZM77.0436 16.382L77.0782 16.084L76.8361 16.0558L76.759 16.2871L77.0436 16.382ZM76.5718 18.8428L76.8704 18.8722L76.5718 18.8428ZM83.9484 22.594L84.0993 22.8534L84.1045 22.8502L83.9484 22.594ZM88.1955 18.8328L87.9754 18.6289L87.9735 18.631L88.1955 18.8328ZM90.4036 16.2817L90.6422 16.4635L90.4036 16.2817ZM91.9712 14.2734L91.7665 14.054L91.7503 14.0691L91.7365 14.0864L91.9712 14.2734ZM92.9581 14.0628L93.0688 13.784L92.9581 14.0628ZM92.5584 16.0741L92.7968 16.2564L92.8021 16.249L92.5584 16.0741ZM91.1175 17.9643L91.3512 18.1526L91.3563 18.1458L91.1175 17.9643ZM88.6485 20.7042L88.4312 20.4973L88.429 20.4996L88.6485 20.7042ZM84.5131 23.9606L84.6604 24.222L84.5131 23.9606ZM83.3989 12.1289L83.6128 12.3393L83.6142 12.3378L83.3989 12.1289ZM80.3656 10.2432L80.6021 10.4277L80.6022 10.4276L80.3656 10.2432ZM78.6707 12.6614L78.4137 12.5067L78.413 12.5079L78.6707 12.6614ZM77.5761 14.884L77.298 14.7715L77.1569 15.1205L77.5286 15.1802L77.5761 14.884ZM80.0189 25.6222L79.9703 25.3261C78.7207 25.5311 77.6968 25.2607 76.8644 24.5353L76.6673 24.7614L76.4702 24.9876C77.454 25.845 78.6645 26.1484 80.0674 25.9182L80.0189 25.6222ZM76.6673 24.7614L76.8644 24.5353C76.0151 23.7951 75.4825 22.8022 75.2748 21.5363L74.9787 21.5849L74.6827 21.6335C74.9102 23.0202 75.5033 24.145 76.4702 24.9876L76.6673 24.7614ZM74.9787 21.5849L75.2748 21.5363C74.913 19.3311 75.2731 16.9279 76.3784 14.3186L76.1022 14.2016L75.826 14.0846C74.6873 16.7725 74.2985 19.2915 74.6827 21.6335L74.9787 21.5849ZM76.1022 14.2016L76.3795 14.3161C76.6751 13.6004 77.0357 12.8887 77.4616 12.1812L77.2046 12.0264L76.9476 11.8717C76.5071 12.6034 76.1327 13.3419 75.8249 14.0871L76.1022 14.2016ZM77.2046 12.0264L77.4652 12.175C77.8867 11.4353 78.36 10.7188 78.8854 10.0254L78.6463 9.84424L78.4072 9.66306C77.8664 10.3768 77.3785 11.1151 76.9439 11.8779L77.2046 12.0264ZM78.6463 9.84424L78.887 10.0233C79.6708 8.97004 80.5244 8.06732 81.4472 7.31337L81.2574 7.08105L81.0676 6.84873C80.1032 7.63666 79.216 8.57607 78.4056 9.66514L78.6463 9.84424ZM81.2574 7.08105L81.4472 7.31337C82.3594 6.56813 83.2733 6.13012 84.1898 5.97977L84.1412 5.68372L84.0926 5.38768C83.0513 5.55853 82.0427 6.05208 81.0676 6.84873L81.2574 7.08105ZM84.1412 5.68372L84.1898 5.97977C84.9537 5.85443 85.5011 5.94956 85.8787 6.20374C86.2524 6.45531 86.5178 6.90208 86.6339 7.60957L86.9299 7.561L87.226 7.51243C87.0934 6.70418 86.7696 6.08021 86.2138 5.70601C85.6618 5.33444 84.9392 5.24879 84.0926 5.38768L84.1412 5.68372ZM86.9299 7.561L86.6339 7.60957C86.9228 9.37079 86.1701 11.1806 84.2518 13.0533L84.4613 13.268L84.6709 13.4826C86.6657 11.5354 87.5587 9.54055 87.226 7.51243L86.9299 7.561ZM84.4613 13.268L84.2551 13.05C82.4633 14.7452 80.6089 15.7362 78.6917 16.0508L78.7403 16.3468L78.7889 16.6428C80.8505 16.3046 82.8101 15.2431 84.6675 13.4859L84.4613 13.268ZM78.7403 16.3468L78.6917 16.0508C78.3531 16.1063 78.0459 16.1409 77.7696 16.1553L77.7852 16.4549L77.8008 16.7545C78.1033 16.7387 78.4328 16.7013 78.7889 16.6428L78.7403 16.3468ZM77.7852 16.4549L77.8099 16.1559C77.5498 16.1344 77.3059 16.1104 77.0782 16.084L77.0436 16.382L77.009 16.68C77.2441 16.7073 77.4946 16.7319 77.7605 16.7538L77.7852 16.4549ZM77.0436 16.382L76.759 16.2871C76.5322 16.9672 76.3717 17.8113 76.2732 18.8135L76.5718 18.8428L76.8704 18.8722C76.9663 17.8967 77.1203 17.1003 77.3282 16.4769L77.0436 16.382ZM76.5718 18.8428L76.2732 18.8135C76.1744 19.8185 76.1814 20.688 76.3009 21.4166L76.597 21.3681L76.893 21.3195C76.7846 20.6587 76.7748 19.8447 76.8704 18.8722L76.5718 18.8428ZM76.597 21.3681L76.3009 21.4166C76.478 22.4956 76.856 23.3214 77.4782 23.8319C78.1079 24.3487 78.9337 24.4991 79.9057 24.3396L79.8571 24.0435L79.8086 23.7475C78.9491 23.8885 78.3157 23.7431 77.8588 23.3681C77.3942 22.9869 77.0579 22.3246 76.893 21.3195L76.597 21.3681ZM79.8571 24.0435L79.9057 24.3396C81.4242 24.0904 82.8229 23.5954 84.0992 22.8534L83.9484 22.594L83.7977 22.3347C82.5873 23.0383 81.2584 23.5096 79.8086 23.7475L79.8571 24.0435ZM83.9484 22.594L84.1045 22.8502C85.3777 22.0745 86.8156 20.7972 88.4175 19.0346L88.1955 18.8328L87.9735 18.631C86.389 20.3745 84.9956 21.6047 83.7923 22.3378L83.9484 22.594ZM88.1955 18.8328L88.4156 19.0367C89.4094 17.9637 90.1531 17.1051 90.6422 16.4635L90.4036 16.2817L90.1651 16.0998C89.6935 16.7184 88.9651 17.5605 87.9754 18.6289L88.1955 18.8328ZM90.4036 16.2817L90.6422 16.4635C91.1211 15.8354 91.6423 15.1677 92.2058 14.4603L91.9712 14.2734L91.7365 14.0864C91.1707 14.7967 90.6468 15.4678 90.1651 16.0998L90.4036 16.2817ZM91.9712 14.2734L92.1758 14.4928C92.3195 14.3587 92.4308 14.3074 92.5097 14.2945L92.4611 13.9984L92.4126 13.7024C92.1757 13.7412 91.9604 13.8732 91.7665 14.054L91.9712 14.2734ZM92.4611 13.9984L92.5097 14.2945C92.6056 14.2787 92.716 14.2895 92.8474 14.3417L92.9581 14.0628L93.0688 13.784C92.8533 13.6985 92.6325 13.6663 92.4126 13.7024L92.4611 13.9984ZM92.9581 14.0628L92.8474 14.3417C92.9195 14.3703 92.9542 14.4097 92.9688 14.4988L93.2649 14.4503L93.5609 14.4017C93.5134 14.1119 93.3436 13.893 93.0688 13.784L92.9581 14.0628ZM93.2649 14.4503L92.9688 14.4988C92.9836 14.5889 92.9646 14.7473 92.8559 14.997C92.7499 15.2408 92.5722 15.5406 92.3148 15.8991L92.5584 16.0741L92.8021 16.249C93.0727 15.8723 93.2767 15.5339 93.4061 15.2364C93.5329 14.9449 93.6031 14.659 93.5609 14.4017L93.2649 14.4503ZM92.5584 16.0741L92.3202 15.8918C91.866 16.4854 91.3855 17.1157 90.8786 17.7828L91.1175 17.9643L91.3563 18.1458C91.8629 17.4792 92.343 16.8494 92.7967 16.2563L92.5584 16.0741ZM91.1175 17.9643L90.8839 17.776C90.38 18.4013 89.5641 19.3073 88.4312 20.4973L88.6485 20.7042L88.8658 20.911C90.0011 19.7184 90.8311 18.7978 91.3511 18.1525L91.1175 17.9643ZM88.6485 20.7042L88.429 20.4996C87.2367 21.7788 85.8826 22.8451 84.3659 23.6992L84.5131 23.9606L84.6604 24.222C86.2309 23.3375 87.6337 22.2328 88.8679 20.9087L88.6485 20.7042ZM84.5131 23.9606L84.3659 23.6992C82.8469 24.5548 81.382 25.0945 79.9703 25.3261L80.0189 25.6222L80.0674 25.9182C81.5609 25.6732 83.0922 25.1052 84.6604 24.222L84.5131 23.9606ZM78.2074 14.8777L78.256 15.1737C79.2979 15.0028 80.267 14.6765 81.1615 14.194L81.0191 13.93L80.8767 13.6659C80.0433 14.1155 79.1379 14.421 78.1589 14.5817L78.2074 14.8777ZM81.0191 13.93L81.1615 14.194C82.0531 13.7131 82.8702 13.0943 83.6128 12.3393L83.3989 12.1289L83.185 11.9186C82.4824 12.633 81.713 13.2148 80.8767 13.6659L81.0191 13.93ZM83.3989 12.1289L83.6142 12.3378C85.2336 10.6686 86.0345 9.14435 85.8127 7.79293L85.5167 7.8415L85.2207 7.89007C85.3927 8.93857 84.7817 10.2726 83.1836 11.92L83.3989 12.1289ZM85.5167 7.8415L85.8127 7.79293C85.7582 7.46038 85.6037 7.18081 85.3175 7.01771C85.0448 6.86234 84.7051 6.84373 84.3413 6.90342L84.3899 7.19946L84.4385 7.4955C84.7378 7.44639 84.9175 7.48039 85.0204 7.53903C85.1098 7.58994 85.1871 7.68579 85.2207 7.89007L85.5167 7.8415ZM84.3899 7.19946L84.3413 6.90342C82.9632 7.12952 81.5614 8.22051 80.1289 10.0587L80.3656 10.2432L80.6022 10.4276C82.0092 8.622 83.2904 7.68386 84.4385 7.4955L84.3899 7.19946ZM80.3656 10.2432L80.1291 10.0586C79.4273 10.9576 78.8549 11.7739 78.4137 12.5067L78.6707 12.6614L78.9278 12.8162C79.353 12.1098 79.9104 11.3138 80.6021 10.4277L80.3656 10.2432ZM78.6707 12.6614L78.413 12.5079C77.9977 13.205 77.6262 13.9597 77.298 14.7715L77.5761 14.884L77.8543 14.9964C78.1719 14.2106 78.5301 13.4837 78.9285 12.815L78.6707 12.6614ZM77.5761 14.884L77.5286 15.1802C77.7635 15.2179 78.0065 15.2147 78.256 15.1737L78.2074 14.8777L78.1589 14.5817C77.9663 14.6133 77.7884 14.6142 77.6237 14.5878L77.5761 14.884Z" fill="white" mask="url(#path-2-outside-1_632_6782)"/>
</g>
</svg>
