<svg width="306" height="32" viewBox="0 0 306 32" fill="none" xmlns="http://www.w3.org/2000/svg">
<g filter="url(#filter0_n_748_5230)">
<rect width="306" height="32" fill="#414245"/>
</g>
<path d="M52.364 25.704C52.0413 25.7187 51.7187 25.5867 51.396 25.308C51.088 25.0293 50.9193 24.6847 50.89 24.274C50.8607 23.6287 50.7873 22.7927 50.67 21.766C50.5527 20.7247 50.4133 19.632 50.252 18.488C49.5627 18.6347 48.932 18.7813 48.36 18.928C47.788 19.0747 47.2673 19.236 46.798 19.412C46.3873 19.5733 46.0427 19.7273 45.764 19.874C45.5 20.006 45.214 20.0867 44.906 20.116C44.7153 20.1307 44.5027 20.072 44.268 19.94C44.048 19.808 43.7987 19.6247 43.52 19.39C43.0653 18.9793 42.794 18.5393 42.706 18.07C42.7793 17.8647 42.9113 17.7987 43.102 17.872C43.3807 18.136 43.7033 18.268 44.07 18.268C44.4367 18.2533 44.95 18.1873 45.61 18.07H45.654C46.1233 17.9967 46.7613 17.8867 47.568 17.74C48.3893 17.5933 49.2327 17.4467 50.098 17.3C50.01 16.7133 49.922 16.134 49.834 15.562C49.746 14.99 49.658 14.44 49.57 13.912C49.218 14 48.888 14.0953 48.58 14.198C48.2867 14.286 48.008 14.3813 47.744 14.484C47.3627 14.616 47.0327 14.748 46.754 14.88C46.4753 15.012 46.2113 15.0927 45.962 15.122C45.6833 15.1513 45.4047 15.0707 45.126 14.88C44.862 14.6893 44.62 14.4547 44.4 14.176C44.1947 13.8827 44.048 13.6113 43.96 13.362C43.9747 13.2593 44.0187 13.186 44.092 13.142C44.1653 13.0833 44.246 13.0687 44.334 13.098C44.5833 13.2887 44.884 13.3987 45.236 13.428C45.6027 13.4573 46.094 13.4207 46.71 13.318L49.394 12.79C49.3207 12.2913 49.2473 11.844 49.174 11.448C49.1007 11.0373 49.0347 10.7073 48.976 10.458C48.888 9.98867 48.7487 9.644 48.558 9.424C48.3673 9.18933 48.0447 9.06467 47.59 9.05C47.4287 8.88867 47.4287 8.742 47.59 8.61C47.854 8.50733 48.1693 8.456 48.536 8.456C48.9027 8.44133 49.2547 8.47067 49.592 8.544C49.944 8.61733 50.2153 8.72 50.406 8.852C50.6407 8.96933 50.78 9.12333 50.824 9.314C50.8827 9.49 50.8753 9.71 50.802 9.974C50.7287 10.2527 50.692 10.5313 50.692 10.81C50.7067 11.0887 50.7433 11.4627 50.802 11.932C50.8313 12.108 50.8533 12.306 50.868 12.526C51.1173 12.4673 51.352 12.416 51.572 12.372C51.792 12.328 51.9827 12.2987 52.144 12.284C52.4227 12.2253 52.6793 12.1373 52.914 12.02C53.1633 11.888 53.3907 11.7487 53.596 11.602C53.728 11.4847 53.86 11.426 53.992 11.426C54.124 11.4113 54.278 11.4187 54.454 11.448C54.7473 11.5067 55.0187 11.602 55.268 11.734C55.532 11.866 55.7593 11.998 55.95 12.13C56.258 12.35 56.368 12.5847 56.28 12.834C56.2067 13.0833 55.9573 13.2007 55.532 13.186C55.268 13.1713 54.9087 13.186 54.454 13.23C54.014 13.2593 53.6107 13.2887 53.244 13.318C52.8773 13.3473 52.5107 13.3913 52.144 13.45C51.7773 13.494 51.4107 13.5453 51.044 13.604C51.132 14.1027 51.2273 14.6453 51.33 15.232C51.4473 15.804 51.5573 16.398 51.66 17.014C52.1293 16.926 52.5693 16.8453 52.98 16.772C53.3907 16.6987 53.7353 16.64 54.014 16.596C54.4833 16.5227 54.85 16.4273 55.114 16.31C55.378 16.1927 55.642 16.024 55.906 15.804C56.1553 15.5987 56.544 15.562 57.072 15.694C57.3653 15.7673 57.6733 15.892 57.996 16.068C58.3333 16.244 58.5827 16.4053 58.744 16.552C58.9787 16.7427 59.0667 16.9627 59.008 17.212C58.964 17.4613 58.766 17.586 58.414 17.586C58.1353 17.586 57.7393 17.6007 57.226 17.63C56.7127 17.6593 56.236 17.6887 55.796 17.718C55.1653 17.762 54.5127 17.8207 53.838 17.894C53.178 17.9673 52.5253 18.0627 51.88 18.18C52.056 19.0747 52.2247 19.9473 52.386 20.798C52.5473 21.634 52.7013 22.382 52.848 23.042C52.9947 23.6873 53.1047 24.1713 53.178 24.494C53.2513 24.7873 53.2073 25.0587 53.046 25.308C52.8993 25.5573 52.672 25.6893 52.364 25.704ZM68.49 22.8C68.2553 22.668 68.006 22.4993 67.742 22.294C67.4927 22.0887 67.2873 21.8907 67.126 21.7C66.8913 21.436 66.8547 21.1867 67.016 20.952C67.104 20.8053 67.1627 20.6367 67.192 20.446C67.236 20.2407 67.258 19.9547 67.258 19.588V13.89C67.258 13.5967 67.2433 13.3327 67.214 13.098C67.1847 12.8487 67.1113 12.6507 66.994 12.504C66.8473 12.284 66.598 12.1593 66.246 12.13C66.0993 11.954 66.1067 11.8 66.268 11.668C66.5027 11.6093 66.7887 11.5873 67.126 11.602C67.478 11.6167 67.8373 11.6753 68.204 11.778C68.5853 11.866 68.9227 12.0127 69.216 12.218C69.4067 12.3353 69.524 12.4967 69.568 12.702C69.6267 12.8927 69.59 13.0687 69.458 13.23C69.3407 13.3767 69.2527 13.5233 69.194 13.67C69.15 13.8167 69.1133 14.0513 69.084 14.374C69.0547 14.6527 69.0327 15.0707 69.018 15.628C69.0033 16.1853 68.996 16.816 68.996 17.52C68.996 18.224 68.996 18.95 68.996 19.698C68.996 20.0793 69.2453 20.2187 69.744 20.116C70.36 19.984 71.064 19.742 71.856 19.39C72.6627 19.038 73.4987 18.62 74.364 18.136C75.2293 17.6373 76.08 17.1167 76.916 16.574C77.7667 16.0167 78.5367 15.4667 79.226 14.924C79.93 14.3813 80.5093 13.8827 80.964 13.428C81.0813 13.428 81.1767 13.4647 81.25 13.538C81.338 13.6113 81.3747 13.6993 81.36 13.802C80.9347 14.33 80.3407 14.968 79.578 15.716C78.83 16.464 77.9647 17.2413 76.982 18.048C76.014 18.8547 74.9873 19.6173 73.902 20.336C72.8313 21.04 71.7607 21.6193 70.69 22.074C70.47 22.162 70.2647 22.272 70.074 22.404C69.8833 22.5213 69.7293 22.6387 69.612 22.756C69.2893 23.0493 68.9153 23.064 68.49 22.8ZM95.858 25.682C95.638 25.6527 95.4253 25.5427 95.22 25.352C95.0147 25.176 94.8533 24.9633 94.736 24.714C94.6187 24.45 94.5747 24.1933 94.604 23.944C94.6333 23.768 94.67 23.394 94.714 22.822C94.758 22.25 94.7947 21.568 94.824 20.776C94.868 19.984 94.9047 19.1553 94.934 18.29C94.9633 17.4247 94.978 16.6033 94.978 15.826C94.978 15.6647 94.9707 15.5253 94.956 15.408C94.956 15.2907 94.9487 15.1807 94.934 15.078C94.098 15.8553 93.2327 16.5887 92.338 17.278C91.458 17.9527 90.6 18.5613 89.764 19.104C88.9427 19.632 88.1947 20.072 87.52 20.424C87.4173 20.3947 87.3367 20.336 87.278 20.248C87.2193 20.16 87.2047 20.0647 87.234 19.962C87.762 19.5953 88.356 19.1333 89.016 18.576C89.6907 18.004 90.3873 17.366 91.106 16.662C91.8247 15.9433 92.5287 15.1953 93.218 14.418C93.922 13.6407 94.56 12.856 95.132 12.064C95.7187 11.272 96.2027 10.5167 96.584 9.798C96.7453 9.49 96.7893 9.23333 96.716 9.028C96.7013 8.92533 96.65 8.84467 96.562 8.786C96.474 8.71267 96.3787 8.64667 96.276 8.588C96.1733 8.412 96.2173 8.28 96.408 8.192C96.716 8.17733 97.068 8.24333 97.464 8.39C97.8747 8.522 98.256 8.698 98.608 8.918C98.9747 9.12333 99.2313 9.35067 99.378 9.6C99.4807 9.76133 99.51 9.92267 99.466 10.084C99.4367 10.2307 99.3413 10.3407 99.18 10.414C98.872 10.5607 98.608 10.788 98.388 11.096C98.036 11.624 97.64 12.152 97.2 12.68C96.7747 13.1933 96.3127 13.7067 95.814 14.22C96.1807 14.3373 96.4813 14.484 96.716 14.66C96.8187 14.7333 96.87 14.8433 96.87 14.99C96.87 15.122 96.8333 15.2613 96.76 15.408C96.7013 15.5107 96.6573 15.65 96.628 15.826C96.5987 16.002 96.584 16.2513 96.584 16.574C96.584 17.3513 96.5913 18.1873 96.606 19.082C96.6353 19.9767 96.6573 20.842 96.672 21.678C96.7013 22.4993 96.7233 23.196 96.738 23.768C96.7673 24.34 96.782 24.692 96.782 24.824C96.782 25.132 96.6867 25.3593 96.496 25.506C96.32 25.6527 96.1073 25.7113 95.858 25.682ZM117.55 25.792C116.861 25.8067 116.245 25.704 115.702 25.484C115.159 25.2787 114.734 24.978 114.426 24.582C114.118 24.1713 113.971 23.6947 113.986 23.152C114.015 22.3893 114.36 21.788 115.02 21.348C115.695 20.908 116.516 20.688 117.484 20.688C118.071 20.688 118.65 20.732 119.222 20.82C119.207 20.2187 119.185 19.61 119.156 18.994C119.127 18.3633 119.112 17.696 119.112 16.992C119.112 16.0387 119.339 15.3567 119.794 14.946C120.249 14.5353 120.821 14.2933 121.51 14.22C121.847 14.1907 122.067 14.1027 122.17 13.956C122.287 13.7947 122.339 13.5967 122.324 13.362C122.309 13.098 122.17 12.8267 121.906 12.548C121.642 12.2693 121.319 12.0567 120.938 11.91C120.894 11.8367 120.887 11.756 120.916 11.668C120.945 11.58 120.997 11.5213 121.07 11.492C121.466 11.5067 121.884 11.5873 122.324 11.734C122.764 11.866 123.175 12.0493 123.556 12.284C123.937 12.504 124.238 12.7607 124.458 13.054C124.693 13.3327 124.795 13.6333 124.766 13.956C124.737 14.4547 124.568 14.792 124.26 14.968C123.952 15.144 123.6 15.2247 123.204 15.21C122.808 15.1953 122.456 15.1513 122.148 15.078C121.62 14.946 121.158 14.9973 120.762 15.232C120.381 15.4667 120.19 15.9727 120.19 16.75C120.19 17.5127 120.271 18.2753 120.432 19.038C120.593 19.8007 120.725 20.5047 120.828 21.15C121.576 21.3407 122.229 21.5607 122.786 21.81C123.358 22.0593 123.791 22.2793 124.084 22.47C124.377 22.646 124.583 22.9027 124.7 23.24C124.832 23.5773 124.847 23.8927 124.744 24.186C124.641 24.5087 124.465 24.7213 124.216 24.824C123.981 24.9267 123.732 24.8607 123.468 24.626C123.131 24.3473 122.749 24.0613 122.324 23.768C121.913 23.46 121.451 23.1887 120.938 22.954C120.835 23.8047 120.491 24.4793 119.904 24.978C119.332 25.4767 118.547 25.748 117.55 25.792ZM109.432 21.744C109.212 21.4947 109.08 21.1867 109.036 20.82C108.992 20.4387 109.08 20.116 109.3 19.852C109.74 19.324 110.195 18.6787 110.664 17.916C111.133 17.1387 111.588 16.3027 112.028 15.408C112.468 14.5133 112.849 13.5967 113.172 12.658C112.82 12.702 112.461 12.724 112.094 12.724C111.243 12.7387 110.62 12.504 110.224 12.02C109.843 11.536 109.659 10.964 109.674 10.304C109.806 10.128 109.953 10.106 110.114 10.238C110.187 10.6487 110.407 10.9347 110.774 11.096C111.155 11.2573 111.581 11.338 112.05 11.338C112.549 11.338 113.077 11.2793 113.634 11.162C113.737 10.7807 113.825 10.414 113.898 10.062C113.971 9.69533 114.023 9.34333 114.052 9.006C114.081 8.72733 114.081 8.522 114.052 8.39C114.023 8.258 113.949 8.14067 113.832 8.038C113.773 7.97933 113.678 7.94267 113.546 7.928C113.414 7.89867 113.304 7.884 113.216 7.884C113.084 7.708 113.099 7.554 113.26 7.422C113.612 7.36333 113.986 7.37067 114.382 7.444C114.793 7.50267 115.13 7.62 115.394 7.796C115.673 7.972 115.863 8.20667 115.966 8.5C116.083 8.77867 116.032 9.02067 115.812 9.226C115.665 9.38733 115.541 9.54867 115.438 9.71C115.35 9.85667 115.277 10.0547 115.218 10.304C115.203 10.3627 115.189 10.436 115.174 10.524C115.159 10.5973 115.137 10.6707 115.108 10.744C115.401 10.6413 115.68 10.5313 115.944 10.414C116.208 10.2967 116.443 10.1793 116.648 10.062C116.78 9.98867 116.949 9.96667 117.154 9.996C117.359 10.0107 117.601 10.106 117.88 10.282C118.144 10.458 118.276 10.6853 118.276 10.964C118.276 11.2427 118.122 11.448 117.814 11.58C117.447 11.7413 116.978 11.9027 116.406 12.064C115.849 12.2253 115.247 12.3647 114.602 12.482C114.353 13.274 114.067 14.1173 113.744 15.012C113.421 15.892 113.084 16.7573 112.732 17.608C112.38 18.444 112.035 19.2067 111.698 19.896C111.361 20.5707 111.06 21.1133 110.796 21.524C110.62 21.788 110.393 21.942 110.114 21.986C109.835 22.0153 109.608 21.9347 109.432 21.744ZM117.462 24.186C117.975 24.1567 118.379 23.9807 118.672 23.658C118.98 23.3207 119.163 22.8733 119.222 22.316C118.606 22.1547 117.961 22.074 117.286 22.074C116.626 22.074 116.127 22.1693 115.79 22.36C115.467 22.536 115.291 22.7853 115.262 23.108C115.233 23.4747 115.409 23.7533 115.79 23.944C116.171 24.1347 116.729 24.2153 117.462 24.186ZM129.1 26.606C129.027 26.5473 128.975 26.474 128.946 26.386C128.931 26.298 128.953 26.2247 129.012 26.166C130.024 25.8873 130.941 25.5353 131.762 25.11C132.583 24.6993 133.287 24.1053 133.874 23.328C134.461 22.5507 134.893 21.502 135.172 20.182H131.718C131.718 20.182 131.527 20.1893 131.146 20.204C130.765 20.204 130.354 20.2333 129.914 20.292L129.694 19.346C130.251 19.434 130.721 19.4853 131.102 19.5C131.498 19.5147 131.696 19.522 131.696 19.522H135.304C135.377 19.0673 135.429 18.576 135.458 18.048C135.502 17.52 135.524 16.9627 135.524 16.376H134.754C134.754 16.376 134.6 16.3833 134.292 16.398C133.999 16.398 133.661 16.4273 133.28 16.486L133.082 15.738C132.407 16.2367 131.733 16.6767 131.058 17.058C130.383 17.4247 129.723 17.74 129.078 18.004C128.873 17.9013 128.821 17.762 128.924 17.586C130.009 16.97 131.058 16.178 132.07 15.21C133.082 14.2273 133.977 13.142 134.754 11.954C135.546 10.7513 136.125 9.52667 136.492 8.28H132.378C132.378 8.28 132.231 8.28733 131.938 8.302C131.659 8.302 131.307 8.33133 130.882 8.39L130.64 7.444C131.168 7.532 131.586 7.58333 131.894 7.598C132.217 7.61267 132.378 7.62 132.378 7.62H136.228C136.375 7.62 136.485 7.576 136.558 7.488C136.631 7.38533 136.719 7.27533 136.822 7.158C136.925 7.04067 137.013 6.94533 137.086 6.872C137.189 6.74 137.313 6.71067 137.46 6.784C137.577 6.828 137.761 6.916 138.01 7.048C138.274 7.18 138.538 7.31933 138.802 7.466C139.081 7.61267 139.301 7.73733 139.462 7.84C139.433 7.752 139.418 7.67867 139.418 7.62C139.462 7.532 139.528 7.48067 139.616 7.466C139.704 7.43667 139.777 7.444 139.836 7.488C139.997 8.016 140.195 8.50733 140.43 8.962C140.665 9.41667 140.929 9.85667 141.222 10.282C141.662 9.754 142.058 9.19667 142.41 8.61C142.777 8.02333 143.011 7.554 143.114 7.202C143.143 7.09933 143.187 7.04067 143.246 7.026C143.334 7.026 143.407 7.048 143.466 7.092C143.613 7.18 143.818 7.31933 144.082 7.51C144.346 7.70067 144.61 7.89867 144.874 8.104C145.153 8.29467 145.365 8.456 145.512 8.588C145.629 8.676 145.644 8.79333 145.556 8.94C145.468 9.072 145.358 9.10867 145.226 9.05C145.05 8.99133 144.911 8.962 144.808 8.962C144.72 8.962 144.617 9.01333 144.5 9.116C144.045 9.43867 143.547 9.754 143.004 10.062C142.461 10.3553 141.999 10.5973 141.618 10.788C141.867 11.1107 142.139 11.4113 142.432 11.69C142.725 11.9687 143.033 12.2327 143.356 12.482C143.708 12.174 144.053 11.8293 144.39 11.448C144.742 11.052 145.043 10.678 145.292 10.326C145.556 9.974 145.725 9.69533 145.798 9.49C145.827 9.38733 145.871 9.336 145.93 9.336C145.989 9.32133 146.055 9.336 146.128 9.38C146.275 9.48267 146.48 9.63667 146.744 9.842C147.023 10.0473 147.294 10.26 147.558 10.48C147.837 10.6853 148.049 10.854 148.196 10.986C148.299 11.0887 148.306 11.2133 148.218 11.36C148.145 11.492 148.035 11.5213 147.888 11.448C147.727 11.3747 147.595 11.338 147.492 11.338C147.404 11.338 147.294 11.382 147.162 11.47C146.707 11.7487 146.187 12.02 145.6 12.284C145.013 12.5333 144.463 12.746 143.95 12.922C144.771 13.494 145.629 13.978 146.524 14.374C147.433 14.77 148.313 15.0927 149.164 15.342C148.665 15.518 148.218 15.8113 147.822 16.222C147.426 16.618 147.14 16.9847 146.964 17.322C145.864 16.7353 144.815 16.0167 143.818 15.166C142.835 14.3007 141.97 13.3033 141.222 12.174C140.474 11.0447 139.924 9.78333 139.572 8.39C139.543 8.434 139.462 8.47067 139.33 8.5C139.11 8.51467 138.956 8.55133 138.868 8.61C138.78 8.654 138.699 8.75667 138.626 8.918C137.981 10.37 137.189 11.6533 136.25 12.768C135.311 13.868 134.321 14.8067 133.28 15.584C133.441 15.6133 133.661 15.6427 133.94 15.672C134.233 15.7013 134.497 15.716 134.732 15.716H140.452C140.613 15.716 140.738 15.6647 140.826 15.562C140.914 15.474 141.053 15.3053 141.244 15.056C141.449 14.8067 141.589 14.638 141.662 14.55C141.779 14.4033 141.933 14.3887 142.124 14.506C142.271 14.5793 142.454 14.6967 142.674 14.858C142.894 15.0193 143.107 15.188 143.312 15.364C143.517 15.54 143.664 15.6867 143.752 15.804C143.869 15.9507 143.906 16.0827 143.862 16.2C143.833 16.3173 143.745 16.376 143.598 16.376H141.684V19.522H144.478C144.654 19.522 144.793 19.4633 144.896 19.346C144.955 19.2727 145.043 19.1627 145.16 19.016C145.277 18.8547 145.395 18.7007 145.512 18.554C145.629 18.3927 145.71 18.2827 145.754 18.224C145.871 18.092 146.025 18.07 146.216 18.158C146.363 18.2313 146.561 18.3633 146.81 18.554C147.059 18.7447 147.301 18.9427 147.536 19.148C147.771 19.3533 147.932 19.5073 148.02 19.61C148.137 19.7273 148.174 19.852 148.13 19.984C148.101 20.116 148.027 20.182 147.91 20.182H141.684V23.922C141.684 24.1273 141.728 24.274 141.816 24.362C141.919 24.45 142.095 24.5013 142.344 24.516C142.593 24.5307 142.916 24.538 143.312 24.538C143.723 24.538 144.133 24.5233 144.544 24.494C144.969 24.4647 145.314 24.4207 145.578 24.362C145.798 24.318 145.967 24.2593 146.084 24.186C146.201 24.098 146.311 23.9367 146.414 23.702C146.473 23.57 146.546 23.3647 146.634 23.086C146.722 22.8073 146.81 22.5067 146.898 22.184C147.001 21.8613 147.089 21.568 147.162 21.304C147.235 21.0253 147.287 20.8347 147.316 20.732C147.507 20.6147 147.661 20.644 147.778 20.82C147.763 20.9227 147.749 21.1133 147.734 21.392C147.719 21.656 147.697 21.9493 147.668 22.272C147.653 22.58 147.639 22.866 147.624 23.13C147.609 23.3793 147.602 23.5407 147.602 23.614C147.602 23.8487 147.697 23.9953 147.888 24.054C148.137 24.142 148.335 24.2593 148.482 24.406C148.643 24.5527 148.724 24.7507 148.724 25C148.724 25.2347 148.629 25.4473 148.438 25.638C148.262 25.8433 147.917 26.0047 147.404 26.122C147.037 26.21 146.568 26.276 145.996 26.32C145.424 26.364 144.83 26.3933 144.214 26.408C143.598 26.4373 143.011 26.4447 142.454 26.43C141.897 26.43 141.442 26.4153 141.09 26.386C140.591 26.3567 140.232 26.232 140.012 26.012C139.807 25.8067 139.704 25.4987 139.704 25.088V20.182H137.174C136.807 21.722 136.228 22.932 135.436 23.812C134.644 24.692 133.705 25.3373 132.62 25.748C131.535 26.1733 130.361 26.4593 129.1 26.606ZM133.5 13.164C133.309 13.2227 133.133 13.2153 132.972 13.142C132.811 13.0687 132.693 12.9073 132.62 12.658C132.429 12.086 132.129 11.5287 131.718 10.986C131.307 10.4287 130.845 9.98867 130.332 9.666C130.303 9.56333 130.31 9.47533 130.354 9.402C130.398 9.314 130.457 9.26267 130.53 9.248C131.439 9.40933 132.239 9.666 132.928 10.018C133.617 10.37 134.05 10.8613 134.226 11.492C134.343 11.9027 134.321 12.262 134.16 12.57C133.999 12.878 133.779 13.076 133.5 13.164ZM137.328 19.522H139.704V16.376H137.592C137.577 17.5493 137.489 18.598 137.328 19.522ZM161.792 26.21C161.029 26.21 160.237 26.2027 159.416 26.188C158.609 26.188 157.861 26.1733 157.172 26.144C156.497 26.1293 155.969 26.1073 155.588 26.078C154.957 26.0047 154.503 25.8433 154.224 25.594C153.96 25.3447 153.828 24.9487 153.828 24.406V14.55C152.977 15.298 152.075 15.958 151.122 16.53C151.034 16.5153 150.968 16.4713 150.924 16.398C150.88 16.3247 150.865 16.244 150.88 16.156C151.716 15.4373 152.486 14.6307 153.19 13.736C153.894 12.8267 154.503 11.9247 155.016 11.03C155.544 10.1207 155.955 9.29933 156.248 8.566C156.556 7.83267 156.732 7.27533 156.776 6.894C156.776 6.77667 156.813 6.70333 156.886 6.674C156.93 6.63 157.003 6.63 157.106 6.674C157.297 6.73267 157.561 6.83533 157.898 6.982C158.25 7.114 158.595 7.25333 158.932 7.4C159.284 7.54667 159.541 7.67133 159.702 7.774C159.819 7.83267 159.863 7.93533 159.834 8.082C159.775 8.22867 159.68 8.29467 159.548 8.28C159.357 8.25067 159.211 8.258 159.108 8.302C159.02 8.33133 158.917 8.434 158.8 8.61C158.741 8.72733 158.668 8.852 158.58 8.984C158.507 9.10133 158.433 9.21867 158.36 9.336H162.012C162.144 9.336 162.254 9.292 162.342 9.204C162.415 9.13067 162.533 9.01333 162.694 8.852C162.855 8.69067 162.987 8.55867 163.09 8.456C163.207 8.33867 163.354 8.324 163.53 8.412C163.691 8.51467 163.904 8.66133 164.168 8.852C164.432 9.028 164.696 9.21867 164.96 9.424C165.239 9.61467 165.451 9.776 165.598 9.908C165.701 9.98133 165.752 10.0767 165.752 10.194C165.767 10.2967 165.737 10.3773 165.664 10.436C165.473 10.568 165.268 10.6487 165.048 10.678C164.74 10.722 164.403 10.8393 164.036 11.03C163.816 11.162 163.53 11.36 163.178 11.624C162.841 11.888 162.489 12.174 162.122 12.482C161.77 12.79 161.447 13.076 161.154 13.34H165.774C165.891 13.34 165.979 13.296 166.038 13.208C166.111 13.1347 166.199 13.0247 166.302 12.878C166.405 12.7167 166.5 12.5847 166.588 12.482C166.691 12.35 166.823 12.328 166.984 12.416C167.145 12.4893 167.343 12.5993 167.578 12.746C167.827 12.878 168.077 13.0173 168.326 13.164C168.575 13.296 168.766 13.4133 168.898 13.516C168.986 13.5893 169.023 13.6847 169.008 13.802C169.008 13.9193 168.949 14.0073 168.832 14.066C168.744 14.0953 168.663 14.1247 168.59 14.154C168.531 14.1833 168.465 14.22 168.392 14.264C168.216 14.352 168.128 14.55 168.128 14.858C168.128 15.166 168.135 15.5547 168.15 16.024C168.165 16.4787 168.179 16.948 168.194 17.432C168.223 17.9013 168.245 18.3193 168.26 18.686C168.275 19.038 168.282 19.2653 168.282 19.368C168.282 19.5587 168.099 19.72 167.732 19.852C167.365 19.984 166.984 20.05 166.588 20.05C166.251 20.05 166.082 19.9033 166.082 19.61V18.95H155.786V23.46C155.786 23.7093 155.837 23.8853 155.94 23.988C156.057 24.076 156.233 24.142 156.468 24.186C156.732 24.23 157.135 24.2667 157.678 24.296C158.221 24.3253 158.851 24.34 159.57 24.34C160.303 24.34 161.059 24.34 161.836 24.34C162.657 24.3253 163.442 24.3033 164.19 24.274C164.953 24.23 165.627 24.1787 166.214 24.12C166.801 24.0467 167.233 23.9733 167.512 23.9C167.761 23.8267 167.945 23.7387 168.062 23.636C168.179 23.5187 168.282 23.3573 168.37 23.152C168.429 23.02 168.502 22.8 168.59 22.492C168.693 22.184 168.795 21.854 168.898 21.502C169.001 21.1353 169.089 20.8053 169.162 20.512C169.25 20.2187 169.309 20.0207 169.338 19.918C169.514 19.8007 169.668 19.8227 169.8 19.984C169.785 20.1013 169.771 20.2993 169.756 20.578C169.741 20.8567 169.727 21.1647 169.712 21.502C169.697 21.8247 169.683 22.1253 169.668 22.404C169.668 22.6827 169.668 22.8733 169.668 22.976C169.653 23.2547 169.749 23.4307 169.954 23.504C170.233 23.5773 170.46 23.702 170.636 23.878C170.812 24.0393 170.9 24.252 170.9 24.516C170.9 24.7947 170.79 25.0293 170.57 25.22C170.365 25.4107 170.005 25.5647 169.492 25.682C169.023 25.7993 168.392 25.8947 167.6 25.968C166.808 26.0413 165.913 26.0927 164.916 26.122C163.919 26.166 162.877 26.1953 161.792 26.21ZM155.786 18.268H159.944V14.022H155.786V18.268ZM161.924 18.268H166.082V14.022H161.924V18.268ZM156.006 13.34H160.406C160.494 13.164 160.619 12.922 160.78 12.614C160.941 12.306 161.11 11.9833 161.286 11.646C161.477 11.294 161.645 10.9713 161.792 10.678C161.953 10.37 162.071 10.1427 162.144 9.996H157.92C157.553 10.524 157.165 11.0447 156.754 11.558C156.343 12.0713 155.903 12.5627 155.434 13.032C155.551 13.0907 155.654 13.1493 155.742 13.208C155.83 13.252 155.918 13.296 156.006 13.34ZM205.792 26.21C205.029 26.21 204.237 26.2027 203.416 26.188C202.609 26.188 201.861 26.1733 201.172 26.144C200.497 26.1293 199.969 26.1073 199.588 26.078C198.957 26.0047 198.503 25.8433 198.224 25.594C197.96 25.3447 197.828 24.9487 197.828 24.406V14.55C196.977 15.298 196.075 15.958 195.122 16.53C195.034 16.5153 194.968 16.4713 194.924 16.398C194.88 16.3247 194.865 16.244 194.88 16.156C195.716 15.4373 196.486 14.6307 197.19 13.736C197.894 12.8267 198.503 11.9247 199.016 11.03C199.544 10.1207 199.955 9.29933 200.248 8.566C200.556 7.83267 200.732 7.27533 200.776 6.894C200.776 6.77667 200.813 6.70333 200.886 6.674C200.93 6.63 201.003 6.63 201.106 6.674C201.297 6.73267 201.561 6.83533 201.898 6.982C202.25 7.114 202.595 7.25333 202.932 7.4C203.284 7.54667 203.541 7.67133 203.702 7.774C203.819 7.83267 203.863 7.93533 203.834 8.082C203.775 8.22867 203.68 8.29467 203.548 8.28C203.357 8.25067 203.211 8.258 203.108 8.302C203.02 8.33133 202.917 8.434 202.8 8.61C202.741 8.72733 202.668 8.852 202.58 8.984C202.507 9.10133 202.433 9.21867 202.36 9.336H206.012C206.144 9.336 206.254 9.292 206.342 9.204C206.415 9.13067 206.533 9.01333 206.694 8.852C206.855 8.69067 206.987 8.55867 207.09 8.456C207.207 8.33867 207.354 8.324 207.53 8.412C207.691 8.51467 207.904 8.66133 208.168 8.852C208.432 9.028 208.696 9.21867 208.96 9.424C209.239 9.61467 209.451 9.776 209.598 9.908C209.701 9.98133 209.752 10.0767 209.752 10.194C209.767 10.2967 209.737 10.3773 209.664 10.436C209.473 10.568 209.268 10.6487 209.048 10.678C208.74 10.722 208.403 10.8393 208.036 11.03C207.816 11.162 207.53 11.36 207.178 11.624C206.841 11.888 206.489 12.174 206.122 12.482C205.77 12.79 205.447 13.076 205.154 13.34H209.774C209.891 13.34 209.979 13.296 210.038 13.208C210.111 13.1347 210.199 13.0247 210.302 12.878C210.405 12.7167 210.5 12.5847 210.588 12.482C210.691 12.35 210.823 12.328 210.984 12.416C211.145 12.4893 211.343 12.5993 211.578 12.746C211.827 12.878 212.077 13.0173 212.326 13.164C212.575 13.296 212.766 13.4133 212.898 13.516C212.986 13.5893 213.023 13.6847 213.008 13.802C213.008 13.9193 212.949 14.0073 212.832 14.066C212.744 14.0953 212.663 14.1247 212.59 14.154C212.531 14.1833 212.465 14.22 212.392 14.264C212.216 14.352 212.128 14.55 212.128 14.858C212.128 15.166 212.135 15.5547 212.15 16.024C212.165 16.4787 212.179 16.948 212.194 17.432C212.223 17.9013 212.245 18.3193 212.26 18.686C212.275 19.038 212.282 19.2653 212.282 19.368C212.282 19.5587 212.099 19.72 211.732 19.852C211.365 19.984 210.984 20.05 210.588 20.05C210.251 20.05 210.082 19.9033 210.082 19.61V18.95H199.786V23.46C199.786 23.7093 199.837 23.8853 199.94 23.988C200.057 24.076 200.233 24.142 200.468 24.186C200.732 24.23 201.135 24.2667 201.678 24.296C202.221 24.3253 202.851 24.34 203.57 24.34C204.303 24.34 205.059 24.34 205.836 24.34C206.657 24.3253 207.442 24.3033 208.19 24.274C208.953 24.23 209.627 24.1787 210.214 24.12C210.801 24.0467 211.233 23.9733 211.512 23.9C211.761 23.8267 211.945 23.7387 212.062 23.636C212.179 23.5187 212.282 23.3573 212.37 23.152C212.429 23.02 212.502 22.8 212.59 22.492C212.693 22.184 212.795 21.854 212.898 21.502C213.001 21.1353 213.089 20.8053 213.162 20.512C213.25 20.2187 213.309 20.0207 213.338 19.918C213.514 19.8007 213.668 19.8227 213.8 19.984C213.785 20.1013 213.771 20.2993 213.756 20.578C213.741 20.8567 213.727 21.1647 213.712 21.502C213.697 21.8247 213.683 22.1253 213.668 22.404C213.668 22.6827 213.668 22.8733 213.668 22.976C213.653 23.2547 213.749 23.4307 213.954 23.504C214.233 23.5773 214.46 23.702 214.636 23.878C214.812 24.0393 214.9 24.252 214.9 24.516C214.9 24.7947 214.79 25.0293 214.57 25.22C214.365 25.4107 214.005 25.5647 213.492 25.682C213.023 25.7993 212.392 25.8947 211.6 25.968C210.808 26.0413 209.913 26.0927 208.916 26.122C207.919 26.166 206.877 26.1953 205.792 26.21ZM199.786 18.268H203.944V14.022H199.786V18.268ZM205.924 18.268H210.082V14.022H205.924V18.268ZM200.006 13.34H204.406C204.494 13.164 204.619 12.922 204.78 12.614C204.941 12.306 205.11 11.9833 205.286 11.646C205.477 11.294 205.645 10.9713 205.792 10.678C205.953 10.37 206.071 10.1427 206.144 9.996H201.92C201.553 10.524 201.165 11.0447 200.754 11.558C200.343 12.0713 199.903 12.5627 199.434 13.032C199.551 13.0907 199.654 13.1493 199.742 13.208C199.83 13.252 199.918 13.296 200.006 13.34ZM219.762 26.694C219.601 26.7527 219.476 26.716 219.388 26.584C219.271 26.408 219.109 26.1367 218.904 25.77C218.699 25.418 218.493 25.0587 218.288 24.692C218.097 24.3253 217.951 24.0467 217.848 23.856C217.789 23.7533 217.782 23.68 217.826 23.636C217.87 23.5773 217.943 23.548 218.046 23.548C218.075 23.548 218.127 23.548 218.2 23.548C218.288 23.548 218.391 23.548 218.508 23.548C218.625 23.548 218.75 23.5407 218.882 23.526C219.219 23.4967 219.579 23.4673 219.96 23.438C220.341 23.394 220.737 23.3427 221.148 23.284V17.366H219.058C219.058 17.366 218.867 17.3733 218.486 17.388C218.105 17.388 217.701 17.4173 217.276 17.476L217.056 16.53C217.599 16.618 218.068 16.6693 218.464 16.684C218.86 16.6987 219.058 16.706 219.058 16.706H221.148V10.7C221.148 9.83467 221.119 9.13067 221.06 8.588C221.016 8.04533 220.95 7.65667 220.862 7.422C220.833 7.31933 220.847 7.246 220.906 7.202C220.965 7.14333 221.045 7.136 221.148 7.18C221.324 7.23867 221.551 7.34133 221.83 7.488C222.123 7.62 222.417 7.75933 222.71 7.906C223.018 8.05267 223.275 8.17733 223.48 8.28H231.202C231.378 8.28 231.51 8.22867 231.598 8.126C231.657 8.05267 231.752 7.94267 231.884 7.796C232.016 7.63467 232.148 7.48067 232.28 7.334C232.427 7.17267 232.522 7.06267 232.566 7.004C232.713 6.85733 232.874 6.83533 233.05 6.938C233.197 7.01133 233.387 7.14333 233.622 7.334C233.871 7.52467 234.106 7.71533 234.326 7.906C234.561 8.09667 234.729 8.24333 234.832 8.346C234.949 8.478 234.986 8.61 234.942 8.742C234.898 8.874 234.817 8.94 234.7 8.94H223.194V11.074H229.772C229.919 11.074 230.043 11.0227 230.146 10.92C230.205 10.8467 230.293 10.744 230.41 10.612C230.527 10.4653 230.637 10.3187 230.74 10.172C230.857 10.0253 230.938 9.93 230.982 9.886C231.114 9.754 231.268 9.732 231.444 9.82C231.591 9.89333 231.774 10.018 231.994 10.194C232.229 10.37 232.456 10.5533 232.676 10.744C232.896 10.92 233.05 11.0593 233.138 11.162C233.255 11.294 233.292 11.426 233.248 11.558C233.204 11.6753 233.116 11.734 232.984 11.734H223.194V13.868H229.772C229.933 13.868 230.058 13.8167 230.146 13.714C230.205 13.6553 230.293 13.56 230.41 13.428C230.527 13.2813 230.637 13.1347 230.74 12.988C230.857 12.8413 230.938 12.7387 230.982 12.68C231.114 12.548 231.268 12.526 231.444 12.614C231.591 12.6873 231.774 12.812 231.994 12.988C232.229 13.164 232.456 13.3473 232.676 13.538C232.896 13.714 233.05 13.8533 233.138 13.956C233.255 14.088 233.292 14.22 233.248 14.352C233.204 14.4693 233.116 14.528 232.984 14.528H223.194V16.706H233.094C233.255 16.706 233.387 16.6473 233.49 16.53C233.549 16.4567 233.644 16.3467 233.776 16.2C233.923 16.0387 234.062 15.8773 234.194 15.716C234.341 15.5547 234.436 15.4447 234.48 15.386C234.612 15.254 234.773 15.232 234.964 15.32C235.125 15.3933 235.331 15.5327 235.58 15.738C235.829 15.9287 236.071 16.1267 236.306 16.332C236.555 16.5227 236.724 16.6693 236.812 16.772C236.944 16.904 236.988 17.036 236.944 17.168C236.9 17.3 236.819 17.366 236.702 17.366H226.736C226.941 18.2167 227.257 18.9647 227.682 19.61C228.107 20.2407 228.606 20.7907 229.178 21.26C229.574 20.9227 229.963 20.534 230.344 20.094C230.74 19.6393 231.077 19.2067 231.356 18.796C231.649 18.3707 231.833 18.0407 231.906 17.806C231.935 17.7327 231.972 17.6813 232.016 17.652C232.06 17.6227 232.133 17.63 232.236 17.674C232.427 17.7767 232.676 17.9233 232.984 18.114C233.307 18.3047 233.615 18.4953 233.908 18.686C234.216 18.862 234.451 19.0013 234.612 19.104C234.729 19.192 234.766 19.3093 234.722 19.456C234.663 19.6027 234.553 19.6613 234.392 19.632C234.231 19.588 234.084 19.5733 233.952 19.588C233.82 19.588 233.651 19.6467 233.446 19.764C232.859 20.1013 232.221 20.4313 231.532 20.754C230.857 21.0767 230.234 21.3627 229.662 21.612C230.381 22.1107 231.165 22.514 232.016 22.822C232.881 23.13 233.761 23.3573 234.656 23.504C235.551 23.6507 236.416 23.746 237.252 23.79C236.724 24.0687 236.255 24.45 235.844 24.934C235.448 25.4033 235.169 25.8433 235.008 26.254C234.084 25.9607 233.145 25.5867 232.192 25.132C231.253 24.6773 230.366 24.1053 229.53 23.416C228.694 22.7267 227.968 21.8907 227.352 20.908C226.751 19.9107 226.325 18.73 226.076 17.366H223.194V23.02C224.133 22.9027 225.027 22.778 225.878 22.646C226.743 22.514 227.425 22.404 227.924 22.316C228.115 22.3893 228.159 22.5287 228.056 22.734C227.733 22.866 227.315 23.0347 226.802 23.24C226.289 23.4453 225.724 23.6727 225.108 23.922C224.507 24.1567 223.898 24.3913 223.282 24.626C222.681 24.846 222.116 25.0513 221.588 25.242C221.06 25.4473 220.627 25.6087 220.29 25.726C220.114 25.7847 219.997 25.858 219.938 25.946C219.879 26.034 219.872 26.166 219.916 26.342C219.96 26.4887 219.909 26.606 219.762 26.694ZM252.696 26.584C252.549 26.0267 252.381 25.594 252.19 25.286C251.999 24.978 251.743 24.7507 251.42 24.604C251.097 24.4427 250.643 24.3253 250.056 24.252C249.997 24.1787 249.975 24.098 249.99 24.01C250.019 23.922 250.063 23.856 250.122 23.812C250.239 23.812 250.467 23.8193 250.804 23.834C251.156 23.834 251.523 23.8413 251.904 23.856C252.3 23.856 252.615 23.856 252.85 23.856C253.261 23.856 253.466 23.6727 253.466 23.306V18.466C252.953 18.466 252.447 18.466 251.948 18.466C251.449 18.466 250.98 18.466 250.54 18.466C249.807 18.466 249.183 18.466 248.67 18.466C248.157 18.466 247.863 18.466 247.79 18.466C247.79 18.466 247.599 18.4733 247.218 18.488C246.837 18.488 246.433 18.5173 246.008 18.576L245.788 17.608C246.331 17.696 246.8 17.7473 247.196 17.762C247.592 17.7767 247.79 17.784 247.79 17.784H253.466V14.616H247.46C247.46 14.616 247.269 14.6233 246.888 14.638C246.521 14.638 246.118 14.6673 245.678 14.726L245.458 13.78C246.001 13.868 246.47 13.9193 246.866 13.934C247.262 13.9487 247.46 13.956 247.46 13.956H250.672V10.656H249.176C249.176 10.656 248.985 10.6633 248.604 10.678C248.223 10.678 247.812 10.7073 247.372 10.766L247.152 9.82C247.695 9.908 248.164 9.95933 248.56 9.974C248.956 9.98867 249.154 9.996 249.154 9.996H250.672V8.412C250.672 7.67867 250.613 7.20933 250.496 7.004C250.452 6.93067 250.452 6.85 250.496 6.762C250.54 6.70333 250.613 6.68133 250.716 6.696C250.892 6.71067 251.156 6.74733 251.508 6.806C251.86 6.85 252.205 6.90133 252.542 6.96C252.894 7.01867 253.158 7.07 253.334 7.114C253.481 7.14333 253.554 7.25333 253.554 7.444C253.539 7.62 253.444 7.708 253.268 7.708C253.121 7.72267 252.989 7.75933 252.872 7.818C252.755 7.87667 252.696 8.00133 252.696 8.192V9.996H254.632C254.808 9.996 254.933 9.94467 255.006 9.842C255.109 9.72467 255.241 9.556 255.402 9.336C255.578 9.116 255.71 8.95467 255.798 8.852C255.93 8.70533 256.084 8.698 256.26 8.83C256.392 8.918 256.561 9.05 256.766 9.226C256.971 9.38733 257.169 9.54867 257.36 9.71C257.551 9.87133 257.697 10.0033 257.8 10.106C257.917 10.2087 257.954 10.326 257.91 10.458C257.866 10.59 257.785 10.656 257.668 10.656H252.696V13.956H255.424C255.6 13.956 255.732 13.9047 255.82 13.802C255.879 13.7287 255.967 13.6113 256.084 13.45C256.216 13.274 256.348 13.1053 256.48 12.944C256.612 12.768 256.707 12.6507 256.766 12.592C256.898 12.4453 257.052 12.4233 257.228 12.526C257.375 12.614 257.565 12.768 257.8 12.988C258.049 13.1933 258.284 13.3987 258.504 13.604C258.739 13.8093 258.9 13.9633 258.988 14.066C259.091 14.1687 259.12 14.286 259.076 14.418C259.047 14.55 258.973 14.616 258.856 14.616H255.424V17.784H255.71C255.857 17.784 255.974 17.7327 256.062 17.63L256.942 16.53C257.089 16.3687 257.257 16.354 257.448 16.486C257.58 16.574 257.741 16.7133 257.932 16.904C258.137 17.08 258.335 17.256 258.526 17.432C258.731 17.608 258.885 17.7547 258.988 17.872C259.091 17.9893 259.12 18.1213 259.076 18.268C259.047 18.4 258.973 18.466 258.856 18.466H255.424V18.84C255.424 20.0133 255.439 21.0547 255.468 21.964C255.512 22.8733 255.534 23.4747 255.534 23.768C255.534 24.2667 255.453 24.6993 255.292 25.066C255.145 25.4473 254.867 25.7627 254.456 26.012C254.045 26.2613 253.459 26.452 252.696 26.584ZM241.696 26.606C241.564 26.0633 241.41 25.638 241.234 25.33C241.073 25.0367 240.853 24.824 240.574 24.692C240.31 24.5453 239.943 24.4427 239.474 24.384C239.342 24.1933 239.364 24.0467 239.54 23.944C239.716 23.9587 240.024 23.9733 240.464 23.988C240.919 23.988 241.329 23.988 241.696 23.988C241.931 23.988 242.085 23.9513 242.158 23.878C242.246 23.8047 242.29 23.6727 242.29 23.482V18.884C242.011 19.0453 241.747 19.1993 241.498 19.346C241.249 19.4927 241.043 19.6173 240.882 19.72C240.735 19.808 240.647 19.896 240.618 19.984C240.603 20.072 240.618 20.1893 240.662 20.336C240.691 20.4827 240.64 20.5853 240.508 20.644C240.376 20.7027 240.273 20.6733 240.2 20.556C240.141 20.4387 240.024 20.2187 239.848 19.896C239.672 19.5733 239.496 19.2433 239.32 18.906C239.144 18.5687 239.012 18.3193 238.924 18.158C238.88 18.0847 238.88 18.0187 238.924 17.96C238.939 17.9307 239.012 17.9013 239.144 17.872C239.305 17.8427 239.518 17.7987 239.782 17.74C240.105 17.6667 240.479 17.564 240.904 17.432C241.344 17.2853 241.806 17.1387 242.29 16.992V11.822H240.706C240.706 11.822 240.559 11.8293 240.266 11.844C239.987 11.844 239.672 11.8733 239.32 11.932L239.1 10.986C239.525 11.074 239.892 11.1253 240.2 11.14C240.523 11.1547 240.684 11.162 240.684 11.162H242.29V8.104C242.29 7.56133 242.239 7.202 242.136 7.026C242.077 6.938 242.07 6.85733 242.114 6.784C242.173 6.71067 242.246 6.68133 242.334 6.696C242.51 6.71067 242.752 6.74733 243.06 6.806C243.383 6.85 243.705 6.90133 244.028 6.96C244.351 7.01867 244.6 7.07 244.776 7.114C244.952 7.158 245.025 7.26067 244.996 7.422C244.981 7.58333 244.886 7.67867 244.71 7.708C244.563 7.72267 244.431 7.75933 244.314 7.818C244.211 7.87667 244.16 8.00133 244.16 8.192V11.162H244.732C244.864 11.162 244.959 11.118 245.018 11.03L245.7 10.106C245.817 9.94467 245.964 9.93 246.14 10.062C246.243 10.1207 246.382 10.238 246.558 10.414C246.749 10.5753 246.932 10.744 247.108 10.92C247.299 11.0813 247.438 11.206 247.526 11.294C247.629 11.3967 247.665 11.514 247.636 11.646C247.607 11.7633 247.533 11.822 247.416 11.822H244.16V16.376C244.82 16.1413 245.429 15.9213 245.986 15.716C246.558 15.5107 246.998 15.342 247.306 15.21C247.511 15.2687 247.577 15.408 247.504 15.628C247.167 15.8333 246.69 16.1267 246.074 16.508C245.473 16.8893 244.835 17.2927 244.16 17.718C244.16 18.29 244.167 18.906 244.182 19.566C244.197 20.226 244.204 20.864 244.204 21.48C244.219 22.096 244.233 22.624 244.248 23.064C244.263 23.504 244.27 23.79 244.27 23.922C244.27 24.6113 244.094 25.176 243.742 25.616C243.405 26.056 242.723 26.386 241.696 26.606ZM250.474 22.91C250.254 22.998 250.034 23.0127 249.814 22.954C249.609 22.8953 249.469 22.734 249.396 22.47C249.205 21.7807 248.941 21.15 248.604 20.578C248.267 20.006 247.827 19.5293 247.284 19.148C247.24 18.928 247.313 18.796 247.504 18.752C248.076 18.8547 248.619 19.016 249.132 19.236C249.66 19.456 250.1 19.7347 250.452 20.072C250.819 20.4093 251.053 20.82 251.156 21.304C251.244 21.6853 251.215 22.0227 251.068 22.316C250.921 22.6093 250.723 22.8073 250.474 22.91ZM268.162 25.902C268.074 25.8287 268.023 25.7333 268.008 25.616C268.008 25.5133 268.045 25.4253 268.118 25.352C268.983 25.2347 269.849 25.0807 270.714 24.89C271.579 24.6847 272.371 24.406 273.09 24.054C273.809 23.702 274.403 23.2473 274.872 22.69C275.341 22.1327 275.62 21.4433 275.708 20.622C275.825 19.6247 275.627 18.8107 275.114 18.18C274.601 17.5347 273.882 17.2193 272.958 17.234C272.371 17.234 271.807 17.366 271.264 17.63C270.721 17.8793 270.259 18.2167 269.878 18.642C269.511 19.0673 269.277 19.544 269.174 20.072C269.071 20.6 268.807 20.9227 268.382 21.04C267.957 21.1427 267.553 21.0253 267.172 20.688C266.864 20.4387 266.644 20.1453 266.512 19.808C266.395 19.456 266.343 19.0013 266.358 18.444C266.387 18.0187 266.446 17.4907 266.534 16.86C266.637 16.2293 266.761 15.5547 266.908 14.836C267.055 14.1027 267.194 13.3693 267.326 12.636C267.077 12.6213 266.827 12.5993 266.578 12.57C266.329 12.5407 266.094 12.5113 265.874 12.482C264.231 12.218 263.447 11.3013 263.52 9.732C263.681 9.57067 263.835 9.56333 263.982 9.71C264.026 10.106 264.239 10.4067 264.62 10.612C265.001 10.8027 265.427 10.9347 265.896 11.008C266.468 11.0667 267.033 11.1107 267.59 11.14C267.649 10.788 267.7 10.4507 267.744 10.128C267.788 9.80533 267.817 9.50467 267.832 9.226C267.861 8.962 267.847 8.764 267.788 8.632C267.744 8.5 267.649 8.40467 267.502 8.346C267.414 8.31667 267.282 8.302 267.106 8.302C266.945 8.302 266.813 8.30933 266.71 8.324C266.563 8.17733 266.549 8.03067 266.666 7.884C266.974 7.752 267.333 7.67867 267.744 7.664C268.155 7.63467 268.529 7.67133 268.866 7.774C269.203 7.87667 269.475 8.04533 269.68 8.28C269.9 8.5 269.981 8.742 269.922 9.006C270.127 9.12333 270.377 9.27 270.67 9.446C270.963 9.622 271.257 9.776 271.55 9.908C271.858 10.04 272.115 10.1207 272.32 10.15C272.599 10.1647 272.841 10.216 273.046 10.304C273.266 10.3773 273.449 10.4947 273.596 10.656C273.801 10.8907 273.845 11.14 273.728 11.404C273.611 11.668 273.376 11.8587 273.024 11.976C272.423 12.1667 271.741 12.3207 270.978 12.438C270.23 12.5553 269.467 12.6287 268.69 12.658C268.543 13.362 268.411 14.0807 268.294 14.814C268.191 15.5327 268.118 16.178 268.074 16.75C268.045 17.322 268.059 17.7327 268.118 17.982C268.162 18.1433 268.243 18.246 268.36 18.29C268.492 18.334 268.631 18.29 268.778 18.158C269.277 17.7033 269.885 17.2633 270.604 16.838C271.323 16.398 272.159 16.1707 273.112 16.156C273.992 16.1267 274.806 16.2807 275.554 16.618C276.317 16.9553 276.918 17.454 277.358 18.114C277.798 18.774 277.981 19.6027 277.908 20.6C277.849 21.656 277.519 22.5213 276.918 23.196C276.331 23.8707 275.561 24.3987 274.608 24.78C273.669 25.1613 272.643 25.4327 271.528 25.594C270.413 25.77 269.291 25.8727 268.162 25.902ZM269.042 11.118C269.746 11.0447 270.303 10.9347 270.714 10.788C270.831 10.7587 270.897 10.7 270.912 10.612C270.941 10.524 270.905 10.4287 270.802 10.326C270.699 10.2087 270.531 10.062 270.296 9.886C270.076 9.71 269.878 9.556 269.702 9.424C269.497 9.688 269.277 10.2527 269.042 11.118Z" fill="#FFFAD7"/>
<path d="M187.818 25.022C186.337 25.154 185.024 25.0367 183.88 24.67C182.751 24.3033 181.856 23.658 181.196 22.734C180.536 21.7953 180.191 20.5487 180.162 18.994C180.147 17.8647 180.301 16.816 180.624 15.848C180.961 14.88 181.409 14.0147 181.966 13.252C182.538 12.4893 183.161 11.8513 183.836 11.338C182.751 11.5287 181.768 11.7633 180.888 12.042C180.008 12.3207 179.143 12.636 178.292 12.988C177.999 13.12 177.713 13.2593 177.434 13.406C177.155 13.538 176.891 13.6113 176.642 13.626C176.143 13.6553 175.725 13.5527 175.388 13.318C175.065 13.0687 174.809 12.746 174.618 12.35C174.442 11.954 174.317 11.536 174.244 11.096C174.361 10.9053 174.508 10.8613 174.684 10.964C174.816 11.2133 175.029 11.3893 175.322 11.492C175.615 11.5947 175.989 11.6387 176.444 11.624C176.825 11.6093 177.339 11.5507 177.984 11.448C178.629 11.3453 179.355 11.206 180.162 11.03C180.983 10.854 181.841 10.6707 182.736 10.48C183.631 10.2747 184.511 10.0767 185.376 9.886C186.256 9.68067 187.077 9.49733 187.84 9.336C188.236 9.204 188.625 9.12333 189.006 9.094C189.402 9.06467 189.761 9.15267 190.084 9.358C190.48 9.60733 190.737 9.886 190.854 10.194C190.986 10.502 190.986 10.7587 190.854 10.964C190.722 11.1693 190.465 11.25 190.084 11.206C190.025 11.206 189.945 11.1987 189.842 11.184C189.285 11.1107 188.691 11.052 188.06 11.008C187.444 10.9493 186.835 10.9713 186.234 11.074C185.633 11.162 185.09 11.382 184.606 11.734C183.462 12.5407 182.699 13.5673 182.318 14.814C181.937 16.0607 181.768 17.432 181.812 18.928C181.856 20.3947 182.347 21.4727 183.286 22.162C184.225 22.8367 185.515 23.1007 187.158 22.954C187.334 22.9393 187.503 22.9393 187.664 22.954C187.825 22.9687 187.979 23.0273 188.126 23.13C188.742 23.5553 188.999 23.966 188.896 24.362C188.793 24.7433 188.434 24.9633 187.818 25.022ZM189.446 17.432C189.299 17.4613 189.153 17.4393 189.006 17.366C188.859 17.2927 188.749 17.1387 188.676 16.904C188.515 16.3467 188.287 15.8113 187.994 15.298C187.701 14.77 187.327 14.3153 186.872 13.934C186.857 13.846 186.872 13.7727 186.916 13.714C186.975 13.6407 187.048 13.5967 187.136 13.582C187.561 13.6993 187.979 13.89 188.39 14.154C188.801 14.418 189.153 14.7187 189.446 15.056C189.754 15.3933 189.945 15.738 190.018 16.09C190.106 16.4567 190.084 16.7647 189.952 17.014C189.82 17.2633 189.651 17.4027 189.446 17.432ZM191.954 15.65C191.807 15.7087 191.653 15.7233 191.492 15.694C191.331 15.65 191.191 15.518 191.074 15.298C190.795 14.7993 190.465 14.352 190.084 13.956C189.703 13.5453 189.233 13.186 188.676 12.878C188.603 12.6727 188.661 12.5407 188.852 12.482C189.263 12.5407 189.695 12.6507 190.15 12.812C190.605 12.9733 191.015 13.1787 191.382 13.428C191.763 13.6627 192.027 13.934 192.174 14.242C192.335 14.55 192.379 14.8433 192.306 15.122C192.247 15.4007 192.13 15.5767 191.954 15.65Z" fill="white"/>
<path d="M34 10.6328L23.7812 19.3916L18.8379 14.4482L17.0195 16.2666L23.6465 22.8945L34 14.0186V25H16V7H34V10.6328Z" fill="white"/>
<defs>
<filter id="filter0_n_748_5230" x="0" y="0" width="306" height="32" filterUnits="userSpaceOnUse" color-interpolation-filters="sRGB">
<feFlood flood-opacity="0" result="BackgroundImageFix"/>
<feBlend mode="normal" in="SourceGraphic" in2="BackgroundImageFix" result="shape"/>
<feTurbulence type="fractalNoise" baseFrequency="2 2" stitchTiles="stitch" numOctaves="3" result="noise" seed="6640" />
<feColorMatrix in="noise" type="luminanceToAlpha" result="alphaNoise" />
<feComponentTransfer in="alphaNoise" result="coloredNoise1">
<feFuncA type="discrete" tableValues="1 1 1 1 1 1 1 1 1 1 1 1 1 1 1 1 1 1 1 1 1 1 1 1 1 1 1 1 1 1 1 1 1 1 1 1 1 1 1 1 1 1 1 1 1 1 1 1 1 1 1 0 0 0 0 0 0 0 0 0 0 0 0 0 0 0 0 0 0 0 0 0 0 0 0 0 0 0 0 0 0 0 0 0 0 0 0 0 0 0 0 0 0 0 0 0 0 0 0 0 "/>
</feComponentTransfer>
<feComposite operator="in" in2="shape" in="coloredNoise1" result="noise1Clipped" />
<feFlood flood-color="rgba(0, 0, 0, 0.2)" result="color1Flood" />
<feComposite operator="in" in2="noise1Clipped" in="color1Flood" result="color1" />
<feMerge result="effect1_noise_748_5230">
<feMergeNode in="shape" />
<feMergeNode in="color1" />
</feMerge>
</filter>
</defs>
</svg>
