<svg width="262" height="32" viewBox="0 0 262 32" fill="none" xmlns="http://www.w3.org/2000/svg">
<g filter="url(#filter0_n_748_5223)">
<rect width="262" height="32" fill="#414245"/>
</g>
<path d="M43.19 26.606C42.8527 26.606 42.684 26.4593 42.684 26.166C42.684 26.122 42.684 25.8947 42.684 25.484C42.6987 25.088 42.7133 24.5673 42.728 23.922C42.7573 23.262 42.7793 22.536 42.794 21.744C42.8087 20.9373 42.816 20.116 42.816 19.28C42.8307 18.4293 42.838 17.608 42.838 16.816V14.968C42.838 14.3373 42.7793 13.9267 42.662 13.736C42.618 13.648 42.618 13.5673 42.662 13.494C42.7207 13.4207 42.794 13.3913 42.882 13.406C43.058 13.4207 43.3073 13.45 43.63 13.494C43.9527 13.538 44.2753 13.5893 44.598 13.648C44.9207 13.7067 45.17 13.758 45.346 13.802C45.522 13.846 45.5953 13.956 45.566 14.132C45.5513 14.2933 45.456 14.3887 45.28 14.418C45.1333 14.4327 45.0013 14.4693 44.884 14.528C44.7813 14.5867 44.73 14.704 44.73 14.88V24.582H57.314V15.012C57.314 14.6747 57.2993 14.4033 57.27 14.198C57.2407 13.9927 57.1967 13.8387 57.138 13.736C57.094 13.648 57.094 13.56 57.138 13.472C57.1967 13.4133 57.27 13.3913 57.358 13.406C57.534 13.4207 57.7833 13.4573 58.106 13.516C58.4433 13.56 58.7733 13.6113 59.096 13.67C59.4333 13.714 59.69 13.758 59.866 13.802C60.0273 13.846 60.0933 13.956 60.064 14.132C60.0493 14.2933 59.954 14.3887 59.778 14.418C59.602 14.4327 59.4627 14.4693 59.36 14.528C59.272 14.5867 59.228 14.6967 59.228 14.858V16.09C59.228 17.1607 59.2353 18.2533 59.25 19.368C59.2647 20.468 59.2867 21.4873 59.316 22.426C59.3453 23.3647 59.3673 24.1347 59.382 24.736C59.3967 25.3227 59.404 25.6453 59.404 25.704C59.404 25.8653 59.2427 26.012 58.92 26.144C58.5973 26.2907 58.2307 26.364 57.82 26.364C57.4827 26.364 57.314 26.2173 57.314 25.924V25.264H44.73V25.946C44.73 26.122 44.5687 26.276 44.246 26.408C43.9233 26.54 43.5713 26.606 43.19 26.606ZM50.45 24.274C50.1127 24.274 49.944 24.1273 49.944 23.834C49.944 23.7753 49.944 23.6067 49.944 23.328C49.9587 23.0493 49.9733 22.7193 49.988 22.338C50.0027 21.9567 50.01 21.568 50.01 21.172C50.0247 20.776 50.032 20.424 50.032 20.116C49.284 20.9227 48.4847 21.6267 47.634 22.228C46.7833 22.8293 45.9327 23.328 45.082 23.724C44.862 23.68 44.7887 23.548 44.862 23.328C45.6393 22.7707 46.4387 22.052 47.26 21.172C48.0813 20.292 48.7633 19.3607 49.306 18.378H46.644C46.644 18.378 46.4827 18.3853 46.16 18.4C45.852 18.4 45.5073 18.4293 45.126 18.488L44.906 17.564C45.3753 17.6373 45.7787 17.6813 46.116 17.696C46.468 17.7107 46.644 17.718 46.644 17.718H50.032V14.88C50.032 14.264 49.9807 13.8607 49.878 13.67C49.8193 13.5673 49.8193 13.4867 49.878 13.428C49.922 13.3547 49.988 13.3327 50.076 13.362C50.252 13.3767 50.472 13.406 50.736 13.45C51.0147 13.494 51.2933 13.5453 51.572 13.604C51.8507 13.648 52.078 13.692 52.254 13.736C52.4153 13.78 52.4813 13.8827 52.452 14.044C52.4373 14.1907 52.342 14.2787 52.166 14.308C52.0193 14.3227 51.9093 14.3593 51.836 14.418C51.7627 14.4767 51.726 14.594 51.726 14.77V17.718H51.77C52.0927 17.322 52.4007 16.8747 52.694 16.376C52.9873 15.8627 53.2293 15.3787 53.42 14.924C53.6253 14.4693 53.7427 14.132 53.772 13.912C53.8013 13.7947 53.838 13.7287 53.882 13.714C53.9113 13.6847 53.9773 13.692 54.08 13.736C54.1533 13.78 54.2853 13.8533 54.476 13.956C54.6813 14.044 54.894 14.154 55.114 14.286C55.3487 14.4033 55.554 14.506 55.73 14.594C55.9207 14.682 56.038 14.7333 56.082 14.748C56.1847 14.8067 56.2067 14.9093 56.148 15.056C56.104 15.2027 56.016 15.2467 55.884 15.188C55.7373 15.1587 55.62 15.1587 55.532 15.188C55.4587 15.2027 55.356 15.2687 55.224 15.386C54.8573 15.7527 54.4173 16.156 53.904 16.596C53.4053 17.036 52.9507 17.41 52.54 17.718H54.41C54.542 17.718 54.652 17.6667 54.74 17.564C54.8133 17.476 54.9307 17.3293 55.092 17.124C55.2533 16.9187 55.3633 16.7793 55.422 16.706C55.5393 16.5593 55.6787 16.5447 55.84 16.662C55.9573 16.7353 56.104 16.8527 56.28 17.014C56.456 17.1753 56.6247 17.3367 56.786 17.498C56.962 17.6593 57.0867 17.784 57.16 17.872C57.2627 17.9747 57.292 18.0847 57.248 18.202C57.2187 18.3193 57.1453 18.378 57.028 18.378H51.726V18.928C52.1073 19.0307 52.518 19.17 52.958 19.346C53.398 19.522 53.8307 19.7347 54.256 19.984C54.6813 20.2187 55.048 20.4973 55.356 20.82C55.664 21.128 55.8693 21.4653 55.972 21.832C56.1187 22.1987 56.126 22.5287 55.994 22.822C55.8767 23.1153 55.7153 23.3133 55.51 23.416C55.29 23.504 55.0773 23.5113 54.872 23.438C54.6813 23.35 54.5273 23.1667 54.41 22.888C54.102 22.1987 53.728 21.568 53.288 20.996C52.8627 20.4093 52.342 19.9107 51.726 19.5V20.006C51.726 20.2847 51.7333 20.6147 51.748 20.996C51.7627 21.3773 51.7773 21.7587 51.792 22.14C51.8067 22.5067 51.8213 22.8293 51.836 23.108C51.8507 23.3867 51.858 23.57 51.858 23.658C51.858 23.834 51.704 23.9807 51.396 24.098C51.1027 24.2153 50.7873 24.274 50.45 24.274ZM41.254 13.01L41.034 12.108C41.5033 12.1667 41.9067 12.2033 42.244 12.218C42.5813 12.2327 42.75 12.24 42.75 12.24H44.84V9.182C44.84 8.53667 44.7813 8.11133 44.664 7.906C44.6053 7.80333 44.6053 7.72267 44.664 7.664C44.7227 7.59067 44.796 7.56133 44.884 7.576C45.0747 7.59067 45.3313 7.62733 45.654 7.686C45.9913 7.73 46.3213 7.78133 46.644 7.84C46.9813 7.89867 47.238 7.95 47.414 7.994C47.59 8.038 47.6633 8.148 47.634 8.324C47.6193 8.48533 47.524 8.58067 47.348 8.61C47.1867 8.62467 47.0473 8.66133 46.93 8.72C46.8273 8.77867 46.776 8.90333 46.776 9.094V12.24H49.966V8.28C49.966 7.63467 49.9073 7.21667 49.79 7.026C49.746 6.938 49.746 6.85 49.79 6.762C49.834 6.70333 49.9073 6.68133 50.01 6.696C50.2007 6.71067 50.4573 6.74 50.78 6.784C51.1027 6.828 51.4253 6.87933 51.748 6.938C52.0853 6.99667 52.342 7.05533 52.518 7.114C52.6793 7.158 52.7453 7.26067 52.716 7.422C52.716 7.58333 52.6207 7.67867 52.43 7.708C52.2833 7.72267 52.1513 7.75933 52.034 7.818C51.9313 7.87667 51.88 8.00133 51.88 8.192V9.27H55.422C55.5833 9.27 55.708 9.21867 55.796 9.116C55.8693 9.01333 55.994 8.852 56.17 8.632C56.3607 8.412 56.4853 8.258 56.544 8.17C56.6613 8.00867 56.808 7.98667 56.984 8.104C57.116 8.192 57.2773 8.324 57.468 8.5C57.6733 8.66133 57.8713 8.83 58.062 9.006C58.2527 9.16733 58.3847 9.29933 58.458 9.402C58.5753 9.51933 58.612 9.63667 58.568 9.754C58.524 9.87133 58.4433 9.93 58.326 9.93H51.88V12.24H57.49C57.666 12.24 57.798 12.1887 57.886 12.086C57.974 11.9833 58.1133 11.8147 58.304 11.58C58.5093 11.3307 58.6487 11.162 58.722 11.074C58.854 10.9127 59.008 10.8907 59.184 11.008C59.3307 11.096 59.514 11.228 59.734 11.404C59.954 11.5653 60.1667 11.734 60.372 11.91C60.5773 12.086 60.7313 12.2327 60.834 12.35C60.9513 12.4673 60.988 12.592 60.944 12.724C60.9147 12.856 60.834 12.922 60.702 12.922C60.6287 12.922 60.46 12.922 60.196 12.922C59.932 12.922 59.5873 12.922 59.162 12.922C58.4433 12.922 57.5633 12.922 56.522 12.922C55.4807 12.9073 54.3587 12.9 53.156 12.9C51.968 12.9 50.78 12.9 49.592 12.9C48.4187 12.9 47.3333 12.9 46.336 12.9C45.3387 12.9 44.5173 12.9073 43.872 12.922C43.2413 12.922 42.8747 12.922 42.772 12.922C42.772 12.922 42.6107 12.9293 42.288 12.944C41.98 12.944 41.6353 12.966 41.254 13.01ZM48.624 17.366C48.4333 17.4247 48.25 17.4247 48.074 17.366C47.9127 17.3073 47.7953 17.168 47.722 16.948C47.546 16.3907 47.3113 15.892 47.018 15.452C46.7393 15.012 46.3873 14.6527 45.962 14.374C45.9327 14.286 45.94 14.2053 45.984 14.132C46.028 14.044 46.094 13.9927 46.182 13.978C46.9153 14.154 47.5607 14.4107 48.118 14.748C48.69 15.0707 49.0493 15.496 49.196 16.024C49.284 16.332 49.262 16.618 49.13 16.882C48.998 17.1313 48.8293 17.2927 48.624 17.366ZM67.192 26.584C66.8547 26.584 66.686 26.4373 66.686 26.144C66.686 26.0707 66.6933 25.792 66.708 25.308C66.7227 24.824 66.7447 24.208 66.774 23.46C66.8033 22.712 66.8253 21.898 66.84 21.018C66.8547 20.138 66.862 19.28 66.862 18.444V18.246C66.3193 19.3313 65.7253 20.2993 65.08 21.15C64.4493 22.0007 63.8333 22.7413 63.232 23.372C63.012 23.4013 62.8873 23.306 62.858 23.086C63.3713 22.3527 63.8627 21.4873 64.332 20.49C64.816 19.4927 65.256 18.4073 65.652 17.234C66.0627 16.046 66.4 14.8213 66.664 13.56C66.5173 13.56 66.3707 13.56 66.224 13.56C66.092 13.56 65.9673 13.56 65.85 13.56C65.6593 13.56 65.4907 13.56 65.344 13.56C65.212 13.56 65.1167 13.56 65.058 13.56C65.058 13.56 64.8967 13.5673 64.574 13.582C64.266 13.582 63.8773 13.604 63.408 13.648L63.188 12.724C63.7453 12.812 64.1927 12.8633 64.53 12.878C64.882 12.8927 65.058 12.9 65.058 12.9H66.862V9.688C66.202 9.82 65.5567 9.93733 64.926 10.04C64.2953 10.1427 63.7453 10.216 63.276 10.26C63.1 10.128 63.078 9.98133 63.21 9.82C63.7527 9.688 64.3467 9.49733 64.992 9.248C65.652 8.99867 66.29 8.72733 66.906 8.434C67.5367 8.14067 68.0867 7.862 68.556 7.598C69.0253 7.31933 69.348 7.08467 69.524 6.894C69.6413 6.77667 69.7587 6.75467 69.876 6.828C70.0227 6.916 70.228 7.05533 70.492 7.246C70.7707 7.43667 71.042 7.63467 71.306 7.84C71.5847 8.03067 71.7973 8.192 71.944 8.324C72.076 8.412 72.098 8.522 72.01 8.654C71.9367 8.77133 71.8267 8.808 71.68 8.764C71.4893 8.70533 71.3353 8.676 71.218 8.676C71.1007 8.676 70.9247 8.71267 70.69 8.786C70.382 8.874 70.052 8.962 69.7 9.05C69.3627 9.138 69.0107 9.226 68.644 9.314V12.9H69.634C69.766 12.9 69.8687 12.8487 69.942 12.746C70.0153 12.6433 70.14 12.482 70.316 12.262C70.492 12.042 70.624 11.8807 70.712 11.778C70.8293 11.6167 70.976 11.602 71.152 11.734C71.3427 11.866 71.592 12.064 71.9 12.328C72.208 12.592 72.4353 12.812 72.582 12.988C72.6993 13.12 72.736 13.252 72.692 13.384C72.648 13.5013 72.56 13.56 72.428 13.56H68.644V15.628C69.348 15.7453 70.03 15.9727 70.69 16.31C71.35 16.6473 71.7973 17.0947 72.032 17.652C72.208 18.0773 72.2153 18.466 72.054 18.818C71.9073 19.1553 71.702 19.368 71.438 19.456C71.2767 19.5147 71.1153 19.5147 70.954 19.456C70.7927 19.3973 70.668 19.258 70.58 19.038C70.1253 17.8647 69.48 16.9333 68.644 16.244V18.466C68.644 19.214 68.6513 20.006 68.666 20.842C68.6807 21.678 68.6953 22.47 68.71 23.218C68.7247 23.9513 68.7393 24.5673 68.754 25.066C68.7687 25.5647 68.776 25.858 68.776 25.946C68.776 26.122 68.6 26.2687 68.248 26.386C67.9107 26.518 67.5587 26.584 67.192 26.584ZM78.148 26.584C77.796 26.584 77.62 26.43 77.62 26.122C77.62 25.8287 77.62 25.3373 77.62 24.648C77.6347 23.9587 77.642 23.1593 77.642 22.25C77.6567 21.326 77.664 20.3727 77.664 19.39C76.9453 19.566 76.2267 19.7347 75.508 19.896C74.804 20.0573 74.1513 20.2113 73.55 20.358C72.9633 20.49 72.472 20.6 72.076 20.688C71.68 20.776 71.438 20.8347 71.35 20.864C71.35 20.864 71.1667 20.908 70.8 20.996C70.4333 21.084 70.0447 21.2087 69.634 21.37L69.194 20.49C69.7513 20.4607 70.2207 20.4093 70.602 20.336C70.9833 20.2627 71.174 20.226 71.174 20.226L77.664 18.708C77.6787 18.2387 77.686 17.7767 77.686 17.322C77.686 16.8527 77.686 16.4053 77.686 15.98V8.676C77.686 8.20667 77.664 7.84 77.62 7.576C77.576 7.29733 77.5247 7.10667 77.466 7.004C77.422 6.93067 77.422 6.85 77.466 6.762C77.5247 6.70333 77.598 6.68133 77.686 6.696C77.862 6.71067 78.1187 6.74733 78.456 6.806C78.808 6.85 79.1527 6.90867 79.49 6.982C79.842 7.04067 80.0987 7.092 80.26 7.136C80.4067 7.16533 80.48 7.268 80.48 7.444C80.4653 7.62 80.37 7.708 80.194 7.708C80.0327 7.72267 79.886 7.774 79.754 7.862C79.6367 7.93533 79.578 8.082 79.578 8.302V15.936C79.578 16.332 79.578 16.728 79.578 17.124C79.5927 17.5053 79.6 17.8867 79.6 18.268L80.04 18.158C80.1867 18.114 80.2893 18.0333 80.348 17.916C80.4067 17.7987 80.502 17.5933 80.634 17.3C80.766 16.992 80.8613 16.7867 80.92 16.684C81.008 16.4787 81.1473 16.4273 81.338 16.53C81.4993 16.5887 81.7047 16.684 81.954 16.816C82.2033 16.9333 82.438 17.058 82.658 17.19C82.8927 17.322 83.0687 17.432 83.186 17.52C83.318 17.6227 83.3767 17.74 83.362 17.872C83.362 18.004 83.296 18.0847 83.164 18.114L79.6 18.95C79.6147 20.1673 79.6367 21.282 79.666 22.294C79.6953 23.306 79.7173 24.1347 79.732 24.78C79.7613 25.4107 79.776 25.7773 79.776 25.88C79.776 26.0707 79.6073 26.232 79.27 26.364C78.9473 26.5107 78.5733 26.584 78.148 26.584ZM75.596 17.982C75.42 18.0407 75.244 18.048 75.068 18.004C74.9067 17.96 74.7747 17.8207 74.672 17.586C74.3933 16.97 74.0633 16.4053 73.682 15.892C73.3153 15.3787 72.8313 14.9167 72.23 14.506C72.1713 14.286 72.2447 14.154 72.45 14.11C73.3153 14.242 74.078 14.4693 74.738 14.792C75.4127 15.1147 75.882 15.562 76.146 16.134C76.3367 16.5593 76.3513 16.948 76.19 17.3C76.0433 17.652 75.8453 17.8793 75.596 17.982ZM75.64 12.79C75.4493 12.8927 75.266 12.922 75.09 12.878C74.914 12.8193 74.7747 12.6873 74.672 12.482C74.3933 11.8807 74.0267 11.316 73.572 10.788C73.132 10.26 72.6333 9.842 72.076 9.534C72.0027 9.29933 72.0613 9.16 72.252 9.116C73.088 9.204 73.858 9.39467 74.562 9.688C75.2807 9.98133 75.7793 10.4067 76.058 10.964C76.2633 11.3747 76.3073 11.7487 76.19 12.086C76.0727 12.4233 75.8893 12.658 75.64 12.79ZM91.942 26.606C91.6193 26.606 91.458 26.4593 91.458 26.166C91.458 26.0927 91.4653 25.8507 91.48 25.44C91.4947 25.0293 91.5093 24.516 91.524 23.9C91.5533 23.284 91.5753 22.624 91.59 21.92C91.6047 21.216 91.612 20.534 91.612 19.874V19.126C91.0253 20.2113 90.38 21.194 89.676 22.074C88.9867 22.954 88.2827 23.702 87.564 24.318C87.3587 24.318 87.256 24.208 87.256 23.988C87.7987 23.3427 88.3267 22.536 88.84 21.568C89.3533 20.5853 89.8153 19.5367 90.226 18.422C90.6513 17.2927 90.974 16.1927 91.194 15.122H90.138C90.138 15.122 89.9767 15.1293 89.654 15.144C89.3313 15.144 89.016 15.1733 88.708 15.232L88.51 14.33C88.9353 14.3887 89.3093 14.4253 89.632 14.44C89.9693 14.4547 90.138 14.462 90.138 14.462C90.1673 14.462 90.2407 14.462 90.358 14.462C90.49 14.462 90.6513 14.462 90.842 14.462C90.9593 14.462 91.084 14.462 91.216 14.462C91.348 14.462 91.48 14.462 91.612 14.462V12.218C91.612 11.602 91.5533 11.1987 91.436 11.008C91.392 10.9053 91.392 10.8173 91.436 10.744C91.48 10.7 91.5533 10.678 91.656 10.678C91.832 10.6927 92.0593 10.722 92.338 10.766C92.6167 10.81 92.8953 10.8613 93.174 10.92C93.4673 10.9787 93.702 11.03 93.878 11.074C94.0393 11.118 94.1053 11.2207 94.076 11.382C94.0613 11.558 93.9733 11.646 93.812 11.646C93.6653 11.6607 93.5333 11.6973 93.416 11.756C93.3133 11.8147 93.262 11.932 93.262 12.108V14.462H93.922C94.0687 14.462 94.186 14.4107 94.274 14.308C94.3473 14.2053 94.45 14.0733 94.582 13.912C94.7287 13.736 94.8313 13.6113 94.89 13.538C95.0073 13.3913 95.1467 13.3767 95.308 13.494C95.4693 13.5967 95.6527 13.7433 95.858 13.934C96.078 14.1247 96.2613 14.3007 96.408 14.462H98.344V12.218C98.344 11.602 98.2853 11.1987 98.168 11.008C98.1093 10.9053 98.1093 10.8247 98.168 10.766C98.1827 10.7073 98.2487 10.678 98.366 10.678C98.542 10.6927 98.7693 10.722 99.048 10.766C99.3413 10.81 99.6273 10.8613 99.906 10.92C100.199 10.9787 100.434 11.03 100.61 11.074C100.771 11.118 100.837 11.2207 100.808 11.382C100.793 11.558 100.698 11.646 100.522 11.646C100.375 11.6607 100.251 11.6973 100.148 11.756C100.045 11.8147 99.994 11.932 99.994 12.108V14.462H101.798C101.959 14.462 102.077 14.4107 102.15 14.308C102.238 14.2053 102.363 14.0513 102.524 13.846C102.7 13.626 102.825 13.472 102.898 13.384C103.015 13.2227 103.162 13.2007 103.338 13.318C103.543 13.45 103.793 13.6553 104.086 13.934C104.394 14.2127 104.621 14.4327 104.768 14.594C104.885 14.7113 104.922 14.8287 104.878 14.946C104.849 15.0633 104.775 15.122 104.658 15.122H100.214C100.522 16.046 100.955 16.9627 101.512 17.872C102.069 18.7667 102.7 19.588 103.404 20.336C104.123 21.084 104.841 21.7 105.56 22.184C105.164 22.2867 104.746 22.4993 104.306 22.822C103.881 23.1447 103.565 23.4673 103.36 23.79C102.964 23.3353 102.583 22.7853 102.216 22.14C101.864 21.4947 101.541 20.8127 101.248 20.094C100.955 19.3607 100.698 18.6347 100.478 17.916C100.273 17.1827 100.111 16.5007 99.994 15.87V19.764C99.994 20.732 100.009 21.6633 100.038 22.558C100.067 23.438 100.089 24.186 100.104 24.802C100.133 25.418 100.148 25.7993 100.148 25.946C100.148 26.122 99.994 26.276 99.686 26.408C99.378 26.54 99.0407 26.606 98.674 26.606C98.3513 26.606 98.19 26.452 98.19 26.144C98.19 26.0707 98.1973 25.836 98.212 25.44C98.2267 25.044 98.2413 24.538 98.256 23.922C98.2853 23.2913 98.3073 22.6167 98.322 21.898C98.3367 21.1793 98.344 20.468 98.344 19.764V18.972C97.7573 20.072 97.1047 21.0693 96.386 21.964C95.682 22.844 94.9707 23.5993 94.252 24.23C94.032 24.23 93.922 24.1273 93.922 23.922C94.4647 23.2473 94.9927 22.4333 95.506 21.48C96.0193 20.512 96.4813 19.478 96.892 18.378C97.3173 17.278 97.64 16.1927 97.86 15.122H93.262V16.398C93.658 16.53 94.0687 16.6987 94.494 16.904C94.9193 17.0947 95.2933 17.3367 95.616 17.63C95.9387 17.9087 96.1367 18.2387 96.21 18.62C96.2833 18.9867 96.2393 19.3093 96.078 19.588C95.9313 19.852 95.7407 20.0207 95.506 20.094C95.3007 20.1527 95.1173 20.1307 94.956 20.028C94.7947 19.9107 94.6773 19.7127 94.604 19.434C94.5013 18.9793 94.3327 18.5393 94.098 18.114C93.878 17.674 93.5993 17.3073 93.262 17.014V19.874C93.262 20.798 93.2693 21.6927 93.284 22.558C93.3133 23.4087 93.3353 24.1347 93.35 24.736C93.3793 25.3373 93.394 25.7333 93.394 25.924C93.394 26.1147 93.2473 26.276 92.954 26.408C92.6607 26.54 92.3233 26.606 91.942 26.606ZM84.946 26.452C84.8433 26.4667 84.7553 26.4447 84.682 26.386C84.6233 26.342 84.5867 26.276 84.572 26.188C84.9387 25.5427 85.2467 24.868 85.496 24.164C85.7453 23.46 85.9507 22.6533 86.112 21.744C86.2733 20.8347 86.3833 19.7493 86.442 18.488C86.5153 17.212 86.552 15.6867 86.552 13.912C86.5373 12.3867 86.5007 11.206 86.442 10.37C86.3833 9.534 86.31 8.99867 86.222 8.764C86.178 8.70533 86.1853 8.632 86.244 8.544C86.3173 8.48533 86.4053 8.478 86.508 8.522C86.6693 8.566 86.882 8.654 87.146 8.786C87.4247 8.90333 87.7107 9.028 88.004 9.16C88.2973 9.292 88.5393 9.40933 88.73 9.512H94.318V8.214C94.318 7.92067 94.3033 7.67133 94.274 7.466C94.2593 7.26067 94.2153 7.114 94.142 7.026C94.098 6.938 94.098 6.85 94.142 6.762C94.2007 6.70333 94.274 6.68133 94.362 6.696C94.5527 6.71067 94.8167 6.74 95.154 6.784C95.506 6.828 95.858 6.87933 96.21 6.938C96.562 6.99667 96.826 7.05533 97.002 7.114C97.1487 7.14333 97.222 7.246 97.222 7.422C97.2073 7.58333 97.112 7.67867 96.936 7.708C96.7893 7.72267 96.65 7.75933 96.518 7.818C96.4007 7.87667 96.342 7.994 96.342 8.17V9.512H100.984C101.116 9.512 101.226 9.46067 101.314 9.358C101.373 9.29933 101.468 9.18933 101.6 9.028C101.732 8.86667 101.864 8.70533 101.996 8.544C102.128 8.38267 102.216 8.27267 102.26 8.214C102.377 8.082 102.531 8.06 102.722 8.148C102.869 8.22133 103.067 8.35333 103.316 8.544C103.565 8.73467 103.807 8.93267 104.042 9.138C104.277 9.34333 104.438 9.49733 104.526 9.6C104.643 9.71733 104.68 9.842 104.636 9.974C104.607 10.106 104.533 10.172 104.416 10.172H88.466V14.55C88.466 16.6033 88.3193 18.3633 88.026 19.83C87.7473 21.2967 87.344 22.5653 86.816 23.636C86.288 24.692 85.6647 25.6307 84.946 26.452ZM120.872 26.606C120.549 26.606 120.388 26.4667 120.388 26.188C120.388 26.1147 120.388 25.8507 120.388 25.396C120.403 24.9413 120.417 24.3913 120.432 23.746C120.447 23.1007 120.454 22.4553 120.454 21.81C120.469 21.15 120.476 20.5927 120.476 20.138V20.028H116.714C116.729 20.952 116.743 21.832 116.758 22.668C116.773 23.4893 116.787 24.1713 116.802 24.714C116.817 25.242 116.824 25.5427 116.824 25.616C116.824 25.792 116.677 25.9387 116.384 26.056C116.091 26.188 115.761 26.254 115.394 26.254C115.071 26.254 114.91 26.1147 114.91 25.836V24.802H109.432V25.99C109.432 26.1513 109.293 26.2907 109.014 26.408C108.75 26.5253 108.427 26.584 108.046 26.584C107.723 26.584 107.562 26.4447 107.562 26.166C107.562 26.122 107.569 25.8727 107.584 25.418C107.599 24.9633 107.613 24.3693 107.628 23.636C107.643 22.888 107.657 22.0593 107.672 21.15C107.687 20.2407 107.701 19.2947 107.716 18.312C107.731 17.3293 107.738 16.376 107.738 15.452C107.738 14.3227 107.716 13.4867 107.672 12.944C107.643 12.4013 107.591 12.0493 107.518 11.888C107.489 11.8 107.496 11.7267 107.54 11.668C107.599 11.6093 107.679 11.602 107.782 11.646C107.914 11.69 108.097 11.7633 108.332 11.866C108.567 11.9687 108.809 12.0787 109.058 12.196C109.322 12.3133 109.535 12.416 109.696 12.504H110.29V8.896H108.662C108.662 8.896 108.501 8.90333 108.178 8.918C107.87 8.918 107.525 8.94733 107.144 9.006L106.946 8.104C107.415 8.16267 107.819 8.19933 108.156 8.214C108.493 8.22867 108.662 8.236 108.662 8.236H114.668C114.829 8.236 114.954 8.18467 115.042 8.082C115.13 7.994 115.262 7.84733 115.438 7.642C115.614 7.43667 115.739 7.29 115.812 7.202C115.915 7.05533 116.054 7.03333 116.23 7.136C116.362 7.20933 116.523 7.32667 116.714 7.488C116.919 7.64933 117.117 7.81067 117.308 7.972C117.499 8.13333 117.638 8.26533 117.726 8.368C117.843 8.48533 117.88 8.60267 117.836 8.72C117.807 8.83733 117.726 8.896 117.594 8.896H113.964V12.504H114.646C114.763 12.504 114.851 12.46 114.91 12.372C114.969 12.2987 115.049 12.196 115.152 12.064C115.255 11.932 115.335 11.8293 115.394 11.756C115.497 11.6387 115.621 11.6167 115.768 11.69C115.973 11.7927 116.245 11.954 116.582 12.174C116.919 12.3793 117.169 12.5407 117.33 12.658C117.447 12.7313 117.499 12.834 117.484 12.966C117.484 13.0833 117.411 13.1713 117.264 13.23C117.205 13.2593 117.139 13.2887 117.066 13.318C117.007 13.3473 116.949 13.3767 116.89 13.406C116.743 13.494 116.67 13.67 116.67 13.934V16.838C117.433 16.1487 118.027 15.3347 118.452 14.396C118.877 13.4427 119.149 12.1887 119.266 10.634H117.66C117.66 10.634 117.506 10.6413 117.198 10.656C116.89 10.656 116.545 10.678 116.164 10.722L115.944 9.82C116.413 9.89333 116.817 9.93733 117.154 9.952C117.491 9.96667 117.66 9.974 117.66 9.974H119.31C119.325 9.73933 119.332 9.50467 119.332 9.27C119.332 9.03533 119.332 8.79333 119.332 8.544C119.332 7.78133 119.273 7.268 119.156 7.004C119.112 6.916 119.112 6.83533 119.156 6.762C119.2 6.70333 119.273 6.68133 119.376 6.696C119.537 6.71067 119.779 6.74733 120.102 6.806C120.439 6.85 120.769 6.90867 121.092 6.982C121.415 7.04067 121.657 7.092 121.818 7.136C121.95 7.18 122.016 7.28267 122.016 7.444C122.001 7.59067 121.906 7.67867 121.73 7.708C121.539 7.72267 121.4 7.75933 121.312 7.818C121.239 7.862 121.202 7.96467 121.202 8.126C121.202 8.44867 121.195 8.764 121.18 9.072C121.165 9.38 121.143 9.68067 121.114 9.974H122.082C122.199 9.974 122.287 9.93733 122.346 9.864C122.419 9.776 122.515 9.67333 122.632 9.556C122.749 9.424 122.852 9.30667 122.94 9.204C123.028 9.08667 123.16 9.072 123.336 9.16C123.439 9.23333 123.585 9.34333 123.776 9.49C123.981 9.622 124.187 9.76133 124.392 9.908C124.612 10.04 124.781 10.15 124.898 10.238C125.015 10.326 125.059 10.436 125.03 10.568C125.001 10.6853 124.927 10.766 124.81 10.81C124.737 10.8247 124.663 10.854 124.59 10.898C124.531 10.9273 124.465 10.9567 124.392 10.986C124.245 11.0447 124.172 11.1913 124.172 11.426V14.088C124.172 14.3227 124.319 14.44 124.612 14.44C124.905 14.44 125.118 14.4107 125.25 14.352C125.382 14.2787 125.477 14.1467 125.536 13.956C125.58 13.8093 125.631 13.5967 125.69 13.318C125.749 13.0393 125.807 12.7533 125.866 12.46C125.939 12.152 125.998 11.8807 126.042 11.646C126.101 11.4113 126.137 11.2647 126.152 11.206C126.328 11.074 126.482 11.096 126.614 11.272C126.614 11.3307 126.607 11.4847 126.592 11.734C126.577 11.9687 126.563 12.24 126.548 12.548C126.548 12.8413 126.541 13.1053 126.526 13.34C126.526 13.5747 126.526 13.7287 126.526 13.802C126.526 14.0073 126.607 14.1467 126.768 14.22C126.944 14.2933 127.083 14.396 127.186 14.528C127.303 14.66 127.362 14.8213 127.362 15.012C127.362 15.2467 127.281 15.452 127.12 15.628C126.973 15.804 126.709 15.9287 126.328 16.002C125.917 16.1047 125.419 16.1633 124.832 16.178C124.245 16.1927 123.754 16.1927 123.358 16.178C122.713 16.134 122.39 15.8627 122.39 15.364V10.634H121.048C120.901 11.8073 120.637 12.8193 120.256 13.67C119.889 14.5207 119.405 15.254 118.804 15.87C118.217 16.486 117.506 17.036 116.67 17.52C116.67 17.8133 116.67 18.114 116.67 18.422C116.685 18.73 116.692 19.0453 116.692 19.368H120.476V17.696C120.476 17.344 120.461 17.058 120.432 16.838C120.403 16.618 120.366 16.4567 120.322 16.354C120.263 16.266 120.256 16.1853 120.3 16.112C120.344 16.068 120.417 16.046 120.52 16.046C120.696 16.0607 120.945 16.0973 121.268 16.156C121.591 16.2 121.913 16.2513 122.236 16.31C122.559 16.354 122.793 16.398 122.94 16.442C123.101 16.486 123.167 16.5887 123.138 16.75C123.123 16.926 123.035 17.014 122.874 17.014C122.727 17.0287 122.603 17.0653 122.5 17.124C122.397 17.1827 122.346 17.3 122.346 17.476V19.368H124.106C124.253 19.368 124.37 19.3167 124.458 19.214C124.531 19.1113 124.656 18.9427 124.832 18.708C125.023 18.4733 125.155 18.312 125.228 18.224C125.345 18.0773 125.485 18.0553 125.646 18.158C125.778 18.246 125.939 18.378 126.13 18.554C126.335 18.7153 126.533 18.884 126.724 19.06C126.915 19.2213 127.054 19.3607 127.142 19.478C127.259 19.61 127.296 19.7347 127.252 19.852C127.223 19.9693 127.142 20.028 127.01 20.028H122.346V20.16C122.346 20.644 122.353 21.2013 122.368 21.832C122.383 22.4627 122.39 23.086 122.39 23.702C122.405 24.3033 122.419 24.8167 122.434 25.242C122.449 25.6673 122.456 25.902 122.456 25.946C122.456 26.1073 122.295 26.254 121.972 26.386C121.664 26.5327 121.297 26.606 120.872 26.606ZM109.432 21.04H114.91V18.444H113.524C112.864 18.444 112.534 18.1873 112.534 17.674V13.164H111.72V13.208C111.72 14.528 111.625 15.5913 111.434 16.398C111.243 17.2047 110.972 17.8647 110.62 18.378C110.283 18.8767 109.887 19.346 109.432 19.786V21.04ZM109.432 24.142H114.91V21.7H109.432V24.142ZM109.432 18.95C109.813 18.2607 110.048 17.476 110.136 16.596C110.239 15.7013 110.29 14.5793 110.29 13.23V13.164H109.432V18.95ZM114.272 16.662H114.91V13.164H113.964V16.354C113.964 16.5593 114.067 16.662 114.272 16.662ZM111.72 12.504H112.534V8.896H111.72V12.504ZM143.818 25.022C142.337 25.154 141.024 25.0367 139.88 24.67C138.751 24.3033 137.856 23.658 137.196 22.734C136.536 21.7953 136.191 20.5487 136.162 18.994C136.147 17.8647 136.301 16.816 136.624 15.848C136.961 14.88 137.409 14.0147 137.966 13.252C138.538 12.4893 139.161 11.8513 139.836 11.338C138.751 11.5287 137.768 11.7633 136.888 12.042C136.008 12.3207 135.143 12.636 134.292 12.988C133.999 13.12 133.713 13.2593 133.434 13.406C133.155 13.538 132.891 13.6113 132.642 13.626C132.143 13.6553 131.725 13.5527 131.388 13.318C131.065 13.0687 130.809 12.746 130.618 12.35C130.442 11.954 130.317 11.536 130.244 11.096C130.361 10.9053 130.508 10.8613 130.684 10.964C130.816 11.2133 131.029 11.3893 131.322 11.492C131.615 11.5947 131.989 11.6387 132.444 11.624C132.825 11.6093 133.339 11.5507 133.984 11.448C134.629 11.3453 135.355 11.206 136.162 11.03C136.983 10.854 137.841 10.6707 138.736 10.48C139.631 10.2747 140.511 10.0767 141.376 9.886C142.256 9.68067 143.077 9.49733 143.84 9.336C144.236 9.204 144.625 9.12333 145.006 9.094C145.402 9.06467 145.761 9.15267 146.084 9.358C146.48 9.60733 146.737 9.886 146.854 10.194C146.986 10.502 146.986 10.7587 146.854 10.964C146.722 11.1693 146.465 11.25 146.084 11.206C146.025 11.206 145.945 11.1987 145.842 11.184C145.285 11.1107 144.691 11.052 144.06 11.008C143.444 10.9493 142.835 10.9713 142.234 11.074C141.633 11.162 141.09 11.382 140.606 11.734C139.462 12.5407 138.699 13.5673 138.318 14.814C137.937 16.0607 137.768 17.432 137.812 18.928C137.856 20.3947 138.347 21.4727 139.286 22.162C140.225 22.8367 141.515 23.1007 143.158 22.954C143.334 22.9393 143.503 22.9393 143.664 22.954C143.825 22.9687 143.979 23.0273 144.126 23.13C144.742 23.5553 144.999 23.966 144.896 24.362C144.793 24.7433 144.434 24.9633 143.818 25.022ZM145.446 17.432C145.299 17.4613 145.153 17.4393 145.006 17.366C144.859 17.2927 144.749 17.1387 144.676 16.904C144.515 16.3467 144.287 15.8113 143.994 15.298C143.701 14.77 143.327 14.3153 142.872 13.934C142.857 13.846 142.872 13.7727 142.916 13.714C142.975 13.6407 143.048 13.5967 143.136 13.582C143.561 13.6993 143.979 13.89 144.39 14.154C144.801 14.418 145.153 14.7187 145.446 15.056C145.754 15.3933 145.945 15.738 146.018 16.09C146.106 16.4567 146.084 16.7647 145.952 17.014C145.82 17.2633 145.651 17.4027 145.446 17.432ZM147.954 15.65C147.807 15.7087 147.653 15.7233 147.492 15.694C147.331 15.65 147.191 15.518 147.074 15.298C146.795 14.7993 146.465 14.352 146.084 13.956C145.703 13.5453 145.233 13.186 144.676 12.878C144.603 12.6727 144.661 12.5407 144.852 12.482C145.263 12.5407 145.695 12.6507 146.15 12.812C146.605 12.9733 147.015 13.1787 147.382 13.428C147.763 13.6627 148.027 13.934 148.174 14.242C148.335 14.55 148.379 14.8433 148.306 15.122C148.247 15.4007 148.13 15.5767 147.954 15.65Z" fill="white"/>
<path d="M167.116 26.606C167.013 26.1367 166.896 25.77 166.764 25.506C166.632 25.242 166.449 25.044 166.214 24.912C165.979 24.78 165.642 24.6847 165.202 24.626C165.07 24.45 165.092 24.296 165.268 24.164C165.473 24.1787 165.73 24.1933 166.038 24.208C166.346 24.208 166.683 24.208 167.05 24.208C167.27 24.208 167.417 24.1713 167.49 24.098C167.578 24.0247 167.622 23.9073 167.622 23.746V21.854H164.476C164.476 22.3673 164.483 22.9247 164.498 23.526C164.513 24.1127 164.527 24.6333 164.542 25.088C164.557 25.5427 164.564 25.8213 164.564 25.924C164.564 26.1 164.403 26.254 164.08 26.386C163.757 26.518 163.398 26.584 163.002 26.584C162.679 26.584 162.518 26.4447 162.518 26.166C162.518 26.1073 162.518 25.924 162.518 25.616C162.533 25.308 162.54 24.934 162.54 24.494C162.555 24.054 162.569 23.5993 162.584 23.13C162.599 22.6607 162.606 22.2353 162.606 21.854H159.46V25.946C159.46 26.122 159.299 26.2687 158.976 26.386C158.653 26.518 158.301 26.584 157.92 26.584C157.597 26.584 157.436 26.4447 157.436 26.166C157.436 26.034 157.451 25.6233 157.48 24.934C157.509 24.2447 157.531 23.3207 157.546 22.162C157.575 20.9887 157.59 19.6393 157.59 18.114C157.59 17.2047 157.575 16.5227 157.546 16.068C157.531 15.6133 157.487 15.3053 157.414 15.144C157.355 15.0707 157.355 15.0047 157.414 14.946C157.473 14.8873 157.546 14.88 157.634 14.924C157.766 14.968 157.957 15.0487 158.206 15.166C158.47 15.2687 158.734 15.386 158.998 15.518C159.277 15.6353 159.489 15.738 159.636 15.826H163.112C163.112 15.826 163.097 15.7967 163.068 15.738C162.745 15.1367 162.342 14.6087 161.858 14.154C161.389 13.6847 160.78 13.2667 160.032 12.9C159.959 12.6653 160.017 12.526 160.208 12.482C160.927 12.5993 161.623 12.7607 162.298 12.966C162.987 13.1567 163.545 13.4207 163.97 13.758C164.175 13.5087 164.41 13.2373 164.674 12.944C164.938 12.636 165.165 12.372 165.356 12.152H159.46C159.46 12.152 159.269 12.1593 158.888 12.174C158.507 12.174 158.103 12.2033 157.678 12.262L157.458 11.316C158.001 11.404 158.463 11.4553 158.844 11.47C159.24 11.4847 159.438 11.492 159.438 11.492H165.51C165.627 11.492 165.723 11.4553 165.796 11.382C165.869 11.3087 165.965 11.2207 166.082 11.118C166.214 11.0007 166.324 10.898 166.412 10.81C166.559 10.6633 166.72 10.6487 166.896 10.766C167.131 10.9273 167.431 11.1547 167.798 11.448C168.165 11.7267 168.451 11.9687 168.656 12.174C168.788 12.306 168.817 12.4673 168.744 12.658C168.656 12.8193 168.531 12.8853 168.37 12.856C167.974 12.812 167.607 12.8413 167.27 12.944C166.845 13.0467 166.353 13.2227 165.796 13.472C165.239 13.7067 164.762 13.9487 164.366 14.198C164.395 14.242 164.425 14.286 164.454 14.33C164.498 14.374 164.527 14.4253 164.542 14.484C164.659 14.7333 164.703 14.9827 164.674 15.232C164.645 15.4667 164.571 15.6647 164.454 15.826H167.314C167.446 15.826 167.541 15.7747 167.6 15.672C167.673 15.5987 167.761 15.496 167.864 15.364C167.967 15.232 168.047 15.1293 168.106 15.056C168.223 14.924 168.363 14.902 168.524 14.99C168.729 15.0927 169.008 15.254 169.36 15.474C169.727 15.694 169.998 15.87 170.174 16.002C170.291 16.0753 170.35 16.178 170.35 16.31C170.35 16.4273 170.277 16.5153 170.13 16.574C170.071 16.6033 170.005 16.6327 169.932 16.662C169.873 16.6913 169.807 16.7207 169.734 16.75C169.573 16.8233 169.492 17.0213 169.492 17.344V19.478C169.492 20.1087 169.499 20.7613 169.514 21.436C169.543 22.1107 169.565 22.7047 169.58 23.218C169.595 23.7167 169.602 24.0393 169.602 24.186C169.602 24.5673 169.543 24.912 169.426 25.22C169.309 25.528 169.074 25.792 168.722 26.012C168.37 26.2467 167.835 26.4447 167.116 26.606ZM151.474 26.298C151.239 26.298 151.137 26.1953 151.166 25.99C151.738 25.374 152.259 24.7067 152.728 23.988C153.212 23.2693 153.615 22.3893 153.938 21.348C154.275 20.3067 154.503 18.994 154.62 17.41C154.341 17.6887 154.033 18.004 153.696 18.356C153.359 18.6933 153.087 18.9647 152.882 19.17C152.765 19.2727 152.699 19.3753 152.684 19.478C152.669 19.5807 152.691 19.6907 152.75 19.808C152.794 19.9253 152.743 20.0353 152.596 20.138C152.464 20.2113 152.354 20.1967 152.266 20.094C152.178 19.9473 152.046 19.742 151.87 19.478C151.709 19.1993 151.54 18.928 151.364 18.664C151.203 18.3853 151.071 18.1653 150.968 18.004C150.939 17.9307 150.931 17.8647 150.946 17.806C150.975 17.762 151.034 17.74 151.122 17.74C151.195 17.7107 151.283 17.6887 151.386 17.674C151.489 17.6593 151.599 17.6373 151.716 17.608C152.156 17.4907 152.655 17.344 153.212 17.168C153.784 16.9773 154.268 16.8013 154.664 16.64C154.693 16.2147 154.708 15.782 154.708 15.342C154.723 14.8873 154.723 14.4107 154.708 13.912C154.664 11.1107 154.532 9.41667 154.312 8.83C154.283 8.742 154.297 8.66867 154.356 8.61C154.415 8.55133 154.495 8.544 154.598 8.588C154.759 8.632 154.972 8.72 155.236 8.852C155.5 8.96933 155.771 9.094 156.05 9.226C156.343 9.358 156.578 9.47533 156.754 9.578H161.528V8.28C161.528 7.64933 161.469 7.23867 161.352 7.048C161.293 6.93067 161.293 6.84267 161.352 6.784C161.396 6.72533 161.462 6.696 161.55 6.696C161.741 6.71067 162.005 6.74733 162.342 6.806C162.694 6.85 163.046 6.90867 163.398 6.982C163.75 7.04067 164.021 7.092 164.212 7.136C164.359 7.16533 164.432 7.27533 164.432 7.466C164.417 7.62733 164.322 7.72267 164.146 7.752C163.985 7.76667 163.845 7.80333 163.728 7.862C163.625 7.92067 163.574 8.038 163.574 8.214V9.578H167.336C167.483 9.578 167.607 9.51933 167.71 9.402C167.754 9.34333 167.842 9.23333 167.974 9.072C168.106 8.91067 168.238 8.74933 168.37 8.588C168.502 8.412 168.59 8.29467 168.634 8.236C168.766 8.07467 168.92 8.05267 169.096 8.17C169.243 8.258 169.433 8.40467 169.668 8.61C169.917 8.81533 170.152 9.02067 170.372 9.226C170.607 9.41667 170.768 9.56333 170.856 9.666C170.973 9.78333 171.01 9.908 170.966 10.04C170.937 10.172 170.863 10.238 170.746 10.238H156.556V15.276C156.556 16.8013 156.431 18.136 156.182 19.28C155.933 20.424 155.581 21.4213 155.126 22.272C154.671 23.1227 154.129 23.878 153.498 24.538C152.882 25.1833 152.207 25.77 151.474 26.298ZM153.19 15.276C152.999 15.2907 152.823 15.2467 152.662 15.144C152.501 15.0267 152.405 14.8213 152.376 14.528C152.317 13.8973 152.193 13.3327 152.002 12.834C151.811 12.3207 151.525 11.8513 151.144 11.426C151.115 11.1913 151.21 11.074 151.43 11.074C152.149 11.3527 152.743 11.7047 153.212 12.13C153.696 12.5407 153.997 13.0613 154.114 13.692C154.202 14.1467 154.136 14.5133 153.916 14.792C153.711 15.0707 153.469 15.232 153.19 15.276ZM159.46 21.194H162.606V19.17H159.46V21.194ZM164.476 21.194H167.622V19.17H164.476V21.194ZM159.46 18.51H162.606V16.486H159.46V18.51ZM164.476 18.51H167.622V16.486H164.476V18.51ZM182.318 25.726C182.23 25.6967 182.164 25.6453 182.12 25.572C182.076 25.4987 182.069 25.4253 182.098 25.352C183.051 24.7213 183.931 23.9147 184.738 22.932C185.545 21.9493 186.197 20.8787 186.696 19.72C185.977 19.368 185.207 19.0527 184.386 18.774C183.579 18.4953 182.736 18.3047 181.856 18.202C181.093 19.6833 180.228 20.7907 179.26 21.524C178.307 22.2573 177.265 22.6387 176.136 22.668C175.549 22.6827 175.051 22.5507 174.64 22.272C174.244 21.9933 174.024 21.5607 173.98 20.974C173.921 20.1967 174.156 19.5147 174.684 18.928C175.212 18.3413 175.931 17.872 176.84 17.52C177.749 17.168 178.754 16.97 179.854 16.926C180.03 16.9113 180.206 16.904 180.382 16.904C180.573 16.904 180.756 16.904 180.932 16.904C181.299 16.0533 181.585 15.2173 181.79 14.396C182.01 13.56 182.186 12.79 182.318 12.086C182.465 11.3673 182.619 10.7733 182.78 10.304C182.824 10.1573 182.817 10.0473 182.758 9.974C182.714 9.886 182.589 9.87133 182.384 9.93C182.149 9.98867 181.856 10.106 181.504 10.282C181.152 10.4433 180.837 10.6413 180.558 10.876C180.338 11.0667 180.125 11.2427 179.92 11.404C179.729 11.5653 179.495 11.6607 179.216 11.69C178.864 11.734 178.541 11.646 178.248 11.426C177.969 11.206 177.735 10.92 177.544 10.568C177.368 10.2013 177.251 9.84933 177.192 9.512C177.295 9.292 177.434 9.23333 177.61 9.336C177.801 9.61467 177.999 9.78333 178.204 9.842C178.424 9.886 178.688 9.90067 178.996 9.886C179.26 9.85667 179.627 9.76867 180.096 9.622C180.565 9.47533 181.027 9.30667 181.482 9.116C181.951 8.92533 182.311 8.74933 182.56 8.588C182.795 8.42667 183.007 8.33867 183.198 8.324C183.389 8.29467 183.609 8.35333 183.858 8.5C184.019 8.60267 184.188 8.72 184.364 8.852C184.555 8.96933 184.701 9.07933 184.804 9.182C185.053 9.41667 185.193 9.65133 185.222 9.886C185.266 10.106 185.163 10.3407 184.914 10.59C184.606 10.898 184.32 11.4113 184.056 12.13C183.807 12.834 183.55 13.6187 183.286 14.484C183.037 15.3493 182.751 16.1853 182.428 16.992C183.337 17.0947 184.195 17.2487 185.002 17.454C185.823 17.6593 186.586 17.894 187.29 18.158C187.363 17.9233 187.429 17.6887 187.488 17.454C187.547 17.2047 187.598 16.9627 187.642 16.728C187.759 16.0827 187.767 15.6133 187.664 15.32C187.561 15.012 187.275 14.8067 186.806 14.704C186.747 14.6307 186.733 14.55 186.762 14.462C186.791 14.374 186.843 14.308 186.916 14.264C187.385 14.264 187.877 14.33 188.39 14.462C188.918 14.5793 189.336 14.7407 189.644 14.946C189.835 15.0633 189.937 15.2173 189.952 15.408C189.981 15.584 189.937 15.7673 189.82 15.958C189.629 16.222 189.49 16.552 189.402 16.948C189.329 17.2707 189.241 17.5933 189.138 17.916C189.05 18.224 188.947 18.5247 188.83 18.818C189.387 19.082 189.879 19.3387 190.304 19.588C190.744 19.8373 191.089 20.0573 191.338 20.248C191.617 20.4387 191.8 20.71 191.888 21.062C191.976 21.3993 191.939 21.7367 191.778 22.074C191.661 22.338 191.477 22.4993 191.228 22.558C190.979 22.602 190.729 22.5067 190.48 22.272C190.201 21.9933 189.857 21.7 189.446 21.392C189.035 21.084 188.573 20.776 188.06 20.468C186.769 22.8 184.855 24.5527 182.318 25.726ZM176.07 21.04C176.818 21.0253 177.573 20.7613 178.336 20.248C179.113 19.72 179.773 19.0013 180.316 18.092C180.243 18.092 180.169 18.092 180.096 18.092C180.023 18.092 179.949 18.0993 179.876 18.114C179.128 18.1287 178.402 18.246 177.698 18.466C177.009 18.686 176.444 18.972 176.004 19.324C175.579 19.676 175.373 20.072 175.388 20.512C175.388 20.6587 175.439 20.7907 175.542 20.908C175.659 21.0107 175.835 21.0547 176.07 21.04ZM195.188 21.04L194.968 20.138C195.437 20.2113 195.841 20.2553 196.178 20.27C196.515 20.2847 196.684 20.292 196.684 20.292H198.906V15.628H197.542C197.542 15.628 197.381 15.6353 197.058 15.65C196.75 15.65 196.405 15.672 196.024 15.716L195.826 14.814C196.295 14.8873 196.699 14.9313 197.036 14.946C197.373 14.9607 197.542 14.968 197.542 14.968H198.906V11.404C198.378 11.976 197.835 12.5187 197.278 13.032C196.721 13.5307 196.163 13.9927 195.606 14.418C195.386 14.3887 195.291 14.2713 195.32 14.066C195.789 13.5673 196.244 12.9953 196.684 12.35C197.139 11.69 197.549 11.0153 197.916 10.326C198.283 9.622 198.583 8.95467 198.818 8.324C199.067 7.69333 199.214 7.15067 199.258 6.696C199.287 6.59333 199.324 6.53467 199.368 6.52C199.397 6.49067 199.456 6.49067 199.544 6.52C199.559 6.52 199.566 6.52 199.566 6.52C199.757 6.57867 200.021 6.68133 200.358 6.828C200.695 6.97467 201.033 7.12133 201.37 7.268C201.722 7.41467 201.986 7.53933 202.162 7.642C202.279 7.73 202.316 7.84733 202.272 7.994C202.199 8.14067 202.096 8.19933 201.964 8.17C201.773 8.14067 201.619 8.13333 201.502 8.148C201.399 8.16267 201.282 8.27267 201.15 8.478C201.033 8.66867 200.908 8.85933 200.776 9.05C200.644 9.24067 200.505 9.43133 200.358 9.622H210.588C210.735 9.622 210.852 9.57067 210.94 9.468C211.013 9.35067 211.145 9.17467 211.336 8.94C211.527 8.69067 211.651 8.522 211.71 8.434C211.842 8.27267 212.003 8.258 212.194 8.39C212.326 8.478 212.495 8.61 212.7 8.786C212.92 8.962 213.125 9.138 213.316 9.314C213.507 9.49 213.646 9.622 213.734 9.71C213.851 9.81267 213.888 9.93733 213.844 10.084C213.815 10.216 213.734 10.282 213.602 10.282H210.896V14.968H211.578C211.754 14.968 211.893 14.9093 211.996 14.792C212.069 14.6747 212.194 14.4987 212.37 14.264C212.546 14.0147 212.663 13.8387 212.722 13.736C212.825 13.56 212.986 13.5453 213.206 13.692C213.338 13.78 213.507 13.9193 213.712 14.11C213.932 14.286 214.145 14.462 214.35 14.638C214.57 14.814 214.724 14.9533 214.812 15.056C214.915 15.1733 214.944 15.298 214.9 15.43C214.871 15.562 214.797 15.628 214.68 15.628H210.896V20.292H211.798C211.945 20.292 212.062 20.2407 212.15 20.138C212.223 20.0207 212.355 19.8447 212.546 19.61C212.751 19.3607 212.883 19.192 212.942 19.104C213.059 18.9573 213.221 18.9427 213.426 19.06C213.558 19.148 213.727 19.28 213.932 19.456C214.137 19.632 214.335 19.808 214.526 19.984C214.717 20.16 214.856 20.292 214.944 20.38C215.061 20.4973 215.098 20.622 215.054 20.754C215.025 20.886 214.951 20.952 214.834 20.952C214.79 20.952 214.673 20.952 214.482 20.952C214.291 20.952 214.042 20.952 213.734 20.952C213.177 20.952 212.465 20.952 211.6 20.952C210.735 20.952 209.781 20.952 208.74 20.952C207.699 20.952 206.628 20.952 205.528 20.952C204.443 20.952 203.387 20.952 202.36 20.952C201.333 20.952 200.402 20.952 199.566 20.952C198.745 20.952 198.077 20.952 197.564 20.952C197.051 20.952 196.765 20.952 196.706 20.952C196.706 20.952 196.545 20.9593 196.222 20.974C195.914 20.974 195.569 20.996 195.188 21.04ZM213.91 26.43C213.675 26.5327 213.441 26.54 213.206 26.452C212.986 26.3787 212.817 26.1733 212.7 25.836C212.436 25.044 212.077 24.296 211.622 23.592C211.182 22.8733 210.595 22.2353 209.862 21.678C209.803 21.4433 209.884 21.3113 210.104 21.282C210.852 21.502 211.541 21.7807 212.172 22.118C212.803 22.4407 213.331 22.8147 213.756 23.24C214.181 23.6653 214.453 24.142 214.57 24.67C214.658 25.0807 214.629 25.4473 214.482 25.77C214.35 26.0927 214.159 26.3127 213.91 26.43ZM196.486 26.584C196.134 26.5987 195.863 26.518 195.672 26.342C195.496 26.166 195.393 25.946 195.364 25.682C195.349 25.4327 195.401 25.1907 195.518 24.956C195.635 24.7213 195.811 24.56 196.046 24.472C196.75 24.208 197.359 23.856 197.872 23.416C198.4 22.9613 198.796 22.316 199.06 21.48C199.133 21.4067 199.214 21.3773 199.302 21.392C199.39 21.392 199.456 21.4287 199.5 21.502C199.559 23.0567 199.295 24.274 198.708 25.154C198.136 26.034 197.395 26.5107 196.486 26.584ZM208.146 26.21C207.926 26.2687 207.713 26.2467 207.508 26.144C207.317 26.0413 207.207 25.8287 207.178 25.506C207.105 24.8167 206.936 24.1273 206.672 23.438C206.423 22.7487 206.093 22.1693 205.682 21.7C205.653 21.4653 205.748 21.348 205.968 21.348C206.789 21.6413 207.493 22.052 208.08 22.58C208.667 23.108 209.011 23.7387 209.114 24.472C209.187 24.9413 209.114 25.33 208.894 25.638C208.689 25.946 208.439 26.1367 208.146 26.21ZM203.328 26.342C203.079 26.3713 202.866 26.3273 202.69 26.21C202.514 26.0927 202.426 25.8873 202.426 25.594C202.411 24.8607 202.316 24.1567 202.14 23.482C201.964 22.7927 201.693 22.1987 201.326 21.7C201.355 21.4653 201.465 21.3627 201.656 21.392C202.389 21.6853 203.035 22.118 203.592 22.69C204.149 23.262 204.443 23.944 204.472 24.736C204.501 25.2053 204.399 25.572 204.164 25.836C203.929 26.1147 203.651 26.2833 203.328 26.342ZM200.732 14.968H202.338V10.282H200.732V14.968ZM204.098 14.968H205.704V10.282H204.098V14.968ZM200.732 20.292H202.338V15.628H200.732V20.292ZM204.098 20.292H205.704V15.628H204.098V20.292ZM207.464 14.968H209.048V10.282H207.464V14.968ZM207.464 20.292H209.048V15.628H207.464V20.292ZM226.648 25.484C225.607 25.484 224.719 25.33 223.986 25.022C223.253 24.714 222.695 24.1933 222.314 23.46C221.933 22.7267 221.742 21.722 221.742 20.446C221.742 19.8447 221.757 19.1333 221.786 18.312C221.83 17.4907 221.881 16.618 221.94 15.694C221.999 14.7553 222.043 13.824 222.072 12.9C222.116 11.976 222.138 11.118 222.138 10.326C222.138 9.81267 222.079 9.424 221.962 9.16C221.845 8.88133 221.595 8.69067 221.214 8.588C221.155 8.51467 221.133 8.434 221.148 8.346C221.177 8.258 221.229 8.192 221.302 8.148C221.845 8.148 222.365 8.22133 222.864 8.368C223.363 8.51467 223.773 8.74933 224.096 9.072C224.345 9.30667 224.485 9.556 224.514 9.82C224.543 10.0693 224.499 10.3113 224.382 10.546C224.279 10.7367 224.177 11.1327 224.074 11.734C223.986 12.3207 223.898 13.0613 223.81 13.956C223.722 14.836 223.649 15.826 223.59 16.926C223.546 18.0113 223.524 19.148 223.524 20.336C223.524 21.48 223.766 22.316 224.25 22.844C224.749 23.3573 225.555 23.614 226.67 23.614C228.239 23.614 229.625 23.3573 230.828 22.844C232.031 22.3307 233.116 21.7147 234.084 20.996C234.216 21.0107 234.319 21.062 234.392 21.15C234.465 21.2233 234.495 21.3187 234.48 21.436C234.113 21.92 233.651 22.404 233.094 22.888C232.537 23.3573 231.913 23.79 231.224 24.186C230.535 24.582 229.801 24.8973 229.024 25.132C228.247 25.3667 227.455 25.484 226.648 25.484Z" fill="#FFFAD7"/>
<path d="M34 10.6328L23.7812 19.3916L18.8379 14.4482L17.0195 16.2666L23.6465 22.8945L34 14.0186V25H16V7H34V10.6328Z" fill="white"/>
<defs>
<filter id="filter0_n_748_5223" x="0" y="0" width="262" height="32" filterUnits="userSpaceOnUse" color-interpolation-filters="sRGB">
<feFlood flood-opacity="0" result="BackgroundImageFix"/>
<feBlend mode="normal" in="SourceGraphic" in2="BackgroundImageFix" result="shape"/>
<feTurbulence type="fractalNoise" baseFrequency="2 2" stitchTiles="stitch" numOctaves="3" result="noise" seed="6640" />
<feColorMatrix in="noise" type="luminanceToAlpha" result="alphaNoise" />
<feComponentTransfer in="alphaNoise" result="coloredNoise1">
<feFuncA type="discrete" tableValues="1 1 1 1 1 1 1 1 1 1 1 1 1 1 1 1 1 1 1 1 1 1 1 1 1 1 1 1 1 1 1 1 1 1 1 1 1 1 1 1 1 1 1 1 1 1 1 1 1 1 1 0 0 0 0 0 0 0 0 0 0 0 0 0 0 0 0 0 0 0 0 0 0 0 0 0 0 0 0 0 0 0 0 0 0 0 0 0 0 0 0 0 0 0 0 0 0 0 0 0 "/>
</feComponentTransfer>
<feComposite operator="in" in2="shape" in="coloredNoise1" result="noise1Clipped" />
<feFlood flood-color="rgba(0, 0, 0, 0.2)" result="color1Flood" />
<feComposite operator="in" in2="noise1Clipped" in="color1Flood" result="color1" />
<feMerge result="effect1_noise_748_5223">
<feMergeNode in="shape" />
<feMergeNode in="color1" />
</feMerge>
</filter>
</defs>
</svg>
