<svg width="136" height="375" viewBox="0 0 136 375" fill="none" xmlns="http://www.w3.org/2000/svg">
<g filter="url(#filter0_n_797_4997)">
<rect x="96" width="40" height="140" fill="#414245"/>
</g>
<mask id="mask0_797_4997" style="mask-type:alpha" maskUnits="userSpaceOnUse" x="96" y="0" width="40" height="144">
<rect x="96" width="40" height="144" fill="#414245"/>
</mask>
<g mask="url(#mask0_797_4997)">
<path d="M115.296 39.738C115.149 39.7967 115.039 39.7673 114.966 39.65C114.878 39.518 114.739 39.2907 114.548 38.968C114.357 38.66 114.167 38.3447 113.976 38.022C113.8 37.6993 113.668 37.4573 113.58 37.296C113.536 37.2373 113.529 37.1713 113.558 37.098C113.602 37.054 113.675 37.032 113.778 37.032C113.866 37.0173 113.961 37.01 114.064 37.01C114.181 37.01 114.313 37.0027 114.46 36.988C114.695 36.9587 114.944 36.9293 115.208 36.9C115.487 36.856 115.78 36.812 116.088 36.768V25.746C116.088 24.514 116.081 23.5607 116.066 22.886C116.051 22.1967 116.029 21.6833 116 21.346C115.971 21.0087 115.919 20.752 115.846 20.576C115.817 20.4733 115.831 20.4 115.89 20.356C115.949 20.2973 116.029 20.29 116.132 20.334C116.264 20.378 116.455 20.4587 116.704 20.576C116.953 20.6787 117.203 20.7887 117.452 20.906C117.716 21.0233 117.936 21.126 118.112 21.214H122.094C122.211 21.214 122.299 21.17 122.358 21.082C122.431 20.994 122.512 20.884 122.6 20.752C122.688 20.62 122.761 20.51 122.82 20.422C122.908 20.3047 123.04 20.2827 123.216 20.356C123.363 20.4147 123.546 20.51 123.766 20.642C123.986 20.7593 124.206 20.8913 124.426 21.038C124.661 21.17 124.837 21.2873 124.954 21.39C125.057 21.4633 125.101 21.5587 125.086 21.676C125.071 21.7933 124.998 21.8887 124.866 21.962C124.807 21.9913 124.749 22.0207 124.69 22.05C124.631 22.0793 124.573 22.1087 124.514 22.138C124.426 22.1967 124.36 22.2553 124.316 22.314C124.287 22.3727 124.272 22.4753 124.272 22.622C124.272 23.8687 124.279 24.9907 124.294 25.988C124.323 26.9707 124.345 27.7773 124.36 28.408C124.375 29.024 124.382 29.4053 124.382 29.552C124.382 29.7133 124.221 29.86 123.898 29.992C123.575 30.1093 123.238 30.168 122.886 30.168C122.739 30.168 122.622 30.1387 122.534 30.08C122.446 30.0213 122.402 29.9113 122.402 29.75V29.134H119.96C120.033 29.9553 120.165 30.7107 120.356 31.4C120.561 32.0893 120.825 32.7127 121.148 33.27C121.471 32.9767 121.837 32.6027 122.248 32.148C122.673 31.6787 123.003 31.224 123.238 30.784C123.326 30.6667 123.385 30.5713 123.414 30.498C123.458 30.41 123.487 30.3367 123.502 30.278C123.546 30.19 123.59 30.1387 123.634 30.124C123.678 30.1093 123.737 30.124 123.81 30.168C123.957 30.256 124.162 30.4027 124.426 30.608C124.705 30.7987 124.976 30.9967 125.24 31.202C125.504 31.4073 125.709 31.576 125.856 31.708C125.959 31.7813 125.966 31.8913 125.878 32.038C125.805 32.1553 125.702 32.192 125.57 32.148C125.423 32.0893 125.299 32.0673 125.196 32.082C125.093 32.0967 124.954 32.1553 124.778 32.258C124.323 32.4927 123.773 32.7567 123.128 33.05C122.497 33.3287 121.94 33.5707 121.456 33.776C122.057 34.6853 122.798 35.4333 123.678 36.02C124.573 36.6067 125.533 37.076 126.56 37.428C126.091 37.5893 125.636 37.8533 125.196 38.22C124.771 38.6013 124.455 38.9607 124.25 39.298C123.678 38.9167 123.143 38.484 122.644 38C122.16 37.5013 121.713 36.9367 121.302 36.306C120.965 36.4673 120.547 36.6653 120.048 36.9C119.549 37.1347 119.029 37.3767 118.486 37.626C117.943 37.8753 117.43 38.1027 116.946 38.308C116.477 38.528 116.095 38.6967 115.802 38.814C115.626 38.8873 115.509 38.9607 115.45 39.034C115.391 39.1073 115.384 39.232 115.428 39.408C115.443 39.4667 115.443 39.5253 115.428 39.584C115.413 39.6427 115.369 39.694 115.296 39.738ZM107.706 39.518C107.545 39.5913 107.435 39.562 107.376 39.43C107.303 39.298 107.178 39.078 107.002 38.77C106.841 38.4767 106.672 38.176 106.496 37.868C106.335 37.5453 106.21 37.3033 106.122 37.142C106.122 37.1273 106.122 37.1127 106.122 37.098C106.093 37.0393 106.093 36.988 106.122 36.944C106.151 36.9 106.225 36.878 106.342 36.878C106.415 36.878 106.503 36.878 106.606 36.878C106.709 36.878 106.833 36.8707 106.98 36.856C107.317 36.8267 107.721 36.7753 108.19 36.702C108.659 36.6287 109.158 36.5553 109.686 36.482V30.212H107.838C107.838 30.212 107.677 30.2193 107.354 30.234C107.031 30.234 106.679 30.256 106.298 30.3L106.078 29.398C106.533 29.4713 106.936 29.5153 107.288 29.53C107.655 29.5447 107.838 29.552 107.838 29.552H109.686V26.846H107.332C106.892 27.33 106.43 27.792 105.946 28.232C105.726 28.232 105.616 28.122 105.616 27.902C106.144 27.242 106.628 26.5233 107.068 25.746C107.508 24.9687 107.882 24.1987 108.19 23.436C108.513 22.6733 108.769 21.984 108.96 21.368C109.151 20.7373 109.261 20.246 109.29 19.894C109.29 19.8207 109.312 19.762 109.356 19.718C109.4 19.674 109.466 19.674 109.554 19.718C109.613 19.7327 109.752 19.784 109.972 19.872C110.207 19.96 110.463 20.0553 110.742 20.158C111.021 20.2607 111.27 20.3633 111.49 20.466C111.71 20.554 111.849 20.6127 111.908 20.642C112.055 20.7007 112.099 20.8107 112.04 20.972C111.996 21.1333 111.893 21.1993 111.732 21.17C111.512 21.126 111.351 21.1627 111.248 21.28C111.849 21.412 112.421 21.588 112.964 21.808C113.521 22.028 113.998 22.292 114.394 22.6C114.79 22.908 115.054 23.26 115.186 23.656C115.333 24.0813 115.333 24.448 115.186 24.756C115.054 25.0493 114.871 25.24 114.636 25.328C114.46 25.3867 114.291 25.3867 114.13 25.328C113.969 25.2693 113.829 25.13 113.712 24.91C113.419 24.2647 113.045 23.656 112.59 23.084C112.15 22.512 111.615 22.0573 110.984 21.72C110.573 22.512 110.104 23.282 109.576 24.03C109.063 24.778 108.513 25.4967 107.926 26.186H111.82C111.967 26.186 112.084 26.1347 112.172 26.032C112.245 25.944 112.355 25.812 112.502 25.636C112.649 25.4453 112.751 25.306 112.81 25.218C112.942 25.0567 113.096 25.042 113.272 25.174C113.389 25.2473 113.529 25.3647 113.69 25.526C113.866 25.6727 114.035 25.8267 114.196 25.988C114.357 26.1347 114.475 26.252 114.548 26.34C114.665 26.4573 114.702 26.5747 114.658 26.692C114.629 26.7947 114.563 26.846 114.46 26.846H111.446V29.552H112.634C112.781 29.552 112.898 29.5007 112.986 29.398C113.059 29.31 113.177 29.1633 113.338 28.958C113.514 28.7527 113.631 28.6133 113.69 28.54C113.807 28.3787 113.954 28.3567 114.13 28.474C114.247 28.562 114.394 28.6867 114.57 28.848C114.746 29.0093 114.915 29.1707 115.076 29.332C115.252 29.4933 115.377 29.618 115.45 29.706C115.553 29.8233 115.589 29.9407 115.56 30.058C115.531 30.1607 115.457 30.212 115.34 30.212H111.446V36.174C112.238 36.042 112.986 35.91 113.69 35.778C114.409 35.6313 114.966 35.514 115.362 35.426C115.553 35.4993 115.597 35.6387 115.494 35.844C115.127 35.9907 114.621 36.1887 113.976 36.438C113.345 36.6873 112.663 36.9587 111.93 37.252C111.197 37.5453 110.5 37.8167 109.84 38.066C109.18 38.33 108.645 38.5353 108.234 38.682C108.058 38.7407 107.941 38.7993 107.882 38.858C107.823 38.9313 107.809 39.0487 107.838 39.21C107.867 39.3567 107.823 39.4593 107.706 39.518ZM117.892 36.46C118.493 36.3573 119.073 36.2547 119.63 36.152C120.202 36.0347 120.671 35.932 121.038 35.844C120.569 35.0227 120.18 34.062 119.872 32.962C119.579 31.8473 119.381 30.5713 119.278 29.134H117.892V36.46ZM117.892 28.474H122.402V25.482H117.892V28.474ZM117.892 24.8H122.402V21.874H117.892V24.8ZM108.278 35.888C108.073 35.932 107.882 35.9027 107.706 35.8C107.545 35.6827 107.457 35.4847 107.442 35.206C107.398 34.4873 107.31 33.8127 107.178 33.182C107.061 32.5367 106.819 31.9573 106.452 31.444C106.452 31.2387 106.562 31.136 106.782 31.136C107.427 31.5467 107.963 32.016 108.388 32.544C108.828 33.0573 109.092 33.6367 109.18 34.282C109.239 34.6927 109.173 35.0447 108.982 35.338C108.791 35.6313 108.557 35.8147 108.278 35.888ZM111.732 35.712C111.673 35.7267 111.615 35.712 111.556 35.668C111.497 35.6093 111.468 35.5507 111.468 35.492C111.6 35.2867 111.769 34.9567 111.974 34.502C112.194 34.0473 112.399 33.556 112.59 33.028C112.795 32.5 112.949 32.0233 113.052 31.598C113.081 31.4807 113.096 31.378 113.096 31.29C113.111 31.1873 113.125 31.1067 113.14 31.048C113.14 30.9453 113.162 30.8867 113.206 30.872C113.25 30.828 113.316 30.828 113.404 30.872C113.551 30.9453 113.756 31.0553 114.02 31.202C114.284 31.334 114.548 31.4733 114.812 31.62C115.076 31.752 115.274 31.862 115.406 31.95C115.509 32.0087 115.531 32.1113 115.472 32.258C115.428 32.4047 115.333 32.456 115.186 32.412C115.054 32.368 114.951 32.3533 114.878 32.368C114.819 32.3827 114.731 32.4707 114.614 32.632C114.365 32.9547 114.049 33.3213 113.668 33.732C113.301 34.1427 112.942 34.5313 112.59 34.898C112.238 35.25 111.952 35.5213 111.732 35.712ZM108.784 63.814L108.564 62.868C109.107 62.956 109.576 63.0073 109.972 63.022C110.368 63.0367 110.566 63.044 110.566 63.044H116.022V59.128H112.304C112.304 59.128 112.113 59.1353 111.732 59.15C111.351 59.15 110.94 59.1867 110.5 59.26L110.28 58.292C110.837 58.38 111.307 58.4313 111.688 58.446C112.084 58.4607 112.282 58.468 112.282 58.468H116.022V50.35C116.022 50.042 116.007 49.8073 115.978 49.646C115.949 49.4847 115.912 49.3673 115.868 49.294C115.824 49.1913 115.817 49.1107 115.846 49.052C115.89 48.9933 115.963 48.9713 116.066 48.986C116.242 49.0007 116.499 49.03 116.836 49.074C117.188 49.118 117.533 49.1693 117.87 49.228C118.222 49.2867 118.486 49.338 118.662 49.382C118.823 49.426 118.889 49.536 118.86 49.712C118.86 49.8587 118.772 49.9467 118.596 49.976C118.449 49.9907 118.31 50.0273 118.178 50.086C118.061 50.1447 118.002 50.262 118.002 50.438V58.468H120.862C121.023 58.468 121.148 58.4167 121.236 58.314C121.339 58.1967 121.471 58.0353 121.632 57.83C121.808 57.6247 121.947 57.4633 122.05 57.346C122.182 57.1847 122.343 57.1627 122.534 57.28C122.754 57.412 123.033 57.6173 123.37 57.896C123.722 58.16 123.986 58.3873 124.162 58.578C124.279 58.6807 124.316 58.798 124.272 58.93C124.243 59.062 124.169 59.128 124.052 59.128H118.002V63.044H122.27C122.461 63.044 122.6 62.9853 122.688 62.868C122.791 62.736 122.93 62.5453 123.106 62.296C123.297 62.032 123.443 61.8487 123.546 61.746C123.678 61.57 123.832 61.5407 124.008 61.658C124.169 61.7607 124.375 61.9073 124.624 62.098C124.873 62.2887 125.108 62.4793 125.328 62.67C125.563 62.8607 125.731 63.0147 125.834 63.132C125.951 63.2493 125.988 63.374 125.944 63.506C125.9 63.638 125.819 63.704 125.702 63.704C125.658 63.704 125.533 63.704 125.328 63.704C125.123 63.704 124.859 63.704 124.536 63.704C123.949 63.704 123.216 63.6967 122.336 63.682C121.456 63.682 120.503 63.682 119.476 63.682C118.464 63.682 117.452 63.682 116.44 63.682C115.428 63.682 114.497 63.682 113.646 63.682C112.795 63.682 112.091 63.682 111.534 63.682C110.991 63.6967 110.676 63.704 110.588 63.704C110.588 63.704 110.397 63.704 110.016 63.704C109.635 63.7187 109.224 63.7553 108.784 63.814ZM105.99 64.584C105.902 64.5987 105.821 64.584 105.748 64.54C105.675 64.496 105.631 64.43 105.616 64.342C106.144 63.4327 106.562 62.406 106.87 61.262C107.178 60.118 107.398 58.7687 107.53 57.214C107.662 55.6447 107.699 53.782 107.64 51.626C107.625 50.4087 107.589 49.3673 107.53 48.502C107.486 47.6367 107.427 47.094 107.354 46.874C107.31 46.786 107.325 46.7053 107.398 46.632C107.457 46.588 107.537 46.588 107.64 46.632C107.772 46.676 107.963 46.764 108.212 46.896C108.476 47.0133 108.747 47.1453 109.026 47.292C109.319 47.424 109.569 47.5413 109.774 47.644H115.23V46.104C115.23 45.8107 115.208 45.576 115.164 45.4C115.135 45.2093 115.098 45.0773 115.054 45.004C114.995 44.916 114.988 44.8353 115.032 44.762C115.076 44.7033 115.157 44.6813 115.274 44.696C115.465 44.696 115.736 44.7253 116.088 44.784C116.455 44.8427 116.821 44.9013 117.188 44.96C117.555 45.0187 117.826 45.0773 118.002 45.136C118.178 45.18 118.251 45.29 118.222 45.466C118.207 45.642 118.112 45.73 117.936 45.73C117.775 45.7447 117.635 45.7887 117.518 45.862C117.401 45.9207 117.342 46.038 117.342 46.214V47.644H121.984C122.16 47.644 122.292 47.5927 122.38 47.49C122.439 47.4313 122.534 47.3213 122.666 47.16C122.798 46.9987 122.93 46.8373 123.062 46.676C123.194 46.5147 123.282 46.4047 123.326 46.346C123.443 46.214 123.597 46.192 123.788 46.28C123.935 46.3533 124.133 46.4853 124.382 46.676C124.631 46.8667 124.873 47.0647 125.108 47.27C125.343 47.4753 125.504 47.6293 125.592 47.732C125.709 47.8493 125.746 47.974 125.702 48.106C125.673 48.238 125.599 48.304 125.482 48.304H109.598V53.034C109.598 54.97 109.437 56.6567 109.114 58.094C108.806 59.5313 108.381 60.778 107.838 61.834C107.295 62.8753 106.679 63.792 105.99 64.584ZM118.618 57.83C118.413 57.83 118.295 57.7273 118.266 57.522C118.75 56.8913 119.161 56.2093 119.498 55.476C119.835 54.728 120.099 53.9947 120.29 53.276C120.495 52.5427 120.642 51.89 120.73 51.318C120.818 50.7313 120.847 50.284 120.818 49.976C120.833 49.9467 120.84 49.9247 120.84 49.91C120.855 49.8807 120.869 49.8587 120.884 49.844C120.943 49.8147 120.994 49.8073 121.038 49.822C121.229 49.866 121.5 49.9467 121.852 50.064C122.204 50.1667 122.556 50.2767 122.908 50.394C123.26 50.5113 123.531 50.614 123.722 50.702C123.854 50.7607 123.905 50.8707 123.876 51.032C123.861 51.164 123.759 51.23 123.568 51.23C123.407 51.23 123.282 51.252 123.194 51.296C123.121 51.3253 123.047 51.4207 122.974 51.582C122.827 51.9633 122.659 52.3373 122.468 52.704C122.292 53.0707 122.101 53.4227 121.896 53.76C122.556 53.8773 123.209 54.09 123.854 54.398C124.499 54.6913 124.954 55.102 125.218 55.63C125.409 56.0113 125.431 56.378 125.284 56.73C125.152 57.0673 124.947 57.2947 124.668 57.412C124.463 57.5 124.25 57.5073 124.03 57.434C123.81 57.346 123.634 57.1627 123.502 56.884C123.267 56.3267 122.989 55.8353 122.666 55.41C122.358 54.9847 121.991 54.6107 121.566 54.288C121.111 55.0067 120.635 55.6667 120.136 56.268C119.637 56.8693 119.131 57.39 118.618 57.83ZM109.884 57.83C109.649 57.8593 109.532 57.764 109.532 57.544C109.987 56.928 110.368 56.2533 110.676 55.52C110.984 54.7867 111.233 54.0607 111.424 53.342C111.615 52.6087 111.754 51.9487 111.842 51.362C111.93 50.7607 111.981 50.2987 111.996 49.976C111.996 49.9173 112.018 49.866 112.062 49.822C112.121 49.7927 112.172 49.7853 112.216 49.8C112.407 49.844 112.671 49.9173 113.008 50.02C113.36 50.1227 113.705 50.2327 114.042 50.35C114.394 50.4527 114.665 50.5407 114.856 50.614C114.988 50.658 115.039 50.7607 115.01 50.922C114.995 51.0687 114.9 51.142 114.724 51.142C114.563 51.142 114.438 51.164 114.35 51.208C114.277 51.2373 114.203 51.3327 114.13 51.494C113.969 51.934 113.785 52.3593 113.58 52.77C113.375 53.166 113.162 53.5547 112.942 53.936C113.499 54.1267 114.005 54.376 114.46 54.684C114.929 54.992 115.245 55.4173 115.406 55.96C115.509 56.312 115.494 56.6273 115.362 56.906C115.245 57.1847 115.061 57.368 114.812 57.456C114.577 57.544 114.35 57.5587 114.13 57.5C113.925 57.4267 113.785 57.2507 113.712 56.972C113.565 56.4587 113.419 55.9893 113.272 55.564C113.14 55.1387 112.935 54.7647 112.656 54.442C112.231 55.1313 111.776 55.762 111.292 56.334C110.823 56.906 110.353 57.4047 109.884 57.83ZM106.1 89.606C106.027 89.5473 105.975 89.474 105.946 89.386C105.931 89.298 105.953 89.2247 106.012 89.166C107.024 88.8873 107.941 88.5353 108.762 88.11C109.583 87.6993 110.287 87.1053 110.874 86.328C111.461 85.5507 111.893 84.502 112.172 83.182H108.718C108.718 83.182 108.527 83.1893 108.146 83.204C107.765 83.204 107.354 83.2333 106.914 83.292L106.694 82.346C107.251 82.434 107.721 82.4853 108.102 82.5C108.498 82.5147 108.696 82.522 108.696 82.522H112.304C112.377 82.0673 112.429 81.576 112.458 81.048C112.502 80.52 112.524 79.9627 112.524 79.376H111.754C111.754 79.376 111.6 79.3833 111.292 79.398C110.999 79.398 110.661 79.4273 110.28 79.486L110.082 78.738C109.407 79.2367 108.733 79.6767 108.058 80.058C107.383 80.4247 106.723 80.74 106.078 81.004C105.873 80.9013 105.821 80.762 105.924 80.586C107.009 79.97 108.058 79.178 109.07 78.21C110.082 77.2273 110.977 76.142 111.754 74.954C112.546 73.7513 113.125 72.5267 113.492 71.28H109.378C109.378 71.28 109.231 71.2873 108.938 71.302C108.659 71.302 108.307 71.3313 107.882 71.39L107.64 70.444C108.168 70.532 108.586 70.5833 108.894 70.598C109.217 70.6127 109.378 70.62 109.378 70.62H113.228C113.375 70.62 113.485 70.576 113.558 70.488C113.631 70.3853 113.719 70.2753 113.822 70.158C113.925 70.0407 114.013 69.9453 114.086 69.872C114.189 69.74 114.313 69.7107 114.46 69.784C114.577 69.828 114.761 69.916 115.01 70.048C115.274 70.18 115.538 70.3193 115.802 70.466C116.081 70.6127 116.301 70.7373 116.462 70.84C116.433 70.752 116.418 70.6787 116.418 70.62C116.462 70.532 116.528 70.4807 116.616 70.466C116.704 70.4367 116.777 70.444 116.836 70.488C116.997 71.016 117.195 71.5073 117.43 71.962C117.665 72.4167 117.929 72.8567 118.222 73.282C118.662 72.754 119.058 72.1967 119.41 71.61C119.777 71.0233 120.011 70.554 120.114 70.202C120.143 70.0993 120.187 70.0407 120.246 70.026C120.334 70.026 120.407 70.048 120.466 70.092C120.613 70.18 120.818 70.3193 121.082 70.51C121.346 70.7007 121.61 70.8987 121.874 71.104C122.153 71.2947 122.365 71.456 122.512 71.588C122.629 71.676 122.644 71.7933 122.556 71.94C122.468 72.072 122.358 72.1087 122.226 72.05C122.05 71.9913 121.911 71.962 121.808 71.962C121.72 71.962 121.617 72.0133 121.5 72.116C121.045 72.4387 120.547 72.754 120.004 73.062C119.461 73.3553 118.999 73.5973 118.618 73.788C118.867 74.1107 119.139 74.4113 119.432 74.69C119.725 74.9687 120.033 75.2327 120.356 75.482C120.708 75.174 121.053 74.8293 121.39 74.448C121.742 74.052 122.043 73.678 122.292 73.326C122.556 72.974 122.725 72.6953 122.798 72.49C122.827 72.3873 122.871 72.336 122.93 72.336C122.989 72.3213 123.055 72.336 123.128 72.38C123.275 72.4827 123.48 72.6367 123.744 72.842C124.023 73.0473 124.294 73.26 124.558 73.48C124.837 73.6853 125.049 73.854 125.196 73.986C125.299 74.0887 125.306 74.2133 125.218 74.36C125.145 74.492 125.035 74.5213 124.888 74.448C124.727 74.3747 124.595 74.338 124.492 74.338C124.404 74.338 124.294 74.382 124.162 74.47C123.707 74.7487 123.187 75.02 122.6 75.284C122.013 75.5333 121.463 75.746 120.95 75.922C121.771 76.494 122.629 76.978 123.524 77.374C124.433 77.77 125.313 78.0927 126.164 78.342C125.665 78.518 125.218 78.8113 124.822 79.222C124.426 79.618 124.14 79.9847 123.964 80.322C122.864 79.7353 121.815 79.0167 120.818 78.166C119.835 77.3007 118.97 76.3033 118.222 75.174C117.474 74.0447 116.924 72.7833 116.572 71.39C116.543 71.434 116.462 71.4707 116.33 71.5C116.11 71.5147 115.956 71.5513 115.868 71.61C115.78 71.654 115.699 71.7567 115.626 71.918C114.981 73.37 114.189 74.6533 113.25 75.768C112.311 76.868 111.321 77.8067 110.28 78.584C110.441 78.6133 110.661 78.6427 110.94 78.672C111.233 78.7013 111.497 78.716 111.732 78.716H117.452C117.613 78.716 117.738 78.6647 117.826 78.562C117.914 78.474 118.053 78.3053 118.244 78.056C118.449 77.8067 118.589 77.638 118.662 77.55C118.779 77.4033 118.933 77.3887 119.124 77.506C119.271 77.5793 119.454 77.6967 119.674 77.858C119.894 78.0193 120.107 78.188 120.312 78.364C120.517 78.54 120.664 78.6867 120.752 78.804C120.869 78.9507 120.906 79.0827 120.862 79.2C120.833 79.3173 120.745 79.376 120.598 79.376H118.684V82.522H121.478C121.654 82.522 121.793 82.4633 121.896 82.346C121.955 82.2727 122.043 82.1627 122.16 82.016C122.277 81.8547 122.395 81.7007 122.512 81.554C122.629 81.3927 122.71 81.2827 122.754 81.224C122.871 81.092 123.025 81.07 123.216 81.158C123.363 81.2313 123.561 81.3633 123.81 81.554C124.059 81.7447 124.301 81.9427 124.536 82.148C124.771 82.3533 124.932 82.5073 125.02 82.61C125.137 82.7273 125.174 82.852 125.13 82.984C125.101 83.116 125.027 83.182 124.91 83.182H118.684V86.922C118.684 87.1273 118.728 87.274 118.816 87.362C118.919 87.45 119.095 87.5013 119.344 87.516C119.593 87.5307 119.916 87.538 120.312 87.538C120.723 87.538 121.133 87.5233 121.544 87.494C121.969 87.4647 122.314 87.4207 122.578 87.362C122.798 87.318 122.967 87.2593 123.084 87.186C123.201 87.098 123.311 86.9367 123.414 86.702C123.473 86.57 123.546 86.3647 123.634 86.086C123.722 85.8073 123.81 85.5067 123.898 85.184C124.001 84.8613 124.089 84.568 124.162 84.304C124.235 84.0253 124.287 83.8347 124.316 83.732C124.507 83.6147 124.661 83.644 124.778 83.82C124.763 83.9227 124.749 84.1133 124.734 84.392C124.719 84.656 124.697 84.9493 124.668 85.272C124.653 85.58 124.639 85.866 124.624 86.13C124.609 86.3793 124.602 86.5407 124.602 86.614C124.602 86.8487 124.697 86.9953 124.888 87.054C125.137 87.142 125.335 87.2593 125.482 87.406C125.643 87.5527 125.724 87.7507 125.724 88C125.724 88.2347 125.629 88.4473 125.438 88.638C125.262 88.8433 124.917 89.0047 124.404 89.122C124.037 89.21 123.568 89.276 122.996 89.32C122.424 89.364 121.83 89.3933 121.214 89.408C120.598 89.4373 120.011 89.4447 119.454 89.43C118.897 89.43 118.442 89.4153 118.09 89.386C117.591 89.3567 117.232 89.232 117.012 89.012C116.807 88.8067 116.704 88.4987 116.704 88.088V83.182H114.174C113.807 84.722 113.228 85.932 112.436 86.812C111.644 87.692 110.705 88.3373 109.62 88.748C108.535 89.1733 107.361 89.4593 106.1 89.606ZM110.5 76.164C110.309 76.2227 110.133 76.2153 109.972 76.142C109.811 76.0687 109.693 75.9073 109.62 75.658C109.429 75.086 109.129 74.5287 108.718 73.986C108.307 73.4287 107.845 72.9887 107.332 72.666C107.303 72.5633 107.31 72.4753 107.354 72.402C107.398 72.314 107.457 72.2627 107.53 72.248C108.439 72.4093 109.239 72.666 109.928 73.018C110.617 73.37 111.05 73.8613 111.226 74.492C111.343 74.9027 111.321 75.262 111.16 75.57C110.999 75.878 110.779 76.076 110.5 76.164ZM114.328 82.522H116.704V79.376H114.592C114.577 80.5493 114.489 81.598 114.328 82.522ZM116 108.138C115.692 108.138 115.538 108.021 115.538 107.786C115.538 106.437 115.479 105.271 115.362 104.288C115.245 103.305 115.105 102.455 114.944 101.736C114.783 101.003 114.643 100.365 114.526 99.822C114.409 99.2647 114.35 98.7587 114.35 98.304C114.35 97.8347 114.482 97.4607 114.746 97.182C115.01 96.9033 115.428 96.764 116 96.764C116.587 96.764 117.005 96.9033 117.254 97.182C117.518 97.4607 117.65 97.8347 117.65 98.304C117.65 98.7587 117.591 99.2647 117.474 99.822C117.357 100.365 117.217 101.003 117.056 101.736C116.909 102.455 116.777 103.305 116.66 104.288C116.543 105.271 116.484 106.437 116.484 107.786C116.484 108.021 116.323 108.138 116 108.138ZM116.022 113.22C115.567 113.22 115.179 113.059 114.856 112.736C114.533 112.413 114.372 112.025 114.372 111.57C114.372 111.101 114.533 110.712 114.856 110.404C115.179 110.081 115.567 109.92 116.022 109.92C116.477 109.92 116.865 110.081 117.188 110.404C117.511 110.712 117.672 111.101 117.672 111.57C117.672 112.025 117.511 112.413 117.188 112.736C116.865 113.059 116.477 113.22 116.022 113.22Z" fill="white"/>
</g>
<g filter="url(#filter1_n_797_4997)">
<rect y="174" width="40" height="201" fill="#414245"/>
</g>
<path d="M20.176 212.166C18.812 212.166 17.5433 211.961 16.37 211.55C15.2113 211.139 14.192 210.545 13.312 209.768C12.4467 208.991 11.772 208.052 11.288 206.952C10.804 205.852 10.562 204.613 10.562 203.234C10.562 201.767 10.8113 200.433 11.31 199.23C11.8233 198.027 12.5347 196.993 13.444 196.128C14.3533 195.248 15.4093 194.573 16.612 194.104C17.8293 193.635 19.1347 193.4 20.528 193.4C21.848 193.4 23.0213 193.613 24.048 194.038C25.0747 194.449 25.94 195.013 26.644 195.732C27.3627 196.436 27.9053 197.228 28.272 198.108C28.6387 198.988 28.822 199.89 28.822 200.814C28.822 201.665 28.69 202.508 28.426 203.344C28.1767 204.165 27.7953 204.913 27.282 205.588C26.7687 206.248 26.1307 206.776 25.368 207.172C24.6053 207.568 23.7107 207.766 22.684 207.766C22.1707 207.766 21.76 207.656 21.452 207.436C21.144 207.216 20.99 206.857 20.99 206.358C20.99 206.167 21.0047 205.94 21.034 205.676C21.078 205.397 21.122 205.155 21.166 204.95C20.902 205.375 20.5867 205.808 20.22 206.248C19.868 206.673 19.4427 207.033 18.944 207.326C18.46 207.619 17.8733 207.766 17.184 207.766C16.4507 207.766 15.886 207.502 15.49 206.974C15.1087 206.431 14.918 205.801 14.918 205.082C14.918 204.173 15.0793 203.263 15.402 202.354C15.7393 201.43 16.1793 200.594 16.722 199.846C17.2793 199.083 17.91 198.475 18.614 198.02C19.318 197.565 20.044 197.338 20.792 197.338C21.32 197.338 21.7527 197.463 22.09 197.712C22.4273 197.961 22.662 198.306 22.794 198.746L23.102 197.602C23.1607 197.411 23.2853 197.316 23.476 197.316H24.862C24.95 197.316 25.0233 197.353 25.082 197.426C25.1407 197.499 25.1553 197.58 25.126 197.668C24.7593 198.944 24.4587 199.993 24.224 200.814C24.004 201.621 23.828 202.259 23.696 202.728C23.564 203.183 23.4613 203.52 23.388 203.74C23.3293 203.945 23.2927 204.077 23.278 204.136C23.2633 204.18 23.256 204.202 23.256 204.202C23.1973 204.466 23.1313 204.752 23.058 205.06C22.9847 205.368 22.948 205.647 22.948 205.896C22.948 206.131 23.0067 206.329 23.124 206.49C23.2413 206.637 23.4467 206.71 23.74 206.71C24.18 206.71 24.642 206.578 25.126 206.314C25.61 206.035 26.0573 205.639 26.468 205.126C26.8933 204.613 27.238 203.982 27.502 203.234C27.766 202.486 27.898 201.628 27.898 200.66C27.898 199.78 27.7147 198.959 27.348 198.196C26.996 197.419 26.49 196.744 25.83 196.172C25.1847 195.585 24.4147 195.131 23.52 194.808C22.6253 194.485 21.65 194.324 20.594 194.324C19.23 194.324 18.042 194.581 17.03 195.094C16.018 195.593 15.1747 196.282 14.5 197.162C13.8253 198.027 13.3193 199.01 12.982 200.11C12.6593 201.195 12.498 202.332 12.498 203.52C12.498 205.133 12.8427 206.512 13.532 207.656C14.2213 208.785 15.1527 209.651 16.326 210.252C17.4993 210.853 18.8047 211.154 20.242 211.154C20.99 211.154 21.7747 211.066 22.596 210.89C23.4173 210.714 24.2313 210.428 25.038 210.032C25.8447 209.636 26.5853 209.108 27.26 208.448C27.9493 207.788 28.5213 206.967 28.976 205.984C29.2547 205.881 29.4453 205.969 29.548 206.248C29.0347 207.568 28.2793 208.668 27.282 209.548C26.2993 210.413 25.1847 211.066 23.938 211.506C22.706 211.946 21.452 212.166 20.176 212.166ZM18.218 206.292C18.6433 206.292 19.0393 206.145 19.406 205.852C19.7873 205.544 20.1247 205.185 20.418 204.774C20.726 204.349 20.9753 203.96 21.166 203.608C21.342 203.285 21.5107 202.897 21.672 202.442C21.8333 201.973 21.9653 201.503 22.068 201.034C22.1853 200.55 22.244 200.132 22.244 199.78C22.244 199.296 22.1193 198.9 21.87 198.592C21.6353 198.284 21.3053 198.13 20.88 198.13C20.4987 198.13 20.1247 198.299 19.758 198.636C19.3913 198.959 19.0467 199.391 18.724 199.934C18.4013 200.462 18.1153 201.027 17.866 201.628C17.6313 202.229 17.4407 202.809 17.294 203.366C17.162 203.923 17.1033 204.385 17.118 204.752C17.1327 205.177 17.2207 205.544 17.382 205.852C17.558 206.145 17.8367 206.292 18.218 206.292ZM12.8448 234C12.6395 234 12.5368 233.89 12.5368 233.67C12.5368 233.45 12.6395 233.34 12.8448 233.34C13.5488 233.34 14.0475 233.237 14.3408 233.032C14.6488 232.827 14.8028 232.482 14.8028 231.998V220.008C14.8028 219.524 14.6562 219.187 14.3628 218.996C14.0695 218.791 13.5562 218.688 12.8228 218.688C12.6175 218.688 12.5148 218.578 12.5148 218.358C12.5148 218.138 12.6175 218.028 12.8228 218.028C12.9402 218.028 13.2848 218.043 13.8568 218.072C14.4288 218.087 15.1328 218.094 15.9688 218.094C16.9515 218.094 17.7215 218.087 18.2788 218.072C18.8508 218.043 19.2908 218.028 19.5988 218.028C20.5228 218.028 21.4248 218.175 22.3048 218.468C23.1995 218.747 23.9988 219.201 24.7028 219.832C25.4068 220.463 25.9642 221.291 26.3748 222.318C26.8002 223.33 27.0128 224.569 27.0128 226.036C27.0128 227.444 26.8002 228.654 26.3748 229.666C25.9642 230.678 25.3995 231.507 24.6808 232.152C23.9768 232.783 23.1848 233.252 22.3048 233.56C21.4248 233.853 20.5228 234 19.5988 234C19.2908 234 18.8435 233.993 18.2568 233.978C17.6848 233.963 16.9148 233.956 15.9468 233.956C15.1108 233.956 14.4215 233.963 13.8788 233.978C13.3362 233.993 12.9915 234 12.8448 234ZM17.5968 233.274H19.3788C19.9802 233.274 20.5668 233.164 21.1388 232.944C21.7255 232.709 22.2535 232.328 22.7228 231.8C23.2068 231.257 23.5882 230.517 23.8668 229.578C24.1602 228.639 24.3068 227.459 24.3068 226.036C24.3068 224.555 24.1748 223.337 23.9108 222.384C23.6468 221.431 23.2875 220.69 22.8328 220.162C22.3782 219.634 21.8722 219.267 21.3148 219.062C20.7575 218.857 20.1782 218.754 19.5768 218.754H17.5968C17.4648 218.754 17.3548 218.783 17.2668 218.842C17.1935 218.901 17.1568 219.025 17.1568 219.216V232.834C17.1568 233.127 17.3035 233.274 17.5968 233.274ZM13.3707 257C13.1654 257 13.0627 256.883 13.0627 256.648C13.0627 256.428 13.1654 256.318 13.3707 256.318C14.104 256.318 14.632 256.23 14.9547 256.054C15.292 255.878 15.4607 255.519 15.4607 254.976V243.008C15.4607 242.509 15.3067 242.165 14.9987 241.974C14.6907 241.783 14.1774 241.688 13.4587 241.688C13.268 241.688 13.1727 241.571 13.1727 241.336C13.1727 241.263 13.1947 241.197 13.2387 241.138C13.2827 241.065 13.356 241.028 13.4587 241.028C13.576 241.028 14.1407 241.035 15.1527 241.05C16.1794 241.065 17.6754 241.072 19.6407 241.072C21.5034 241.072 22.926 241.065 23.9087 241.05C24.906 241.035 25.4634 241.028 25.5807 241.028C25.9327 241.028 26.116 241.197 26.1307 241.534C26.1454 241.666 26.16 241.879 26.1747 242.172C26.204 242.465 26.226 242.781 26.2407 243.118C26.2554 243.441 26.2627 243.734 26.2627 243.998C26.2774 244.247 26.2847 244.401 26.2847 244.46C26.2847 244.519 26.27 244.585 26.2407 244.658C26.2114 244.717 26.138 244.753 26.0207 244.768C25.9327 244.768 25.8594 244.761 25.8007 244.746C25.742 244.717 25.6834 244.651 25.6247 244.548C25.4487 244.181 25.2214 243.785 24.9427 243.36C24.6787 242.92 24.3194 242.546 23.8647 242.238C23.4247 241.915 22.838 241.754 22.1047 241.754H18.2327C18.1007 241.754 17.9907 241.791 17.9027 241.864C17.8147 241.923 17.7707 242.04 17.7707 242.216V248.178C17.7707 248.369 17.866 248.464 18.0567 248.464H19.4427C20.0587 248.464 20.528 248.339 20.8507 248.09C21.188 247.841 21.4374 247.555 21.5987 247.232C21.76 246.895 21.892 246.594 21.9947 246.33C22.024 246.227 22.0607 246.154 22.1047 246.11C22.1634 246.051 22.244 246.022 22.3467 246.022C22.5374 246.022 22.6327 246.132 22.6327 246.352C22.6327 246.455 22.6327 246.653 22.6327 246.946C22.6327 247.225 22.6254 247.54 22.6107 247.892C22.6107 248.229 22.6107 248.545 22.6107 248.838C22.6107 249.117 22.6107 249.447 22.6107 249.828C22.6254 250.195 22.6327 250.532 22.6327 250.84C22.6327 251.148 22.6327 251.353 22.6327 251.456C22.6327 251.676 22.5374 251.786 22.3467 251.786C22.1854 251.786 22.068 251.683 21.9947 251.478C21.892 251.214 21.76 250.906 21.5987 250.554C21.4374 250.202 21.188 249.894 20.8507 249.63C20.528 249.351 20.0587 249.212 19.4427 249.212H18.0567C17.866 249.212 17.7707 249.315 17.7707 249.52V255.812C17.7707 256.105 17.9247 256.252 18.2327 256.252H21.7087C22.4127 256.252 23.0067 256.127 23.4907 255.878C23.9894 255.629 24.3927 255.321 24.7007 254.954C25.0087 254.573 25.2507 254.199 25.4267 253.832C25.6174 253.451 25.764 253.128 25.8667 252.864C25.9107 252.747 25.962 252.681 26.0207 252.666C26.094 252.637 26.1747 252.629 26.2627 252.644C26.38 252.659 26.4534 252.695 26.4827 252.754C26.512 252.813 26.5267 252.879 26.5267 252.952C26.5267 253.011 26.5194 253.194 26.5047 253.502C26.5047 253.795 26.4974 254.14 26.4827 254.536C26.4827 254.917 26.4754 255.277 26.4607 255.614C26.4607 255.951 26.4607 256.186 26.4607 256.318C26.4607 256.509 26.402 256.67 26.2847 256.802C26.182 256.934 26.0207 257 25.8007 257C25.7127 257 25.4707 256.993 25.0747 256.978C24.6934 256.963 24.0847 256.956 23.2487 256.956C22.4127 256.941 21.2687 256.934 19.8167 256.934C17.998 256.934 16.502 256.949 15.3287 256.978C14.17 256.993 13.5174 257 13.3707 257ZM24.947 280.044C24.6243 280.059 24.3897 280.044 24.243 280C24.111 279.971 23.9863 279.861 23.869 279.67C23.693 279.362 23.4217 278.907 23.055 278.306C22.6883 277.69 22.2557 276.986 21.757 276.194C21.2583 275.387 20.7303 274.551 20.173 273.686C19.6157 272.806 19.0657 271.941 18.523 271.09C17.9803 270.239 17.4743 269.455 17.005 268.736C16.5503 268.017 16.169 267.423 15.861 266.954C15.553 266.485 15.3623 266.191 15.289 266.074C15.2597 266.03 15.2157 266.015 15.157 266.03C15.113 266.03 15.091 266.067 15.091 266.14V276.348C15.091 277.463 15.289 278.24 15.685 278.68C16.0957 279.105 16.5723 279.318 17.115 279.318C17.3203 279.318 17.423 279.435 17.423 279.67C17.423 279.89 17.3203 280 17.115 280C16.9683 280 16.6897 279.993 16.279 279.978C15.883 279.949 15.3623 279.934 14.717 279.934C13.9543 279.934 13.4043 279.949 13.067 279.978C12.7297 279.993 12.4803 280 12.319 280C12.1283 280 12.033 279.89 12.033 279.67C12.033 279.435 12.1283 279.318 12.319 279.318C12.891 279.318 13.353 279.105 13.705 278.68C14.0717 278.24 14.255 277.47 14.255 276.37V266.206C14.255 265.605 14.1157 265.201 13.837 264.996C13.5583 264.791 13.1623 264.688 12.649 264.688C12.4437 264.688 12.341 264.571 12.341 264.336C12.341 264.263 12.363 264.197 12.407 264.138C12.4657 264.065 12.5463 264.028 12.649 264.028C12.7663 264.028 13.0963 264.035 13.639 264.05C14.1963 264.065 15.0177 264.072 16.103 264.072C16.3523 264.072 16.5357 264.109 16.653 264.182C16.785 264.255 16.9023 264.38 17.005 264.556C17.0637 264.659 17.2397 264.945 17.533 265.414C17.841 265.869 18.215 266.441 18.655 267.13C19.095 267.805 19.5717 268.538 20.085 269.33C20.5983 270.122 21.1117 270.914 21.625 271.706C22.1383 272.498 22.615 273.231 23.055 273.906C23.495 274.581 23.8617 275.138 24.155 275.578C24.4483 276.018 24.6243 276.282 24.683 276.37C24.7563 276.473 24.8297 276.509 24.903 276.48C24.9763 276.451 25.013 276.385 25.013 276.282V267.68C25.013 266.595 24.8223 265.825 24.441 265.37C24.0743 264.915 23.5903 264.688 22.989 264.688C22.7983 264.688 22.703 264.571 22.703 264.336C22.703 264.263 22.725 264.197 22.769 264.138C22.8277 264.065 22.901 264.028 22.989 264.028C23.1503 264.028 23.4217 264.043 23.803 264.072C24.1843 264.087 24.705 264.094 25.365 264.094C25.9957 264.094 26.4943 264.087 26.861 264.072C27.2423 264.043 27.5063 264.028 27.653 264.028C27.7557 264.028 27.8363 264.065 27.895 264.138C27.9537 264.197 27.983 264.263 27.983 264.336C27.983 264.571 27.873 264.688 27.653 264.688C27.1983 264.688 26.7803 264.915 26.399 265.37C26.0323 265.81 25.849 266.587 25.849 267.702V275.996C25.849 276.773 25.8637 277.404 25.893 277.888C25.9223 278.372 25.9517 278.885 25.981 279.428C25.9957 279.604 25.9223 279.751 25.761 279.868C25.5997 279.985 25.3283 280.044 24.947 280.044ZM16.7889 303C16.5836 303 16.4809 302.89 16.4809 302.67C16.4809 302.435 16.5836 302.318 16.7889 302.318C17.5223 302.318 18.0356 302.215 18.3289 302.01C18.6223 301.805 18.7689 301.46 18.7689 300.976V288.216C18.7689 287.908 18.6149 287.754 18.3069 287.754H16.8769C16.3196 287.754 15.8429 287.879 15.4469 288.128C15.0656 288.363 14.7429 288.663 14.4789 289.03C14.2296 289.382 14.0169 289.741 13.8409 290.108C13.6796 290.475 13.5476 290.783 13.4449 291.032C13.4156 291.135 13.3643 291.193 13.2909 291.208C13.2323 291.223 13.1443 291.223 13.0269 291.208C12.8803 291.193 12.8069 291.098 12.8069 290.922C12.8069 290.863 12.8143 290.687 12.8289 290.394C12.8436 290.086 12.8583 289.734 12.8729 289.338C12.8876 288.942 12.9023 288.575 12.9169 288.238C12.9463 287.901 12.9609 287.666 12.9609 287.534C12.9903 287.197 13.1809 287.028 13.5329 287.028C13.6503 287.028 14.2883 287.043 15.4469 287.072C16.6203 287.087 18.1383 287.094 20.0009 287.094C21.8636 287.094 23.3816 287.087 24.5549 287.072C25.7429 287.043 26.3883 287.028 26.4909 287.028C26.8576 287.028 27.0483 287.204 27.0629 287.556C27.0629 287.659 27.0703 287.879 27.0849 288.216C27.1143 288.553 27.1363 288.92 27.1509 289.316C27.1656 289.712 27.1803 290.064 27.1949 290.372C27.2096 290.68 27.2169 290.863 27.2169 290.922C27.2169 291.098 27.1289 291.193 26.9529 291.208C26.8796 291.223 26.8063 291.223 26.7329 291.208C26.6743 291.193 26.6156 291.135 26.5569 291.032C26.4396 290.783 26.3003 290.475 26.1389 290.108C25.9776 289.741 25.7649 289.382 25.5009 289.03C25.2369 288.663 24.9143 288.363 24.5329 288.128C24.1516 287.879 23.6823 287.754 23.1249 287.754H21.5629C21.4163 287.754 21.2989 287.783 21.2109 287.842C21.1229 287.901 21.0789 288.025 21.0789 288.216V300.976C21.0789 301.416 21.1889 301.753 21.4089 301.988C21.6436 302.208 22.1716 302.318 22.9929 302.318C23.0956 302.318 23.1763 302.355 23.2349 302.428C23.2936 302.501 23.3229 302.582 23.3229 302.67C23.3229 302.89 23.2129 303 22.9929 303C22.8463 303 22.5236 302.993 22.0249 302.978C21.5409 302.949 20.8443 302.934 19.9349 302.934C19.0109 302.934 18.2923 302.949 17.7789 302.978C17.2656 302.993 16.9356 303 16.7889 303ZM12.2929 326C12.0875 326 11.9849 325.89 11.9849 325.67C11.9849 325.435 12.0875 325.318 12.2929 325.318C12.7622 325.318 13.1435 325.215 13.4369 325.01C13.7449 324.805 14.0162 324.46 14.2509 323.976C14.3535 323.771 14.5149 323.389 14.7349 322.832C14.9549 322.275 15.2115 321.607 15.5049 320.83C15.8129 320.053 16.1282 319.224 16.4509 318.344C16.7882 317.449 17.1182 316.562 17.4409 315.682C17.7635 314.802 18.0642 313.981 18.3429 313.218C18.6215 312.455 18.8562 311.81 19.0469 311.282C19.2522 310.754 19.3842 310.402 19.4429 310.226C19.5162 310.035 19.6042 309.911 19.7069 309.852C19.8095 309.793 19.9782 309.764 20.2129 309.764C20.4622 309.764 20.6382 309.801 20.7409 309.874C20.8582 309.933 20.9462 310.043 21.0049 310.204C21.0929 310.453 21.2542 310.901 21.4889 311.546C21.7235 312.177 22.0022 312.932 22.3249 313.812C22.6475 314.677 22.9849 315.594 23.3369 316.562C23.7035 317.515 24.0555 318.454 24.3929 319.378C24.7302 320.287 25.0309 321.109 25.2949 321.842C25.5735 322.561 25.7862 323.111 25.9329 323.492C26.4022 324.709 26.9889 325.318 27.6929 325.318C27.8835 325.318 27.9789 325.435 27.9789 325.67C27.9789 325.89 27.8835 326 27.6929 326C27.5462 326 27.2602 325.993 26.8349 325.978C26.4242 325.963 25.8375 325.956 25.0749 325.956C24.4442 325.956 23.8795 325.963 23.3809 325.978C22.8822 325.993 22.5522 326 22.3909 326C22.2002 326 22.1049 325.89 22.1049 325.67C22.1049 325.435 22.2002 325.318 22.3909 325.318C23.0362 325.318 23.4175 325.193 23.5349 324.944C23.6522 324.68 23.6449 324.365 23.5129 323.998C23.4982 323.925 23.4029 323.631 23.2269 323.118C23.0655 322.59 22.8162 321.842 22.4789 320.874C22.4202 320.727 22.3615 320.639 22.3029 320.61C22.2589 320.581 22.1855 320.566 22.0829 320.566H16.6049C16.4582 320.566 16.3702 320.632 16.3409 320.764C16.2529 321.072 16.1429 321.439 16.0109 321.864C15.8789 322.275 15.7615 322.671 15.6589 323.052C15.5709 323.433 15.5269 323.741 15.5269 323.976C15.5269 324.46 15.6589 324.805 15.9229 325.01C16.1869 325.215 16.5242 325.318 16.9349 325.318C17.1402 325.318 17.2429 325.435 17.2429 325.67C17.2429 325.89 17.1402 326 16.9349 326C16.7882 326 16.5242 325.993 16.1429 325.978C15.7762 325.963 15.2702 325.956 14.6249 325.956C14.0529 325.956 13.5542 325.963 13.1289 325.978C12.7182 325.993 12.4395 326 12.2929 326ZM16.9569 319.796H21.7749C21.8482 319.796 21.9142 319.781 21.9729 319.752C22.0315 319.708 22.0389 319.627 21.9949 319.51C21.8042 318.953 21.5842 318.322 21.3349 317.618C21.1002 316.914 20.8655 316.225 20.6309 315.55C20.3962 314.861 20.1835 314.259 19.9929 313.746C19.8169 313.233 19.6995 312.895 19.6409 312.734C19.5969 312.617 19.5382 312.558 19.4649 312.558C19.4062 312.558 19.3549 312.609 19.3109 312.712C19.2669 312.815 19.1642 313.071 19.0029 313.482C18.8562 313.878 18.6729 314.362 18.4529 314.934C18.2475 315.491 18.0275 316.071 17.7929 316.672C17.5729 317.259 17.3675 317.809 17.1769 318.322C17.0009 318.821 16.8689 319.209 16.7809 319.488C16.7075 319.693 16.7662 319.796 16.9569 319.796ZM13.36 349C13.1546 349 13.052 348.89 13.052 348.67C13.052 348.435 13.1546 348.318 13.36 348.318C14.0786 348.318 14.6066 348.237 14.944 348.076C15.2813 347.9 15.45 347.533 15.45 346.976V334.986C15.45 334.502 15.3106 334.165 15.032 333.974C14.768 333.783 14.2766 333.688 13.558 333.688C13.3526 333.688 13.25 333.571 13.25 333.336C13.25 333.116 13.3526 333.006 13.558 333.006C13.6753 333.006 14.0126 333.013 14.57 333.028C15.142 333.043 15.824 333.05 16.616 333.05C17.3933 333.05 18.0826 333.043 18.684 333.028C19.3 333.013 19.6593 333.006 19.762 333.006C19.9673 333.006 20.07 333.116 20.07 333.336C20.07 333.571 19.9673 333.688 19.762 333.688C19.0286 333.688 18.508 333.783 18.2 333.974C17.9066 334.165 17.76 334.502 17.76 334.986V347.834C17.76 348.127 17.914 348.274 18.222 348.274H22.16C22.9666 348.274 23.634 348.083 24.162 347.702C24.69 347.306 25.1153 346.829 25.438 346.272C25.7753 345.7 26.032 345.157 26.208 344.644C26.252 344.527 26.3106 344.453 26.384 344.424C26.4573 344.395 26.5306 344.387 26.604 344.402C26.7213 344.417 26.7946 344.461 26.824 344.534C26.868 344.593 26.89 344.659 26.89 344.732C26.89 344.776 26.8826 344.952 26.868 345.26C26.868 345.568 26.8606 345.935 26.846 346.36C26.846 346.771 26.8386 347.159 26.824 347.526C26.824 347.893 26.824 348.164 26.824 348.34C26.7946 348.78 26.5746 349 26.164 349C26.076 349 25.812 349 25.372 349C24.932 348.985 24.2646 348.978 23.37 348.978C22.4753 348.963 21.302 348.956 19.85 348.956C18.6473 348.956 17.5766 348.963 16.638 348.978C15.6993 348.978 14.944 348.985 14.372 349C13.8 349 13.4626 349 13.36 349Z" fill="#FFFAD7"/>
<g filter="url(#filter2_n_797_4997)">
<rect x="48" y="24" width="40" height="327" fill="#414245"/>
</g>
<path d="M58.794 63.584C58.662 63.672 58.552 63.65 58.464 63.518C58.3467 63.342 58.1853 63.1073 57.98 62.814C57.7747 62.5353 57.584 62.2493 57.408 61.956C57.232 61.6627 57.1 61.4353 57.012 61.274C56.968 61.1713 56.9607 61.098 56.99 61.054C57.0047 61.01 57.0633 60.9733 57.166 60.944C57.2393 60.9293 57.3273 60.922 57.43 60.922C57.5327 60.9073 57.65 60.8853 57.782 60.856C58.0753 60.7827 58.4347 60.68 58.86 60.548C59.3 60.4013 59.7253 60.2547 60.136 60.108V53.574C60.092 53.574 60.0407 53.574 59.982 53.574C59.9233 53.574 59.85 53.574 59.762 53.574C59.5567 53.574 59.322 53.574 59.058 53.574C58.794 53.5593 58.6107 53.5593 58.508 53.574C58.508 53.574 58.3613 53.5813 58.068 53.596C57.7893 53.596 57.474 53.6253 57.122 53.684L56.902 52.738C57.342 52.826 57.716 52.8773 58.024 52.892C58.332 52.9067 58.486 52.914 58.486 52.914H59.806C59.9087 52.914 59.9893 52.8773 60.048 52.804C60.1213 52.7013 60.2167 52.5767 60.334 52.43C60.466 52.2687 60.5687 52.1367 60.642 52.034C60.7447 51.902 60.884 51.8873 61.06 51.99C61.148 52.0487 61.2727 52.122 61.434 52.21C61.5953 52.298 61.7567 52.4007 61.918 52.518C62.534 51.7113 63.0767 50.89 63.546 50.054C64.03 49.2033 64.426 48.382 64.734 47.59C65.0567 46.798 65.306 46.0867 65.482 45.456C65.658 44.8107 65.7533 44.2973 65.768 43.916C65.768 43.7987 65.79 43.7327 65.834 43.718C65.8927 43.674 65.966 43.6667 66.054 43.696C66.2593 43.74 66.516 43.8133 66.824 43.916C67.1467 44.0187 67.4693 44.1213 67.792 44.224C68.1147 44.3267 68.3713 44.422 68.562 44.51C68.7087 44.5687 68.7527 44.6787 68.694 44.84C68.6647 44.9867 68.562 45.06 68.386 45.06C68.2393 45.06 68.1147 45.082 68.012 45.126C67.9093 45.17 67.7993 45.302 67.682 45.522C67.286 46.3287 66.824 47.1427 66.296 47.964L66.45 48.052H69.53C69.8673 47.2747 70.1313 46.4973 70.322 45.72C70.5127 44.928 70.608 44.3267 70.608 43.916C70.608 43.7987 70.63 43.7327 70.674 43.718C70.7473 43.674 70.8207 43.6593 70.894 43.674C71.0993 43.7327 71.3633 43.828 71.686 43.96C72.0087 44.0773 72.3313 44.202 72.654 44.334C72.9767 44.4513 73.226 44.554 73.402 44.642C73.5633 44.7007 73.6147 44.8107 73.556 44.972C73.512 45.1333 73.402 45.1993 73.226 45.17C73.0647 45.17 72.9327 45.192 72.83 45.236C72.742 45.2653 72.632 45.3753 72.5 45.566C72.1627 46.006 71.8107 46.4387 71.444 46.864C71.0773 47.2893 70.7107 47.6853 70.344 48.052H73.336C73.512 48.052 73.6367 48.0007 73.71 47.898C73.7833 47.7953 73.9007 47.634 74.062 47.414C74.238 47.1793 74.3627 47.0107 74.436 46.908C74.568 46.732 74.7293 46.71 74.92 46.842C75.14 46.9887 75.4113 47.2013 75.734 47.48C76.0713 47.744 76.3207 47.9713 76.482 48.162C76.5993 48.2647 76.636 48.382 76.592 48.514C76.5627 48.646 76.4893 48.712 76.372 48.712H71.114V51.44H72.72C72.896 51.44 73.028 51.3887 73.116 51.286C73.1893 51.1833 73.2993 51.0293 73.446 50.824C73.5927 50.6187 73.7027 50.4647 73.776 50.362C73.908 50.186 74.062 50.164 74.238 50.296C74.458 50.4427 74.722 50.648 75.03 50.912C75.338 51.1613 75.5727 51.3667 75.734 51.528C75.8513 51.6307 75.888 51.7553 75.844 51.902C75.8147 52.034 75.7413 52.1 75.624 52.1H71.114V54.85H72.72C72.8227 54.85 72.896 54.8427 72.94 54.828C72.9987 54.8133 73.0573 54.7693 73.116 54.696C73.1893 54.608 73.2993 54.4613 73.446 54.256C73.5927 54.0507 73.7027 53.8893 73.776 53.772C73.908 53.6107 74.062 53.596 74.238 53.728C74.458 53.8747 74.722 54.08 75.03 54.344C75.338 54.5933 75.5727 54.7987 75.734 54.96C75.8513 55.0627 75.888 55.1873 75.844 55.334C75.8147 55.466 75.7413 55.532 75.624 55.532H71.114V58.546H73.358C73.534 58.546 73.666 58.4947 73.754 58.392C73.798 58.3333 73.8713 58.2307 73.974 58.084C74.0913 57.9373 74.2087 57.7907 74.326 57.644C74.4433 57.4827 74.524 57.3653 74.568 57.292C74.7 57.1307 74.854 57.116 75.03 57.248C75.1767 57.336 75.3527 57.468 75.558 57.644C75.778 57.82 75.9833 57.996 76.174 58.172C76.3793 58.348 76.5333 58.502 76.636 58.634C76.7533 58.766 76.79 58.898 76.746 59.03C76.702 59.1473 76.614 59.206 76.482 59.206H66.384V59.844C66.384 60.02 66.2373 60.1813 65.944 60.328C65.6507 60.46 65.2987 60.526 64.888 60.526C64.5653 60.526 64.404 60.3793 64.404 60.086C64.404 59.998 64.4113 59.7047 64.426 59.206C64.4407 58.6927 64.4627 58.04 64.492 57.248C64.5213 56.456 64.5433 55.5613 64.558 54.564C64.5727 53.5667 64.58 52.5253 64.58 51.44V50.362C64.228 50.7873 63.8613 51.2053 63.48 51.616C63.1133 52.012 62.7247 52.4007 62.314 52.782C62.402 52.8407 62.4827 52.8993 62.556 52.958C62.644 53.0167 62.71 53.0607 62.754 53.09C62.8567 53.1633 62.9007 53.266 62.886 53.398C62.886 53.5153 62.8127 53.6107 62.666 53.684C62.49 53.7573 62.358 53.8307 62.27 53.904C62.1087 53.9773 62.028 54.146 62.028 54.41V59.316C62.028 59.9907 62.3873 60.504 63.106 60.856C63.8247 61.208 65.042 61.384 66.758 61.384C67.594 61.384 68.4887 61.3693 69.442 61.34C70.3953 61.3107 71.3487 61.274 72.302 61.23C73.2553 61.186 74.15 61.1347 74.986 61.076C75.8367 61.0027 76.5627 60.922 77.164 60.834C76.9147 61.1127 76.6947 61.494 76.504 61.978C76.3133 62.4473 76.2033 62.8727 76.174 63.254H66.868C65.7827 63.254 64.8733 63.1073 64.14 62.814C63.4067 62.5207 62.8347 62.1467 62.424 61.692C62.0133 61.2227 61.7347 60.7387 61.588 60.24C61.368 60.46 61.0967 60.724 60.774 61.032C60.466 61.34 60.158 61.6407 59.85 61.934C59.5567 62.2273 59.3147 62.4547 59.124 62.616C59.0213 62.7187 58.948 62.8067 58.904 62.88C58.8747 62.968 58.882 63.0927 58.926 63.254C58.9407 63.4007 58.8967 63.5107 58.794 63.584ZM61.104 48.866C60.884 48.9247 60.6713 48.91 60.466 48.822C60.2753 48.7193 60.1433 48.5213 60.07 48.228C59.8647 47.48 59.586 46.8053 59.234 46.204C58.8967 45.588 58.4053 45.0747 57.76 44.664C57.7013 44.4293 57.782 44.2973 58.002 44.268C58.5447 44.3853 59.1167 44.5687 59.718 44.818C60.334 45.0527 60.862 45.368 61.302 45.764C61.742 46.16 61.9913 46.666 62.05 47.282C62.0793 47.722 61.9913 48.0813 61.786 48.36C61.5953 48.6387 61.368 48.8073 61.104 48.866ZM66.384 58.546H69.222V55.532H66.384V58.546ZM66.384 54.85H69.222V52.1H66.384V54.85ZM66.384 51.44H69.222V48.712H66.384V51.44ZM68.716 88.056C68.2027 87.9973 67.8213 87.8507 67.572 87.616C67.3227 87.396 67.198 87.0587 67.198 86.604V71.424C67.198 70.9107 67.176 70.5 67.132 70.192C67.088 69.884 67.0293 69.6567 66.956 69.51C66.912 69.422 66.912 69.334 66.956 69.246C67.0147 69.1873 67.0953 69.1653 67.198 69.18C67.4033 69.1947 67.682 69.2313 68.034 69.29C68.386 69.334 68.738 69.3927 69.09 69.466C69.442 69.5393 69.7207 69.6053 69.926 69.664C70.0727 69.6933 70.146 69.8033 70.146 69.994C70.1313 70.1553 70.0287 70.2507 69.838 70.28C69.6767 70.2947 69.53 70.3387 69.398 70.412C69.2807 70.4853 69.222 70.6393 69.222 70.874V78.112C69.706 77.7453 70.212 77.32 70.74 76.836C71.2827 76.3373 71.796 75.824 72.28 75.296C72.764 74.7533 73.1527 74.2327 73.446 73.734C73.5927 73.514 73.688 73.3307 73.732 73.184C73.776 73.0813 73.82 73.0227 73.864 73.008C73.9227 72.9933 73.996 73.008 74.084 73.052C74.26 73.1693 74.5093 73.36 74.832 73.624C75.1547 73.8733 75.4773 74.13 75.8 74.394C76.1373 74.6433 76.3793 74.834 76.526 74.966C76.6433 75.054 76.6433 75.1713 76.526 75.318C76.4527 75.45 76.35 75.4793 76.218 75.406C76.0273 75.3327 75.866 75.296 75.734 75.296C75.6167 75.296 75.4773 75.3547 75.316 75.472C74.4067 76.1613 73.402 76.8067 72.302 77.408C71.202 77.9947 70.1753 78.4933 69.222 78.904V85.438C69.222 85.8193 69.4713 86.032 69.97 86.076C70.322 86.1053 70.7547 86.12 71.268 86.12C71.7813 86.1053 72.2873 86.0833 72.786 86.054C73.2993 86.01 73.71 85.9587 74.018 85.9C74.2527 85.8413 74.4213 85.768 74.524 85.68C74.6413 85.5773 74.744 85.394 74.832 85.13C74.8907 84.9833 74.964 84.7487 75.052 84.426C75.1547 84.0887 75.2573 83.7293 75.36 83.348C75.4773 82.9667 75.5727 82.622 75.646 82.314C75.734 82.006 75.7927 81.808 75.822 81.72C76.0127 81.588 76.1593 81.61 76.262 81.786C76.262 81.874 76.2473 82.0793 76.218 82.402C76.2033 82.71 76.1813 83.062 76.152 83.458C76.1373 83.8393 76.1153 84.1913 76.086 84.514C76.0713 84.822 76.064 85.0273 76.064 85.13C76.0493 85.3793 76.1447 85.5333 76.35 85.592C76.5993 85.6947 76.812 85.834 76.988 86.01C77.164 86.1713 77.252 86.3767 77.252 86.626C77.252 86.89 77.1567 87.1247 76.966 87.33C76.7753 87.5353 76.416 87.6893 75.888 87.792C75.5067 87.88 74.9933 87.946 74.348 87.99C73.7173 88.0487 73.0427 88.0853 72.324 88.1C71.6053 88.1293 70.9233 88.1367 70.278 88.122C69.6327 88.122 69.112 88.1 68.716 88.056ZM61.302 88.584C60.9647 88.584 60.796 88.4447 60.796 88.166C60.796 88.122 60.8033 87.8873 60.818 87.462C60.8327 87.0513 60.8473 86.5233 60.862 85.878C60.8913 85.218 60.9133 84.4993 60.928 83.722C60.9573 82.9447 60.9793 82.16 60.994 81.368C61.0087 80.576 61.016 79.8427 61.016 79.168V76.792C60.3413 77.7893 59.652 78.7207 58.948 79.586C58.244 80.4367 57.5693 81.17 56.924 81.786C56.6893 81.786 56.572 81.6833 56.572 81.478C57.1 80.7593 57.6427 79.9307 58.2 78.992C58.772 78.0533 59.3147 77.056 59.828 76C60.3413 74.944 60.796 73.8953 61.192 72.854C61.6027 71.8127 61.9107 70.8373 62.116 69.928C62.16 69.7373 62.182 69.5687 62.182 69.422C62.1967 69.2753 62.1967 69.158 62.182 69.07C62.182 68.9527 62.1967 68.8793 62.226 68.85C62.27 68.7913 62.3433 68.7767 62.446 68.806C62.6513 68.8647 62.93 68.96 63.282 69.092C63.6487 69.2093 64.008 69.334 64.36 69.466C64.7267 69.5833 65.0053 69.686 65.196 69.774C65.3133 69.8327 65.3573 69.9427 65.328 70.104C65.284 70.2653 65.1887 70.346 65.042 70.346C64.8513 70.3167 64.7047 70.324 64.602 70.368C64.4993 70.3973 64.4113 70.5147 64.338 70.72C63.898 71.7467 63.392 72.7807 62.82 73.822V79.168C62.82 79.432 62.82 79.828 62.82 80.356C62.82 80.884 62.82 81.478 62.82 82.138C62.8347 82.798 62.842 83.4653 62.842 84.14C62.842 84.8 62.842 85.416 62.842 85.988C62.8567 86.56 62.864 87.022 62.864 87.374C62.864 87.7407 62.864 87.9313 62.864 87.946C62.864 88.1073 62.6953 88.254 62.358 88.386C62.0353 88.518 61.6833 88.584 61.302 88.584ZM57.254 113.144L57.034 112.198C57.5913 112.286 58.0607 112.337 58.442 112.352C58.838 112.367 59.036 112.374 59.036 112.374H65.746V109.096H61.698C61.698 109.096 61.5073 109.103 61.126 109.118C60.7593 109.118 60.356 109.155 59.916 109.228L59.696 108.26C60.2387 108.348 60.708 108.399 61.104 108.414C61.5 108.429 61.698 108.436 61.698 108.436H65.746V107.38C65.746 106.808 65.7093 106.39 65.636 106.126C65.504 106.243 65.2987 106.346 65.02 106.434C64.756 106.507 64.4847 106.544 64.206 106.544C63.8687 106.544 63.7 106.397 63.7 106.104C63.7 105.899 63.7 105.503 63.7 104.916C63.7147 104.329 63.722 103.625 63.722 102.804C63.7367 101.983 63.744 101.139 63.744 100.274H61.83C61.8153 101.653 61.6027 102.841 61.192 103.838C60.796 104.821 60.2533 105.627 59.564 106.258C58.8747 106.889 58.0753 107.373 57.166 107.71C57.078 107.681 57.012 107.622 56.968 107.534C56.9387 107.446 56.946 107.365 56.99 107.292C57.9727 106.691 58.6987 105.847 59.168 104.762C59.652 103.677 59.9013 102.181 59.916 100.274C59.7987 100.274 59.6887 100.274 59.586 100.274C59.4833 100.274 59.388 100.274 59.3 100.274C59.1533 100.274 59.0287 100.274 58.926 100.274C58.8233 100.274 58.75 100.274 58.706 100.274C58.706 100.274 58.5447 100.281 58.222 100.296C57.914 100.296 57.5693 100.318 57.188 100.362L56.99 99.46C57.4593 99.5333 57.8627 99.5773 58.2 99.592C58.5373 99.6067 58.706 99.614 58.706 99.614H59.938V95.654H59.19C59.19 95.654 59.036 95.6613 58.728 95.676C58.42 95.676 58.0753 95.7053 57.694 95.764L57.474 94.862C57.9433 94.9207 58.3467 94.9573 58.684 94.972C59.0213 94.9867 59.19 94.994 59.19 94.994H65.416C65.5773 94.994 65.6947 94.9427 65.768 94.84C65.8413 94.7227 65.9513 94.576 66.098 94.4C66.2447 94.2093 66.3473 94.0627 66.406 93.96C66.5233 93.828 66.6773 93.8133 66.868 93.916C67.0587 94.0333 67.308 94.224 67.616 94.488C67.924 94.752 68.1513 94.9647 68.298 95.126C68.4007 95.2287 68.4373 95.346 68.408 95.478C68.3787 95.5953 68.3053 95.654 68.188 95.654H65.614V99.614H65.922C66.0687 99.614 66.186 99.5627 66.274 99.46C66.3473 99.3427 66.4647 99.174 66.626 98.954C66.7873 98.7193 66.912 98.5507 67 98.448C67.1027 98.2867 67.2493 98.272 67.44 98.404C67.572 98.492 67.7333 98.624 67.924 98.8C68.1147 98.9613 68.298 99.13 68.474 99.306C68.6647 99.4673 68.804 99.6067 68.892 99.724C69.0093 99.8413 69.046 99.966 69.002 100.098C68.958 100.215 68.8773 100.274 68.76 100.274H65.614C65.614 101.007 65.6213 101.733 65.636 102.452C65.6507 103.156 65.6653 103.787 65.68 104.344C65.7093 104.901 65.724 105.319 65.724 105.598H65.79C65.9807 105.613 66.2593 105.649 66.626 105.708C67.0073 105.752 67.3887 105.811 67.77 105.884C68.1513 105.943 68.43 105.994 68.606 106.038C68.7527 106.067 68.826 106.177 68.826 106.368C68.8113 106.529 68.716 106.625 68.54 106.654C68.3787 106.669 68.2393 106.705 68.122 106.764C68.0047 106.823 67.946 106.947 67.946 107.138V108.436H71.026C71.2167 108.436 71.356 108.377 71.444 108.26C71.532 108.143 71.6713 107.967 71.862 107.732C72.0527 107.497 72.1773 107.329 72.236 107.226C72.3533 107.094 72.5073 107.079 72.698 107.182C72.8447 107.255 73.028 107.387 73.248 107.578C73.4827 107.754 73.7027 107.937 73.908 108.128C74.128 108.319 74.282 108.465 74.37 108.568C74.4873 108.685 74.524 108.803 74.48 108.92C74.4507 109.037 74.3773 109.096 74.26 109.096H67.946V112.374H73.204C73.3653 112.374 73.4973 112.315 73.6 112.198C73.6587 112.139 73.754 112.029 73.886 111.868C74.0327 111.707 74.172 111.545 74.304 111.384C74.4507 111.223 74.546 111.12 74.59 111.076C74.722 110.929 74.876 110.907 75.052 111.01C75.184 111.069 75.382 111.201 75.646 111.406C75.91 111.611 76.1667 111.817 76.416 112.022C76.68 112.227 76.856 112.374 76.944 112.462C77.0613 112.565 77.098 112.682 77.054 112.814C77.0247 112.961 76.9513 113.034 76.834 113.034C76.7607 113.034 76.5773 113.034 76.284 113.034C76.0053 113.034 75.6533 113.034 75.228 113.034C74.524 113.034 73.6587 113.027 72.632 113.012C71.62 113.012 70.5347 113.012 69.376 113.012C68.2173 113.012 67.066 113.012 65.922 113.012C64.778 113.012 63.7147 113.012 62.732 113.012C61.7493 113.012 60.928 113.012 60.268 113.012C59.6227 113.012 59.2193 113.019 59.058 113.034C59.058 113.034 58.8673 113.034 58.486 113.034C58.1047 113.049 57.694 113.085 57.254 113.144ZM72.874 106.852C72.742 106.28 72.588 105.847 72.412 105.554C72.236 105.246 71.994 105.026 71.686 104.894C71.378 104.762 70.9527 104.674 70.41 104.63C70.2927 104.454 70.3147 104.307 70.476 104.19C70.608 104.19 70.806 104.197 71.07 104.212C71.3487 104.227 71.6493 104.241 71.972 104.256C72.2947 104.256 72.5733 104.256 72.808 104.256C73.0573 104.256 73.226 104.219 73.314 104.146C73.402 104.058 73.446 103.919 73.446 103.728V95.522C73.446 95.1847 73.4313 94.9207 73.402 94.73C73.3727 94.5247 73.336 94.3707 73.292 94.268C73.2333 94.18 73.226 94.0993 73.27 94.026C73.314 93.9673 73.3873 93.938 73.49 93.938C73.666 93.9527 73.9227 93.9893 74.26 94.048C74.5973 94.092 74.9273 94.1433 75.25 94.202C75.5873 94.2607 75.844 94.312 76.02 94.356C76.196 94.4 76.2693 94.51 76.24 94.686C76.2253 94.8473 76.13 94.9427 75.954 94.972C75.8073 94.9867 75.6753 95.0233 75.558 95.082C75.4553 95.1407 75.404 95.258 75.404 95.434V98.162C75.404 99.8487 75.4113 101.154 75.426 102.078C75.4553 103.002 75.47 103.721 75.47 104.234C75.47 104.953 75.272 105.517 74.876 105.928C74.48 106.339 73.8127 106.647 72.874 106.852ZM69.772 103.508C69.42 103.508 69.244 103.361 69.244 103.068C69.244 102.98 69.2513 102.723 69.266 102.298C69.2953 101.858 69.3173 101.293 69.332 100.604C69.3467 99.9147 69.354 99.152 69.354 98.316V96.314C69.354 95.6833 69.2953 95.2653 69.178 95.06C69.1193 94.972 69.1193 94.8913 69.178 94.818C69.222 94.7593 69.2953 94.73 69.398 94.73C69.574 94.7447 69.8233 94.774 70.146 94.818C70.4687 94.862 70.784 94.9133 71.092 94.972C71.4147 95.0307 71.664 95.082 71.84 95.126C71.9867 95.1553 72.06 95.2653 72.06 95.456C72.0453 95.6173 71.95 95.7127 71.774 95.742C71.6127 95.7567 71.4733 95.7933 71.356 95.852C71.2533 95.9107 71.202 96.028 71.202 96.204V98.316C71.202 99.0787 71.2093 99.79 71.224 100.45C71.2533 101.095 71.2753 101.631 71.29 102.056C71.3047 102.481 71.312 102.753 71.312 102.87C71.312 103.046 71.1433 103.2 70.806 103.332C70.4687 103.449 70.124 103.508 69.772 103.508ZM61.83 99.614H63.744V95.654H61.83V99.614Z" fill="#FFFAD7"/>
<path d="M63.018 137.858C62.9153 137.814 62.8347 137.741 62.776 137.638C62.732 137.55 62.732 137.462 62.776 137.374C63.6707 136.919 64.492 136.421 65.24 135.878C65.988 135.321 66.6333 134.639 67.176 133.832C67.7333 133.011 68.166 131.991 68.474 130.774C68.782 129.542 68.936 128.039 68.936 126.264C68.936 125.311 68.9287 124.467 68.914 123.734C68.914 122.986 68.8773 122.399 68.804 121.974C68.76 121.607 68.672 121.351 68.54 121.204C68.4227 121.043 68.2173 120.955 67.924 120.94C67.8653 120.867 67.836 120.793 67.836 120.72C67.8507 120.632 67.8873 120.559 67.946 120.5C68.342 120.397 68.8333 120.383 69.42 120.456C70.0213 120.529 70.542 120.713 70.982 121.006C71.158 121.123 71.2753 121.277 71.334 121.468C71.3927 121.659 71.3633 121.835 71.246 121.996C71.0993 122.187 71.0113 122.429 70.982 122.722C70.9527 123.001 70.938 123.463 70.938 124.108V126.506C70.938 128.281 70.74 129.799 70.344 131.06C69.948 132.321 69.3907 133.377 68.672 134.228C67.968 135.079 67.132 135.79 66.164 136.362C65.196 136.934 64.1473 137.433 63.018 137.858ZM63.722 131.346C63.4287 131.346 63.1867 131.221 62.996 130.972C62.82 130.723 62.7467 130.437 62.776 130.114C62.8053 129.894 62.8273 129.476 62.842 128.86C62.8567 128.229 62.8567 127.525 62.842 126.748C62.842 126.352 62.842 125.941 62.842 125.516C62.842 125.091 62.8347 124.702 62.82 124.35C62.82 123.983 62.8127 123.705 62.798 123.514C62.7833 123.177 62.7393 122.927 62.666 122.766C62.5927 122.605 62.4753 122.487 62.314 122.414C62.182 122.282 62.006 122.179 61.786 122.106C61.698 121.974 61.7273 121.864 61.874 121.776C62.2407 121.673 62.688 121.651 63.216 121.71C63.744 121.769 64.1987 121.915 64.58 122.15C64.7707 122.253 64.9027 122.399 64.976 122.59C65.0493 122.781 65.0273 122.979 64.91 123.184C64.8073 123.331 64.7413 123.499 64.712 123.69C64.6827 123.881 64.6607 124.108 64.646 124.372C64.6313 124.695 64.6313 125.12 64.646 125.648C64.6607 126.161 64.6827 126.704 64.712 127.276C64.7413 127.833 64.7633 128.347 64.778 128.816C64.8073 129.139 64.822 129.417 64.822 129.652C64.8367 129.887 64.844 130.041 64.844 130.114C64.844 130.393 64.7267 130.671 64.492 130.95C64.2573 131.214 64.0007 131.346 63.722 131.346ZM62.38 157.088C62.3067 157.059 62.2553 157.007 62.226 156.934C62.1967 156.846 62.204 156.773 62.248 156.714C63.4213 156.201 64.536 155.563 65.592 154.8C66.648 154.023 67.5793 153.121 68.386 152.094C69.2073 151.067 69.8307 149.931 70.256 148.684C70.3587 148.391 70.432 148.127 70.476 147.892C70.52 147.657 70.52 147.452 70.476 147.276C70.388 146.983 70.1973 146.763 69.904 146.616C69.8453 146.455 69.8893 146.352 70.036 146.308C70.4027 146.308 70.8133 146.411 71.268 146.616C71.7373 146.821 72.1187 147.071 72.412 147.364C72.7787 147.731 72.7713 148.061 72.39 148.354C72.2287 148.486 72.0967 148.655 71.994 148.86C71.8913 149.051 71.7373 149.373 71.532 149.828C70.96 151.148 70.1753 152.285 69.178 153.238C68.1953 154.191 67.11 154.983 65.922 155.614C64.734 156.23 63.5533 156.721 62.38 157.088ZM63.568 151.17C63.4213 151.229 63.2673 151.221 63.106 151.148C62.9593 151.075 62.8493 150.921 62.776 150.686C62.644 150.158 62.4387 149.645 62.16 149.146C61.896 148.633 61.5953 148.207 61.258 147.87C61.2287 147.709 61.2947 147.613 61.456 147.584C61.9693 147.731 62.49 147.965 63.018 148.288C63.546 148.596 63.9127 149.014 64.118 149.542C64.2793 149.923 64.294 150.268 64.162 150.576C64.03 150.869 63.832 151.067 63.568 151.17ZM66.956 149.696C66.8093 149.755 66.6553 149.747 66.494 149.674C66.3473 149.601 66.2447 149.439 66.186 149.19C66.0833 148.647 65.9147 148.134 65.68 147.65C65.46 147.151 65.1813 146.719 64.844 146.352C64.844 146.205 64.9173 146.117 65.064 146.088C65.5627 146.279 66.0613 146.535 66.56 146.858C67.0587 147.166 67.396 147.584 67.572 148.112C67.704 148.493 67.6967 148.831 67.55 149.124C67.4033 149.417 67.2053 149.608 66.956 149.696ZM60.774 179.89C60.5247 179.787 60.4513 179.619 60.554 179.384C61.5367 178.871 62.5267 178.233 63.524 177.47C64.536 176.693 65.4893 175.82 66.384 174.852C67.2933 173.884 68.1 172.85 68.804 171.75C69.5227 170.635 70.0727 169.499 70.454 168.34C70.6153 167.885 70.4687 167.665 70.014 167.68C69.5593 167.695 69.0093 167.739 68.364 167.812C67.7333 167.871 67.088 167.944 66.428 168.032C65.768 168.105 65.1667 168.193 64.624 168.296C64.0813 168.399 63.6633 168.501 63.37 168.604C63.0033 168.751 62.6807 168.883 62.402 169C62.1233 169.117 61.852 169.176 61.588 169.176C61.2947 169.176 60.994 169.029 60.686 168.736C60.3927 168.443 60.1433 168.149 59.938 167.856C59.8207 167.665 59.74 167.475 59.696 167.284C59.6667 167.093 59.6593 166.925 59.674 166.778C59.7767 166.573 59.916 166.521 60.092 166.624C60.3413 166.903 60.6347 167.071 60.972 167.13C61.324 167.174 61.8593 167.167 62.578 167.108C62.9007 167.079 63.3627 167.042 63.964 166.998C64.58 166.939 65.24 166.881 65.944 166.822C66.648 166.749 67.3153 166.69 67.946 166.646C68.5767 166.587 69.068 166.551 69.42 166.536C69.904 166.492 70.278 166.338 70.542 166.074C70.7033 165.913 70.8573 165.832 71.004 165.832C71.1653 165.832 71.312 165.883 71.444 165.986C71.6053 166.089 71.8107 166.243 72.06 166.448C72.3093 166.653 72.5513 166.866 72.786 167.086C73.0353 167.291 73.2187 167.46 73.336 167.592C73.4973 167.768 73.556 167.951 73.512 168.142C73.4827 168.318 73.358 168.457 73.138 168.56C72.9033 168.677 72.72 168.831 72.588 169.022C72.4707 169.213 72.3313 169.484 72.17 169.836C71.5687 171.112 70.8353 172.278 69.97 173.334C69.1047 174.375 68.1587 175.314 67.132 176.15C66.12 176.986 65.0713 177.712 63.986 178.328C62.9007 178.944 61.83 179.465 60.774 179.89ZM75.492 166.756C74.8907 166.756 74.3773 166.543 73.952 166.118C73.5267 165.693 73.314 165.179 73.314 164.578C73.314 163.977 73.5267 163.471 73.952 163.06C74.3773 162.635 74.8907 162.422 75.492 162.422C76.0933 162.422 76.5993 162.635 77.01 163.06C77.4353 163.471 77.648 163.977 77.648 164.578C77.648 165.179 77.4353 165.693 77.01 166.118C76.5993 166.543 76.0933 166.756 75.492 166.756ZM75.492 166.03C75.8733 166.03 76.196 165.891 76.46 165.612C76.7387 165.319 76.878 164.974 76.878 164.578C76.878 164.182 76.7387 163.845 76.46 163.566C76.196 163.273 75.8733 163.126 75.492 163.126C75.096 163.126 74.7587 163.273 74.48 163.566C74.216 163.845 74.084 164.182 74.084 164.578C74.084 164.974 74.216 165.319 74.48 165.612C74.7587 165.891 75.096 166.03 75.492 166.03ZM61.324 204.572C61.2213 204.543 61.1407 204.484 61.082 204.396C61.0233 204.323 61.0087 204.235 61.038 204.132C61.9767 203.399 62.798 202.511 63.502 201.47C64.2207 200.429 64.8147 199.292 65.284 198.06C65.7533 196.828 66.0687 195.574 66.23 194.298C66.274 193.99 66.23 193.748 66.098 193.572C65.9807 193.396 65.7973 193.264 65.548 193.176C65.4893 193.103 65.4673 193.022 65.482 192.934C65.5113 192.846 65.5627 192.78 65.636 192.736C65.9293 192.707 66.2593 192.714 66.626 192.758C67.0073 192.802 67.3667 192.875 67.704 192.978C68.056 193.081 68.32 193.213 68.496 193.374C68.5107 193.389 68.5253 193.403 68.54 193.418C68.5547 193.433 68.5693 193.447 68.584 193.462C68.8773 193.227 69.2 192.956 69.552 192.648C69.9187 192.34 70.2633 192.039 70.586 191.746C70.9087 191.453 71.158 191.203 71.334 190.998C71.6273 190.631 71.5687 190.441 71.158 190.426C70.6007 190.411 69.97 190.426 69.266 190.47C68.5767 190.514 67.8653 190.573 67.132 190.646C66.3987 190.719 65.7093 190.807 65.064 190.91C64.4187 191.013 63.876 191.123 63.436 191.24C62.9227 191.372 62.4753 191.533 62.094 191.724C61.7127 191.915 61.3313 192.01 60.95 192.01C60.642 192.01 60.334 191.878 60.026 191.614C59.7327 191.35 59.4833 191.042 59.278 190.69C59.0873 190.323 58.97 190.008 58.926 189.744C58.9993 189.539 59.1313 189.48 59.322 189.568C59.6153 189.817 59.9673 189.986 60.378 190.074C60.8033 190.147 61.3533 190.133 62.028 190.03C62.5853 189.957 63.2307 189.891 63.964 189.832C64.6973 189.759 65.46 189.7 66.252 189.656C67.0587 189.597 67.8433 189.553 68.606 189.524C69.3833 189.48 70.08 189.451 70.696 189.436C70.9747 189.436 71.2313 189.399 71.466 189.326C71.7007 189.238 71.8987 189.135 72.06 189.018C72.2213 188.901 72.3607 188.849 72.478 188.864C72.61 188.864 72.7347 188.915 72.852 189.018C73.0133 189.15 73.226 189.37 73.49 189.678C73.7687 189.971 74.04 190.279 74.304 190.602C74.568 190.91 74.7733 191.159 74.92 191.35C74.9933 191.453 75.0227 191.555 75.008 191.658C75.008 191.761 74.9787 191.849 74.92 191.922C74.788 192.113 74.612 192.164 74.392 192.076C74.1867 192.003 73.996 191.988 73.82 192.032C73.644 192.061 73.4753 192.105 73.314 192.164C72.962 192.296 72.5 192.479 71.928 192.714C71.3707 192.949 70.806 193.191 70.234 193.44C69.662 193.689 69.1853 193.902 68.804 194.078C68.7893 194.166 68.716 194.276 68.584 194.408C68.452 194.511 68.3567 194.643 68.298 194.804C68.2393 194.965 68.1807 195.163 68.122 195.398C67.8433 196.674 67.3887 197.899 66.758 199.072C66.142 200.231 65.372 201.279 64.448 202.218C63.5387 203.157 62.4973 203.941 61.324 204.572ZM66.032 252.88C65.8413 252.88 65.6287 252.785 65.394 252.594C65.174 252.403 64.9907 252.169 64.844 251.89C64.6973 251.597 64.6313 251.325 64.646 251.076C64.6753 250.856 64.7047 250.438 64.734 249.822C64.778 249.206 64.8147 248.458 64.844 247.578C64.888 246.683 64.9247 245.723 64.954 244.696C64.9833 243.655 64.998 242.599 64.998 241.528C64.998 241.381 64.998 241.235 64.998 241.088C64.998 240.941 64.998 240.802 64.998 240.67C64.998 239.746 64.9907 239.013 64.976 238.47C64.976 237.913 64.9613 237.487 64.932 237.194C64.9173 236.886 64.8733 236.659 64.8 236.512C64.756 236.263 64.6753 236.087 64.558 235.984C64.4407 235.867 64.25 235.786 63.986 235.742C63.8393 235.566 63.854 235.419 64.03 235.302C64.426 235.229 64.888 235.236 65.416 235.324C65.9587 235.397 66.4427 235.573 66.868 235.852C67.044 235.955 67.1613 236.101 67.22 236.292C67.2933 236.483 67.2567 236.666 67.11 236.842C66.9927 236.974 66.8973 237.209 66.824 237.546C66.7653 237.883 66.7213 238.375 66.692 239.02C66.6627 239.651 66.648 240.501 66.648 241.572C67.3667 241.675 68.0927 241.829 68.826 242.034C69.5593 242.239 70.2267 242.496 70.828 242.804C71.4293 243.112 71.884 243.486 72.192 243.926C72.544 244.381 72.6833 244.828 72.61 245.268C72.5513 245.708 72.3973 246.016 72.148 246.192C71.972 246.309 71.7887 246.361 71.598 246.346C71.4073 246.331 71.2387 246.221 71.092 246.016C70.5053 245.151 69.8307 244.395 69.068 243.75C68.3053 243.09 67.4987 242.599 66.648 242.276V242.474C66.648 243.457 66.6553 244.483 66.67 245.554C66.6993 246.61 66.7287 247.607 66.758 248.546C66.7873 249.47 66.8093 250.233 66.824 250.834C66.8387 251.127 66.846 251.369 66.846 251.56C66.8607 251.751 66.868 251.875 66.868 251.934C66.868 252.213 66.7873 252.44 66.626 252.616C66.4647 252.792 66.2667 252.88 66.032 252.88ZM59.256 276C58.992 275.927 58.8967 275.773 58.97 275.538C59.8207 274.995 60.7227 274.306 61.676 273.47C62.644 272.634 63.5973 271.688 64.536 270.632C65.4747 269.576 66.3253 268.461 67.088 267.288C66.5453 266.819 65.988 266.393 65.416 266.012C64.844 265.616 64.2647 265.293 63.678 265.044C63.6047 264.839 63.6633 264.699 63.854 264.626C64.4847 264.773 65.1447 264.963 65.834 265.198C66.5233 265.433 67.1907 265.711 67.836 266.034C68.4373 264.993 68.914 263.937 69.266 262.866C69.4713 262.191 69.5667 261.707 69.552 261.414C69.552 261.106 69.3907 260.827 69.068 260.578C69.024 260.358 69.0973 260.226 69.288 260.182C69.7427 260.285 70.1973 260.446 70.652 260.666C71.1067 260.886 71.51 261.172 71.862 261.524C72.0967 261.744 72.192 261.971 72.148 262.206C72.1187 262.426 72.0013 262.609 71.796 262.756C71.6493 262.859 71.5173 262.991 71.4 263.152C71.2827 263.313 71.158 263.563 71.026 263.9C70.586 264.956 70.058 265.968 69.442 266.936C69.9407 267.259 70.3807 267.611 70.762 267.992C71.158 268.359 71.4733 268.74 71.708 269.136C72.06 269.723 72.1773 270.258 72.06 270.742C71.9427 271.211 71.7447 271.512 71.466 271.644C71.07 271.835 70.7327 271.703 70.454 271.248C69.9113 270.324 69.2073 269.407 68.342 268.498C67.4473 269.657 66.472 270.72 65.416 271.688C64.3747 272.656 63.3187 273.507 62.248 274.24C61.192 274.959 60.1947 275.545 59.256 276ZM67.858 300.682C67.638 300.653 67.4253 300.543 67.22 300.352C67.0147 300.176 66.8533 299.963 66.736 299.714C66.6187 299.45 66.5747 299.193 66.604 298.944C66.6333 298.768 66.67 298.394 66.714 297.822C66.758 297.25 66.7947 296.568 66.824 295.776C66.868 294.984 66.9047 294.155 66.934 293.29C66.9633 292.425 66.978 291.603 66.978 290.826C66.978 290.665 66.9707 290.525 66.956 290.408C66.956 290.291 66.9487 290.181 66.934 290.078C66.098 290.855 65.2327 291.589 64.338 292.278C63.458 292.953 62.6 293.561 61.764 294.104C60.9427 294.632 60.1947 295.072 59.52 295.424C59.4173 295.395 59.3367 295.336 59.278 295.248C59.2193 295.16 59.2047 295.065 59.234 294.962C59.762 294.595 60.356 294.133 61.016 293.576C61.6907 293.004 62.3873 292.366 63.106 291.662C63.8247 290.943 64.5287 290.195 65.218 289.418C65.922 288.641 66.56 287.856 67.132 287.064C67.7187 286.272 68.2027 285.517 68.584 284.798C68.7453 284.49 68.7893 284.233 68.716 284.028C68.7013 283.925 68.65 283.845 68.562 283.786C68.474 283.713 68.3787 283.647 68.276 283.588C68.1733 283.412 68.2173 283.28 68.408 283.192C68.716 283.177 69.068 283.243 69.464 283.39C69.8747 283.522 70.256 283.698 70.608 283.918C70.9747 284.123 71.2313 284.351 71.378 284.6C71.4807 284.761 71.51 284.923 71.466 285.084C71.4367 285.231 71.3413 285.341 71.18 285.414C70.872 285.561 70.608 285.788 70.388 286.096C70.036 286.624 69.64 287.152 69.2 287.68C68.7747 288.193 68.3127 288.707 67.814 289.22C68.1807 289.337 68.4813 289.484 68.716 289.66C68.8187 289.733 68.87 289.843 68.87 289.99C68.87 290.122 68.8333 290.261 68.76 290.408C68.7013 290.511 68.6573 290.65 68.628 290.826C68.5987 291.002 68.584 291.251 68.584 291.574C68.584 292.351 68.5913 293.187 68.606 294.082C68.6353 294.977 68.6573 295.842 68.672 296.678C68.7013 297.499 68.7233 298.196 68.738 298.768C68.7673 299.34 68.782 299.692 68.782 299.824C68.782 300.132 68.6867 300.359 68.496 300.506C68.32 300.653 68.1073 300.711 67.858 300.682ZM59.85 324.286C59.7473 324.242 59.674 324.169 59.63 324.066C59.586 323.978 59.5933 323.89 59.652 323.802C60.5613 323.347 61.544 322.746 62.6 321.998C63.6707 321.235 64.734 320.363 65.79 319.38C66.846 318.383 67.814 317.297 68.694 316.124C69.574 314.951 70.2707 313.719 70.784 312.428C70.9453 312.017 70.8133 311.812 70.388 311.812C70.036 311.827 69.6327 311.856 69.178 311.9C68.7233 311.944 68.2613 311.988 67.792 312.032C67.3373 312.076 66.934 312.105 66.582 312.12C66.2153 312.663 65.7753 313.227 65.262 313.814C64.7633 314.386 64.228 314.943 63.656 315.486C63.0987 316.029 62.5413 316.527 61.984 316.982C61.4267 317.437 60.9133 317.811 60.444 318.104C60.2093 318.075 60.1213 317.957 60.18 317.752C60.6493 317.341 61.148 316.828 61.676 316.212C62.2187 315.596 62.7393 314.936 63.238 314.232C63.7513 313.513 64.206 312.809 64.602 312.12C64.998 311.416 65.2987 310.771 65.504 310.184C65.6653 309.7 65.7313 309.326 65.702 309.062C65.6873 308.783 65.5113 308.527 65.174 308.292C65.13 308.087 65.2033 307.955 65.394 307.896C65.7607 307.94 66.186 308.087 66.67 308.336C67.154 308.571 67.5133 308.857 67.748 309.194C68.1147 309.737 68.1293 310.162 67.792 310.47C67.66 310.587 67.5573 310.69 67.484 310.778C67.4107 310.866 67.33 310.969 67.242 311.086C67.7553 311.057 68.298 311.013 68.87 310.954C69.4567 310.895 69.9113 310.837 70.234 310.778C70.4833 310.734 70.696 310.675 70.872 310.602C71.0627 310.529 71.2313 310.426 71.378 310.294C71.642 310.059 71.906 310.037 72.17 310.228C72.302 310.316 72.4707 310.448 72.676 310.624C72.896 310.8 73.116 310.976 73.336 311.152C73.556 311.328 73.7247 311.475 73.842 311.592C74.0327 311.783 74.0987 311.981 74.04 312.186C73.9813 312.377 73.82 312.509 73.556 312.582C73.3947 312.641 73.2407 312.758 73.094 312.934C72.9473 313.095 72.8153 313.293 72.698 313.528C72.0673 314.804 71.268 315.999 70.3 317.114C69.3467 318.229 68.2907 319.248 67.132 320.172C65.9733 321.096 64.7707 321.91 63.524 322.614C62.292 323.303 61.0673 323.861 59.85 324.286Z" fill="white"/>
<path d="M59.718 221.114C59.454 220.997 59.19 220.791 58.926 220.498C58.6767 220.205 58.4787 219.904 58.332 219.596C58.1853 219.273 58.1193 219.024 58.134 218.848C58.2367 218.672 58.3687 218.635 58.53 218.738C58.7353 218.958 58.948 219.097 59.168 219.156C59.4027 219.2 59.762 219.237 60.246 219.266C60.6713 219.281 61.2653 219.295 62.028 219.31C62.8053 219.31 63.7073 219.303 64.734 219.288C65.614 219.273 66.4647 219.259 67.286 219.244C68.1073 219.229 68.8553 219.215 69.53 219.2C70.2047 219.171 70.7547 219.141 71.18 219.112C71.5613 219.083 71.906 219.046 72.214 219.002C72.5367 218.943 72.8447 218.877 73.138 218.804C73.5047 218.716 73.864 218.731 74.216 218.848C74.4653 218.936 74.722 219.061 74.986 219.222C75.25 219.369 75.448 219.501 75.58 219.618C75.8587 219.853 75.9467 220.109 75.844 220.388C75.756 220.652 75.4627 220.777 74.964 220.762C74.4653 220.733 73.8787 220.711 73.204 220.696C72.544 220.667 71.9427 220.645 71.4 220.63C71.1507 220.63 70.7107 220.63 70.08 220.63C69.4493 220.63 68.716 220.637 67.88 220.652C67.0587 220.667 66.2227 220.689 65.372 220.718C64.536 220.733 63.7733 220.762 63.084 220.806C62.3947 220.85 61.874 220.909 61.522 220.982C61.4487 220.997 61.3753 221.011 61.302 221.026C61.2287 221.041 61.1553 221.055 61.082 221.07C60.818 221.129 60.5833 221.173 60.378 221.202C60.1873 221.217 59.9673 221.187 59.718 221.114Z" fill="#414245"/>
<path d="M65.886 226.282C66.0033 226.546 66.2087 226.81 66.502 227.074C66.7953 227.323 67.096 227.521 67.404 227.668C67.7267 227.815 67.976 227.881 68.152 227.866C68.328 227.763 68.3647 227.631 68.262 227.47C68.042 227.265 67.9027 227.052 67.844 226.832C67.8 226.597 67.7633 226.238 67.734 225.754C67.7193 225.329 67.7047 224.735 67.69 223.972C67.69 223.195 67.6973 222.293 67.712 221.266C67.7267 220.386 67.7413 219.535 67.756 218.714C67.7707 217.893 67.7853 217.145 67.8 216.47C67.8293 215.795 67.8587 215.245 67.888 214.82C67.9173 214.439 67.954 214.094 67.998 213.786C68.0567 213.463 68.1227 213.155 68.196 212.862C68.284 212.495 68.2693 212.136 68.152 211.784C68.064 211.535 67.9393 211.278 67.778 211.014C67.6313 210.75 67.4993 210.552 67.382 210.42C67.1473 210.141 66.8907 210.053 66.612 210.156C66.348 210.244 66.2233 210.537 66.238 211.036C66.2673 211.535 66.2893 212.121 66.304 212.796C66.3333 213.456 66.3553 214.057 66.37 214.6C66.37 214.849 66.37 215.289 66.37 215.92C66.37 216.551 66.3627 217.284 66.348 218.12C66.3333 218.941 66.3113 219.777 66.282 220.628C66.2673 221.464 66.238 222.227 66.194 222.916C66.15 223.605 66.0913 224.126 66.018 224.478C66.0033 224.551 65.9887 224.625 65.974 224.698C65.9593 224.771 65.9447 224.845 65.93 224.918C65.8713 225.182 65.8273 225.417 65.798 225.622C65.7833 225.813 65.8127 226.033 65.886 226.282Z" fill="white"/>
<defs>
<filter id="filter0_n_797_4997" x="96" y="0" width="40" height="140" filterUnits="userSpaceOnUse" color-interpolation-filters="sRGB">
<feFlood flood-opacity="0" result="BackgroundImageFix"/>
<feBlend mode="normal" in="SourceGraphic" in2="BackgroundImageFix" result="shape"/>
<feTurbulence type="fractalNoise" baseFrequency="2 2" stitchTiles="stitch" numOctaves="3" result="noise" seed="6640" />
<feColorMatrix in="noise" type="luminanceToAlpha" result="alphaNoise" />
<feComponentTransfer in="alphaNoise" result="coloredNoise1">
<feFuncA type="discrete" tableValues="1 1 1 1 1 1 1 1 1 1 1 1 1 1 1 1 1 1 1 1 1 1 1 1 1 1 1 1 1 1 1 1 1 1 1 1 1 1 1 1 1 1 1 1 1 1 1 1 1 1 1 0 0 0 0 0 0 0 0 0 0 0 0 0 0 0 0 0 0 0 0 0 0 0 0 0 0 0 0 0 0 0 0 0 0 0 0 0 0 0 0 0 0 0 0 0 0 0 0 0 "/>
</feComponentTransfer>
<feComposite operator="in" in2="shape" in="coloredNoise1" result="noise1Clipped" />
<feFlood flood-color="rgba(0, 0, 0, 0.2)" result="color1Flood" />
<feComposite operator="in" in2="noise1Clipped" in="color1Flood" result="color1" />
<feMerge result="effect1_noise_797_4997">
<feMergeNode in="shape" />
<feMergeNode in="color1" />
</feMerge>
</filter>
<filter id="filter1_n_797_4997" x="0" y="174" width="40" height="201" filterUnits="userSpaceOnUse" color-interpolation-filters="sRGB">
<feFlood flood-opacity="0" result="BackgroundImageFix"/>
<feBlend mode="normal" in="SourceGraphic" in2="BackgroundImageFix" result="shape"/>
<feTurbulence type="fractalNoise" baseFrequency="2 2" stitchTiles="stitch" numOctaves="3" result="noise" seed="6640" />
<feColorMatrix in="noise" type="luminanceToAlpha" result="alphaNoise" />
<feComponentTransfer in="alphaNoise" result="coloredNoise1">
<feFuncA type="discrete" tableValues="1 1 1 1 1 1 1 1 1 1 1 1 1 1 1 1 1 1 1 1 1 1 1 1 1 1 1 1 1 1 1 1 1 1 1 1 1 1 1 1 1 1 1 1 1 1 1 1 1 1 1 0 0 0 0 0 0 0 0 0 0 0 0 0 0 0 0 0 0 0 0 0 0 0 0 0 0 0 0 0 0 0 0 0 0 0 0 0 0 0 0 0 0 0 0 0 0 0 0 0 "/>
</feComponentTransfer>
<feComposite operator="in" in2="shape" in="coloredNoise1" result="noise1Clipped" />
<feFlood flood-color="rgba(0, 0, 0, 0.2)" result="color1Flood" />
<feComposite operator="in" in2="noise1Clipped" in="color1Flood" result="color1" />
<feMerge result="effect1_noise_797_4997">
<feMergeNode in="shape" />
<feMergeNode in="color1" />
</feMerge>
</filter>
<filter id="filter2_n_797_4997" x="48" y="24" width="40" height="327" filterUnits="userSpaceOnUse" color-interpolation-filters="sRGB">
<feFlood flood-opacity="0" result="BackgroundImageFix"/>
<feBlend mode="normal" in="SourceGraphic" in2="BackgroundImageFix" result="shape"/>
<feTurbulence type="fractalNoise" baseFrequency="2 2" stitchTiles="stitch" numOctaves="3" result="noise" seed="6640" />
<feColorMatrix in="noise" type="luminanceToAlpha" result="alphaNoise" />
<feComponentTransfer in="alphaNoise" result="coloredNoise1">
<feFuncA type="discrete" tableValues="1 1 1 1 1 1 1 1 1 1 1 1 1 1 1 1 1 1 1 1 1 1 1 1 1 1 1 1 1 1 1 1 1 1 1 1 1 1 1 1 1 1 1 1 1 1 1 1 1 1 1 0 0 0 0 0 0 0 0 0 0 0 0 0 0 0 0 0 0 0 0 0 0 0 0 0 0 0 0 0 0 0 0 0 0 0 0 0 0 0 0 0 0 0 0 0 0 0 0 0 "/>
</feComponentTransfer>
<feComposite operator="in" in2="shape" in="coloredNoise1" result="noise1Clipped" />
<feFlood flood-color="rgba(0, 0, 0, 0.2)" result="color1Flood" />
<feComposite operator="in" in2="noise1Clipped" in="color1Flood" result="color1" />
<feMerge result="effect1_noise_797_4997">
<feMergeNode in="shape" />
<feMergeNode in="color1" />
</feMerge>
</filter>
</defs>
</svg>
