<svg width="31" height="21" viewBox="0 0 31 21" fill="none" xmlns="http://www.w3.org/2000/svg">
<mask id="mask0_797_5901" style="mask-type:alpha" maskUnits="userSpaceOnUse" x="0" y="0" width="31" height="21">
<rect x="0.5" y="0.5" width="30" height="20" fill="#D9D9D9" stroke="#F33E5C"/>
</mask>
<g mask="url(#mask0_797_5901)">
<mask id="path-2-outside-1_797_5901" maskUnits="userSpaceOnUse" x="-2.50886" y="-2.53309" width="33.6671" height="23.7682" fill="black">
<rect fill="white" x="-2.50886" y="-2.53309" width="33.6671" height="23.7682"/>
<path d="M1.4231 19.9192C1.15469 19.9632 0.998464 19.8511 0.954427 19.5826C0.938885 19.4879 0.959176 19.2657 1.0153 18.916C1.17047 17.8853 1.51043 16.5972 2.03516 15.0519C2.57568 13.504 3.30098 11.6987 4.21106 9.63617C3.81634 9.70093 3.59825 9.607 3.55681 9.35438C3.51795 9.11755 3.63933 8.96792 3.92094 8.9055L4.58407 8.79671C4.93316 8.05845 5.23462 7.42529 5.48848 6.89723C5.74234 6.36916 5.96838 5.91862 6.1666 5.54561C6.41244 5.0675 6.66747 4.59599 6.93168 4.13108C7.19331 3.65038 7.45222 3.20255 7.70842 2.7876C7.64527 2.79796 7.5834 2.81622 7.52284 2.84237C7.45968 2.85273 7.40442 2.8618 7.35706 2.86957C6.74129 2.97059 6.4088 2.87111 6.35958 2.57112C6.31295 2.28692 6.53437 2.10467 7.02382 2.02437L14.9578 0.722695C15.2104 0.681248 15.3653 0.785542 15.4225 1.03557C15.4692 1.31977 15.3662 1.4826 15.1135 1.52404L8.74272 2.56927C8.4283 3.12348 8.10857 3.69478 7.78354 4.28317C7.47171 4.85317 7.13077 5.49281 6.76072 6.20208C6.40387 6.89297 5.9941 7.70604 5.53141 8.64128L11.3575 7.68543C11.6101 7.64398 11.7572 7.74957 11.7986 8.00219C11.8401 8.25482 11.7358 8.40975 11.4857 8.46698L5.1386 9.50832C4.04867 11.9571 3.22414 13.9975 2.66499 15.6296C2.12163 17.259 1.81844 18.5734 1.75541 19.5728C1.73912 19.7701 1.62836 19.8855 1.4231 19.9192ZM14.8188 17.308C14.1557 17.4168 13.5971 17.2733 13.143 16.8776C12.689 16.4819 12.4076 15.9525 12.2988 15.2894C12.1123 14.1526 12.2995 12.922 12.8605 11.5977C13.0114 11.2325 13.1951 10.8699 13.4117 10.5101C13.6257 10.1345 13.866 9.77082 14.1325 9.41902C14.5311 8.88343 14.9663 8.4229 15.4381 8.03743C15.9099 7.65196 16.3905 7.41907 16.88 7.33877C17.6852 7.20666 18.15 7.51954 18.2744 8.27741C18.4298 9.22474 18.0183 10.1759 17.0401 11.1309C16.1278 11.994 15.1743 12.5071 14.1795 12.6703C14.0059 12.6988 13.8467 12.7168 13.702 12.7243C13.5705 12.7135 13.4469 12.7013 13.3312 12.6879C13.2225 13.0138 13.1439 13.4239 13.0953 13.9183C13.0467 14.4127 13.0509 14.8336 13.1079 15.1809C13.2788 16.223 13.8222 16.6689 14.738 16.5187C15.48 16.3969 16.1619 16.1553 16.7836 15.7939C17.4027 15.4167 18.1106 14.7898 18.9072 13.9133C19.403 13.378 19.771 12.9528 20.0112 12.6377C20.2514 12.3227 20.5126 11.988 20.795 11.6336C20.8794 11.5549 20.961 11.5091 21.04 11.4961C21.1189 11.4832 21.2017 11.4939 21.2884 11.5283C21.3752 11.5627 21.4263 11.6273 21.4418 11.722C21.4703 11.8957 21.3526 12.1663 21.0886 12.5339C20.8617 12.8306 20.6215 13.1456 20.3681 13.479C20.1122 13.7967 19.7007 14.2533 19.1336 14.849C18.527 15.4998 17.8378 16.0425 17.066 16.4772C16.2942 16.9119 15.5451 17.1888 14.8188 17.308ZM13.9131 11.9358C14.4184 11.8529 14.887 11.6949 15.3189 11.4619C15.7509 11.2289 16.1475 10.9287 16.5088 10.5614C17.3132 9.73221 17.6662 9.01764 17.5677 8.41766C17.5237 8.14924 17.3359 8.04224 17.0043 8.09664C16.3728 8.20025 15.7021 8.70753 14.9922 9.61848C14.6438 10.0648 14.3614 10.4678 14.1448 10.8276C13.9414 11.1691 13.7589 11.5395 13.5975 11.9389C13.6974 11.9549 13.8026 11.9539 13.9131 11.9358ZM23.145 15.942C22.4819 16.0508 21.9233 15.9073 21.4692 15.5116C21.0152 15.1159 20.7337 14.5865 20.6249 13.9233C20.4384 12.7865 20.6257 11.556 21.1867 10.2317C21.3375 9.86644 21.5213 9.50391 21.7379 9.1441C21.9519 8.76849 22.1922 8.40479 22.4587 8.053C22.8573 7.51741 23.2925 7.05687 23.7643 6.6714C24.2361 6.28593 24.7167 6.05304 25.2062 5.97274C26.0114 5.84063 26.4762 6.15351 26.6005 6.91138C26.756 7.85871 26.3445 8.80987 25.3662 9.76486C24.4539 10.6279 23.5004 11.1411 22.5057 11.3043C22.3321 11.3328 22.1729 11.3508 22.0282 11.3583C21.8967 11.3475 21.7731 11.3353 21.6574 11.3219C21.5487 11.6478 21.4701 12.0579 21.4215 12.5523C21.3729 13.0467 21.3771 13.4675 21.4341 13.8149C21.605 14.857 22.1484 15.3029 23.0642 15.1526C23.8062 15.0309 24.4881 14.7893 25.1098 14.4279C25.7289 14.0507 26.4367 13.4238 27.2333 12.5473C27.7292 12.0119 28.0972 11.5867 28.3374 11.2717C28.5776 10.9567 28.8388 10.622 29.1212 10.2676C29.2055 10.1889 29.2872 10.143 29.3661 10.1301C29.4451 10.1171 29.5279 10.1279 29.6146 10.1623C29.7013 10.1967 29.7525 10.2613 29.768 10.356C29.7965 10.5297 29.6788 10.8003 29.4148 11.1679C29.1878 11.4646 28.9477 11.7796 28.6943 12.113C28.4384 12.4307 28.0269 12.8873 27.4598 13.483C26.8532 14.1338 26.164 14.6765 25.3922 15.1112C24.6203 15.5459 23.8713 15.8228 23.145 15.942ZM22.2393 10.5697C22.7445 10.4868 23.2132 10.3289 23.6451 10.0959C24.0771 9.86286 24.4737 9.56269 24.835 9.19535C25.6394 8.36618 25.9924 7.65161 25.8939 7.05163C25.8499 6.78322 25.6621 6.67621 25.3305 6.73061C24.699 6.83422 24.0282 7.34151 23.3184 8.25245C22.97 8.69874 22.6876 9.10179 22.4709 9.4616C22.2675 9.80304 22.0851 10.1735 21.9236 10.5729C22.0236 10.5889 22.1288 10.5879 22.2393 10.5697Z"/>
</mask>
<path d="M1.4231 19.9192C1.15469 19.9632 0.998464 19.8511 0.954427 19.5826C0.938885 19.4879 0.959176 19.2657 1.0153 18.916C1.17047 17.8853 1.51043 16.5972 2.03516 15.0519C2.57568 13.504 3.30098 11.6987 4.21106 9.63617C3.81634 9.70093 3.59825 9.607 3.55681 9.35438C3.51795 9.11755 3.63933 8.96792 3.92094 8.9055L4.58407 8.79671C4.93316 8.05845 5.23462 7.42529 5.48848 6.89723C5.74234 6.36916 5.96838 5.91862 6.1666 5.54561C6.41244 5.0675 6.66747 4.59599 6.93168 4.13108C7.19331 3.65038 7.45222 3.20255 7.70842 2.7876C7.64527 2.79796 7.5834 2.81622 7.52284 2.84237C7.45968 2.85273 7.40442 2.8618 7.35706 2.86957C6.74129 2.97059 6.4088 2.87111 6.35958 2.57112C6.31295 2.28692 6.53437 2.10467 7.02382 2.02437L14.9578 0.722695C15.2104 0.681248 15.3653 0.785542 15.4225 1.03557C15.4692 1.31977 15.3662 1.4826 15.1135 1.52404L8.74272 2.56927C8.4283 3.12348 8.10857 3.69478 7.78354 4.28317C7.47171 4.85317 7.13077 5.49281 6.76072 6.20208C6.40387 6.89297 5.9941 7.70604 5.53141 8.64128L11.3575 7.68543C11.6101 7.64398 11.7572 7.74957 11.7986 8.00219C11.8401 8.25482 11.7358 8.40975 11.4857 8.46698L5.1386 9.50832C4.04867 11.9571 3.22414 13.9975 2.66499 15.6296C2.12163 17.259 1.81844 18.5734 1.75541 19.5728C1.73912 19.7701 1.62836 19.8855 1.4231 19.9192ZM14.8188 17.308C14.1557 17.4168 13.5971 17.2733 13.143 16.8776C12.689 16.4819 12.4076 15.9525 12.2988 15.2894C12.1123 14.1526 12.2995 12.922 12.8605 11.5977C13.0114 11.2325 13.1951 10.8699 13.4117 10.5101C13.6257 10.1345 13.866 9.77082 14.1325 9.41902C14.5311 8.88343 14.9663 8.4229 15.4381 8.03743C15.9099 7.65196 16.3905 7.41907 16.88 7.33877C17.6852 7.20666 18.15 7.51954 18.2744 8.27741C18.4298 9.22474 18.0183 10.1759 17.0401 11.1309C16.1278 11.994 15.1743 12.5071 14.1795 12.6703C14.0059 12.6988 13.8467 12.7168 13.702 12.7243C13.5705 12.7135 13.4469 12.7013 13.3312 12.6879C13.2225 13.0138 13.1439 13.4239 13.0953 13.9183C13.0467 14.4127 13.0509 14.8336 13.1079 15.1809C13.2788 16.223 13.8222 16.6689 14.738 16.5187C15.48 16.3969 16.1619 16.1553 16.7836 15.7939C17.4027 15.4167 18.1106 14.7898 18.9072 13.9133C19.403 13.378 19.771 12.9528 20.0112 12.6377C20.2514 12.3227 20.5126 11.988 20.795 11.6336C20.8794 11.5549 20.961 11.5091 21.04 11.4961C21.1189 11.4832 21.2017 11.4939 21.2884 11.5283C21.3752 11.5627 21.4263 11.6273 21.4418 11.722C21.4703 11.8957 21.3526 12.1663 21.0886 12.5339C20.8617 12.8306 20.6215 13.1456 20.3681 13.479C20.1122 13.7967 19.7007 14.2533 19.1336 14.849C18.527 15.4998 17.8378 16.0425 17.066 16.4772C16.2942 16.9119 15.5451 17.1888 14.8188 17.308ZM13.9131 11.9358C14.4184 11.8529 14.887 11.6949 15.3189 11.4619C15.7509 11.2289 16.1475 10.9287 16.5088 10.5614C17.3132 9.73221 17.6662 9.01764 17.5677 8.41766C17.5237 8.14924 17.3359 8.04224 17.0043 8.09664C16.3728 8.20025 15.7021 8.70753 14.9922 9.61848C14.6438 10.0648 14.3614 10.4678 14.1448 10.8276C13.9414 11.1691 13.7589 11.5395 13.5975 11.9389C13.6974 11.9549 13.8026 11.9539 13.9131 11.9358ZM23.145 15.942C22.4819 16.0508 21.9233 15.9073 21.4692 15.5116C21.0152 15.1159 20.7337 14.5865 20.6249 13.9233C20.4384 12.7865 20.6257 11.556 21.1867 10.2317C21.3375 9.86644 21.5213 9.50391 21.7379 9.1441C21.9519 8.76849 22.1922 8.40479 22.4587 8.053C22.8573 7.51741 23.2925 7.05687 23.7643 6.6714C24.2361 6.28593 24.7167 6.05304 25.2062 5.97274C26.0114 5.84063 26.4762 6.15351 26.6005 6.91138C26.756 7.85871 26.3445 8.80987 25.3662 9.76486C24.4539 10.6279 23.5004 11.1411 22.5057 11.3043C22.3321 11.3328 22.1729 11.3508 22.0282 11.3583C21.8967 11.3475 21.7731 11.3353 21.6574 11.3219C21.5487 11.6478 21.4701 12.0579 21.4215 12.5523C21.3729 13.0467 21.3771 13.4675 21.4341 13.8149C21.605 14.857 22.1484 15.3029 23.0642 15.1526C23.8062 15.0309 24.4881 14.7893 25.1098 14.4279C25.7289 14.0507 26.4367 13.4238 27.2333 12.5473C27.7292 12.0119 28.0972 11.5867 28.3374 11.2717C28.5776 10.9567 28.8388 10.622 29.1212 10.2676C29.2055 10.1889 29.2872 10.143 29.3661 10.1301C29.4451 10.1171 29.5279 10.1279 29.6146 10.1623C29.7013 10.1967 29.7525 10.2613 29.768 10.356C29.7965 10.5297 29.6788 10.8003 29.4148 11.1679C29.1878 11.4646 28.9477 11.7796 28.6943 12.113C28.4384 12.4307 28.0269 12.8873 27.4598 13.483C26.8532 14.1338 26.164 14.6765 25.3922 15.1112C24.6203 15.5459 23.8713 15.8228 23.145 15.942ZM22.2393 10.5697C22.7445 10.4868 23.2132 10.3289 23.6451 10.0959C24.0771 9.86286 24.4737 9.56269 24.835 9.19535C25.6394 8.36618 25.9924 7.65161 25.8939 7.05163C25.8499 6.78322 25.6621 6.67621 25.3305 6.73061C24.699 6.83422 24.0282 7.34151 23.3184 8.25245C22.97 8.69874 22.6876 9.10179 22.4709 9.4616C22.2675 9.80304 22.0851 10.1735 21.9236 10.5729C22.0236 10.5889 22.1288 10.5879 22.2393 10.5697Z" fill="#414245"/>
<path d="M1.0153 18.916L1.41026 18.9794L1.41084 18.9755L1.0153 18.916ZM2.03516 15.0519L1.65751 14.92L1.6564 14.9233L2.03516 15.0519ZM4.21106 9.63617L4.57702 9.79765L4.8752 9.12186L4.1463 9.24145L4.21106 9.63617ZM3.92094 8.9055L3.85618 8.51078L3.84522 8.51258L3.83438 8.51498L3.92094 8.9055ZM4.58407 8.79671L4.64883 9.19143L4.85596 9.15745L4.94569 8.9677L4.58407 8.79671ZM6.1666 5.54561L6.51985 5.73333L6.52233 5.72852L6.1666 5.54561ZM6.93168 4.13108L7.2795 4.32875L7.28302 4.3223L6.93168 4.13108ZM7.70842 2.7876L8.04877 2.99774L8.50998 2.25075L7.64366 2.39288L7.70842 2.7876ZM7.52284 2.84237L7.5876 3.23709L7.63619 3.22912L7.6814 3.2096L7.52284 2.84237ZM15.4225 1.03557L15.8173 0.970814L15.8152 0.958491L15.8125 0.946317L15.4225 1.03557ZM8.74272 2.56927L8.67796 2.17455L8.4892 2.20551L8.39481 2.37189L8.74272 2.56927ZM7.78354 4.28317L7.43341 4.08975L7.43262 4.09119L7.78354 4.28317ZM6.76072 6.20208L6.40608 6.01705L6.40533 6.01851L6.76072 6.20208ZM5.53141 8.64128L5.17288 8.46391L4.82746 9.16212L5.59617 9.03601L5.53141 8.64128ZM11.4857 8.46698L11.5505 8.8617L11.5628 8.85968L11.575 8.8569L11.4857 8.46698ZM5.1386 9.50832L5.07384 9.1136L4.86091 9.14853L4.77316 9.34567L5.1386 9.50832ZM2.66499 15.6296L2.28657 15.4999L2.28553 15.503L2.66499 15.6296ZM1.75541 19.5728L2.15413 19.6058L2.15461 19.598L1.75541 19.5728ZM1.4231 19.9192L1.35834 19.5245C1.34108 19.5273 1.32827 19.5283 1.31942 19.5285C1.3106 19.5287 1.30648 19.528 1.30621 19.528C1.30608 19.528 1.30975 19.5286 1.31602 19.5311C1.32244 19.5336 1.3301 19.5376 1.33794 19.5432C1.34579 19.5488 1.35198 19.5548 1.35645 19.5601C1.36081 19.5652 1.36254 19.5685 1.36248 19.5684C1.36235 19.5682 1.36044 19.5645 1.3578 19.556C1.35514 19.5476 1.35198 19.5351 1.34915 19.5179L0.954427 19.5826L0.559704 19.6474C0.591705 19.8425 0.67663 20.0532 0.871304 20.193C1.06598 20.3328 1.29281 20.3459 1.48786 20.3139L1.4231 19.9192ZM0.954427 19.5826L1.34915 19.5179C1.3504 19.5255 1.34629 19.4913 1.35633 19.3813C1.36532 19.2829 1.38289 19.1498 1.41025 18.9794L1.0153 18.916L0.620354 18.8526C0.591581 19.0319 0.570949 19.1848 0.559646 19.3086C0.549395 19.4208 0.542913 19.5451 0.559704 19.6474L0.954427 19.5826ZM1.0153 18.916L1.41084 18.9755C1.56109 17.9776 1.89306 16.7144 2.41392 15.1805L2.03516 15.0519L1.6564 14.9233C1.12779 16.48 0.77986 17.793 0.619758 18.8564L1.0153 18.916ZM2.03516 15.0519L2.4128 15.1838C2.9488 13.6488 3.66976 11.8538 4.57702 9.79765L4.21106 9.63617L3.8451 9.4747C2.9322 11.5436 2.20256 13.3592 1.65752 14.92L2.03516 15.0519ZM4.21106 9.63617L4.1463 9.24145C4.06745 9.25439 4.00878 9.25742 3.96716 9.25544C3.92521 9.25344 3.90934 9.24677 3.90969 9.24692C3.91298 9.24834 3.92774 9.25637 3.94118 9.27432C3.95376 9.29111 3.95337 9.30085 3.95153 9.28962L3.55681 9.35438L3.16209 9.41914C3.20283 9.66747 3.34765 9.8759 3.59322 9.98167C3.8056 10.0731 4.04904 10.0681 4.27582 10.0309L4.21106 9.63617ZM3.55681 9.35438L3.95153 9.28962C3.94821 9.26936 3.95096 9.26693 3.94889 9.27664C3.94783 9.28159 3.94577 9.28841 3.94209 9.29617C3.9384 9.30396 3.93392 9.31088 3.92934 9.31653C3.91994 9.32812 3.91502 9.32845 3.92603 9.32266C3.93788 9.31642 3.96303 9.30588 4.0075 9.29603L3.92094 8.9055L3.83438 8.51498C3.64738 8.55643 3.44785 8.64021 3.30806 8.81254C3.1583 8.99715 3.12906 9.21783 3.16209 9.41914L3.55681 9.35438ZM3.92094 8.9055L3.9857 9.30023L4.64883 9.19143L4.58407 8.79671L4.51931 8.40199L3.85618 8.51078L3.92094 8.9055ZM4.58407 8.79671L4.94569 8.9677C5.29453 8.22994 5.59561 7.59759 5.84899 7.07053L5.48848 6.89723L5.12797 6.72392C4.87364 7.25299 4.57178 7.88697 4.22246 8.62572L4.58407 8.79671ZM5.48848 6.89723L5.84899 7.07053C6.10133 6.54561 6.32488 6.10016 6.51982 5.73331L6.1666 5.54561L5.81338 5.3579C5.61188 5.73708 5.38334 6.19271 5.12797 6.72392L5.48848 6.89723ZM6.1666 5.54561L6.52233 5.72852C6.76563 5.25535 7.018 4.78875 7.27944 4.32872L6.93168 4.13108L6.58392 3.93344C6.31693 4.40323 6.05925 4.87965 5.81087 5.36269L6.1666 5.54561ZM6.93168 4.13108L7.28302 4.3223C7.54157 3.84724 7.79684 3.40579 8.04877 2.99774L7.70842 2.7876L7.36807 2.57746C7.10761 2.99931 6.84505 3.45352 6.58035 3.93986L6.93168 4.13108ZM7.70842 2.7876L7.64366 2.39288C7.54725 2.4087 7.45394 2.43642 7.36428 2.47514L7.52284 2.84237L7.6814 3.2096C7.71287 3.19601 7.74328 3.18723 7.77318 3.18232L7.70842 2.7876ZM7.52284 2.84237L7.45808 2.44765C7.45796 2.44767 7.45783 2.44769 7.45771 2.44771C7.45759 2.44773 7.45746 2.44775 7.45734 2.44777C7.45722 2.44779 7.45709 2.44781 7.45697 2.44783C7.45685 2.44785 7.45672 2.44787 7.4566 2.44789C7.45648 2.44791 7.45635 2.44793 7.45623 2.44795C7.45611 2.44797 7.45599 2.44799 7.45586 2.44801C7.45574 2.44803 7.45562 2.44805 7.45549 2.44807C7.45537 2.44809 7.45525 2.44811 7.45513 2.44813C7.455 2.44815 7.45488 2.44817 7.45476 2.44819C7.45463 2.44821 7.45451 2.44823 7.45439 2.44825C7.45426 2.44827 7.45414 2.44829 7.45402 2.44831C7.4539 2.44833 7.45377 2.44835 7.45365 2.44837C7.45353 2.44839 7.45341 2.44841 7.45328 2.44843C7.45316 2.44845 7.45304 2.44847 7.45292 2.44849C7.45279 2.44851 7.45267 2.44853 7.45255 2.44855C7.45243 2.44857 7.4523 2.44859 7.45218 2.44861C7.45206 2.44863 7.45194 2.44865 7.45181 2.44867C7.45169 2.44869 7.45157 2.44871 7.45145 2.44873C7.45133 2.44875 7.4512 2.44877 7.45108 2.44879C7.45096 2.44881 7.45084 2.44883 7.45071 2.44885C7.45059 2.44887 7.45047 2.44889 7.45035 2.44891C7.45023 2.44893 7.4501 2.44895 7.44998 2.44897C7.44986 2.44899 7.44974 2.44901 7.44962 2.44903C7.44949 2.44905 7.44937 2.44907 7.44925 2.44909C7.44913 2.44911 7.44901 2.44913 7.44888 2.44915C7.44876 2.44917 7.44864 2.44919 7.44852 2.44921C7.4484 2.44923 7.44828 2.44925 7.44815 2.44927C7.44803 2.44929 7.44791 2.44931 7.44779 2.44933C7.44767 2.44935 7.44755 2.44937 7.44742 2.44939C7.4473 2.44941 7.44718 2.44943 7.44706 2.44945C7.44694 2.44947 7.44682 2.44949 7.44669 2.44951C7.44657 2.44953 7.44645 2.44955 7.44633 2.44957C7.44621 2.44959 7.44609 2.44961 7.44597 2.44963C7.44584 2.44965 7.44572 2.44967 7.4456 2.44969C7.44548 2.44971 7.44536 2.44973 7.44524 2.44975C7.44512 2.44977 7.445 2.44979 7.44487 2.44981C7.44475 2.44983 7.44463 2.44985 7.44451 2.44987C7.44439 2.44989 7.44427 2.44991 7.44415 2.44993C7.44403 2.44995 7.44391 2.44997 7.44378 2.44999C7.44366 2.45001 7.44354 2.45003 7.44342 2.45005C7.4433 2.45007 7.44318 2.45009 7.44306 2.45011C7.44294 2.45013 7.44282 2.45015 7.4427 2.45017C7.44258 2.45019 7.44246 2.45021 7.44233 2.45023C7.44221 2.45025 7.44209 2.45027 7.44197 2.45029C7.44185 2.45031 7.44173 2.45033 7.44161 2.45035C7.44149 2.45037 7.44137 2.45039 7.44125 2.45041C7.44113 2.45043 7.44101 2.45045 7.44089 2.45047C7.44077 2.45049 7.44065 2.45051 7.44052 2.45053C7.4404 2.45055 7.44028 2.45057 7.44016 2.45058C7.44004 2.4506 7.43992 2.45062 7.4398 2.45064C7.43968 2.45066 7.43956 2.45068 7.43944 2.4507C7.43932 2.45072 7.4392 2.45074 7.43908 2.45076C7.43896 2.45078 7.43884 2.4508 7.43872 2.45082C7.4386 2.45084 7.43848 2.45086 7.43836 2.45088C7.43824 2.4509 7.43812 2.45092 7.438 2.45094C7.43788 2.45096 7.43776 2.45098 7.43764 2.451C7.43752 2.45102 7.4374 2.45104 7.43728 2.45106C7.43716 2.45108 7.43704 2.4511 7.43692 2.45112C7.4368 2.45114 7.43668 2.45116 7.43656 2.45118C7.43644 2.4512 7.43632 2.45122 7.4362 2.45123C7.43608 2.45125 7.43596 2.45127 7.43584 2.45129C7.43572 2.45131 7.4356 2.45133 7.43548 2.45135C7.43536 2.45137 7.43524 2.45139 7.43512 2.45141C7.43501 2.45143 7.43489 2.45145 7.43477 2.45147C7.43465 2.45149 7.43453 2.45151 7.43441 2.45153C7.43429 2.45155 7.43417 2.45157 7.43405 2.45159C7.43393 2.45161 7.43381 2.45163 7.43369 2.45165C7.43357 2.45167 7.43345 2.45169 7.43333 2.45171C7.43321 2.45173 7.4331 2.45174 7.43298 2.45176C7.43286 2.45178 7.43274 2.4518 7.43262 2.45182C7.4325 2.45184 7.43238 2.45186 7.43226 2.45188C7.43214 2.4519 7.43202 2.45192 7.4319 2.45194C7.43179 2.45196 7.43167 2.45198 7.43155 2.452C7.43143 2.45202 7.43131 2.45204 7.43119 2.45206C7.43107 2.45208 7.43095 2.4521 7.43083 2.45212C7.43072 2.45214 7.4306 2.45215 7.43048 2.45217C7.43036 2.45219 7.43024 2.45221 7.43012 2.45223C7.43 2.45225 7.42988 2.45227 7.42976 2.45229C7.42965 2.45231 7.42953 2.45233 7.42941 2.45235C7.42929 2.45237 7.42917 2.45239 7.42905 2.45241C7.42893 2.45243 7.42882 2.45245 7.4287 2.45247C7.42858 2.45249 7.42846 2.4525 7.42834 2.45252C7.42822 2.45254 7.42811 2.45256 7.42799 2.45258C7.42787 2.4526 7.42775 2.45262 7.42763 2.45264C7.42751 2.45266 7.4274 2.45268 7.42728 2.4527C7.42716 2.45272 7.42704 2.45274 7.42692 2.45276C7.4268 2.45278 7.42669 2.4528 7.42657 2.45282C7.42645 2.45283 7.42633 2.45285 7.42621 2.45287C7.4261 2.45289 7.42598 2.45291 7.42586 2.45293C7.42574 2.45295 7.42562 2.45297 7.42551 2.45299C7.42539 2.45301 7.42527 2.45303 7.42515 2.45305C7.42503 2.45307 7.42492 2.45309 7.4248 2.45311C7.42468 2.45312 7.42456 2.45314 7.42445 2.45316C7.42433 2.45318 7.42421 2.4532 7.42409 2.45322C7.42397 2.45324 7.42386 2.45326 7.42374 2.45328C7.42362 2.4533 7.4235 2.45332 7.42339 2.45334C7.42327 2.45336 7.42315 2.45338 7.42303 2.4534C7.42292 2.45341 7.4228 2.45343 7.42268 2.45345C7.42256 2.45347 7.42245 2.45349 7.42233 2.45351C7.42221 2.45353 7.42209 2.45355 7.42198 2.45357C7.42186 2.45359 7.42174 2.45361 7.42163 2.45363C7.42151 2.45365 7.42139 2.45366 7.42127 2.45368C7.42116 2.4537 7.42104 2.45372 7.42092 2.45374C7.42081 2.45376 7.42069 2.45378 7.42057 2.4538C7.42045 2.45382 7.42034 2.45384 7.42022 2.45386C7.4201 2.45388 7.41999 2.4539 7.41987 2.45391C7.41975 2.45393 7.41963 2.45395 7.41952 2.45397C7.4194 2.45399 7.41928 2.45401 7.41917 2.45403C7.41905 2.45405 7.41893 2.45407 7.41882 2.45409C7.4187 2.45411 7.41858 2.45413 7.41847 2.45414C7.41835 2.45416 7.41823 2.45418 7.41812 2.4542C7.418 2.45422 7.41788 2.45424 7.41777 2.45426C7.41765 2.45428 7.41753 2.4543 7.41742 2.45432C7.4173 2.45434 7.41718 2.45436 7.41707 2.45437C7.41695 2.45439 7.41683 2.45441 7.41672 2.45443C7.4166 2.45445 7.41649 2.45447 7.41637 2.45449C7.41625 2.45451 7.41614 2.45453 7.41602 2.45455C7.4159 2.45457 7.41579 2.45458 7.41567 2.4546C7.41555 2.45462 7.41544 2.45464 7.41532 2.45466C7.41521 2.45468 7.41509 2.4547 7.41497 2.45472C7.41486 2.45474 7.41474 2.45476 7.41463 2.45477C7.41451 2.45479 7.41439 2.45481 7.41428 2.45483C7.41416 2.45485 7.41405 2.45487 7.41393 2.45489C7.41381 2.45491 7.4137 2.45493 7.41358 2.45495C7.41347 2.45497 7.41335 2.45498 7.41323 2.455C7.41312 2.45502 7.413 2.45504 7.41289 2.45506C7.41277 2.45508 7.41266 2.4551 7.41254 2.45512C7.41242 2.45514 7.41231 2.45516 7.41219 2.45517C7.41208 2.45519 7.41196 2.45521 7.41185 2.45523C7.41173 2.45525 7.41161 2.45527 7.4115 2.45529C7.41138 2.45531 7.41127 2.45533 7.41115 2.45534C7.41104 2.45536 7.41092 2.45538 7.41081 2.4554C7.41069 2.45542 7.41058 2.45544 7.41046 2.45546C7.41035 2.45548 7.41023 2.4555 7.41011 2.45551C7.41 2.45553 7.40988 2.45555 7.40977 2.45557C7.40965 2.45559 7.40954 2.45561 7.40942 2.45563C7.40931 2.45565 7.40919 2.45567 7.40908 2.45569C7.40896 2.4557 7.40885 2.45572 7.40873 2.45574C7.40862 2.45576 7.4085 2.45578 7.40839 2.4558C7.40827 2.45582 7.40816 2.45584 7.40804 2.45585C7.40793 2.45587 7.40781 2.45589 7.4077 2.45591C7.40758 2.45593 7.40747 2.45595 7.40735 2.45597C7.40724 2.45599 7.40712 2.45601 7.40701 2.45602C7.40689 2.45604 7.40678 2.45606 7.40667 2.45608C7.40655 2.4561 7.40644 2.45612 7.40632 2.45614C7.40621 2.45616 7.40609 2.45617 7.40598 2.45619C7.40586 2.45621 7.40575 2.45623 7.40563 2.45625C7.40552 2.45627 7.40541 2.45629 7.40529 2.45631C7.40518 2.45633 7.40506 2.45634 7.40495 2.45636C7.40483 2.45638 7.40472 2.4564 7.4046 2.45642C7.40449 2.45644 7.40438 2.45646 7.40426 2.45648C7.40415 2.45649 7.40403 2.45651 7.40392 2.45653C7.4038 2.45655 7.40369 2.45657 7.40358 2.45659C7.40346 2.45661 7.40335 2.45663 7.40323 2.45664C7.40312 2.45666 7.40301 2.45668 7.40289 2.4567C7.40278 2.45672 7.40266 2.45674 7.40255 2.45676C7.40244 2.45677 7.40232 2.45679 7.40221 2.45681C7.40209 2.45683 7.40198 2.45685 7.40187 2.45687C7.40175 2.45689 7.40164 2.45691 7.40153 2.45692C7.40141 2.45694 7.4013 2.45696 7.40118 2.45698C7.40107 2.457 7.40096 2.45702 7.40084 2.45704C7.40073 2.45705 7.40062 2.45707 7.4005 2.45709C7.40039 2.45711 7.40027 2.45713 7.40016 2.45715C7.40005 2.45717 7.39993 2.45719 7.39982 2.4572C7.39971 2.45722 7.39959 2.45724 7.39948 2.45726C7.39937 2.45728 7.39925 2.4573 7.39914 2.45732C7.39903 2.45733 7.39891 2.45735 7.3988 2.45737C7.39869 2.45739 7.39857 2.45741 7.39846 2.45743C7.39835 2.45745 7.39823 2.45746 7.39812 2.45748C7.39801 2.4575 7.39789 2.45752 7.39778 2.45754C7.39767 2.45756 7.39755 2.45758 7.39744 2.45759C7.39733 2.45761 7.39722 2.45763 7.3971 2.45765C7.39699 2.45767 7.39688 2.45769 7.39676 2.45771C7.39665 2.45772 7.39654 2.45774 7.39643 2.45776C7.39631 2.45778 7.3962 2.4578 7.39609 2.45782C7.39597 2.45783 7.39586 2.45785 7.39575 2.45787C7.39564 2.45789 7.39552 2.45791 7.39541 2.45793C7.3953 2.45795 7.39518 2.45796 7.39507 2.45798C7.39496 2.458 7.39485 2.45802 7.39473 2.45804C7.39462 2.45806 7.39451 2.45808 7.3944 2.45809C7.39428 2.45811 7.39417 2.45813 7.39406 2.45815C7.39395 2.45817 7.39383 2.45819 7.39372 2.4582C7.39361 2.45822 7.3935 2.45824 7.39339 2.45826C7.39327 2.45828 7.39316 2.4583 7.39305 2.45831C7.39294 2.45833 7.39282 2.45835 7.39271 2.45837C7.3926 2.45839 7.39249 2.45841 7.39237 2.45843C7.39226 2.45844 7.39215 2.45846 7.39204 2.45848C7.39193 2.4585 7.39181 2.45852 7.3917 2.45854C7.39159 2.45855 7.39148 2.45857 7.39137 2.45859C7.39125 2.45861 7.39114 2.45863 7.39103 2.45865C7.39092 2.45866 7.39081 2.45868 7.3907 2.4587C7.39058 2.45872 7.39047 2.45874 7.39036 2.45876C7.39025 2.45877 7.39014 2.45879 7.39002 2.45881C7.38991 2.45883 7.3898 2.45885 7.38969 2.45887C7.38958 2.45888 7.38947 2.4589 7.38935 2.45892C7.38924 2.45894 7.38913 2.45896 7.38902 2.45898C7.38891 2.45899 7.3888 2.45901 7.38868 2.45903C7.38857 2.45905 7.38846 2.45907 7.38835 2.45909C7.38824 2.4591 7.38813 2.45912 7.38802 2.45914C7.38791 2.45916 7.38779 2.45918 7.38768 2.4592C7.38757 2.45921 7.38746 2.45923 7.38735 2.45925C7.38724 2.45927 7.38713 2.45929 7.38702 2.4593C7.3869 2.45932 7.38679 2.45934 7.38668 2.45936C7.38657 2.45938 7.38646 2.4594 7.38635 2.45941C7.38624 2.45943 7.38613 2.45945 7.38601 2.45947C7.3859 2.45949 7.38579 2.45951 7.38568 2.45952C7.38557 2.45954 7.38546 2.45956 7.38535 2.45958C7.38524 2.4596 7.38513 2.45961 7.38502 2.45963C7.38491 2.45965 7.3848 2.45967 7.38468 2.45969C7.38457 2.45971 7.38446 2.45972 7.38435 2.45974C7.38424 2.45976 7.38413 2.45978 7.38402 2.4598C7.38391 2.45981 7.3838 2.45983 7.38369 2.45985C7.38358 2.45987 7.38347 2.45989 7.38336 2.4599C7.38325 2.45992 7.38314 2.45994 7.38303 2.45996C7.38292 2.45998 7.3828 2.46 7.38269 2.46001C7.38258 2.46003 7.38247 2.46005 7.38236 2.46007C7.38225 2.46009 7.38214 2.4601 7.38203 2.46012C7.38192 2.46014 7.38181 2.46016 7.3817 2.46018C7.38159 2.46019 7.38148 2.46021 7.38137 2.46023C7.38126 2.46025 7.38115 2.46027 7.38104 2.46028C7.38093 2.4603 7.38082 2.46032 7.38071 2.46034C7.3806 2.46036 7.38049 2.46038 7.38038 2.46039C7.38027 2.46041 7.38016 2.46043 7.38005 2.46045C7.37994 2.46047 7.37983 2.46048 7.37972 2.4605C7.37961 2.46052 7.3795 2.46054 7.37939 2.46056C7.37928 2.46057 7.37917 2.46059 7.37906 2.46061C7.37895 2.46063 7.37884 2.46065 7.37873 2.46066C7.37862 2.46068 7.37851 2.4607 7.3784 2.46072C7.37829 2.46074 7.37818 2.46075 7.37807 2.46077C7.37797 2.46079 7.37786 2.46081 7.37775 2.46083C7.37764 2.46084 7.37753 2.46086 7.37742 2.46088C7.37731 2.4609 7.3772 2.46092 7.37709 2.46093C7.37698 2.46095 7.37687 2.46097 7.37676 2.46099C7.37665 2.461 7.37654 2.46102 7.37643 2.46104C7.37632 2.46106 7.37622 2.46108 7.37611 2.46109C7.376 2.46111 7.37589 2.46113 7.37578 2.46115C7.37567 2.46117 7.37556 2.46118 7.37545 2.4612C7.37534 2.46122 7.37523 2.46124 7.37512 2.46126C7.37502 2.46127 7.37491 2.46129 7.3748 2.46131C7.37469 2.46133 7.37458 2.46134 7.37447 2.46136C7.37436 2.46138 7.37425 2.4614 7.37414 2.46142C7.37403 2.46143 7.37393 2.46145 7.37382 2.46147C7.37371 2.46149 7.3736 2.46151 7.37349 2.46152C7.37338 2.46154 7.37327 2.46156 7.37317 2.46158C7.37306 2.46159 7.37295 2.46161 7.37284 2.46163C7.37273 2.46165 7.37262 2.46167 7.37251 2.46168C7.3724 2.4617 7.3723 2.46172 7.37219 2.46174C7.37208 2.46176 7.37197 2.46177 7.37186 2.46179C7.37175 2.46181 7.37165 2.46183 7.37154 2.46184C7.37143 2.46186 7.37132 2.46188 7.37121 2.4619C7.3711 2.46192 7.371 2.46193 7.37089 2.46195C7.37078 2.46197 7.37067 2.46199 7.37056 2.462C7.37045 2.46202 7.37035 2.46204 7.37024 2.46206C7.37013 2.46207 7.37002 2.46209 7.36991 2.46211C7.36981 2.46213 7.3697 2.46215 7.36959 2.46216C7.36948 2.46218 7.36937 2.4622 7.36927 2.46222C7.36916 2.46223 7.36905 2.46225 7.36894 2.46227C7.36884 2.46229 7.36873 2.46231 7.36862 2.46232C7.36851 2.46234 7.3684 2.46236 7.3683 2.46238C7.36819 2.46239 7.36808 2.46241 7.36797 2.46243C7.36787 2.46245 7.36776 2.46246 7.36765 2.46248C7.36754 2.4625 7.36743 2.46252 7.36733 2.46253C7.36722 2.46255 7.36711 2.46257 7.367 2.46259C7.3669 2.46261 7.36679 2.46262 7.36668 2.46264C7.36657 2.46266 7.36647 2.46268 7.36636 2.46269C7.36625 2.46271 7.36614 2.46273 7.36604 2.46275C7.36593 2.46276 7.36582 2.46278 7.36572 2.4628C7.36561 2.46282 7.3655 2.46283 7.36539 2.46285C7.36529 2.46287 7.36518 2.46289 7.36507 2.4629C7.36497 2.46292 7.36486 2.46294 7.36475 2.46296C7.36464 2.46298 7.36454 2.46299 7.36443 2.46301C7.36432 2.46303 7.36422 2.46305 7.36411 2.46306C7.364 2.46308 7.3639 2.4631 7.36379 2.46312C7.36368 2.46313 7.36357 2.46315 7.36347 2.46317C7.36336 2.46319 7.36325 2.4632 7.36315 2.46322C7.36304 2.46324 7.36293 2.46326 7.36283 2.46327C7.36272 2.46329 7.36261 2.46331 7.36251 2.46333C7.3624 2.46334 7.36229 2.46336 7.36219 2.46338C7.36208 2.4634 7.36197 2.46341 7.36187 2.46343C7.36176 2.46345 7.36165 2.46347 7.36155 2.46348C7.36144 2.4635 7.36133 2.46352 7.36123 2.46354C7.36112 2.46355 7.36102 2.46357 7.36091 2.46359C7.3608 2.46361 7.3607 2.46362 7.36059 2.46364C7.36048 2.46366 7.36038 2.46367 7.36027 2.46369C7.36017 2.46371 7.36006 2.46373 7.35995 2.46374C7.35985 2.46376 7.35974 2.46378 7.35963 2.4638C7.35953 2.46381 7.35942 2.46383 7.35932 2.46385C7.35921 2.46387 7.3591 2.46388 7.359 2.4639C7.35889 2.46392 7.35879 2.46394 7.35868 2.46395C7.35857 2.46397 7.35847 2.46399 7.35836 2.46401C7.35826 2.46402 7.35815 2.46404 7.35804 2.46406C7.35794 2.46408 7.35783 2.46409 7.35773 2.46411C7.35762 2.46413 7.35752 2.46414 7.35741 2.46416C7.3573 2.46418 7.3572 2.4642 7.35709 2.46421C7.35699 2.46423 7.35688 2.46425 7.35678 2.46427C7.35667 2.46428 7.35656 2.4643 7.35646 2.46432C7.35635 2.46434 7.35625 2.46435 7.35614 2.46437C7.35604 2.46439 7.35593 2.4644 7.35583 2.46442C7.35572 2.46444 7.35562 2.46446 7.35551 2.46447C7.35541 2.46449 7.3553 2.46451 7.35519 2.46453C7.35509 2.46454 7.35498 2.46456 7.35488 2.46458C7.35477 2.46459 7.35467 2.46461 7.35456 2.46463C7.35446 2.46465 7.35435 2.46466 7.35425 2.46468C7.35414 2.4647 7.35404 2.46472 7.35393 2.46473C7.35383 2.46475 7.35372 2.46477 7.35362 2.46478C7.35351 2.4648 7.35341 2.46482 7.3533 2.46484C7.3532 2.46485 7.35309 2.46487 7.35299 2.46489C7.35288 2.4649 7.35278 2.46492 7.35267 2.46494C7.35257 2.46496 7.35246 2.46497 7.35236 2.46499C7.35225 2.46501 7.35215 2.46502 7.35205 2.46504C7.35194 2.46506 7.35184 2.46508 7.35173 2.46509C7.35163 2.46511 7.35152 2.46513 7.35142 2.46514C7.35131 2.46516 7.35121 2.46518 7.3511 2.4652C7.351 2.46521 7.3509 2.46523 7.35079 2.46525C7.35069 2.46526 7.35058 2.46528 7.35048 2.4653C7.35037 2.46532 7.35027 2.46533 7.35016 2.46535C7.35006 2.46537 7.34996 2.46538 7.34985 2.4654C7.34975 2.46542 7.34964 2.46544 7.34954 2.46545C7.34943 2.46547 7.34933 2.46549 7.34923 2.4655C7.34912 2.46552 7.34902 2.46554 7.34891 2.46556C7.34881 2.46557 7.34871 2.46559 7.3486 2.46561C7.3485 2.46562 7.34839 2.46564 7.34829 2.46566C7.34819 2.46568 7.34808 2.46569 7.34798 2.46571C7.34787 2.46573 7.34777 2.46574 7.34767 2.46576C7.34756 2.46578 7.34746 2.46579 7.34735 2.46581C7.34725 2.46583 7.34715 2.46585 7.34704 2.46586C7.34694 2.46588 7.34684 2.4659 7.34673 2.46591C7.34663 2.46593 7.34652 2.46595 7.34642 2.46596C7.34632 2.46598 7.34621 2.466 7.34611 2.46602C7.34601 2.46603 7.3459 2.46605 7.3458 2.46607C7.3457 2.46608 7.34559 2.4661 7.34549 2.46612C7.34539 2.46613 7.34528 2.46615 7.34518 2.46617C7.34508 2.46619 7.34497 2.4662 7.34487 2.46622C7.34477 2.46624 7.34466 2.46625 7.34456 2.46627C7.34446 2.46629 7.34435 2.4663 7.34425 2.46632C7.34415 2.46634 7.34404 2.46635 7.34394 2.46637C7.34384 2.46639 7.34374 2.46641 7.34363 2.46642C7.34353 2.46644 7.34343 2.46646 7.34332 2.46647C7.34322 2.46649 7.34312 2.46651 7.34301 2.46652C7.34291 2.46654 7.34281 2.46656 7.3427 2.46657C7.3426 2.46659 7.3425 2.46661 7.3424 2.46663C7.34229 2.46664 7.34219 2.46666 7.34209 2.46668C7.34199 2.46669 7.34188 2.46671 7.34178 2.46673C7.34168 2.46674 7.34157 2.46676 7.34147 2.46678C7.34137 2.46679 7.34127 2.46681 7.34116 2.46683C7.34106 2.46684 7.34096 2.46686 7.34086 2.46688C7.34075 2.46689 7.34065 2.46691 7.34055 2.46693C7.34045 2.46694 7.34034 2.46696 7.34024 2.46698C7.34014 2.467 7.34004 2.46701 7.33994 2.46703C7.33983 2.46705 7.33973 2.46706 7.33963 2.46708C7.33953 2.4671 7.33942 2.46711 7.33932 2.46713C7.33922 2.46715 7.33912 2.46716 7.33901 2.46718C7.33891 2.4672 7.33881 2.46721 7.33871 2.46723C7.33861 2.46725 7.3385 2.46726 7.3384 2.46728C7.3383 2.4673 7.3382 2.46731 7.3381 2.46733C7.33799 2.46735 7.33789 2.46736 7.33779 2.46738C7.33769 2.4674 7.33759 2.46741 7.33748 2.46743C7.33738 2.46745 7.33728 2.46746 7.33718 2.46748C7.33708 2.4675 7.33698 2.46751 7.33687 2.46753C7.33677 2.46755 7.33667 2.46756 7.33657 2.46758C7.33647 2.4676 7.33637 2.46761 7.33626 2.46763C7.33616 2.46765 7.33606 2.46766 7.33596 2.46768C7.33586 2.4677 7.33576 2.46771 7.33566 2.46773C7.33555 2.46775 7.33545 2.46776 7.33535 2.46778C7.33525 2.4678 7.33515 2.46781 7.33505 2.46783C7.33494 2.46785 7.33484 2.46786 7.33474 2.46788C7.33464 2.4679 7.33454 2.46791 7.33444 2.46793C7.33434 2.46795 7.33424 2.46796 7.33413 2.46798C7.33403 2.468 7.33393 2.46801 7.33383 2.46803C7.33373 2.46805 7.33363 2.46806 7.33353 2.46808C7.33343 2.4681 7.33333 2.46811 7.33323 2.46813C7.33312 2.46815 7.33302 2.46816 7.33292 2.46818C7.33282 2.4682 7.33272 2.46821 7.33262 2.46823C7.33252 2.46825 7.33242 2.46826 7.33232 2.46828C7.33222 2.4683 7.33211 2.46831 7.33201 2.46833C7.33191 2.46834 7.33181 2.46836 7.33171 2.46838C7.33161 2.46839 7.33151 2.46841 7.33141 2.46843C7.33131 2.46844 7.33121 2.46846 7.33111 2.46848C7.33101 2.46849 7.33091 2.46851 7.33081 2.46853C7.33071 2.46854 7.33061 2.46856 7.33051 2.46858C7.3304 2.46859 7.3303 2.46861 7.3302 2.46863C7.3301 2.46864 7.33 2.46866 7.3299 2.46867C7.3298 2.46869 7.3297 2.46871 7.3296 2.46872C7.3295 2.46874 7.3294 2.46876 7.3293 2.46877C7.3292 2.46879 7.3291 2.46881 7.329 2.46882C7.3289 2.46884 7.3288 2.46886 7.3287 2.46887C7.3286 2.46889 7.3285 2.4689 7.3284 2.46892C7.3283 2.46894 7.3282 2.46895 7.3281 2.46897C7.328 2.46899 7.3279 2.469 7.3278 2.46902C7.3277 2.46904 7.3276 2.46905 7.3275 2.46907C7.3274 2.46909 7.3273 2.4691 7.3272 2.46912C7.3271 2.46913 7.327 2.46915 7.3269 2.46917C7.3268 2.46918 7.3267 2.4692 7.3266 2.46922C7.3265 2.46923 7.3264 2.46925 7.3263 2.46927C7.3262 2.46928 7.3261 2.4693 7.326 2.46931C7.3259 2.46933 7.32581 2.46935 7.32571 2.46936C7.32561 2.46938 7.32551 2.4694 7.32541 2.46941C7.32531 2.46943 7.32521 2.46944 7.32511 2.46946C7.32501 2.46948 7.32491 2.46949 7.32481 2.46951C7.32471 2.46953 7.32461 2.46954 7.32451 2.46956C7.32441 2.46958 7.32432 2.46959 7.32422 2.46961C7.32412 2.46962 7.32402 2.46964 7.32392 2.46966C7.32382 2.46967 7.32372 2.46969 7.32362 2.46971C7.32352 2.46972 7.32342 2.46974 7.32332 2.46975C7.32322 2.46977 7.32313 2.46979 7.32303 2.4698C7.32293 2.46982 7.32283 2.46984 7.32273 2.46985C7.32263 2.46987 7.32253 2.46988 7.32243 2.4699C7.32234 2.46992 7.32224 2.46993 7.32214 2.46995C7.32204 2.46997 7.32194 2.46998 7.32184 2.47C7.32174 2.47001 7.32164 2.47003 7.32154 2.47005C7.32145 2.47006 7.32135 2.47008 7.32125 2.47009C7.32115 2.47011 7.32105 2.47013 7.32095 2.47014C7.32085 2.47016 7.32076 2.47018 7.32066 2.47019C7.32056 2.47021 7.32046 2.47022 7.32036 2.47024C7.32026 2.47026 7.32017 2.47027 7.32007 2.47029C7.31997 2.4703 7.31987 2.47032 7.31977 2.47034C7.31967 2.47035 7.31958 2.47037 7.31948 2.47039C7.31938 2.4704 7.31928 2.47042 7.31918 2.47043C7.31908 2.47045 7.31899 2.47047 7.31889 2.47048C7.31879 2.4705 7.31869 2.47051 7.31859 2.47053C7.3185 2.47055 7.3184 2.47056 7.3183 2.47058C7.3182 2.47059 7.3181 2.47061 7.31801 2.47063C7.31791 2.47064 7.31781 2.47066 7.31771 2.47067C7.31761 2.47069 7.31752 2.47071 7.31742 2.47072C7.31732 2.47074 7.31722 2.47076 7.31713 2.47077C7.31703 2.47079 7.31693 2.4708 7.31683 2.47082C7.31673 2.47084 7.31664 2.47085 7.31654 2.47087C7.31644 2.47088 7.31634 2.4709 7.31625 2.47092C7.31615 2.47093 7.31605 2.47095 7.31595 2.47096C7.31586 2.47098 7.31576 2.471 7.31566 2.47101C7.31556 2.47103 7.31547 2.47104 7.31537 2.47106C7.31527 2.47108 7.31517 2.47109 7.31508 2.47111C7.31498 2.47112 7.31488 2.47114 7.31479 2.47115C7.31469 2.47117 7.31459 2.47119 7.31449 2.4712C7.3144 2.47122 7.3143 2.47123 7.3142 2.47125C7.31411 2.47127 7.31401 2.47128 7.31391 2.4713C7.31381 2.47131 7.31372 2.47133 7.31362 2.47135C7.31352 2.47136 7.31343 2.47138 7.31333 2.47139C7.31323 2.47141 7.31313 2.47143 7.31304 2.47144C7.31294 2.47146 7.31284 2.47147 7.31275 2.47149C7.31265 2.47151 7.31255 2.47152 7.31246 2.47154C7.31236 2.47155 7.31226 2.47157 7.31217 2.47158C7.31207 2.4716 7.31197 2.47162 7.31188 2.47163C7.31178 2.47165 7.31168 2.47166 7.31159 2.47168C7.31149 2.4717 7.31139 2.47171 7.3113 2.47173C7.3112 2.47174 7.3111 2.47176 7.31101 2.47177C7.31091 2.47179 7.31081 2.47181 7.31072 2.47182C7.31062 2.47184 7.31052 2.47185 7.31043 2.47187C7.31033 2.47189 7.31024 2.4719 7.31014 2.47192C7.31004 2.47193 7.30995 2.47195 7.30985 2.47196C7.30975 2.47198 7.30966 2.472 7.30956 2.47201C7.30947 2.47203 7.30937 2.47204 7.30927 2.47206C7.30918 2.47208 7.30908 2.47209 7.30898 2.47211C7.30889 2.47212 7.30879 2.47214 7.3087 2.47215C7.3086 2.47217 7.3085 2.47219 7.30841 2.4722C7.30831 2.47222 7.30822 2.47223 7.30812 2.47225C7.30803 2.47226 7.30793 2.47228 7.30783 2.4723C7.30774 2.47231 7.30764 2.47233 7.30755 2.47234C7.30745 2.47236 7.30735 2.47237 7.30726 2.47239C7.30716 2.47241 7.30707 2.47242 7.30697 2.47244C7.30688 2.47245 7.30678 2.47247 7.30669 2.47248C7.30659 2.4725 7.30649 2.47252 7.3064 2.47253C7.3063 2.47255 7.30621 2.47256 7.30611 2.47258C7.30602 2.47259 7.30592 2.47261 7.30583 2.47263C7.30573 2.47264 7.30564 2.47266 7.30554 2.47267C7.30544 2.47269 7.30535 2.4727 7.30525 2.47272C7.30516 2.47273 7.30506 2.47275 7.30497 2.47277C7.30487 2.47278 7.30478 2.4728 7.30468 2.47281C7.30459 2.47283 7.30449 2.47284 7.3044 2.47286C7.3043 2.47287 7.30421 2.47289 7.30411 2.47291C7.30402 2.47292 7.30392 2.47294 7.30383 2.47295C7.30373 2.47297 7.30364 2.47298 7.30354 2.473C7.30345 2.47302 7.30335 2.47303 7.30326 2.47305C7.30316 2.47306 7.30307 2.47308 7.30297 2.47309C7.30288 2.47311 7.30278 2.47312 7.30269 2.47314C7.30259 2.47316 7.3025 2.47317 7.3024 2.47319C7.30231 2.4732 7.30222 2.47322 7.30212 2.47323C7.30203 2.47325 7.30193 2.47326 7.30184 2.47328C7.30174 2.47329 7.30165 2.47331 7.30155 2.47333C7.30146 2.47334 7.30136 2.47336 7.30127 2.47337C7.30118 2.47339 7.30108 2.4734 7.30099 2.47342C7.30089 2.47343 7.3008 2.47345 7.3007 2.47347C7.30061 2.47348 7.30051 2.4735 7.30042 2.47351C7.30033 2.47353 7.30023 2.47354 7.30014 2.47356C7.30004 2.47357 7.29995 2.47359 7.29986 2.4736C7.29976 2.47362 7.29967 2.47364 7.29957 2.47365C7.29948 2.47367 7.29938 2.47368 7.29929 2.4737C7.2992 2.47371 7.2991 2.47373 7.29901 2.47374C7.29891 2.47376 7.29882 2.47377 7.29873 2.47379C7.29863 2.47381 7.29854 2.47382 7.29845 2.47384C7.29835 2.47385 7.29826 2.47387 7.29816 2.47388C7.29807 2.4739 7.29798 2.47391 7.29788 2.47393C7.29779 2.47394 7.2977 2.47396 7.2976 2.47397C7.29751 2.47399 7.29741 2.47401 7.29732 2.47402C7.29723 2.47404 7.29713 2.47405 7.29704 2.47407C7.29695 2.47408 7.29685 2.4741 7.29676 2.47411C7.29667 2.47413 7.29657 2.47414 7.29648 2.47416C7.29639 2.47417 7.29629 2.47419 7.2962 2.4742C7.29611 2.47422 7.29601 2.47423 7.29592 2.47425C7.29583 2.47427 7.29573 2.47428 7.29564 2.4743C7.29555 2.47431 7.29545 2.47433 7.29536 2.47434C7.29527 2.47436 7.29517 2.47437 7.29508 2.47439C7.29499 2.4744 7.29489 2.47442 7.2948 2.47443C7.29471 2.47445 7.29462 2.47446 7.29452 2.47448C7.29443 2.47449 7.29434 2.47451 7.29424 2.47453C7.29415 2.47454 7.29406 2.47456 7.29396 2.47457C7.29387 2.47459 7.29378 2.4746 7.29369 2.47462C7.29359 2.47463 7.2935 2.47465 7.29341 2.47466C7.29331 2.47468 7.29322 2.47469 7.29313 2.47471C7.29304 2.47472 7.29294 2.47474 7.29285 2.47475C7.29276 2.47477 7.29267 2.47478 7.29257 2.4748C7.29248 2.47481 7.29239 2.47483 7.2923 2.47484L7.35706 2.86957L7.42182 3.26429C7.42191 3.26428 7.422 3.26426 7.42209 3.26425C7.42219 3.26423 7.42228 3.26421 7.42237 3.2642C7.42246 3.26418 7.42256 3.26417 7.42265 3.26415C7.42274 3.26414 7.42283 3.26412 7.42293 3.26411C7.42302 3.26409 7.42311 3.26408 7.42321 3.26406C7.4233 3.26405 7.42339 3.26403 7.42348 3.26402C7.42358 3.264 7.42367 3.26399 7.42376 3.26397C7.42386 3.26396 7.42395 3.26394 7.42404 3.26393C7.42413 3.26391 7.42423 3.26389 7.42432 3.26388C7.42441 3.26386 7.42451 3.26385 7.4246 3.26383C7.42469 3.26382 7.42479 3.2638 7.42488 3.26379C7.42497 3.26377 7.42507 3.26376 7.42516 3.26374C7.42525 3.26373 7.42535 3.26371 7.42544 3.2637C7.42553 3.26368 7.42563 3.26367 7.42572 3.26365C7.42581 3.26364 7.42591 3.26362 7.426 3.2636C7.42609 3.26359 7.42619 3.26357 7.42628 3.26356C7.42637 3.26354 7.42647 3.26353 7.42656 3.26351C7.42665 3.2635 7.42675 3.26348 7.42684 3.26347C7.42693 3.26345 7.42703 3.26344 7.42712 3.26342C7.42722 3.2634 7.42731 3.26339 7.4274 3.26337C7.4275 3.26336 7.42759 3.26334 7.42768 3.26333C7.42778 3.26331 7.42787 3.2633 7.42797 3.26328C7.42806 3.26327 7.42815 3.26325 7.42825 3.26324C7.42834 3.26322 7.42843 3.2632 7.42853 3.26319C7.42862 3.26317 7.42872 3.26316 7.42881 3.26314C7.4289 3.26313 7.429 3.26311 7.42909 3.2631C7.42919 3.26308 7.42928 3.26307 7.42937 3.26305C7.42947 3.26304 7.42956 3.26302 7.42966 3.263C7.42975 3.26299 7.42985 3.26297 7.42994 3.26296C7.43003 3.26294 7.43013 3.26293 7.43022 3.26291C7.43032 3.2629 7.43041 3.26288 7.43051 3.26286C7.4306 3.26285 7.4307 3.26283 7.43079 3.26282C7.43088 3.2628 7.43098 3.26279 7.43107 3.26277C7.43117 3.26276 7.43126 3.26274 7.43136 3.26273C7.43145 3.26271 7.43155 3.26269 7.43164 3.26268C7.43174 3.26266 7.43183 3.26265 7.43192 3.26263C7.43202 3.26262 7.43211 3.2626 7.43221 3.26259C7.4323 3.26257 7.4324 3.26255 7.43249 3.26254C7.43259 3.26252 7.43268 3.26251 7.43278 3.26249C7.43287 3.26248 7.43297 3.26246 7.43306 3.26245C7.43316 3.26243 7.43325 3.26241 7.43335 3.2624C7.43344 3.26238 7.43354 3.26237 7.43363 3.26235C7.43373 3.26234 7.43382 3.26232 7.43392 3.26231C7.43401 3.26229 7.43411 3.26227 7.4342 3.26226C7.4343 3.26224 7.43439 3.26223 7.43449 3.26221C7.43458 3.2622 7.43468 3.26218 7.43477 3.26216C7.43487 3.26215 7.43496 3.26213 7.43506 3.26212C7.43516 3.2621 7.43525 3.26209 7.43535 3.26207C7.43544 3.26206 7.43554 3.26204 7.43563 3.26202C7.43573 3.26201 7.43582 3.26199 7.43592 3.26198C7.43601 3.26196 7.43611 3.26195 7.43621 3.26193C7.4363 3.26191 7.4364 3.2619 7.43649 3.26188C7.43659 3.26187 7.43668 3.26185 7.43678 3.26184C7.43687 3.26182 7.43697 3.2618 7.43707 3.26179C7.43716 3.26177 7.43726 3.26176 7.43735 3.26174C7.43745 3.26173 7.43755 3.26171 7.43764 3.26169C7.43774 3.26168 7.43783 3.26166 7.43793 3.26165C7.43802 3.26163 7.43812 3.26162 7.43822 3.2616C7.43831 3.26158 7.43841 3.26157 7.4385 3.26155C7.4386 3.26154 7.4387 3.26152 7.43879 3.26151C7.43889 3.26149 7.43899 3.26147 7.43908 3.26146C7.43918 3.26144 7.43927 3.26143 7.43937 3.26141C7.43947 3.26139 7.43956 3.26138 7.43966 3.26136C7.43976 3.26135 7.43985 3.26133 7.43995 3.26132C7.44004 3.2613 7.44014 3.26128 7.44024 3.26127C7.44033 3.26125 7.44043 3.26124 7.44053 3.26122C7.44062 3.26121 7.44072 3.26119 7.44082 3.26117C7.44091 3.26116 7.44101 3.26114 7.44111 3.26113C7.4412 3.26111 7.4413 3.26109 7.4414 3.26108C7.44149 3.26106 7.44159 3.26105 7.44169 3.26103C7.44178 3.26101 7.44188 3.261 7.44198 3.26098C7.44207 3.26097 7.44217 3.26095 7.44227 3.26094C7.44236 3.26092 7.44246 3.2609 7.44256 3.26089C7.44265 3.26087 7.44275 3.26086 7.44285 3.26084C7.44295 3.26082 7.44304 3.26081 7.44314 3.26079C7.44324 3.26078 7.44333 3.26076 7.44343 3.26074C7.44353 3.26073 7.44362 3.26071 7.44372 3.2607C7.44382 3.26068 7.44392 3.26066 7.44401 3.26065C7.44411 3.26063 7.44421 3.26062 7.44431 3.2606C7.4444 3.26059 7.4445 3.26057 7.4446 3.26055C7.44469 3.26054 7.44479 3.26052 7.44489 3.26051C7.44499 3.26049 7.44508 3.26047 7.44518 3.26046C7.44528 3.26044 7.44538 3.26043 7.44547 3.26041C7.44557 3.26039 7.44567 3.26038 7.44577 3.26036C7.44586 3.26035 7.44596 3.26033 7.44606 3.26031C7.44616 3.2603 7.44625 3.26028 7.44635 3.26027C7.44645 3.26025 7.44655 3.26023 7.44664 3.26022C7.44674 3.2602 7.44684 3.26018 7.44694 3.26017C7.44704 3.26015 7.44713 3.26014 7.44723 3.26012C7.44733 3.2601 7.44743 3.26009 7.44753 3.26007C7.44762 3.26006 7.44772 3.26004 7.44782 3.26002C7.44792 3.26001 7.44802 3.25999 7.44811 3.25998C7.44821 3.25996 7.44831 3.25994 7.44841 3.25993C7.44851 3.25991 7.4486 3.2599 7.4487 3.25988C7.4488 3.25986 7.4489 3.25985 7.449 3.25983C7.4491 3.25982 7.44919 3.2598 7.44929 3.25978C7.44939 3.25977 7.44949 3.25975 7.44959 3.25973C7.44969 3.25972 7.44978 3.2597 7.44988 3.25969C7.44998 3.25967 7.45008 3.25965 7.45018 3.25964C7.45028 3.25962 7.45037 3.25961 7.45047 3.25959C7.45057 3.25957 7.45067 3.25956 7.45077 3.25954C7.45087 3.25952 7.45097 3.25951 7.45106 3.25949C7.45116 3.25948 7.45126 3.25946 7.45136 3.25944C7.45146 3.25943 7.45156 3.25941 7.45166 3.25939C7.45176 3.25938 7.45185 3.25936 7.45195 3.25935C7.45205 3.25933 7.45215 3.25931 7.45225 3.2593C7.45235 3.25928 7.45245 3.25927 7.45255 3.25925C7.45265 3.25923 7.45274 3.25922 7.45284 3.2592C7.45294 3.25918 7.45304 3.25917 7.45314 3.25915C7.45324 3.25914 7.45334 3.25912 7.45344 3.2591C7.45354 3.25909 7.45364 3.25907 7.45374 3.25905C7.45383 3.25904 7.45393 3.25902 7.45403 3.259C7.45413 3.25899 7.45423 3.25897 7.45433 3.25896C7.45443 3.25894 7.45453 3.25892 7.45463 3.25891C7.45473 3.25889 7.45483 3.25887 7.45493 3.25886C7.45503 3.25884 7.45513 3.25883 7.45523 3.25881C7.45533 3.25879 7.45542 3.25878 7.45552 3.25876C7.45562 3.25874 7.45572 3.25873 7.45582 3.25871C7.45592 3.25869 7.45602 3.25868 7.45612 3.25866C7.45622 3.25865 7.45632 3.25863 7.45642 3.25861C7.45652 3.2586 7.45662 3.25858 7.45672 3.25856C7.45682 3.25855 7.45692 3.25853 7.45702 3.25851C7.45712 3.2585 7.45722 3.25848 7.45732 3.25847C7.45742 3.25845 7.45752 3.25843 7.45762 3.25842C7.45772 3.2584 7.45782 3.25838 7.45792 3.25837C7.45802 3.25835 7.45812 3.25833 7.45822 3.25832C7.45832 3.2583 7.45842 3.25829 7.45852 3.25827C7.45862 3.25825 7.45872 3.25824 7.45882 3.25822C7.45892 3.2582 7.45902 3.25819 7.45912 3.25817C7.45922 3.25815 7.45932 3.25814 7.45942 3.25812C7.45952 3.2581 7.45962 3.25809 7.45972 3.25807C7.45982 3.25805 7.45992 3.25804 7.46003 3.25802C7.46013 3.25801 7.46023 3.25799 7.46033 3.25797C7.46043 3.25796 7.46053 3.25794 7.46063 3.25792C7.46073 3.25791 7.46083 3.25789 7.46093 3.25787C7.46103 3.25786 7.46113 3.25784 7.46123 3.25782C7.46133 3.25781 7.46143 3.25779 7.46153 3.25777C7.46163 3.25776 7.46174 3.25774 7.46184 3.25772C7.46194 3.25771 7.46204 3.25769 7.46214 3.25768C7.46224 3.25766 7.46234 3.25764 7.46244 3.25763C7.46254 3.25761 7.46264 3.25759 7.46275 3.25758C7.46285 3.25756 7.46295 3.25754 7.46305 3.25753C7.46315 3.25751 7.46325 3.25749 7.46335 3.25748C7.46345 3.25746 7.46355 3.25744 7.46365 3.25743C7.46376 3.25741 7.46386 3.25739 7.46396 3.25738C7.46406 3.25736 7.46416 3.25734 7.46426 3.25733C7.46436 3.25731 7.46446 3.25729 7.46457 3.25728C7.46467 3.25726 7.46477 3.25724 7.46487 3.25723C7.46497 3.25721 7.46507 3.25719 7.46517 3.25718C7.46528 3.25716 7.46538 3.25714 7.46548 3.25713C7.46558 3.25711 7.46568 3.25709 7.46578 3.25708C7.46589 3.25706 7.46599 3.25704 7.46609 3.25703C7.46619 3.25701 7.46629 3.25699 7.46639 3.25698C7.4665 3.25696 7.4666 3.25694 7.4667 3.25693C7.4668 3.25691 7.4669 3.25689 7.467 3.25688C7.46711 3.25686 7.46721 3.25684 7.46731 3.25683C7.46741 3.25681 7.46751 3.25679 7.46762 3.25678C7.46772 3.25676 7.46782 3.25674 7.46792 3.25673C7.46802 3.25671 7.46813 3.25669 7.46823 3.25668C7.46833 3.25666 7.46843 3.25664 7.46853 3.25663C7.46864 3.25661 7.46874 3.25659 7.46884 3.25658C7.46894 3.25656 7.46905 3.25654 7.46915 3.25653C7.46925 3.25651 7.46935 3.25649 7.46946 3.25647C7.46956 3.25646 7.46966 3.25644 7.46976 3.25642C7.46986 3.25641 7.46997 3.25639 7.47007 3.25637C7.47017 3.25636 7.47027 3.25634 7.47038 3.25632C7.47048 3.25631 7.47058 3.25629 7.47068 3.25627C7.47079 3.25626 7.47089 3.25624 7.47099 3.25622C7.47109 3.25621 7.4712 3.25619 7.4713 3.25617C7.4714 3.25616 7.47151 3.25614 7.47161 3.25612C7.47171 3.2561 7.47181 3.25609 7.47192 3.25607C7.47202 3.25605 7.47212 3.25604 7.47222 3.25602C7.47233 3.256 7.47243 3.25599 7.47253 3.25597C7.47264 3.25595 7.47274 3.25594 7.47284 3.25592C7.47295 3.2559 7.47305 3.25589 7.47315 3.25587C7.47326 3.25585 7.47336 3.25583 7.47346 3.25582C7.47356 3.2558 7.47367 3.25578 7.47377 3.25577C7.47387 3.25575 7.47398 3.25573 7.47408 3.25572C7.47418 3.2557 7.47429 3.25568 7.47439 3.25567C7.47449 3.25565 7.4746 3.25563 7.4747 3.25561C7.4748 3.2556 7.47491 3.25558 7.47501 3.25556C7.47511 3.25555 7.47522 3.25553 7.47532 3.25551C7.47542 3.2555 7.47553 3.25548 7.47563 3.25546C7.47573 3.25544 7.47584 3.25543 7.47594 3.25541C7.47604 3.25539 7.47615 3.25538 7.47625 3.25536C7.47636 3.25534 7.47646 3.25533 7.47656 3.25531C7.47667 3.25529 7.47677 3.25527 7.47687 3.25526C7.47698 3.25524 7.47708 3.25522 7.47719 3.25521C7.47729 3.25519 7.47739 3.25517 7.4775 3.25516C7.4776 3.25514 7.47771 3.25512 7.47781 3.2551C7.47791 3.25509 7.47802 3.25507 7.47812 3.25505C7.47823 3.25504 7.47833 3.25502 7.47843 3.255C7.47854 3.25498 7.47864 3.25497 7.47875 3.25495C7.47885 3.25493 7.47895 3.25492 7.47906 3.2549C7.47916 3.25488 7.47927 3.25486 7.47937 3.25485C7.47947 3.25483 7.47958 3.25481 7.47968 3.2548C7.47979 3.25478 7.47989 3.25476 7.48 3.25475C7.4801 3.25473 7.48021 3.25471 7.48031 3.25469C7.48042 3.25468 7.48052 3.25466 7.48062 3.25464C7.48073 3.25463 7.48083 3.25461 7.48094 3.25459C7.48104 3.25457 7.48115 3.25456 7.48125 3.25454C7.48136 3.25452 7.48146 3.25451 7.48157 3.25449C7.48167 3.25447 7.48177 3.25445 7.48188 3.25444C7.48198 3.25442 7.48209 3.2544 7.48219 3.25438C7.4823 3.25437 7.4824 3.25435 7.48251 3.25433C7.48261 3.25432 7.48272 3.2543 7.48282 3.25428C7.48293 3.25426 7.48303 3.25425 7.48314 3.25423C7.48324 3.25421 7.48335 3.2542 7.48345 3.25418C7.48356 3.25416 7.48366 3.25414 7.48377 3.25413C7.48387 3.25411 7.48398 3.25409 7.48408 3.25407C7.48419 3.25406 7.48429 3.25404 7.4844 3.25402C7.4845 3.25401 7.48461 3.25399 7.48471 3.25397C7.48482 3.25395 7.48492 3.25394 7.48503 3.25392C7.48514 3.2539 7.48524 3.25388 7.48535 3.25387C7.48545 3.25385 7.48556 3.25383 7.48566 3.25382C7.48577 3.2538 7.48587 3.25378 7.48598 3.25376C7.48608 3.25375 7.48619 3.25373 7.4863 3.25371C7.4864 3.25369 7.48651 3.25368 7.48661 3.25366C7.48672 3.25364 7.48682 3.25363 7.48693 3.25361C7.48704 3.25359 7.48714 3.25357 7.48725 3.25356C7.48735 3.25354 7.48746 3.25352 7.48756 3.2535C7.48767 3.25349 7.48778 3.25347 7.48788 3.25345C7.48799 3.25343 7.48809 3.25342 7.4882 3.2534C7.48831 3.25338 7.48841 3.25336 7.48852 3.25335C7.48862 3.25333 7.48873 3.25331 7.48884 3.2533C7.48894 3.25328 7.48905 3.25326 7.48915 3.25324C7.48926 3.25323 7.48937 3.25321 7.48947 3.25319C7.48958 3.25317 7.48968 3.25316 7.48979 3.25314C7.4899 3.25312 7.49 3.2531 7.49011 3.25309C7.49022 3.25307 7.49032 3.25305 7.49043 3.25303C7.49054 3.25302 7.49064 3.253 7.49075 3.25298C7.49085 3.25296 7.49096 3.25295 7.49107 3.25293C7.49117 3.25291 7.49128 3.25289 7.49139 3.25288C7.49149 3.25286 7.4916 3.25284 7.49171 3.25282C7.49181 3.25281 7.49192 3.25279 7.49203 3.25277C7.49213 3.25275 7.49224 3.25274 7.49235 3.25272C7.49245 3.2527 7.49256 3.25268 7.49267 3.25267C7.49277 3.25265 7.49288 3.25263 7.49299 3.25261C7.49309 3.2526 7.4932 3.25258 7.49331 3.25256C7.49342 3.25254 7.49352 3.25253 7.49363 3.25251C7.49374 3.25249 7.49384 3.25247 7.49395 3.25246C7.49406 3.25244 7.49416 3.25242 7.49427 3.2524C7.49438 3.25239 7.49449 3.25237 7.49459 3.25235C7.4947 3.25233 7.49481 3.25232 7.49491 3.2523C7.49502 3.25228 7.49513 3.25226 7.49524 3.25225C7.49534 3.25223 7.49545 3.25221 7.49556 3.25219C7.49566 3.25217 7.49577 3.25216 7.49588 3.25214C7.49599 3.25212 7.49609 3.2521 7.4962 3.25209C7.49631 3.25207 7.49642 3.25205 7.49652 3.25203C7.49663 3.25202 7.49674 3.252 7.49685 3.25198C7.49695 3.25196 7.49706 3.25195 7.49717 3.25193C7.49728 3.25191 7.49738 3.25189 7.49749 3.25187C7.4976 3.25186 7.49771 3.25184 7.49782 3.25182C7.49792 3.2518 7.49803 3.25179 7.49814 3.25177C7.49825 3.25175 7.49836 3.25173 7.49846 3.25172C7.49857 3.2517 7.49868 3.25168 7.49879 3.25166C7.49889 3.25164 7.499 3.25163 7.49911 3.25161C7.49922 3.25159 7.49933 3.25157 7.49943 3.25156C7.49954 3.25154 7.49965 3.25152 7.49976 3.2515C7.49987 3.25149 7.49997 3.25147 7.50008 3.25145C7.50019 3.25143 7.5003 3.25141 7.50041 3.2514C7.50052 3.25138 7.50062 3.25136 7.50073 3.25134C7.50084 3.25133 7.50095 3.25131 7.50106 3.25129C7.50117 3.25127 7.50127 3.25125 7.50138 3.25124C7.50149 3.25122 7.5016 3.2512 7.50171 3.25118C7.50182 3.25117 7.50192 3.25115 7.50203 3.25113C7.50214 3.25111 7.50225 3.25109 7.50236 3.25108C7.50247 3.25106 7.50258 3.25104 7.50269 3.25102C7.50279 3.25101 7.5029 3.25099 7.50301 3.25097C7.50312 3.25095 7.50323 3.25093 7.50334 3.25092C7.50345 3.2509 7.50355 3.25088 7.50366 3.25086C7.50377 3.25084 7.50388 3.25083 7.50399 3.25081C7.5041 3.25079 7.50421 3.25077 7.50432 3.25076C7.50443 3.25074 7.50454 3.25072 7.50464 3.2507C7.50475 3.25068 7.50486 3.25067 7.50497 3.25065C7.50508 3.25063 7.50519 3.25061 7.5053 3.25059C7.50541 3.25058 7.50552 3.25056 7.50563 3.25054C7.50574 3.25052 7.50584 3.2505 7.50595 3.25049C7.50606 3.25047 7.50617 3.25045 7.50628 3.25043C7.50639 3.25041 7.5065 3.2504 7.50661 3.25038C7.50672 3.25036 7.50683 3.25034 7.50694 3.25033C7.50705 3.25031 7.50716 3.25029 7.50727 3.25027C7.50738 3.25025 7.50749 3.25024 7.50759 3.25022C7.5077 3.2502 7.50781 3.25018 7.50792 3.25016C7.50803 3.25015 7.50814 3.25013 7.50825 3.25011C7.50836 3.25009 7.50847 3.25007 7.50858 3.25006C7.50869 3.25004 7.5088 3.25002 7.50891 3.25C7.50902 3.24998 7.50913 3.24997 7.50924 3.24995C7.50935 3.24993 7.50946 3.24991 7.50957 3.24989C7.50968 3.24988 7.50979 3.24986 7.5099 3.24984C7.51001 3.24982 7.51012 3.2498 7.51023 3.24979C7.51034 3.24977 7.51045 3.24975 7.51056 3.24973C7.51067 3.24971 7.51078 3.24969 7.51089 3.24968C7.511 3.24966 7.51111 3.24964 7.51122 3.24962C7.51133 3.2496 7.51144 3.24959 7.51155 3.24957C7.51166 3.24955 7.51177 3.24953 7.51188 3.24951C7.51199 3.2495 7.5121 3.24948 7.51221 3.24946C7.51232 3.24944 7.51243 3.24942 7.51254 3.24941C7.51266 3.24939 7.51277 3.24937 7.51288 3.24935C7.51299 3.24933 7.5131 3.24931 7.51321 3.2493C7.51332 3.24928 7.51343 3.24926 7.51354 3.24924C7.51365 3.24922 7.51376 3.24921 7.51387 3.24919C7.51398 3.24917 7.51409 3.24915 7.5142 3.24913C7.51432 3.24911 7.51443 3.2491 7.51454 3.24908C7.51465 3.24906 7.51476 3.24904 7.51487 3.24902C7.51498 3.24901 7.51509 3.24899 7.5152 3.24897C7.51531 3.24895 7.51542 3.24893 7.51553 3.24891C7.51565 3.2489 7.51576 3.24888 7.51587 3.24886C7.51598 3.24884 7.51609 3.24882 7.5162 3.24881C7.51631 3.24879 7.51642 3.24877 7.51654 3.24875C7.51665 3.24873 7.51676 3.24871 7.51687 3.2487C7.51698 3.24868 7.51709 3.24866 7.5172 3.24864C7.51731 3.24862 7.51743 3.2486 7.51754 3.24859C7.51765 3.24857 7.51776 3.24855 7.51787 3.24853C7.51798 3.24851 7.51809 3.24849 7.5182 3.24848C7.51832 3.24846 7.51843 3.24844 7.51854 3.24842C7.51865 3.2484 7.51876 3.24839 7.51887 3.24837C7.51899 3.24835 7.5191 3.24833 7.51921 3.24831C7.51932 3.24829 7.51943 3.24828 7.51954 3.24826C7.51966 3.24824 7.51977 3.24822 7.51988 3.2482C7.51999 3.24818 7.5201 3.24817 7.52021 3.24815C7.52033 3.24813 7.52044 3.24811 7.52055 3.24809C7.52066 3.24807 7.52077 3.24806 7.52089 3.24804C7.521 3.24802 7.52111 3.248 7.52122 3.24798C7.52133 3.24796 7.52145 3.24794 7.52156 3.24793C7.52167 3.24791 7.52178 3.24789 7.52189 3.24787C7.52201 3.24785 7.52212 3.24783 7.52223 3.24782C7.52234 3.2478 7.52246 3.24778 7.52257 3.24776C7.52268 3.24774 7.52279 3.24772 7.52291 3.24771C7.52302 3.24769 7.52313 3.24767 7.52324 3.24765C7.52335 3.24763 7.52347 3.24761 7.52358 3.24759C7.52369 3.24758 7.5238 3.24756 7.52392 3.24754C7.52403 3.24752 7.52414 3.2475 7.52425 3.24748C7.52437 3.24747 7.52448 3.24745 7.52459 3.24743C7.5247 3.24741 7.52482 3.24739 7.52493 3.24737C7.52504 3.24735 7.52516 3.24734 7.52527 3.24732C7.52538 3.2473 7.52549 3.24728 7.52561 3.24726C7.52572 3.24724 7.52583 3.24723 7.52595 3.24721C7.52606 3.24719 7.52617 3.24717 7.52628 3.24715C7.5264 3.24713 7.52651 3.24711 7.52662 3.2471C7.52674 3.24708 7.52685 3.24706 7.52696 3.24704C7.52707 3.24702 7.52719 3.247 7.5273 3.24698C7.52741 3.24697 7.52753 3.24695 7.52764 3.24693C7.52775 3.24691 7.52787 3.24689 7.52798 3.24687C7.52809 3.24685 7.52821 3.24684 7.52832 3.24682C7.52843 3.2468 7.52855 3.24678 7.52866 3.24676C7.52877 3.24674 7.52889 3.24672 7.529 3.24671C7.52911 3.24669 7.52923 3.24667 7.52934 3.24665C7.52945 3.24663 7.52957 3.24661 7.52968 3.24659C7.52979 3.24658 7.52991 3.24656 7.53002 3.24654C7.53013 3.24652 7.53025 3.2465 7.53036 3.24648C7.53048 3.24646 7.53059 3.24644 7.5307 3.24643C7.53082 3.24641 7.53093 3.24639 7.53104 3.24637C7.53116 3.24635 7.53127 3.24633 7.53139 3.24631C7.5315 3.2463 7.53161 3.24628 7.53173 3.24626C7.53184 3.24624 7.53196 3.24622 7.53207 3.2462C7.53218 3.24618 7.5323 3.24616 7.53241 3.24615C7.53253 3.24613 7.53264 3.24611 7.53275 3.24609C7.53287 3.24607 7.53298 3.24605 7.5331 3.24603C7.53321 3.24601 7.53332 3.246 7.53344 3.24598C7.53355 3.24596 7.53367 3.24594 7.53378 3.24592C7.5339 3.2459 7.53401 3.24588 7.53412 3.24586C7.53424 3.24585 7.53435 3.24583 7.53447 3.24581C7.53458 3.24579 7.5347 3.24577 7.53481 3.24575C7.53492 3.24573 7.53504 3.24571 7.53515 3.2457C7.53527 3.24568 7.53538 3.24566 7.5355 3.24564C7.53561 3.24562 7.53573 3.2456 7.53584 3.24558C7.53596 3.24556 7.53607 3.24555 7.53619 3.24553C7.5363 3.24551 7.53641 3.24549 7.53653 3.24547C7.53664 3.24545 7.53676 3.24543 7.53687 3.24541C7.53699 3.2454 7.5371 3.24538 7.53722 3.24536C7.53733 3.24534 7.53745 3.24532 7.53756 3.2453C7.53768 3.24528 7.53779 3.24526 7.53791 3.24524C7.53802 3.24523 7.53814 3.24521 7.53825 3.24519C7.53837 3.24517 7.53848 3.24515 7.5386 3.24513C7.53871 3.24511 7.53883 3.24509 7.53894 3.24507C7.53906 3.24506 7.53917 3.24504 7.53929 3.24502C7.5394 3.245 7.53952 3.24498 7.53963 3.24496C7.53975 3.24494 7.53986 3.24492 7.53998 3.2449C7.5401 3.24489 7.54021 3.24487 7.54033 3.24485C7.54044 3.24483 7.54056 3.24481 7.54067 3.24479C7.54079 3.24477 7.5409 3.24475 7.54102 3.24473C7.54113 3.24471 7.54125 3.2447 7.54137 3.24468C7.54148 3.24466 7.5416 3.24464 7.54171 3.24462C7.54183 3.2446 7.54194 3.24458 7.54206 3.24456C7.54218 3.24454 7.54229 3.24453 7.54241 3.24451C7.54252 3.24449 7.54264 3.24447 7.54275 3.24445C7.54287 3.24443 7.54299 3.24441 7.5431 3.24439C7.54322 3.24437 7.54333 3.24435 7.54345 3.24433C7.54357 3.24432 7.54368 3.2443 7.5438 3.24428C7.54391 3.24426 7.54403 3.24424 7.54415 3.24422C7.54426 3.2442 7.54438 3.24418 7.54449 3.24416C7.54461 3.24414 7.54473 3.24413 7.54484 3.24411C7.54496 3.24409 7.54507 3.24407 7.54519 3.24405C7.54531 3.24403 7.54542 3.24401 7.54554 3.24399C7.54566 3.24397 7.54577 3.24395 7.54589 3.24393C7.54601 3.24392 7.54612 3.2439 7.54624 3.24388C7.54635 3.24386 7.54647 3.24384 7.54659 3.24382C7.5467 3.2438 7.54682 3.24378 7.54694 3.24376C7.54705 3.24374 7.54717 3.24372 7.54729 3.24371C7.5474 3.24369 7.54752 3.24367 7.54764 3.24365C7.54775 3.24363 7.54787 3.24361 7.54799 3.24359C7.5481 3.24357 7.54822 3.24355 7.54834 3.24353C7.54845 3.24351 7.54857 3.24349 7.54869 3.24348C7.5488 3.24346 7.54892 3.24344 7.54904 3.24342C7.54915 3.2434 7.54927 3.24338 7.54939 3.24336C7.54951 3.24334 7.54962 3.24332 7.54974 3.2433C7.54986 3.24328 7.54997 3.24326 7.55009 3.24325C7.55021 3.24323 7.55033 3.24321 7.55044 3.24319C7.55056 3.24317 7.55068 3.24315 7.55079 3.24313C7.55091 3.24311 7.55103 3.24309 7.55115 3.24307C7.55126 3.24305 7.55138 3.24303 7.5515 3.24301C7.55161 3.243 7.55173 3.24298 7.55185 3.24296C7.55197 3.24294 7.55208 3.24292 7.5522 3.2429C7.55232 3.24288 7.55244 3.24286 7.55255 3.24284C7.55267 3.24282 7.55279 3.2428 7.55291 3.24278C7.55302 3.24276 7.55314 3.24274 7.55326 3.24273C7.55338 3.24271 7.55349 3.24269 7.55361 3.24267C7.55373 3.24265 7.55385 3.24263 7.55397 3.24261C7.55408 3.24259 7.5542 3.24257 7.55432 3.24255C7.55444 3.24253 7.55455 3.24251 7.55467 3.24249C7.55479 3.24247 7.55491 3.24245 7.55503 3.24244C7.55514 3.24242 7.55526 3.2424 7.55538 3.24238C7.5555 3.24236 7.55562 3.24234 7.55573 3.24232C7.55585 3.2423 7.55597 3.24228 7.55609 3.24226C7.55621 3.24224 7.55632 3.24222 7.55644 3.2422C7.55656 3.24218 7.55668 3.24216 7.5568 3.24215C7.55692 3.24213 7.55703 3.24211 7.55715 3.24209C7.55727 3.24207 7.55739 3.24205 7.55751 3.24203C7.55763 3.24201 7.55774 3.24199 7.55786 3.24197C7.55798 3.24195 7.5581 3.24193 7.55822 3.24191C7.55834 3.24189 7.55845 3.24187 7.55857 3.24185C7.55869 3.24183 7.55881 3.24181 7.55893 3.2418C7.55905 3.24178 7.55917 3.24176 7.55928 3.24174C7.5594 3.24172 7.55952 3.2417 7.55964 3.24168C7.55976 3.24166 7.55988 3.24164 7.56 3.24162C7.56012 3.2416 7.56023 3.24158 7.56035 3.24156C7.56047 3.24154 7.56059 3.24152 7.56071 3.2415C7.56083 3.24148 7.56095 3.24146 7.56107 3.24144C7.56119 3.24143 7.5613 3.24141 7.56142 3.24139C7.56154 3.24137 7.56166 3.24135 7.56178 3.24133C7.5619 3.24131 7.56202 3.24129 7.56214 3.24127C7.56226 3.24125 7.56238 3.24123 7.5625 3.24121C7.56261 3.24119 7.56273 3.24117 7.56285 3.24115C7.56297 3.24113 7.56309 3.24111 7.56321 3.24109C7.56333 3.24107 7.56345 3.24105 7.56357 3.24103C7.56369 3.24101 7.56381 3.24099 7.56393 3.24098C7.56405 3.24096 7.56417 3.24094 7.56429 3.24092C7.56441 3.2409 7.56453 3.24088 7.56464 3.24086C7.56476 3.24084 7.56488 3.24082 7.565 3.2408C7.56512 3.24078 7.56524 3.24076 7.56536 3.24074C7.56548 3.24072 7.5656 3.2407 7.56572 3.24068C7.56584 3.24066 7.56596 3.24064 7.56608 3.24062C7.5662 3.2406 7.56632 3.24058 7.56644 3.24056C7.56656 3.24054 7.56668 3.24052 7.5668 3.2405C7.56692 3.24048 7.56704 3.24046 7.56716 3.24045C7.56728 3.24043 7.5674 3.24041 7.56752 3.24039C7.56764 3.24037 7.56776 3.24035 7.56788 3.24033C7.568 3.24031 7.56812 3.24029 7.56824 3.24027C7.56836 3.24025 7.56848 3.24023 7.5686 3.24021C7.56872 3.24019 7.56884 3.24017 7.56896 3.24015C7.56908 3.24013 7.5692 3.24011 7.56932 3.24009C7.56944 3.24007 7.56956 3.24005 7.56968 3.24003C7.5698 3.24001 7.56992 3.23999 7.57004 3.23997C7.57017 3.23995 7.57029 3.23993 7.57041 3.23991C7.57053 3.23989 7.57065 3.23987 7.57077 3.23985C7.57089 3.23983 7.57101 3.23981 7.57113 3.23979C7.57125 3.23977 7.57137 3.23975 7.57149 3.23973C7.57161 3.23971 7.57173 3.23969 7.57185 3.23967C7.57197 3.23965 7.5721 3.23964 7.57222 3.23962C7.57234 3.2396 7.57246 3.23958 7.57258 3.23956C7.5727 3.23954 7.57282 3.23952 7.57294 3.2395C7.57306 3.23948 7.57318 3.23946 7.5733 3.23944C7.57343 3.23942 7.57355 3.2394 7.57367 3.23938C7.57379 3.23936 7.57391 3.23934 7.57403 3.23932C7.57415 3.2393 7.57427 3.23928 7.57439 3.23926C7.57452 3.23924 7.57464 3.23922 7.57476 3.2392C7.57488 3.23918 7.575 3.23916 7.57512 3.23914C7.57524 3.23912 7.57536 3.2391 7.57549 3.23908C7.57561 3.23906 7.57573 3.23904 7.57585 3.23902C7.57597 3.239 7.57609 3.23898 7.57621 3.23896C7.57634 3.23894 7.57646 3.23892 7.57658 3.2389C7.5767 3.23888 7.57682 3.23886 7.57694 3.23884C7.57707 3.23882 7.57719 3.2388 7.57731 3.23878C7.57743 3.23876 7.57755 3.23874 7.57767 3.23872C7.5778 3.2387 7.57792 3.23868 7.57804 3.23866C7.57816 3.23864 7.57828 3.23862 7.5784 3.2386C7.57853 3.23858 7.57865 3.23856 7.57877 3.23854C7.57889 3.23852 7.57901 3.2385 7.57914 3.23848C7.57926 3.23846 7.57938 3.23844 7.5795 3.23842C7.57962 3.2384 7.57975 3.23838 7.57987 3.23836C7.57999 3.23834 7.58011 3.23832 7.58023 3.2383C7.58036 3.23828 7.58048 3.23826 7.5806 3.23824C7.58072 3.23822 7.58085 3.2382 7.58097 3.23818C7.58109 3.23816 7.58121 3.23814 7.58133 3.23812C7.58146 3.2381 7.58158 3.23808 7.5817 3.23806C7.58182 3.23804 7.58195 3.23802 7.58207 3.238C7.58219 3.23798 7.58231 3.23796 7.58244 3.23794C7.58256 3.23792 7.58268 3.2379 7.5828 3.23788C7.58293 3.23786 7.58305 3.23784 7.58317 3.23782C7.58329 3.2378 7.58342 3.23778 7.58354 3.23776C7.58366 3.23774 7.58378 3.23772 7.58391 3.2377C7.58403 3.23768 7.58415 3.23766 7.58428 3.23764C7.5844 3.23762 7.58452 3.2376 7.58464 3.23758C7.58477 3.23756 7.58489 3.23754 7.58501 3.23752C7.58514 3.2375 7.58526 3.23748 7.58538 3.23746C7.5855 3.23744 7.58563 3.23741 7.58575 3.23739C7.58587 3.23737 7.586 3.23735 7.58612 3.23733C7.58624 3.23731 7.58637 3.23729 7.58649 3.23727C7.58661 3.23725 7.58674 3.23723 7.58686 3.23721C7.58698 3.23719 7.58711 3.23717 7.58723 3.23715C7.58735 3.23713 7.58748 3.23711 7.5876 3.23709L7.52284 2.84237ZM7.35706 2.86957L7.2923 2.47484C7.00382 2.52217 6.83909 2.51102 6.76052 2.48751C6.72708 2.47751 6.72779 2.47065 6.7388 2.48218C6.75235 2.49635 6.75492 2.51015 6.7543 2.50636L6.35958 2.57112L5.96486 2.63588C5.98884 2.78209 6.05143 2.92082 6.16041 3.03486C6.26685 3.14625 6.3984 3.2142 6.5312 3.25394C6.78512 3.32991 7.09453 3.31799 7.42182 3.26429L7.35706 2.86957ZM6.35958 2.57112L6.7543 2.50636C6.75217 2.49336 6.75571 2.50068 6.74943 2.51744C6.74312 2.53429 6.73541 2.53791 6.74488 2.53012C6.77459 2.50566 6.86912 2.4551 7.08858 2.41909L7.02382 2.02437L6.95906 1.62964C6.68906 1.67394 6.42816 1.75465 6.23646 1.91245C6.01511 2.09465 5.91858 2.35385 5.96486 2.63588L6.35958 2.57112ZM7.02382 2.02437L7.08858 2.41909L15.0225 1.11742L14.9578 0.722695L14.893 0.327972L6.95906 1.62964L7.02382 2.02437ZM14.9578 0.722695L15.0225 1.11742C15.0537 1.1123 15.0673 1.11417 15.0679 1.11426C15.068 1.11427 15.0672 1.11414 15.0656 1.11375C15.0641 1.11335 15.0619 1.11269 15.0592 1.11167C15.0536 1.10954 15.0469 1.10627 15.04 1.10165C15.0332 1.09703 15.0277 1.09211 15.0236 1.08776C15.0197 1.0835 15.0181 1.08077 15.0181 1.08087C15.0186 1.0816 15.0255 1.09378 15.0326 1.12483L15.4225 1.03557L15.8125 0.946317C15.7697 0.759674 15.6758 0.565242 15.4868 0.438009C15.2976 0.31068 15.0821 0.29695 14.893 0.327972L14.9578 0.722695ZM15.4225 1.03557L15.0278 1.10033C15.0349 1.14342 15.0337 1.16711 15.0326 1.17592C15.0317 1.18334 15.0317 1.17364 15.0422 1.157C15.0473 1.14905 15.0534 1.14162 15.0601 1.13528C15.0667 1.12902 15.0724 1.12524 15.0757 1.12335C15.0818 1.11988 15.0759 1.12487 15.0488 1.12932L15.1135 1.52404L15.1783 1.91877C15.3783 1.88596 15.5873 1.7917 15.7183 1.58468C15.8428 1.38781 15.8488 1.16306 15.8173 0.970814L15.4225 1.03557ZM15.1135 1.52404L15.0488 1.12932L8.67796 2.17455L8.74272 2.56927L8.80748 2.96399L15.1783 1.91877L15.1135 1.52404ZM8.74272 2.56927L8.39481 2.37189C8.0796 2.92749 7.75914 3.50012 7.43341 4.08976L7.78354 4.28317L8.13367 4.47658C8.45801 3.88945 8.77699 3.31948 9.09063 2.76665L8.74272 2.56927ZM7.78354 4.28317L7.43262 4.09119C7.11928 4.66396 6.77709 5.30596 6.40609 6.01705L6.76072 6.20208L7.11535 6.38711C7.48446 5.67966 7.82414 5.04239 8.13446 4.47515L7.78354 4.28317ZM6.76072 6.20208L6.40533 6.01851C6.04713 6.71202 5.63628 7.52724 5.17288 8.46391L5.53141 8.64128L5.88993 8.81865C6.35192 7.88483 6.76061 7.07392 7.11611 6.38564L6.76072 6.20208ZM5.53141 8.64128L5.59617 9.03601L11.4223 8.08015L11.3575 7.68543L11.2928 7.29071L5.46665 8.24656L5.53141 8.64128ZM11.3575 7.68543L11.4223 8.08015C11.4376 8.07764 11.4485 8.07684 11.4556 8.07669C11.4626 8.07655 11.4651 8.07707 11.4638 8.07686C11.4624 8.07663 11.4572 8.07565 11.4496 8.07262C11.4418 8.06954 11.4329 8.0649 11.4239 8.05844C11.4149 8.05198 11.4077 8.04502 11.4023 8.03864C11.397 8.03238 11.3944 8.02783 11.3938 8.02655C11.3931 8.02539 11.3944 8.02755 11.3965 8.03428C11.3987 8.04104 11.4014 8.05167 11.4039 8.06695L11.7986 8.00219L12.1933 7.93743C12.1626 7.75028 12.0807 7.54513 11.8906 7.40863C11.7005 7.27213 11.4799 7.26 11.2928 7.29071L11.3575 7.68543ZM11.7986 8.00219L11.4039 8.06695C11.409 8.09813 11.4071 8.11177 11.4071 8.11238C11.407 8.11241 11.4072 8.1116 11.4076 8.11007C11.408 8.10852 11.4086 8.10633 11.4096 8.10363C11.4118 8.09801 11.415 8.09135 11.4197 8.08449C11.4243 8.07762 11.4292 8.07212 11.4336 8.06808C11.4378 8.06413 11.4405 8.0625 11.4405 8.06256C11.4397 8.063 11.4275 8.06996 11.3965 8.07707L11.4857 8.46698L11.575 8.8569C11.7616 8.81417 11.9561 8.72024 12.0833 8.53123C12.2106 8.34208 12.2244 8.12651 12.1933 7.93743L11.7986 8.00219ZM11.4857 8.46698L11.421 8.07226L5.07384 9.1136L5.1386 9.50832L5.20336 9.90304L11.5505 8.8617L11.4857 8.46698ZM5.1386 9.50832L4.77316 9.34567C3.68074 11.8 2.85105 13.8523 2.28658 15.4999L2.66499 15.6296L3.0434 15.7592C3.59723 14.1427 4.41661 12.1141 5.50404 9.67097L5.1386 9.50832ZM2.66499 15.6296L2.28553 15.503C1.73784 17.1455 1.42241 18.4978 1.3562 19.5477L1.75541 19.5728L2.15461 19.598C2.21446 18.6491 2.50543 17.3725 3.04445 15.7561L2.66499 15.6296ZM1.75541 19.5728L1.35676 19.5399C1.35547 19.5556 1.35314 19.5592 1.3549 19.5549C1.3558 19.5527 1.35755 19.5489 1.36051 19.5443C1.3635 19.5396 1.36719 19.5349 1.37148 19.5304C1.37575 19.526 1.37985 19.5226 1.38324 19.5202C1.38488 19.519 1.38622 19.5182 1.38717 19.5177C1.38812 19.5171 1.38863 19.5169 1.38862 19.5169C1.3884 19.517 1.37973 19.521 1.35834 19.5245L1.4231 19.9192L1.48786 20.3139C1.65023 20.2873 1.81765 20.2209 1.94876 20.0843C2.08169 19.9457 2.14019 19.7736 2.15405 19.6057L1.75541 19.5728ZM12.8605 11.5977L13.2288 11.7537L13.2302 11.7504L12.8605 11.5977ZM13.4117 10.5101L13.7545 10.7165L13.7592 10.7082L13.4117 10.5101ZM14.1325 9.41902L14.4514 9.6606L14.4535 9.65782L14.1325 9.41902ZM15.4381 8.03743L15.185 7.72767L15.4381 8.03743ZM17.0401 11.1309L17.315 11.4215L17.3195 11.4171L17.0401 11.1309ZM13.702 12.7243L13.6691 13.123L13.6959 13.1252L13.7228 13.1238L13.702 12.7243ZM13.3312 12.6879L13.3774 12.2906L13.0546 12.253L12.9517 12.5614L13.3312 12.6879ZM13.0953 13.9183L13.4934 13.9574L13.0953 13.9183ZM16.7836 15.7939L16.9847 16.1398L16.9917 16.1355L16.7836 15.7939ZM18.9072 13.9133L18.6137 13.6415L18.6111 13.6443L18.9072 13.9133ZM20.0112 12.6377L20.3293 12.8802L20.0112 12.6377ZM20.795 11.6336L20.5221 11.3411L20.5005 11.3612L20.4821 11.3843L20.795 11.6336ZM21.2884 11.5283L21.436 11.1565L21.436 11.1565L21.2884 11.5283ZM21.0886 12.5339L21.4065 12.7771L21.4135 12.7673L21.0886 12.5339ZM20.3681 13.479L20.6797 13.7301L20.6866 13.7211L20.3681 13.479ZM19.1336 14.849L18.8439 14.5732L18.841 14.5762L19.1336 14.849ZM17.066 16.4772L17.2623 16.8257L17.066 16.4772ZM16.5088 10.5614L16.794 10.8419L16.7959 10.8399L16.5088 10.5614ZM14.9922 9.61848L15.3075 9.8646L15.3077 9.86435L14.9922 9.61848ZM14.1448 10.8276L13.8021 10.6213L13.8011 10.6229L14.1448 10.8276ZM13.5975 11.9389L13.2266 11.789L13.0385 12.2543L13.5341 12.3338L13.5975 11.9389ZM14.8188 17.308L14.7541 16.9133C14.1932 17.0053 13.7589 16.8838 13.4058 16.5761L13.143 16.8776L12.8802 17.1792C13.4353 17.6629 14.1182 17.8283 14.8836 17.7027L14.8188 17.308ZM13.143 16.8776L13.4058 16.5761C13.0302 16.2487 12.7891 15.8072 12.6935 15.2246L12.2988 15.2894L11.904 15.3541C12.026 16.0978 12.3478 16.7152 12.8802 17.1792L13.143 16.8776ZM12.2988 15.2894L12.6935 15.2246C12.5219 14.179 12.69 13.0257 13.2288 11.7537L12.8605 11.5977L12.4922 11.4417C11.909 12.8184 11.7026 14.1262 11.904 15.3541L12.2988 15.2894ZM12.8605 11.5977L13.2302 11.7504C13.3729 11.4048 13.5475 11.0601 13.7544 10.7164L13.4117 10.5101L13.069 10.3038C12.8427 10.6797 12.6498 11.0601 12.4908 11.445L12.8605 11.5977ZM13.4117 10.5101L13.7592 10.7082C13.9644 10.348 14.1951 9.99881 14.4514 9.66059L14.1325 9.41902L13.8137 9.17745C13.5369 9.54283 13.287 9.92106 13.0641 10.3121L13.4117 10.5101ZM14.1325 9.41902L14.4535 9.65782C14.8342 9.14609 15.2471 8.71001 15.6912 8.34719L15.4381 8.03743L15.185 7.72767C14.6855 8.1358 14.2279 8.62078 13.8116 9.18023L14.1325 9.41902ZM15.4381 8.03743L15.6912 8.34719C16.121 7.99599 16.5386 7.80013 16.9448 7.73349L16.88 7.33877L16.8152 6.94405C16.2425 7.03801 15.6988 7.30793 15.185 7.72767L15.4381 8.03743ZM16.88 7.33877L16.9448 7.73349C17.2923 7.67647 17.493 7.72799 17.6091 7.80617C17.7201 7.88085 17.8285 8.0304 17.8796 8.34217L18.2744 8.27741L18.6691 8.21265C18.5959 7.76654 18.4097 7.38072 18.0559 7.14252C17.7072 6.90782 17.2729 6.86895 16.8152 6.94405L16.88 7.33877ZM18.2744 8.27741L17.8796 8.34217C18.0059 9.11157 17.688 9.93942 16.7606 10.8447L17.0401 11.1309L17.3195 11.4171C18.3487 10.4124 18.8537 9.33791 18.6691 8.21265L18.2744 8.27741ZM17.0401 11.1309L16.7652 10.8403C15.8966 11.662 15.0132 12.1282 14.1148 12.2756L14.1795 12.6703L14.2443 13.065C15.3353 12.886 16.3589 12.3259 17.315 11.4215L17.0401 11.1309ZM14.1795 12.6703L14.1148 12.2756C13.9527 12.3022 13.8084 12.3183 13.6812 12.3249L13.702 12.7243L13.7228 13.1238C13.8849 13.1154 14.059 13.0954 14.2443 13.065L14.1795 12.6703ZM13.702 12.7243L13.7349 12.3257C13.6073 12.3152 13.4881 12.3034 13.3774 12.2906L13.3312 12.6879L13.285 13.0852C13.4057 13.0992 13.5337 13.1118 13.6691 13.123L13.702 12.7243ZM13.3312 12.6879L12.9517 12.5614C12.8305 12.9251 12.7476 13.367 12.6972 13.8792L13.0953 13.9183L13.4934 13.9574C13.5402 13.4808 13.6146 13.1025 13.7107 12.8144L13.3312 12.6879ZM13.0953 13.9183L12.6972 13.8792C12.6465 14.3952 12.6488 14.8532 12.7132 15.2457L13.1079 15.1809L13.5026 15.1162C13.453 14.814 13.4469 14.4302 13.4934 13.9574L13.0953 13.9183ZM13.1079 15.1809L12.7132 15.2457C12.8067 15.8159 13.0132 16.297 13.3899 16.6061C13.7767 16.9236 14.2698 17.0008 14.8027 16.9134L14.738 16.5187L14.6732 16.1239C14.2904 16.1868 14.0539 16.1161 13.8974 15.9877C13.7307 15.851 13.58 15.588 13.5026 15.1162L13.1079 15.1809ZM14.738 16.5187L14.8027 16.9134C15.5906 16.7841 16.319 16.5267 16.9847 16.1397L16.7836 15.7939L16.5826 15.4481C16.0049 15.784 15.3695 16.0097 14.6732 16.1239L14.738 16.5187ZM16.7836 15.7939L16.9917 16.1355C17.6575 15.7299 18.395 15.0717 19.2032 14.1823L18.9072 13.9133L18.6111 13.6443C17.8262 14.508 17.148 15.1035 16.5755 15.4523L16.7836 15.7939ZM18.9072 13.9133L19.2006 14.1851C19.6993 13.6468 20.0775 13.2106 20.3293 12.8802L20.0112 12.6377L19.6931 12.3952C19.4646 12.695 19.1068 13.1091 18.6137 13.6415L18.9072 13.9133ZM20.0112 12.6377L20.3293 12.8802C20.5675 12.5678 20.827 12.2353 21.1078 11.8828L20.795 11.6336L20.4821 11.3843C20.1983 11.7407 19.9352 12.0776 19.6931 12.3952L20.0112 12.6377ZM20.795 11.6336L21.0678 11.9261C21.0918 11.9037 21.1078 11.8932 21.1153 11.889C21.1222 11.8851 21.1184 11.8886 21.1047 11.8908L21.04 11.4961L20.9752 11.1014C20.7909 11.1316 20.6399 11.2312 20.5221 11.3411L20.795 11.6336ZM21.04 11.4961L21.1047 11.8908C21.1047 11.8908 21.1048 11.8908 21.1047 11.8908C21.1047 11.8908 21.1048 11.8908 21.1047 11.8908C21.1047 11.8908 21.1047 11.8908 21.1047 11.8908C21.1047 11.8908 21.1047 11.8908 21.1047 11.8908C21.1047 11.8908 21.1048 11.8908 21.1048 11.8908C21.1049 11.8908 21.1051 11.8908 21.1054 11.8908C21.106 11.8908 21.1074 11.8908 21.1099 11.8911C21.1148 11.8918 21.1249 11.8937 21.1409 11.9001L21.2884 11.5283L21.436 11.1565C21.2932 11.0999 21.1368 11.0749 20.9752 11.1014L21.04 11.4961ZM21.2884 11.5283L21.1409 11.9001C21.1278 11.8949 21.1018 11.8806 21.0782 11.8509C21.0551 11.8216 21.0485 11.7953 21.0471 11.7868L21.4418 11.722L21.8366 11.6573C21.7991 11.4288 21.6579 11.2446 21.436 11.1565L21.2884 11.5283ZM21.4418 11.722L21.0471 11.7868C21.0431 11.7621 21.0548 11.7883 21.0081 11.8957C20.9648 11.9951 20.8869 12.129 20.7637 12.3006L21.0886 12.5339L21.4135 12.7673C21.5543 12.5712 21.6672 12.386 21.7417 12.2148C21.8127 12.0516 21.8691 11.8556 21.8366 11.6573L21.4418 11.722ZM21.0886 12.5339L20.7709 12.2909C20.5437 12.5879 20.3032 12.9033 20.0496 13.237L20.3681 13.479L20.6866 13.7211C20.9397 13.3879 21.1796 13.0733 21.4063 12.777L21.0886 12.5339ZM20.3681 13.479L20.0567 13.2281C19.8115 13.5323 19.4094 13.9792 18.8439 14.5732L19.1336 14.849L19.4234 15.1248C19.992 14.5274 20.4129 14.061 20.6796 13.73L20.3681 13.479ZM19.1336 14.849L18.841 14.5762C18.2623 15.1971 17.6055 15.7143 16.8697 16.1287L17.066 16.4772L17.2623 16.8257C18.07 16.3708 18.7917 15.8025 19.4262 15.1217L19.1336 14.849ZM17.066 16.4772L16.8697 16.1287C16.1306 16.545 15.4258 16.8031 14.7541 16.9133L14.8188 17.308L14.8836 17.7027C15.6644 17.5746 16.4577 17.2789 17.2623 16.8257L17.066 16.4772ZM13.9131 11.9358L13.9779 12.3305C14.525 12.2407 15.0361 12.0689 15.5088 11.8139L15.3189 11.4619L15.129 11.1098C14.7378 11.3209 14.3117 11.465 13.8483 11.541L13.9131 11.9358ZM15.3189 11.4619L15.5088 11.8139C15.9777 11.561 16.4061 11.2363 16.794 10.8419L16.5088 10.5614L16.2237 10.2809C15.889 10.6212 15.5241 10.8967 15.129 11.1098L15.3189 11.4619ZM16.5088 10.5614L16.7959 10.8399C17.6144 9.99617 18.094 9.15482 17.9625 8.3529L17.5677 8.41766L17.173 8.48242C17.2383 8.88045 17.012 9.46825 16.2217 10.2829L16.5088 10.5614ZM17.5677 8.41766L17.9625 8.3529C17.9264 8.13318 17.8171 7.91684 17.5919 7.78855C17.3848 7.67055 17.1484 7.66766 16.9396 7.70191L17.0043 8.09664L17.0691 8.49136C17.1267 8.48192 17.1642 8.48188 17.1857 8.48406C17.2065 8.48616 17.2063 8.48962 17.1958 8.48364C17.1834 8.47652 17.1729 8.46561 17.1674 8.45678C17.1634 8.45021 17.1686 8.45523 17.173 8.48242L17.5677 8.41766ZM17.0043 8.09664L16.9396 7.70191C16.1546 7.83069 15.4035 8.43988 14.6767 9.37261L14.9922 9.61848L15.3077 9.86435C16.0006 8.97519 16.5909 8.56981 17.0691 8.49136L17.0043 8.09664ZM14.9922 9.61848L14.6769 9.37236C14.3218 9.8273 14.0293 10.2439 13.8021 10.6213L14.1448 10.8276L14.4875 11.0339C14.6935 10.6917 14.9659 10.3022 15.3075 9.8646L14.9922 9.61848ZM14.1448 10.8276L13.8011 10.6229C13.5864 10.9833 13.3951 11.3722 13.2266 11.789L13.5975 11.9389L13.9683 12.0888C14.1227 11.7068 14.2963 11.3548 14.4884 11.0323L14.1448 10.8276ZM13.5975 11.9389L13.5341 12.3338C13.6807 12.3574 13.8294 12.3548 13.9779 12.3305L13.9131 11.9358L13.8483 11.541C13.7758 11.5529 13.714 11.5525 13.6608 11.544L13.5975 11.9389ZM21.1867 10.2317L21.555 10.3877L21.5564 10.3844L21.1867 10.2317ZM21.7379 9.1441L22.0807 9.35046L22.0854 9.34212L21.7379 9.1441ZM22.4587 8.053L22.7776 8.29458L22.7796 8.29179L22.4587 8.053ZM23.7643 6.6714L23.5112 6.36164L23.7643 6.6714ZM25.3662 9.76486L25.6412 10.0555L25.6457 10.0511L25.3662 9.76486ZM22.0282 11.3583L21.9953 11.757L22.0221 11.7592L22.049 11.7578L22.0282 11.3583ZM21.6574 11.3219L21.7036 10.9245L21.3807 10.887L21.2779 11.1953L21.6574 11.3219ZM21.4215 12.5523L21.8196 12.5914L21.4215 12.5523ZM25.1098 14.4279L25.3109 14.7738L25.3179 14.7695L25.1098 14.4279ZM27.2333 12.5473L26.9399 12.2755L26.9373 12.2783L27.2333 12.5473ZM28.3374 11.2717L28.6555 11.5142L28.3374 11.2717ZM29.1212 10.2676L28.8483 9.97506L28.8267 9.99521L28.8083 10.0183L29.1212 10.2676ZM29.6146 10.1623L29.7622 9.7905L29.7622 9.7905L29.6146 10.1623ZM29.4148 11.1679L29.7326 11.4111L29.7397 11.4012L29.4148 11.1679ZM28.6943 12.113L29.0059 12.3641L29.0128 12.355L28.6943 12.113ZM27.4598 13.483L27.1701 13.2071L27.1672 13.2102L27.4598 13.483ZM25.3922 15.1112L25.5884 15.4597L25.3922 15.1112ZM24.835 9.19535L25.1202 9.47584L25.1221 9.47386L24.835 9.19535ZM23.3184 8.25245L23.6337 8.49857L23.6339 8.49833L23.3184 8.25245ZM22.4709 9.4616L22.1282 9.2553L22.1273 9.25688L22.4709 9.4616ZM21.9236 10.5729L21.5528 10.423L21.3647 10.8883L21.8603 10.9678L21.9236 10.5729ZM23.145 15.942L23.0802 15.5472C22.5194 15.6393 22.0851 15.5178 21.732 15.21L21.4692 15.5116L21.2064 15.8132C21.7614 16.2969 22.4444 16.4623 23.2098 16.3367L23.145 15.942ZM21.4692 15.5116L21.732 15.21C21.3564 14.8826 21.1152 14.4411 21.0197 13.8586L20.6249 13.9233L20.2302 13.9881C20.3522 14.7318 20.674 15.3491 21.2064 15.8132L21.4692 15.5116ZM20.6249 13.9233L21.0197 13.8586C20.8481 12.8129 21.0162 11.6596 21.555 10.3877L21.1867 10.2317L20.8184 10.0757C20.2352 11.4523 20.0288 12.7601 20.2302 13.9881L20.6249 13.9233ZM21.1867 10.2317L21.5564 10.3844C21.6991 10.0388 21.8737 9.69411 22.0806 9.3504L21.7379 9.1441L21.3952 8.9378C21.1689 9.31371 20.9759 9.69411 20.817 10.079L21.1867 10.2317ZM21.7379 9.1441L22.0854 9.34212C22.2906 8.98196 22.5213 8.63278 22.7775 8.29457L22.4587 8.053L22.1399 7.81143C21.8631 8.17681 21.6131 8.55503 21.3903 8.94607L21.7379 9.1441ZM22.4587 8.053L22.7796 8.29179C23.1604 7.78006 23.5733 7.34398 24.0174 6.98116L23.7643 6.6714L23.5112 6.36164C23.0117 6.76977 22.5541 7.25475 22.1378 7.81421L22.4587 8.053ZM23.7643 6.6714L24.0174 6.98116C24.4472 6.62996 24.8648 6.4341 25.2709 6.36746L25.2062 5.97274L25.1414 5.57802C24.5687 5.67198 24.025 5.9419 23.5112 6.36164L23.7643 6.6714ZM25.2062 5.97274L25.2709 6.36746C25.6185 6.31045 25.8192 6.36196 25.9353 6.44014C26.0463 6.51482 26.1547 6.66437 26.2058 6.97614L26.6005 6.91138L26.9953 6.84662C26.9221 6.40051 26.7359 6.01469 26.3821 5.7765C26.0334 5.5418 25.5991 5.50293 25.1414 5.57802L25.2062 5.97274ZM26.6005 6.91138L26.2058 6.97614C26.3321 7.74554 26.0142 8.57339 25.0868 9.47862L25.3662 9.76486L25.6457 10.0511C26.6749 9.04636 27.1799 7.97188 26.9953 6.84662L26.6005 6.91138ZM25.3662 9.76486L25.0913 9.47428C24.2228 10.296 23.3393 10.7622 22.441 10.9096L22.5057 11.3043L22.5705 11.699C23.6615 11.52 24.6851 10.9599 25.6411 10.0554L25.3662 9.76486ZM22.5057 11.3043L22.441 10.9096C22.2789 10.9361 22.1346 10.9522 22.0074 10.9588L22.0282 11.3583L22.049 11.7578C22.2111 11.7493 22.3852 11.7294 22.5705 11.699L22.5057 11.3043ZM22.0282 11.3583L22.0611 10.9597C21.9335 10.9491 21.8143 10.9374 21.7036 10.9245L21.6574 11.3219L21.6112 11.7192C21.7319 11.7332 21.8599 11.7458 21.9953 11.757L22.0282 11.3583ZM21.6574 11.3219L21.2779 11.1953C21.1566 11.559 21.0737 12.001 21.0234 12.5132L21.4215 12.5523L21.8196 12.5914C21.8664 12.1148 21.9408 11.7365 22.0368 11.4484L21.6574 11.3219ZM21.4215 12.5523L21.0234 12.5132C20.9727 13.0292 20.9749 13.4871 21.0393 13.8797L21.4341 13.8149L21.8288 13.7501C21.7792 13.448 21.7731 13.0642 21.8196 12.5914L21.4215 12.5523ZM21.4341 13.8149L21.0393 13.8797C21.1329 14.4499 21.3393 14.9309 21.7161 15.2401C22.1029 15.5576 22.596 15.6348 23.1289 15.5474L23.0642 15.1526L22.9994 14.7579C22.6166 14.8207 22.3801 14.7501 22.2236 14.6217C22.0569 14.4849 21.9062 14.222 21.8288 13.7501L21.4341 13.8149ZM23.0642 15.1526L23.1289 15.5474C23.9168 15.4181 24.6452 15.1607 25.3108 14.7737L25.1098 14.4279L24.9088 14.0821C24.3311 14.4179 23.6957 14.6437 22.9994 14.7579L23.0642 15.1526ZM25.1098 14.4279L25.3179 14.7695C25.9836 14.3639 26.7211 13.7056 27.5294 12.8163L27.2333 12.5473L26.9373 12.2783C26.1524 13.142 25.4741 13.7375 24.9017 14.0863L25.1098 14.4279ZM27.2333 12.5473L27.5268 12.8191C28.0254 12.2808 28.4037 11.8445 28.6555 11.5142L28.3374 11.2717L28.0193 11.0292C27.7908 11.3289 27.433 11.7431 26.9399 12.2755L27.2333 12.5473ZM28.3374 11.2717L28.6555 11.5142C28.8937 11.2017 29.1532 10.8693 29.434 10.5168L29.1212 10.2676L28.8083 10.0183C28.5244 10.3746 28.2614 10.7116 28.0193 11.0292L28.3374 11.2717ZM29.1212 10.2676L29.394 10.5601C29.418 10.5377 29.434 10.5272 29.4414 10.523C29.4484 10.5191 29.4445 10.5226 29.4309 10.5248L29.3661 10.1301L29.3014 9.73537C29.1171 9.7656 28.9661 9.86519 28.8483 9.97506L29.1212 10.2676ZM29.3661 10.1301L29.4309 10.5248C29.4309 10.5248 29.4309 10.5248 29.4309 10.5248C29.4309 10.5248 29.4309 10.5248 29.4309 10.5248C29.4309 10.5248 29.4309 10.5248 29.4309 10.5248C29.4309 10.5248 29.4309 10.5248 29.4309 10.5248C29.4309 10.5248 29.4309 10.5248 29.431 10.5248C29.4311 10.5248 29.4312 10.5248 29.4316 10.5248C29.4322 10.5248 29.4336 10.5248 29.4361 10.5251C29.4409 10.5257 29.4511 10.5277 29.4671 10.5341L29.6146 10.1623L29.7622 9.7905C29.6194 9.73384 29.463 9.70885 29.3014 9.73537L29.3661 10.1301ZM29.6146 10.1623L29.4671 10.5341C29.454 10.5289 29.4279 10.5145 29.4044 10.4848C29.3813 10.4556 29.3747 10.4293 29.3733 10.4208L29.768 10.356L30.1627 10.2912C30.1253 10.0628 29.9841 9.87856 29.7622 9.7905L29.6146 10.1623ZM29.768 10.356L29.3733 10.4208C29.3692 10.3961 29.381 10.4222 29.3343 10.5297C29.291 10.6291 29.2131 10.763 29.0899 10.9346L29.4148 11.1679L29.7397 11.4012C29.8805 11.2052 29.9934 11.02 30.0679 10.8488C30.1389 10.6856 30.1953 10.4896 30.1627 10.2912L29.768 10.356ZM29.4148 11.1679L29.0971 10.9249C28.8699 11.2219 28.6294 11.5373 28.3758 11.871L28.6943 12.113L29.0128 12.355C29.2659 12.0219 29.5058 11.7072 29.7325 11.411L29.4148 11.1679ZM28.6943 12.113L28.3829 11.862C28.1377 12.1663 27.7355 12.6132 27.1701 13.2072L27.4598 13.483L27.7495 13.7588C28.3182 13.1614 28.739 12.695 29.0058 12.364L28.6943 12.113ZM27.4598 13.483L27.1672 13.2102C26.5885 13.8311 25.9317 14.3482 25.1959 14.7627L25.3922 15.1112L25.5884 15.4597C26.3962 15.0048 27.1179 14.4364 27.7524 13.7557L27.4598 13.483ZM25.3922 15.1112L25.1959 14.7627C24.4568 15.1789 23.752 15.437 23.0802 15.5472L23.145 15.942L23.2098 16.3367C23.9906 16.2086 24.7839 15.9128 25.5884 15.4597L25.3922 15.1112ZM22.2393 10.5697L22.3041 10.9644C22.8512 10.8747 23.3623 10.7029 23.835 10.4479L23.6451 10.0959L23.4552 9.74382C23.064 9.95487 22.6379 10.099 22.1745 10.175L22.2393 10.5697ZM23.6451 10.0959L23.835 10.4479C24.3039 10.195 24.7323 9.87023 25.1202 9.47583L24.835 9.19535L24.5498 8.91486C24.2152 9.25514 23.8503 9.5307 23.4552 9.74382L23.6451 10.0959ZM24.835 9.19535L25.1221 9.47386C25.9406 8.63014 26.4202 7.78879 26.2887 6.98687L25.8939 7.05163L25.4992 7.11639C25.5645 7.51442 25.3382 8.10222 24.5479 8.91683L24.835 9.19535ZM25.8939 7.05163L26.2887 6.98687C26.2526 6.76715 26.1432 6.55081 25.9181 6.42252C25.711 6.30452 25.4745 6.30163 25.2658 6.33589L25.3305 6.73061L25.3953 7.12533C25.4528 7.11589 25.4904 7.11585 25.5119 7.11804C25.5326 7.12013 25.5325 7.12359 25.522 7.11761C25.5095 7.1105 25.4991 7.09958 25.4936 7.09076C25.4896 7.08418 25.4947 7.0892 25.4992 7.11639L25.8939 7.05163ZM25.3305 6.73061L25.2658 6.33589C24.4808 6.46467 23.7297 7.07385 23.0029 8.00658L23.3184 8.25245L23.6339 8.49833C24.3268 7.60916 24.9171 7.20378 25.3953 7.12533L25.3305 6.73061ZM23.3184 8.25245L23.003 8.00634C22.648 8.46127 22.3555 8.87787 22.1283 9.2553L22.4709 9.4616L22.8136 9.6679C23.0196 9.3257 23.2921 8.9362 23.6337 8.49857L23.3184 8.25245ZM22.4709 9.4616L22.1273 9.25688C21.9126 9.61726 21.7213 10.0062 21.5528 10.423L21.9236 10.5729L22.2945 10.7228C22.4489 10.3407 22.6225 9.98882 22.8146 9.66632L22.4709 9.4616ZM21.9236 10.5729L21.8603 10.9678C22.0069 10.9914 22.1556 10.9888 22.3041 10.9644L22.2393 10.5697L22.1745 10.175C22.1019 10.1869 22.0402 10.1865 21.987 10.1779L21.9236 10.5729Z" fill="#414245" mask="url(#path-2-outside-1_797_5901)"/>
</g>
</svg>
