<svg width="67" height="29" viewBox="0 0 67 29" fill="none" xmlns="http://www.w3.org/2000/svg">
<path d="M3.7385 28.44C2.75717 28.44 1.96783 28.152 1.3705 27.576C0.751834 27.0213 0.4425 26.2747 0.4425 25.336C0.4425 25.144 0.485167 24.8773 0.5705 24.536C0.6345 24.1947 0.773167 23.8747 0.9865 23.576C1.19983 23.2987 1.4985 23.1387 1.8825 23.096V23.288C1.8825 23.9493 2.0425 24.408 2.3625 24.664C2.6825 24.92 3.04517 25.048 3.4505 25.048C4.0905 25.048 4.67717 24.856 5.2105 24.472C5.76517 24.088 6.2345 23.6613 6.6185 23.192C7.15183 22.5307 7.68517 21.752 8.2185 20.856C8.77317 19.96 9.29583 19.032 9.7865 18.072C10.2985 17.0907 10.7572 16.1413 11.1625 15.224C11.5892 14.2853 11.9625 13.4533 12.2825 12.728C12.6025 11.9813 12.8372 11.4053 12.9865 11C13.2425 10.36 13.5838 9.58133 14.0105 8.664C14.4585 7.74667 14.9492 6.82933 15.4825 5.912C16.0372 4.97333 16.6025 4.16267 17.1785 3.48C17.7545 2.776 18.3092 2.328 18.8425 2.136C18.5012 2.02933 18.0532 1.96533 17.4985 1.944C16.9652 1.90133 16.4318 1.88 15.8985 1.88C15.4505 1.88 15.0345 1.89067 14.6505 1.912C14.2878 1.912 13.9998 1.93333 13.7865 1.976C12.8265 2.12533 11.8452 2.37067 10.8425 2.712C9.83983 3.05333 8.96517 3.45867 8.2185 3.928C7.49317 4.376 7.0345 4.87733 6.8425 5.432C6.82117 5.496 6.7785 5.528 6.7145 5.528C6.5225 5.528 6.4265 5.37867 6.4265 5.08C6.4265 5.016 6.44783 4.92 6.4905 4.792C6.6825 4.23733 6.91717 3.74667 7.1945 3.32C7.49317 2.89333 7.79183 2.53067 8.0905 2.232C8.7945 1.50667 9.58383 1.06933 10.4585 0.919998C11.3332 0.749332 12.2612 0.664 13.2425 0.664H14.7465L21.9465 0.695999C21.2852 1.18667 20.7198 1.624 20.2505 2.008C19.8025 2.392 19.3972 2.79733 19.0345 3.224C18.6932 3.62933 18.3625 4.13067 18.0425 4.728C17.7225 5.304 17.3812 6.04 17.0185 6.936C16.6558 7.81067 16.2398 8.90933 15.7705 10.232C15.5145 10.9573 15.1945 11.9067 14.8105 13.08C14.4478 14.232 14.0105 15.5013 13.4985 16.888C13.0078 18.2533 12.4318 19.6187 11.7705 20.984C11.1305 22.328 10.4052 23.5653 9.5945 24.696C8.80517 25.8267 7.91983 26.7333 6.9385 27.416C5.95717 28.0987 4.8905 28.44 3.7385 28.44ZM19.856 23.192C19.3013 23.192 18.8427 22.936 18.48 22.424C18.1387 21.8907 18.0107 21.0693 18.096 19.96C18.1387 19.4907 18.2453 18.8933 18.416 18.168C18.5867 17.4427 18.8107 16.664 19.088 15.832C19.3867 14.9787 19.7173 14.1573 20.08 13.368C20.4427 12.5573 20.8373 11.8427 21.264 11.224C21.4987 10.904 21.7333 10.712 21.968 10.648C22.224 10.5627 22.6827 10.52 23.344 10.52H24.88C24.5173 11.032 24.1333 11.672 23.728 12.44C23.3227 13.208 22.9493 13.976 22.608 14.744C22.2667 15.4907 22 16.12 21.808 16.632C21.7653 16.7813 21.68 17.048 21.552 17.432C21.424 17.7947 21.3067 18.2 21.2 18.648C21.0933 19.096 21.04 19.512 21.04 19.896C21.04 20.2373 21.104 20.5253 21.232 20.76C21.36 20.9947 21.5947 21.112 21.936 21.112C22.3413 21.0907 22.7787 20.8347 23.248 20.344C23.7173 19.8533 24.1867 19.224 24.656 18.456C25.1253 17.688 25.584 16.888 26.032 16.056C26.5013 15.2027 26.9173 14.4133 27.28 13.688C27.664 12.9413 27.984 12.3653 28.24 11.96C28.56 11.4693 28.9013 11.0427 29.264 10.68C29.6267 10.296 30.0427 10.104 30.512 10.104C30.6827 10.104 30.9067 10.1147 31.184 10.136C31.4827 10.136 31.7707 10.136 32.048 10.136C32.3467 10.136 32.5493 10.1253 32.656 10.104C32.528 10.1893 32.3787 10.36 32.208 10.616C32.0373 10.872 31.8667 11.1387 31.696 11.416C31.5467 11.672 31.4293 11.8853 31.344 12.056C30.7893 13.1653 30.2453 14.2853 29.712 15.416C29.2 16.5253 28.816 17.5813 28.56 18.584C28.4533 18.968 28.4 19.2987 28.4 19.576C28.4 20.216 28.6133 20.536 29.04 20.536C29.3387 20.536 29.7653 20.3227 30.32 19.896C30.7467 19.5547 31.1627 19.1173 31.568 18.584C32.016 18.0293 32.432 17.432 32.816 16.792C33.2 16.152 33.5307 15.5653 33.808 15.032C33.8933 14.8827 33.968 14.808 34.032 14.808C34.16 14.808 34.224 14.9787 34.224 15.32C34.224 15.4907 34.192 15.6933 34.128 15.928C34.0853 16.1413 34 16.3547 33.872 16.568C33.5733 17.08 33.2213 17.6453 32.816 18.264C32.4107 18.8613 31.9947 19.4587 31.568 20.056C31.2693 20.44 30.8747 20.8773 30.384 21.368C29.8933 21.8587 29.3707 22.2853 28.816 22.648C28.2827 23.0107 27.76 23.192 27.248 23.192C26.9493 23.192 26.672 23.128 26.416 23C26.16 22.8933 25.9467 22.6693 25.776 22.328C25.5627 21.88 25.456 21.272 25.456 20.504C25.456 20.2693 25.4667 20.024 25.488 19.768C25.5093 19.4907 25.5413 19.2133 25.584 18.936C25.264 19.384 24.9227 19.8 24.56 20.184C24.2187 20.568 23.8667 20.952 23.504 21.336C22.6933 22.1467 22 22.6587 21.424 22.872C20.8693 23.0853 20.3467 23.192 19.856 23.192ZM42.775 23.192C42.0497 23.192 41.5483 22.9787 41.271 22.552C41.015 22.104 40.887 21.592 40.887 21.016C40.887 20.312 41.0257 19.4693 41.303 18.488C41.5803 17.4853 41.9003 16.4827 42.263 15.48C42.647 14.456 42.9883 13.5493 43.287 12.76C43.3723 12.568 43.415 12.3653 43.415 12.152C43.415 11.9173 43.3403 11.7467 43.191 11.64C43.0417 11.5333 42.8497 11.48 42.615 11.48C42.2737 11.48 41.8897 11.5867 41.463 11.8C40.8017 12.1413 40.1723 12.6853 39.575 13.432C38.9777 14.1787 38.4977 14.9573 38.135 15.768C37.7297 16.6853 37.367 17.6027 37.047 18.52C36.727 19.4373 36.471 20.184 36.279 20.76C36.151 21.1227 36.0337 21.496 35.927 21.88C35.8203 22.264 35.7137 22.6373 35.607 23H32.503C32.503 23 32.5777 22.7333 32.727 22.2C32.855 21.6667 33.0257 21.1333 33.239 20.6C33.6017 19.6613 33.9643 18.7227 34.327 17.784C34.711 16.8453 35.0417 16.0133 35.319 15.288C35.4043 15.0747 35.5323 14.68 35.703 14.104C35.895 13.5067 36.0657 12.888 36.215 12.248C36.3857 11.608 36.471 11.0853 36.471 10.68C36.471 10.4453 36.439 10.2853 36.375 10.2C36.567 10.2 36.7803 10.2 37.015 10.2C37.271 10.1787 37.5057 10.168 37.719 10.168C38.0177 10.168 38.295 10.1787 38.551 10.2C38.8283 10.2213 39.0097 10.2747 39.095 10.36C39.351 10.552 39.479 10.8293 39.479 11.192C39.479 11.448 39.4257 11.704 39.319 11.96C39.2337 12.216 39.1697 12.4293 39.127 12.6C39.4257 12.3227 39.735 12.056 40.055 11.8C40.375 11.544 40.8657 11.2133 41.527 10.808C41.911 10.5733 42.391 10.3813 42.967 10.232C43.543 10.0827 44.0657 10.008 44.535 10.008C45.751 10.008 46.359 10.5733 46.359 11.704C46.359 11.896 46.3377 12.1093 46.295 12.344C46.2737 12.5787 46.2097 12.8347 46.103 13.112C45.9963 13.4533 45.8257 13.9227 45.591 14.52C45.3563 15.1173 45.111 15.7573 44.855 16.44C44.6203 17.1013 44.4177 17.7307 44.247 18.328C44.0763 18.9253 43.991 19.4053 43.991 19.768C43.991 20.28 44.183 20.536 44.567 20.536C44.9083 20.536 45.335 20.3227 45.847 19.896C46.3377 19.4907 46.7643 19.0533 47.127 18.584C47.575 18.0293 47.9803 17.4427 48.343 16.824C48.727 16.184 49.0577 15.5973 49.335 15.064C49.4417 14.8933 49.5163 14.808 49.559 14.808C49.687 14.808 49.751 14.9893 49.751 15.352C49.751 15.5227 49.719 15.7253 49.655 15.96C49.6123 16.1733 49.5377 16.376 49.431 16.568C49.1323 17.08 48.7803 17.6453 48.375 18.264C47.9697 18.8827 47.5537 19.48 47.127 20.056C46.8283 20.4613 46.4337 20.9093 45.943 21.4C45.4523 21.8907 44.9297 22.3173 44.375 22.68C43.8203 23.0213 43.287 23.192 42.775 23.192ZM59.5605 23.192C58.8992 23.192 58.4405 22.936 58.1845 22.424C57.9498 21.912 57.8325 21.2827 57.8325 20.536C57.8325 19.8533 57.8965 19.1813 58.0245 18.52C58.0885 18.2213 58.1525 17.9227 58.2165 17.624C58.3018 17.304 58.3978 16.9733 58.5045 16.632C58.1418 17.2933 57.7578 17.9333 57.3525 18.552C56.9685 19.1707 56.5738 19.7147 56.1685 20.184C55.4858 21.016 54.7605 21.7093 53.9925 22.264C53.2458 22.8187 52.4992 23.096 51.7525 23.096C51.1552 23.096 50.6432 22.8827 50.2165 22.456C49.8112 22.008 49.6085 21.24 49.6085 20.152C49.6085 19.0427 49.8005 17.9013 50.1845 16.728C50.5685 15.5547 51.1018 14.4667 51.7845 13.464C52.4885 12.44 53.3098 11.6187 54.2485 11C55.2085 10.3813 56.2538 10.072 57.3845 10.072C57.7472 10.072 58.1418 10.1253 58.5685 10.232C58.9952 10.3387 59.3898 10.5413 59.7525 10.84C60.1152 11.1173 60.3605 11.512 60.4885 12.024C60.5098 11.9813 60.5312 11.9493 60.5525 11.928C60.5952 11.9067 60.6272 11.8853 60.6485 11.864C60.9472 11.3947 61.2885 11 61.6725 10.68C62.0565 10.36 62.4832 10.2 62.9525 10.2C63.1872 10.2 63.5178 10.2107 63.9445 10.232C64.3712 10.2533 64.6805 10.2533 64.8725 10.232C64.7658 10.3173 64.6165 10.488 64.4245 10.744C64.2538 11 64.0938 11.2667 63.9445 11.544C63.7952 11.8 63.6778 12.0027 63.5925 12.152C63.0165 13.2613 62.4938 14.36 62.0245 15.448C61.5552 16.536 61.1925 17.5813 60.9365 18.584C60.8725 18.7973 60.8298 19 60.8085 19.192C60.7872 19.3627 60.7765 19.5333 60.7765 19.704C60.7765 20.2587 60.9578 20.536 61.3205 20.536C61.6618 20.536 62.0885 20.3227 62.6005 19.896C63.3472 19.2987 63.9978 18.552 64.5525 17.656C65.1285 16.76 65.6298 15.896 66.0565 15.064C66.1418 14.9147 66.2165 14.84 66.2805 14.84C66.4085 14.84 66.4725 15.0213 66.4725 15.384C66.4725 15.5547 66.4405 15.7467 66.3765 15.96C66.3338 16.1733 66.2592 16.376 66.1525 16.568C65.8538 17.08 65.4592 17.7093 64.9685 18.456C64.4992 19.2027 63.9658 19.9387 63.3685 20.664C62.7712 21.368 62.1418 21.9653 61.4805 22.456C60.8405 22.9467 60.2005 23.192 59.5605 23.192ZM53.1925 20.408C53.2565 20.4293 53.3525 20.44 53.4805 20.44C53.8858 20.44 54.3232 20.2693 54.7925 19.928C55.2618 19.5867 55.7312 19.1493 56.2005 18.616C56.6698 18.0613 57.0858 17.5067 57.4485 16.952C58.3872 15.4587 59.0805 14.3387 59.5285 13.592C59.9765 12.8453 60.2325 12.4187 60.2965 12.312C60.1898 11.9493 59.9978 11.6827 59.7205 11.512C59.4645 11.3413 59.1552 11.256 58.7925 11.256C58.3232 11.256 57.8218 11.384 57.2885 11.64C56.7765 11.896 56.3392 12.2053 55.9765 12.568C55.4218 13.1227 54.8885 13.8373 54.3765 14.712C53.8858 15.5867 53.4805 16.4507 53.1605 17.304C52.8618 18.1573 52.7125 18.872 52.7125 19.448C52.7125 19.9813 52.8725 20.3013 53.1925 20.408Z" fill="#EF6E84"/>
</svg>
