<svg width="115" height="52" viewBox="0 0 115 52" fill="none" xmlns="http://www.w3.org/2000/svg">
<mask id="mask0_632_6284" style="mask-type:alpha" maskUnits="userSpaceOnUse" x="0" y="0" width="115" height="52">
<rect x="0.5" y="0.5" width="114" height="51" fill="#D9D9D9" stroke="#F33E5C"/>
</mask>
<g mask="url(#mask0_632_6284)">
<mask id="path-2-outside-1_632_6284" maskUnits="userSpaceOnUse" x="-5.83455" y="-3.39657" width="124.407" height="55.9398" fill="black">
<rect fill="white" x="-5.83455" y="-3.39657" width="124.407" height="55.9398"/>
<path d="M1.75183 50.8059C1.12028 50.9095 0.755282 50.6614 0.656847 50.0614C0.630943 49.9035 0.655242 49.6563 0.729746 49.3198C0.841008 49.0097 0.994703 48.5629 1.19083 47.9795L3.06699 42.5156C4.08956 39.6564 4.95894 37.0492 5.67511 34.6942C6.41768 32.3024 7.04121 30.1734 7.54572 28.3071C9.02814 22.5187 9.5414 18.2351 9.08549 15.4562C9.0544 15.2668 9.14445 15.025 9.35562 14.7309C9.59838 14.4317 9.84607 14.2613 10.0987 14.2199C10.4776 14.1577 10.7267 14.4898 10.8458 15.2161C11.1826 17.2686 10.9508 20.5008 10.1505 24.9126C9.80957 26.5899 9.44507 28.2225 9.05702 29.8102C8.66896 31.398 8.24155 32.9436 7.77479 34.447C8.86323 32.5822 10.0068 30.7569 11.2055 28.9713C12.4043 27.1857 13.6739 25.4371 15.0145 23.7254C18.9679 18.5694 22.0182 15.8152 24.1655 15.4629C25.5234 15.2401 26.3473 16.0129 26.6375 17.7813C26.9483 19.6759 26.5763 23.2392 25.5214 28.471C24.1369 35.054 23.3935 38.8241 23.2911 39.7813C29.0346 29.9213 35.2903 22.3932 42.0583 17.1969C42.9807 16.4943 43.9531 15.7997 44.9754 15.1132C46.0242 14.3898 46.8485 13.9789 47.4485 13.8805C48.3327 13.7354 48.8628 14.1997 49.039 15.2734C49.1271 15.8102 49.1385 16.4731 49.0734 17.262C49.0083 18.051 48.8298 18.9396 48.5379 19.9279L45.6956 29.8794C45.4301 30.8309 45.1329 31.8849 44.8038 33.0415C44.5062 34.1928 44.2245 35.3416 43.9586 36.4878C43.719 37.5972 43.5271 38.6015 43.3828 39.5007C43.2333 40.3684 43.1948 41.0233 43.2673 41.4654C43.3502 41.9706 43.5969 42.1895 44.0074 42.1222C44.639 42.0186 45.3662 41.5101 46.1892 40.5968C47.0438 39.6784 47.9279 38.5443 48.8414 37.1946C48.9682 36.9792 49.1372 36.7245 49.3484 36.4304C49.5911 36.1312 49.823 35.9634 50.0441 35.9271C50.5493 35.8442 50.8486 36.087 50.9418 36.6554C50.9574 36.7501 50.9439 36.8658 50.9015 37.0025C50.8539 37.1076 50.7377 37.2888 50.5529 37.5461C50.2097 38.024 49.8666 38.5018 49.5234 38.9797C49.1803 39.4576 48.8609 39.8829 48.5654 40.2556C47.8583 41.0851 47.0909 41.8433 46.2633 42.5304C45.4723 43.2438 44.6664 43.6679 43.8453 43.8026C42.5506 44.015 41.7841 43.3949 41.5458 41.9424C41.4008 41.0582 41.4912 39.6327 41.8171 37.666C42.143 35.6993 42.7201 33.1888 43.5485 30.1343L46.7502 18.5187C46.9784 17.7355 47.1166 17.194 47.1647 16.8942C47.2076 16.5629 47.2187 16.3341 47.198 16.2078C47.1669 16.0183 47.0724 15.9365 46.9145 15.9624C46.8514 15.9728 46.6854 16.0486 46.4168 16.19C46.1745 16.2946 45.7477 16.5592 45.1364 16.9838C43.3552 18.184 41.4338 19.7153 39.3721 21.5776C37.3104 23.44 35.4273 25.4027 33.7229 27.4659C32.3404 29.1195 31.1212 30.6815 30.0653 32.1519C29.0094 33.6222 27.9929 35.1348 27.0157 36.6895C26.0385 38.2442 24.9661 40.0091 23.7985 41.9842C23.4657 42.5252 23.2359 42.9034 23.1091 43.1188C22.9771 43.3026 22.7374 43.423 22.39 43.48C21.8532 43.568 21.5382 43.3279 21.4449 42.7595C21.3465 42.1595 21.3433 41.3493 21.4353 40.329C21.5273 39.3086 21.6799 38.2621 21.893 37.1894L23.8595 27.2357C24.3339 24.7907 24.652 22.7766 24.8138 21.1935C24.9757 19.6104 24.9944 18.44 24.8701 17.6821C24.7665 17.0505 24.4463 16.7788 23.9094 16.8669C22.8674 17.0378 20.7894 19.0974 17.6755 23.0456C16.6041 24.4213 15.6039 25.7366 14.6748 26.9915C13.7457 28.2465 12.9062 29.4544 12.1562 30.6151C11.1423 32.1434 10.2285 33.5904 9.41486 34.9562C8.60124 36.3219 7.82697 37.7299 7.09205 39.18C6.38352 40.5933 5.66673 42.154 4.94168 43.8619C4.21662 45.5698 3.45407 47.5433 2.65402 49.7824C2.4315 50.4026 2.13077 50.7438 1.75183 50.8059ZM61.2004 39.3501C59.8742 39.5677 58.757 39.2808 57.8489 38.4893C56.9407 37.6979 56.3779 36.6391 56.1603 35.3128C55.7873 33.0392 56.1618 30.5781 57.2838 27.9295C57.5855 27.199 57.9529 26.474 58.3862 25.7543C58.8142 25.0031 59.2948 24.2757 59.8279 23.5721C60.625 22.501 61.4953 21.5799 62.439 20.809C63.3826 20.038 64.3439 19.5722 65.3228 19.4116C66.9333 19.1474 67.8628 19.7732 68.1115 21.2889C68.4224 23.1836 67.5995 25.0859 65.6429 26.9959C63.8183 28.722 61.9113 29.7483 59.9219 30.0747C59.5745 30.1317 59.2562 30.1677 58.9668 30.1828C58.7038 30.1611 58.4566 30.1368 58.2252 30.1099C58.0078 30.7617 57.8506 31.5819 57.7534 32.5707C57.6562 33.5595 57.6646 34.4013 57.7785 35.096C58.1205 37.1801 59.2072 38.0719 61.0387 37.7714C62.5229 37.5279 63.8866 37.0448 65.13 36.3219C66.3682 35.5675 67.7839 34.3138 69.3771 32.5607C70.3688 31.49 71.1049 30.6396 71.5852 30.0096C72.0655 29.3795 72.588 28.7101 73.1527 28.0013C73.3215 27.8439 73.4848 27.7522 73.6427 27.7263C73.8006 27.7004 73.9662 27.7219 74.1397 27.7907C74.3131 27.8596 74.4154 27.9887 74.4465 28.1782C74.5034 28.5255 74.268 29.0668 73.74 29.802C73.2861 30.3953 72.8058 31.0254 72.299 31.6922C71.7871 32.3275 70.9641 33.2407 69.8301 34.4321C68.6168 35.7337 67.2383 36.8192 65.6947 37.6885C64.1511 38.5579 62.653 39.1118 61.2004 39.3501ZM59.389 28.6056C60.3995 28.4398 61.3367 28.1239 62.2007 27.6579C63.0646 27.1919 63.8579 26.5915 64.5805 25.8568C66.1892 24.1985 66.8951 22.7694 66.6983 21.5694C66.6102 21.0326 66.2346 20.8186 65.5715 20.9274C64.3084 21.1346 62.9669 22.1492 61.5471 23.9711C60.8505 24.8636 60.2855 25.6697 59.8523 26.3894C59.4455 27.0722 59.0806 27.8131 58.7577 28.6119C58.9575 28.644 59.168 28.6419 59.389 28.6056ZM71.5127 37.9987C71.0074 38.0816 70.7211 37.9178 70.6538 37.5073C70.6227 37.3178 70.639 37.1206 70.7026 36.9156C70.7979 36.7054 70.8667 36.5319 70.9091 36.3953L73.7896 26.9726C75.0098 22.9459 75.5862 20.7273 75.5189 20.3168C75.4463 19.8747 75.6311 19.6174 76.0732 19.5449C76.6732 19.4465 77.0224 19.6972 77.1208 20.2972C77.1726 20.613 77.1134 21.1416 76.9432 21.8829C76.773 22.6242 76.5419 23.4891 76.2501 24.4773C75.7616 26.2437 75.3373 27.6105 74.9771 28.5775C75.7431 27.3169 76.5353 26.1168 77.3536 24.9773C78.1719 23.8378 79.0138 22.743 79.8792 21.6931C82.4491 18.5799 84.5393 16.8912 86.1497 16.627C87.2549 16.4457 87.893 16.8761 88.064 17.9181C88.2298 18.9286 87.9811 19.4883 87.318 19.5971C87.0022 19.6489 86.7213 19.4193 86.4754 18.9084C86.3185 18.545 86.0663 18.3918 85.719 18.4488C85.1822 18.5369 84.2359 19.292 82.8803 20.7143C81.3823 22.2571 79.9074 24.0394 78.4556 26.0612C77.0353 28.0777 75.5823 30.586 74.0964 33.5862L72.272 37.2904C72.1716 37.469 72.066 37.6161 71.9553 37.7315C71.8813 37.8734 71.7337 37.9624 71.5127 37.9987ZM95.3167 13.7124C94.7798 13.8005 94.4674 13.5761 94.3793 13.0393C94.3534 12.8814 94.4173 12.5791 94.571 12.1323C94.7195 11.654 94.8996 11.1704 95.1113 10.6817C95.323 10.193 95.4948 9.85674 95.6268 9.67295C96.0652 8.9849 96.4135 8.53861 96.6718 8.3341C96.9617 8.1244 97.2329 7.99883 97.4855 7.95738C98.1487 7.84859 98.5295 8.09418 98.6279 8.69416C98.6642 8.9152 98.5661 9.20693 98.3337 9.56933C98.1277 9.89498 97.8718 10.2126 97.5658 10.5222C97.1124 10.9209 96.8381 11.2253 96.7428 11.4355L95.9417 13.0748C95.9308 13.2063 95.8726 13.3456 95.767 13.4926C95.6878 13.6029 95.5377 13.6762 95.3167 13.7124ZM90.4116 34.2171C89.5275 34.3621 88.8516 34.2947 88.3841 34.0147C87.9482 33.7295 87.6733 33.2395 87.5593 32.5448C87.4505 31.8817 87.5081 30.948 87.7321 29.7439C87.9509 28.5082 88.2673 27.1753 88.6813 25.7455C89.1268 24.3104 89.6143 22.9333 90.1437 21.6142C90.6731 20.2951 91.2072 19.2022 91.746 18.3355C92.3112 17.4321 92.7991 16.9467 93.2096 16.8794C93.778 16.7861 94.1036 16.9921 94.1865 17.4973C94.2383 17.8131 94.0684 18.4571 93.6766 19.4294C93.2848 20.4016 92.8509 21.4133 92.3748 22.4642C92.1791 22.853 91.9095 23.3837 91.5658 24.0562C91.2222 24.7287 90.8891 25.367 90.5667 25.9712C90.2391 26.5438 90.0276 26.9352 89.9324 27.1454C89.6944 27.6708 89.4897 28.4989 89.3185 29.6295C89.1157 30.7654 89.061 31.6175 89.1542 32.1859C89.1957 32.4385 89.2741 32.6202 89.3896 32.731C89.5366 32.8365 89.8154 32.8557 90.2259 32.7883C91.0153 32.6588 91.8581 32.2611 92.7541 31.5953C93.6501 30.9294 94.5412 30.1347 95.4273 29.211C96.3083 28.2558 97.1235 27.2951 97.873 26.329C98.6541 25.3578 99.3112 24.5203 99.8443 23.8167C99.9499 23.6697 100.129 23.5755 100.382 23.534C100.855 23.4563 101.123 23.6069 101.185 23.9858C101.242 24.3332 101.086 24.7642 100.716 25.2788C100.004 26.2713 99.3387 27.1587 98.7212 27.941C98.1037 28.7233 97.5048 29.4214 96.9246 30.0355C96.0068 30.9643 94.9682 31.8481 93.8087 32.6869C92.6492 33.5257 91.5169 34.0358 90.4116 34.2171ZM100.342 35.409C99.7424 35.5075 99.3647 35.083 99.2093 34.1357C98.9813 32.7462 99.3561 30.1878 100.333 26.4604C101.342 22.7278 102.933 17.7972 105.106 11.6686C103.906 11.8655 102.795 12.2099 101.773 12.7018C100.778 13.157 100.285 13.6108 100.294 14.0633C100.283 14.1948 100.225 14.334 100.119 14.4811C100.04 14.5913 99.8899 14.6646 99.6689 14.7009C99.1636 14.7838 98.8695 14.5726 98.7867 14.0673C98.652 13.2463 99.1879 12.4612 100.395 11.712C101.601 10.9627 103.373 10.3964 105.71 10.013L108.092 4.07701C108.256 3.69339 108.431 3.2756 108.616 2.82364C108.796 2.3401 109.003 1.81981 109.235 1.26276C109.479 0.768858 109.806 0.488234 110.216 0.420884C110.469 0.379437 110.671 0.427297 110.823 0.564463C110.97 0.670051 111.057 0.80179 111.083 0.959679C111.16 1.43335 110.673 2.81044 109.62 5.09095C108.303 7.9337 107.6 9.47596 107.51 9.71773C107.983 9.64001 108.701 9.57081 109.664 9.51012C110.622 9.41786 111.761 9.34446 113.082 9.28994C113.561 9.2438 113.836 9.44178 113.909 9.88387C113.992 10.3891 113.749 10.6884 113.181 10.7816C112.96 10.8179 112.512 10.8588 111.839 10.9045C111.16 10.9185 110.437 10.9562 109.668 11.0173C108.9 11.0785 108.25 11.1689 107.719 11.2886L107.016 11.4525C102.455 23.7775 100.416 31.3111 100.898 34.0531L101.008 34.4243L101.023 34.519C101.106 35.0243 100.879 35.321 100.342 35.409Z"/>
</mask>
<path d="M1.75183 50.8059C1.12028 50.9095 0.755282 50.6614 0.656847 50.0614C0.630943 49.9035 0.655242 49.6563 0.729746 49.3198C0.841008 49.0097 0.994703 48.5629 1.19083 47.9795L3.06699 42.5156C4.08956 39.6564 4.95894 37.0492 5.67511 34.6942C6.41768 32.3024 7.04121 30.1734 7.54572 28.3071C9.02814 22.5187 9.5414 18.2351 9.08549 15.4562C9.0544 15.2668 9.14445 15.025 9.35562 14.7309C9.59838 14.4317 9.84607 14.2613 10.0987 14.2199C10.4776 14.1577 10.7267 14.4898 10.8458 15.2161C11.1826 17.2686 10.9508 20.5008 10.1505 24.9126C9.80957 26.5899 9.44507 28.2225 9.05702 29.8102C8.66896 31.398 8.24155 32.9436 7.77479 34.447C8.86323 32.5822 10.0068 30.7569 11.2055 28.9713C12.4043 27.1857 13.6739 25.4371 15.0145 23.7254C18.9679 18.5694 22.0182 15.8152 24.1655 15.4629C25.5234 15.2401 26.3473 16.0129 26.6375 17.7813C26.9483 19.6759 26.5763 23.2392 25.5214 28.471C24.1369 35.054 23.3935 38.8241 23.2911 39.7813C29.0346 29.9213 35.2903 22.3932 42.0583 17.1969C42.9807 16.4943 43.9531 15.7997 44.9754 15.1132C46.0242 14.3898 46.8485 13.9789 47.4485 13.8805C48.3327 13.7354 48.8628 14.1997 49.039 15.2734C49.1271 15.8102 49.1385 16.4731 49.0734 17.262C49.0083 18.051 48.8298 18.9396 48.5379 19.9279L45.6956 29.8794C45.4301 30.8309 45.1329 31.8849 44.8038 33.0415C44.5062 34.1928 44.2245 35.3416 43.9586 36.4878C43.719 37.5972 43.5271 38.6015 43.3828 39.5007C43.2333 40.3684 43.1948 41.0233 43.2673 41.4654C43.3502 41.9706 43.5969 42.1895 44.0074 42.1222C44.639 42.0186 45.3662 41.5101 46.1892 40.5968C47.0438 39.6784 47.9279 38.5443 48.8414 37.1946C48.9682 36.9792 49.1372 36.7245 49.3484 36.4304C49.5911 36.1312 49.823 35.9634 50.0441 35.9271C50.5493 35.8442 50.8486 36.087 50.9418 36.6554C50.9574 36.7501 50.9439 36.8658 50.9015 37.0025C50.8539 37.1076 50.7377 37.2888 50.5529 37.5461C50.2097 38.024 49.8666 38.5018 49.5234 38.9797C49.1803 39.4576 48.8609 39.8829 48.5654 40.2556C47.8583 41.0851 47.0909 41.8433 46.2633 42.5304C45.4723 43.2438 44.6664 43.6679 43.8453 43.8026C42.5506 44.015 41.7841 43.3949 41.5458 41.9424C41.4008 41.0582 41.4912 39.6327 41.8171 37.666C42.143 35.6993 42.7201 33.1888 43.5485 30.1343L46.7502 18.5187C46.9784 17.7355 47.1166 17.194 47.1647 16.8942C47.2076 16.5629 47.2187 16.3341 47.198 16.2078C47.1669 16.0183 47.0724 15.9365 46.9145 15.9624C46.8514 15.9728 46.6854 16.0486 46.4168 16.19C46.1745 16.2946 45.7477 16.5592 45.1364 16.9838C43.3552 18.184 41.4338 19.7153 39.3721 21.5776C37.3104 23.44 35.4273 25.4027 33.7229 27.4659C32.3404 29.1195 31.1212 30.6815 30.0653 32.1519C29.0094 33.6222 27.9929 35.1348 27.0157 36.6895C26.0385 38.2442 24.9661 40.0091 23.7985 41.9842C23.4657 42.5252 23.2359 42.9034 23.1091 43.1188C22.9771 43.3026 22.7374 43.423 22.39 43.48C21.8532 43.568 21.5382 43.3279 21.4449 42.7595C21.3465 42.1595 21.3433 41.3493 21.4353 40.329C21.5273 39.3086 21.6799 38.2621 21.893 37.1894L23.8595 27.2357C24.3339 24.7907 24.652 22.7766 24.8138 21.1935C24.9757 19.6104 24.9944 18.44 24.8701 17.6821C24.7665 17.0505 24.4463 16.7788 23.9094 16.8669C22.8674 17.0378 20.7894 19.0974 17.6755 23.0456C16.6041 24.4213 15.6039 25.7366 14.6748 26.9915C13.7457 28.2465 12.9062 29.4544 12.1562 30.6151C11.1423 32.1434 10.2285 33.5904 9.41486 34.9562C8.60124 36.3219 7.82697 37.7299 7.09205 39.18C6.38352 40.5933 5.66673 42.154 4.94168 43.8619C4.21662 45.5698 3.45407 47.5433 2.65402 49.7824C2.4315 50.4026 2.13077 50.7438 1.75183 50.8059ZM61.2004 39.3501C59.8742 39.5677 58.757 39.2808 57.8489 38.4893C56.9407 37.6979 56.3779 36.6391 56.1603 35.3128C55.7873 33.0392 56.1618 30.5781 57.2838 27.9295C57.5855 27.199 57.9529 26.474 58.3862 25.7543C58.8142 25.0031 59.2948 24.2757 59.8279 23.5721C60.625 22.501 61.4953 21.5799 62.439 20.809C63.3826 20.038 64.3439 19.5722 65.3228 19.4116C66.9333 19.1474 67.8628 19.7732 68.1115 21.2889C68.4224 23.1836 67.5995 25.0859 65.6429 26.9959C63.8183 28.722 61.9113 29.7483 59.9219 30.0747C59.5745 30.1317 59.2562 30.1677 58.9668 30.1828C58.7038 30.1611 58.4566 30.1368 58.2252 30.1099C58.0078 30.7617 57.8506 31.5819 57.7534 32.5707C57.6562 33.5595 57.6646 34.4013 57.7785 35.096C58.1205 37.1801 59.2072 38.0719 61.0387 37.7714C62.5229 37.5279 63.8866 37.0448 65.13 36.3219C66.3682 35.5675 67.7839 34.3138 69.3771 32.5607C70.3688 31.49 71.1049 30.6396 71.5852 30.0096C72.0655 29.3795 72.588 28.7101 73.1527 28.0013C73.3215 27.8439 73.4848 27.7522 73.6427 27.7263C73.8006 27.7004 73.9662 27.7219 74.1397 27.7907C74.3131 27.8596 74.4154 27.9887 74.4465 28.1782C74.5034 28.5255 74.268 29.0668 73.74 29.802C73.2861 30.3953 72.8058 31.0254 72.299 31.6922C71.7871 32.3275 70.9641 33.2407 69.8301 34.4321C68.6168 35.7337 67.2383 36.8192 65.6947 37.6885C64.1511 38.5579 62.653 39.1118 61.2004 39.3501ZM59.389 28.6056C60.3995 28.4398 61.3367 28.1239 62.2007 27.6579C63.0646 27.1919 63.8579 26.5915 64.5805 25.8568C66.1892 24.1985 66.8951 22.7694 66.6983 21.5694C66.6102 21.0326 66.2346 20.8186 65.5715 20.9274C64.3084 21.1346 62.9669 22.1492 61.5471 23.9711C60.8505 24.8636 60.2855 25.6697 59.8523 26.3894C59.4455 27.0722 59.0806 27.8131 58.7577 28.6119C58.9575 28.644 59.168 28.6419 59.389 28.6056ZM71.5127 37.9987C71.0074 38.0816 70.7211 37.9178 70.6538 37.5073C70.6227 37.3178 70.639 37.1206 70.7026 36.9156C70.7979 36.7054 70.8667 36.5319 70.9091 36.3953L73.7896 26.9726C75.0098 22.9459 75.5862 20.7273 75.5189 20.3168C75.4463 19.8747 75.6311 19.6174 76.0732 19.5449C76.6732 19.4465 77.0224 19.6972 77.1208 20.2972C77.1726 20.613 77.1134 21.1416 76.9432 21.8829C76.773 22.6242 76.5419 23.4891 76.2501 24.4773C75.7616 26.2437 75.3373 27.6105 74.9771 28.5775C75.7431 27.3169 76.5353 26.1168 77.3536 24.9773C78.1719 23.8378 79.0138 22.743 79.8792 21.6931C82.4491 18.5799 84.5393 16.8912 86.1497 16.627C87.2549 16.4457 87.893 16.8761 88.064 17.9181C88.2298 18.9286 87.9811 19.4883 87.318 19.5971C87.0022 19.6489 86.7213 19.4193 86.4754 18.9084C86.3185 18.545 86.0663 18.3918 85.719 18.4488C85.1822 18.5369 84.2359 19.292 82.8803 20.7143C81.3823 22.2571 79.9074 24.0394 78.4556 26.0612C77.0353 28.0777 75.5823 30.586 74.0964 33.5862L72.272 37.2904C72.1716 37.469 72.066 37.6161 71.9553 37.7315C71.8813 37.8734 71.7337 37.9624 71.5127 37.9987ZM95.3167 13.7124C94.7798 13.8005 94.4674 13.5761 94.3793 13.0393C94.3534 12.8814 94.4173 12.5791 94.571 12.1323C94.7195 11.654 94.8996 11.1704 95.1113 10.6817C95.323 10.193 95.4948 9.85674 95.6268 9.67295C96.0652 8.9849 96.4135 8.53861 96.6718 8.3341C96.9617 8.1244 97.2329 7.99883 97.4855 7.95738C98.1487 7.84859 98.5295 8.09418 98.6279 8.69416C98.6642 8.9152 98.5661 9.20693 98.3337 9.56933C98.1277 9.89498 97.8718 10.2126 97.5658 10.5222C97.1124 10.9209 96.8381 11.2253 96.7428 11.4355L95.9417 13.0748C95.9308 13.2063 95.8726 13.3456 95.767 13.4926C95.6878 13.6029 95.5377 13.6762 95.3167 13.7124ZM90.4116 34.2171C89.5275 34.3621 88.8516 34.2947 88.3841 34.0147C87.9482 33.7295 87.6733 33.2395 87.5593 32.5448C87.4505 31.8817 87.5081 30.948 87.7321 29.7439C87.9509 28.5082 88.2673 27.1753 88.6813 25.7455C89.1268 24.3104 89.6143 22.9333 90.1437 21.6142C90.6731 20.2951 91.2072 19.2022 91.746 18.3355C92.3112 17.4321 92.7991 16.9467 93.2096 16.8794C93.778 16.7861 94.1036 16.9921 94.1865 17.4973C94.2383 17.8131 94.0684 18.4571 93.6766 19.4294C93.2848 20.4016 92.8509 21.4133 92.3748 22.4642C92.1791 22.853 91.9095 23.3837 91.5658 24.0562C91.2222 24.7287 90.8891 25.367 90.5667 25.9712C90.2391 26.5438 90.0276 26.9352 89.9324 27.1454C89.6944 27.6708 89.4897 28.4989 89.3185 29.6295C89.1157 30.7654 89.061 31.6175 89.1542 32.1859C89.1957 32.4385 89.2741 32.6202 89.3896 32.731C89.5366 32.8365 89.8154 32.8557 90.2259 32.7883C91.0153 32.6588 91.8581 32.2611 92.7541 31.5953C93.6501 30.9294 94.5412 30.1347 95.4273 29.211C96.3083 28.2558 97.1235 27.2951 97.873 26.329C98.6541 25.3578 99.3112 24.5203 99.8443 23.8167C99.9499 23.6697 100.129 23.5755 100.382 23.534C100.855 23.4563 101.123 23.6069 101.185 23.9858C101.242 24.3332 101.086 24.7642 100.716 25.2788C100.004 26.2713 99.3387 27.1587 98.7212 27.941C98.1037 28.7233 97.5048 29.4214 96.9246 30.0355C96.0068 30.9643 94.9682 31.8481 93.8087 32.6869C92.6492 33.5257 91.5169 34.0358 90.4116 34.2171ZM100.342 35.409C99.7424 35.5075 99.3647 35.083 99.2093 34.1357C98.9813 32.7462 99.3561 30.1878 100.333 26.4604C101.342 22.7278 102.933 17.7972 105.106 11.6686C103.906 11.8655 102.795 12.2099 101.773 12.7018C100.778 13.157 100.285 13.6108 100.294 14.0633C100.283 14.1948 100.225 14.334 100.119 14.4811C100.04 14.5913 99.8899 14.6646 99.6689 14.7009C99.1636 14.7838 98.8695 14.5726 98.7867 14.0673C98.652 13.2463 99.1879 12.4612 100.395 11.712C101.601 10.9627 103.373 10.3964 105.71 10.013L108.092 4.07701C108.256 3.69339 108.431 3.2756 108.616 2.82364C108.796 2.3401 109.003 1.81981 109.235 1.26276C109.479 0.768858 109.806 0.488234 110.216 0.420884C110.469 0.379437 110.671 0.427297 110.823 0.564463C110.97 0.670051 111.057 0.80179 111.083 0.959679C111.16 1.43335 110.673 2.81044 109.62 5.09095C108.303 7.9337 107.6 9.47596 107.51 9.71773C107.983 9.64001 108.701 9.57081 109.664 9.51012C110.622 9.41786 111.761 9.34446 113.082 9.28994C113.561 9.2438 113.836 9.44178 113.909 9.88387C113.992 10.3891 113.749 10.6884 113.181 10.7816C112.96 10.8179 112.512 10.8588 111.839 10.9045C111.16 10.9185 110.437 10.9562 109.668 11.0173C108.9 11.0785 108.25 11.1689 107.719 11.2886L107.016 11.4525C102.455 23.7775 100.416 31.3111 100.898 34.0531L101.008 34.4243L101.023 34.519C101.106 35.0243 100.879 35.321 100.342 35.409Z" fill="#F33E5C"/>
<path d="M0.729746 49.3198L0.447371 49.2185L0.44095 49.2364L0.436839 49.2549L0.729746 49.3198ZM1.19083 47.9795L0.907085 47.882L0.906466 47.8839L1.19083 47.9795ZM3.06699 42.5156L2.78449 42.4146L2.78325 42.4182L3.06699 42.5156ZM5.67511 34.6942L5.3886 34.6052L5.38809 34.6069L5.67511 34.6942ZM7.54572 28.3071L7.83535 28.3854L7.83634 28.3815L7.54572 28.3071ZM9.35562 14.7309L9.12264 14.5419L9.11709 14.5488L9.11195 14.556L9.35562 14.7309ZM10.1505 24.9126L10.4446 24.9723L10.4457 24.9661L10.1505 24.9126ZM9.05702 29.8102L9.34844 29.8815L9.34844 29.8815L9.05702 29.8102ZM7.77479 34.447L7.48828 34.358L8.03388 34.5982L7.77479 34.447ZM15.0145 23.7254L15.2507 23.9104L15.2526 23.908L15.0145 23.7254ZM25.5214 28.471L25.815 28.5327L25.8155 28.5303L25.5214 28.471ZM23.2911 39.7813L22.9928 39.7494L23.5503 39.9323L23.2911 39.7813ZM42.0583 17.1969L41.8765 16.9583L41.8756 16.959L42.0583 17.1969ZM44.9754 15.1132L45.1427 15.3622L45.1458 15.3601L44.9754 15.1132ZM49.0734 17.262L48.7744 17.2374L48.7744 17.2374L49.0734 17.262ZM48.5379 19.9279L48.2502 19.8429L48.2495 19.8455L48.5379 19.9279ZM45.6956 29.8794L45.4071 29.797L45.4066 29.7988L45.6956 29.8794ZM44.8038 33.0415L44.5151 32.9593L44.5133 32.9664L44.8038 33.0415ZM43.9586 36.4878L43.6663 36.42L43.6653 36.4245L43.9586 36.4878ZM43.3828 39.5007L43.6784 39.5517L43.679 39.5483L43.3828 39.5007ZM46.1892 40.5968L45.9696 40.3925L45.9664 40.396L46.1892 40.5968ZM48.8414 37.1946L49.0898 37.3627L49.0951 37.3549L49.0999 37.3468L48.8414 37.1946ZM49.3484 36.4304L49.1154 36.2414L49.1098 36.2483L49.1047 36.2554L49.3484 36.4304ZM50.9015 37.0025L51.1748 37.1263L51.1825 37.1093L51.188 37.0915L50.9015 37.0025ZM50.5529 37.5461L50.7966 37.7211L50.5529 37.5461ZM49.5234 38.9797L49.7671 39.1547L49.5234 38.9797ZM48.5654 40.2556L48.7938 40.4504L48.8004 40.442L48.5654 40.2556ZM46.2633 42.5304L46.0715 42.2993L46.0623 42.3076L46.2633 42.5304ZM43.5485 30.1343L43.2593 30.0546L43.259 30.0558L43.5485 30.1343ZM46.7502 18.5187L46.4622 18.4348L46.461 18.439L46.7502 18.5187ZM47.1647 16.8942L47.461 16.9418L47.4622 16.9328L47.1647 16.8942ZM46.4168 16.19L46.5357 16.4654L46.5463 16.4609L46.5565 16.4555L46.4168 16.19ZM45.1364 16.9838L45.3041 17.2326L45.3075 17.2302L45.1364 16.9838ZM39.3721 21.5776L39.171 21.355L39.3721 21.5776ZM33.7229 27.4659L33.953 27.6583L33.9542 27.657L33.7229 27.4659ZM30.0653 32.1519L30.309 32.3269L30.0653 32.1519ZM27.0157 36.6895L26.7617 36.5298L27.0157 36.6895ZM23.7985 41.9842L24.054 42.1414L24.0567 42.1369L23.7985 41.9842ZM23.1091 43.1188L23.3527 43.2938L23.3607 43.2827L23.3676 43.271L23.1091 43.1188ZM21.4353 40.329L21.7341 40.3559L21.4353 40.329ZM21.893 37.1894L22.1873 37.2479L22.1874 37.2476L21.893 37.1894ZM23.8595 27.2357L24.1538 27.2939L24.154 27.2929L23.8595 27.2357ZM24.8139 21.1935L24.5154 21.163L24.5154 21.163L24.8139 21.1935ZM17.6755 23.0456L17.44 22.8599L17.4389 22.8613L17.6755 23.0456ZM14.6748 26.9915L14.9159 27.17L14.6748 26.9915ZM12.1562 30.6151L12.4062 30.7809L12.4082 30.7779L12.1562 30.6151ZM9.41486 34.9562L9.6726 35.1097L9.41486 34.9562ZM7.09205 39.18L6.82445 39.0443L6.82386 39.0455L7.09205 39.18ZM2.65402 49.7824L2.9364 49.8837L2.93653 49.8833L2.65402 49.7824ZM1.75183 50.8059L1.70326 50.5099C1.42944 50.5548 1.26835 50.5142 1.17311 50.4494C1.08115 50.3869 0.993966 50.2632 0.952889 50.0128L0.656847 50.0614L0.360804 50.1099C0.418163 50.4596 0.562694 50.7599 0.835734 50.9456C1.10549 51.129 1.44267 51.1607 1.8004 51.102L1.75183 50.8059ZM0.656847 50.0614L0.952889 50.0128C0.936952 49.9157 0.949079 49.7169 1.02265 49.3846L0.729746 49.3198L0.436839 49.2549C0.361406 49.5956 0.324933 49.8913 0.360804 50.1099L0.656847 50.0614ZM0.729746 49.3198L1.01212 49.4211C1.12442 49.1081 1.27887 48.6591 1.47519 48.0751L1.19083 47.9795L0.906466 47.8839C0.710534 48.4667 0.5576 48.9113 0.447371 49.2185L0.729746 49.3198ZM1.19083 47.9795L1.47457 48.0769L3.35073 42.6131L3.06699 42.5156L2.78325 42.4182L0.907091 47.882L1.19083 47.9795ZM3.06699 42.5156L3.34947 42.6167C4.37331 39.7538 5.24428 37.142 5.96213 34.7815L5.67511 34.6942L5.38809 34.6069C4.6736 36.9564 3.80582 39.5589 2.78451 42.4146L3.06699 42.5156ZM5.67511 34.6942L5.96162 34.7831C6.70499 32.3888 7.32962 30.2561 7.83532 28.3854L7.54572 28.3071L7.25611 28.2288C6.75281 30.0907 6.13037 32.216 5.3886 34.6052L5.67511 34.6942ZM7.54572 28.3071L7.83634 28.3815C9.32007 22.588 9.84823 18.2523 9.38153 15.4077L9.08549 15.4562L8.78944 15.5048C9.23456 18.2179 8.73621 22.4494 7.2551 28.2326L7.54572 28.3071ZM9.08549 15.4562L9.38153 15.4077C9.37081 15.3424 9.39782 15.1865 9.5993 14.9059L9.35562 14.7309L9.11195 14.556C8.89108 14.8635 8.73799 15.1912 8.78944 15.5048L9.08549 15.4562ZM9.35562 14.7309L9.5886 14.9199C9.80776 14.6498 9.99617 14.5407 10.1473 14.5159L10.0987 14.2199L10.0501 13.9239C9.69596 13.982 9.389 14.2136 9.12264 14.5419L9.35562 14.7309ZM10.0987 14.2199L10.1473 14.5159C10.1927 14.5085 10.2205 14.5144 10.2401 14.5228C10.2611 14.5318 10.2921 14.5523 10.3297 14.6023C10.4107 14.7103 10.4928 14.9176 10.5498 15.2647L10.8458 15.2161L11.1419 15.1675C11.0796 14.7883 10.9777 14.4663 10.8097 14.2423C10.7227 14.1263 10.613 14.03 10.477 13.9716C10.3396 13.9125 10.1941 13.9002 10.0501 13.9239L10.0987 14.2199ZM10.8458 15.2161L10.5498 15.2647C10.8776 17.2627 10.6549 20.4512 9.85533 24.859L10.1505 24.9126L10.4457 24.9661C11.2467 20.5504 11.4876 17.2746 11.1419 15.1675L10.8458 15.2161ZM10.1505 24.9126L9.85653 24.8528C9.51633 26.5265 9.15268 28.1552 8.76559 29.739L9.05702 29.8102L9.34844 29.8815C9.73747 28.2897 10.1028 26.6533 10.4445 24.9723L10.1505 24.9126ZM9.05702 29.8102L8.76559 29.739C8.37893 31.321 7.95315 32.8607 7.48828 34.358L7.77479 34.447L8.0613 34.5359C8.52994 33.0265 8.95898 31.475 9.34844 29.8815L9.05702 29.8102ZM7.77479 34.447L8.03388 34.5982C9.11917 32.7388 10.2594 30.9189 11.4546 29.1385L11.2055 28.9713L10.9565 28.8041C9.75422 30.595 8.6073 32.4255 7.51569 34.2958L7.77479 34.447ZM11.2055 28.9713L11.4546 29.1385C12.6492 27.359 13.9146 25.6163 15.2507 23.9104L15.0145 23.7254L14.7783 23.5405C13.4333 25.2578 12.1593 27.0123 10.9565 28.8041L11.2055 28.9713ZM15.0145 23.7254L15.2526 23.908C17.2237 21.3371 18.9621 19.3754 20.4683 18.0154C21.9829 16.6479 23.2286 15.9206 24.2141 15.7589L24.1655 15.4629L24.1169 15.1668C22.9551 15.3575 21.602 16.1834 20.0662 17.5701C18.5221 18.9643 16.7586 20.9577 14.7764 23.5429L15.0145 23.7254ZM24.1655 15.4629L24.2141 15.7589C24.8233 15.659 25.2676 15.7856 25.5967 16.0942C25.9395 16.4157 26.2012 16.9752 26.3414 17.8298L26.6375 17.7813L26.9335 17.7327C26.7836 16.8189 26.4883 16.1078 26.0071 15.6566C25.5121 15.1924 24.8655 15.044 24.1169 15.1668L24.1655 15.4629ZM26.6375 17.7813L26.3414 17.8298C26.4903 18.7371 26.4784 20.0698 26.2932 21.8435C26.1085 23.6124 25.7537 25.8011 25.2273 28.4117L25.5214 28.471L25.8155 28.5303C26.344 25.9091 26.7026 23.7003 26.89 21.9058C27.0768 20.1164 27.0955 18.7201 26.9335 17.7327L26.6375 17.7813ZM25.5214 28.471L25.2278 28.4092C23.8456 34.9817 23.0973 38.7727 22.9928 39.7494L23.2911 39.7813L23.5894 39.8132C23.6897 38.8754 24.4283 35.1262 25.815 28.5327L25.5214 28.471ZM23.2911 39.7813L23.5503 39.9323C29.2804 30.0953 35.5124 22.6009 42.241 17.4349L42.0583 17.1969L41.8756 16.959C35.0682 22.1855 28.7887 29.7474 23.0319 39.6303L23.2911 39.7813ZM42.0583 17.1969L42.2401 17.4356C43.1575 16.7368 44.125 16.0457 45.1427 15.3622L44.9754 15.1132L44.8082 14.8641C43.7812 15.5538 42.804 16.2518 41.8765 16.9583L42.0583 17.1969ZM44.9754 15.1132L45.1458 15.3601C46.1894 14.6403 46.9671 14.2635 47.4971 14.1765L47.4485 13.8805L47.3999 13.5845C46.7299 13.6944 45.8589 14.1394 44.8051 14.8662L44.9754 15.1132ZM47.4485 13.8805L47.4971 14.1765C47.8767 14.1143 48.1316 14.188 48.3116 14.3456C48.5025 14.5128 48.6603 14.8183 48.7429 15.322L49.039 15.2734L49.335 15.2248C49.2415 14.6548 49.0462 14.1914 48.7069 13.8942C48.3568 13.5876 47.9044 13.5017 47.3999 13.5845L47.4485 13.8805ZM49.039 15.2734L48.7429 15.322C48.8257 15.8263 48.8384 16.4628 48.7744 17.2374L49.0734 17.262L49.3724 17.2867C49.4387 16.4833 49.4284 15.7941 49.335 15.2248L49.039 15.2734ZM49.0734 17.262L48.7744 17.2374C48.7114 18.0008 48.5379 18.8688 48.2502 19.8429L48.5379 19.9279L48.8257 20.0129C49.1217 19.0105 49.3052 18.1011 49.3724 17.2867L49.0734 17.262ZM48.5379 19.9279L48.2495 19.8455L45.4071 29.797L45.6956 29.8794L45.984 29.9618L48.8264 20.0103L48.5379 19.9279ZM45.6956 29.8794L45.4066 29.7988C45.1413 30.7497 44.8442 31.8032 44.5152 32.9594L44.8038 33.0415L45.0923 33.1236C45.4215 31.9666 45.7189 30.9121 45.9845 29.96L45.6956 29.8794ZM44.8038 33.0415L44.5133 32.9664C44.2152 34.1202 43.9328 35.2713 43.6663 36.42L43.9586 36.4878L44.2508 36.5556C44.5162 35.4119 44.7973 34.2655 45.0942 33.1165L44.8038 33.0415ZM43.9586 36.4878L43.6653 36.4245C43.4249 37.5379 43.2319 38.5476 43.0866 39.4532L43.3828 39.5007L43.679 39.5483C43.8223 38.6554 44.0131 37.6565 44.2518 36.5511L43.9586 36.4878ZM43.3828 39.5007L43.0871 39.4498C42.9363 40.325 42.8903 41.0206 42.9713 41.5139L43.2673 41.4654L43.5633 41.4168C43.4992 41.026 43.5302 40.4118 43.6784 39.5517L43.3828 39.5007ZM43.2673 41.4654L42.9713 41.5139C43.018 41.799 43.1188 42.0584 43.3154 42.2329C43.5234 42.4175 43.787 42.4624 44.056 42.4182L44.0074 42.1222L43.9588 41.8262C43.8174 41.8494 43.7523 41.8184 43.7136 41.7841C43.6635 41.7396 43.5995 41.637 43.5633 41.4168L43.2673 41.4654ZM44.0074 42.1222L44.056 42.4182C44.7935 42.2972 45.5796 41.7215 46.4121 40.7977L46.1892 40.5968L45.9664 40.396C45.1529 41.2988 44.4844 41.7399 43.9588 41.8262L44.0074 42.1222ZM46.1892 40.5968L46.4089 40.8012C47.2765 39.8687 48.1701 38.7217 49.0898 37.3627L48.8414 37.1946L48.593 37.0264C47.6857 38.3669 46.8111 39.4881 45.9696 40.3925L46.1892 40.5968ZM48.8414 37.1946L49.0999 37.3468C49.2206 37.1418 49.384 36.8951 49.5921 36.6054L49.3484 36.4304L49.1047 36.2554C48.8903 36.5539 48.7158 36.8166 48.5829 37.0424L48.8414 37.1946ZM49.3484 36.4304L49.5814 36.6194C49.8084 36.3395 49.9808 36.2415 50.0926 36.2232L50.0441 35.9271L49.9955 35.6311C49.6652 35.6853 49.3739 35.9228 49.1154 36.2414L49.3484 36.4304ZM50.0441 35.9271L50.0926 36.2232C50.29 36.1908 50.3954 36.2289 50.4585 36.28C50.5285 36.3368 50.6053 36.4574 50.6458 36.704L50.9418 36.6554L51.2379 36.6068C51.1851 36.285 51.0656 36 50.8364 35.814C50.6002 35.6224 50.3034 35.5806 49.9955 35.6311L50.0441 35.9271ZM50.9418 36.6554L50.6458 36.704C50.651 36.7358 50.6498 36.8013 50.615 36.9136L50.9015 37.0025L51.188 37.0915C51.238 36.9303 51.2637 36.7645 51.2379 36.6068L50.9418 36.6554ZM50.9015 37.0025L50.6282 36.8787C50.5946 36.9529 50.4958 37.1113 50.3092 37.3711L50.5529 37.5461L50.7966 37.7211C50.9796 37.4663 51.1131 37.2624 51.1748 37.1263L50.9015 37.0025ZM50.5529 37.5461L50.3092 37.3711C49.9661 37.849 49.6229 38.3268 49.2797 38.8047L49.5234 38.9797L49.7671 39.1547C50.1103 38.6768 50.4534 38.199 50.7966 37.7211L50.5529 37.5461ZM49.5234 38.9797L49.2797 38.8047C48.9387 39.2796 48.6223 39.701 48.3303 40.0693L48.5654 40.2556L48.8004 40.442C49.0995 40.0648 49.4218 39.6356 49.7671 39.1547L49.5234 38.9797ZM48.5654 40.2556L48.337 40.061C47.641 40.8775 46.8859 41.6236 46.0716 42.2995L46.2633 42.5304L46.4549 42.7612C47.296 42.063 48.0756 41.2926 48.7937 40.4503L48.5654 40.2556ZM46.2633 42.5304L46.0623 42.3076C45.3022 42.9932 44.5471 43.3835 43.7968 43.5066L43.8453 43.8026L43.8939 44.0987C44.7856 43.9524 45.6424 43.4944 46.4642 42.7531L46.2633 42.5304ZM43.8453 43.8026L43.7968 43.5066C43.2044 43.6037 42.7848 43.5036 42.4881 43.2636C42.1846 43.0181 41.9548 42.5823 41.8419 41.8938L41.5458 41.9424L41.2498 41.9909C41.3751 42.755 41.6477 43.3555 42.1108 43.7301C42.5806 44.1102 43.1915 44.2139 43.8939 44.0987L43.8453 43.8026ZM41.5458 41.9424L41.8419 41.8938C41.7054 41.0622 41.7876 39.6792 42.113 37.7151L41.8171 37.666L41.5211 37.617C41.1948 39.5863 41.0961 41.0542 41.2498 41.9909L41.5458 41.9424ZM41.8171 37.666L42.113 37.7151C42.4366 35.7623 43.0109 33.2625 43.8381 30.2129L43.5485 30.1343L43.259 30.0558C42.4293 33.115 41.8493 35.6363 41.5211 37.617L41.8171 37.666ZM43.5485 30.1343L43.8377 30.2141L47.0394 18.5985L46.7502 18.5187L46.461 18.439L43.2593 30.0546L43.5485 30.1343ZM46.7502 18.5187L47.0382 18.6027C47.266 17.8209 47.4094 17.2625 47.4609 16.9418L47.1647 16.8942L46.8685 16.8467C46.8237 17.1254 46.6908 17.65 46.4622 18.4348L46.7502 18.5187ZM47.1647 16.8942L47.4622 16.9328C47.5047 16.6045 47.5228 16.3346 47.494 16.1592L47.198 16.2078L46.9019 16.2563C46.9146 16.3336 46.9105 16.5213 46.8672 16.8557L47.1647 16.8942ZM47.198 16.2078L47.494 16.1592C47.4729 16.0306 47.4224 15.8833 47.3001 15.7775C47.1675 15.6627 47.0061 15.6434 46.8659 15.6664L46.9145 15.9624L46.9631 16.2585C46.9736 16.2567 46.9696 16.2591 46.9562 16.2561C46.9408 16.2527 46.9228 16.2445 46.9075 16.2312C46.8932 16.2189 46.8893 16.2091 46.8905 16.2119C46.8921 16.2153 46.8974 16.2286 46.9019 16.2563L47.198 16.2078ZM46.9145 15.9624L46.8659 15.6664C46.7886 15.6791 46.6959 15.7186 46.618 15.7543C46.5278 15.7955 46.4136 15.8527 46.2771 15.9245L46.4168 16.19L46.5565 16.4555C46.6887 16.3859 46.7918 16.3345 46.8675 16.2999C46.9054 16.2826 46.9337 16.2707 46.9536 16.2632C46.9772 16.2543 46.9772 16.2562 46.9631 16.2585L46.9145 15.9624ZM46.4168 16.19L46.2979 15.9146C46.0239 16.0329 45.5735 16.3149 44.9653 16.7374L45.1364 16.9838L45.3075 17.2302C45.9219 16.8035 46.3252 16.5563 46.5357 16.4654L46.4168 16.19ZM45.1364 16.9838L44.9688 16.735C43.173 17.945 41.2403 19.4857 39.171 21.355L39.3721 21.5776L39.5732 21.8002C41.6272 19.9448 43.5374 18.4229 45.304 17.2326L45.1364 16.9838ZM39.3721 21.5776L39.171 21.355C37.0989 23.2267 35.2057 25.2 33.4916 27.2748L33.7229 27.4659L33.9542 27.657C35.649 25.6055 37.5219 23.6532 39.5732 21.8002L39.3721 21.5776ZM33.7229 27.4659L33.4927 27.2735C32.1063 28.9317 30.8825 30.4996 29.8216 31.9769L30.0653 32.1519L30.309 32.3269C31.3598 30.8635 32.5744 29.3074 33.953 27.6583L33.7229 27.4659ZM30.0653 32.1519L29.8216 31.9769C28.7621 33.4523 27.7421 34.97 26.7617 36.5298L27.0157 36.6895L27.2697 36.8491C28.2436 35.2996 29.2567 33.7921 30.309 32.3269L30.0653 32.1519ZM27.0157 36.6895L26.7617 36.5298C25.7828 38.0873 24.7089 39.8546 23.5402 41.8315L23.7985 41.9842L24.0567 42.1369C25.2233 40.1636 26.2943 38.4011 27.2697 36.8491L27.0157 36.6895ZM23.7985 41.9842L23.5429 41.827C23.2102 42.3679 22.979 42.7484 22.8505 42.9666L23.1091 43.1188L23.3676 43.271C23.4927 43.0584 23.7211 42.6825 24.054 42.1414L23.7985 41.9842ZM23.1091 43.1188L22.8654 42.9438C22.8 43.0348 22.6528 43.1328 22.3415 43.1839L22.39 43.48L22.4386 43.776C22.822 43.7131 23.1541 43.5703 23.3527 43.2938L23.1091 43.1188ZM22.39 43.48L22.3415 43.1839C22.1232 43.2197 22.0033 43.1809 21.933 43.1273C21.8592 43.071 21.7808 42.9535 21.741 42.7109L21.4449 42.7595L21.1489 42.808C21.2023 43.1338 21.328 43.4206 21.5693 43.6045C21.814 43.791 22.1201 43.8283 22.4386 43.776L22.39 43.48ZM21.4449 42.7595L21.741 42.7109C21.6485 42.1471 21.643 41.3657 21.7341 40.3559L21.4353 40.329L21.1365 40.302C21.0435 41.3329 21.0445 42.1719 21.1489 42.808L21.4449 42.7595ZM21.4353 40.329L21.7341 40.3559C21.8251 39.3468 21.9761 38.3108 22.1873 37.2479L21.893 37.1894L21.5988 37.131C21.3837 38.2133 21.2295 39.2704 21.1365 40.302L21.4353 40.329ZM21.893 37.1894L22.1874 37.2476L24.1538 27.2939L23.8595 27.2357L23.5652 27.1776L21.5987 37.1313L21.893 37.1894ZM23.8595 27.2357L24.154 27.2929C24.6293 24.8433 24.9492 22.8196 25.1123 21.224L24.8139 21.1935L24.5154 21.163C24.3548 22.7337 24.0385 24.738 23.565 27.1786L23.8595 27.2357ZM24.8139 21.1935L25.1123 21.224C25.2746 19.6365 25.2973 18.4328 25.1661 17.6335L24.8701 17.6821L24.5741 17.7307C24.6916 18.4471 24.6768 19.5844 24.5154 21.163L24.8139 21.1935ZM24.8701 17.6821L25.1661 17.6335C25.1086 17.2828 24.9829 16.9766 24.7463 16.7759C24.5004 16.5672 24.1886 16.517 23.8609 16.5708L23.9094 16.8669L23.958 17.1629C24.1671 17.1286 24.2838 17.1703 24.3581 17.2334C24.4418 17.3044 24.528 17.4498 24.5741 17.7307L24.8701 17.6821ZM23.9094 16.8669L23.8609 16.5708C23.5316 16.6248 23.1608 16.818 22.7592 17.1052C22.3512 17.3968 21.8838 17.8057 21.3582 18.3267C20.3066 19.3691 18.9999 20.8819 17.44 22.8599L17.6755 23.0456L17.9111 23.2314C19.465 21.2611 20.7543 19.7701 21.7806 18.7529C22.294 18.244 22.7361 17.8593 23.1081 17.5933C23.4865 17.3228 23.7662 17.1944 23.958 17.1629L23.9094 16.8669ZM17.6755 23.0456L17.4389 22.8613C16.3661 24.2386 15.3644 25.5559 14.4337 26.813L14.6748 26.9915L14.9159 27.17C15.8434 25.9172 16.8421 24.6039 17.9122 23.23L17.6755 23.0456ZM14.6748 26.9915L14.4337 26.813C13.5013 28.0725 12.6581 29.2856 11.9042 30.4523L12.1562 30.6151L12.4082 30.7779C13.1543 29.6231 13.9901 28.4205 14.9159 27.17L14.6748 26.9915ZM12.1562 30.6151L11.9062 30.4492C10.89 31.981 9.97358 33.4322 9.15713 34.8026L9.41486 34.9562L9.6726 35.1097C10.4834 33.7487 11.3945 32.3058 12.4062 30.7809L12.1562 30.6151ZM9.41486 34.9562L9.15713 34.8026C8.33994 36.1744 7.56239 37.5883 6.82445 39.0443L7.09205 39.18L7.35964 39.3156C8.09155 37.8714 8.86254 36.4695 9.6726 35.1097L9.41486 34.9562ZM7.09205 39.18L6.82386 39.0455C6.11207 40.4654 5.39265 42.0319 4.66553 43.7446L4.94168 43.8619L5.21783 43.9791C5.94082 42.276 6.65498 40.7212 7.36024 39.3144L7.09205 39.18ZM4.94168 43.8619L4.66553 43.7446C3.93767 45.4592 3.17301 47.4383 2.37151 49.6814L2.65402 49.7824L2.93653 49.8833C3.73513 47.6483 4.49558 45.6804 5.21783 43.9791L4.94168 43.8619ZM2.65402 49.7824L2.37165 49.681C2.15875 50.2744 1.91369 50.4754 1.70326 50.5099L1.75183 50.8059L1.8004 51.102C2.34785 51.0122 2.70425 50.5307 2.9364 49.8837L2.65402 49.7824ZM57.2838 27.9295L57.56 28.0465L57.5611 28.044L57.2838 27.9295ZM58.3862 25.7543L58.6433 25.9091L58.6468 25.9029L58.3862 25.7543ZM59.8279 23.5721L60.067 23.7533L60.0686 23.7512L59.8279 23.5721ZM62.439 20.809L62.2492 20.5766L62.439 20.809ZM65.6429 26.9959L65.8491 27.2138L65.8525 27.2105L65.6429 26.9959ZM58.9668 30.1828L58.9421 30.4818L58.9622 30.4834L58.9824 30.4824L58.9668 30.1828ZM58.2252 30.1099L58.2598 29.8119L58.0177 29.7837L57.9406 30.015L58.2252 30.1099ZM57.7534 32.5707L58.0519 32.6001L57.7534 32.5707ZM65.13 36.3219L65.2808 36.5813L65.2861 36.5781L65.13 36.3219ZM69.3771 32.5607L69.157 32.3568L69.1551 32.3589L69.3771 32.5607ZM71.5852 30.0096L71.8238 30.1914L71.5852 30.0096ZM73.1528 28.0013L72.9481 27.7819L72.9319 27.797L72.9181 27.8143L73.1528 28.0013ZM74.1397 27.7907L74.2503 27.5119L74.1397 27.7907ZM73.74 29.802L73.9784 29.9843L73.9837 29.977L73.74 29.802ZM72.299 31.6922L72.5327 31.8805L72.5379 31.8737L72.299 31.6922ZM69.83 34.4321L69.6128 34.2252L69.6106 34.2275L69.83 34.4321ZM65.6947 37.6885L65.8419 37.9499L65.6947 37.6885ZM64.5805 25.8568L64.7944 26.0672L64.7958 26.0657L64.5805 25.8568ZM61.5471 23.9711L61.7836 24.1556L61.7838 24.1555L61.5471 23.9711ZM59.8523 26.3894L59.5953 26.2346L59.5946 26.2358L59.8523 26.3894ZM58.7577 28.6119L58.4796 28.4995L58.3385 28.8485L58.7102 28.9081L58.7577 28.6119ZM61.2004 39.3501L61.1519 39.054C59.9023 39.2591 58.8783 38.9886 58.046 38.2632L57.8489 38.4893L57.6518 38.7155C58.6356 39.5729 59.846 39.8763 61.249 39.6461L61.2004 39.3501ZM57.8489 38.4893L58.046 38.2632C57.1966 37.523 56.664 36.5301 56.4563 35.2642L56.1603 35.3128L55.8643 35.3614C56.0918 36.7481 56.6849 37.8729 57.6518 38.7155L57.8489 38.4893ZM56.1603 35.3128L56.4563 35.2642C56.0945 33.059 56.4547 30.6558 57.56 28.0465L57.2838 27.9295L57.0075 27.8125C55.8689 30.5004 55.48 33.0194 55.8643 35.3614L56.1603 35.3128ZM57.2838 27.9295L57.5611 28.044C57.8567 27.3283 58.2172 26.6166 58.6432 25.9091L58.3862 25.7543L58.1291 25.5996C57.6887 26.3313 57.3143 27.0698 57.0065 27.815L57.2838 27.9295ZM58.3862 25.7543L58.6468 25.9029C59.0682 25.1632 59.5416 24.4467 60.067 23.7533L59.8279 23.5721L59.5888 23.391C59.0479 24.1047 58.5601 24.843 58.1255 25.6058L58.3862 25.7543ZM59.8279 23.5721L60.0686 23.7512C60.8523 22.698 61.7059 21.7952 62.6288 21.0413L62.439 20.809L62.2492 20.5766C61.2847 21.3646 60.3976 22.304 59.5872 23.3931L59.8279 23.5721ZM62.439 20.809L62.6288 21.0413C63.5409 20.296 64.4549 19.858 65.3714 19.7077L65.3228 19.4116L65.2742 19.1156C64.2328 19.2864 63.2243 19.78 62.2492 20.5766L62.439 20.809ZM65.3228 19.4116L65.3714 19.7077C66.1353 19.5823 66.6827 19.6775 67.0603 19.9317C67.434 20.1832 67.6994 20.63 67.8155 21.3375L68.1115 21.2889L68.4075 21.2403C68.2749 20.4321 67.9512 19.8081 67.3953 19.4339C66.8434 19.0623 66.1208 18.9767 65.2742 19.1156L65.3228 19.4116ZM68.1115 21.2889L67.8155 21.3375C68.1044 23.0987 67.3517 24.9085 65.4333 26.7812L65.6429 26.9959L65.8525 27.2105C67.8473 25.2633 68.7403 23.2685 68.4075 21.2403L68.1115 21.2889ZM65.6429 26.9959L65.4367 26.7779C63.6449 28.4731 61.7905 29.4641 59.8733 29.7787L59.9219 30.0747L59.9705 30.3708C62.0321 30.0325 63.9917 28.971 65.8491 27.2138L65.6429 26.9959ZM59.9219 30.0747L59.8733 29.7787C59.5347 29.8342 59.2275 29.8688 58.9512 29.8832L58.9668 30.1828L58.9824 30.4824C59.2848 30.4666 59.6144 30.4292 59.9705 30.3708L59.9219 30.0747ZM58.9668 30.1828L58.9915 29.8838C58.7314 29.8623 58.4875 29.8383 58.2598 29.8119L58.2252 30.1099L58.1906 30.4079C58.4257 30.4352 58.6762 30.4598 58.9421 30.4818L58.9668 30.1828ZM58.2252 30.1099L57.9406 30.015C57.7138 30.6951 57.5533 31.5392 57.4548 32.5414L57.7534 32.5707L58.0519 32.6001C58.1478 31.6246 58.3019 30.8282 58.5098 30.2048L58.2252 30.1099ZM57.7534 32.5707L57.4548 32.5414C57.356 33.5464 57.363 34.4159 57.4825 35.1445L57.7785 35.096L58.0746 35.0474C57.9662 34.3866 57.9563 33.5726 58.0519 32.6001L57.7534 32.5707ZM57.7785 35.096L57.4825 35.1445C57.6595 36.2235 58.0376 37.0493 58.6597 37.5598C59.2895 38.0767 60.1152 38.227 61.0873 38.0675L61.0387 37.7714L60.9901 37.4754C60.1307 37.6164 59.4973 37.471 59.0404 37.096C58.5758 36.7148 58.2395 36.0526 58.0746 35.0474L57.7785 35.096ZM61.0387 37.7714L61.0873 38.0675C62.6058 37.8184 64.0044 37.3233 65.2808 36.5813L65.13 36.3219L64.9792 36.0626C63.7688 36.7662 62.44 37.2375 60.9901 37.4754L61.0387 37.7714ZM65.13 36.3219L65.2861 36.5781C66.5593 35.8024 67.9972 34.5251 69.5991 32.7625L69.3771 32.5607L69.1551 32.3589C67.5706 34.1024 66.1771 35.3326 64.9739 36.0657L65.13 36.3219ZM69.3771 32.5607L69.5972 32.7646C70.591 31.6916 71.3347 30.833 71.8238 30.1914L71.5852 30.0096L71.3466 29.8277C70.875 30.4463 70.1467 31.2884 69.157 32.3569L69.3771 32.5607ZM71.5852 30.0096L71.8238 30.1914C72.3026 29.5633 72.8238 28.8956 73.3874 28.1882L73.1528 28.0013L72.9181 27.8143C72.3523 28.5246 71.8284 29.1957 71.3466 29.8277L71.5852 30.0096ZM73.1528 28.0013L73.3574 28.2207C73.5011 28.0867 73.6124 28.0353 73.6913 28.0224L73.6427 27.7263L73.5941 27.4303C73.3573 27.4692 73.1419 27.6011 72.9481 27.7819L73.1528 28.0013ZM73.6427 27.7263L73.6913 28.0224C73.7871 28.0067 73.8976 28.0174 74.029 28.0696L74.1397 27.7907L74.2503 27.5119C74.0349 27.4264 73.814 27.3942 73.5941 27.4303L73.6427 27.7263ZM74.1397 27.7907L74.029 28.0696C74.1011 28.0982 74.1358 28.1376 74.1504 28.2267L74.4464 28.1782L74.7425 28.1296C74.695 27.8398 74.5252 27.6209 74.2503 27.5119L74.1397 27.7907ZM74.4464 28.1782L74.1504 28.2267C74.1652 28.3168 74.1461 28.4752 74.0375 28.725C73.9315 28.9687 73.7537 29.2686 73.4963 29.627L73.74 29.802L73.9837 29.977C74.2543 29.6002 74.4582 29.2619 74.5877 28.9643C74.7145 28.6728 74.7847 28.3869 74.7425 28.1296L74.4464 28.1782ZM73.74 29.802L73.5018 29.6197C73.0476 30.2133 72.5671 30.8436 72.0602 31.5107L72.299 31.6922L72.5379 31.8737C73.0444 31.2071 73.5246 30.5773 73.9783 29.9843L73.74 29.802ZM72.299 31.6922L72.0655 31.504C71.5616 32.1292 70.7456 33.0352 69.6128 34.2252L69.83 34.4321L70.0473 34.6389C71.1826 33.4463 72.0126 32.5257 72.5326 31.8804L72.299 31.6922ZM69.83 34.4321L69.6106 34.2275C68.4182 35.5067 67.0641 36.573 65.5475 37.4271L65.6947 37.6885L65.8419 37.9499C67.4125 37.0654 68.8153 35.9607 70.0495 34.6366L69.83 34.4321ZM65.6947 37.6885L65.5475 37.4271C64.0284 38.2827 62.5635 38.8224 61.1519 39.054L61.2004 39.3501L61.249 39.6461C62.7425 39.4011 64.2738 38.8331 65.8419 37.9499L65.6947 37.6885ZM59.389 28.6056L59.4376 28.9016C60.4795 28.7307 61.4486 28.4044 62.3431 27.9219L62.2007 27.6579L62.0582 27.3939C61.2248 27.8434 60.3195 28.1489 59.3404 28.3096L59.389 28.6056ZM62.2007 27.6579L62.3431 27.9219C63.2347 27.441 64.0518 26.8222 64.7944 26.0672L64.5805 25.8568L64.3666 25.6465C63.664 26.3609 62.8945 26.9428 62.0582 27.3939L62.2007 27.6579ZM64.5805 25.8568L64.7958 26.0657C66.4151 24.3965 67.216 22.8723 66.9943 21.5208L66.6983 21.5694L66.4022 21.618C66.5743 22.6665 65.9633 24.0005 64.3651 25.648L64.5805 25.8568ZM66.6983 21.5694L66.9943 21.5208C66.9398 21.1883 66.7853 20.9087 66.499 20.7456C66.2263 20.5902 65.8867 20.5716 65.5229 20.6313L65.5715 20.9274L65.62 21.2234C65.9194 21.1743 66.0991 21.2083 66.202 21.2669C66.2914 21.3179 66.3687 21.4137 66.4022 21.618L66.6983 21.5694ZM65.5715 20.9274L65.5229 20.6313C64.1447 20.8574 62.743 21.9484 61.3105 23.7867L61.5471 23.9711L61.7838 24.1555C63.1908 22.3499 64.472 21.4118 65.62 21.2234L65.5715 20.9274ZM61.5471 23.9711L61.3107 23.7865C60.6089 24.6855 60.0364 25.5018 59.5953 26.2346L59.8523 26.3894L60.1093 26.5441C60.5346 25.8377 61.092 25.0417 61.7836 24.1556L61.5471 23.9711ZM59.8523 26.3894L59.5946 26.2358C59.1793 26.9329 58.8078 27.6876 58.4796 28.4995L58.7577 28.6119L59.0358 28.7243C59.3535 27.9385 59.7117 27.2116 60.11 26.5429L59.8523 26.3894ZM58.7577 28.6119L58.7102 28.9081C58.945 28.9458 59.1881 28.9426 59.4376 28.9016L59.389 28.6056L59.3404 28.3096C59.1478 28.3412 58.97 28.3421 58.8052 28.3157L58.7577 28.6119ZM70.7026 36.9156L70.4294 36.7918L70.4217 36.8088L70.4161 36.8266L70.7026 36.9156ZM70.9091 36.3953L71.1956 36.4842L71.196 36.483L70.9091 36.3953ZM73.7896 26.9726L74.0765 27.0603L74.0767 27.0596L73.7896 26.9726ZM76.9432 21.8829L77.2356 21.95L76.9432 21.8829ZM76.2501 24.4773L75.9623 24.3924L75.9609 24.3974L76.2501 24.4773ZM74.9771 28.5775L74.696 28.4728L75.2335 28.7333L74.9771 28.5775ZM79.8792 21.6931L79.6478 21.5021L79.6477 21.5022L79.8792 21.6931ZM86.4754 18.9084L86.1997 19.0274L86.2051 19.0385L86.4754 18.9084ZM82.8803 20.7143L83.0956 20.9232L83.0975 20.9212L82.8803 20.7143ZM78.4556 26.0612L78.2119 25.8862L78.2103 25.8884L78.4556 26.0612ZM74.0964 33.5862L73.8276 33.453L73.8273 33.4536L74.0964 33.5862ZM72.272 37.2904L72.5336 37.4374L72.5376 37.4303L72.5412 37.423L72.272 37.2904ZM71.9553 37.7315L71.7388 37.5238L71.7091 37.5548L71.6893 37.5928L71.9553 37.7315ZM71.5127 37.9987L71.4641 37.7027C71.2439 37.7388 71.1262 37.7109 71.068 37.6776C71.0232 37.652 70.9731 37.6002 70.9498 37.4587L70.6538 37.5073L70.3578 37.5558C70.4019 37.8249 70.5286 38.0603 70.77 38.1984C70.9982 38.3289 71.2762 38.3415 71.5613 38.2947L71.5127 37.9987ZM70.6538 37.5073L70.9498 37.4587C70.9271 37.3204 70.9377 37.1704 70.9892 37.0045L70.7026 36.9156L70.4161 36.8266C70.3403 37.0708 70.3183 37.3152 70.3578 37.5558L70.6538 37.5073ZM70.7026 36.9156L70.9759 37.0394C71.0736 36.8238 71.148 36.6377 71.1956 36.4842L70.9091 36.3953L70.6226 36.3063C70.5854 36.4262 70.5222 36.5869 70.4294 36.7918L70.7026 36.9156ZM70.9091 36.3953L71.196 36.483L74.0765 27.0603L73.7896 26.9726L73.5027 26.8849L70.6222 36.3076L70.9091 36.3953ZM73.7896 26.9726L74.0767 27.0596C74.6872 25.045 75.1377 23.4792 75.4274 22.3641C75.5722 21.807 75.6778 21.3584 75.7432 21.0208C75.7758 20.8521 75.7992 20.7071 75.8122 20.5879C75.8244 20.4757 75.8303 20.362 75.8149 20.2683L75.5189 20.3168L75.2228 20.3654C75.2227 20.3649 75.2233 20.3681 75.2237 20.3761C75.2241 20.3839 75.2243 20.3947 75.224 20.4088C75.2234 20.4374 75.2209 20.4751 75.2157 20.5232C75.2052 20.6196 75.1851 20.7467 75.1541 20.9067C75.0922 21.2263 74.9902 21.661 74.8467 22.2132C74.56 23.3167 74.1122 24.8735 73.5025 26.8856L73.7896 26.9726ZM75.5189 20.3168L75.8149 20.2683C75.7861 20.0929 75.8171 20.0085 75.8467 19.9673C75.8763 19.926 75.9464 19.8697 76.1218 19.8409L76.0732 19.5449L76.0246 19.2489C75.7579 19.2926 75.5145 19.4012 75.3594 19.6173C75.2042 19.8334 75.1791 20.0987 75.2228 20.3654L75.5189 20.3168ZM76.0732 19.5449L76.1218 19.8409C76.3761 19.7992 76.5229 19.8402 76.6101 19.9028C76.6973 19.9654 76.783 20.0914 76.8248 20.3458L77.1208 20.2972L77.4169 20.2487C77.3602 19.903 77.2221 19.6036 76.9601 19.4155C76.698 19.2273 76.3702 19.1922 76.0246 19.2489L76.0732 19.5449ZM77.1208 20.2972L76.8248 20.3458C76.8661 20.5975 76.8211 21.0742 76.6508 21.8158L76.9432 21.8829L77.2356 21.95C77.4057 21.2089 77.4792 20.6285 77.4169 20.2487L77.1208 20.2972ZM76.9432 21.8829L76.6508 21.8158C76.4823 22.5494 76.253 23.4081 75.9624 24.3924L76.2501 24.4773L76.5378 24.5623C76.8308 23.57 77.0636 22.699 77.2356 21.95L76.9432 21.8829ZM76.2501 24.4773L75.9609 24.3974C75.4733 26.1607 75.0517 27.5178 74.696 28.4728L74.9771 28.5775L75.2582 28.6822C75.6229 27.7031 76.0499 26.3267 76.5392 24.5573L76.2501 24.4773ZM74.9771 28.5775L75.2335 28.7333C75.9957 27.4789 76.7837 26.2852 77.5973 25.1523L77.3536 24.9773L77.1099 24.8023C76.2869 25.9484 75.4905 27.1549 74.7207 28.4217L74.9771 28.5775ZM77.3536 24.9773L77.5973 25.1523C78.4118 24.018 79.2496 22.9285 80.1107 21.8839L79.8792 21.6931L79.6477 21.5022C78.7779 22.5575 77.932 23.6575 77.1099 24.8023L77.3536 24.9773ZM79.8792 21.6931L80.1105 21.884C81.3884 20.3361 82.539 19.1521 83.5628 18.3251C84.5907 17.4946 85.4675 17.043 86.1983 16.9231L86.1497 16.627L86.1012 16.331C85.2215 16.4753 84.248 17.0001 83.1857 17.8583C82.1193 18.7199 80.9399 19.9369 79.6478 21.5021L79.8792 21.6931ZM86.1497 16.627L86.1983 16.9231C86.7095 16.8392 87.0576 16.9062 87.2895 17.0625C87.5175 17.2163 87.6907 17.4959 87.768 17.9667L88.064 17.9181L88.3601 17.8696C88.2663 17.2983 88.035 16.8416 87.625 16.5651C87.2187 16.2911 86.6952 16.2335 86.1012 16.331L86.1497 16.627ZM88.064 17.9181L87.768 17.9667C87.8471 18.449 87.8172 18.7725 87.7277 18.9739C87.6489 19.1512 87.5127 19.2611 87.2694 19.301L87.318 19.5971L87.3666 19.8931C87.7864 19.8242 88.1061 19.5999 88.276 19.2176C88.4352 18.8593 88.4467 18.3978 88.3601 17.8696L88.064 17.9181ZM87.318 19.5971L87.2694 19.301C87.2083 19.311 87.144 19.2999 87.0604 19.2315C86.9676 19.1557 86.8592 19.0142 86.7457 18.7783L86.4754 18.9084L86.2051 19.0385C86.3375 19.3136 86.4925 19.5423 86.6807 19.696C86.8778 19.8572 87.1119 19.9349 87.3666 19.8931L87.318 19.5971ZM86.4754 18.9084L86.7508 18.7895C86.656 18.5699 86.5191 18.3829 86.3244 18.2646C86.1258 18.1439 85.9005 18.115 85.6704 18.1528L85.719 18.4488L85.7676 18.7448C85.8849 18.7256 85.9593 18.7448 86.0128 18.7773C86.0703 18.8122 86.1379 18.8835 86.2 19.0273L86.4754 18.9084ZM85.719 18.4488L85.6704 18.1528C85.3187 18.2105 84.8949 18.4674 84.4196 18.8467C83.9314 19.2363 83.3453 19.7916 82.6632 20.5073L82.8803 20.7143L83.0975 20.9212C83.7709 20.2147 84.3358 19.6812 84.7938 19.3157C85.2647 18.9399 85.5825 18.7752 85.7676 18.7448L85.719 18.4488ZM82.8803 20.7143L82.6651 20.5053C81.1553 22.0603 79.6711 23.8543 78.2119 25.8862L78.4556 26.0612L78.6993 26.2361C80.1438 24.2246 81.6093 22.454 83.0956 20.9232L82.8803 20.7143ZM78.4556 26.0612L78.2103 25.8884C76.7787 27.9211 75.318 30.4436 73.8276 33.453L74.0964 33.5862L74.3652 33.7193C75.8465 30.7285 77.292 28.2343 78.7009 26.2339L78.4556 26.0612ZM74.0964 33.5862L73.8273 33.4536L72.0029 37.1579L72.272 37.2904L72.5412 37.423L74.3655 33.7187L74.0964 33.5862ZM72.272 37.2904L72.0105 37.1434C71.9192 37.3058 71.828 37.4309 71.7388 37.5238L71.9553 37.7315L72.1718 37.9392C72.3041 37.8012 72.424 37.6323 72.5336 37.4374L72.272 37.2904ZM71.9553 37.7315L71.6893 37.5928C71.6747 37.6207 71.6317 37.6752 71.4641 37.7027L71.5127 37.9987L71.5613 38.2947C71.8358 38.2497 72.0878 38.1261 72.2212 37.8703L71.9553 37.7315ZM94.571 12.1323L94.8548 12.23L94.8575 12.2213L94.571 12.1323ZM95.6268 9.67295L95.8704 9.84794L95.8753 9.84118L95.8798 9.83415L95.6268 9.67295ZM96.6718 8.3341L96.4958 8.0908L96.4856 8.0989L96.6718 8.3341ZM98.3337 9.56933L98.0812 9.40739L98.0802 9.40895L98.3337 9.56933ZM97.5658 10.5222L97.7639 10.7475L97.7718 10.7406L97.7792 10.7331L97.5658 10.5222ZM96.7428 11.4355L97.0125 11.5673L97.0161 11.5593L96.7428 11.4355ZM95.9417 13.0748L95.6722 12.9431L95.6474 12.9939L95.6427 13.0502L95.9417 13.0748ZM95.767 13.4926L96.0107 13.6676L96.0107 13.6676L95.767 13.4926ZM88.3841 34.0147L88.2198 34.2659L88.23 34.272L88.3841 34.0147ZM87.7321 29.7439L88.027 29.7988L88.0275 29.7962L87.7321 29.7439ZM88.6813 25.7455L88.3947 25.6565L88.3931 25.662L88.6813 25.7455ZM90.1437 21.6142L89.8653 21.5025L90.1437 21.6142ZM91.746 18.3355L91.4917 18.1764L91.4913 18.1771L91.746 18.3355ZM93.6766 19.4294L93.9549 19.5415L93.6766 19.4294ZM92.3748 22.4642L92.643 22.5992L92.648 22.588L92.3748 22.4642ZM91.5658 24.0562L91.833 24.1927L91.5658 24.0562ZM90.5667 25.9712L90.8272 26.1202L90.8314 26.1124L90.5667 25.9712ZM89.9324 27.1454L89.6592 27.0216L89.9324 27.1454ZM89.3185 29.6295L89.6139 29.6823L89.6151 29.6745L89.3185 29.6295ZM89.3896 32.731L89.1819 32.9474L89.1973 32.9622L89.2146 32.9746L89.3896 32.731ZM92.7541 31.5953L92.5751 31.3545L92.7541 31.5953ZM95.4273 29.211L95.6439 29.4187L95.6479 29.4144L95.4273 29.211ZM97.873 26.329L97.6392 26.141L97.636 26.1451L97.873 26.329ZM99.8443 23.8167L100.083 23.998L100.088 23.9917L99.8443 23.8167ZM100.716 25.2788L100.473 25.1038L100.716 25.2788ZM98.7212 27.941L98.9567 28.1268L98.7212 27.941ZM96.9246 30.0355L97.138 30.2464L97.1426 30.2415L96.9246 30.0355ZM93.8087 32.6869L93.6329 32.4438L93.8087 32.6869ZM95.3167 13.7124L95.2681 13.4164C95.0453 13.453 94.9235 13.416 94.8547 13.3665C94.7859 13.3171 94.7119 13.2135 94.6754 12.9908L94.3793 13.0393L94.0833 13.0879C94.1348 13.4019 94.2611 13.6789 94.5047 13.8539C94.7484 14.0289 95.0512 14.06 95.3652 14.0085L95.3167 13.7124ZM94.3793 13.0393L94.6754 12.9908C94.6717 12.9686 94.6713 12.8984 94.7013 12.7562C94.7298 12.6216 94.78 12.4471 94.8547 12.2299L94.571 12.1323L94.2873 12.0347C94.2083 12.2644 94.1497 12.4644 94.1143 12.6321C94.0805 12.7922 94.061 12.9521 94.0833 13.0879L94.3793 13.0393ZM94.571 12.1323L94.8575 12.2213C95.0026 11.7538 95.1789 11.2804 95.3866 10.8009L95.1113 10.6817L94.836 10.5625C94.6203 11.0605 94.4364 11.5541 94.2845 12.0434L94.571 12.1323ZM95.1113 10.6817L95.3866 10.8009C95.598 10.3127 95.7591 10.003 95.8704 9.84794L95.6268 9.67295L95.3831 9.49796C95.2305 9.71046 95.0479 10.0733 94.836 10.5625L95.1113 10.6817ZM95.6268 9.67295L95.8798 9.83415C96.319 9.14473 96.6438 8.73889 96.858 8.5693L96.6718 8.3341L96.4856 8.0989C96.1832 8.33834 95.8113 8.82507 95.3738 9.51175L95.6268 9.67295ZM96.6718 8.3341L96.8476 8.57716C97.1139 8.38456 97.342 8.28494 97.5341 8.25342L97.4855 7.95738L97.437 7.66134C97.1238 7.71272 96.8095 7.86424 96.496 8.09103L96.6718 8.3341ZM97.4855 7.95738L97.5341 8.25342C97.827 8.20538 98.0023 8.24529 98.1059 8.31209C98.203 8.37473 98.2914 8.49644 98.3319 8.74273L98.6279 8.69416L98.9239 8.64559C98.8659 8.29189 98.7148 7.99082 98.4311 7.80787C98.1539 7.62908 97.8073 7.60059 97.437 7.66134L97.4855 7.95738ZM98.6279 8.69416L98.3319 8.74273C98.3491 8.8478 98.3057 9.05721 98.0812 9.40739L98.3337 9.56933L98.5862 9.73127C98.8265 9.35664 98.9792 8.9826 98.9239 8.64559L98.6279 8.69416ZM98.3337 9.56933L98.0802 9.40895C97.8871 9.71422 97.6451 10.0151 97.3524 10.3114L97.5658 10.5222L97.7792 10.7331C98.0984 10.4101 98.3683 10.0757 98.5872 9.72971L98.3337 9.56933ZM97.5658 10.5222L97.3678 10.2969C97.136 10.5007 96.9448 10.6849 96.7972 10.8487C96.6527 11.009 96.5362 11.1647 96.4696 11.3117L96.7428 11.4355L97.0161 11.5593C97.0448 11.4961 97.113 11.3945 97.2429 11.2504C97.3696 11.1098 97.5423 10.9424 97.7639 10.7475L97.5658 10.5222ZM96.7428 11.4355L96.4733 11.3038L95.6722 12.9431L95.9417 13.0748L96.2112 13.2066L97.0124 11.5672L96.7428 11.4355ZM95.9417 13.0748L95.6427 13.0502C95.6377 13.1109 95.6085 13.199 95.5233 13.3176L95.767 13.4926L96.0107 13.6676C96.1367 13.4922 96.224 13.3018 96.2407 13.0995L95.9417 13.0748ZM95.767 13.4926L95.5233 13.3176C95.513 13.3321 95.4591 13.3851 95.2681 13.4164L95.3167 13.7124L95.3652 14.0085C95.6163 13.9673 95.8627 13.8737 96.0107 13.6676L95.767 13.4926ZM90.4117 34.2171L90.3631 33.921C89.507 34.0615 88.9164 33.9838 88.5383 33.7573L88.3841 34.0147L88.23 34.272C88.7869 34.6056 89.5479 34.6628 90.4602 34.5131L90.4117 34.2171ZM88.3841 34.0147L88.5484 33.7636C88.205 33.539 87.9607 33.1384 87.8553 32.4962L87.5593 32.5448L87.2632 32.5934C87.3858 33.3407 87.6914 33.92 88.2199 34.2657L88.3841 34.0147ZM87.5593 32.5448L87.8553 32.4962C87.755 31.8848 87.805 30.9921 88.027 29.7988L87.7321 29.7439L87.4372 29.689C87.2111 30.904 87.146 31.8785 87.2632 32.5934L87.5593 32.5448ZM87.7321 29.7439L88.0275 29.7962C88.2442 28.5727 88.5579 27.2504 88.9694 25.8289L88.6813 25.7455L88.3931 25.662C87.9767 27.1003 87.6577 28.4436 87.4367 29.6916L87.7321 29.7439ZM88.6813 25.7455L88.9678 25.8344C89.4111 24.4066 89.8959 23.0372 90.4221 21.7259L90.1437 21.6142L89.8653 21.5025C89.3327 22.8295 88.8426 24.2142 88.3948 25.6565L88.6813 25.7455ZM90.1437 21.6142L90.4221 21.7259C90.9474 20.4172 91.474 19.3413 92.0008 18.4939L91.746 18.3355L91.4913 18.1771C90.9404 19.0631 90.3989 20.1729 89.8653 21.5025L90.1437 21.6142ZM91.746 18.3355L92.0004 18.4946C92.2767 18.053 92.526 17.7268 92.7474 17.5066C92.9734 17.2818 93.1432 17.1943 93.2582 17.1754L93.2096 16.8794L93.161 16.5833C92.8654 16.6318 92.5861 16.8207 92.3242 17.0812C92.0578 17.3464 91.7806 17.7146 91.4917 18.1764L91.746 18.3355ZM93.2096 16.8794L93.2582 17.1754C93.5048 17.1349 93.6435 17.1692 93.7198 17.2174C93.7884 17.2609 93.8581 17.3486 93.8905 17.5459L94.1865 17.4973L94.4826 17.4488C94.4321 17.1409 94.2975 16.873 94.0405 16.7104C93.7911 16.5526 93.4828 16.5305 93.161 16.5833L93.2096 16.8794ZM94.1865 17.4973L93.8905 17.5459C93.9055 17.6373 93.8912 17.8247 93.8078 18.1406C93.7273 18.4458 93.5919 18.837 93.3983 19.3173L93.6766 19.4294L93.9549 19.5415C94.1531 19.0496 94.2985 18.6327 94.388 18.2938C94.4746 17.9656 94.5194 17.6732 94.4826 17.4488L94.1865 17.4973ZM93.6766 19.4294L93.3983 19.3173C93.0083 20.2852 92.5761 21.2929 92.1015 22.3404L92.3748 22.4642L92.648 22.588C93.1257 21.5336 93.5614 20.5181 93.9549 19.5415L93.6766 19.4294ZM92.3748 22.4642L92.1068 22.3294C91.9116 22.7173 91.6422 23.2474 91.2987 23.9197L91.5658 24.0562L91.833 24.1927C92.1767 23.52 92.4467 22.9887 92.6427 22.599L92.3748 22.4642ZM91.5658 24.0562L91.2987 23.9197C90.9558 24.5907 90.6235 25.2275 90.302 25.8299L90.5667 25.9712L90.8314 26.1124C91.1547 25.5065 91.4886 24.8666 91.833 24.1927L91.5658 24.0562ZM90.5667 25.9712L90.3063 25.8222C89.9796 26.3932 89.7611 26.7965 89.6592 27.0216L89.9324 27.1454L90.2057 27.2692C90.2942 27.0739 90.4985 26.6944 90.8271 26.1202L90.5667 25.9712ZM89.9324 27.1454L89.6592 27.0216C89.4034 27.5861 89.194 28.4479 89.0219 29.5846L89.3185 29.6295L89.6151 29.6745C89.7854 28.5499 89.9853 27.7556 90.2057 27.2692L89.9324 27.1454ZM89.3185 29.6295L89.0232 29.5768C88.8192 30.7195 88.7563 31.6134 88.8582 32.2344L89.1542 32.1859L89.4503 32.1373C89.3656 31.6215 89.4123 30.8112 89.6138 29.6823L89.3185 29.6295ZM89.1542 32.1859L88.8582 32.2344C88.9043 32.5155 88.9989 32.7719 89.1819 32.9474L89.3896 32.731L89.5973 32.5145C89.5493 32.4684 89.487 32.3614 89.4503 32.1373L89.1542 32.1859ZM89.3896 32.731L89.2146 32.9746C89.3517 33.0731 89.5212 33.1123 89.6884 33.1238C89.8591 33.1355 90.0563 33.1201 90.2744 33.0844L90.2259 32.7883L90.1773 32.4923C89.9849 32.5238 89.8375 32.5326 89.7294 32.5252C89.6179 32.5175 89.5744 32.4944 89.5645 32.4873L89.3896 32.731ZM90.2259 32.7883L90.2744 33.0844C91.1261 32.9446 92.0129 32.5198 92.933 31.836L92.7541 31.5953L92.5751 31.3545C91.7032 32.0024 90.9046 32.3729 90.1773 32.4923L90.2259 32.7883ZM92.7541 31.5953L92.933 31.836C93.8442 31.1589 94.7477 30.3527 95.6438 29.4187L95.4273 29.211L95.2109 29.0033C94.3346 29.9166 93.456 30.6999 92.5751 31.3545L92.7541 31.5953ZM95.4273 29.211L95.6479 29.4144C96.5343 28.4533 97.355 27.4861 98.1101 26.5129L97.873 26.329L97.636 26.1451C96.892 27.1041 96.0824 28.0583 95.2068 29.0076L95.4273 29.211ZM97.873 26.329L98.1068 26.517C98.889 25.5443 99.548 24.7045 100.083 23.9979L99.8443 23.8167L99.6052 23.6356C99.0743 24.3361 98.4191 25.1712 97.6392 26.141L97.873 26.329ZM99.8443 23.8167L100.088 23.9917C100.131 23.9321 100.223 23.864 100.43 23.8301L100.382 23.534L100.333 23.238C100.035 23.2869 99.769 23.4073 99.6006 23.6417L99.8443 23.8167ZM100.382 23.534L100.43 23.8301C100.635 23.7964 100.741 23.8225 100.791 23.8502C100.826 23.8699 100.869 23.9103 100.889 24.0344L101.185 23.9858L101.481 23.9373C101.44 23.6825 101.318 23.4581 101.085 23.3272C100.866 23.2043 100.601 23.1939 100.333 23.238L100.382 23.534ZM101.185 23.9858L100.889 24.0344C100.926 24.2602 100.83 24.6066 100.473 25.1038L100.716 25.2788L100.96 25.4538C101.342 24.9218 101.558 24.4062 101.481 23.9373L101.185 23.9858ZM100.716 25.2788L100.473 25.1038C99.7622 26.0934 99.0998 26.9771 98.4857 27.7551L98.7212 27.941L98.9567 28.1268C99.5775 27.3403 100.245 26.4492 100.96 25.4538L100.716 25.2788ZM98.7212 27.941L98.4857 27.7551C97.8728 28.5316 97.2797 29.2229 96.7065 29.8294L96.9246 30.0355L97.1426 30.2415C97.7299 29.62 98.3346 28.9149 98.9567 28.1268L98.7212 27.941ZM96.9246 30.0355L96.7112 29.8246C95.8061 30.7406 94.7803 31.6138 93.6329 32.4438L93.8087 32.6869L93.9846 32.93C95.1562 32.0824 96.2076 31.188 97.138 30.2463L96.9246 30.0355ZM93.8087 32.6869L93.6329 32.4438C92.501 33.2627 91.4114 33.7491 90.3631 33.921L90.4117 34.2171L90.4602 34.5131C91.6224 34.3225 92.7975 33.7887 93.9846 32.93L93.8087 32.6869ZM100.333 26.4604L100.044 26.3821L100.043 26.3843L100.333 26.4604ZM105.106 11.6686L105.388 11.7689L105.558 11.2904L105.057 11.3726L105.106 11.6686ZM101.773 12.7018L101.898 12.9747L101.903 12.9721L101.773 12.7018ZM100.294 14.0633L100.593 14.0879L100.594 14.0725L100.594 14.0571L100.294 14.0633ZM100.119 14.4811L100.363 14.656L100.363 14.656L100.119 14.4811ZM100.395 11.712L100.553 11.9668L100.395 11.712ZM105.71 10.013L105.758 10.3091L105.925 10.2817L105.988 10.1248L105.71 10.013ZM108.092 4.07701L107.816 3.95902L107.814 3.96527L108.092 4.07701ZM108.616 2.82364L108.894 2.93749L108.897 2.92835L108.616 2.82364ZM109.235 1.26276L108.966 1.13021L108.962 1.13851L108.959 1.14704L109.235 1.26276ZM110.823 0.564463L110.623 0.787326L110.635 0.798449L110.648 0.808141L110.823 0.564463ZM109.62 5.09095L109.893 5.21707L109.893 5.21668L109.62 5.09095ZM107.51 9.71773L107.228 9.61302L107.048 10.0975L107.558 10.0138L107.51 9.71773ZM109.664 9.51012L109.683 9.80969L109.693 9.80874L109.664 9.51012ZM113.082 9.28994L113.094 9.58968L113.102 9.58934L113.111 9.58855L113.082 9.28994ZM111.839 10.9045L111.845 11.2047L111.859 11.2038L111.839 10.9045ZM109.668 11.0173L109.692 11.3164L109.668 11.0173ZM107.719 11.2886L107.653 10.9959L107.65 10.9964L107.719 11.2886ZM107.016 11.4525L106.948 11.1604L106.791 11.197L106.735 11.3484L107.016 11.4525ZM100.898 34.0531L100.603 34.1051L100.606 34.1218L100.61 34.1381L100.898 34.0531ZM101.008 34.4243L101.304 34.3757L101.301 34.3573L101.295 34.3394L101.008 34.4243ZM100.342 35.409L100.294 35.113C100.087 35.147 99.9482 35.0943 99.8332 34.9651C99.7001 34.8154 99.5795 34.5391 99.5053 34.0871L99.2093 34.1357L98.9132 34.1842C98.9945 34.6796 99.1405 35.0891 99.385 35.3639C99.6478 35.6592 99.9981 35.7695 100.391 35.7051L100.342 35.409ZM99.2093 34.1357L99.5053 34.0871C99.3989 33.4384 99.4302 32.488 99.6162 31.2183C99.8014 29.954 100.137 28.3941 100.624 26.5365L100.333 26.4604L100.043 26.3843C99.553 28.2541 99.2121 29.8372 99.0225 31.1313C98.8338 32.42 98.7917 33.4435 98.9132 34.1842L99.2093 34.1357ZM100.333 26.4604L100.623 26.5387C101.629 22.8168 103.217 17.8944 105.388 11.7689L105.106 11.6686L104.823 11.5684C102.649 17.7001 101.056 22.6388 100.044 26.3821L100.333 26.4604ZM105.106 11.6686L105.057 11.3726C103.831 11.5738 102.692 11.9263 101.643 12.4315L101.773 12.7018L101.903 12.9721C102.897 12.4935 103.981 12.1573 105.154 11.9647L105.106 11.6686ZM101.773 12.7018L101.648 12.429C101.138 12.6625 100.733 12.9053 100.453 13.1628C100.174 13.4196 99.9868 13.7227 99.9939 14.0695L100.294 14.0633L100.594 14.0571C100.592 13.9514 100.646 13.8013 100.86 13.6043C101.073 13.408 101.413 13.1963 101.898 12.9747L101.773 12.7018ZM100.294 14.0633L99.9949 14.0386C99.9899 14.0993 99.9607 14.1874 99.8755 14.3061L100.119 14.4811L100.363 14.656C100.489 14.4806 100.576 14.2902 100.593 14.0879L100.294 14.0633ZM100.119 14.4811L99.8755 14.3061C99.8652 14.3205 99.8113 14.3735 99.6203 14.4048L99.6689 14.7009L99.7174 14.9969C99.9685 14.9557 100.215 14.8621 100.363 14.656L100.119 14.4811ZM99.6689 14.7009L99.6203 14.4048C99.4133 14.4388 99.304 14.4038 99.2444 14.361C99.1847 14.3182 99.1167 14.2258 99.0827 14.0188L98.7867 14.0673L98.4906 14.1159C98.5395 14.4142 98.6599 14.68 98.8944 14.8483C99.1288 15.0167 99.4192 15.0458 99.7174 14.9969L99.6689 14.7009ZM98.7867 14.0673L99.0827 14.0188C98.9793 13.3885 99.3699 12.7013 100.553 11.9668L100.395 11.712L100.236 11.4571C99.0059 12.221 98.3246 13.1042 98.4906 14.1159L98.7867 14.0673ZM100.395 11.712L100.553 11.9668C101.711 11.2477 103.438 10.6898 105.758 10.3091L105.71 10.013L105.661 9.71699C103.308 10.1031 101.491 10.6777 100.236 11.4571L100.395 11.712ZM105.71 10.013L105.988 10.1248L108.37 4.18875L108.092 4.07701L107.814 3.96527L105.431 9.90129L105.71 10.013ZM108.092 4.07701L108.368 4.19497C108.533 3.80976 108.708 3.39056 108.894 2.93743L108.616 2.82364L108.338 2.70985C108.154 3.16064 107.98 3.57702 107.816 3.95905L108.092 4.07701ZM108.616 2.82364L108.897 2.92835C109.076 2.44907 109.281 1.93248 109.512 1.37847L109.235 1.26276L108.959 1.14704C108.725 1.70714 108.517 2.23114 108.335 2.71893L108.616 2.82364ZM109.235 1.26276L109.505 1.3953C109.72 0.957481 109.979 0.763748 110.265 0.716926L110.216 0.420884L110.168 0.124842C109.632 0.21272 109.237 0.580235 108.966 1.13021L109.235 1.26276ZM110.216 0.420884L110.265 0.716926C110.452 0.6862 110.555 0.726102 110.623 0.787326L110.823 0.564463L111.024 0.3416C110.788 0.128492 110.485 0.0726757 110.168 0.124842L110.216 0.420884ZM110.823 0.564463L110.648 0.808141C110.74 0.873964 110.775 0.939444 110.787 1.00825L111.083 0.959679L111.379 0.91111C111.338 0.664137 111.201 0.466139 110.998 0.320786L110.823 0.564463ZM111.083 0.959679L110.787 1.00825C110.796 1.06783 110.792 1.19625 110.742 1.41947C110.695 1.63431 110.612 1.90945 110.493 2.24764C110.253 2.92349 109.873 3.82832 109.348 4.96522L109.62 5.09095L109.893 5.21668C110.421 4.07308 110.81 3.1491 111.058 2.44786C111.182 2.0975 111.273 1.79703 111.328 1.54917C111.381 1.30971 111.408 1.08836 111.379 0.91111L111.083 0.959679ZM109.62 5.09095L109.348 4.96483C108.036 7.79764 107.324 9.35691 107.228 9.61302L107.51 9.71773L107.791 9.82243C107.875 9.595 108.571 8.06976 109.893 5.21707L109.62 5.09095ZM107.51 9.71773L107.558 10.0138C108.016 9.93857 108.722 9.87008 109.683 9.80953L109.664 9.51012L109.645 9.21072C108.68 9.27154 107.95 9.34145 107.461 9.42168L107.51 9.71773ZM109.664 9.51012L109.693 9.80874C110.644 9.71715 111.777 9.64406 113.094 9.58968L113.082 9.28994L113.069 8.99019C111.745 9.04486 110.6 9.11856 109.636 9.21151L109.664 9.51012ZM113.082 9.28994L113.111 9.58855C113.308 9.56957 113.414 9.60564 113.473 9.6475C113.527 9.68666 113.585 9.76387 113.613 9.93244L113.909 9.88387L114.205 9.8353C114.16 9.56178 114.044 9.31895 113.823 9.16014C113.605 9.00402 113.335 8.96416 113.053 8.99132L113.082 9.28994ZM113.909 9.88387L113.613 9.93244C113.645 10.1298 113.607 10.2352 113.556 10.2982C113.499 10.3683 113.379 10.4451 113.132 10.4856L113.181 10.7816L113.229 11.0777C113.551 11.0249 113.836 10.9054 114.022 10.6762C114.214 10.44 114.255 10.1432 114.205 9.8353L113.909 9.88387ZM113.181 10.7816L113.132 10.4856C112.927 10.5191 112.494 10.5594 111.818 10.6052L111.839 10.9045L111.859 11.2038C112.53 11.1583 112.992 11.1166 113.229 11.0777L113.181 10.7816ZM111.839 10.9045L111.833 10.6045C111.147 10.6187 110.418 10.6567 109.645 10.7183L109.668 11.0173L109.692 11.3164C110.455 11.2556 111.173 11.2183 111.845 11.2044L111.839 10.9045ZM109.668 11.0173L109.645 10.7183C108.868 10.7802 108.203 10.8722 107.653 10.9959L107.719 11.2886L107.784 11.5813C108.298 11.4657 108.933 11.3769 109.692 11.3164L109.668 11.0173ZM107.719 11.2886L107.65 10.9964L106.948 11.1604L107.016 11.4525L107.084 11.7447L107.787 11.5808L107.719 11.2886ZM107.016 11.4525L106.735 11.3484C104.453 17.5145 102.799 22.4887 101.776 26.268C101.265 28.1576 100.91 29.7534 100.713 31.0532C100.517 32.3471 100.474 33.3708 100.603 34.1051L100.898 34.0531L101.194 34.0012C101.082 33.3644 101.113 32.4182 101.306 31.1431C101.498 29.874 101.847 28.3021 102.355 26.4248C103.372 22.6706 105.018 17.7156 107.297 11.5566L107.016 11.4525ZM100.898 34.0531L100.61 34.1381L100.72 34.5092L101.008 34.4243L101.295 34.3394L101.186 33.9682L100.898 34.0531ZM101.008 34.4243L100.712 34.4729L100.727 34.5676L101.023 34.519L101.319 34.4705L101.304 34.3757L101.008 34.4243ZM101.023 34.519L100.727 34.5676C100.76 34.7699 100.724 34.8771 100.677 34.9382C100.627 35.003 100.521 35.0757 100.294 35.113L100.342 35.409L100.391 35.7051C100.701 35.6543 100.976 35.5346 101.153 35.3028C101.334 35.0672 101.369 34.7735 101.319 34.4705L101.023 34.519Z" fill="#F33E5C" mask="url(#path-2-outside-1_632_6284)"/>
</g>
</svg>
