<svg width="83" height="24" viewBox="0 0 83 24" fill="none" xmlns="http://www.w3.org/2000/svg">
<path d="M21.2671 23.256C20.4351 23.256 19.8698 23.0427 19.5711 22.616C19.2725 22.168 19.1231 21.6133 19.1231 20.952C19.1231 20.3547 19.2085 19.6827 19.3791 18.936C19.5711 18.0187 19.9125 16.9307 20.4031 15.672C20.9151 14.4133 21.4805 13.1013 22.0991 11.736C22.7391 10.3493 23.3685 9.02667 23.9871 7.768C24.6271 6.50933 25.1818 5.432 25.6511 4.536C25.3738 4.792 25.0858 5.05867 24.7871 5.336C24.5098 5.61333 24.2218 5.92267 23.9231 6.264C22.6858 7.65067 21.5551 8.97333 20.5311 10.232C19.5285 11.4693 18.5578 12.696 17.6191 13.912C16.7018 15.1067 15.7525 16.3333 14.7711 17.592C14.2378 18.296 13.8111 18.8293 13.4911 19.192C13.1925 19.5333 12.9151 19.768 12.6591 19.896C12.4245 20.0027 12.1258 20.056 11.7631 20.056C11.2298 20.056 10.6218 19.896 9.93912 19.576C10.2378 19.2133 10.4405 18.4347 10.5471 17.24C10.6751 16.0453 10.7391 14.68 10.7391 13.144C10.7391 11.5867 10.6858 9.976 10.5791 8.312C10.4725 6.648 10.3125 5.176 10.0991 3.896C9.97112 4.10933 9.73646 4.57867 9.39512 5.304C9.07512 6.02933 8.68046 6.92533 8.21112 7.992C7.76312 9.03733 7.28312 10.1787 6.77112 11.416C6.25912 12.632 5.75779 13.8587 5.26712 15.096C4.79779 16.312 4.37112 17.464 3.98712 18.552C3.62446 19.64 3.34712 20.5787 3.15512 21.368C2.96312 22.1573 2.89912 22.7013 2.96312 23H0.0191236C0.488457 21.8053 1.02179 20.4827 1.61912 19.032C2.23779 17.56 2.87779 16.056 3.53912 14.52C4.20046 12.984 4.85112 11.4907 5.49112 10.04C6.15246 8.58933 6.74979 7.26667 7.28312 6.072C7.83779 4.856 8.29646 3.85333 8.65912 3.064C9.02179 2.27467 9.25646 1.784 9.36312 1.592C8.42446 1.57067 7.46446 1.66667 6.48312 1.88C5.50179 2.072 4.58446 2.34933 3.73112 2.712C2.87779 3.07467 2.15246 3.49067 1.55512 3.96C0.979124 4.42933 0.60579 4.92 0.435124 5.432C0.41379 5.496 0.371124 5.528 0.307124 5.528C0.136457 5.528 0.0511235 5.38933 0.0511235 5.112C0.0511235 5.06933 0.0511235 5.02667 0.0511235 4.984C0.0724569 4.92 0.0937902 4.856 0.115124 4.792C0.307124 4.23733 0.54179 3.74667 0.819124 3.32C1.11779 2.89333 1.40579 2.53067 1.68312 2.232C2.38712 1.50667 3.17646 1.06933 4.05112 0.919998C4.92579 0.749332 5.85379 0.664 6.83512 0.664H9.93912C10.4085 0.664 10.8671 0.664 11.3151 0.664C11.7631 0.664 12.1578 0.781333 12.4991 1.016C12.8405 1.22933 13.0645 1.656 13.1711 2.296C13.2565 2.744 13.3311 3.42667 13.3951 4.344C13.4805 5.24 13.5445 6.24267 13.5871 7.352C13.6511 8.46133 13.7045 9.56 13.7471 10.648C13.7898 11.736 13.8218 12.6747 13.8431 13.464C13.8431 13.5067 13.8431 13.6347 13.8431 13.848C13.8645 14.04 13.8751 14.2853 13.8751 14.584C13.8751 14.8613 13.8645 15.1813 13.8431 15.544C13.8431 15.8853 13.8218 16.216 13.7791 16.536C14.2271 15.9813 14.7818 15.2987 15.4431 14.488C16.1258 13.656 16.8618 12.76 17.6511 11.8C18.4405 10.8187 19.2405 9.83733 20.0511 8.856C20.8618 7.87467 21.6405 6.936 22.3871 6.04C23.1338 5.144 23.7845 4.36533 24.3391 3.704C24.9151 3.02133 25.3418 2.50933 25.6191 2.168C26.1098 1.61333 26.7285 1.22933 27.4751 1.016C28.2218 0.781333 28.9685 0.664 29.7151 0.664H31.6991C31.2511 1.00533 30.7605 1.58133 30.2271 2.392C29.6938 3.20267 29.1711 4.07733 28.6591 5.016C28.1685 5.95467 27.7311 6.808 27.3471 7.576C26.7925 8.728 26.2271 9.976 25.6511 11.32C25.0751 12.664 24.5631 13.9973 24.1151 15.32C23.6671 16.6427 23.3365 17.8693 23.1231 19C23.0591 19.3413 23.0271 19.704 23.0271 20.088C23.0271 20.5573 23.1018 20.9733 23.2511 21.336C23.4218 21.6773 23.7205 21.848 24.1471 21.848C24.4885 21.848 24.9045 21.7093 25.3951 21.432H25.4271C25.4698 21.432 25.5018 21.4747 25.5231 21.56C25.5445 21.624 25.5338 21.6773 25.4911 21.72C25.0858 22.1467 24.4671 22.5093 23.6351 22.808C22.8031 23.1067 22.0138 23.256 21.2671 23.256ZM31.7016 23.256C30.7203 23.256 29.867 22.9467 29.1416 22.328C28.4376 21.7093 28.0856 20.7173 28.0856 19.352C28.0856 18.3493 28.267 17.304 28.6296 16.216C28.9923 15.128 29.5043 14.1147 30.1656 13.176C30.8483 12.2373 31.6696 11.4693 32.6296 10.872C33.5896 10.2747 34.667 9.976 35.8616 9.976C36.843 9.976 37.6003 10.168 38.1336 10.552C38.6883 10.9147 39.083 11.4053 39.3176 12.024C39.5523 12.6427 39.6696 13.304 39.6696 14.008C39.6696 14.5413 39.6056 15.0853 39.4776 15.64C39.371 16.1733 39.211 16.7067 38.9976 17.24C39.3603 17.6667 39.819 17.88 40.3736 17.88C40.971 17.88 41.5256 17.656 42.0376 17.208C42.3363 16.952 42.603 16.632 42.8376 16.248C43.0936 15.8427 43.3176 15.4693 43.5096 15.128C43.5736 15 43.6483 14.936 43.7336 14.936C43.8403 14.936 43.8936 15.0853 43.8936 15.384C43.8936 15.576 43.8616 15.8 43.7976 16.056C43.755 16.312 43.6483 16.568 43.4776 16.824C43.1576 17.3787 42.827 17.8053 42.4856 18.104C42.1443 18.3813 41.7603 18.6053 41.3336 18.776C41.0136 18.904 40.6723 18.968 40.3096 18.968C39.6483 18.968 39.051 18.7653 38.5176 18.36C38.347 18.7227 38.1336 19.096 37.8776 19.48C37.259 20.5253 36.459 21.4213 35.4776 22.168C34.4963 22.8933 33.2376 23.256 31.7016 23.256ZM32.9176 22.04C33.4083 22.04 33.8776 21.88 34.3256 21.56C34.795 21.2187 35.2216 20.8027 35.6056 20.312C35.9896 19.8213 36.3203 19.3093 36.5976 18.776C36.8963 18.2427 37.1416 17.7733 37.3336 17.368C36.6083 16.7493 36.2456 15.9707 36.2456 15.032C36.2456 14.4133 36.4163 13.9333 36.7576 13.592C37.099 13.2507 37.5683 13.1013 38.1656 13.144C38.1443 12.6533 38.0163 12.248 37.7816 11.928C37.547 11.608 37.163 11.448 36.6296 11.448C36.139 11.448 35.6696 11.5973 35.2216 11.896C34.795 12.1947 34.3896 12.5787 34.0056 13.048C33.643 13.496 33.3123 13.9653 33.0136 14.456C32.7363 14.9253 32.5016 15.352 32.3096 15.736C32.0323 16.2907 31.7763 16.9627 31.5416 17.752C31.307 18.5413 31.1896 19.2773 31.1896 19.96C31.1896 20.5573 31.307 21.0587 31.5416 21.464C31.7976 21.848 32.2563 22.04 32.9176 22.04ZM59.8686 23.192C59.1433 23.192 58.642 22.9787 58.3646 22.552C58.1086 22.104 57.9806 21.592 57.9806 21.016C57.9806 20.3973 58.0766 19.6827 58.2686 18.872C58.482 18.04 58.738 17.1867 59.0366 16.312C59.3566 15.416 59.6766 14.584 59.9966 13.816C60.1033 13.56 60.1993 13.2827 60.2846 12.984C60.3913 12.6853 60.4446 12.4187 60.4446 12.184C60.4446 11.7573 60.2526 11.544 59.8686 11.544C59.7193 11.544 59.5486 11.576 59.3566 11.64C59.1646 11.6827 58.9406 11.7787 58.6846 11.928C58.2366 12.1413 57.81 12.44 57.4046 12.824C56.9993 13.1867 56.7113 13.464 56.5406 13.656C55.73 14.7013 55.1113 15.832 54.6846 17.048C54.2793 18.264 53.8526 19.5013 53.4046 20.76C53.2766 21.1227 53.1486 21.496 53.0206 21.88C52.8926 22.264 52.7753 22.6373 52.6686 23H49.5326C49.8953 21.976 50.258 20.9627 50.6206 19.96C51.0046 18.936 51.3886 17.9227 51.7726 16.92C52.0073 16.344 52.2206 15.7893 52.4126 15.256C52.6046 14.7013 52.7753 14.1893 52.9246 13.72C53.01 13.4853 53.0846 13.24 53.1486 12.984C53.2126 12.728 53.2446 12.4933 53.2446 12.28C53.2446 11.7893 53.0313 11.544 52.6046 11.544C52.4553 11.544 52.274 11.576 52.0606 11.64C51.8686 11.6827 51.634 11.7787 51.3566 11.928C50.9086 12.1413 50.482 12.44 50.0766 12.824C49.6713 13.1867 49.394 13.464 49.2446 13.656C48.9673 13.9973 48.7006 14.3813 48.4446 14.808C48.1886 15.2133 47.9646 15.6293 47.7726 16.056C47.346 16.9733 47.0046 17.848 46.7486 18.68C46.514 19.4907 46.29 20.184 46.0766 20.76C45.9486 21.1227 45.8206 21.496 45.6926 21.88C45.5646 22.264 45.4473 22.6373 45.3406 23H42.2366C42.2366 23 42.3113 22.7333 42.4606 22.2C42.61 21.6667 42.7913 21.1333 43.0046 20.6L45.0846 15.288C45.1486 15.1173 45.2446 14.84 45.3726 14.456C45.522 14.0507 45.6713 13.6133 45.8206 13.144C45.97 12.6533 46.098 12.184 46.2046 11.736C46.3113 11.2667 46.3646 10.8827 46.3646 10.584C46.3646 10.392 46.3433 10.264 46.3006 10.2C46.4926 10.2 46.706 10.2 46.9406 10.2C47.1966 10.1787 47.4313 10.168 47.6446 10.168C47.9433 10.168 48.2206 10.1787 48.4766 10.2C48.754 10.2213 48.9353 10.2747 49.0206 10.36C49.2553 10.5307 49.3726 10.7867 49.3726 11.128C49.3726 11.4053 49.3193 11.6827 49.2126 11.96C49.106 12.216 49.0313 12.4293 48.9886 12.6C49.2873 12.3227 49.618 12.056 49.9806 11.8C50.3433 11.544 50.866 11.2133 51.5486 10.808C51.9753 10.5733 52.4766 10.3813 53.0526 10.232C53.6286 10.0827 54.1513 10.008 54.6206 10.008C55.7513 10.008 56.3166 10.4773 56.3166 11.416C56.3166 11.8 56.1993 12.312 55.9646 12.952C56.4126 12.504 56.8713 12.12 57.3406 11.8C57.8313 11.4587 58.3433 11.128 58.8766 10.808C59.3033 10.5733 59.8046 10.3813 60.3806 10.232C60.9566 10.0827 61.4793 10.008 61.9486 10.008C63.0793 10.008 63.6446 10.488 63.6446 11.448C63.6446 11.6613 63.602 11.9067 63.5166 12.184C63.4526 12.4613 63.3566 12.7707 63.2286 13.112C63.1006 13.4533 62.9193 13.9227 62.6846 14.52C62.45 15.096 62.2046 15.7147 61.9486 16.376C61.714 17.016 61.5113 17.6347 61.3406 18.232C61.1913 18.808 61.1166 19.288 61.1166 19.672C61.1166 19.9067 61.1486 20.12 61.2126 20.312C61.298 20.4827 61.4473 20.568 61.6606 20.568C61.81 20.568 62.0233 20.4933 62.3006 20.344C62.6846 20.1093 63.0686 19.8 63.4526 19.416C63.8366 19.032 64.0926 18.7547 64.2206 18.584C64.6473 18.0293 65.0526 17.4427 65.4366 16.824C65.8206 16.184 66.1513 15.5973 66.4286 15.064C66.5353 14.8933 66.61 14.808 66.6526 14.808C66.7806 14.808 66.8446 14.9893 66.8446 15.352C66.8446 15.5227 66.8126 15.7253 66.7486 15.96C66.706 16.1733 66.6313 16.376 66.5246 16.568C66.226 17.08 65.874 17.6453 65.4686 18.264C65.0633 18.8827 64.6473 19.48 64.2206 20.056C63.922 20.4613 63.5273 20.9093 63.0366 21.4C62.546 21.8907 62.0233 22.3173 61.4686 22.68C60.914 23.0213 60.3806 23.192 59.8686 23.192ZM70.5579 23.256C69.5765 23.256 68.7232 22.9467 67.9979 22.328C67.2939 21.7093 66.9419 20.7173 66.9419 19.352C66.9419 18.3493 67.1232 17.304 67.4859 16.216C67.8485 15.128 68.3605 14.1147 69.0219 13.176C69.7045 12.2373 70.5259 11.4693 71.4859 10.872C72.4459 10.2747 73.5232 9.976 74.7179 9.976C75.6992 9.976 76.4565 10.168 76.9899 10.552C77.5445 10.9147 77.9392 11.4053 78.1739 12.024C78.4085 12.6427 78.5259 13.304 78.5259 14.008C78.5259 14.5413 78.4619 15.0853 78.3339 15.64C78.2272 16.1733 78.0672 16.7067 77.8539 17.24C78.2165 17.6667 78.6752 17.88 79.2299 17.88C79.8272 17.88 80.3819 17.656 80.8939 17.208C81.1925 16.952 81.4592 16.632 81.6939 16.248C81.9499 15.8427 82.1739 15.4693 82.3659 15.128C82.4299 15 82.5045 14.936 82.5899 14.936C82.6965 14.936 82.7499 15.0853 82.7499 15.384C82.7499 15.576 82.7179 15.8 82.6539 16.056C82.6112 16.312 82.5045 16.568 82.3339 16.824C82.0139 17.3787 81.6832 17.8053 81.3419 18.104C81.0005 18.3813 80.6165 18.6053 80.1899 18.776C79.8699 18.904 79.5285 18.968 79.1659 18.968C78.5045 18.968 77.9072 18.7653 77.3739 18.36C77.2032 18.7227 76.9899 19.096 76.7339 19.48C76.1152 20.5253 75.3152 21.4213 74.3339 22.168C73.3525 22.8933 72.0939 23.256 70.5579 23.256ZM71.7739 22.04C72.2645 22.04 72.7339 21.88 73.1819 21.56C73.6512 21.2187 74.0779 20.8027 74.4619 20.312C74.8459 19.8213 75.1765 19.3093 75.4539 18.776C75.7525 18.2427 75.9979 17.7733 76.1899 17.368C75.4645 16.7493 75.1019 15.9707 75.1019 15.032C75.1019 14.4133 75.2725 13.9333 75.6139 13.592C75.9552 13.2507 76.4245 13.1013 77.0219 13.144C77.0005 12.6533 76.8725 12.248 76.6379 11.928C76.4032 11.608 76.0192 11.448 75.4859 11.448C74.9952 11.448 74.5259 11.5973 74.0779 11.896C73.6512 12.1947 73.2459 12.5787 72.8619 13.048C72.4992 13.496 72.1685 13.9653 71.8699 14.456C71.5925 14.9253 71.3579 15.352 71.1659 15.736C70.8885 16.2907 70.6325 16.9627 70.3979 17.752C70.1632 18.5413 70.0459 19.2773 70.0459 19.96C70.0459 20.5573 70.1632 21.0587 70.3979 21.464C70.6539 21.848 71.1125 22.04 71.7739 22.04Z" fill="#EF6E84"/>
</svg>
