<svg width="123" height="51" viewBox="0 0 123 51" fill="none" xmlns="http://www.w3.org/2000/svg">
<g opacity="0.5">
<mask id="mask0_748_5245" style="mask-type:alpha" maskUnits="userSpaceOnUse" x="0" y="0" width="123" height="51">
<rect x="0.5" y="0.5" width="122" height="50" fill="#D9D9D9" stroke="#F33E5C"/>
</mask>
<g mask="url(#mask0_748_5245)">
<mask id="path-2-outside-1_748_5245" maskUnits="userSpaceOnUse" x="-5.71367" y="-5.31744" width="131.315" height="57.0731" fill="black">
<rect fill="white" x="-5.71367" y="-5.31744" width="131.315" height="57.0731"/>
<path d="M1.61196 50.1341C1.06198 50.2243 0.741877 49.9944 0.651645 49.4445C0.6279 49.2997 0.6452 49.1334 0.703544 48.9455C0.786086 48.7239 0.863879 48.4733 0.936923 48.1938C1.22865 47.2542 1.50827 46.3314 1.7758 45.4254C2.04332 44.5195 2.32555 43.522 2.62247 42.4329C2.9436 41.3101 3.29649 40.0186 3.68116 38.5584C4.09477 37.0934 4.57906 35.3345 5.13401 33.2815C5.7715 31.007 6.37225 28.9614 6.93625 27.1448C7.50025 25.3282 8.04932 23.6924 8.58347 22.2374C7.97989 22.5445 7.39316 22.8637 6.82328 23.195C6.2776 23.4926 5.85743 23.7399 5.56276 23.9368C5.2439 24.1675 5.03133 24.3213 4.92504 24.3982C4.84295 24.4414 4.74401 24.4725 4.62823 24.4915C4.22298 24.5579 3.98473 24.3741 3.9135 23.9399C3.87551 23.7083 3.99672 23.4506 4.27714 23.1668C5.13738 22.4312 6.8252 21.4854 9.34059 20.3296C9.57352 19.7563 9.80147 19.2433 10.0245 18.7906C10.1407 18.5932 10.2954 18.4489 10.4885 18.3578C10.7106 18.2619 10.894 18.2021 11.0387 18.1783C11.2992 18.1356 11.4485 18.23 11.4865 18.4616C11.5245 18.6931 11.473 19.0137 11.3321 19.4232C14.8079 17.9612 17.6892 17.0426 19.976 16.6674C25.36 15.7841 28.3132 16.9345 28.8356 20.1186C29.1063 21.7685 28.8951 23.2895 28.202 24.6814C27.5089 26.0733 26.4712 27.3582 25.089 28.5362C23.7358 29.7095 22.1899 30.7954 20.4513 31.7941C16.2016 34.1559 12.4123 35.6099 9.08349 36.156C8.6493 36.2273 8.38709 35.9879 8.29685 35.4379C8.23986 35.0906 8.44294 34.8789 8.90608 34.8029C12.177 34.2663 15.8263 32.865 19.8539 30.599C21.4573 29.682 22.8535 28.6801 24.0425 27.5932C25.2268 26.4774 26.1219 25.3199 26.7277 24.1207C27.3288 22.8925 27.5344 21.6995 27.3444 20.5416C26.955 18.168 24.5893 17.3374 20.2474 18.0497C18.9448 18.2634 17.4923 18.6504 15.8898 19.2105C14.2826 19.7418 12.511 20.4486 10.575 21.331C9.95356 22.9787 9.31245 24.7782 8.65166 26.7296C8.01507 28.6473 7.3925 30.741 6.78395 33.0108L3.55668 44.8657C3.40584 45.3958 3.21848 46.0657 2.9946 46.8752C2.76597 47.6559 2.50342 48.5016 2.20695 49.4122C2.07081 49.8507 1.87248 50.0913 1.61196 50.1341ZM27.4954 45.7092C25.8165 45.9846 24.8465 45.3263 24.5853 43.7343C24.4143 42.6922 24.4775 41.5374 24.7749 40.2699C25.0965 38.9687 25.5989 37.6823 26.282 36.411C26.9605 35.1106 27.7592 33.9095 28.6782 32.8075C29.5925 31.6765 30.569 30.7435 31.6077 30.0083C32.6416 29.2441 33.6796 28.7766 34.7217 28.6056C36.5743 28.3017 37.6501 29.0615 37.9493 30.8851C38.144 32.0719 37.9519 32.7128 37.373 32.8078C36.852 32.8933 36.5511 32.69 36.4704 32.1979C36.4371 31.9953 36.4473 31.7855 36.5009 31.5687C36.5787 31.3181 36.5962 31.0625 36.5535 30.802C36.4205 29.9915 35.804 29.6765 34.7041 29.857C32.9383 30.1467 30.9448 31.856 28.7234 34.9849C28.1958 35.7551 27.7017 36.6388 27.241 37.6359C26.7803 38.6329 26.4234 39.6279 26.1701 40.6206C25.941 41.5797 25.893 42.4645 26.0259 43.275C26.1542 44.0565 26.6525 44.3761 27.5209 44.2336C28.2735 44.1101 29.0315 43.748 29.795 43.1471C30.5874 42.5415 31.2616 41.9404 31.8177 41.3438C32.9346 40.1796 34.0235 38.6633 35.0843 36.7949C35.249 36.5301 35.4596 36.1835 35.7163 35.7549C35.973 35.3264 36.2659 34.8473 36.5952 34.3177C36.7162 34.1492 36.878 34.0483 37.0806 34.0151C37.5437 33.9391 37.8133 34.1327 37.8893 34.5958L36.6454 37.3414C35.8114 39.1429 35.4799 40.5646 35.6508 41.6067C35.7743 42.3593 36.1979 42.6763 36.9215 42.5575C37.5294 42.4578 38.169 42.1894 38.8405 41.7522C39.5119 41.3151 40.053 40.8993 40.4639 40.5049C41.2905 39.7451 42.1367 38.8334 43.0026 37.7698C43.8638 36.6773 44.6815 35.592 45.4558 34.5137C45.5526 34.3789 45.7168 34.2925 45.9484 34.2545C46.3826 34.1833 46.6282 34.3214 46.6851 34.6687C46.7374 34.9871 46.5941 35.3822 46.2554 35.8539C45.2875 37.2018 44.4092 38.3714 43.6207 39.3628C42.8274 40.3253 42.0537 41.1359 41.2998 41.7946C40.802 42.2033 40.1764 42.6478 39.4229 43.1281C38.6694 43.6084 37.7716 43.9341 36.7295 44.105C35.3112 44.3377 34.4785 43.7015 34.2316 42.1963C34.1366 41.6173 34.1306 41.1279 34.2136 40.7278C31.9926 43.6783 29.7532 45.3388 27.4954 45.7092ZM51.8025 23.7076C51.3104 23.7884 51.024 23.5827 50.9433 23.0906C50.9195 22.9459 50.9781 22.6687 51.119 22.2592C51.2551 21.8207 51.4202 21.3774 51.6143 20.9294C51.8083 20.4815 51.9658 20.1732 52.0868 20.0047C52.4886 19.374 52.808 18.9649 53.0447 18.7775C53.3104 18.5852 53.5591 18.4701 53.7907 18.4321C54.3985 18.3324 54.7476 18.5575 54.8378 19.1075C54.8711 19.3101 54.7812 19.5776 54.5681 19.9098C54.3793 20.2083 54.1447 20.4994 53.8643 20.7832C53.4486 21.1487 53.1971 21.4278 53.1099 21.6204L52.3755 23.1231C52.3655 23.2437 52.3121 23.3713 52.2153 23.5061C52.1428 23.6072 52.0051 23.6744 51.8025 23.7076ZM47.3063 42.5035C46.4958 42.6365 45.8762 42.5747 45.4477 42.318C45.0481 42.0566 44.7961 41.6074 44.6916 40.9706C44.5919 40.3628 44.6447 39.5069 44.85 38.4031C45.0506 37.2704 45.3406 36.0486 45.7201 34.7379C46.1285 33.4224 46.5753 32.1601 47.0606 30.9509C47.546 29.7417 48.0355 28.7399 48.5294 27.9454C49.0475 27.1173 49.4947 26.6724 49.871 26.6106C50.3921 26.5251 50.6906 26.714 50.7666 27.1771C50.8141 27.4666 50.6582 28.0569 50.2991 28.9482C49.94 29.8394 49.5422 30.7667 49.1058 31.7301C48.9264 32.0865 48.6793 32.5729 48.3643 33.1894C48.0492 33.8058 47.7439 34.391 47.4484 34.9448C47.1481 35.4697 46.9543 35.8285 46.867 36.0211C46.6487 36.5028 46.4612 37.2619 46.3042 38.2983C46.1183 39.3394 46.0681 40.1205 46.1536 40.6416C46.1916 40.8732 46.2635 41.0397 46.3693 41.1412C46.5041 41.238 46.7597 41.2556 47.136 41.1938C47.8596 41.0751 48.6321 40.7106 49.4535 40.1002C50.2748 39.4898 51.0917 38.7613 51.904 37.9146C52.7115 37.039 53.4588 36.1584 54.1458 35.2728C54.8618 34.3825 55.4641 33.6148 55.9528 32.9699C56.0496 32.8351 56.2138 32.7487 56.4454 32.7107C56.8796 32.6395 57.1252 32.7775 57.1822 33.1249C57.2344 33.4433 57.0911 33.8384 56.7524 34.3101C56.099 35.2199 55.4894 36.0333 54.9233 36.7504C54.3573 37.4675 53.8083 38.1075 53.2764 38.6704C52.4352 39.5218 51.4831 40.332 50.4202 41.1009C49.3574 41.8698 48.3194 42.3373 47.3063 42.5035ZM54.5329 41.9421C54.0698 42.0181 53.8073 41.868 53.7456 41.4917C53.7218 41.3469 53.7512 41.1638 53.8338 40.9421C53.9116 40.6916 53.982 40.4868 54.0451 40.3278L56.6635 31.8278C57.782 28.1366 58.3104 26.1029 58.2486 25.7266C58.1821 25.3214 58.3515 25.0855 58.7568 25.019C59.3068 24.9288 59.6292 25.1731 59.7242 25.7521C59.7575 25.9547 59.6984 26.4103 59.5471 27.1188C59.3959 27.8273 59.1865 28.6345 58.9189 29.5404C58.4712 31.1596 58.0822 32.4124 57.752 33.2989C58.4542 32.1433 59.1804 31.0433 59.9305 29.9987C60.6806 28.9541 61.4523 27.9506 62.2456 26.9882C64.6013 24.1345 66.5173 22.5865 67.9936 22.3443C69.0067 22.1781 69.5916 22.5726 69.7484 23.5278C69.8908 24.3962 69.4733 26.4712 68.4956 29.7528C67.5228 33.0633 67.1028 35.1238 67.2358 35.9343C67.2975 36.3106 67.4587 36.4774 67.7192 36.4346C67.806 36.4204 67.9315 36.3701 68.0957 36.2837C68.2841 36.1636 68.4796 36.0869 68.6822 36.0537C69.1743 35.9729 69.4583 36.1641 69.5343 36.6273C69.6293 37.2062 69.0545 37.5978 67.8098 37.802C67.2308 37.897 66.7897 37.8356 66.4865 37.6178C66.1785 37.3711 65.9865 37.0162 65.9105 36.553C65.6825 35.1636 66.045 32.9341 66.998 29.8647C67.9557 26.8242 68.3871 25.0145 68.2921 24.4356C68.2351 24.0882 68.0764 23.9359 67.8159 23.9786C67.179 24.0831 66.2393 24.7872 64.9966 26.0909C63.6524 27.5005 62.3367 29.0837 61.0495 30.8406C59.7623 32.5975 58.5831 34.5597 57.5119 36.727L55.1635 41.4374C55.0326 41.7264 54.8224 41.8946 54.5329 41.9421ZM78.0571 38.1718C76.7256 38.3903 75.6315 38.1536 74.7749 37.4619C73.9424 36.7364 73.4146 35.6934 73.1914 34.3329C73.0299 33.3488 73.0089 32.1335 73.1283 30.6871C73.3515 28.2427 73.9327 25.3531 74.8719 22.0184C75.6161 19.4885 76.4543 16.9879 77.3865 14.5163C78.3139 12.0159 79.3787 9.53744 80.5808 7.08107C82.4908 3.1412 83.9379 1.09053 84.9221 0.929059C85.5589 0.82458 85.9058 0.946018 85.9628 1.29338C86.0435 1.78546 85.4349 3.14866 84.1368 5.38295L81.703 9.57227C79.5912 13.1885 77.969 16.7988 76.8363 20.4031C75.7325 24.0026 74.9905 27.5428 74.6103 31.0236C74.5065 32.0215 74.5235 32.9402 74.6612 33.7797C75.0222 35.9796 76.1 36.9323 77.8946 36.6379C78.5314 36.5334 79.1519 36.2384 79.7559 35.7529C80.3647 35.2963 80.698 35.0633 80.7559 35.0538C81.1033 34.9968 81.3173 35.2143 81.398 35.7064C81.4693 36.1406 81.3647 36.4996 81.0843 36.7834C80.1951 37.5238 79.186 37.9866 78.0571 38.1718ZM88.1603 36.113C86.9445 36.3124 85.9205 36.0494 85.088 35.324C84.2556 34.5985 83.7396 33.6279 83.5402 32.4121C83.1982 30.328 83.5415 28.072 84.57 25.6441C84.8466 24.9745 85.1834 24.3099 85.5805 23.6502C85.9729 22.9616 86.4134 22.2948 86.9021 21.6499C87.6328 20.6679 88.4306 19.8236 89.2956 19.1169C90.1606 18.4102 91.0418 17.9833 91.9391 17.8361C93.4154 17.5939 94.2675 18.1675 94.4954 19.5569C94.7804 21.2937 94.0261 23.0375 92.2326 24.7883C90.56 26.3706 88.8119 27.3114 86.9883 27.6105C86.6699 27.6628 86.378 27.6958 86.1128 27.7096C85.8717 27.6897 85.6451 27.6674 85.433 27.6428C85.2338 28.2402 85.0896 28.9922 85.0005 29.8986C84.9114 30.8049 84.9191 31.5765 85.0236 32.2134C85.337 34.1238 86.3332 34.9413 88.0121 34.6659C89.3725 34.4427 90.6227 33.9998 91.7624 33.3372C92.8974 32.6456 94.1951 31.4964 95.6556 29.8894C96.5647 28.9079 97.2394 28.1284 97.6797 27.5508C98.12 26.9733 98.5989 26.3596 99.1166 25.7099C99.2713 25.5656 99.421 25.4816 99.5657 25.4579C99.7104 25.4341 99.8623 25.4538 100.021 25.5169C100.18 25.58 100.274 25.6984 100.302 25.872C100.355 26.1905 100.139 26.6866 99.6549 27.3605C99.2388 27.9044 98.7985 28.482 98.334 29.0932C97.8648 29.6756 97.1104 30.5127 96.0708 31.6048C94.9586 32.7979 93.695 33.793 92.2801 34.5899C90.8651 35.3868 89.4918 35.8945 88.1603 36.113ZM86.4998 26.2639C87.4261 26.1119 88.2852 25.8223 89.0772 25.3951C89.8691 24.9679 90.5963 24.4176 91.2587 23.7442C92.7333 22.224 93.3805 20.914 93.2 19.814C93.1193 19.3219 92.7749 19.1258 92.1671 19.2255C91.0092 19.4154 89.7796 20.3455 88.4781 22.0155C87.8395 22.8337 87.3216 23.5726 86.9245 24.2323C86.5516 24.8583 86.2171 25.5374 85.9211 26.2696C86.1043 26.299 86.2972 26.2971 86.4998 26.2639ZM100.058 34.8298C98.4373 35.0957 97.5389 34.6932 97.3632 33.6222C97.254 32.9564 97.3763 32.2526 97.7302 31.5109C98.1131 30.7644 98.5923 30.0615 99.1678 29.4023C99.7433 28.7431 100.297 28.2213 100.828 27.8368C100.988 27.7215 101.205 27.5967 101.48 27.4624C101.784 27.3233 102.038 27.2371 102.24 27.2039C102.472 27.1659 102.602 27.2337 102.631 27.4074C102.654 27.5521 102.521 27.7375 102.231 27.9634C101.004 28.8186 100.088 29.7567 99.4826 30.7775C98.9014 31.7646 98.6559 32.5332 98.7462 33.0831C98.8317 33.6042 99.3231 33.7911 100.22 33.6439C100.973 33.5204 101.753 33.1993 102.559 32.6805C103.395 32.157 104.154 31.5272 104.835 30.7911C105.546 30.0502 106.105 29.2897 106.512 28.5095C106.919 27.7293 107.071 27.0208 106.966 26.384C106.895 25.9498 106.686 25.5828 106.339 25.2829C106.022 24.9783 105.545 24.789 104.909 24.715L101.901 24.3168C101.139 24.204 100.568 23.9855 100.188 23.6614C99.8077 23.3374 99.5796 22.9438 99.5036 22.4806C99.3612 21.6123 99.5513 20.7785 100.074 19.9793C100.626 19.1753 101.361 18.49 102.278 17.9233C103.196 17.3566 104.118 16.9972 105.044 16.8453C105.971 16.6933 106.819 16.7919 107.59 17.141C108.356 17.4613 108.8 17.9977 108.924 18.7503C108.995 19.1845 108.931 19.6111 108.733 20.0301C108.563 20.4444 108.319 20.6777 108 20.7299C107.508 20.8107 107.229 20.6484 107.162 20.2432C107.139 20.0984 107.183 19.9129 107.294 19.6865C107.43 19.4264 107.481 19.1951 107.448 18.9925C107.305 18.1241 106.568 17.7991 105.237 18.0176C104.513 18.1363 103.815 18.4142 103.144 18.8514C102.497 19.2548 101.982 19.7406 101.6 20.3086C101.217 20.8767 101.074 21.4502 101.168 22.0291C101.263 22.6081 101.918 22.9762 103.133 23.1336L106.055 23.5461C106.937 23.6689 107.575 23.9357 107.969 24.3467C108.359 24.7286 108.599 25.1946 108.689 25.7446C108.903 27.0471 108.328 28.5237 106.964 30.1744C104.763 32.8838 102.461 34.4356 100.058 34.8298ZM113.5 32.6245C111.879 32.8905 110.98 32.4879 110.805 31.4169C110.695 30.7511 110.818 30.0474 111.172 29.3056C111.554 28.5591 112.034 27.8563 112.609 27.1971C113.185 26.5379 113.738 26.016 114.27 25.6316C114.429 25.5163 114.646 25.3914 114.922 25.2571C115.226 25.118 115.479 25.0319 115.682 24.9986C115.913 24.9606 116.043 25.0285 116.072 25.2021C116.096 25.3469 115.963 25.5322 115.673 25.7581C114.446 26.6134 113.529 27.5514 112.924 28.5723C112.343 29.5594 112.097 30.3279 112.188 30.8779C112.273 31.3989 112.764 31.5858 113.662 31.4386C114.414 31.3151 115.194 30.994 116.001 30.4752C116.836 29.9517 117.595 29.3219 118.277 28.5858C118.988 27.845 119.546 27.0844 119.954 26.3043C120.361 25.5241 120.512 24.8155 120.407 24.1787C120.336 23.7445 120.127 23.3775 119.781 23.0776C119.463 22.773 118.986 22.5837 118.35 22.5098L115.342 22.1116C114.58 21.9987 114.009 21.7803 113.629 21.4562C113.249 21.1321 113.021 20.7385 112.945 20.2754C112.803 19.407 112.993 18.5732 113.516 17.774C114.067 16.9701 114.802 16.2847 115.72 15.718C116.637 15.1513 117.559 14.792 118.486 14.64C119.412 14.488 120.261 14.5866 121.031 14.9358C121.797 15.256 122.242 15.7924 122.365 16.545C122.437 16.9792 122.373 17.4058 122.174 17.8249C122.004 18.2392 121.76 18.4724 121.442 18.5247C120.95 18.6054 120.67 18.4432 120.604 18.0379C120.58 17.8932 120.624 17.7076 120.735 17.4813C120.871 17.2212 120.922 16.9899 120.889 16.7872C120.747 15.9188 120.01 15.5939 118.678 15.8123C117.954 15.9311 117.257 16.209 116.585 16.6461C115.938 17.0496 115.423 17.5353 115.041 18.1034C114.659 18.6715 114.515 19.245 114.61 19.8239C114.705 20.4028 115.36 20.771 116.575 20.9284L119.496 21.3409C120.378 21.4637 121.016 21.7305 121.411 22.1414C121.8 22.5234 122.04 22.9893 122.131 23.5393C122.344 24.8419 121.769 26.3185 120.405 27.9691C118.204 30.6785 115.902 32.2303 113.5 32.6245Z"/>
</mask>
<path d="M1.61196 50.1341C1.06198 50.2243 0.741877 49.9944 0.651645 49.4445C0.6279 49.2997 0.6452 49.1334 0.703544 48.9455C0.786086 48.7239 0.863879 48.4733 0.936923 48.1938C1.22865 47.2542 1.50827 46.3314 1.7758 45.4254C2.04332 44.5195 2.32555 43.522 2.62247 42.4329C2.9436 41.3101 3.29649 40.0186 3.68116 38.5584C4.09477 37.0934 4.57906 35.3345 5.13401 33.2815C5.7715 31.007 6.37225 28.9614 6.93625 27.1448C7.50025 25.3282 8.04932 23.6924 8.58347 22.2374C7.97989 22.5445 7.39316 22.8637 6.82328 23.195C6.2776 23.4926 5.85743 23.7399 5.56276 23.9368C5.2439 24.1675 5.03133 24.3213 4.92504 24.3982C4.84295 24.4414 4.74401 24.4725 4.62823 24.4915C4.22298 24.5579 3.98473 24.3741 3.9135 23.9399C3.87551 23.7083 3.99672 23.4506 4.27714 23.1668C5.13738 22.4312 6.8252 21.4854 9.34059 20.3296C9.57352 19.7563 9.80147 19.2433 10.0245 18.7906C10.1407 18.5932 10.2954 18.4489 10.4885 18.3578C10.7106 18.2619 10.894 18.2021 11.0387 18.1783C11.2992 18.1356 11.4485 18.23 11.4865 18.4616C11.5245 18.6931 11.473 19.0137 11.3321 19.4232C14.8079 17.9612 17.6892 17.0426 19.976 16.6674C25.36 15.7841 28.3132 16.9345 28.8356 20.1186C29.1063 21.7685 28.8951 23.2895 28.202 24.6814C27.5089 26.0733 26.4712 27.3582 25.089 28.5362C23.7358 29.7095 22.1899 30.7954 20.4513 31.7941C16.2016 34.1559 12.4123 35.6099 9.08349 36.156C8.6493 36.2273 8.38709 35.9879 8.29685 35.4379C8.23986 35.0906 8.44294 34.8789 8.90608 34.8029C12.177 34.2663 15.8263 32.865 19.8539 30.599C21.4573 29.682 22.8535 28.6801 24.0425 27.5932C25.2268 26.4774 26.1219 25.3199 26.7277 24.1207C27.3288 22.8925 27.5344 21.6995 27.3444 20.5416C26.955 18.168 24.5893 17.3374 20.2474 18.0497C18.9448 18.2634 17.4923 18.6504 15.8898 19.2105C14.2826 19.7418 12.511 20.4486 10.575 21.331C9.95356 22.9787 9.31245 24.7782 8.65166 26.7296C8.01507 28.6473 7.3925 30.741 6.78395 33.0108L3.55668 44.8657C3.40584 45.3958 3.21848 46.0657 2.9946 46.8752C2.76597 47.6559 2.50342 48.5016 2.20695 49.4122C2.07081 49.8507 1.87248 50.0913 1.61196 50.1341ZM27.4954 45.7092C25.8165 45.9846 24.8465 45.3263 24.5853 43.7343C24.4143 42.6922 24.4775 41.5374 24.7749 40.2699C25.0965 38.9687 25.5989 37.6823 26.282 36.411C26.9605 35.1106 27.7592 33.9095 28.6782 32.8075C29.5925 31.6765 30.569 30.7435 31.6077 30.0083C32.6416 29.2441 33.6796 28.7766 34.7217 28.6056C36.5743 28.3017 37.6501 29.0615 37.9493 30.8851C38.144 32.0719 37.9519 32.7128 37.373 32.8078C36.852 32.8933 36.5511 32.69 36.4704 32.1979C36.4371 31.9953 36.4473 31.7855 36.5009 31.5687C36.5787 31.3181 36.5962 31.0625 36.5535 30.802C36.4205 29.9915 35.804 29.6765 34.7041 29.857C32.9383 30.1467 30.9448 31.856 28.7234 34.9849C28.1958 35.7551 27.7017 36.6388 27.241 37.6359C26.7803 38.6329 26.4234 39.6279 26.1701 40.6206C25.941 41.5797 25.893 42.4645 26.0259 43.275C26.1542 44.0565 26.6525 44.3761 27.5209 44.2336C28.2735 44.1101 29.0315 43.748 29.795 43.1471C30.5874 42.5415 31.2616 41.9404 31.8177 41.3438C32.9346 40.1796 34.0235 38.6633 35.0843 36.7949C35.249 36.5301 35.4596 36.1835 35.7163 35.7549C35.973 35.3264 36.2659 34.8473 36.5952 34.3177C36.7162 34.1492 36.878 34.0483 37.0806 34.0151C37.5437 33.9391 37.8133 34.1327 37.8893 34.5958L36.6454 37.3414C35.8114 39.1429 35.4799 40.5646 35.6508 41.6067C35.7743 42.3593 36.1979 42.6763 36.9215 42.5575C37.5294 42.4578 38.169 42.1894 38.8405 41.7522C39.5119 41.3151 40.053 40.8993 40.4639 40.5049C41.2905 39.7451 42.1367 38.8334 43.0026 37.7698C43.8638 36.6773 44.6815 35.592 45.4558 34.5137C45.5526 34.3789 45.7168 34.2925 45.9484 34.2545C46.3826 34.1833 46.6282 34.3214 46.6851 34.6687C46.7374 34.9871 46.5941 35.3822 46.2554 35.8539C45.2875 37.2018 44.4092 38.3714 43.6207 39.3628C42.8274 40.3253 42.0537 41.1359 41.2998 41.7946C40.802 42.2033 40.1764 42.6478 39.4229 43.1281C38.6694 43.6084 37.7716 43.9341 36.7295 44.105C35.3112 44.3377 34.4785 43.7015 34.2316 42.1963C34.1366 41.6173 34.1306 41.1279 34.2136 40.7278C31.9926 43.6783 29.7532 45.3388 27.4954 45.7092ZM51.8025 23.7076C51.3104 23.7884 51.024 23.5827 50.9433 23.0906C50.9195 22.9459 50.9781 22.6687 51.119 22.2592C51.2551 21.8207 51.4202 21.3774 51.6143 20.9294C51.8083 20.4815 51.9658 20.1732 52.0868 20.0047C52.4886 19.374 52.808 18.9649 53.0447 18.7775C53.3104 18.5852 53.5591 18.4701 53.7907 18.4321C54.3985 18.3324 54.7476 18.5575 54.8378 19.1075C54.8711 19.3101 54.7812 19.5776 54.5681 19.9098C54.3793 20.2083 54.1447 20.4994 53.8643 20.7832C53.4486 21.1487 53.1971 21.4278 53.1099 21.6204L52.3755 23.1231C52.3655 23.2437 52.3121 23.3713 52.2153 23.5061C52.1428 23.6072 52.0051 23.6744 51.8025 23.7076ZM47.3063 42.5035C46.4958 42.6365 45.8762 42.5747 45.4477 42.318C45.0481 42.0566 44.7961 41.6074 44.6916 40.9706C44.5919 40.3628 44.6447 39.5069 44.85 38.4031C45.0506 37.2704 45.3406 36.0486 45.7201 34.7379C46.1285 33.4224 46.5753 32.1601 47.0606 30.9509C47.546 29.7417 48.0355 28.7399 48.5294 27.9454C49.0475 27.1173 49.4947 26.6724 49.871 26.6106C50.3921 26.5251 50.6906 26.714 50.7666 27.1771C50.8141 27.4666 50.6582 28.0569 50.2991 28.9482C49.94 29.8394 49.5422 30.7667 49.1058 31.7301C48.9264 32.0865 48.6793 32.5729 48.3643 33.1894C48.0492 33.8058 47.7439 34.391 47.4484 34.9448C47.1481 35.4697 46.9543 35.8285 46.867 36.0211C46.6487 36.5028 46.4612 37.2619 46.3042 38.2983C46.1183 39.3394 46.0681 40.1205 46.1536 40.6416C46.1916 40.8732 46.2635 41.0397 46.3693 41.1412C46.5041 41.238 46.7597 41.2556 47.136 41.1938C47.8596 41.0751 48.6321 40.7106 49.4535 40.1002C50.2748 39.4898 51.0917 38.7613 51.904 37.9146C52.7115 37.039 53.4588 36.1584 54.1458 35.2728C54.8618 34.3825 55.4641 33.6148 55.9528 32.9699C56.0496 32.8351 56.2138 32.7487 56.4454 32.7107C56.8796 32.6395 57.1252 32.7775 57.1822 33.1249C57.2344 33.4433 57.0911 33.8384 56.7524 34.3101C56.099 35.2199 55.4894 36.0333 54.9233 36.7504C54.3573 37.4675 53.8083 38.1075 53.2764 38.6704C52.4352 39.5218 51.4831 40.332 50.4202 41.1009C49.3574 41.8698 48.3194 42.3373 47.3063 42.5035ZM54.5329 41.9421C54.0698 42.0181 53.8073 41.868 53.7456 41.4917C53.7218 41.3469 53.7512 41.1638 53.8338 40.9421C53.9116 40.6916 53.982 40.4868 54.0451 40.3278L56.6635 31.8278C57.782 28.1366 58.3104 26.1029 58.2486 25.7266C58.1821 25.3214 58.3515 25.0855 58.7568 25.019C59.3068 24.9288 59.6292 25.1731 59.7242 25.7521C59.7575 25.9547 59.6984 26.4103 59.5471 27.1188C59.3959 27.8273 59.1865 28.6345 58.9189 29.5404C58.4712 31.1596 58.0822 32.4124 57.752 33.2989C58.4542 32.1433 59.1804 31.0433 59.9305 29.9987C60.6806 28.9541 61.4523 27.9506 62.2456 26.9882C64.6013 24.1345 66.5173 22.5865 67.9936 22.3443C69.0067 22.1781 69.5916 22.5726 69.7484 23.5278C69.8908 24.3962 69.4733 26.4712 68.4956 29.7528C67.5228 33.0633 67.1028 35.1238 67.2358 35.9343C67.2975 36.3106 67.4587 36.4774 67.7192 36.4346C67.806 36.4204 67.9315 36.3701 68.0957 36.2837C68.2841 36.1636 68.4796 36.0869 68.6822 36.0537C69.1743 35.9729 69.4583 36.1641 69.5343 36.6273C69.6293 37.2062 69.0545 37.5978 67.8098 37.802C67.2308 37.897 66.7897 37.8356 66.4865 37.6178C66.1785 37.3711 65.9865 37.0162 65.9105 36.553C65.6825 35.1636 66.045 32.9341 66.998 29.8647C67.9557 26.8242 68.3871 25.0145 68.2921 24.4356C68.2351 24.0882 68.0764 23.9359 67.8159 23.9786C67.179 24.0831 66.2393 24.7872 64.9966 26.0909C63.6524 27.5005 62.3367 29.0837 61.0495 30.8406C59.7623 32.5975 58.5831 34.5597 57.5119 36.727L55.1635 41.4374C55.0326 41.7264 54.8224 41.8946 54.5329 41.9421ZM78.0571 38.1718C76.7256 38.3903 75.6315 38.1536 74.7749 37.4619C73.9424 36.7364 73.4146 35.6934 73.1914 34.3329C73.0299 33.3488 73.0089 32.1335 73.1283 30.6871C73.3515 28.2427 73.9327 25.3531 74.8719 22.0184C75.6161 19.4885 76.4543 16.9879 77.3865 14.5163C78.3139 12.0159 79.3787 9.53744 80.5808 7.08107C82.4908 3.1412 83.9379 1.09053 84.9221 0.929059C85.5589 0.82458 85.9058 0.946018 85.9628 1.29338C86.0435 1.78546 85.4349 3.14866 84.1368 5.38295L81.703 9.57227C79.5912 13.1885 77.969 16.7988 76.8363 20.4031C75.7325 24.0026 74.9905 27.5428 74.6103 31.0236C74.5065 32.0215 74.5235 32.9402 74.6612 33.7797C75.0222 35.9796 76.1 36.9323 77.8946 36.6379C78.5314 36.5334 79.1519 36.2384 79.7559 35.7529C80.3647 35.2963 80.698 35.0633 80.7559 35.0538C81.1033 34.9968 81.3173 35.2143 81.398 35.7064C81.4693 36.1406 81.3647 36.4996 81.0843 36.7834C80.1951 37.5238 79.186 37.9866 78.0571 38.1718ZM88.1603 36.113C86.9445 36.3124 85.9205 36.0494 85.088 35.324C84.2556 34.5985 83.7396 33.6279 83.5402 32.4121C83.1982 30.328 83.5415 28.072 84.57 25.6441C84.8466 24.9745 85.1834 24.3099 85.5805 23.6502C85.9729 22.9616 86.4134 22.2948 86.9021 21.6499C87.6328 20.6679 88.4306 19.8236 89.2956 19.1169C90.1606 18.4102 91.0418 17.9833 91.9391 17.8361C93.4154 17.5939 94.2675 18.1675 94.4954 19.5569C94.7804 21.2937 94.0261 23.0375 92.2326 24.7883C90.56 26.3706 88.8119 27.3114 86.9883 27.6105C86.6699 27.6628 86.378 27.6958 86.1128 27.7096C85.8717 27.6897 85.6451 27.6674 85.433 27.6428C85.2338 28.2402 85.0896 28.9922 85.0005 29.8986C84.9114 30.8049 84.9191 31.5765 85.0236 32.2134C85.337 34.1238 86.3332 34.9413 88.0121 34.6659C89.3725 34.4427 90.6227 33.9998 91.7624 33.3372C92.8974 32.6456 94.1951 31.4964 95.6556 29.8894C96.5647 28.9079 97.2394 28.1284 97.6797 27.5508C98.12 26.9733 98.5989 26.3596 99.1166 25.7099C99.2713 25.5656 99.421 25.4816 99.5657 25.4579C99.7104 25.4341 99.8623 25.4538 100.021 25.5169C100.18 25.58 100.274 25.6984 100.302 25.872C100.355 26.1905 100.139 26.6866 99.6549 27.3605C99.2388 27.9044 98.7985 28.482 98.334 29.0932C97.8648 29.6756 97.1104 30.5127 96.0708 31.6048C94.9586 32.7979 93.695 33.793 92.2801 34.5899C90.8651 35.3868 89.4918 35.8945 88.1603 36.113ZM86.4998 26.2639C87.4261 26.1119 88.2852 25.8223 89.0772 25.3951C89.8691 24.9679 90.5963 24.4176 91.2587 23.7442C92.7333 22.224 93.3805 20.914 93.2 19.814C93.1193 19.3219 92.7749 19.1258 92.1671 19.2255C91.0092 19.4154 89.7796 20.3455 88.4781 22.0155C87.8395 22.8337 87.3216 23.5726 86.9245 24.2323C86.5516 24.8583 86.2171 25.5374 85.9211 26.2696C86.1043 26.299 86.2972 26.2971 86.4998 26.2639ZM100.058 34.8298C98.4373 35.0957 97.5389 34.6932 97.3632 33.6222C97.254 32.9564 97.3763 32.2526 97.7302 31.5109C98.1131 30.7644 98.5923 30.0615 99.1678 29.4023C99.7433 28.7431 100.297 28.2213 100.828 27.8368C100.988 27.7215 101.205 27.5967 101.48 27.4624C101.784 27.3233 102.038 27.2371 102.24 27.2039C102.472 27.1659 102.602 27.2337 102.631 27.4074C102.654 27.5521 102.521 27.7375 102.231 27.9634C101.004 28.8186 100.088 29.7567 99.4826 30.7775C98.9014 31.7646 98.6559 32.5332 98.7462 33.0831C98.8317 33.6042 99.3231 33.7911 100.22 33.6439C100.973 33.5204 101.753 33.1993 102.559 32.6805C103.395 32.157 104.154 31.5272 104.835 30.7911C105.546 30.0502 106.105 29.2897 106.512 28.5095C106.919 27.7293 107.071 27.0208 106.966 26.384C106.895 25.9498 106.686 25.5828 106.339 25.2829C106.022 24.9783 105.545 24.789 104.909 24.715L101.901 24.3168C101.139 24.204 100.568 23.9855 100.188 23.6614C99.8077 23.3374 99.5796 22.9438 99.5036 22.4806C99.3612 21.6123 99.5513 20.7785 100.074 19.9793C100.626 19.1753 101.361 18.49 102.278 17.9233C103.196 17.3566 104.118 16.9972 105.044 16.8453C105.971 16.6933 106.819 16.7919 107.59 17.141C108.356 17.4613 108.8 17.9977 108.924 18.7503C108.995 19.1845 108.931 19.6111 108.733 20.0301C108.563 20.4444 108.319 20.6777 108 20.7299C107.508 20.8107 107.229 20.6484 107.162 20.2432C107.139 20.0984 107.183 19.9129 107.294 19.6865C107.43 19.4264 107.481 19.1951 107.448 18.9925C107.305 18.1241 106.568 17.7991 105.237 18.0176C104.513 18.1363 103.815 18.4142 103.144 18.8514C102.497 19.2548 101.982 19.7406 101.6 20.3086C101.217 20.8767 101.074 21.4502 101.168 22.0291C101.263 22.6081 101.918 22.9762 103.133 23.1336L106.055 23.5461C106.937 23.6689 107.575 23.9357 107.969 24.3467C108.359 24.7286 108.599 25.1946 108.689 25.7446C108.903 27.0471 108.328 28.5237 106.964 30.1744C104.763 32.8838 102.461 34.4356 100.058 34.8298ZM113.5 32.6245C111.879 32.8905 110.98 32.4879 110.805 31.4169C110.695 30.7511 110.818 30.0474 111.172 29.3056C111.554 28.5591 112.034 27.8563 112.609 27.1971C113.185 26.5379 113.738 26.016 114.27 25.6316C114.429 25.5163 114.646 25.3914 114.922 25.2571C115.226 25.118 115.479 25.0319 115.682 24.9986C115.913 24.9606 116.043 25.0285 116.072 25.2021C116.096 25.3469 115.963 25.5322 115.673 25.7581C114.446 26.6134 113.529 27.5514 112.924 28.5723C112.343 29.5594 112.097 30.3279 112.188 30.8779C112.273 31.3989 112.764 31.5858 113.662 31.4386C114.414 31.3151 115.194 30.994 116.001 30.4752C116.836 29.9517 117.595 29.3219 118.277 28.5858C118.988 27.845 119.546 27.0844 119.954 26.3043C120.361 25.5241 120.512 24.8155 120.407 24.1787C120.336 23.7445 120.127 23.3775 119.781 23.0776C119.463 22.773 118.986 22.5837 118.35 22.5098L115.342 22.1116C114.58 21.9987 114.009 21.7803 113.629 21.4562C113.249 21.1321 113.021 20.7385 112.945 20.2754C112.803 19.407 112.993 18.5732 113.516 17.774C114.067 16.9701 114.802 16.2847 115.72 15.718C116.637 15.1513 117.559 14.792 118.486 14.64C119.412 14.488 120.261 14.5866 121.031 14.9358C121.797 15.256 122.242 15.7924 122.365 16.545C122.437 16.9792 122.373 17.4058 122.174 17.8249C122.004 18.2392 121.76 18.4724 121.442 18.5247C120.95 18.6054 120.67 18.4432 120.604 18.0379C120.58 17.8932 120.624 17.7076 120.735 17.4813C120.871 17.2212 120.922 16.9899 120.889 16.7872C120.747 15.9188 120.01 15.5939 118.678 15.8123C117.954 15.9311 117.257 16.209 116.585 16.6461C115.938 17.0496 115.423 17.5353 115.041 18.1034C114.659 18.6715 114.515 19.245 114.61 19.8239C114.705 20.4028 115.36 20.771 116.575 20.9284L119.496 21.3409C120.378 21.4637 121.016 21.7305 121.411 22.1414C121.8 22.5234 122.04 22.9893 122.131 23.5393C122.344 24.8419 121.769 26.3185 120.405 27.9691C118.204 30.6785 115.902 32.2303 113.5 32.6245Z" fill="#EF6E84"/>
<path d="M0.703544 48.9455L0.42241 48.8408L0.419504 48.8486L0.417035 48.8565L0.703544 48.9455ZM0.936923 48.1938L0.650118 48.1047L0.64667 48.1179L0.936923 48.1938ZM1.7758 45.4254L1.48808 45.3405L1.7758 45.4254ZM2.62247 42.4329L2.33402 42.3504L2.33304 42.354L2.62247 42.4329ZM3.68116 38.5584L3.3924 38.4768L3.39106 38.4819L3.68116 38.5584ZM5.13401 33.2815L4.84513 33.2006L4.8444 33.2033L5.13401 33.2815ZM6.93625 27.1448L6.64974 27.0558L6.93625 27.1448ZM8.58347 22.2374L8.86509 22.3408L9.1284 21.6235L8.44743 21.97L8.58347 22.2374ZM6.82328 23.195L6.96698 23.4585L6.97406 23.4543L6.82328 23.195ZM5.56276 23.9368L5.39593 23.6873L5.38693 23.6938L5.56276 23.9368ZM4.92504 24.3982L5.06473 24.6637L5.0836 24.6537L5.10088 24.6412L4.92504 24.3982ZM4.27714 23.1668L4.08216 22.9388L4.07259 22.947L4.06373 22.956L4.27714 23.1668ZM9.34059 20.3296L9.46585 20.6022L9.57381 20.5526L9.61853 20.4425L9.34059 20.3296ZM10.0245 18.7906L9.76593 18.6384L9.76026 18.648L9.75532 18.6581L10.0245 18.7906ZM10.4885 18.3578L10.3695 18.0822L10.3605 18.0865L10.4885 18.3578ZM11.3321 19.4232L11.0484 19.3256L10.8303 19.9598L11.4484 19.6998L11.3321 19.4232ZM28.202 24.6814L27.9334 24.5477L28.202 24.6814ZM25.089 28.5362L24.8944 28.3079L24.8925 28.3096L25.089 28.5362ZM20.4513 31.7941L20.597 32.0563L20.6007 32.0542L20.4513 31.7941ZM19.8539 30.599L20.001 30.8605L20.0028 30.8594L19.8539 30.599ZM24.0425 27.5932L24.245 27.8147L24.2482 27.8116L24.0425 27.5932ZM26.7277 24.1207L26.9955 24.2559L26.9972 24.2525L26.7277 24.1207ZM15.8898 19.2105L15.984 19.4954L15.9888 19.4937L15.8898 19.2105ZM10.575 21.331L10.4506 21.058L10.338 21.1093L10.2943 21.2251L10.575 21.331ZM8.65166 26.7296L8.3675 26.6334L8.36694 26.6351L8.65166 26.7296ZM6.78395 33.0108L7.07342 33.0896L7.07372 33.0885L6.78395 33.0108ZM3.55668 44.8657L3.84524 44.9479L3.84614 44.9445L3.55668 44.8657ZM2.9946 46.8752L3.28254 46.9596L3.28375 46.9552L2.9946 46.8752ZM2.20695 49.4122L1.92166 49.3194L1.92044 49.3233L2.20695 49.4122ZM1.61196 50.1341L1.56339 49.838C1.33404 49.8757 1.20702 49.8378 1.13439 49.7857C1.06176 49.7335 0.985317 49.6253 0.947687 49.3959L0.651645 49.4445L0.355603 49.493C0.408206 49.8137 0.536935 50.0953 0.78441 50.273C1.03188 50.4507 1.33991 50.4827 1.66053 50.4301L1.61196 50.1341ZM0.651645 49.4445L0.947687 49.3959C0.933606 49.3101 0.941018 49.1924 0.990054 49.0344L0.703544 48.9455L0.417035 48.8565C0.349382 49.0744 0.322194 49.2894 0.355603 49.493L0.651645 49.4445ZM0.703544 48.9455L0.984678 49.0502C1.07141 48.8173 1.15212 48.5569 1.22718 48.2696L0.936923 48.1938L0.64667 48.1179C0.575643 48.3897 0.50076 48.6304 0.42241 48.8408L0.703544 48.9455ZM0.936923 48.1938L1.22343 48.2827C1.51555 47.3418 1.79558 46.4177 2.06351 45.5104L1.7758 45.4254L1.48808 45.3405C1.22096 46.245 0.941742 47.1665 0.650414 48.1048L0.936923 48.1938ZM1.7758 45.4254L2.06351 45.5104C2.33174 44.6021 2.61454 43.6026 2.91191 42.5118L2.62247 42.4329L2.33304 42.354C2.03656 43.4414 1.75491 44.4369 1.48808 45.3405L1.7758 45.4254ZM2.62247 42.4329L2.91091 42.5154C3.23275 41.3901 3.5862 40.0965 3.97126 38.6348L3.68116 38.5584L3.39106 38.4819C3.00678 39.9407 2.65445 41.2301 2.33404 42.3504L2.62247 42.4329ZM3.68116 38.5584L3.96987 38.6399C4.38388 37.1735 4.86847 35.4134 5.42361 33.3598L5.13401 33.2815L4.8444 33.2033C4.28964 35.2555 3.80566 37.0133 3.39245 38.4769L3.68116 38.5584ZM5.13401 33.2815L5.42288 33.3625C6.05979 31.09 6.65975 29.0472 7.22276 27.2337L6.93625 27.1448L6.64974 27.0558C6.08475 28.8756 5.48321 30.924 4.84514 33.2006L5.13401 33.2815ZM6.93625 27.1448L7.22276 27.2337C7.78557 25.4209 8.33303 23.7901 8.86509 22.3408L8.58347 22.2374L8.30185 22.134C7.76561 23.5947 7.21492 25.2354 6.64974 27.0558L6.93625 27.1448ZM8.58347 22.2374L8.44743 21.97C7.839 22.2796 7.24735 22.6014 6.67251 22.9356L6.82328 23.195L6.97406 23.4543C7.53898 23.1259 8.12079 22.8094 8.71951 22.5047L8.58347 22.2374ZM6.82328 23.195L6.67964 22.9316C6.13098 23.2308 5.70173 23.4831 5.39604 23.6874L5.56276 23.9368L5.72948 24.1862C6.01313 23.9966 6.42422 23.7543 6.96692 23.4584L6.82328 23.195ZM5.56276 23.9368L5.38693 23.6938C5.06806 23.9244 4.85549 24.0782 4.7492 24.1551L4.92504 24.3982L5.10088 24.6412C5.20716 24.5644 5.41974 24.4106 5.7386 24.1799L5.56276 23.9368ZM4.92504 24.3982L4.78535 24.1327C4.7382 24.1575 4.67165 24.1803 4.57966 24.1954L4.62823 24.4915L4.6768 24.7875C4.81637 24.7646 4.9477 24.7252 5.06473 24.6637L4.92504 24.3982ZM4.62823 24.4915L4.57966 24.1954C4.4281 24.2203 4.36087 24.1906 4.32889 24.1659C4.29269 24.138 4.23847 24.0677 4.20954 23.8913L3.9135 23.9399L3.61746 23.9885C3.65976 24.2463 3.76029 24.485 3.96232 24.6409C4.16858 24.8001 4.42311 24.8291 4.6768 24.7875L4.62823 24.4915ZM3.9135 23.9399L4.20954 23.8913C4.19537 23.805 4.23095 23.6404 4.49054 23.3777L4.27714 23.1668L4.06373 22.956C3.76249 23.2609 3.55564 23.6117 3.61746 23.9885L3.9135 23.9399ZM4.27714 23.1668L4.47211 23.3948C5.29714 22.6893 6.94976 21.7584 9.46585 20.6022L9.34059 20.3296L9.21533 20.057C6.70065 21.2125 4.97763 22.1731 4.08216 22.9388L4.27714 23.1668ZM9.34059 20.3296L9.61853 20.4425C9.84933 19.8745 10.0744 19.3682 10.2936 18.9231L10.0245 18.7906L9.75532 18.6581C9.52856 19.1185 9.29771 19.6382 9.06266 20.2167L9.34059 20.3296ZM10.0245 18.7906L10.283 18.9428C10.371 18.7933 10.4819 18.6926 10.6165 18.6291L10.4885 18.3578L10.3605 18.0865C10.1089 18.2052 9.91039 18.393 9.76593 18.6384L10.0245 18.7906ZM10.4885 18.3578L10.6074 18.6332C10.8195 18.5416 10.9773 18.4924 11.0873 18.4744L11.0387 18.1783L10.9901 17.8823C10.8107 17.9117 10.6016 17.9821 10.3696 18.0823L10.4885 18.3578ZM11.0387 18.1783L11.0873 18.4744C11.1799 18.4592 11.1976 18.4782 11.1857 18.4706C11.1791 18.4665 11.1763 18.4618 11.177 18.463C11.1786 18.4659 11.1854 18.4793 11.1904 18.5101L11.4865 18.4616L11.7825 18.413C11.7544 18.2419 11.6752 18.0703 11.5064 17.9635C11.3452 17.8616 11.158 17.8547 10.9901 17.8823L11.0387 18.1783ZM11.4865 18.4616L11.1904 18.5101C11.2161 18.6668 11.1847 18.9296 11.0484 19.3256L11.3321 19.4232L11.6158 19.5208C11.7613 19.0978 11.8328 18.7195 11.7825 18.413L11.4865 18.4616ZM11.3321 19.4232L11.4484 19.6998C14.9143 18.242 17.771 17.3332 20.0246 16.9635L19.976 16.6674L19.9274 16.3714C17.6075 16.752 14.7016 17.6805 11.2158 19.1467L11.3321 19.4232ZM19.976 16.6674L20.0246 16.9635C22.6971 16.525 24.7177 16.601 26.12 17.1473C27.4956 17.6831 28.2952 18.6774 28.5396 20.1672L28.8356 20.1186L29.1317 20.07C28.8537 18.3757 27.9154 17.2027 26.3378 16.5882C24.7869 15.9841 22.6389 15.9265 19.9274 16.3714L19.976 16.6674ZM28.8356 20.1186L28.5396 20.1672C28.8009 21.7599 28.5963 23.2164 27.9334 24.5477L28.202 24.6814L28.4705 24.8151C29.1939 23.3625 29.4117 21.7772 29.1317 20.07L28.8356 20.1186ZM28.202 24.6814L27.9334 24.5477C27.2611 25.8978 26.2509 27.1518 24.8944 28.3079L25.089 28.5362L25.2836 28.7646C26.6915 27.5647 27.7566 26.2488 28.4705 24.8151L28.202 24.6814ZM25.089 28.5362L24.8925 28.3096C23.5554 29.4688 22.0256 30.5438 20.3018 31.5339L20.4513 31.7941L20.6007 32.0542C22.3541 31.0471 23.9161 29.9502 25.2855 28.7629L25.089 28.5362ZM20.4513 31.7941L20.3055 31.5318C16.0739 33.8837 12.3182 35.3213 9.03492 35.86L9.08349 36.156L9.13206 36.4521C12.5064 35.8985 16.3293 34.4281 20.597 32.0563L20.4513 31.7941ZM9.08349 36.156L9.03492 35.86C8.88453 35.8847 8.81068 35.8515 8.76345 35.8084C8.70351 35.7537 8.63293 35.6334 8.5929 35.3894L8.29685 35.4379L8.00081 35.4865C8.051 35.7924 8.15666 36.0669 8.35893 36.2515C8.57391 36.4478 8.84826 36.4986 9.13206 36.4521L9.08349 36.156ZM8.29685 35.4379L8.5929 35.3894C8.57625 35.2879 8.60015 35.2501 8.6229 35.2263C8.65969 35.188 8.75155 35.1323 8.95465 35.099L8.90608 34.8029L8.85751 34.5069C8.59747 34.5495 8.35622 34.6376 8.18994 34.811C8.00961 34.9989 7.96047 35.2406 8.00081 35.4865L8.29685 35.4379ZM8.90608 34.8029L8.95465 35.099C12.2709 34.5549 15.954 33.1374 20.001 30.8605L19.8539 30.599L19.7068 30.3375C15.6986 32.5926 12.0831 33.9777 8.85751 34.5069L8.90608 34.8029ZM19.8539 30.599L20.0028 30.8594C21.6227 29.933 23.0374 28.9184 24.2449 27.8146L24.0425 27.5932L23.8401 27.3718C22.6696 28.4417 21.2919 29.431 19.705 30.3386L19.8539 30.599ZM24.0425 27.5932L24.2482 27.8116C25.4527 26.6768 26.3711 25.492 26.9955 24.2559L26.7277 24.1207L26.46 23.9854C25.8728 25.1478 25.001 26.2781 23.8368 27.3749L24.0425 27.5932ZM26.7277 24.1207L26.9972 24.2525C27.621 22.978 27.8421 21.722 27.6405 20.493L27.3444 20.5416L27.0484 20.5902C27.2267 21.6769 27.0367 22.807 26.4583 23.9888L26.7277 24.1207ZM27.3444 20.5416L27.6405 20.493C27.5355 19.853 27.2944 19.303 26.9093 18.8551C26.5247 18.4079 26.0092 18.0772 25.3775 17.8554C24.1237 17.4152 22.3871 17.3947 20.1988 17.7537L20.2474 18.0497L20.2959 18.3458C22.4496 17.9924 24.0668 18.0311 25.1787 18.4215C25.7298 18.615 26.1501 18.8925 26.4543 19.2463C26.758 19.5995 26.9587 20.0435 27.0484 20.5902L27.3444 20.5416ZM20.2474 18.0497L20.1988 17.7537C18.875 17.9709 17.4053 18.363 15.7908 18.9273L15.8898 19.2105L15.9888 19.4937C17.5792 18.9378 19.0146 18.556 20.2959 18.3458L20.2474 18.0497ZM15.8898 19.2105L15.7957 18.9257C14.176 19.461 12.3941 20.1722 10.4506 21.058L10.575 21.331L10.6994 21.604C12.6279 20.725 14.3893 20.0225 15.984 19.4954L15.8898 19.2105ZM10.575 21.331L10.2943 21.2251C9.67148 22.8765 9.02921 24.6793 8.36751 26.6334L8.65166 26.7296L8.93581 26.8258C9.59568 24.8771 10.2356 23.0809 10.8557 21.4369L10.575 21.331ZM8.65166 26.7296L8.36694 26.6351C7.72823 28.5591 7.10401 30.6586 6.49418 32.9332L6.78395 33.0108L7.07372 33.0885C7.68099 30.8235 8.3019 28.7354 8.93638 26.8241L8.65166 26.7296ZM6.78395 33.0108L6.49448 32.932L3.26721 44.7869L3.55668 44.8657L3.84614 44.9445L7.07342 33.0896L6.78395 33.0108ZM3.55668 44.8657L3.26813 44.7836C3.11701 45.3147 2.92944 45.9853 2.70545 46.7953L2.9946 46.8752L3.28375 46.9552C3.50752 46.146 3.69466 45.4769 3.84522 44.9478L3.55668 44.8657ZM2.9946 46.8752L2.70669 46.7909C2.47903 47.5683 2.21739 48.411 1.92168 49.3194L2.20695 49.4122L2.49221 49.5051C2.78945 48.5921 3.05291 47.7435 3.28251 46.9596L2.9946 46.8752ZM2.20695 49.4122L1.92044 49.3233C1.79198 49.737 1.64567 49.8245 1.56339 49.838L1.61196 50.1341L1.66053 50.4301C2.09929 50.3581 2.34964 49.9644 2.49346 49.5012L2.20695 49.4122ZM24.7749 40.2699L24.4837 40.1979L24.4828 40.2014L24.7749 40.2699ZM26.282 36.411L26.5463 36.553L26.548 36.5497L26.282 36.411ZM28.6782 32.8075L28.9087 32.9996L28.9115 32.9961L28.6782 32.8075ZM31.6077 30.0083L31.7811 30.2532L31.786 30.2495L31.6077 30.0083ZM36.5009 31.5687L36.2144 31.4797L36.2118 31.4881L36.2096 31.4967L36.5009 31.5687ZM28.7234 34.9849L28.4787 34.8112L28.4759 34.8154L28.7234 34.9849ZM27.241 37.6359L26.9687 37.51L27.241 37.6359ZM26.1701 40.6206L25.8794 40.5465L25.8783 40.5509L26.1701 40.6206ZM29.795 43.1471L29.6128 42.9087L29.6094 42.9114L29.795 43.1471ZM31.8177 41.3438L31.6012 41.1361L31.5982 41.1393L31.8177 41.3438ZM35.0843 36.7949L34.8294 36.6364L34.8234 36.6468L35.0843 36.7949ZM35.7163 35.7549L35.4589 35.6008L35.7163 35.7549ZM36.5952 34.3177L36.3515 34.1427L36.3457 34.1508L36.3404 34.1593L36.5952 34.3177ZM37.8893 34.5958L38.1626 34.7196L38.2 34.6369L38.1853 34.5472L37.8893 34.5958ZM36.6454 37.3414L36.9176 37.4675L36.9187 37.4652L36.6454 37.3414ZM40.4639 40.5049L40.2609 40.284L40.2562 40.2885L40.4639 40.5049ZM43.0026 37.7698L43.2353 37.9593L43.2382 37.9556L43.0026 37.7698ZM45.4558 34.5137L45.6995 34.6887L45.4558 34.5137ZM46.2554 35.8539L46.0117 35.679L46.2554 35.8539ZM43.6207 39.3628L43.8522 39.5536L43.8555 39.5495L43.6207 39.3628ZM41.2998 41.7946L41.4902 42.0266L41.4972 42.0205L41.2998 41.7946ZM39.4229 43.1281L39.2616 42.8751L39.4229 43.1281ZM34.2136 40.7278L34.5073 40.7887L33.9739 40.5474L34.2136 40.7278ZM27.4954 45.7092L27.4469 45.4131C26.6492 45.544 26.075 45.4438 25.6772 45.1738C25.2828 44.9062 25.0038 44.432 24.8813 43.6857L24.5853 43.7343L24.2893 43.7829C24.428 44.6286 24.7646 45.2796 25.3403 45.6703C25.9125 46.0586 26.6627 46.1498 27.544 46.0052L27.4954 45.7092ZM24.5853 43.7343L24.8813 43.6857C24.7181 42.6905 24.7766 41.5762 25.067 40.3384L24.7749 40.2699L24.4828 40.2014C24.1785 41.4986 24.1106 42.694 24.2893 43.7829L24.5853 43.7343ZM24.7749 40.2699L25.0661 40.3419C25.3813 39.0668 25.8741 37.8039 26.5463 36.553L26.282 36.411L26.0178 36.269C25.3236 37.5608 24.8117 38.8705 24.4837 40.1979L24.7749 40.2699ZM26.282 36.411L26.548 36.5497C27.2167 35.268 28.0036 34.0848 28.9086 32.9996L28.6782 32.8075L28.4479 32.6153C27.5148 33.7342 26.7042 34.9533 26.0161 36.2722L26.282 36.411ZM28.6782 32.8075L28.9115 32.9961C29.8109 31.8836 30.7678 30.9703 31.781 30.2531L31.6077 30.0083L31.4344 29.7634C30.3703 30.5166 29.3741 31.4695 28.4449 32.6189L28.6782 32.8075ZM31.6077 30.0083L31.786 30.2495C32.7899 29.5076 33.7843 29.0634 34.7703 28.9017L34.7217 28.6056L34.6731 28.3096C33.5749 28.4897 32.4934 28.9807 31.4294 29.767L31.6077 30.0083ZM34.7217 28.6056L34.7703 28.9017C35.6521 28.757 36.2944 28.8744 36.745 29.1926C37.1945 29.5101 37.5114 30.0687 37.6533 30.9337L37.9493 30.8851L38.2454 30.8366C38.0881 29.8779 37.7174 29.1448 37.0911 28.7025C36.4658 28.2608 35.6439 28.1503 34.6731 28.3096L34.7217 28.6056ZM37.9493 30.8851L37.6533 30.9337C37.7483 31.5125 37.7402 31.9151 37.6639 32.1698C37.6271 32.2927 37.5778 32.3692 37.5275 32.4172C37.4792 32.4633 37.4158 32.4968 37.3244 32.5118L37.373 32.8078L37.4216 33.1039C37.6196 33.0714 37.7973 32.9891 37.9418 32.8512C38.0843 32.7152 38.1794 32.5396 38.2387 32.342C38.3544 31.9558 38.3451 31.4445 38.2454 30.8366L37.9493 30.8851ZM37.373 32.8078L37.3244 32.5118C37.1055 32.5477 36.9878 32.5136 36.9245 32.4709C36.865 32.4306 36.7985 32.3453 36.7664 32.1493L36.4704 32.1979L36.1743 32.2465C36.2229 32.5426 36.3473 32.805 36.5886 32.968C36.8263 33.1286 37.1195 33.1534 37.4216 33.1039L37.373 32.8078ZM36.4704 32.1979L36.7664 32.1493C36.7403 31.9902 36.7474 31.8216 36.7921 31.6406L36.5009 31.5687L36.2096 31.4967C36.1472 31.7495 36.1339 32.0003 36.1743 32.2465L36.4704 32.1979ZM36.5009 31.5687L36.7874 31.6576C36.8791 31.3623 36.8997 31.0596 36.8495 30.7535L36.5535 30.802L36.2574 30.8506C36.2927 31.0655 36.2783 31.2739 36.2144 31.4797L36.5009 31.5687ZM36.5535 30.802L36.8495 30.7535C36.7708 30.274 36.5375 29.9 36.1279 29.6908C35.7373 29.4911 35.2331 29.4662 34.6555 29.5609L34.7041 29.857L34.7526 30.153C35.275 30.0673 35.629 30.1096 35.8549 30.225C36.0618 30.3308 36.2031 30.5196 36.2574 30.8506L36.5535 30.802ZM34.7041 29.857L34.6555 29.5609C33.6987 29.7179 32.7095 30.2537 31.6893 31.1285C30.6676 32.0046 29.5977 33.2351 28.4787 34.8112L28.7234 34.9849L28.968 35.1586C30.0704 33.6058 31.1081 32.4172 32.0799 31.584C33.0532 30.7494 33.9437 30.2857 34.7526 30.153L34.7041 29.857ZM28.7234 34.9849L28.4759 34.8154C27.9373 35.6016 27.4352 36.5003 26.9687 37.51L27.241 37.6359L27.5133 37.7617C27.9681 36.7773 28.4542 35.9087 28.9709 35.1544L28.7234 34.9849ZM27.241 37.6359L26.9687 37.51C26.5009 38.5226 26.1375 39.5347 25.8794 40.5465L26.1701 40.6206L26.4608 40.6948C26.7092 39.721 27.0598 38.7433 27.5133 37.7617L27.241 37.6359ZM26.1701 40.6206L25.8783 40.5509C25.6418 41.5411 25.5893 42.4667 25.7299 43.3236L26.0259 43.275L26.322 43.2264C26.1966 42.4623 26.2403 41.6183 26.4619 40.6903L26.1701 40.6206ZM26.0259 43.275L25.7299 43.3236C25.8029 43.7685 25.9912 44.1336 26.3339 44.3533C26.6698 44.5687 27.0969 44.6072 27.5694 44.5296L27.5209 44.2336L27.4723 43.9376C27.0765 44.0025 26.8202 43.9524 26.6578 43.8483C26.5022 43.7485 26.3772 43.563 26.322 43.2264L26.0259 43.275ZM27.5209 44.2336L27.5694 44.5296C28.3839 44.396 29.1879 44.0067 29.9805 43.3828L29.795 43.1471L29.6094 42.9114C28.8751 43.4893 28.163 43.8242 27.4723 43.9376L27.5209 44.2336ZM29.795 43.1471L29.9771 43.3855C30.7801 42.7718 31.4674 42.1596 32.0371 41.5484L31.8177 41.3438L31.5982 41.1393C31.0558 41.7212 30.3947 42.3112 29.6128 42.9087L29.795 43.1471ZM31.8177 41.3438L32.0342 41.5515C33.1729 40.3646 34.2759 38.8264 35.3452 36.9431L35.0843 36.7949L34.8234 36.6468C33.7711 38.5003 32.6963 39.9947 31.6012 41.1361L31.8177 41.3438ZM35.0843 36.7949L35.3391 36.9533C35.505 36.6865 35.7166 36.3383 35.9737 35.9091L35.7163 35.7549L35.4589 35.6008C35.2027 36.0286 34.993 36.3737 34.8296 36.6366L35.0843 36.7949ZM35.7163 35.7549L35.9737 35.9091C36.2293 35.4822 36.5214 35.0046 36.85 34.476L36.5952 34.3177L36.3404 34.1593C36.0105 34.69 35.7166 35.1705 35.4589 35.6008L35.7163 35.7549ZM36.5952 34.3177L36.8389 34.4926C36.914 34.3881 37.006 34.3313 37.1292 34.3111L37.0806 34.0151L37.032 33.719C36.75 33.7653 36.5184 33.9103 36.3515 34.1427L36.5952 34.3177ZM37.0806 34.0151L37.1292 34.3111C37.3151 34.2806 37.4078 34.3129 37.4551 34.3469C37.5025 34.381 37.5628 34.4584 37.5933 34.6444L37.8893 34.5958L38.1853 34.5472C38.1399 34.27 38.0273 34.0192 37.8051 33.8596C37.5829 33.7 37.3092 33.6736 37.032 33.719L37.0806 34.0151ZM37.8893 34.5958L37.616 34.472L36.3721 37.2176L36.6454 37.3414L36.9187 37.4652L38.1626 34.7196L37.8893 34.5958ZM36.6454 37.3414L36.3732 37.2154C35.5328 39.0304 35.1687 40.5212 35.3548 41.6553L35.6508 41.6067L35.9469 41.5581C35.791 40.6081 36.0899 39.2553 36.9176 37.4675L36.6454 37.3414ZM35.6508 41.6067L35.3548 41.6553C35.4235 42.0744 35.5847 42.4271 35.8814 42.6491C36.1805 42.8729 36.5596 42.9209 36.9701 42.8536L36.9215 42.5575L36.873 42.2615C36.5598 42.3129 36.3653 42.2618 36.2408 42.1687C36.114 42.0737 36.0016 41.8917 35.9469 41.5581L35.6508 41.6067ZM36.9215 42.5575L36.9701 42.8536C37.6294 42.7454 38.3079 42.4569 39.0042 42.0036L38.8405 41.7522L38.6768 41.5008C38.0302 41.9218 37.4294 42.1702 36.873 42.2615L36.9215 42.5575ZM38.8405 41.7522L39.0042 42.0036C39.6855 41.56 40.243 41.1328 40.6717 40.7214L40.4639 40.5049L40.2562 40.2885C39.8631 40.6658 39.3383 41.0702 38.6768 41.5008L38.8405 41.7522ZM40.4639 40.5049L40.667 40.7258C41.5062 39.9543 42.3622 39.0316 43.2353 37.9592L43.0026 37.7698L42.77 37.5804C41.9113 38.6351 41.0748 39.5358 40.2609 40.2841L40.4639 40.5049ZM43.0026 37.7698L43.2382 37.9556C44.102 36.8597 44.9225 35.7708 45.6995 34.6887L45.4558 34.5137L45.2122 34.3387C44.4406 35.4132 43.6255 36.495 42.767 37.5841L43.0026 37.7698ZM45.4558 34.5137L45.6995 34.6887C45.7335 34.6413 45.811 34.5811 45.9969 34.5506L45.9484 34.2545L45.8998 33.9585C45.6226 34.004 45.3717 34.1165 45.2122 34.3387L45.4558 34.5137ZM45.9484 34.2545L45.9969 34.5506C46.1824 34.5202 46.273 34.5447 46.3112 34.5662C46.3351 34.5796 46.3713 34.609 46.3891 34.7173L46.6851 34.6687L46.9812 34.6202C46.942 34.3811 46.8269 34.1678 46.6052 34.0432C46.3978 33.9266 46.1485 33.9177 45.8998 33.9585L45.9484 34.2545ZM46.6851 34.6687L46.3891 34.7173C46.4214 34.9141 46.3379 35.2246 46.0117 35.679L46.2554 35.8539L46.499 36.0289C46.8503 35.5398 47.0534 35.0601 46.9812 34.6202L46.6851 34.6687ZM46.2554 35.8539L46.0117 35.679C45.0458 37.0239 44.1706 38.1894 43.3859 39.176L43.6207 39.3628L43.8555 39.5495C44.6479 38.5533 45.5291 37.3796 46.499 36.0289L46.2554 35.8539ZM43.6207 39.3628L43.3892 39.172C42.6039 40.1248 41.8415 40.9229 41.1024 41.5687L41.2998 41.7946L41.4972 42.0205C42.266 41.3488 43.0509 40.5258 43.8522 39.5536L43.6207 39.3628ZM41.2998 41.7946L41.1094 41.5628C40.6237 41.9615 40.0086 42.399 39.2616 42.8751L39.4229 43.1281L39.5842 43.3811C40.3442 42.8965 40.9804 42.445 41.4901 42.0265L41.2998 41.7946ZM39.4229 43.1281L39.2616 42.8751C38.548 43.33 37.6901 43.6434 36.681 43.809L36.7295 44.105L36.7781 44.4011C37.8531 44.2247 38.7908 43.8868 39.5842 43.3811L39.4229 43.1281ZM36.7295 44.105L36.681 43.809C36.0221 43.9171 35.5525 43.8155 35.2234 43.564C34.8906 43.3097 34.6443 42.8589 34.5276 42.1477L34.2316 42.1963L33.9355 42.2448C34.0658 43.0388 34.3592 43.6588 34.8591 44.0407C35.3627 44.4255 36.0186 44.5257 36.7781 44.4011L36.7295 44.105ZM34.2316 42.1963L34.5276 42.1477C34.4362 41.5906 34.4343 41.1407 34.5073 40.7887L34.2136 40.7278L33.9198 40.6669C33.8269 41.115 33.837 41.6441 33.9355 42.2448L34.2316 42.1963ZM34.2136 40.7278L33.9739 40.5474C31.7722 43.4723 29.5932 45.061 27.4469 45.4131L27.4954 45.7092L27.544 46.0052C29.9132 45.6165 32.213 43.8843 34.4533 40.9082L34.2136 40.7278ZM51.119 22.2592L51.4028 22.3568L51.4055 22.3481L51.119 22.2592ZM52.0868 20.0047L52.3305 20.1797L52.3353 20.173L52.3398 20.1659L52.0868 20.0047ZM53.0447 18.7775L52.8687 18.5342L52.8585 18.5423L53.0447 18.7775ZM54.5681 19.9098L54.3156 19.7478L54.3146 19.7494L54.5681 19.9098ZM53.8643 20.7832L54.0624 21.0085L54.0703 21.0016L54.0777 20.9941L53.8643 20.7832ZM53.1099 21.6204L53.3795 21.7522L53.3831 21.7442L53.1099 21.6204ZM52.3755 23.1231L52.1059 22.9914L52.0811 23.0422L52.0765 23.0985L52.3755 23.1231ZM52.2153 23.5061L52.459 23.6811L52.459 23.6811L52.2153 23.5061ZM45.4477 42.318L45.2833 42.5692L45.2936 42.5754L45.4477 42.318ZM44.85 38.4031L45.1449 38.458L45.1454 38.4554L44.85 38.4031ZM45.7201 34.7379L45.4335 34.6489L45.4319 34.6545L45.7201 34.7379ZM47.0606 30.9509L46.7822 30.8391L46.7822 30.8391L47.0606 30.9509ZM48.5294 27.9454L48.2751 27.7863L48.2747 27.787L48.5294 27.9454ZM50.2991 28.9482L50.5774 29.0603L50.2991 28.9482ZM49.1058 31.7301L49.374 31.865L49.379 31.8539L49.1058 31.7301ZM48.3643 33.1894L48.6314 33.3259L48.3643 33.1894ZM47.4484 34.9448L47.7089 35.0939L47.713 35.0861L47.4484 34.9448ZM46.867 36.0211L46.5937 35.8973L46.867 36.0211ZM46.3042 38.2983L46.5996 38.351L46.6008 38.3432L46.3042 38.2983ZM46.3693 41.1412L46.1617 41.3577L46.177 41.3725L46.1944 41.3849L46.3693 41.1412ZM49.4535 40.1002L49.2745 39.8594L49.4535 40.1002ZM51.904 37.9146L52.1205 38.1224L52.1245 38.118L51.904 37.9146ZM54.1458 35.2728L53.912 35.0848L53.9088 35.0889L54.1458 35.2728ZM55.9528 32.9699L56.192 33.1511L56.1965 33.1449L55.9528 32.9699ZM56.7524 34.3101L56.5087 34.1351L56.5087 34.1351L56.7524 34.3101ZM54.9233 36.7504L55.1588 36.9363L54.9233 36.7504ZM53.2764 38.6704L53.4899 38.8813L53.4945 38.8764L53.2764 38.6704ZM50.4203 41.1009L50.2444 40.8578L50.4203 41.1009ZM51.8025 23.7076L51.754 23.4116C51.5535 23.4445 51.4494 23.4103 51.3936 23.3702C51.3379 23.3302 51.2722 23.2424 51.2393 23.042L50.9433 23.0906L50.6473 23.1392C50.6951 23.4308 50.813 23.692 51.0437 23.8576C51.2743 24.0232 51.5594 24.0515 51.8511 24.0037L51.8025 23.7076ZM50.9433 23.0906L51.2393 23.042C51.2368 23.0265 51.2355 22.9658 51.2629 22.8362C51.2887 22.7142 51.3344 22.5553 51.4027 22.3568L51.119 22.2592L50.8353 22.1616C50.7627 22.3726 50.7087 22.557 50.6759 22.7122C50.6447 22.8597 50.6261 23.01 50.6473 23.1392L50.9433 23.0906ZM51.119 22.2592L51.4055 22.3481C51.5383 21.9205 51.6995 21.4874 51.8895 21.0487L51.6143 20.9294L51.339 20.8102C51.1409 21.2675 50.972 21.7208 50.8325 22.1702L51.119 22.2592ZM51.6143 20.9294L51.8895 21.0487C52.0834 20.6011 52.2301 20.3195 52.3305 20.1797L52.0868 20.0047L51.8431 19.8298C51.7015 20.0269 51.5332 20.3618 51.339 20.8102L51.6143 20.9294ZM52.0868 20.0047L52.3398 20.1659C52.7425 19.5339 53.0383 19.1652 53.2309 19.0127L53.0447 18.7775L52.8585 18.5423C52.5776 18.7647 52.2348 19.2142 51.8338 19.8435L52.0868 20.0047ZM53.0447 18.7775L53.2206 19.0205C53.4626 18.8454 53.6682 18.7563 53.8392 18.7282L53.7907 18.4321L53.7421 18.1361C53.45 18.184 53.1582 18.3251 52.8689 18.5344L53.0447 18.7775ZM53.7907 18.4321L53.8392 18.7282C54.1044 18.6847 54.258 18.7217 54.3457 18.7783C54.427 18.8307 54.5055 18.9348 54.5418 19.1561L54.8378 19.1075L55.1339 19.0589C55.0799 18.7303 54.9388 18.4468 54.671 18.2741C54.4096 18.1055 54.0847 18.0799 53.7421 18.1361L53.7907 18.4321ZM54.8378 19.1075L54.5418 19.1561C54.556 19.2427 54.5208 19.4278 54.3156 19.7478L54.5681 19.9098L54.8207 20.0717C55.0415 19.7273 55.1861 19.3775 55.1339 19.0589L54.8378 19.1075ZM54.5681 19.9098L54.3146 19.7494C54.1387 20.0275 53.918 20.302 53.6509 20.5724L53.8643 20.7832L54.0777 20.9941C54.3713 20.6969 54.6199 20.389 54.8217 20.0701L54.5681 19.9098ZM53.8643 20.7832L53.6662 20.5579C53.4533 20.7451 53.2773 20.9146 53.1411 21.0658C53.0081 21.2134 52.8992 21.3584 52.8366 21.4966L53.1099 21.6204L53.3831 21.7442C53.4078 21.6898 53.4683 21.5989 53.5868 21.4675C53.7021 21.3395 53.8596 21.1868 54.0624 21.0085L53.8643 20.7832ZM53.1099 21.6204L52.8403 21.4887L52.1059 22.9914L52.3755 23.1231L52.645 23.2549L53.3794 21.7522L53.1099 21.6204ZM52.3755 23.1231L52.0765 23.0985C52.0724 23.1483 52.0481 23.2247 51.9717 23.3311L52.2153 23.5061L52.459 23.6811C52.5762 23.5179 52.6587 23.3391 52.6744 23.1478L52.3755 23.1231ZM52.2153 23.5061L51.9717 23.3311C51.9679 23.3364 51.9265 23.3833 51.754 23.4116L51.8025 23.7076L51.8511 24.0037C52.0838 23.9655 52.3176 23.878 52.459 23.6811L52.2153 23.5061ZM47.3063 42.5035L47.2577 42.2075C46.4753 42.3359 45.941 42.2637 45.6018 42.0606L45.4477 42.318L45.2936 42.5754C45.8115 42.8856 46.5162 42.9372 47.3548 42.7996L47.3063 42.5035ZM45.4477 42.318L45.6119 42.0669C45.3049 41.8661 45.0835 41.5063 44.9876 40.9221L44.6916 40.9706L44.3955 41.0192C44.5086 41.7086 44.7913 42.2471 45.2835 42.569L45.4477 42.318ZM44.6916 40.9706L44.9876 40.9221C44.8964 40.3659 44.9416 39.5509 45.1449 38.458L44.85 38.4031L44.5551 38.3482C44.3477 39.4629 44.2873 40.3596 44.3955 41.0192L44.6916 40.9706ZM44.85 38.4031L45.1454 38.4554C45.3438 37.3349 45.6312 36.1236 46.0082 34.8213L45.7201 34.7379L45.4319 34.6545C45.05 35.9736 44.7573 37.2058 44.5546 38.3508L44.85 38.4031ZM45.7201 34.7379L46.0066 34.8268C46.4127 33.5186 46.8569 32.2639 47.3391 31.0626L47.0606 30.9509L46.7822 30.8391C46.2938 32.0562 45.8442 33.3262 45.4336 34.6489L45.7201 34.7379ZM47.0606 30.9509L47.3391 31.0626C47.8202 29.8639 48.3023 28.8789 48.7842 28.1038L48.5294 27.9454L48.2747 27.787C47.7688 28.6008 47.2717 29.6195 46.7822 30.8391L47.0606 30.9509ZM48.5294 27.9454L48.7838 28.1045C49.0365 27.7006 49.264 27.4033 49.465 27.2033C49.6706 26.9987 49.8218 26.9227 49.9196 26.9067L49.871 26.6106L49.8225 26.3146C49.544 26.3603 49.2834 26.5376 49.0418 26.778C48.7957 27.0229 48.5405 27.3622 48.2751 27.7863L48.5294 27.9454ZM49.871 26.6106L49.9196 26.9067C50.1425 26.8701 50.2627 26.902 50.3253 26.9417C50.3804 26.9765 50.4416 27.0494 50.4705 27.2257L50.7666 27.1771L51.0626 27.1285C51.0156 26.8417 50.8895 26.5886 50.6461 26.4346C50.4102 26.2854 50.1206 26.2657 49.8225 26.3146L49.871 26.6106ZM50.7666 27.1771L50.4705 27.2257C50.4834 27.3039 50.4716 27.4713 50.3953 27.7604C50.3218 28.0387 50.1981 28.3963 50.0209 28.836L50.2991 28.9482L50.5774 29.0603C50.7593 28.6088 50.893 28.2256 50.9754 27.9135C51.0549 27.6123 51.0973 27.3398 51.0626 27.1285L50.7666 27.1771ZM50.2991 28.9482L50.0209 28.836C49.6635 29.723 49.2674 30.6464 48.8325 31.6063L49.1058 31.7301L49.379 31.8539C49.8171 30.887 50.2165 29.9558 50.5774 29.0603L50.2991 28.9482ZM49.1058 31.7301L48.8378 31.5952C48.6589 31.9508 48.412 32.4366 48.0971 33.0529L48.3643 33.1894L48.6314 33.3259C48.9465 32.7092 49.194 32.2221 49.3738 31.8649L49.1058 31.7301ZM48.3643 33.1894L48.0971 33.0529C47.7828 33.6679 47.4784 34.2515 47.1837 34.8036L47.4484 34.9448L47.713 35.0861C48.0095 34.5305 48.3157 33.9438 48.6314 33.3259L48.3643 33.1894ZM47.4484 34.9448L47.188 34.7958C46.8886 35.3191 46.6877 35.6898 46.5937 35.8973L46.867 36.0211L47.1402 36.1449C47.2208 35.9671 47.4075 35.6203 47.7088 35.0938L47.4484 34.9448ZM46.867 36.0211L46.5937 35.8973C46.3578 36.4181 46.1655 37.2109 46.0076 38.2534L46.3042 38.2983L46.6008 38.3432C46.7569 37.3129 46.9397 36.5875 47.1402 36.1449L46.867 36.0211ZM46.3042 38.2983L46.0089 38.2456C45.8218 39.2936 45.7634 40.1165 45.8576 40.6902L46.1536 40.6416L46.4496 40.593C46.3728 40.1246 46.4149 39.3853 46.5995 38.351L46.3042 38.2983ZM46.1536 40.6416L45.8576 40.6902C45.9002 40.9502 45.9883 41.1914 46.1617 41.3577L46.3693 41.1412L46.577 40.9248C46.5387 40.888 46.483 40.7961 46.4496 40.593L46.1536 40.6416ZM46.3693 41.1412L46.1944 41.3849C46.3254 41.479 46.486 41.5156 46.6416 41.5263C46.8007 41.5372 46.9835 41.5228 47.1845 41.4899L47.136 41.1938L47.0874 40.8978C46.9121 40.9265 46.779 40.9343 46.6826 40.9277C46.5826 40.9208 46.5481 40.9003 46.5443 40.8976L46.3693 41.1412ZM47.136 41.1938L47.1845 41.4899C47.9704 41.3609 48.787 40.9693 49.6324 40.341L49.4535 40.1002L49.2745 39.8594C48.4773 40.4518 47.7489 40.7893 47.0874 40.8978L47.136 41.1938ZM49.4535 40.1002L49.6324 40.341C50.469 39.7193 51.2982 38.9793 52.1205 38.1223L51.904 37.9146L51.6875 37.7069C50.8851 38.5433 50.0807 39.2603 49.2745 39.8594L49.4535 40.1002ZM51.904 37.9146L52.1245 38.118C52.9375 37.2365 53.6903 36.3494 54.3829 35.4567L54.1458 35.2728L53.9088 35.0889C53.2273 35.9674 52.4856 36.8415 51.6834 37.7112L51.904 37.9146ZM54.1458 35.2728L54.3796 35.4608C55.0967 34.5691 55.701 33.799 56.1919 33.1511L55.9528 32.9699L55.7137 32.7887C55.2273 33.4306 54.6269 34.1959 53.9121 35.0848L54.1458 35.2728ZM55.9528 32.9699L56.1965 33.1449C56.2305 33.0975 56.308 33.0373 56.4939 33.0068L56.4454 32.7107L56.3968 32.4147C56.1196 32.4602 55.8687 32.5727 55.7092 32.7949L55.9528 32.9699ZM56.4454 32.7107L56.4939 33.0068C56.6794 32.9763 56.77 33.0009 56.8082 33.0223C56.8321 33.0358 56.8683 33.0651 56.8861 33.1735L57.1822 33.1249L57.4782 33.0763C57.439 32.8373 57.3239 32.6239 57.1022 32.4993C56.8948 32.3827 56.6455 32.3739 56.3968 32.4147L56.4454 32.7107ZM57.1822 33.1249L56.8861 33.1735C56.9184 33.3703 56.8349 33.6808 56.5087 34.1351L56.7524 34.3101L56.996 34.4851C57.3473 33.996 57.5504 33.5163 57.4782 33.0763L57.1822 33.1249ZM56.7524 34.3101L56.5087 34.1351C55.8574 35.042 55.2505 35.8517 54.6878 36.5646L54.9233 36.7504L55.1588 36.9363C55.7282 36.215 56.3406 35.3978 56.996 34.4851L56.7524 34.3101ZM54.9233 36.7504L54.6878 36.5646C54.1264 37.2759 53.5832 37.909 53.0584 38.4643L53.2764 38.6704L53.4945 38.8764C54.0334 38.3061 54.5882 37.6592 55.1588 36.9363L54.9233 36.7504ZM53.2764 38.6704L53.063 38.4595C52.2344 39.2982 51.2952 40.0977 50.2444 40.8578L50.4203 41.1009L50.5961 41.3439C51.6711 40.5663 52.6359 39.7455 53.4898 38.8812L53.2764 38.6704ZM50.4203 41.1009L50.2444 40.8578C49.2091 41.6068 48.2139 42.0506 47.2577 42.2075L47.3063 42.5035L47.3548 42.7996C48.4249 42.624 49.5056 42.1328 50.5961 41.3439L50.4203 41.1009ZM53.8338 40.9421L54.1149 41.0468L54.1178 41.039L54.1203 41.0311L53.8338 40.9421ZM54.0451 40.3278L54.3239 40.4385L54.3283 40.4275L54.3318 40.4161L54.0451 40.3278ZM56.6635 31.8278L56.9502 31.9161L56.9506 31.9148L56.6635 31.8278ZM59.5472 27.1188L59.2538 27.0561L59.5472 27.1188ZM58.9189 29.5404L58.6312 29.4554L58.6298 29.4605L58.9189 29.5404ZM57.752 33.2989L57.4709 33.1942L58.0084 33.4547L57.752 33.2989ZM62.2456 26.9882L62.0142 26.7972L62.0141 26.7974L62.2456 26.9882ZM68.4956 29.7528L68.2081 29.6671L68.2078 29.6682L68.4956 29.7528ZM68.0957 36.2837L68.2354 36.5492L68.2465 36.5434L68.257 36.5366L68.0957 36.2837ZM66.4865 37.6178L66.2989 37.8519L66.3051 37.8569L66.3115 37.8615L66.4865 37.6178ZM66.998 29.8647L66.7119 29.7746L66.7115 29.7758L66.998 29.8647ZM64.9966 26.0909L65.2137 26.298L65.2138 26.2979L64.9966 26.0909ZM57.5119 36.727L57.7804 36.8609L57.7808 36.86L57.5119 36.727ZM55.1635 41.4374L54.8948 41.3034L54.8902 41.3136L55.1635 41.4374ZM54.5329 41.9421L54.4843 41.6461C54.2852 41.6788 54.1839 41.6526 54.1377 41.6261C54.1048 41.6073 54.062 41.5675 54.0416 41.4431L53.7456 41.4917L53.4495 41.5402C53.4909 41.7921 53.6102 42.0156 53.8397 42.1469C54.0559 42.2706 54.3174 42.2815 54.5815 42.2382L54.5329 41.9421ZM53.7456 41.4917L54.0416 41.4431C54.03 41.3723 54.0406 41.2465 54.1149 41.0468L53.8338 40.9421L53.5526 40.8374C53.4619 41.081 53.4137 41.3216 53.4495 41.5402L53.7456 41.4917ZM53.8338 40.9421L54.1203 41.0311C54.1969 40.7844 54.2647 40.5876 54.3239 40.4385L54.0451 40.3278L53.7663 40.2171C53.6993 40.386 53.6263 40.5987 53.5473 40.8532L53.8338 40.9421ZM54.0451 40.3278L54.3318 40.4161L56.9502 31.9161L56.6635 31.8278L56.3768 31.7394L53.7584 40.2395L54.0451 40.3278ZM56.6635 31.8278L56.9506 31.9148C57.5102 30.068 57.9233 28.6323 58.189 27.6096C58.3217 27.0987 58.4187 26.6869 58.4788 26.3767C58.5088 26.2217 58.5304 26.0881 58.5424 25.9778C58.5536 25.8746 58.5594 25.7676 58.5447 25.6781L58.2486 25.7266L57.9526 25.7752C57.9524 25.7738 57.9539 25.7838 57.9534 25.8104C57.9528 25.8357 57.9506 25.8695 57.9459 25.9131C57.9364 26.0005 57.9181 26.1163 57.8898 26.2626C57.8332 26.5548 57.7397 26.9527 57.6083 27.4587C57.3456 28.4697 56.9353 29.8964 56.3764 31.7408L56.6635 31.8278ZM58.2486 25.7266L58.5447 25.6781C58.5189 25.5211 58.5476 25.4513 58.5695 25.4208C58.5914 25.3903 58.6484 25.3408 58.8053 25.3151L58.7568 25.019L58.7082 24.723C58.4599 24.7637 58.2296 24.8655 58.0821 25.0708C57.9347 25.2762 57.9119 25.5269 57.9526 25.7752L58.2486 25.7266ZM58.7568 25.019L58.8053 25.3151C59.0307 25.2781 59.156 25.3177 59.2299 25.3737C59.3071 25.4322 59.3876 25.5531 59.4282 25.8006L59.7242 25.7521L60.0203 25.7035C59.9659 25.3721 59.8376 25.0814 59.5923 24.8955C59.3438 24.7072 59.0328 24.6697 58.7082 24.723L58.7568 25.019ZM59.7242 25.7521L59.4282 25.8006C59.4371 25.8551 59.4366 25.9816 59.4074 26.2072C59.3793 26.4236 59.3286 26.7059 59.2538 27.0561L59.5472 27.1188L59.8405 27.1814C59.917 26.8232 59.9714 26.5233 60.0024 26.2843C60.0322 26.0543 60.0446 25.8517 60.0203 25.7035L59.7242 25.7521ZM59.5472 27.1188L59.2538 27.0561C59.1045 27.7553 58.8972 28.5548 58.6312 29.4555L58.9189 29.5404L59.2066 29.6254C59.4757 28.7142 59.6872 27.8993 59.8405 27.1814L59.5472 27.1188ZM58.9189 29.5404L58.6298 29.4605C58.1829 31.0766 57.7966 32.3198 57.4709 33.1942L57.752 33.2989L58.0332 33.4036C58.3678 32.5051 58.7595 31.2426 59.2081 29.6204L58.9189 29.5404ZM57.752 33.2989L58.0084 33.4547C58.7068 32.3053 59.4287 31.2117 60.1741 30.1737L59.9305 29.9987L59.6868 29.8237C58.932 30.8748 58.2016 31.9813 57.4957 33.1431L57.752 33.2989ZM59.9305 29.9987L60.1741 30.1737C60.9205 29.1344 61.6882 28.1362 62.4771 27.179L62.2456 26.9882L62.0141 26.7974C61.2164 27.7651 60.4407 28.7739 59.6868 29.8237L59.9305 29.9987ZM62.2456 26.9882L62.477 27.1792C63.6477 25.7609 64.7013 24.677 65.6379 23.9203C66.5788 23.1602 67.3784 22.7492 68.0422 22.6403L67.9936 22.3443L67.945 22.0483C67.1325 22.1816 66.236 22.6657 65.2609 23.4536C64.2815 24.2448 63.1992 25.3617 62.0142 26.7972L62.2456 26.9882ZM67.9936 22.3443L68.0422 22.6403C68.5073 22.564 68.8191 22.6258 69.0244 22.7642C69.2259 22.9001 69.3822 23.149 69.4523 23.5764L69.7484 23.5278L70.0444 23.4793C69.9578 22.9514 69.7433 22.5254 69.3599 22.2668C68.9802 22.0107 68.493 21.9584 67.945 22.0483L67.9936 22.3443ZM69.7484 23.5278L69.4523 23.5764C69.5138 23.9509 69.4568 24.6381 69.2479 25.6762C69.0417 26.701 68.6957 28.0304 68.2081 29.6671L68.4956 29.7528L68.7832 29.8384C69.2732 28.1935 69.6248 26.8447 69.8361 25.7945C70.0448 24.7577 70.1254 23.9731 70.0444 23.4793L69.7484 23.5278ZM68.4956 29.7528L68.2078 29.6682C67.7203 31.3271 67.3695 32.679 67.1571 33.7211C66.9478 34.7481 66.8632 35.5164 66.9398 35.9828L67.2358 35.9343L67.5319 35.8857C67.4754 35.5416 67.5344 34.8745 67.745 33.8409C67.9526 32.8225 68.2981 31.4889 68.7835 29.8373L68.4956 29.7528ZM67.2358 35.9343L66.9398 35.9828C66.9747 36.196 67.0448 36.4027 67.1872 36.55C67.3465 36.7149 67.556 36.7654 67.7678 36.7307L67.7192 36.4346L67.6706 36.1386C67.6411 36.1434 67.6287 36.1401 67.6271 36.1396C67.627 36.1396 67.625 36.1396 67.6187 36.1331C67.6 36.1137 67.5586 36.0489 67.5319 35.8857L67.2358 35.9343ZM67.7192 36.4346L67.7678 36.7307C67.9054 36.7081 68.0671 36.6377 68.2354 36.5492L68.0957 36.2837L67.956 36.0182C67.796 36.1024 67.7067 36.1327 67.6706 36.1386L67.7192 36.4346ZM68.0957 36.2837L68.257 36.5366C68.4141 36.4365 68.5717 36.3758 68.7308 36.3497L68.6822 36.0537L68.6337 35.7576C68.3875 35.798 68.1541 35.8907 67.9345 36.0307L68.0957 36.2837ZM68.6822 36.0537L68.7308 36.3497C68.9355 36.3161 69.042 36.3485 69.0968 36.3854C69.1477 36.4197 69.2086 36.4947 69.2383 36.6759L69.5343 36.6273L69.8304 36.5787C69.7841 36.2968 69.665 36.0446 69.4318 35.8877C69.2026 35.7334 68.921 35.7105 68.6337 35.7576L68.6822 36.0537ZM69.5343 36.6273L69.2383 36.6759C69.2528 36.7642 69.2409 36.833 69.2111 36.8934C69.1796 36.957 69.1184 37.0303 69.0055 37.1072C68.7727 37.2658 68.3699 37.4061 67.7612 37.506L67.8098 37.802L67.8583 38.098C68.4943 37.9937 69.0013 37.8361 69.3433 37.6031C69.5178 37.4842 69.6604 37.3383 69.7489 37.1593C69.839 36.9771 69.8634 36.7799 69.8304 36.5787L69.5343 36.6273ZM67.8098 37.802L67.7612 37.506C67.2173 37.5952 66.8714 37.5249 66.6615 37.3741L66.4865 37.6178L66.3115 37.8615C66.708 38.1462 67.2444 38.1988 67.8583 38.098L67.8098 37.802ZM66.4865 37.6178L66.674 37.3837C66.4345 37.1918 66.2729 36.9091 66.2065 36.5044L65.9105 36.553L65.6145 36.6016C65.7 37.1232 65.9225 37.5504 66.2989 37.8519L66.4865 37.6178ZM65.9105 36.553L66.2065 36.5044C65.991 35.191 66.332 33.0217 67.2845 29.9537L66.998 29.8647L66.7115 29.7758C65.7581 32.8466 65.374 35.1362 65.6145 36.6016L65.9105 36.553ZM66.998 29.8647L67.2842 29.9548C67.7639 28.4318 68.1136 27.2115 68.3316 26.2966C68.4406 25.8394 68.5179 25.4538 68.5617 25.1424C68.6045 24.8385 68.6197 24.579 68.5882 24.387L68.2921 24.4356L67.9961 24.4841C68.0121 24.5816 68.0089 24.7654 67.9676 25.0587C67.9274 25.3444 67.8547 25.7099 67.748 26.1575C67.5347 27.0523 67.1899 28.2571 66.7119 29.7746L66.998 29.8647ZM68.2921 24.4356L68.5882 24.387C68.555 24.1848 68.4849 23.9852 68.338 23.8443C68.1765 23.6894 67.9698 23.6494 67.7673 23.6826L67.8159 23.9786L67.8644 24.2747C67.897 24.2693 67.9124 24.2724 67.9163 24.2734C67.9184 24.274 67.9193 24.2741 67.9226 24.2773C67.9345 24.2887 67.9722 24.3389 67.9961 24.4841L68.2921 24.4356ZM67.8159 23.9786L67.7673 23.6826C67.3766 23.7467 66.9352 23.9841 66.4535 24.345C65.9653 24.7108 65.4069 25.2257 64.7795 25.884L64.9966 26.0909L65.2138 26.2979C65.829 25.6525 66.3618 25.1634 66.8133 24.8252C67.2714 24.482 67.6183 24.3151 67.8644 24.2747L67.8159 23.9786ZM64.9966 26.0909L64.7795 25.8839C63.4254 27.3038 62.1015 28.8972 60.8075 30.6633L61.0495 30.8406L61.2915 31.0179C62.572 29.2703 63.8795 27.6971 65.2137 26.298L64.9966 26.0909ZM61.0495 30.8406L60.8075 30.6633C59.509 32.4357 58.321 34.4129 57.2429 36.5941L57.5119 36.727L57.7808 36.86C58.8452 34.7065 60.0156 32.7594 61.2915 31.0179L61.0495 30.8406ZM57.5119 36.727L57.2434 36.5932L54.895 41.3035L55.1635 41.4374L55.432 41.5712L57.7804 36.8609L57.5119 36.727ZM55.1635 41.4374L54.8902 41.3136C54.7967 41.5201 54.6656 41.6164 54.4843 41.6461L54.5329 41.9421L54.5815 42.2382C54.9791 42.1729 55.2684 41.9327 55.4368 41.5612L55.1635 41.4374ZM74.7749 37.4619L74.5776 37.6882L74.5864 37.6953L74.7749 37.4619ZM73.1283 30.6871L72.8295 30.6598L72.8293 30.6624L73.1283 30.6871ZM74.8719 22.0184L74.584 21.9337L74.5831 21.9371L74.8719 22.0184ZM77.3865 14.5163L77.6672 14.6222L77.6677 14.6207L77.3865 14.5163ZM80.5808 7.08107L80.8503 7.21295L80.8508 7.21194L80.5808 7.08107ZM84.1368 5.38295L83.8774 5.23225L83.8774 5.23225L84.1368 5.38295ZM81.703 9.57227L81.962 9.72355L81.9624 9.72297L81.703 9.57227ZM76.8363 20.4031L76.55 20.3131L76.5494 20.3151L76.8363 20.4031ZM74.6103 31.0236L74.3121 30.991L74.312 30.9925L74.6103 31.0236ZM79.7559 35.7529L79.5758 35.5128L79.5679 35.5191L79.7559 35.7529ZM81.0843 36.7834L81.2762 37.014L81.2874 37.0046L81.2977 36.9943L81.0843 36.7834ZM78.0571 38.1718L78.0085 37.8758C76.7408 38.0838 75.7388 37.8547 74.9633 37.2285L74.7749 37.4619L74.5864 37.6953C75.5242 38.4526 76.7104 38.6968 78.1057 38.4679L78.0571 38.1718ZM74.7749 37.4619L74.972 37.2357C74.2042 36.5666 73.7022 35.5936 73.4874 34.2844L73.1914 34.3329L72.8954 34.3815C73.127 35.7933 73.6806 36.9062 74.5778 37.688L74.7749 37.4619ZM73.1914 34.3329L73.4874 34.2844C73.3313 33.3326 73.3091 32.1437 73.4273 30.7117L73.1283 30.6871L72.8293 30.6624C72.7087 32.1232 72.7286 33.3649 72.8954 34.3815L73.1914 34.3329ZM73.1283 30.6871L73.4271 30.7143C73.6481 28.294 74.2246 25.4234 75.1606 22.0997L74.8719 22.0184L74.5831 21.9371C73.6408 25.2829 73.0549 28.1914 72.8295 30.6598L73.1283 30.6871ZM74.8719 22.0184L75.1597 22.1031C75.9018 19.5804 76.7376 17.0868 77.6671 14.6222L77.3865 14.5163L77.1058 14.4105C76.171 16.8889 75.3304 19.3967 74.5841 21.9337L74.8719 22.0184ZM77.3865 14.5163L77.6677 14.6207C78.5916 12.1298 79.6524 9.66057 80.8503 7.21295L80.5808 7.08107L80.3114 6.94919C79.1049 9.41432 78.0361 11.9019 77.1052 14.412L77.3865 14.5163ZM80.5808 7.08107L80.8508 7.21194C81.8031 5.2476 82.6341 3.76685 83.3438 2.76113C83.6988 2.25801 84.0174 1.88257 84.2991 1.62628C84.5851 1.36601 84.8079 1.2518 84.9707 1.2251L84.9221 0.929059L84.8735 0.633017C84.5442 0.687051 84.217 0.889724 83.8953 1.18249C83.5691 1.47923 83.222 1.89298 82.8535 2.41519C82.1161 3.46015 81.2686 4.97467 80.3109 6.9502L80.5808 7.08107ZM84.9221 0.929059L84.9707 1.2251C85.2718 1.17569 85.4581 1.18901 85.5608 1.22493C85.6072 1.24119 85.6282 1.25917 85.6384 1.27103C85.6481 1.28229 85.6602 1.30191 85.6668 1.34194L85.9628 1.29338L86.2588 1.2448C86.2369 1.11116 86.1843 0.985344 86.093 0.879402C86.0022 0.774062 85.886 0.703083 85.759 0.658626C85.5147 0.57311 85.2092 0.577951 84.8735 0.633017L84.9221 0.929059ZM85.9628 1.29338L85.6668 1.34194C85.6758 1.39724 85.6687 1.5218 85.6055 1.74367C85.545 1.95655 85.4421 2.22853 85.2929 2.56252C84.9949 3.22989 84.5244 4.11871 83.8774 5.23225L84.1368 5.38295L84.3962 5.53366C85.0473 4.4129 85.5301 3.50297 85.8408 2.80715C85.996 2.45955 86.1112 2.15881 86.1826 1.90788C86.2515 1.66593 86.2901 1.43555 86.2588 1.2448L85.9628 1.29338ZM84.1368 5.38295L83.8774 5.23225L81.4436 9.42156L81.703 9.57227L81.9624 9.72297L84.3962 5.53366L84.1368 5.38295ZM81.703 9.57227L81.4439 9.42098C79.3221 13.0546 77.6902 16.6853 76.5501 20.3131L76.8363 20.4031L77.1225 20.493C78.2478 16.9123 79.8604 13.3225 81.962 9.72355L81.703 9.57227ZM76.8363 20.4031L76.5494 20.3151C75.4405 23.9314 74.6945 27.4901 74.3121 30.991L74.6103 31.0236L74.9086 31.0561C75.2865 27.5955 76.0244 24.0738 77.1231 20.491L76.8363 20.4031ZM74.6103 31.0236L74.312 30.9925C74.2059 32.0124 74.2225 32.9583 74.3652 33.8283L74.6612 33.7797L74.9573 33.7311C74.8246 32.9222 74.8072 32.0307 74.9087 31.0546L74.6103 31.0236ZM74.6612 33.7797L74.3652 33.8283C74.551 34.9609 74.9292 35.8276 75.5416 36.3689C76.1653 36.9203 76.9825 37.0916 77.9432 36.9339L77.8946 36.6379L77.8461 36.3419C77.0121 36.4787 76.393 36.3208 75.939 35.9194C75.4736 35.508 75.1324 34.7984 74.9573 33.7311L74.6612 33.7797ZM77.8946 36.6379L77.9432 36.9339C78.6404 36.8196 79.3076 36.4981 79.9439 35.9867L79.7559 35.7529L79.5679 35.5191C78.9961 35.9787 78.4225 36.2473 77.8461 36.3419L77.8946 36.6379ZM79.7559 35.7529L79.9359 35.9929C80.2395 35.7652 80.4719 35.5952 80.6344 35.4815C80.716 35.4244 80.7769 35.3838 80.8189 35.3578C80.8402 35.3446 80.8529 35.3375 80.8588 35.3344C80.8753 35.3259 80.8491 35.3425 80.8045 35.3498L80.7559 35.0538L80.7073 34.7577C80.6483 34.7674 80.5989 34.7934 80.5838 34.8012C80.558 34.8145 80.5304 34.8307 80.5028 34.8478C80.4469 34.8824 80.3756 34.9304 80.2906 34.9898C80.1198 35.1092 79.8811 35.284 79.5759 35.5129L79.7559 35.7529ZM80.7559 35.0538L80.8045 35.3498C80.8989 35.3343 80.9357 35.3567 80.9631 35.3846C81.007 35.4292 81.0659 35.5347 81.102 35.755L81.398 35.7064L81.6941 35.6578C81.6495 35.386 81.561 35.1368 81.3908 34.9638C81.2042 34.7741 80.9602 34.7162 80.7073 34.7577L80.7559 35.0538ZM81.398 35.7064L81.102 35.755C81.1595 36.1058 81.0762 36.3648 80.8709 36.5726L81.0843 36.7834L81.2977 36.9943C81.6532 36.6344 81.779 36.1755 81.6941 35.6578L81.398 35.7064ZM81.0843 36.7834L80.8923 36.5529C80.0437 37.2595 79.084 37.6993 78.0085 37.8758L78.0571 38.1718L78.1057 38.4679C79.288 38.2739 80.3464 37.7882 81.2762 37.014L81.0843 36.7834ZM84.57 25.6441L84.8463 25.7611L84.8473 25.7586L84.57 25.6441ZM85.5805 23.6502L85.8376 23.805L85.8412 23.7987L85.5805 23.6502ZM86.9021 21.6499L87.1412 21.831L87.1428 21.829L86.9021 21.6499ZM89.2956 19.1169L89.1058 18.8846L89.2956 19.1169ZM92.2326 24.7883L92.4387 25.0062L92.4421 25.0029L92.2326 24.7883ZM86.1128 27.7096L86.0881 28.0086L86.1082 28.0102L86.1284 28.0092L86.1128 27.7096ZM85.433 27.6428L85.4676 27.3448L85.2255 27.3166L85.1484 27.5479L85.433 27.6428ZM85.0005 29.8986L85.2991 29.9279L85.0005 29.8986ZM91.7624 33.3372L91.9132 33.5966L91.9185 33.5934L91.7624 33.3372ZM95.6556 29.8894L95.4355 29.6855L95.4336 29.6876L95.6556 29.8894ZM97.6797 27.5508L97.9183 27.7327L97.6797 27.5508ZM99.1166 25.7099L98.912 25.4905L98.8958 25.5056L98.8819 25.523L99.1166 25.7099ZM100.021 25.5169L100.132 25.238L100.021 25.5169ZM99.6549 27.3605L99.8933 27.5429L99.8986 27.5355L99.6549 27.3605ZM98.334 29.0932L98.5677 29.2816L98.5729 29.2747L98.334 29.0932ZM96.0708 31.6048L95.8535 31.3979L95.8513 31.4002L96.0708 31.6048ZM92.2801 34.5899L92.4273 34.8513L92.2801 34.5899ZM91.2587 23.7442L91.4726 23.9545L91.474 23.9531L91.2587 23.7442ZM88.4781 22.0155L88.7146 22.2001L88.7148 22.1999L88.4781 22.0155ZM86.9245 24.2323L86.6675 24.0776L86.6668 24.0788L86.9245 24.2323ZM85.9211 26.2696L85.643 26.1572L85.5019 26.5062L85.8736 26.5658L85.9211 26.2696ZM88.1603 36.113L88.1117 35.8169C86.9727 36.0038 86.0418 35.7573 85.2851 35.0978L85.088 35.324L84.8909 35.5501C85.7991 36.3416 86.9164 36.6211 88.2089 36.409L88.1603 36.113ZM85.088 35.324L85.2851 35.0978C84.5115 34.4236 84.0258 33.5189 83.8362 32.3636L83.5402 32.4121L83.2441 32.4607C83.4535 33.7369 83.9997 34.7734 84.8909 35.5501L85.088 35.324ZM83.5402 32.4121L83.8362 32.3636C83.5055 30.3478 83.8344 28.1497 84.8463 25.7611L84.57 25.6441L84.2938 25.5271C83.2486 27.9943 82.891 30.3082 83.2441 32.4607L83.5402 32.4121ZM84.57 25.6441L84.8473 25.7586C85.1178 25.1038 85.4477 24.4525 85.8376 23.8049L85.5805 23.6502L85.3235 23.4955C84.9191 24.1672 84.5754 24.8453 84.2927 25.5296L84.57 25.6441ZM85.5805 23.6502L85.8412 23.7987C86.227 23.1217 86.6603 22.4658 87.1412 21.831L86.9021 21.6499L86.663 21.4687C86.1666 22.1238 85.7188 22.8015 85.3199 23.5017L85.5805 23.6502ZM86.9021 21.6499L87.1428 21.829C87.8602 20.8649 88.6412 20.039 89.4854 19.3493L89.2956 19.1169L89.1058 18.8846C88.22 19.6083 87.4054 20.471 86.6614 21.4708L86.9021 21.6499ZM89.2956 19.1169L89.4854 19.3493C90.319 18.6683 91.1528 18.2691 91.9877 18.1321L91.9391 17.8361L91.8905 17.54C90.9308 17.6975 90.0023 18.1522 89.1058 18.8846L89.2956 19.1169ZM91.9391 17.8361L91.9877 18.1321C92.6845 18.0178 93.179 18.1054 93.5179 18.3335C93.8528 18.559 94.0937 18.9611 94.1994 19.6055L94.4954 19.5569L94.7915 19.5083C94.6693 18.7632 94.3701 18.1839 93.8529 17.8357C93.3397 17.4902 92.67 17.4121 91.8905 17.54L91.9391 17.8361ZM94.4954 19.5569L94.1994 19.6055C94.4625 21.2088 93.7783 22.8601 92.023 24.5736L92.2326 24.7883L92.4421 25.0029C94.2739 23.2148 95.0983 21.3785 94.7915 19.5083L94.4954 19.5569ZM92.2326 24.7883L92.0264 24.5703C90.3866 26.1216 88.6911 27.0272 86.9397 27.3145L86.9883 27.6105L87.0369 27.9066C88.9327 27.5955 90.7334 26.6195 92.4387 25.0062L92.2326 24.7883ZM86.9883 27.6105L86.9397 27.3145C86.63 27.3653 86.3494 27.3969 86.0972 27.41L86.1128 27.7096L86.1284 28.0092C86.4067 27.9947 86.7098 27.9603 87.0369 27.9066L86.9883 27.6105ZM86.1128 27.7096L86.1375 27.4106C85.8993 27.391 85.676 27.369 85.4676 27.3448L85.433 27.6428L85.3984 27.9408C85.6142 27.9658 85.8441 27.9884 86.0881 28.0086L86.1128 27.7096ZM85.433 27.6428L85.1484 27.5479C84.9397 28.1737 84.7923 28.9495 84.7019 29.8692L85.0005 29.8986L85.2991 29.9279C85.3868 29.0349 85.5278 28.3068 85.7176 27.7377L85.433 27.6428ZM85.0005 29.8986L84.7019 29.8692C84.6112 30.7918 84.6175 31.5912 84.7275 32.2619L85.0236 32.2134L85.3196 32.1648C85.2207 31.5619 85.2115 30.8181 85.2991 29.9279L85.0005 29.8986ZM85.0236 32.2134L84.7275 32.2619C84.8903 33.2541 85.2386 34.0178 85.8154 34.4912C86.3999 34.9709 87.1649 35.1089 88.0606 34.9619L88.0121 34.6659L87.9635 34.3698C87.1803 34.4983 86.6078 34.3653 86.1961 34.0274C85.7768 33.6833 85.4703 33.0831 85.3196 32.1648L85.0236 32.2134ZM88.0121 34.6659L88.0606 34.9619C89.4554 34.7331 90.7404 34.2783 91.9132 33.5965L91.7624 33.3372L91.6116 33.0778C90.5049 33.7212 89.2896 34.1523 87.9635 34.3698L88.0121 34.6659ZM91.7624 33.3372L91.9185 33.5934C93.0885 32.8805 94.4084 31.7077 95.8776 30.0911L95.6556 29.8894L95.4336 29.6876C93.9819 31.285 92.7064 32.4107 91.6063 33.081L91.7624 33.3372ZM95.6556 29.8894L95.8757 30.0932C96.7868 29.1095 97.4692 28.3217 97.9183 27.7327L97.6797 27.5508L97.4411 27.3689C97.0095 27.9351 96.3425 28.7063 95.4355 29.6855L95.6556 29.8894ZM97.6797 27.5508L97.9183 27.7327C98.3571 27.1571 98.8347 26.5451 99.3512 25.8968L99.1166 25.7099L98.8819 25.523C98.3632 26.1741 97.8829 26.7895 97.4411 27.369L97.6797 27.5508ZM99.1166 25.7099L99.3212 25.9293C99.4508 25.8084 99.5485 25.7647 99.6143 25.7539L99.5657 25.4579L99.5171 25.1618C99.2934 25.1985 99.0917 25.3229 98.912 25.4905L99.1166 25.7099ZM99.5657 25.4579L99.6143 25.7539C99.697 25.7403 99.7937 25.7493 99.9106 25.7957L100.021 25.5169L100.132 25.238C99.9309 25.1583 99.7239 25.1279 99.5171 25.1618L99.5657 25.4579ZM100.021 25.5169L99.9106 25.7957C99.9682 25.8186 99.9944 25.8472 100.006 25.9206L100.302 25.872L100.599 25.8235C100.554 25.5495 100.392 25.3414 100.132 25.238L100.021 25.5169ZM100.302 25.872L100.006 25.9206C100.019 25.9962 100.004 26.1361 99.9047 26.3633C99.8085 26.5845 99.6466 26.8577 99.4112 27.1855L99.6549 27.3605L99.8986 27.5355C100.147 27.1894 100.335 26.8776 100.455 26.6027C100.572 26.3337 100.638 26.0663 100.599 25.8235L100.302 25.872ZM99.6549 27.3605L99.4167 27.1782C99.0003 27.7224 98.5598 28.3002 98.0952 28.9117L98.334 29.0932L98.5729 29.2747C99.0372 28.6637 99.4773 28.0864 99.8932 27.5428L99.6549 27.3605ZM98.334 29.0932L98.1004 28.905C97.6393 29.4773 96.8919 30.3072 95.8535 31.3979L96.0708 31.6048L96.2881 31.8116C97.3289 30.7183 98.0903 29.8738 98.5676 29.2815L98.334 29.0932ZM96.0708 31.6048L95.8513 31.4002C94.7601 32.5709 93.5208 33.5468 92.1328 34.3285L92.2801 34.5899L92.4273 34.8513C93.8692 34.0392 95.1571 33.0249 96.2902 31.8093L96.0708 31.6048ZM92.2801 34.5899L92.1328 34.3285C90.7424 35.1116 89.4023 35.6052 88.1117 35.8169L88.1603 36.113L88.2089 36.409C89.5813 36.1838 90.9877 35.662 92.4273 34.8513L92.2801 34.5899ZM86.4998 26.2639L86.5484 26.5599C87.5061 26.4028 88.3971 26.1028 89.2196 25.6592L89.0772 25.3951L88.9348 25.1311C88.1733 25.5418 87.3461 25.821 86.4513 25.9678L86.4998 26.2639ZM89.0772 25.3951L89.2196 25.6592C90.0392 25.2171 90.7902 24.6483 91.4726 23.9545L91.2587 23.7442L91.0448 23.5338C90.4024 24.187 89.6991 24.7188 88.9348 25.1311L89.0772 25.3951ZM91.2587 23.7442L91.474 23.9531C92.9593 22.422 93.7013 21.0169 93.496 19.7654L93.2 19.814L92.9039 19.8626C93.0596 20.8111 92.5074 22.0261 91.0433 23.5353L91.2587 23.7442ZM93.2 19.814L93.496 19.7654C93.4451 19.4553 93.3003 19.1913 93.0297 19.0372C92.7727 18.8907 92.4547 18.8743 92.1185 18.9294L92.1671 19.2255L92.2156 19.5215C92.4873 19.4769 92.6454 19.5088 92.7327 19.5585C92.8064 19.6005 92.8741 19.6807 92.9039 19.8626L93.2 19.814ZM92.1671 19.2255L92.1185 18.9294C90.8456 19.1383 89.5557 20.1447 88.2415 21.8311L88.4781 22.0155L88.7148 22.1999C90.0035 20.5462 91.1728 19.6926 92.2156 19.5215L92.1671 19.2255ZM88.4781 22.0155L88.2416 21.8309C87.5979 22.6556 87.0726 23.4047 86.6675 24.0776L86.9245 24.2323L87.1815 24.387C87.5707 23.7406 88.081 23.0118 88.7146 22.2001L88.4781 22.0155ZM86.9245 24.2323L86.6668 24.0788C86.2854 24.7189 85.9443 25.4119 85.643 26.1572L85.9211 26.2696L86.1993 26.3821C86.49 25.6628 86.8178 24.9976 87.1822 24.3858L86.9245 24.2323ZM85.9211 26.2696L85.8736 26.5658C86.0918 26.6009 86.3173 26.5978 86.5484 26.5599L86.4998 26.2639L86.4513 25.9678C86.2771 25.9964 86.1168 25.9972 85.9687 25.9734L85.9211 26.2696ZM97.7302 31.5109L97.4632 31.3739L97.4595 31.3817L97.7302 31.5109ZM100.828 27.8368L100.652 27.5938L100.828 27.8368ZM101.48 27.4624L101.355 27.1894L101.349 27.1928L101.48 27.4624ZM102.231 27.9634L102.403 28.2095L102.409 28.2049L102.416 28.2L102.231 27.9634ZM99.4826 30.7775L99.2246 30.6245L99.2241 30.6253L99.4826 30.7775ZM102.559 32.6805L102.4 32.4263L102.397 32.4282L102.559 32.6805ZM104.835 30.7911L104.619 30.5833L104.615 30.5872L104.835 30.7911ZM106.512 28.5095L106.778 28.6483L106.512 28.5095ZM106.339 25.2829L106.132 25.4994L106.137 25.5047L106.143 25.5097L106.339 25.2829ZM104.909 24.715L104.869 25.0125L104.874 25.013L104.909 24.715ZM101.901 24.3168L101.857 24.6136L101.861 24.6142L101.901 24.3168ZM100.188 23.6614L100.382 23.4331L100.188 23.6614ZM100.074 19.9793L99.8268 19.8095L99.8231 19.815L100.074 19.9793ZM102.278 17.9233L102.121 17.668L102.278 17.9233ZM107.59 17.141L107.466 17.4144L107.474 17.4178L107.59 17.141ZM108.733 20.0301L108.462 19.9016L108.458 19.9089L108.455 19.9163L108.733 20.0301ZM107.294 19.6865L107.028 19.5477L107.025 19.554L107.294 19.6865ZM103.144 18.8514L103.303 19.106L103.308 19.1028L103.144 18.8514ZM101.6 20.3086L101.848 20.4762L101.6 20.3086ZM103.133 23.1336L103.175 22.8366L103.172 22.8361L103.133 23.1336ZM106.055 23.5461L106.013 23.8432L106.013 23.8432L106.055 23.5461ZM107.969 24.3467L107.753 24.5545L107.759 24.5609L107.969 24.3467ZM106.964 30.1744L106.732 29.9833L106.731 29.9852L106.964 30.1744ZM100.058 34.8298L100.01 34.5337C99.2224 34.6629 98.6619 34.6196 98.2914 34.4536C97.9448 34.2982 97.7328 34.0217 97.6592 33.5736L97.3632 33.6222L97.0671 33.6707C97.1693 34.2936 97.4944 34.7539 98.0461 35.0011C98.574 35.2376 99.2731 35.2626 100.107 35.1258L100.058 34.8298ZM97.3632 33.6222L97.6592 33.5736C97.5619 32.9804 97.6676 32.3388 98.001 31.6401L97.7302 31.5109L97.4595 31.3817C97.085 32.1665 96.946 32.9324 97.0671 33.6707L97.3632 33.6222ZM97.7302 31.5109L97.9972 31.6478C98.3684 30.9239 98.8336 30.2412 99.3938 29.5996L99.1678 29.4023L98.9418 29.205C98.3509 29.8818 97.8578 30.6048 97.4633 31.374L97.7302 31.5109ZM99.1678 29.4023L99.3938 29.5996C99.959 28.9522 100.496 28.4475 101.004 28.0799L100.828 27.8368L100.652 27.5938C100.098 27.9951 99.5277 28.534 98.9418 29.205L99.1678 29.4023ZM100.828 27.8368L101.004 28.0799C101.144 27.9786 101.345 27.8624 101.612 27.732L101.48 27.4624L101.349 27.1928C101.065 27.331 100.831 27.4644 100.652 27.5938L100.828 27.8368ZM101.48 27.4624L101.605 27.7352C101.898 27.6012 102.124 27.527 102.289 27.4999L102.24 27.2039L102.192 26.9078C101.952 26.9472 101.671 27.0454 101.355 27.1895L101.48 27.4624ZM102.24 27.2039L102.289 27.4999C102.329 27.4933 102.356 27.493 102.37 27.4942C102.385 27.4954 102.383 27.4976 102.373 27.4922C102.368 27.4895 102.361 27.4853 102.355 27.4795C102.348 27.4737 102.343 27.4674 102.339 27.4616C102.332 27.4499 102.333 27.4451 102.334 27.456L102.631 27.4074L102.927 27.3588C102.9 27.1998 102.816 27.0468 102.65 26.9603C102.502 26.8831 102.336 26.8842 102.192 26.9078L102.24 27.2039ZM102.631 27.4074L102.334 27.456C102.328 27.4157 102.35 27.4169 102.305 27.4799C102.262 27.5396 102.181 27.622 102.047 27.7267L102.231 27.9634L102.416 28.2C102.571 28.0788 102.702 27.9556 102.792 27.8299C102.88 27.7076 102.957 27.5439 102.927 27.3588L102.631 27.4074ZM102.231 27.9634L102.06 27.7173C100.806 28.5909 99.8567 29.5585 99.2246 30.6245L99.4826 30.7775L99.7406 30.9305C100.319 29.9548 101.202 29.0464 102.403 28.2095L102.231 27.9634ZM99.4826 30.7775L99.2241 30.6253C98.6387 31.6196 98.3415 32.4694 98.4501 33.1317L98.7462 33.0831L99.0422 33.0346C98.9704 32.597 99.1642 31.9097 99.7411 30.9297L99.4826 30.7775ZM98.7462 33.0831L98.4501 33.1317C98.5101 33.4972 98.726 33.7628 99.0722 33.8945C99.3914 34.0159 99.8013 34.0166 100.269 33.9399L100.22 33.6439L100.172 33.3478C99.7421 33.4183 99.4577 33.3992 99.2855 33.3337C99.1402 33.2785 99.0677 33.1902 99.0422 33.0346L98.7462 33.0831ZM100.22 33.6439L100.269 33.9399C101.071 33.8083 101.889 33.4683 102.722 32.9328L102.559 32.6805L102.397 32.4282C101.616 32.9303 100.875 33.2325 100.172 33.3478L100.22 33.6439ZM102.559 32.6805L102.719 32.9347C103.577 32.3969 104.356 31.7501 105.056 30.9949L104.835 30.7911L104.615 30.5872C103.951 31.3042 103.213 31.917 102.4 32.4263L102.559 32.6805ZM104.835 30.7911L105.052 30.9988C105.779 30.2407 106.356 29.4575 106.778 28.6483L106.512 28.5095L106.246 28.3707C105.854 29.1219 105.313 29.8597 104.619 30.5834L104.835 30.7911ZM106.512 28.5095L106.778 28.6483C107.204 27.8311 107.38 27.056 107.262 26.3354L106.966 26.384L106.67 26.4325C106.761 26.9856 106.634 27.6275 106.246 28.3707L106.512 28.5095ZM106.966 26.384L107.262 26.3354C107.179 25.8289 106.933 25.3998 106.536 25.0561L106.339 25.2829L106.143 25.5097C106.439 25.7657 106.611 26.0707 106.67 26.4325L106.966 26.384ZM106.339 25.2829L106.547 25.0664C106.165 24.6999 105.616 24.4952 104.943 24.417L104.909 24.715L104.874 25.013C105.474 25.0827 105.879 25.2566 106.132 25.4994L106.339 25.2829ZM104.909 24.715L104.948 24.4176L101.94 24.0194L101.901 24.3168L101.861 24.6142L104.869 25.0124L104.909 24.715ZM101.901 24.3168L101.944 24.02C101.211 23.9113 100.703 23.706 100.382 23.4331L100.188 23.6614L99.9932 23.8898C100.433 24.265 101.067 24.4966 101.857 24.6136L101.901 24.3168ZM100.188 23.6614L100.382 23.4331C100.053 23.1519 99.8634 22.8205 99.7997 22.4321L99.5036 22.4806L99.2076 22.5292C99.2958 23.0671 99.5628 23.5229 99.9932 23.8898L100.188 23.6614ZM99.5036 22.4806L99.7997 22.4321C99.6704 21.6443 99.8397 20.8857 100.325 20.1435L100.074 19.9793L99.8231 19.815C99.263 20.6712 99.0519 21.5802 99.2076 22.5292L99.5036 22.4806ZM100.074 19.9793L100.322 20.149C100.847 19.383 101.55 18.7257 102.436 18.1785L102.278 17.9233L102.121 17.668C101.171 18.2543 100.405 18.9676 99.8268 19.8095L100.074 19.9793ZM102.278 17.9233L102.436 18.1785C103.325 17.6294 104.211 17.286 105.093 17.1413L105.044 16.8453L104.996 16.5492C104.026 16.7084 103.067 17.0838 102.121 17.668L102.278 17.9233ZM105.044 16.8453L105.093 17.1413C105.967 16.9978 106.755 17.0922 107.466 17.4143L107.59 17.141L107.714 16.8678C106.883 16.4915 105.974 16.3887 104.996 16.5492L105.044 16.8453ZM107.59 17.141L107.474 17.4178C108.155 17.7024 108.523 18.1587 108.628 18.7988L108.924 18.7503L109.22 18.7017C109.078 17.8367 108.557 17.2201 107.706 16.8643L107.59 17.141ZM108.924 18.7503L108.628 18.7988C108.689 19.1695 108.636 19.5345 108.462 19.9016L108.733 20.0301L109.004 20.1587C109.227 19.6877 109.302 19.1995 109.22 18.7017L108.924 18.7503ZM108.733 20.0301L108.455 19.9163C108.308 20.2757 108.13 20.4047 107.952 20.4339L108 20.7299L108.049 21.026C108.508 20.9507 108.818 20.6132 109.01 20.1439L108.733 20.0301ZM108 20.7299L107.952 20.4339C107.739 20.4688 107.627 20.441 107.572 20.4094C107.531 20.3851 107.481 20.3348 107.458 20.1946L107.162 20.2432L106.866 20.2917C106.91 20.5568 107.034 20.7903 107.271 20.9282C107.496 21.0589 107.77 21.0718 108.049 21.026L108 20.7299ZM107.162 20.2432L107.458 20.1946C107.45 20.142 107.462 20.0254 107.563 19.8191L107.294 19.6865L107.025 19.554C106.904 19.8004 106.828 20.0549 106.866 20.2917L107.162 20.2432ZM107.294 19.6865L107.56 19.8253C107.713 19.5316 107.791 19.2329 107.744 18.9439L107.448 18.9925L107.152 19.041C107.171 19.1573 107.146 19.3213 107.028 19.5477L107.294 19.6865ZM107.448 18.9925L107.744 18.9439C107.658 18.4207 107.38 18.0306 106.909 17.823C106.462 17.626 105.877 17.6086 105.188 17.7215L105.237 18.0176L105.285 18.3136C105.928 18.2081 106.377 18.244 106.667 18.372C106.933 18.4892 107.095 18.6959 107.152 19.041L107.448 18.9925ZM105.237 18.0176L105.188 17.7215C104.42 17.8476 103.683 18.1422 102.98 18.6L103.144 18.8514L103.308 19.1028C103.948 18.6862 104.606 18.425 105.285 18.3136L105.237 18.0176ZM103.144 18.8514L102.985 18.5968C102.306 19.02 101.759 19.5342 101.351 20.1411L101.6 20.3086L101.848 20.4762C102.205 19.9469 102.687 19.4896 103.303 19.106L103.144 18.8514ZM101.6 20.3086L101.351 20.1411C100.933 20.7612 100.763 21.4109 100.872 22.0777L101.168 22.0291L101.465 21.9806C101.384 21.4895 101.501 20.9922 101.848 20.4762L101.6 20.3086ZM101.168 22.0291L100.872 22.0777C100.939 22.4814 101.201 22.7859 101.584 23.001C101.959 23.2121 102.47 23.3502 103.095 23.4311L103.133 23.1336L103.172 22.8361C102.581 22.7596 102.157 22.635 101.878 22.4779C101.606 22.3249 101.493 22.1558 101.465 21.9806L101.168 22.0291ZM103.133 23.1336L103.091 23.4307L106.013 23.8432L106.055 23.5461L106.096 23.2491L103.175 22.8366L103.133 23.1336ZM106.055 23.5461L106.013 23.8432C106.864 23.9617 107.425 24.2128 107.753 24.5544L107.969 24.3467L108.186 24.1389C107.725 23.6587 107.009 23.3761 106.096 23.249L106.055 23.5461ZM107.969 24.3467L107.759 24.5609C108.102 24.8972 108.313 25.3047 108.393 25.7931L108.689 25.7446L108.985 25.696C108.885 25.0845 108.616 24.5601 108.179 24.1324L107.969 24.3467ZM108.689 25.7446L108.393 25.7931C108.586 26.9692 108.075 28.3588 106.732 29.9833L106.964 30.1744L107.195 30.3655C108.581 28.6887 109.22 27.1251 108.985 25.696L108.689 25.7446ZM106.964 30.1744L106.731 29.9852C104.556 32.6621 102.314 34.1557 100.01 34.5337L100.058 34.8298L100.107 35.1258C102.608 34.7155 104.969 33.1055 107.197 30.3635L106.964 30.1744ZM111.172 29.3056L110.905 29.1687L110.901 29.1765L111.172 29.3056ZM114.27 25.6316L114.094 25.3885L114.27 25.6316ZM114.922 25.2571L114.797 24.9842L114.79 24.9875L114.922 25.2571ZM115.673 25.7581L115.844 26.0042L115.851 25.9997L115.857 25.9948L115.673 25.7581ZM112.924 28.5723L112.666 28.4192L112.665 28.42L112.924 28.5723ZM116.001 30.4752L115.841 30.221L115.838 30.2229L116.001 30.4752ZM118.277 28.5858L118.06 28.3781L118.057 28.3819L118.277 28.5858ZM119.954 26.3042L120.22 26.443L119.954 26.3042ZM119.781 23.0776L119.573 23.2941L119.579 23.2994L119.585 23.3045L119.781 23.0776ZM118.35 22.5098L118.311 22.8072L118.315 22.8078L118.35 22.5098ZM115.342 22.1116L115.298 22.4084L115.303 22.409L115.342 22.1116ZM113.629 21.4562L113.824 21.2279L113.629 21.4562ZM113.516 17.774L113.268 17.6042L113.265 17.6098L113.516 17.774ZM115.72 15.718L115.562 15.4628L115.72 15.718ZM121.031 14.9358L120.907 15.2092L120.916 15.2126L121.031 14.9358ZM122.174 17.8249L121.903 17.6963L121.9 17.7036L121.896 17.7111L122.174 17.8249ZM120.735 17.4813L120.469 17.3425L120.466 17.3487L120.735 17.4813ZM116.585 16.6461L116.744 16.9008L116.749 16.8975L116.585 16.6461ZM115.041 18.1034L115.29 18.2709L115.041 18.1034ZM116.575 20.9284L116.617 20.6313L116.613 20.6309L116.575 20.9284ZM119.496 21.3409L119.454 21.6379L119.455 21.638L119.496 21.3409ZM121.411 22.1414L121.194 22.3492L121.201 22.3556L121.411 22.1414ZM120.405 27.9691L120.174 27.778L120.172 27.78L120.405 27.9691ZM113.5 32.6245L113.451 32.3285C112.664 32.4576 112.103 32.4143 111.733 32.2483C111.386 32.093 111.174 31.8165 111.101 31.3683L110.805 31.4169L110.509 31.4655C110.611 32.0884 110.936 32.5486 111.487 32.7958C112.015 33.0324 112.715 33.0573 113.548 32.9206L113.5 32.6245ZM110.805 31.4169L111.101 31.3683C111.003 30.7751 111.109 30.1335 111.442 29.4348L111.172 29.3056L110.901 29.1765C110.526 29.9612 110.387 30.7271 110.509 31.4655L110.805 31.4169ZM111.172 29.3056L111.439 29.4425C111.81 28.7187 112.275 28.036 112.835 27.3944L112.609 27.1971L112.383 26.9998C111.792 27.6766 111.299 28.3996 110.905 29.1687L111.172 29.3056ZM112.609 27.1971L112.835 27.3944C113.4 26.747 113.937 26.2422 114.445 25.8747L114.27 25.6316L114.094 25.3885C113.539 25.7899 112.969 26.3288 112.383 26.9998L112.609 27.1971ZM114.27 25.6316L114.445 25.8747C114.586 25.7734 114.786 25.6571 115.053 25.5267L114.922 25.2571L114.79 24.9875C114.507 25.1257 114.273 25.2592 114.094 25.3885L114.27 25.6316ZM114.922 25.2571L115.046 25.5299C115.339 25.3959 115.565 25.3217 115.73 25.2947L115.682 24.9986L115.633 24.7026C115.393 24.742 115.112 24.8401 114.797 24.9843L114.922 25.2571ZM115.682 24.9986L115.73 25.2947C115.771 25.288 115.797 25.2877 115.812 25.289C115.826 25.2901 115.825 25.2923 115.814 25.287C115.809 25.2842 115.803 25.2801 115.796 25.2743C115.79 25.2684 115.785 25.2622 115.781 25.2564C115.773 25.2447 115.774 25.2399 115.776 25.2507L116.072 25.2021L116.368 25.1536C116.342 24.9945 116.258 24.8416 116.092 24.755C115.944 24.6778 115.777 24.6789 115.633 24.7026L115.682 24.9986ZM116.072 25.2021L115.776 25.2507C115.769 25.2104 115.791 25.2117 115.746 25.2747C115.703 25.3343 115.623 25.4168 115.488 25.5215L115.673 25.7581L115.857 25.9948C116.013 25.8735 116.143 25.7504 116.234 25.6247C116.321 25.5024 116.398 25.3386 116.368 25.1536L116.072 25.2021ZM115.673 25.7581L115.501 25.512C114.248 26.3856 113.298 27.3533 112.666 28.4192L112.924 28.5723L113.182 28.7253C113.761 27.7496 114.643 26.8412 115.844 26.0042L115.673 25.7581ZM112.924 28.5723L112.665 28.42C112.08 29.4143 111.783 30.2641 111.892 30.9265L112.188 30.8779L112.484 30.8293C112.412 30.3917 112.606 29.7044 113.183 28.7245L112.924 28.5723ZM112.188 30.8779L111.892 30.9265C111.951 31.2919 112.167 31.5576 112.514 31.6893C112.833 31.8107 113.243 31.8114 113.71 31.7347L113.662 31.4386L113.613 31.1426C113.184 31.2131 112.899 31.1939 112.727 31.1285C112.582 31.0732 112.509 30.9849 112.484 30.8293L112.188 30.8779ZM113.662 31.4386L113.71 31.7347C114.512 31.6031 115.33 31.263 116.163 30.7276L116.001 30.4752L115.838 30.2229C115.058 30.725 114.316 31.0272 113.613 31.1426L113.662 31.4386ZM116.001 30.4752L116.16 30.7295C117.018 30.1917 117.797 29.5448 118.497 28.7897L118.277 28.5858L118.057 28.3819C117.393 29.099 116.654 29.7118 115.841 30.221L116.001 30.4752ZM118.277 28.5858L118.493 28.7935C119.221 28.0355 119.797 27.2522 120.22 26.443L119.954 26.3042L119.688 26.1655C119.296 26.9167 118.755 27.6545 118.06 28.3781L118.277 28.5858ZM119.954 26.3042L120.22 26.443C120.646 25.6259 120.822 24.8507 120.703 24.1302L120.407 24.1787L120.111 24.2273C120.202 24.7804 120.075 25.4222 119.688 26.1655L119.954 26.3042ZM120.407 24.1787L120.703 24.1302C120.62 23.6237 120.374 23.1945 119.977 22.8508L119.781 23.0776L119.585 23.3045C119.88 23.5605 120.052 23.8654 120.111 24.2273L120.407 24.1787ZM119.781 23.0776L119.989 22.8612C119.607 22.4947 119.058 22.29 118.385 22.2118L118.35 22.5098L118.315 22.8078C118.915 22.8775 119.32 23.0514 119.573 23.2941L119.781 23.0776ZM118.35 22.5098L118.389 22.2124L115.381 21.8142L115.342 22.1116L115.303 22.409L118.311 22.8072L118.35 22.5098ZM115.342 22.1116L115.386 21.8148C114.652 21.7061 114.144 21.5007 113.824 21.2279L113.629 21.4562L113.435 21.6845C113.875 22.0598 114.508 22.2913 115.298 22.4083L115.342 22.1116ZM113.629 21.4562L113.824 21.2279C113.494 20.9467 113.305 20.6152 113.241 20.2268L112.945 20.2754L112.649 20.324C112.737 20.8618 113.004 21.3176 113.435 21.6845L113.629 21.4562ZM112.945 20.2754L113.241 20.2268C113.112 19.4391 113.281 18.6805 113.767 17.9383L113.516 17.774L113.265 17.6098C112.704 18.466 112.493 19.3749 112.649 20.324L112.945 20.2754ZM113.516 17.774L113.763 17.9438C114.289 17.1778 114.991 16.5204 115.877 15.9733L115.72 15.718L115.562 15.4628C114.613 16.0491 113.846 16.7624 113.268 17.6043L113.516 17.774ZM115.72 15.718L115.877 15.9733C116.767 15.4241 117.652 15.0808 118.534 14.936L118.486 14.64L118.437 14.344C117.467 14.5031 116.508 14.8785 115.562 15.4628L115.72 15.718ZM118.486 14.64L118.534 14.936C119.409 14.7926 120.196 14.887 120.907 15.2091L121.031 14.9358L121.155 14.6625C120.325 14.2863 119.415 14.1835 118.437 14.344L118.486 14.64ZM121.031 14.9358L120.916 15.2126C121.596 15.4971 121.964 15.9534 122.069 16.5936L122.365 16.545L122.661 16.4965C122.519 15.6314 121.998 15.0149 121.147 14.659L121.031 14.9358ZM122.365 16.545L122.069 16.5936C122.13 16.9642 122.077 17.3292 121.903 17.6963L122.174 17.8249L122.445 17.9535C122.669 17.4824 122.743 16.9942 122.661 16.4965L122.365 16.545ZM122.174 17.8249L121.896 17.7111C121.749 18.0704 121.571 18.1994 121.393 18.2286L121.442 18.5247L121.49 18.8207C121.949 18.7455 122.259 18.408 122.452 17.9387L122.174 17.8249ZM121.442 18.5247L121.393 18.2286C121.18 18.2636 121.068 18.2357 121.014 18.2041C120.972 18.1798 120.923 18.1296 120.9 17.9893L120.604 18.0379L120.308 18.0865C120.351 18.3515 120.475 18.585 120.712 18.7229C120.937 18.8536 121.211 18.8665 121.49 18.8207L121.442 18.5247ZM120.604 18.0379L120.9 17.9893C120.891 17.9367 120.903 17.8202 121.005 17.6138L120.735 17.4813L120.466 17.3487C120.345 17.5951 120.269 17.8496 120.308 18.0865L120.604 18.0379ZM120.735 17.4813L121.001 17.62C121.155 17.3263 121.233 17.0276 121.185 16.7387L120.889 16.7872L120.593 16.8358C120.612 16.9521 120.588 17.1161 120.469 17.3425L120.735 17.4813ZM120.889 16.7872L121.185 16.7387C121.099 16.2154 120.822 15.8254 120.351 15.6177C119.904 15.4207 119.318 15.4033 118.63 15.5163L118.678 15.8123L118.727 16.1084C119.37 16.0029 119.818 16.0387 120.108 16.1667C120.374 16.284 120.536 16.4907 120.593 16.8358L120.889 16.7872ZM118.678 15.8123L118.63 15.5163C117.861 15.6424 117.125 15.937 116.422 16.3947L116.585 16.6461L116.749 16.8975C117.389 16.481 118.048 16.2198 118.727 16.1084L118.678 15.8123ZM116.585 16.6461L116.427 16.3915C115.748 16.8148 115.201 17.329 114.792 17.9359L115.041 18.1034L115.29 18.2709C115.646 17.7417 116.129 17.2844 116.744 16.9007L116.585 16.6461ZM115.041 18.1034L114.792 17.9359C114.375 18.556 114.204 19.2056 114.314 19.8725L114.61 19.8239L114.906 19.7753C114.825 19.2843 114.943 18.7869 115.29 18.2709L115.041 18.1034ZM114.61 19.8239L114.314 19.8725C114.38 20.2761 114.643 20.5806 115.025 20.7957C115.401 21.0068 115.912 21.145 116.536 21.2259L116.575 20.9284L116.613 20.6309C116.023 20.5544 115.599 20.4298 115.319 20.2727C115.047 20.1196 114.935 19.9506 114.906 19.7753L114.61 19.8239ZM116.575 20.9284L116.533 21.2254L119.454 21.6379L119.496 21.3409L119.538 21.0438L116.617 20.6313L116.575 20.9284ZM119.496 21.3409L119.455 21.638C120.305 21.7564 120.866 22.0075 121.194 22.3491L121.411 22.1414L121.627 21.9337C121.166 21.4535 120.451 21.1709 119.537 21.0437L119.496 21.3409ZM121.411 22.1414L121.201 22.3556C121.544 22.6919 121.754 23.0994 121.835 23.5879L122.131 23.5393L122.427 23.4907C122.326 22.8792 122.057 22.3548 121.621 21.9272L121.411 22.1414ZM122.131 23.5393L121.835 23.5879C122.028 24.764 121.516 26.1536 120.174 27.778L120.405 27.9691L120.636 28.1602C122.022 26.4834 122.661 24.9198 122.427 23.4907L122.131 23.5393ZM120.405 27.9691L120.172 27.78C117.998 30.4568 115.755 31.9504 113.451 32.3285L113.5 32.6245L113.548 32.9206C116.049 32.5102 118.41 30.9003 120.638 28.1583L120.405 27.9691Z" fill="#EF6E84" mask="url(#path-2-outside-1_748_5245)"/>
</g>
</g>
</svg>
