<svg width="75" height="38" viewBox="0 0 75 38" fill="none" xmlns="http://www.w3.org/2000/svg">
<mask id="mask0_797_5408" style="mask-type:alpha" maskUnits="userSpaceOnUse" x="0" y="0" width="75" height="38">
<rect x="0.5" y="0.5" width="74" height="37" fill="#D9D9D9" stroke="#F33E5C"/>
</mask>
<g mask="url(#mask0_797_5408)">
<mask id="path-2-outside-1_797_5408" maskUnits="userSpaceOnUse" x="-4.43521" y="-3.13175" width="83.1386" height="44.3679" fill="black">
<rect fill="white" x="-4.43521" y="-3.13175" width="83.1386" height="44.3679"/>
<path d="M1.54041 37.6198C1.04043 37.7018 0.749424 37.4928 0.667395 36.9928C0.645809 36.8613 0.661536 36.71 0.714576 36.5392C0.789614 36.3377 0.860335 36.1099 0.926739 35.8558C1.19194 35.0016 1.44615 34.1627 1.68935 33.3392C1.93256 32.5156 2.18913 31.6088 2.45906 30.6187C2.75099 29.5979 3.0718 28.4238 3.4215 27.0964C3.79751 25.7646 4.23777 24.1656 4.74227 22.2993C5.32181 20.2315 5.86794 18.3719 6.38067 16.7204C6.8934 15.0689 7.39256 13.5818 7.87814 12.2591C7.32944 12.5383 6.79605 12.8285 6.27798 13.1297C5.7819 13.4002 5.39992 13.625 5.13205 13.8041C4.84217 14.0138 4.64892 14.1536 4.5523 14.2235C4.47767 14.2627 4.38773 14.291 4.28247 14.3083C3.91406 14.3687 3.69748 14.2016 3.63272 13.8069C3.59818 13.5963 3.70837 13.3621 3.9633 13.1041C4.74534 12.4353 6.27972 11.5755 8.56644 10.5248C8.77819 10.0036 8.98542 9.53726 9.18813 9.12568C9.2938 8.9462 9.43442 8.81504 9.60999 8.73219C9.81187 8.64502 9.9786 8.59064 10.1102 8.56906C10.347 8.5302 10.4827 8.61603 10.5172 8.82655C10.5518 9.03707 10.505 9.32849 10.3769 9.7008C13.5368 8.37169 16.1561 7.5366 18.235 7.19553C23.1296 6.39251 25.8143 7.43832 26.2892 10.333C26.5353 11.8329 26.3433 13.2156 25.7132 14.4809C25.083 15.7463 24.1397 16.9144 22.8832 17.9853C21.653 19.0519 20.2476 20.0391 18.667 20.947C14.8037 23.0941 11.3589 24.416 8.33271 24.9124C7.93799 24.9772 7.69961 24.7596 7.61758 24.2596C7.56578 23.9438 7.75039 23.7514 8.17143 23.6823C11.145 23.1945 14.4625 21.9206 18.124 19.8606C19.5816 19.0269 20.8509 18.1161 21.9318 17.1281C23.0085 16.1137 23.8222 15.0614 24.3729 13.9712C24.9194 12.8547 25.1063 11.7701 24.9336 10.7175C24.5795 8.55968 22.4289 7.80457 18.4817 8.45217C17.2975 8.64645 15.9771 8.99821 14.5203 9.50744C13.0592 9.99036 11.4486 10.6329 9.68863 11.4351C9.12368 12.933 8.54085 14.569 7.94014 16.3429C7.36142 18.0863 6.79544 19.9897 6.24222 22.0532L3.30833 32.8303C3.17121 33.3122 3.00088 33.9212 2.79735 34.6572C2.58951 35.3669 2.35083 36.1356 2.08131 36.9635C1.95754 37.3622 1.77725 37.5809 1.54041 37.6198ZM27.1289 32.6514C24.9974 33.0011 23.7352 31.9787 23.3424 29.584C23.161 28.4788 23.2342 27.2778 23.5619 25.9809C23.8896 24.6841 24.4035 23.4513 25.1035 22.2826C25.7992 21.0875 26.6194 20.0747 27.564 19.2441C28.535 18.4092 29.5731 17.9011 30.6783 17.7198C31.652 17.5601 32.4229 17.8119 32.9912 18.4753C33.5594 19.1387 33.9169 19.9178 34.0637 20.8125C34.258 21.9967 34.2198 23.246 33.949 24.5605C33.6739 25.8487 33.2127 27.0729 32.5653 28.233C31.9179 29.3931 31.1329 30.3731 30.2102 31.1731C29.2876 31.973 28.2605 32.4658 27.1289 32.6514ZM26.8822 31.3948C27.0401 31.3689 27.1301 31.3406 27.1521 31.31C28.1568 31.01 29.0437 30.4862 29.8127 29.7385C30.5818 28.9908 31.2088 28.1178 31.6935 27.1195C32.2003 26.0905 32.5384 25.0217 32.7078 23.9129C32.8772 22.8042 32.8777 21.7367 32.7093 20.7104C32.61 20.1052 32.3613 19.6596 31.963 19.3736C31.5648 19.0877 31.1026 18.9879 30.5763 19.0742C29.8131 19.1994 29.0492 19.649 28.2844 20.423C27.546 21.1928 26.875 22.127 26.2716 23.2259C25.6946 24.3204 25.2577 25.446 24.961 26.6026C24.6601 27.7329 24.5787 28.7191 24.7168 29.5612C24.9499 30.9822 25.6718 31.5934 26.8822 31.3948ZM43.0436 14.2724C42.5963 14.3458 42.3359 14.1588 42.2625 13.7114C42.2409 13.5799 42.2942 13.3279 42.4223 12.9556C42.546 12.557 42.6961 12.154 42.8725 11.7468C43.0489 11.3395 43.1921 11.0593 43.3021 10.9061C43.6674 10.3328 43.9577 9.96086 44.1729 9.79043C44.4145 9.61568 44.6405 9.51104 44.851 9.4765C45.4037 9.38583 45.721 9.59049 45.803 10.0905C45.8332 10.2747 45.7515 10.5178 45.5578 10.8198C45.3862 11.0912 45.1729 11.3559 44.918 11.6139C44.5401 11.9461 44.3115 12.1998 44.2321 12.3749L43.5645 13.741C43.5555 13.8506 43.5069 13.9667 43.4189 14.0892C43.353 14.1811 43.2279 14.2422 43.0436 14.2724ZM38.9561 31.3596C38.2193 31.4805 37.6561 31.4242 37.2665 31.1909C36.9033 30.9532 36.6741 30.545 36.5792 29.966C36.4885 29.4134 36.5365 28.6354 36.7232 27.6319C36.9055 26.6021 37.1692 25.4915 37.5142 24.2999C37.8854 23.104 38.2917 21.9564 38.7329 20.8572C39.174 19.7579 39.6191 18.8472 40.0681 18.1249C40.5391 17.3721 40.9457 16.9676 41.2878 16.9115C41.7614 16.8338 42.0328 17.0054 42.1019 17.4265C42.145 17.6896 42.0034 18.2263 41.6769 19.0365C41.3505 19.8467 40.9888 20.6897 40.5921 21.5655C40.429 21.8895 40.2043 22.3317 39.9179 22.8922C39.6316 23.4526 39.354 23.9845 39.0853 24.488C38.8123 24.9652 38.6361 25.2913 38.5568 25.4665C38.3584 25.9044 38.1879 26.5944 38.0452 27.5366C37.8762 28.4831 37.8306 29.1932 37.9083 29.6669C37.9428 29.8774 38.0082 30.0288 38.1044 30.1211C38.2269 30.2091 38.4592 30.2251 38.8013 30.1689C39.4592 30.061 40.1615 29.7296 40.9082 29.1747C41.6548 28.6198 42.3974 27.9576 43.1359 27.1878C43.87 26.3918 44.5494 25.5913 45.1739 24.7862C45.8248 23.9768 46.3724 23.2789 46.8167 22.6926C46.9046 22.5701 47.0539 22.4916 47.2644 22.457C47.6591 22.3923 47.8824 22.5178 47.9342 22.8335C47.9817 23.123 47.8515 23.4822 47.5435 23.911C46.9496 24.7381 46.3953 25.4776 45.8807 26.1295C45.3662 26.7814 44.8671 27.3632 44.3836 27.8749C43.6188 28.6489 42.7533 29.3854 41.787 30.0844C40.8208 30.7834 39.8772 31.2085 38.9561 31.3596ZM45.5258 30.8492C45.1048 30.9183 44.8662 30.7818 44.8101 30.4397C44.7885 30.3081 44.8152 30.1416 44.8902 29.9401C44.961 29.7123 45.025 29.5262 45.0824 29.3817L47.4627 21.6543C48.4795 18.2988 48.9599 16.4499 48.9037 16.1079C48.8433 15.7394 48.9973 15.525 49.3657 15.4646C49.8657 15.3825 50.1588 15.6047 50.2452 16.131C50.2754 16.3152 50.2218 16.7293 50.0842 17.3734C49.9467 18.0175 49.7563 18.7514 49.5131 19.5749C49.106 21.0469 48.7524 22.1859 48.4523 22.9918C49.0906 21.9412 49.7508 20.9412 50.4327 19.9916C51.1146 19.042 51.8162 18.1297 52.5374 17.2547C54.6789 14.6604 56.4207 13.2532 57.7628 13.033C58.6838 12.8819 59.2156 13.2405 59.358 14.1089C59.4876 14.8984 59.108 16.7847 58.2192 19.768C57.3348 22.7775 56.953 24.6507 57.0739 25.3875C57.13 25.7296 57.2765 25.8812 57.5133 25.8424C57.5923 25.8294 57.7064 25.7837 57.8556 25.7052C58.0269 25.596 58.2046 25.5263 58.3888 25.4961C58.8362 25.4227 59.0944 25.5965 59.1635 26.0175C59.2498 26.5438 58.7272 26.8998 57.5957 27.0855C57.0694 27.1718 56.6684 27.116 56.3927 26.918C56.1127 26.6937 55.9382 26.371 55.8691 25.95C55.6618 24.6869 55.9914 22.6601 56.8577 19.8697C57.7284 17.1056 58.1205 15.4604 58.0342 14.9342C57.9824 14.6184 57.8381 14.4799 57.6012 14.5188C57.0223 14.6137 56.168 15.2538 55.0383 16.439C53.8163 17.7205 52.6202 19.1598 51.45 20.7569C50.2798 22.3541 49.2078 24.1379 48.234 26.1082L46.0991 30.3904C45.98 30.6531 45.789 30.806 45.5258 30.8492ZM62.9204 29.7789C62.4205 29.8609 62.1057 29.5072 61.9762 28.7178C61.7862 27.5599 62.0985 25.4279 62.913 22.3217C63.7539 19.2112 65.0795 15.1024 66.8898 9.99527C65.8899 10.1593 64.9641 10.4463 64.1126 10.8563C63.2831 11.2356 62.8722 11.6137 62.88 11.9908C62.871 12.1004 62.8225 12.2164 62.7345 12.3389C62.6685 12.4308 62.5434 12.4919 62.3592 12.5221C61.9381 12.5912 61.6931 12.4152 61.624 11.9942C61.5117 11.31 61.9584 10.6557 62.9639 10.0314C63.9694 9.40699 65.4458 8.93507 67.3931 8.61558L69.3784 3.6689C69.5152 3.34922 69.6607 3.00106 69.8151 2.62443C69.9652 2.22148 70.1373 1.7879 70.3313 1.32369C70.534 0.912108 70.8064 0.678255 71.1485 0.62213C71.359 0.587591 71.5277 0.627474 71.6546 0.741779C71.7771 0.829769 71.8492 0.939552 71.8707 1.07113C71.9355 1.46585 71.5293 2.61343 70.652 4.51385C69.5544 6.88281 68.9681 8.16802 68.8931 8.3695C69.2878 8.30474 69.8863 8.24707 70.6887 8.1965C71.4868 8.11961 72.4361 8.05844 73.5366 8.01301C73.9356 7.97456 74.1654 8.13954 74.2258 8.50795C74.2949 8.92899 74.0926 9.17836 73.6189 9.25608C73.4347 9.2863 73.062 9.32042 72.5008 9.35846C71.9352 9.37018 71.3323 9.40153 70.6921 9.45252C70.0519 9.5035 69.5103 9.57885 69.0673 9.67856L68.4817 9.81517C64.6811 20.086 62.9817 26.3639 63.3836 28.649L63.4749 28.9583L63.4879 29.0373C63.5569 29.4583 63.3678 29.7055 62.9204 29.7789Z"/>
</mask>
<path d="M1.54041 37.6198C1.04043 37.7018 0.749424 37.4928 0.667395 36.9928C0.645809 36.8613 0.661536 36.71 0.714576 36.5392C0.789614 36.3377 0.860335 36.1099 0.926739 35.8558C1.19194 35.0016 1.44615 34.1627 1.68935 33.3392C1.93256 32.5156 2.18913 31.6088 2.45906 30.6187C2.75099 29.5979 3.0718 28.4238 3.4215 27.0964C3.79751 25.7646 4.23777 24.1656 4.74227 22.2993C5.32181 20.2315 5.86794 18.3719 6.38067 16.7204C6.8934 15.0689 7.39256 13.5818 7.87814 12.2591C7.32944 12.5383 6.79605 12.8285 6.27798 13.1297C5.7819 13.4002 5.39992 13.625 5.13205 13.8041C4.84217 14.0138 4.64892 14.1536 4.5523 14.2235C4.47767 14.2627 4.38773 14.291 4.28247 14.3083C3.91406 14.3687 3.69748 14.2016 3.63272 13.8069C3.59818 13.5963 3.70837 13.3621 3.9633 13.1041C4.74534 12.4353 6.27972 11.5755 8.56644 10.5248C8.77819 10.0036 8.98542 9.53726 9.18813 9.12568C9.2938 8.9462 9.43442 8.81504 9.60999 8.73219C9.81187 8.64502 9.9786 8.59064 10.1102 8.56906C10.347 8.5302 10.4827 8.61603 10.5172 8.82655C10.5518 9.03707 10.505 9.32849 10.3769 9.7008C13.5368 8.37169 16.1561 7.5366 18.235 7.19553C23.1296 6.39251 25.8143 7.43832 26.2892 10.333C26.5353 11.8329 26.3433 13.2156 25.7132 14.4809C25.083 15.7463 24.1397 16.9144 22.8832 17.9853C21.653 19.0519 20.2476 20.0391 18.667 20.947C14.8037 23.0941 11.3589 24.416 8.33271 24.9124C7.93799 24.9772 7.69961 24.7596 7.61758 24.2596C7.56578 23.9438 7.75039 23.7514 8.17143 23.6823C11.145 23.1945 14.4625 21.9206 18.124 19.8606C19.5816 19.0269 20.8509 18.1161 21.9318 17.1281C23.0085 16.1137 23.8222 15.0614 24.3729 13.9712C24.9194 12.8547 25.1063 11.7701 24.9336 10.7175C24.5795 8.55968 22.4289 7.80457 18.4817 8.45217C17.2975 8.64645 15.9771 8.99821 14.5203 9.50744C13.0592 9.99036 11.4486 10.6329 9.68863 11.4351C9.12368 12.933 8.54085 14.569 7.94014 16.3429C7.36142 18.0863 6.79544 19.9897 6.24222 22.0532L3.30833 32.8303C3.17121 33.3122 3.00088 33.9212 2.79735 34.6572C2.58951 35.3669 2.35083 36.1356 2.08131 36.9635C1.95754 37.3622 1.77725 37.5809 1.54041 37.6198ZM27.1289 32.6514C24.9974 33.0011 23.7352 31.9787 23.3424 29.584C23.161 28.4788 23.2342 27.2778 23.5619 25.9809C23.8896 24.6841 24.4035 23.4513 25.1035 22.2826C25.7992 21.0875 26.6194 20.0747 27.564 19.2441C28.535 18.4092 29.5731 17.9011 30.6783 17.7198C31.652 17.5601 32.4229 17.8119 32.9912 18.4753C33.5594 19.1387 33.9169 19.9178 34.0637 20.8125C34.258 21.9967 34.2198 23.246 33.949 24.5605C33.6739 25.8487 33.2127 27.0729 32.5653 28.233C31.9179 29.3931 31.1329 30.3731 30.2102 31.1731C29.2876 31.973 28.2605 32.4658 27.1289 32.6514ZM26.8822 31.3948C27.0401 31.3689 27.1301 31.3406 27.1521 31.31C28.1568 31.01 29.0437 30.4862 29.8127 29.7385C30.5818 28.9908 31.2088 28.1178 31.6935 27.1195C32.2003 26.0905 32.5384 25.0217 32.7078 23.9129C32.8772 22.8042 32.8777 21.7367 32.7093 20.7104C32.61 20.1052 32.3613 19.6596 31.963 19.3736C31.5648 19.0877 31.1026 18.9879 30.5763 19.0742C29.8131 19.1994 29.0492 19.649 28.2844 20.423C27.546 21.1928 26.875 22.127 26.2716 23.2259C25.6946 24.3204 25.2577 25.446 24.961 26.6026C24.6601 27.7329 24.5787 28.7191 24.7168 29.5612C24.9499 30.9822 25.6718 31.5934 26.8822 31.3948ZM43.0436 14.2724C42.5963 14.3458 42.3359 14.1588 42.2625 13.7114C42.2409 13.5799 42.2942 13.3279 42.4223 12.9556C42.546 12.557 42.6961 12.154 42.8725 11.7468C43.0489 11.3395 43.1921 11.0593 43.3021 10.9061C43.6674 10.3328 43.9577 9.96086 44.1729 9.79043C44.4145 9.61568 44.6405 9.51104 44.851 9.4765C45.4037 9.38583 45.721 9.59049 45.803 10.0905C45.8332 10.2747 45.7515 10.5178 45.5578 10.8198C45.3862 11.0912 45.1729 11.3559 44.918 11.6139C44.5401 11.9461 44.3115 12.1998 44.2321 12.3749L43.5645 13.741C43.5555 13.8506 43.5069 13.9667 43.4189 14.0892C43.353 14.1811 43.2279 14.2422 43.0436 14.2724ZM38.9561 31.3596C38.2193 31.4805 37.6561 31.4242 37.2665 31.1909C36.9033 30.9532 36.6741 30.545 36.5792 29.966C36.4885 29.4134 36.5365 28.6354 36.7232 27.6319C36.9055 26.6021 37.1692 25.4915 37.5142 24.2999C37.8854 23.104 38.2917 21.9564 38.7329 20.8572C39.174 19.7579 39.6191 18.8472 40.0681 18.1249C40.5391 17.3721 40.9457 16.9676 41.2878 16.9115C41.7614 16.8338 42.0328 17.0054 42.1019 17.4265C42.145 17.6896 42.0034 18.2263 41.6769 19.0365C41.3505 19.8467 40.9888 20.6897 40.5921 21.5655C40.429 21.8895 40.2043 22.3317 39.9179 22.8922C39.6316 23.4526 39.354 23.9845 39.0853 24.488C38.8123 24.9652 38.6361 25.2913 38.5568 25.4665C38.3584 25.9044 38.1879 26.5944 38.0452 27.5366C37.8762 28.4831 37.8306 29.1932 37.9083 29.6669C37.9428 29.8774 38.0082 30.0288 38.1044 30.1211C38.2269 30.2091 38.4592 30.2251 38.8013 30.1689C39.4592 30.061 40.1615 29.7296 40.9082 29.1747C41.6548 28.6198 42.3974 27.9576 43.1359 27.1878C43.87 26.3918 44.5494 25.5913 45.1739 24.7862C45.8248 23.9768 46.3724 23.2789 46.8167 22.6926C46.9046 22.5701 47.0539 22.4916 47.2644 22.457C47.6591 22.3923 47.8824 22.5178 47.9342 22.8335C47.9817 23.123 47.8515 23.4822 47.5435 23.911C46.9496 24.7381 46.3953 25.4776 45.8807 26.1295C45.3662 26.7814 44.8671 27.3632 44.3836 27.8749C43.6188 28.6489 42.7533 29.3854 41.787 30.0844C40.8208 30.7834 39.8772 31.2085 38.9561 31.3596ZM45.5258 30.8492C45.1048 30.9183 44.8662 30.7818 44.8101 30.4397C44.7885 30.3081 44.8152 30.1416 44.8902 29.9401C44.961 29.7123 45.025 29.5262 45.0824 29.3817L47.4627 21.6543C48.4795 18.2988 48.9599 16.4499 48.9037 16.1079C48.8433 15.7394 48.9973 15.525 49.3657 15.4646C49.8657 15.3825 50.1588 15.6047 50.2452 16.131C50.2754 16.3152 50.2218 16.7293 50.0842 17.3734C49.9467 18.0175 49.7563 18.7514 49.5131 19.5749C49.106 21.0469 48.7524 22.1859 48.4523 22.9918C49.0906 21.9412 49.7508 20.9412 50.4327 19.9916C51.1146 19.042 51.8162 18.1297 52.5374 17.2547C54.6789 14.6604 56.4207 13.2532 57.7628 13.033C58.6838 12.8819 59.2156 13.2405 59.358 14.1089C59.4876 14.8984 59.108 16.7847 58.2192 19.768C57.3348 22.7775 56.953 24.6507 57.0739 25.3875C57.13 25.7296 57.2765 25.8812 57.5133 25.8424C57.5923 25.8294 57.7064 25.7837 57.8556 25.7052C58.0269 25.596 58.2046 25.5263 58.3888 25.4961C58.8362 25.4227 59.0944 25.5965 59.1635 26.0175C59.2498 26.5438 58.7272 26.8998 57.5957 27.0855C57.0694 27.1718 56.6684 27.116 56.3927 26.918C56.1127 26.6937 55.9382 26.371 55.8691 25.95C55.6618 24.6869 55.9914 22.6601 56.8577 19.8697C57.7284 17.1056 58.1205 15.4604 58.0342 14.9342C57.9824 14.6184 57.8381 14.4799 57.6012 14.5188C57.0223 14.6137 56.168 15.2538 55.0383 16.439C53.8163 17.7205 52.6202 19.1598 51.45 20.7569C50.2798 22.3541 49.2078 24.1379 48.234 26.1082L46.0991 30.3904C45.98 30.6531 45.789 30.806 45.5258 30.8492ZM62.9204 29.7789C62.4205 29.8609 62.1057 29.5072 61.9762 28.7178C61.7862 27.5599 62.0985 25.4279 62.913 22.3217C63.7539 19.2112 65.0795 15.1024 66.8898 9.99527C65.8899 10.1593 64.9641 10.4463 64.1126 10.8563C63.2831 11.2356 62.8722 11.6137 62.88 11.9908C62.871 12.1004 62.8225 12.2164 62.7345 12.3389C62.6685 12.4308 62.5434 12.4919 62.3592 12.5221C61.9381 12.5912 61.6931 12.4152 61.624 11.9942C61.5117 11.31 61.9584 10.6557 62.9639 10.0314C63.9694 9.40699 65.4458 8.93507 67.3931 8.61558L69.3784 3.6689C69.5152 3.34922 69.6607 3.00106 69.8151 2.62443C69.9652 2.22148 70.1373 1.7879 70.3313 1.32369C70.534 0.912108 70.8064 0.678255 71.1485 0.62213C71.359 0.587591 71.5277 0.627474 71.6546 0.741779C71.7771 0.829769 71.8492 0.939552 71.8707 1.07113C71.9355 1.46585 71.5293 2.61343 70.652 4.51385C69.5544 6.88281 68.9681 8.16802 68.8931 8.3695C69.2878 8.30474 69.8863 8.24707 70.6887 8.1965C71.4868 8.11961 72.4361 8.05844 73.5366 8.01301C73.9356 7.97456 74.1654 8.13954 74.2258 8.50795C74.2949 8.92899 74.0926 9.17836 73.6189 9.25608C73.4347 9.2863 73.062 9.32042 72.5008 9.35846C71.9352 9.37018 71.3323 9.40153 70.6921 9.45252C70.0519 9.5035 69.5103 9.57885 69.0673 9.67856L68.4817 9.81517C64.6811 20.086 62.9817 26.3639 63.3836 28.649L63.4749 28.9583L63.4879 29.0373C63.5569 29.4583 63.3678 29.7055 62.9204 29.7789Z" fill="#F33E5C"/>
<path d="M0.714576 36.5392L0.433442 36.4345L0.430536 36.4423L0.428067 36.4503L0.714576 36.5392ZM0.926739 35.8558L0.639934 35.7668L0.636486 35.78L0.926739 35.8558ZM1.68935 33.3392L1.40164 33.2542L1.40164 33.2542L1.68935 33.3392ZM2.45906 30.6187L2.1706 30.5362L2.16962 30.5398L2.45906 30.6187ZM3.4215 27.0964L3.13274 27.0149L3.1314 27.02L3.4215 27.0964ZM4.74227 22.2993L4.45339 22.2183L4.45267 22.221L4.74227 22.2993ZM6.38067 16.7204L6.09416 16.6314L6.38067 16.7204ZM7.87814 12.2591L8.15977 12.3625L8.42308 11.6452L7.7421 11.9917L7.87814 12.2591ZM6.27798 13.1297L6.42167 13.3931L6.42875 13.389L6.27798 13.1297ZM5.13205 13.8041L4.96521 13.5545L4.95621 13.561L5.13205 13.8041ZM4.5523 14.2235L4.69199 14.489L4.71086 14.479L4.72814 14.4665L4.5523 14.2235ZM3.9633 13.1041L3.76832 12.8761L3.75875 12.8843L3.74989 12.8932L3.9633 13.1041ZM8.56644 10.5248L8.6917 10.7974L8.79965 10.7478L8.84437 10.6377L8.56644 10.5248ZM9.18813 9.12568L8.92961 8.97347L8.92394 8.9831L8.919 8.99313L9.18813 9.12568ZM9.60999 8.73219L9.491 8.45661L9.48196 8.46088L9.60999 8.73219ZM10.3769 9.7008L10.0932 9.60321L9.87509 10.2373L10.4932 9.97733L10.3769 9.7008ZM22.8832 17.9853L22.6886 17.757L22.6867 17.7587L22.8832 17.9853ZM18.667 20.947L18.8128 21.2093L18.8165 21.2071L18.667 20.947ZM18.124 19.8606L18.2711 20.1221L18.2729 20.121L18.124 19.8606ZM21.9318 17.1281L22.1343 17.3495L22.1376 17.3464L21.9318 17.1281ZM24.3729 13.9712L24.6407 14.1065L24.6424 14.1031L24.3729 13.9712ZM14.5203 9.50744L14.6144 9.79233L14.6193 9.79064L14.5203 9.50744ZM9.68863 11.4351L9.5642 11.1621L9.4516 11.2135L9.40793 11.3292L9.68863 11.4351ZM7.94014 16.3429L7.65598 16.2467L7.65541 16.2484L7.94014 16.3429ZM6.24222 22.0532L6.53169 22.132L6.53198 22.1309L6.24222 22.0532ZM3.30833 32.8303L3.5969 32.9125L3.5978 32.9091L3.30833 32.8303ZM2.79735 34.6572L3.08529 34.7415L3.0865 34.7371L2.79735 34.6572ZM2.08131 36.9635L1.79601 36.8707L1.7948 36.8746L2.08131 36.9635ZM1.54041 37.6198L1.49184 37.3237C1.28748 37.3572 1.18024 37.3226 1.12216 37.2809C1.06408 37.2392 0.996966 37.1486 0.963437 36.9443L0.667395 36.9928L0.371353 37.0414C0.419854 37.337 0.539258 37.601 0.772182 37.7682C1.00511 37.9355 1.29336 37.9643 1.58898 37.9158L1.54041 37.6198ZM0.667395 36.9928L0.963437 36.9443C0.951515 36.8716 0.957354 36.769 1.00109 36.6282L0.714576 36.5392L0.428067 36.4503C0.365718 36.6511 0.340103 36.8509 0.371353 37.0414L0.667395 36.9928ZM0.714576 36.5392L0.99571 36.6439C1.07494 36.4312 1.14857 36.1935 1.21699 35.9317L0.926739 35.8558L0.636486 35.78C0.572099 36.0264 0.504288 36.2443 0.433442 36.4345L0.714576 36.5392ZM0.926739 35.8558L1.21325 35.9448C1.47885 35.0893 1.73345 34.2491 1.97707 33.4241L1.68935 33.3392L1.40164 33.2542C1.15884 34.0764 0.905038 34.914 0.640229 35.7669L0.926739 35.8558ZM1.68935 33.3392L1.97707 33.4241C2.22097 32.5982 2.47811 31.6893 2.74849 30.6976L2.45906 30.6187L2.16962 30.5398C1.90014 31.5282 1.64415 32.433 1.40164 33.2542L1.68935 33.3392ZM2.45906 30.6187L2.74749 30.7012C3.04014 29.6779 3.36151 28.5017 3.7116 27.1728L3.4215 27.0964L3.1314 27.02C2.78209 28.3459 2.46184 29.5179 2.17062 30.5362L2.45906 30.6187ZM3.4215 27.0964L3.71021 27.1779C4.08662 25.8447 4.52719 24.2445 5.03188 22.3775L4.74227 22.2993L4.45267 22.221C3.94835 24.0866 3.5084 25.6845 3.13279 27.0149L3.4215 27.0964ZM4.74227 22.2993L5.03114 22.3802C5.6101 20.3145 6.15545 18.4576 6.66718 16.8094L6.38067 16.7204L6.09416 16.6314C5.58044 18.2861 5.03352 20.1485 4.4534 22.2183L4.74227 22.2993ZM6.38067 16.7204L6.66718 16.8094C7.17872 15.1617 7.67627 13.6795 8.15977 12.3625L7.87814 12.2591L7.59652 12.1557C7.10884 13.4841 6.60807 14.9762 6.09416 16.6314L6.38067 16.7204ZM7.87814 12.2591L7.7421 11.9917C7.18854 12.2734 6.65024 12.5662 6.1272 12.8703L6.27798 13.1297L6.42875 13.389C6.94186 13.0907 7.47033 12.8032 8.01419 12.5265L7.87814 12.2591ZM6.27798 13.1297L6.13433 12.8663C5.63528 13.1385 5.24422 13.3682 4.96533 13.5547L5.13205 13.8041L5.29877 14.0535C5.55562 13.8818 5.92852 13.662 6.42162 13.393L6.27798 13.1297ZM5.13205 13.8041L4.95621 13.561C4.66634 13.7707 4.47309 13.9105 4.37646 13.9804L4.5523 14.2235L4.72814 14.4665C4.82476 14.3966 5.01801 14.2568 5.30788 14.0471L5.13205 13.8041ZM4.5523 14.2235L4.41261 13.958C4.37292 13.9789 4.31537 13.9989 4.2339 14.0122L4.28247 14.3083L4.33104 14.6043C4.46008 14.5831 4.58242 14.5466 4.69199 14.489L4.5523 14.2235ZM4.28247 14.3083L4.2339 14.0122C4.10076 14.0341 4.04816 14.0071 4.02701 13.9908C4.00163 13.9712 3.95445 13.9149 3.92876 13.7583L3.63272 13.8069L3.33667 13.8554C3.37574 14.0935 3.46923 14.3182 3.66044 14.4658C3.85587 14.6166 4.09577 14.6429 4.33104 14.6043L4.28247 14.3083ZM3.63272 13.8069L3.92876 13.7583C3.91805 13.693 3.9426 13.5518 4.1767 13.3149L3.9633 13.1041L3.74989 12.8932C3.47414 13.1723 3.27831 13.4997 3.33667 13.8554L3.63272 13.8069ZM3.9633 13.1041L4.15827 13.3321C4.9051 12.6934 6.40428 11.8485 8.6917 10.7974L8.56644 10.5248L8.44118 10.2522C6.15517 11.3026 4.58558 12.1772 3.76832 12.8761L3.9633 13.1041ZM8.56644 10.5248L8.84437 10.6377C9.054 10.1218 9.25833 9.66213 9.45726 9.25823L9.18813 9.12568L8.919 8.99313C8.71251 9.41239 8.50238 9.88548 8.28851 10.4119L8.56644 10.5248ZM9.18813 9.12568L9.44665 9.27789C9.5241 9.14634 9.62094 9.05875 9.73802 9.0035L9.60999 8.73219L9.48196 8.46088C9.2479 8.57133 9.0635 8.74607 8.92961 8.97347L9.18813 9.12568ZM9.60999 8.73219L9.72891 9.00761C9.9208 8.92476 10.0619 8.88099 10.1587 8.8651L10.1102 8.56906L10.0616 8.27301C9.8953 8.3003 9.70294 8.36528 9.49107 8.45677L9.60999 8.73219ZM10.1102 8.56906L10.1587 8.8651C10.197 8.85883 10.22 8.85952 10.2313 8.86094C10.2415 8.86223 10.2383 8.86357 10.2292 8.85782C10.2192 8.85153 10.2136 8.84392 10.2122 8.84147C10.2118 8.84064 10.217 8.84951 10.2212 8.87512L10.5172 8.82655L10.8133 8.77798C10.7869 8.61747 10.712 8.45327 10.5499 8.35076C10.3955 8.25306 10.2176 8.24742 10.0616 8.27301L10.1102 8.56906ZM10.5172 8.82655L10.2212 8.87512C10.2434 9.01075 10.2167 9.24438 10.0932 9.60321L10.3769 9.7008L10.6606 9.79839C10.7933 9.4126 10.8601 9.06339 10.8133 8.77798L10.5172 8.82655ZM10.3769 9.7008L10.4932 9.97733C13.6431 8.65243 16.2378 7.8272 18.2836 7.49157L18.235 7.19553L18.1864 6.89949C16.0744 7.246 13.4304 8.09095 10.2606 9.42427L10.3769 9.7008ZM18.235 7.19553L18.2836 7.49157C20.7113 7.09326 22.5425 7.16321 23.8106 7.65716C25.0519 8.14072 25.7725 9.03653 25.9932 10.3815L26.2892 10.333L26.5852 10.2844C26.331 8.73474 25.4717 7.66033 24.0284 7.09808C22.6117 6.54623 20.6532 6.49478 18.1864 6.89949L18.235 7.19553ZM26.2892 10.333L25.9932 10.3815C26.2299 11.8243 26.0445 13.1425 25.4446 14.3472L25.7132 14.4809L25.9817 14.6147C26.642 13.2886 26.8407 11.8415 26.5852 10.2844L26.2892 10.333ZM25.7132 14.4809L25.4446 14.3472C24.8353 15.5708 23.9195 16.708 22.6886 17.757L22.8832 17.9853L23.0778 18.2137C24.36 17.1209 25.3308 15.9218 25.9817 14.6147L25.7132 14.4809ZM22.8832 17.9853L22.6867 17.7587C21.4726 18.8112 20.0834 19.7875 18.5176 20.6869L18.667 20.947L18.8165 21.2071C20.4118 20.2908 21.8333 19.2926 23.0797 18.212L22.8832 17.9853ZM18.667 20.947L18.5213 20.6848C14.676 22.8219 11.2648 24.1274 8.28414 24.6164L8.33271 24.9124L8.38128 25.2085C11.453 24.7045 14.9314 23.3664 18.8128 21.2092L18.667 20.947ZM8.33271 24.9124L8.28414 24.6164C8.15349 24.6378 8.09546 24.6085 8.06015 24.5762C8.01213 24.5324 7.94956 24.4301 7.91363 24.211L7.61758 24.2596L7.32154 24.3082C7.36763 24.5891 7.46527 24.8456 7.65563 25.0194C7.85869 25.2047 8.11721 25.2518 8.38128 25.2085L8.33271 24.9124ZM7.61758 24.2596L7.91363 24.211C7.89957 24.1254 7.92016 24.1002 7.93367 24.0861C7.96123 24.0574 8.03795 24.0082 8.22 23.9784L8.17143 23.6823L8.12286 23.3863C7.88387 23.4255 7.65776 23.5071 7.50071 23.6708C7.32961 23.8491 7.28379 24.0781 7.32154 24.3082L7.61758 24.2596ZM8.17143 23.6823L8.22 23.9784C11.2389 23.4831 14.5902 22.1929 18.2711 20.122L18.124 19.8606L17.9769 19.5991C14.3349 21.6482 11.0511 22.9059 8.12286 23.3863L8.17143 23.6823ZM18.124 19.8606L18.2729 20.121C19.747 19.2779 21.0348 18.3544 22.1342 17.3495L21.9318 17.1281L21.7294 16.9066C20.667 17.8777 19.4162 18.7759 17.9751 19.6002L18.124 19.8606ZM21.9318 17.1281L22.1376 17.3464C23.2344 16.3131 24.0713 15.2335 24.6407 14.1065L24.3729 13.9712L24.1052 13.8359C23.573 14.8893 22.7826 15.9143 21.7261 16.9097L21.9318 17.1281ZM24.3729 13.9712L24.6424 14.1031C25.2116 12.9401 25.414 11.7927 25.2296 10.6689L24.9336 10.7175L24.6375 10.7661C24.7985 11.7475 24.6272 12.7692 24.1035 13.8393L24.3729 13.9712ZM24.9336 10.7175L25.2296 10.6689C25.1334 10.0828 24.9124 9.57799 24.5587 9.16655C24.2054 8.75569 23.7324 8.45268 23.1545 8.24974C22.0082 7.84728 20.424 7.82949 18.4331 8.15613L18.4817 8.45217L18.5303 8.74821C20.4866 8.42725 21.9513 8.46321 22.9557 8.81586C23.453 8.99048 23.8308 9.24036 24.1037 9.55773C24.3761 9.87453 24.5567 10.2733 24.6375 10.7661L24.9336 10.7175ZM18.4817 8.45217L18.4331 8.15613C17.2278 8.35388 15.8901 8.71081 14.4213 9.22425L14.5203 9.50744L14.6193 9.79064C16.064 9.2856 17.3673 8.93901 18.5303 8.74821L18.4817 8.45217ZM14.5203 9.50744L14.4261 9.2226C12.9525 9.70966 11.3317 10.3565 9.5642 11.1621L9.68863 11.4351L9.81305 11.7081C11.5656 10.9093 13.1659 10.2711 14.6144 9.79229L14.5203 9.50744ZM9.68863 11.4351L9.40793 11.3292C8.8416 12.8308 8.25762 14.47 7.65598 16.2467L7.94014 16.3429L8.22429 16.4392C8.82409 14.6679 9.40577 13.0352 9.96933 11.541L9.68863 11.4351ZM7.94014 16.3429L7.65541 16.2484C7.07458 17.9982 6.50696 19.9073 5.95245 21.9755L6.24222 22.0532L6.53198 22.1309C7.08393 20.0722 7.64825 18.1745 8.22486 16.4375L7.94014 16.3429ZM6.24222 22.0532L5.95275 21.9744L3.01887 32.7515L3.30833 32.8303L3.5978 32.9091L6.53168 22.132L6.24222 22.0532ZM3.30833 32.8303L3.01979 32.7482C2.88238 33.2311 2.71184 33.8408 2.50821 34.5772L2.79735 34.6572L3.0865 34.7371C3.28992 34.0015 3.46003 33.3934 3.59688 32.9125L3.30833 32.8303ZM2.79735 34.6572L2.50945 34.5729C2.30257 35.2792 2.0648 36.0451 1.79604 36.8707L2.08131 36.9635L2.36657 37.0564C2.63686 36.2262 2.87645 35.4545 3.08526 34.7415L2.79735 34.6572ZM2.08131 36.9635L1.7948 36.8746C1.67872 37.2485 1.55044 37.3141 1.49184 37.3237L1.54041 37.6198L1.58898 37.9158C2.00405 37.8477 2.23637 37.4759 2.36781 37.0525L2.08131 36.9635ZM23.5619 25.9809L23.8528 26.0544L23.5619 25.9809ZM25.1035 22.2826L25.3609 22.4367L25.3628 22.4335L25.1035 22.2826ZM27.564 19.2441L27.3684 19.0166L27.366 19.0188L27.564 19.2441ZM32.9912 18.4753L33.219 18.2802L32.9912 18.4753ZM33.949 24.5605L34.2424 24.6232L34.2428 24.6211L33.949 24.5605ZM30.2102 31.1731L30.0137 30.9464L30.2102 31.1731ZM27.1521 31.31L27.0662 31.0225L26.9681 31.0518L26.9084 31.135L27.1521 31.31ZM29.8127 29.7385L30.0219 29.9536L29.8127 29.7385ZM31.6935 27.1194L31.4244 26.9869L31.4237 26.9884L31.6935 27.1194ZM32.7078 23.9129L32.4112 23.8676L32.7078 23.9129ZM28.2844 20.423L28.071 20.2122L28.0679 20.2153L28.2844 20.423ZM26.2716 23.2259L26.0086 23.0815L26.0063 23.086L26.2716 23.2259ZM24.961 26.6026L25.2509 26.6798L25.2516 26.6772L24.961 26.6026ZM27.1289 32.6514L27.0804 32.3554C26.0698 32.5212 25.317 32.3548 24.7725 31.9137C24.2211 31.4671 23.8287 30.6951 23.6384 29.5354L23.3424 29.584L23.0463 29.6326C23.2489 30.8676 23.6841 31.8042 24.3948 32.38C25.1125 32.9614 26.0566 33.1314 27.1775 32.9475L27.1289 32.6514ZM23.3424 29.584L23.6384 29.5354C23.4649 28.4779 23.5332 27.319 23.8528 26.0544L23.5619 25.9809L23.2711 25.9074C22.9352 27.2366 22.8572 28.4797 23.0463 29.6326L23.3424 29.584ZM23.5619 25.9809L23.8528 26.0544C24.1732 24.7865 24.6756 23.5808 25.3609 22.4367L25.1035 22.2826L24.8461 22.1284C24.1314 23.3218 23.6061 24.5817 23.2711 25.9074L23.5619 25.9809ZM25.1035 22.2826L25.3628 22.4335C26.0438 21.2636 26.844 20.2766 27.7621 19.4694L27.564 19.2441L27.366 19.0188C26.3947 19.8727 25.5546 20.9114 24.8442 22.1316L25.1035 22.2826ZM27.564 19.2441L27.7596 19.4716C28.6949 18.6674 29.6835 18.187 30.7269 18.0158L30.6783 17.7198L30.6298 17.4238C29.4627 17.6152 28.3751 18.1511 27.3684 19.0166L27.564 19.2441ZM30.6783 17.7198L30.7269 18.0158C31.6131 17.8705 32.2732 18.0982 32.7633 18.6705L32.9912 18.4753L33.219 18.2802C32.5727 17.5256 31.6909 17.2497 30.6298 17.4238L30.6783 17.7198ZM32.9912 18.4753L32.7633 18.6705C33.2945 19.2906 33.6294 20.0184 33.7677 20.8611L34.0637 20.8125L34.3598 20.7639C34.2044 19.8172 33.8244 18.9869 33.219 18.2802L32.9912 18.4753ZM34.0637 20.8125L33.7677 20.8611C33.9554 22.005 33.9194 23.2172 33.6552 24.5L33.949 24.5605L34.2428 24.6211C34.5201 23.2749 34.5606 21.9883 34.3598 20.7639L34.0637 20.8125ZM33.949 24.5605L33.6556 24.4979C33.3868 25.7566 32.9363 26.9526 32.3033 28.0868L32.5653 28.233L32.8273 28.3792C33.4891 27.1932 33.961 25.9409 34.2424 24.6232L33.949 24.5605ZM32.5653 28.233L32.3033 28.0868C31.6714 29.2192 30.9078 30.1712 30.0137 30.9464L30.2102 31.1731L30.4068 31.3997C31.358 30.5751 32.1644 29.5671 32.8273 28.3792L32.5653 28.233ZM30.2102 31.1731L30.0137 30.9464C29.1302 31.7124 28.1535 32.1793 27.0804 32.3554L27.1289 32.6514L27.1775 32.9475C28.3674 32.7523 29.445 32.2336 30.4068 31.3997L30.2102 31.1731ZM26.8822 31.3948L26.9308 31.6908C27.0156 31.6769 27.0934 31.6607 27.1581 31.6404C27.1902 31.6303 27.2269 31.6168 27.2625 31.598C27.2933 31.5818 27.3506 31.5479 27.3957 31.485L27.1521 31.31L26.9084 31.135C26.9269 31.1092 26.9459 31.0927 26.9575 31.0837C26.9695 31.0745 26.9789 31.0692 26.9831 31.067C26.9908 31.063 26.991 31.064 26.9782 31.068C26.9528 31.0759 26.9068 31.0868 26.8337 31.0988L26.8822 31.3948ZM27.1521 31.31L27.2379 31.5975C28.29 31.2834 29.2189 30.7342 30.0219 29.9536L29.8127 29.7385L29.6036 29.5234C28.8684 30.2382 28.0235 30.7367 27.0662 31.0225L27.1521 31.31ZM29.8127 29.7385L30.0219 29.9536C30.8168 29.1808 31.464 28.279 31.9634 27.2505L31.6935 27.1194L31.4237 26.9884C30.9536 27.9565 30.3469 28.8008 29.6036 29.5234L29.8127 29.7385ZM31.6935 27.1194L31.9627 27.252C32.4827 26.1962 32.8302 25.098 33.0043 23.9583L32.7078 23.9129L32.4112 23.8676C32.2466 24.9454 31.9179 25.9848 31.4244 26.9869L31.6935 27.1194ZM32.7078 23.9129L33.0043 23.9583C33.1781 22.8208 33.1792 21.7216 33.0054 20.6619L32.7093 20.7104L32.4133 20.759C32.5762 21.7519 32.5762 22.7876 32.4112 23.8676L32.7078 23.9129ZM32.7093 20.7104L33.0054 20.6619C32.8966 19.9989 32.6162 19.4733 32.138 19.13L31.963 19.3736L31.7881 19.6173C32.1063 19.8459 32.3234 20.2115 32.4133 20.759L32.7093 20.7104ZM31.963 19.3736L32.138 19.13C31.6692 18.7933 31.1249 18.6802 30.5277 18.7782L30.5763 19.0742L30.6248 19.3702C31.0802 19.2955 31.4605 19.3821 31.7881 19.6173L31.963 19.3736ZM30.5763 19.0742L30.5277 18.7782C29.6811 18.917 28.8627 19.4109 28.071 20.2122L28.2844 20.423L28.4978 20.6339C29.2356 19.8872 29.9451 19.4818 30.6248 19.3702L30.5763 19.0742ZM28.2844 20.423L28.0679 20.2153C27.3084 21.007 26.6226 21.9635 26.0087 23.0815L26.2716 23.2259L26.5346 23.3703C27.1275 22.2906 27.7835 21.3785 28.5009 20.6307L28.2844 20.423ZM26.2716 23.2259L26.0063 23.086C25.4187 24.2005 24.9731 25.348 24.6704 26.5281L24.961 26.6026L25.2516 26.6772C25.5423 25.544 25.9705 24.4404 26.537 23.3658L26.2716 23.2259ZM24.961 26.6026L24.6711 26.5254C24.3631 27.6825 24.2737 28.7133 24.4208 29.6098L24.7168 29.5612L25.0128 29.5126C24.8836 28.7249 24.9571 27.7834 25.2509 26.6798L24.961 26.6026ZM24.7168 29.5612L24.4208 29.6098C24.5431 30.3553 24.8017 30.9438 25.2392 31.3143C25.6859 31.6926 26.2664 31.7998 26.9308 31.6908L26.8822 31.3948L26.8337 31.0988C26.2876 31.1884 25.902 31.0893 25.6269 30.8564C25.3426 30.6157 25.1237 30.1881 25.0128 29.5126L24.7168 29.5612ZM42.4223 12.9556L42.7061 13.0532L42.7088 13.0446L42.4223 12.9556ZM43.3021 10.9061L43.5457 11.0811L43.5506 11.0744L43.5551 11.0673L43.3021 10.9061ZM44.1729 9.79043L43.9969 9.54713L43.9867 9.55523L44.1729 9.79043ZM45.5578 10.8198L45.3053 10.6578L45.3043 10.6594L45.5578 10.8198ZM44.918 11.6139L45.1161 11.8392L45.124 11.8322L45.1314 11.8247L44.918 11.6139ZM44.2321 12.3749L44.5018 12.5067L44.5054 12.4987L44.2321 12.3749ZM43.5645 13.741L43.295 13.6093L43.2702 13.6601L43.2655 13.7164L43.5645 13.741ZM43.4189 14.0892L43.6626 14.2642L43.6626 14.2642L43.4189 14.0892ZM37.2665 31.1909L37.1022 31.4421L37.1124 31.4483L37.2665 31.1909ZM36.7232 27.6319L37.0181 27.6868L37.0186 27.6842L36.7232 27.6319ZM37.5142 24.2999L37.2276 24.2109L37.226 24.2165L37.5142 24.2999ZM38.7329 20.8572L38.4544 20.7454L38.7329 20.8572ZM40.0681 18.1249L39.8138 17.9658L39.8133 17.9666L40.0681 18.1249ZM41.6769 19.0365L41.9552 19.1486L41.6769 19.0365ZM40.5921 21.5655L40.8603 21.7005L40.8653 21.6893L40.5921 21.5655ZM39.9179 22.8922L40.1851 23.0287L39.9179 22.8922ZM39.0853 24.488L39.3458 24.6371L39.35 24.6293L39.0853 24.488ZM38.5568 25.4665L38.2835 25.3427L38.5568 25.4665ZM38.0452 27.5366L38.3406 27.5894L38.3418 27.5815L38.0452 27.5366ZM38.1044 30.1211L37.8967 30.3376L37.9121 30.3524L37.9294 30.3648L38.1044 30.1211ZM40.9082 29.1747L40.7292 28.9339L40.9082 29.1747ZM43.1359 27.1878L43.3524 27.3956L43.3564 27.3912L43.1359 27.1878ZM45.1739 24.7862L44.9401 24.5982L44.9369 24.6023L45.1739 24.7862ZM46.8167 22.6926L47.0558 22.8739L47.0603 22.8676L46.8167 22.6926ZM47.5435 23.911L47.2998 23.736L47.5435 23.911ZM45.8807 26.1295L46.1162 26.3154L45.8807 26.1295ZM44.3836 27.8749L44.597 28.0858L44.6016 28.081L44.3836 27.8749ZM41.787 30.0844L41.6112 29.8414L41.787 30.0844ZM43.0436 14.2724L42.9951 13.9763C42.817 14.0056 42.7306 13.9742 42.6878 13.9435C42.6451 13.9128 42.5878 13.8409 42.5586 13.6629L42.2625 13.7114L41.9665 13.76C42.0107 14.0293 42.1203 14.2746 42.3379 14.4309C42.5555 14.5871 42.8229 14.6126 43.0922 14.5684L43.0436 14.2724ZM42.2625 13.7114L42.5586 13.6629C42.5586 13.6634 42.558 13.6598 42.5579 13.6511C42.5577 13.6426 42.558 13.6307 42.5594 13.6149C42.562 13.5829 42.5683 13.5403 42.5798 13.4858C42.6029 13.3764 42.6441 13.2331 42.706 13.0532L42.4223 12.9556L42.1386 12.858C42.0724 13.0504 42.0229 13.2192 41.9928 13.3618C41.9642 13.4967 41.9464 13.6374 41.9665 13.76L42.2625 13.7114ZM42.4223 12.9556L42.7088 13.0446C42.8291 12.6568 42.9754 12.264 43.1478 11.866L42.8725 11.7468L42.5972 11.6275C42.4168 12.0441 42.2629 12.4571 42.1358 12.8667L42.4223 12.9556ZM42.8725 11.7468L43.1478 11.866C43.324 11.4592 43.4564 11.2056 43.5457 11.0811L43.3021 10.9061L43.0584 10.7311C42.9278 10.913 42.7738 11.2198 42.5972 11.6275L42.8725 11.7468ZM43.3021 10.9061L43.5551 11.0673C43.9213 10.4926 44.188 10.1611 44.3591 10.0256L44.1729 9.79043L43.9867 9.55523C43.7273 9.76058 43.4135 10.1729 43.0491 10.7449L43.3021 10.9061ZM44.1729 9.79043L44.3488 10.0335C44.5667 9.87584 44.7496 9.79715 44.8996 9.77254L44.851 9.4765L44.8025 9.18045C44.5314 9.22492 44.2623 9.35552 43.9971 9.54736L44.1729 9.79043ZM44.851 9.4765L44.8996 9.77254C45.1372 9.73356 45.269 9.76777 45.3409 9.81411C45.4063 9.85627 45.4748 9.94275 45.507 10.139L45.803 10.0905L46.099 10.0419C46.0492 9.73821 45.918 9.47237 45.6661 9.30988C45.4206 9.15156 45.1175 9.12877 44.8025 9.18045L44.851 9.4765ZM45.803 10.0905L45.507 10.139C45.5182 10.2073 45.4911 10.3681 45.3053 10.6578L45.5578 10.8198L45.8104 10.9817C46.0119 10.6675 46.1483 10.3421 46.099 10.0419L45.803 10.0905ZM45.5578 10.8198L45.3043 10.6594C45.1455 10.9104 44.9462 11.1584 44.7046 11.403L44.918 11.6139L45.1314 11.8247C45.3995 11.5533 45.6268 11.2719 45.8114 10.9802L45.5578 10.8198ZM44.918 11.6139L44.7199 11.3886C44.5259 11.5591 44.365 11.714 44.2402 11.8525C44.1187 11.9874 44.0175 12.1217 43.9589 12.2511L44.2321 12.3749L44.5054 12.4987C44.5261 12.453 44.5789 12.3729 44.686 12.2541C44.7898 12.1389 44.9322 12.0008 45.1161 11.8392L44.918 11.6139ZM44.2321 12.3749L43.9626 12.2432L43.295 13.6093L43.5645 13.741L43.834 13.8728L44.5017 12.5067L44.2321 12.3749ZM43.5645 13.741L43.2655 13.7164C43.2623 13.7552 43.2429 13.8201 43.1753 13.9142L43.4189 14.0892L43.6626 14.2642C43.771 14.1133 43.8486 13.946 43.8635 13.7657L43.5645 13.741ZM43.4189 14.0892L43.1753 13.9142C43.1772 13.9116 43.1721 13.9206 43.144 13.9343C43.1149 13.9485 43.0675 13.9645 42.9951 13.9763L43.0436 14.2724L43.0922 14.5684C43.3065 14.5333 43.5278 14.4519 43.6626 14.2642L43.4189 14.0892ZM38.9561 31.3596L38.9076 31.0635C38.1989 31.1798 37.7209 31.1133 37.4207 30.9335L37.2665 31.1909L37.1124 31.4483C37.5914 31.7352 38.2398 31.7811 39.0047 31.6556L38.9561 31.3596ZM37.2665 31.1909L37.4308 30.9399C37.1601 30.7628 36.9616 30.4438 36.8752 29.9175L36.5792 29.966L36.2831 30.0146C36.3867 30.6461 36.6465 31.1437 37.1023 31.4419L37.2665 31.1909ZM36.5792 29.966L36.8752 29.9175C36.793 29.4166 36.8335 28.6794 37.0181 27.6868L36.7232 27.6319L36.4282 27.5771C36.2395 28.5914 36.184 29.4103 36.2831 30.0146L36.5792 29.966ZM36.7232 27.6319L37.0186 27.6842C37.1988 26.6667 37.4598 25.5665 37.8023 24.3833L37.5142 24.2999L37.226 24.2165C36.8786 25.4165 36.6123 26.5376 36.4278 27.5796L36.7232 27.6319ZM37.5142 24.2999L37.8007 24.3888C38.1697 23.2002 38.5732 22.0603 39.0113 20.9689L38.7329 20.8572L38.4544 20.7454C38.0101 21.8526 37.6012 23.0078 37.2276 24.2109L37.5142 24.2999ZM38.7329 20.8572L39.0113 20.9689C39.4483 19.8801 39.8859 18.9862 40.3229 18.2833L40.0681 18.1249L39.8133 17.9666C39.3523 18.7081 38.8998 19.6358 38.4544 20.7454L38.7329 20.8572ZM40.0681 18.1249L40.3225 18.2841C40.5516 17.9177 40.7571 17.6494 40.9379 17.4696C41.1231 17.2853 41.2556 17.2208 41.3363 17.2075L41.2878 16.9115L41.2392 16.6154C40.9778 16.6583 40.7359 16.8241 40.5147 17.0443C40.2889 17.2689 40.0556 17.5793 39.8138 17.9658L40.0681 18.1249ZM41.2878 16.9115L41.3363 17.2075C41.5356 17.1748 41.6371 17.2044 41.6862 17.2355C41.7276 17.2617 41.7804 17.3198 41.8058 17.475L42.1019 17.4265L42.3979 17.3779C42.3543 17.1121 42.2368 16.8738 42.0069 16.7284C41.7846 16.5878 41.5136 16.5704 41.2392 16.6154L41.2878 16.9115ZM42.1019 17.4265L41.8058 17.475C41.8165 17.5401 41.8072 17.6875 41.7379 17.9498C41.6716 18.2012 41.5596 18.5251 41.3987 18.9244L41.6769 19.0365L41.9552 19.1486C42.1208 18.7377 42.2428 18.3881 42.3181 18.1029C42.3905 17.8285 42.4304 17.576 42.3979 17.3779L42.1019 17.4265ZM41.6769 19.0365L41.3987 18.9244C41.0739 19.7303 40.714 20.5694 40.3188 21.4417L40.5921 21.5655L40.8653 21.6893C41.2637 20.81 41.627 19.9631 41.9552 19.1486L41.6769 19.0365ZM40.5921 21.5655L40.3241 21.4307C40.1615 21.7539 39.9371 22.1954 39.6508 22.7556L39.9179 22.8922L40.1851 23.0287C40.4716 22.468 40.6966 22.0252 40.86 21.7004L40.5921 21.5655ZM39.9179 22.8922L39.6508 22.7556C39.3652 23.3146 39.0884 23.845 38.8207 24.3468L39.0853 24.488L39.35 24.6293C39.6196 24.1241 39.898 23.5905 40.1851 23.0287L39.9179 22.8922ZM39.0853 24.488L38.8249 24.339C38.5528 24.8146 38.3696 25.1526 38.2835 25.3427L38.5568 25.4665L38.83 25.5903C38.9026 25.43 39.0718 25.1158 39.3457 24.637L39.0853 24.488ZM38.5568 25.4665L38.2835 25.3427C38.0674 25.8197 37.8922 26.5434 37.7486 27.4917L38.0452 27.5366L38.3418 27.5815C38.4836 26.6454 38.6494 25.9891 38.83 25.5903L38.5568 25.4665ZM38.0452 27.5366L37.7499 27.4839C37.5796 28.4373 37.5259 29.1892 37.6122 29.7155L37.9083 29.6669L38.2043 29.6183C38.1352 29.1973 38.1727 28.529 38.3405 27.5894L38.0452 27.5366ZM37.9083 29.6669L37.6122 29.7155C37.6514 29.9545 37.733 30.1806 37.8967 30.3376L38.1044 30.1211L38.3121 29.9047C38.2834 29.8771 38.2342 29.8004 38.2043 29.6183L37.9083 29.6669ZM38.1044 30.1211L37.9294 30.3648C38.0543 30.4545 38.206 30.4885 38.35 30.4984C38.4975 30.5085 38.666 30.4952 38.8499 30.465L38.8013 30.1689L38.7528 29.8729C38.5946 29.8988 38.4759 29.9056 38.391 29.8998C38.3027 29.8937 38.277 29.8758 38.2794 29.8775L38.1044 30.1211ZM38.8013 30.1689L38.8499 30.465C39.5699 30.3468 40.3163 29.9883 41.0871 29.4155L40.9082 29.1747L40.7292 28.9339C40.0066 29.4709 39.3485 29.7752 38.7528 29.8729L38.8013 30.1689ZM40.9082 29.1747L41.0871 29.4155C41.849 28.8493 42.604 28.1756 43.3524 27.3955L43.1359 27.1878L42.9194 26.9802C42.1909 27.7395 41.4607 28.3903 40.7292 28.9339L40.9082 29.1747ZM43.1359 27.1878L43.3564 27.3912C44.096 26.5893 44.7809 25.7823 45.411 24.9701L45.1739 24.7862L44.9369 24.6023C44.3179 25.4002 43.6441 26.1943 42.9153 26.9845L43.1359 27.1878ZM45.1739 24.7862L45.4077 24.9742C46.0597 24.1634 46.6092 23.4631 47.0558 22.8738L46.8167 22.6926L46.5775 22.5114C46.1356 23.0948 45.5899 23.7902 44.9402 24.5982L45.1739 24.7862ZM46.8167 22.6926L47.0603 22.8676C47.0855 22.8325 47.1481 22.7801 47.313 22.7531L47.2644 22.457L47.2159 22.161C46.9597 22.203 46.7237 22.3077 46.573 22.5176L46.8167 22.6926ZM47.2644 22.457L47.313 22.7531C47.4787 22.7259 47.5539 22.7489 47.5809 22.7641C47.5937 22.7713 47.623 22.7896 47.6382 22.8821L47.9342 22.8335L48.2303 22.785C48.1936 22.5618 48.0854 22.3594 47.8749 22.2411C47.6787 22.1307 47.4448 22.1234 47.2159 22.161L47.2644 22.457ZM47.9342 22.8335L47.6382 22.8821C47.6657 23.05 47.5953 23.3246 47.2998 23.736L47.5435 23.911L47.7872 24.086C48.1077 23.6397 48.2977 23.196 48.2303 22.785L47.9342 22.8335ZM47.5435 23.911L47.2998 23.736C46.708 24.5602 46.1565 25.296 45.6453 25.9436L45.8807 26.1295L46.1162 26.3154C46.6342 25.6592 47.1912 24.916 47.7872 24.086L47.5435 23.911ZM45.8807 26.1295L45.6453 25.9436C45.1352 26.5897 44.642 27.1646 44.1655 27.6689L44.3836 27.8749L44.6016 28.081C45.0922 27.5618 45.5971 26.973 46.1162 26.3154L45.8807 26.1295ZM44.3836 27.8749L44.1702 27.6641C43.418 28.4253 42.5653 29.1511 41.6112 29.8414L41.787 30.0844L41.9629 30.3275C42.9412 29.6197 43.8195 28.8726 44.597 28.0858L44.3836 27.8749ZM41.787 30.0844L41.6112 29.8414C40.6725 30.5204 39.7717 30.9218 38.9076 31.0635L38.9561 31.3596L39.0047 31.6556C39.9826 31.4952 40.9691 31.0464 41.9629 30.3275L41.787 30.0844ZM44.8902 29.9401L45.1714 30.0448L45.1743 30.037L45.1767 30.0291L44.8902 29.9401ZM45.0824 29.3817L45.3612 29.4923L45.3656 29.4813L45.3691 29.47L45.0824 29.3817ZM47.4627 21.6543L47.7494 21.7426L47.7498 21.7413L47.4627 21.6543ZM50.0842 17.3734L49.7908 17.3108L50.0842 17.3734ZM49.5131 19.5749L49.2253 19.49L49.224 19.495L49.5131 19.5749ZM48.4523 22.9918L48.1712 22.8871L48.7087 23.1475L48.4523 22.9918ZM52.5374 17.2547L52.306 17.0637L52.3059 17.0639L52.5374 17.2547ZM58.2192 19.768L57.9317 19.6823L57.9314 19.6834L58.2192 19.768ZM57.8556 25.7052L57.9953 25.9706L58.0064 25.9648L58.0169 25.9581L57.8556 25.7052ZM56.3927 26.918L56.2052 27.1521L56.2113 27.1571L56.2177 27.1617L56.3927 26.918ZM56.8577 19.8697L56.5716 19.7796L56.5712 19.7808L56.8577 19.8697ZM55.0383 16.439L55.2554 16.6461L55.2555 16.646L55.0383 16.439ZM48.234 26.1082L48.5025 26.2421L48.5029 26.2411L48.234 26.1082ZM46.0991 30.3904L45.8304 30.2564L45.8258 30.2666L46.0991 30.3904ZM45.5258 30.8492L45.4772 30.5532C45.2992 30.5824 45.2144 30.5579 45.1801 30.5383C45.1591 30.5262 45.1237 30.4984 45.1061 30.3911L44.8101 30.4397L44.514 30.4883C44.5525 30.7231 44.6645 30.9345 44.8821 31.059C45.0864 31.1759 45.3314 31.1851 45.5744 31.1453L45.5258 30.8492ZM44.8101 30.4397L45.1061 30.3911C45.0966 30.3335 45.1045 30.2243 45.1714 30.0448L44.8902 29.9401L44.6091 29.8354C44.5259 30.0589 44.4803 30.2828 44.514 30.4883L44.8101 30.4397ZM44.8902 29.9401L45.1767 30.0291C45.2463 29.8052 45.3077 29.627 45.3612 29.4923L45.0824 29.3817L44.8035 29.271C44.7423 29.4253 44.6757 29.6195 44.6037 29.8512L44.8902 29.9401ZM45.0824 29.3817L45.3691 29.47L47.7494 21.7426L47.4627 21.6543L47.176 21.566L44.7956 29.2933L45.0824 29.3817ZM47.4627 21.6543L47.7498 21.7413C48.2586 20.0623 48.6343 18.7567 48.8759 17.8265C48.9967 17.3618 49.085 16.9868 49.1398 16.704C49.1671 16.5627 49.1869 16.4404 49.1979 16.3391C49.2081 16.2449 49.2138 16.1445 49.1998 16.0593L48.9037 16.1079L48.6077 16.1564C48.6071 16.1529 48.6085 16.1601 48.608 16.1835C48.6076 16.2054 48.6056 16.2353 48.6014 16.2744C48.5929 16.3528 48.5764 16.4573 48.5507 16.5899C48.4994 16.8548 48.4147 17.2159 48.2952 17.6756C48.0566 18.5942 47.6836 19.8908 47.1756 21.5673L47.4627 21.6543ZM48.9037 16.1079L49.1998 16.0593C49.1771 15.9207 49.2034 15.8655 49.2176 15.8457C49.2318 15.8259 49.2757 15.7834 49.4143 15.7606L49.3657 15.4646L49.3171 15.1685C49.0873 15.2062 48.87 15.3011 48.7302 15.4957C48.5905 15.6904 48.57 15.9266 48.6077 16.1564L48.9037 16.1079ZM49.3657 15.4646L49.4143 15.7606C49.6146 15.7277 49.7201 15.7638 49.7794 15.8088C49.8419 15.8561 49.9129 15.9584 49.9491 16.1795L50.2452 16.131L50.5412 16.0824C50.4912 15.7773 50.3724 15.5053 50.1417 15.3305C49.9079 15.1534 49.6167 15.1194 49.3171 15.1685L49.3657 15.4646ZM50.2452 16.131L49.9491 16.1795C49.9566 16.2248 49.9566 16.3363 49.9301 16.5412C49.9047 16.737 49.8587 16.9927 49.7908 17.3108L50.0842 17.3734L50.3776 17.4361C50.4472 17.11 50.4968 16.8367 50.5251 16.6183C50.5522 16.409 50.564 16.2214 50.5412 16.0824L50.2452 16.131ZM50.0842 17.3734L49.7908 17.3108C49.6553 17.9455 49.467 18.6717 49.2254 19.49L49.5131 19.5749L49.8008 19.6599C50.0456 18.831 50.2381 18.0895 50.3776 17.4361L50.0842 17.3734ZM49.5131 19.5749L49.224 19.495C48.8177 20.9639 48.4668 22.0932 48.1712 22.8871L48.4523 22.9918L48.7334 23.0965C49.0381 22.2785 49.3944 21.1299 49.8023 19.6549L49.5131 19.5749ZM48.4523 22.9918L48.7087 23.1475C49.3432 22.1032 49.9991 21.1096 50.6764 20.1665L50.4327 19.9916L50.189 19.8166C49.5024 20.7727 48.838 21.7792 48.1959 22.836L48.4523 22.9918ZM50.4327 19.9916L50.6764 20.1665C51.3545 19.2222 52.052 18.3152 52.7689 17.4455L52.5374 17.2547L52.3059 17.0639C51.5803 17.9442 50.8747 18.8617 50.189 19.8166L50.4327 19.9916ZM52.5374 17.2547L52.7687 17.4457C53.8324 16.1572 54.7889 15.1733 55.6384 14.4869C56.4922 13.7972 57.2147 13.4269 57.8114 13.329L57.7628 13.033L57.7142 12.737C56.9688 12.8593 56.1494 13.3027 55.2614 14.0202C54.3691 14.7411 53.3839 15.758 52.306 17.0637L52.5374 17.2547ZM57.7628 13.033L57.8114 13.329C58.2305 13.2603 58.506 13.3169 58.6846 13.4374C58.8595 13.5553 58.999 13.7735 59.062 14.1575L59.358 14.1089L59.6541 14.0604C59.5746 13.5759 59.377 13.1806 59.0201 12.9399C58.6671 12.7018 58.2162 12.6546 57.7142 12.737L57.7628 13.033ZM59.358 14.1089L59.062 14.1575C59.117 14.4925 59.0663 15.1128 58.8764 16.0566C58.6891 16.9871 58.3748 18.1948 57.9317 19.6823L58.2192 19.768L58.5067 19.8536C58.9523 18.3579 59.2722 17.1308 59.4646 16.175C59.6543 15.2324 59.7286 14.5148 59.6541 14.0604L59.358 14.1089ZM58.2192 19.768L57.9314 19.6834C57.4881 21.1919 57.1689 22.4217 56.9756 23.3701C56.7854 24.3034 56.7074 25.0065 56.7779 25.4361L57.0739 25.3875L57.37 25.339C57.3195 25.0317 57.372 24.4298 57.5635 23.4899C57.752 22.5652 58.0659 21.3536 58.507 19.8526L58.2192 19.768ZM57.0739 25.3875L56.7779 25.4361C56.81 25.6322 56.8751 25.8265 57.0101 25.9663C57.162 26.1235 57.3619 26.1712 57.5619 26.1384L57.5133 25.8424L57.4648 25.5463C57.4412 25.5502 57.4342 25.5471 57.4373 25.548C57.442 25.5494 57.4442 25.5521 57.4416 25.5494C57.4302 25.5375 57.3939 25.485 57.37 25.339L57.0739 25.3875ZM57.5133 25.8424L57.5619 26.1384C57.6917 26.1171 57.842 26.0514 57.9953 25.9706L57.8556 25.7052L57.716 25.4397C57.5708 25.516 57.4929 25.5417 57.4648 25.5463L57.5133 25.8424ZM57.8556 25.7052L58.0169 25.9581C58.1569 25.8689 58.2967 25.8152 58.4374 25.7921L58.3888 25.4961L58.3403 25.2C58.1126 25.2374 57.8969 25.3231 57.6944 25.4522L57.8556 25.7052ZM58.3888 25.4961L58.4374 25.7921C58.6198 25.7622 58.7086 25.792 58.7505 25.8203C58.7885 25.8459 58.8412 25.906 58.8674 26.0661L59.1635 26.0175L59.4595 25.969C59.4167 25.7081 59.3057 25.4708 59.0855 25.3225C58.8692 25.1769 58.6053 25.1566 58.3403 25.2L58.3888 25.4961ZM59.1635 26.0175L58.8674 26.0661C58.8798 26.1413 58.8695 26.198 58.8451 26.2474C58.8191 26.3 58.7672 26.3633 58.6674 26.4313C58.4607 26.5721 58.0993 26.6988 57.5471 26.7894L57.5957 27.0855L57.6443 27.3815C58.2236 27.2864 58.6893 27.1424 59.0052 26.9272C59.1666 26.8172 59.2999 26.6813 59.383 26.5133C59.4677 26.3421 59.4904 26.1569 59.4595 25.969L59.1635 26.0175ZM57.5957 27.0855L57.5471 26.7894C57.0558 26.87 56.7501 26.8053 56.5677 26.6743L56.3927 26.918L56.2177 27.1617C56.5867 27.4267 57.0829 27.4736 57.6443 27.3815L57.5957 27.0855ZM56.3927 26.918L56.5803 26.6839C56.3687 26.5144 56.2246 26.264 56.1651 25.9014L55.8691 25.95L55.573 25.9986C55.6517 26.4781 55.8567 26.873 56.2052 27.1521L56.3927 26.918ZM55.8691 25.95L56.1651 25.9014C55.9704 24.7143 56.2783 22.7477 57.1442 19.9587L56.8577 19.8697L56.5712 19.7808C55.7045 22.5726 55.3533 24.6595 55.573 25.9986L55.8691 25.95ZM56.8577 19.8697L57.1439 19.9599C57.5801 18.5751 57.8982 17.465 58.0967 16.6323C58.1958 16.2162 58.2663 15.8648 58.3063 15.5805C58.3453 15.3038 58.3596 15.0644 58.3302 14.8856L58.0342 14.9342L57.7381 14.9827C57.752 15.067 57.7496 15.2307 57.7122 15.4968C57.6757 15.7554 57.6099 16.0867 57.513 16.4932C57.3193 17.3057 57.006 18.4003 56.5716 19.7796L56.8577 19.8697ZM58.0342 14.9342L58.3302 14.8856C58.2996 14.6992 58.2344 14.511 58.0948 14.377C57.9405 14.229 57.7433 14.1914 57.5526 14.2227L57.6012 14.5188L57.6498 14.8148C57.6764 14.8104 57.6865 14.8133 57.6856 14.8131C57.6853 14.813 57.6836 14.8125 57.6816 14.8114C57.6796 14.8102 57.6789 14.8094 57.6794 14.81C57.6841 14.8144 57.7169 14.8533 57.7381 14.9827L58.0342 14.9342ZM57.6012 14.5188L57.5526 14.2227C57.1909 14.2821 56.7854 14.5011 56.3464 14.83C55.9009 15.1638 55.3921 15.633 54.8211 16.2321L55.0383 16.439L55.2555 16.646C55.8142 16.0598 56.2974 15.6164 56.7062 15.3102C57.1215 14.999 57.4326 14.8504 57.6498 14.8148L57.6012 14.5188ZM55.0383 16.439L54.8212 16.232C53.5893 17.5238 52.385 18.9732 51.208 20.5796L51.45 20.7569L51.692 20.9342C52.8554 19.3463 54.0433 17.9171 55.2554 16.6461L55.0383 16.439ZM51.45 20.7569L51.208 20.5796C50.0265 22.1922 48.9457 23.9911 47.965 25.9753L48.234 26.1082L48.5029 26.2411C49.4699 24.2847 50.5331 22.516 51.692 20.9342L51.45 20.7569ZM48.234 26.1082L47.9655 25.9744L45.8306 30.2565L46.0991 30.3904L46.3676 30.5242L48.5024 26.2421L48.234 26.1082ZM46.0991 30.3904L45.8258 30.2666C45.7442 30.4468 45.6322 30.5278 45.4772 30.5532L45.5258 30.8492L45.5744 31.1453C45.9457 31.0843 46.2159 30.8594 46.3723 30.5142L46.0991 30.3904ZM62.913 22.3217L62.6234 22.2434L62.6228 22.2456L62.913 22.3217ZM66.8898 9.99527L67.1726 10.0955L67.3422 9.61704L66.8413 9.69922L66.8898 9.99527ZM64.1126 10.8563L64.2374 11.1291L64.2427 11.1266L64.1126 10.8563ZM62.88 11.9908L63.179 12.0155L63.1803 12L63.18 11.9846L62.88 11.9908ZM62.7345 12.3389L62.9781 12.5139L62.7345 12.3389ZM62.9639 10.0314L63.1221 10.2862L62.9639 10.0314ZM67.3931 8.61558L67.4417 8.91163L67.6086 8.88425L67.6715 8.72732L67.3931 8.61558ZM69.3784 3.6689L69.1025 3.55091L69.1 3.55716L69.3784 3.6689ZM69.8151 2.62443L70.0928 2.73828L70.0962 2.72913L69.8151 2.62443ZM70.3313 1.32369L70.0622 1.19114L70.0581 1.19944L70.0545 1.20798L70.3313 1.32369ZM71.6546 0.741779L71.4537 0.964642L71.4661 0.975766L71.4796 0.985457L71.6546 0.741779ZM70.652 4.51385L70.9242 4.63997L70.9244 4.63959L70.652 4.51385ZM68.8931 8.3695L68.6119 8.26479L68.4315 8.74924L68.9416 8.66554L68.8931 8.3695ZM70.6887 8.1965L70.7076 8.49607L70.7175 8.49511L70.6887 8.1965ZM73.5366 8.01301L73.549 8.31275L73.5572 8.31241L73.5654 8.31162L73.5366 8.01301ZM72.5008 9.35846L72.507 9.65873L72.5211 9.65777L72.5008 9.35846ZM70.6921 9.45252L70.716 9.75157L70.6921 9.45252ZM69.0673 9.67856L69.0014 9.38587L68.9991 9.3864L69.0673 9.67856ZM68.4817 9.81517L68.4135 9.52302L68.2563 9.55968L68.2003 9.71106L68.4817 9.81517ZM63.3836 28.649L63.0882 28.701L63.0911 28.7177L63.0959 28.7339L63.3836 28.649ZM63.4749 28.9583L63.7709 28.9098L63.7679 28.8913L63.7626 28.8734L63.4749 28.9583ZM62.9204 29.7789L62.8719 29.4829C62.7148 29.5086 62.617 29.4695 62.5335 29.3757C62.4318 29.2614 62.3334 29.0422 62.2722 28.6692L61.9762 28.7178L61.6801 28.7664C61.7485 29.1828 61.8722 29.5352 62.0853 29.7746C62.3166 30.0345 62.6261 30.1312 62.969 30.075L62.9204 29.7789ZM61.9762 28.7178L62.2722 28.6692C62.1848 28.1363 62.21 27.3503 62.3648 26.2939C62.5187 25.2427 62.7976 23.9448 63.2032 22.3978L62.913 22.3217L62.6228 22.2456C62.214 23.8048 61.9294 25.126 61.7711 26.2069C61.6136 27.2824 61.5776 28.1414 61.6801 28.7664L61.9762 28.7178ZM62.913 22.3217L63.2026 22.4C64.0406 19.3002 65.3633 15.1996 67.1726 10.0955L66.8898 9.99527L66.6071 9.89503C64.7956 15.0053 63.4671 19.1223 62.6234 22.2434L62.913 22.3217ZM66.8898 9.99527L66.8413 9.69922C65.8151 9.86759 64.8616 10.1627 63.9825 10.586L64.1126 10.8563L64.2427 11.1266C65.0666 10.7299 65.9647 10.4511 66.9384 10.2913L66.8898 9.99527ZM64.1126 10.8563L63.9878 10.5834C63.5601 10.779 63.2178 10.984 62.9791 11.2036C62.7412 11.4226 62.5737 11.6879 62.5801 11.997L62.88 11.9908L63.18 11.9846C63.1785 11.9166 63.2125 11.8043 63.3855 11.6451C63.5577 11.4866 63.8355 11.3128 64.2374 11.1291L64.1126 10.8563ZM62.88 11.9908L62.581 11.9661C62.5778 12.0049 62.5584 12.0698 62.4908 12.164L62.7345 12.3389L62.9781 12.5139C63.0865 12.363 63.1641 12.1958 63.179 12.0155L62.88 11.9908ZM62.7345 12.3389L62.4908 12.164C62.4927 12.1613 62.4876 12.1703 62.4596 12.1841C62.4304 12.1983 62.383 12.2142 62.3106 12.2261L62.3592 12.5221L62.4077 12.8182C62.622 12.783 62.8433 12.7016 62.9781 12.5139L62.7345 12.3389ZM62.3592 12.5221L62.3106 12.2261C62.1457 12.2531 62.0697 12.2235 62.0346 12.1983C61.9995 12.1731 61.9471 12.1105 61.92 11.9456L61.624 11.9942L61.328 12.0427C61.37 12.2989 61.4747 12.5348 61.6846 12.6856C61.8946 12.8364 62.1516 12.8602 62.4077 12.8182L62.3592 12.5221ZM61.624 11.9942L61.92 11.9456C61.8391 11.4521 62.1403 10.8959 63.1221 10.2862L62.9639 10.0314L62.8056 9.77649C61.7764 10.4156 61.1844 11.1679 61.328 12.0427L61.624 11.9942ZM62.9639 10.0314L63.1221 10.2862C64.0791 9.69202 65.5108 9.22842 67.4417 8.91163L67.3931 8.61558L67.3445 8.31954C65.3809 8.64171 63.8597 9.12196 62.8056 9.77649L62.9639 10.0314ZM67.3931 8.61558L67.6715 8.72732L69.6569 3.78064L69.3784 3.6689L69.1 3.55716L67.1147 8.50384L67.3931 8.61558ZM69.3784 3.6689L69.6543 3.78686C69.7917 3.46558 69.9378 3.11602 70.0927 2.73822L69.8151 2.62443L69.5375 2.51064C69.3836 2.8861 69.2386 3.23285 69.1026 3.55094L69.3784 3.6689ZM69.8151 2.62443L70.0962 2.72913C70.2447 2.33044 70.4153 1.90057 70.6081 1.4394L70.3313 1.32369L70.0545 1.20798C69.8592 1.67523 69.6856 2.11252 69.534 2.51972L69.8151 2.62443ZM70.3313 1.32369L70.6005 1.45624C70.7755 1.10073 70.9801 0.953769 71.1971 0.918172L71.1485 0.62213L71.1 0.326088C70.6327 0.402741 70.2925 0.723486 70.0622 1.19114L70.3313 1.32369ZM71.1485 0.62213L71.1971 0.918172C71.3423 0.894352 71.4112 0.926279 71.4537 0.964642L71.6546 0.741779L71.8554 0.518916C71.6443 0.32867 71.3758 0.280829 71.1 0.326088L71.1485 0.62213ZM71.6546 0.741779L71.4796 0.985457C71.5467 1.03368 71.5677 1.07721 71.5747 1.1197L71.8707 1.07113L72.1668 1.02256C72.1306 0.801898 72.0075 0.625857 71.8296 0.498102L71.6546 0.741779ZM71.8707 1.07113L71.5747 1.1197C71.5812 1.15954 71.579 1.25881 71.5381 1.44348C71.4991 1.61976 71.4312 1.84693 71.3318 2.12774C71.1332 2.68883 70.8167 3.44126 70.3797 4.38812L70.652 4.51385L70.9244 4.63959C71.3646 3.68602 71.6898 2.91444 71.8974 2.32796C72.0011 2.03498 72.0776 1.78248 72.1239 1.57318C72.1684 1.37227 72.1926 1.18007 72.1668 1.02256L71.8707 1.07113ZM70.652 4.51385L70.3798 4.38773C69.2868 6.74675 68.6923 8.04898 68.6119 8.26479L68.8931 8.3695L69.1742 8.47421C69.2439 8.28707 69.822 7.01887 70.9242 4.63997L70.652 4.51385ZM68.8931 8.3695L68.9416 8.66554C69.321 8.6033 69.9074 8.54634 70.7076 8.4959L70.6887 8.1965L70.6699 7.89709C69.8653 7.9478 69.2546 8.00618 68.8445 8.07346L68.8931 8.3695ZM70.6887 8.1965L70.7175 8.49511C71.5086 8.4189 72.4521 8.35804 73.549 8.31275L73.5366 8.01301L73.5242 7.71326C72.4201 7.75885 71.4651 7.82031 70.66 7.89788L70.6887 8.1965ZM73.5366 8.01301L73.5654 8.31162C73.7225 8.29649 73.7979 8.32623 73.8332 8.35159C73.8648 8.37426 73.9082 8.42479 73.9298 8.55652L74.2258 8.50795L74.5219 8.45938C74.483 8.2227 74.3814 8.00654 74.1832 7.86423C73.9888 7.72461 73.7498 7.69108 73.5078 7.71439L73.5366 8.01301ZM74.2258 8.50795L73.9298 8.55652C73.9553 8.71178 73.9239 8.78365 73.8929 8.82176C73.8563 8.86687 73.7696 8.92735 73.5704 8.96003L73.6189 9.25608L73.6675 9.55212C73.942 9.50709 74.1932 9.40402 74.3589 9.19976C74.5303 8.9885 74.5655 8.72516 74.5219 8.45938L74.2258 8.50795ZM73.6189 9.25608L73.5704 8.96003C73.4026 8.98756 73.0442 9.02095 72.4805 9.05914L72.5008 9.35846L72.5211 9.65777C73.0799 9.6199 73.4669 9.58503 73.6675 9.55212L73.6189 9.25608ZM72.5008 9.35846L72.4946 9.05852C71.9224 9.07038 71.3136 9.10207 70.6683 9.15346L70.6921 9.45252L70.716 9.75157C71.3511 9.70099 71.948 9.66998 72.507 9.65839L72.5008 9.35846ZM70.6921 9.45252L70.6683 9.15346C70.0193 9.20516 69.4627 9.28207 69.0014 9.38588L69.0673 9.67856L69.1332 9.97124C69.558 9.87563 70.0846 9.80185 70.716 9.75157L70.6921 9.45252ZM69.0673 9.67856L68.9991 9.3864L68.4135 9.52302L68.4817 9.81517L68.5498 10.1073L69.1354 9.97072L69.0673 9.67856ZM68.4817 9.81517L68.2003 9.71106C66.2987 14.8501 64.9202 18.9968 64.0671 22.1484C63.6406 23.724 63.3441 25.0559 63.1796 26.1416C63.016 27.2213 62.9791 28.0809 63.0882 28.701L63.3836 28.649L63.6791 28.597C63.5872 28.0746 63.612 27.2925 63.7728 26.2315C63.9326 25.1765 64.2231 23.8685 64.6463 22.3051C65.4926 19.1787 66.8641 15.0511 68.763 9.91928L68.4817 9.81517ZM63.3836 28.649L63.0959 28.7339L63.1872 29.0432L63.4749 28.9583L63.7626 28.8734L63.6714 28.5641L63.3836 28.649ZM63.4749 28.9583L63.1789 29.0069L63.1918 29.0858L63.4879 29.0373L63.7839 28.9887L63.7709 28.9098L63.4749 28.9583ZM63.4879 29.0373L63.1918 29.0858C63.2181 29.246 63.1874 29.3198 63.1595 29.3562C63.1288 29.3963 63.0542 29.453 62.8719 29.4829L62.9204 29.7789L62.969 30.075C63.234 30.0315 63.4776 29.9278 63.6361 29.7207C63.7974 29.5099 63.8267 29.2496 63.7839 28.9887L63.4879 29.0373Z" fill="#F33E5C" mask="url(#path-2-outside-1_797_5408)"/>
</g>
</svg>
