<svg width="63" height="27" viewBox="0 0 63 27" fill="none" xmlns="http://www.w3.org/2000/svg">
<mask id="mask0_797_5993" style="mask-type:alpha" maskUnits="userSpaceOnUse" x="0" y="0" width="63" height="27">
<rect x="0.5" y="0.5" width="62" height="26" fill="#D9D9D9" stroke="#F33E5C"/>
</mask>
<g mask="url(#mask0_797_5993)">
<mask id="path-2-outside-1_797_5993" maskUnits="userSpaceOnUse" x="-3.32429" y="-0.932979" width="68.2054" height="29.4347" fill="black">
<rect fill="white" x="-3.32429" y="-0.932979" width="68.2054" height="29.4347"/>
<path d="M0.832353 26.6382C0.532364 26.6874 0.35776 26.562 0.308543 26.262C0.295591 26.1831 0.305027 26.0924 0.336851 25.9899C0.381874 25.869 0.424307 25.7323 0.464149 25.5799C0.623271 25.0673 0.775793 24.564 0.921717 24.0699C1.06764 23.5757 1.22158 23.0316 1.38354 22.4376C1.5587 21.8251 1.75119 21.1207 1.961 20.3242C2.18661 19.5251 2.45077 18.5657 2.75347 17.4459C3.10119 16.2052 3.42887 15.0895 3.73651 14.0986C4.04414 13.1077 4.34364 12.2155 4.63499 11.4218C4.30577 11.5893 3.98573 11.7634 3.67489 11.9441C3.37725 12.1065 3.14806 12.2414 2.98733 12.3488C2.81341 12.4746 2.69746 12.5585 2.63948 12.6004C2.59471 12.624 2.54074 12.641 2.47759 12.6513C2.25654 12.6876 2.12659 12.5873 2.08774 12.3505C2.06701 12.2242 2.13313 12.0836 2.28608 11.9288C2.75531 11.5275 3.67594 11.0117 5.04797 10.3812C5.17502 10.0685 5.29936 9.78871 5.42098 9.54176C5.48438 9.43407 5.56876 9.35538 5.6741 9.30567C5.79523 9.25336 5.89527 9.22074 5.97421 9.20779C6.11631 9.18447 6.19772 9.23597 6.21845 9.36228C6.23917 9.48859 6.21111 9.66344 6.13426 9.88683C8.03016 9.08937 9.60178 8.58831 10.8491 8.38367C13.7858 7.90186 15.3967 8.52934 15.6816 10.2661C15.8293 11.1661 15.7141 11.9957 15.336 12.7549C14.9579 13.5141 14.3919 14.215 13.638 14.8576C12.8999 15.4975 12.0567 16.0898 11.1083 16.6346C8.79033 17.9228 6.72346 18.7159 4.90773 19.0138C4.6709 19.0527 4.52787 18.9221 4.47866 18.6221C4.44757 18.4327 4.55834 18.3172 4.81096 18.2757C6.59511 17.983 8.58562 17.2187 10.7825 15.9827C11.6571 15.4825 12.4186 14.936 13.0672 14.3432C13.7132 13.7346 14.2014 13.1032 14.5319 12.4491C14.8597 11.7791 14.9719 11.1284 14.8682 10.4969C14.6558 9.20216 13.3655 8.74909 10.9971 9.13765C10.2866 9.25422 9.49434 9.46528 8.62027 9.77082C7.74362 10.0606 6.77729 10.4461 5.72128 10.9274C5.38231 11.8262 5.03262 12.8077 4.67219 13.8721C4.32496 14.9181 3.98537 16.0602 3.65344 17.2983L1.89311 23.7646C1.81083 24.0537 1.70863 24.4191 1.58652 24.8607C1.46181 25.2865 1.3186 25.7477 1.15689 26.2445C1.08263 26.4836 0.974453 26.6149 0.832353 26.6382ZM16.1855 23.6572C14.9066 23.867 14.1493 23.2536 13.9135 21.8168C13.8047 21.1536 13.8486 20.433 14.0453 19.6549C14.2419 18.8768 14.5502 18.1371 14.9702 17.4359C15.3876 16.7188 15.8797 16.1112 16.4465 15.6128C17.0291 15.1119 17.652 14.807 18.3151 14.6982C18.8993 14.6024 19.3619 14.7535 19.7028 15.1515C20.0438 15.5496 20.2583 16.017 20.3463 16.5539C20.4629 17.2644 20.44 18.014 20.2775 18.8027C20.1125 19.5756 19.8357 20.3101 19.4473 21.0062C19.0589 21.7022 18.5879 22.2902 18.0343 22.7702C17.4807 23.2502 16.8644 23.5458 16.1855 23.6572ZM16.0374 22.9032C16.1322 22.8877 16.1861 22.8707 16.1993 22.8524C16.8022 22.6724 17.3343 22.3581 17.7958 21.9095C18.2572 21.4608 18.6334 20.937 18.9242 20.338C19.2283 19.7207 19.4311 19.0793 19.5328 18.4141C19.6344 17.7489 19.6347 17.1084 19.5337 16.4926C19.4741 16.1295 19.3249 15.8621 19.0859 15.6905C18.847 15.5189 18.5696 15.4591 18.2539 15.5109C17.796 15.586 17.3376 15.8558 16.8788 16.3202C16.4357 16.782 16.0331 17.3426 15.6711 18.0019C15.3248 18.6586 15.0627 19.334 14.8847 20.0279C14.7041 20.7061 14.6553 21.2978 14.7382 21.8031C14.8781 22.6557 15.3112 23.0224 16.0374 22.9032ZM25.7343 12.6298C25.4659 12.6738 25.3097 12.5616 25.2656 12.2932C25.2527 12.2143 25.2846 12.0631 25.3615 11.8397C25.4357 11.6005 25.5258 11.3588 25.6316 11.1144C25.7374 10.8701 25.8234 10.7019 25.8893 10.61C26.1085 10.266 26.2827 10.0429 26.4119 9.94061C26.5568 9.83576 26.6924 9.77297 26.8187 9.75225C27.1503 9.69785 27.3407 9.82065 27.3899 10.1206C27.408 10.2312 27.359 10.377 27.2428 10.5582C27.1398 10.721 27.0118 10.8799 26.8589 11.0347C26.6322 11.234 26.495 11.3862 26.4474 11.4913L26.0468 12.311C26.0414 12.3767 26.0123 12.4464 25.9595 12.5199C25.9199 12.575 25.8448 12.6116 25.7343 12.6298ZM23.2818 22.8821C22.8397 22.9546 22.5018 22.9209 22.268 22.7809C22.0501 22.6383 21.9126 22.3933 21.8556 22.046C21.8012 21.7144 21.83 21.2476 21.942 20.6455C22.0514 20.0276 22.2096 19.3612 22.4166 18.6463C22.6394 17.9288 22.8831 17.2402 23.1478 16.5807C23.4125 15.9211 23.6796 15.3747 23.949 14.9413C24.2316 14.4896 24.4755 14.2469 24.6808 14.2132C24.965 14.1666 25.1278 14.2696 25.1692 14.5222C25.1951 14.6801 25.1101 15.0021 24.9143 15.4883C24.7184 15.9744 24.5014 16.4802 24.2633 17.0057C24.1655 17.2001 24.0307 17.4654 23.8589 17.8016C23.687 18.1379 23.5205 18.4571 23.3593 18.7592C23.1955 19.0455 23.0898 19.2411 23.0422 19.3462C22.9231 19.609 22.8208 20.023 22.7352 20.5883C22.6338 21.1562 22.6064 21.5823 22.6531 21.8665C22.6738 21.9928 22.713 22.0836 22.7707 22.139C22.8443 22.1918 22.9836 22.2014 23.1889 22.1677C23.5836 22.103 24.005 21.9041 24.453 21.5712C24.901 21.2383 25.3466 20.8409 25.7896 20.3791C26.2301 19.9014 26.6377 19.4211 27.0125 18.9381C27.403 18.4524 27.7315 18.0337 27.9981 17.6819C28.0509 17.6084 28.1404 17.5613 28.2668 17.5406C28.5036 17.5017 28.6376 17.577 28.6686 17.7665C28.6971 17.9402 28.619 18.1557 28.4342 18.413C28.0778 18.9092 27.7453 19.3529 27.4365 19.744C27.1278 20.1352 26.8284 20.4843 26.5382 20.7913C26.0794 21.2557 25.5601 21.6976 24.9803 22.117C24.4006 22.5364 23.8344 22.7914 23.2818 22.8821ZM27.2236 22.5759C26.971 22.6173 26.8278 22.5354 26.7941 22.3302C26.7812 22.2512 26.7972 22.1513 26.8422 22.0304C26.8847 21.8938 26.9231 21.7821 26.9575 21.6953L28.3857 17.0589C28.9958 15.0456 29.284 13.9363 29.2504 13.7311C29.2141 13.51 29.3065 13.3814 29.5275 13.3451C29.8275 13.2959 30.0034 13.4292 30.0552 13.7449C30.0734 13.8555 30.0412 14.104 29.9586 14.4904C29.8761 14.8769 29.7619 15.3172 29.616 15.8113C29.3717 16.6945 29.1596 17.3779 28.9795 17.8614C29.3625 17.2311 29.7586 16.631 30.1677 16.0613C30.5769 15.4915 30.9978 14.9442 31.4305 14.4192C32.7155 12.8626 33.7606 12.0183 34.5658 11.8862C35.1184 11.7955 35.4374 12.0107 35.5229 12.5317C35.6006 13.0054 35.3729 14.1372 34.8396 15.9271C34.309 17.7329 34.0799 18.8568 34.1525 19.2989C34.1861 19.5041 34.274 19.5951 34.4161 19.5718C34.4635 19.564 34.5319 19.5366 34.6215 19.4894C34.7242 19.4239 34.8309 19.3821 34.9414 19.364C35.2098 19.32 35.3647 19.4243 35.4062 19.6769C35.458 19.9927 35.1444 20.2062 34.4655 20.3176C34.1497 20.3694 33.9091 20.3359 33.7437 20.2172C33.5757 20.0826 33.471 19.889 33.4296 19.6364C33.3052 18.8785 33.5029 17.6624 34.0227 15.9882C34.5451 14.3297 34.7804 13.3426 34.7286 13.0268C34.6975 12.8374 34.6109 12.7543 34.4688 12.7776C34.1215 12.8346 33.6089 13.2187 32.9311 13.9298C32.1979 14.6986 31.4802 15.5622 30.7781 16.5205C30.076 17.4788 29.4328 18.5491 28.8485 19.7313L27.5676 22.3006C27.4961 22.4582 27.3815 22.55 27.2236 22.5759ZM37.6604 21.9337C37.3604 21.9829 37.1715 21.7707 37.0938 21.297C36.9798 20.6023 37.1672 19.3231 37.6559 17.4594C38.1604 15.5931 38.9558 13.1278 40.042 10.0635C39.442 10.1619 38.8866 10.3341 38.3757 10.5801C37.8779 10.8077 37.6314 11.0346 37.6361 11.2608C37.6307 11.3266 37.6016 11.3962 37.5488 11.4697C37.5092 11.5249 37.4341 11.5615 37.3236 11.5796C37.071 11.6211 36.9239 11.5155 36.8825 11.2629C36.8152 10.8523 37.0831 10.4598 37.6864 10.0852C38.2898 9.71055 39.1756 9.42739 40.344 9.2357L41.5352 6.26769C41.6172 6.07588 41.7045 5.86699 41.7972 5.64101C41.8872 5.39924 41.9905 5.13909 42.1069 4.86057C42.2285 4.61362 42.392 4.4733 42.5972 4.43963C42.7235 4.41891 42.8247 4.44284 42.9008 4.51142C42.9744 4.56421 43.0176 4.63008 43.0306 4.70903C43.0694 4.94586 42.8257 5.63441 42.2993 6.77466C41.6408 8.19604 41.289 8.96717 41.2439 9.08805C41.4808 9.04919 41.8399 9.01459 42.3214 8.98425C42.8002 8.93812 43.3698 8.90142 44.0301 8.87416C44.2695 8.85109 44.4073 8.95008 44.4436 9.17112C44.4851 9.42375 44.3637 9.57337 44.0795 9.62C43.969 9.63813 43.7453 9.65861 43.4086 9.68143C43.0692 9.68846 42.7075 9.70727 42.3234 9.73786C41.9393 9.76845 41.6143 9.81366 41.3485 9.87349L40.9971 9.95545C38.7167 16.1179 37.6971 19.8847 37.9383 21.2558L37.993 21.4413L38.0008 21.4887C38.0423 21.7413 37.9288 21.8897 37.6604 21.9337ZM51.7392 18.6997C51.0603 18.8111 50.4604 18.8608 49.9396 18.849C49.3373 18.8343 48.8077 18.6699 48.3508 18.3557C47.9071 18.0232 47.6374 17.5648 47.5415 16.9806C47.5104 16.7911 47.5228 16.5702 47.5787 16.3178C47.6346 16.0655 47.7285 15.8474 47.8605 15.6636C47.9899 15.464 48.1335 15.3513 48.2914 15.3254C48.4493 15.2994 48.5412 15.3654 48.5671 15.5233C48.5801 15.6023 48.5283 15.781 48.4119 16.0595C48.2954 16.3381 48.2592 16.6115 48.3033 16.8799C48.4768 17.9378 49.5425 18.3061 51.5003 17.9849C52.053 17.8943 52.5991 17.7641 53.1387 17.5945C53.6784 17.4249 54.2037 17.2171 54.7146 16.9712C56.0525 16.3301 57.179 15.5373 58.0941 14.5926C59.2256 13.3855 59.7548 12.1637 59.6816 10.9273L59.6544 10.7615C59.4809 9.70362 58.9339 9.1367 58.0134 9.06071C56.8353 9.98363 55.8594 10.5085 55.0858 10.6355C54.4226 10.7443 54.0703 10.6724 54.0289 10.4197C54.0211 10.3724 54.0238 10.3395 54.037 10.3211C54.0856 9.82673 54.4181 9.4317 55.0343 9.13603C56.072 8.64151 56.9657 8.35706 57.7155 8.28268C60.0937 6.07654 61.1533 4.18403 60.8943 2.60514C60.7078 1.46834 59.8409 1.02687 58.2936 1.28072C56.6041 1.5579 55.1919 2.48679 54.0568 4.06741C54.0172 4.12255 53.9683 4.21975 53.9101 4.35902C53.8677 4.49569 53.808 4.67572 53.7312 4.89911C53.6357 5.20662 53.3785 5.51636 52.9594 5.82831C52.9041 5.88604 52.8132 5.92527 52.6869 5.94599C52.3395 6.00298 52.1438 5.89727 52.0998 5.62885C52.0843 5.53412 52.095 5.45129 52.132 5.38036C53.5014 2.65875 55.5045 1.08164 58.1413 0.649044C60.3202 0.291569 61.5326 0.862806 61.7787 2.36275C62.0559 4.05217 61.0354 6.08419 58.7173 8.45882C59.7739 8.77189 60.3955 9.49682 60.582 10.6336L60.617 10.8468C60.7725 12.7831 59.7816 14.5509 57.6443 16.15C55.8391 17.5001 53.8707 18.35 51.7392 18.6997Z"/>
</mask>
<path d="M0.832353 26.6382C0.532364 26.6874 0.35776 26.562 0.308543 26.262C0.295591 26.1831 0.305027 26.0924 0.336851 25.9899C0.381874 25.869 0.424307 25.7323 0.464149 25.5799C0.623271 25.0673 0.775793 24.564 0.921717 24.0699C1.06764 23.5757 1.22158 23.0316 1.38354 22.4376C1.5587 21.8251 1.75119 21.1207 1.961 20.3242C2.18661 19.5251 2.45077 18.5657 2.75347 17.4459C3.10119 16.2052 3.42887 15.0895 3.73651 14.0986C4.04414 13.1077 4.34364 12.2155 4.63499 11.4218C4.30577 11.5893 3.98573 11.7634 3.67489 11.9441C3.37725 12.1065 3.14806 12.2414 2.98733 12.3488C2.81341 12.4746 2.69746 12.5585 2.63948 12.6004C2.59471 12.624 2.54074 12.641 2.47759 12.6513C2.25654 12.6876 2.12659 12.5873 2.08774 12.3505C2.06701 12.2242 2.13313 12.0836 2.28608 11.9288C2.75531 11.5275 3.67594 11.0117 5.04797 10.3812C5.17502 10.0685 5.29936 9.78871 5.42098 9.54176C5.48438 9.43407 5.56876 9.35538 5.6741 9.30567C5.79523 9.25336 5.89527 9.22074 5.97421 9.20779C6.11631 9.18447 6.19772 9.23597 6.21845 9.36228C6.23917 9.48859 6.21111 9.66344 6.13426 9.88683C8.03016 9.08937 9.60178 8.58831 10.8491 8.38367C13.7858 7.90186 15.3967 8.52934 15.6816 10.2661C15.8293 11.1661 15.7141 11.9957 15.336 12.7549C14.9579 13.5141 14.3919 14.215 13.638 14.8576C12.8999 15.4975 12.0567 16.0898 11.1083 16.6346C8.79033 17.9228 6.72346 18.7159 4.90773 19.0138C4.6709 19.0527 4.52787 18.9221 4.47866 18.6221C4.44757 18.4327 4.55834 18.3172 4.81096 18.2757C6.59511 17.983 8.58562 17.2187 10.7825 15.9827C11.6571 15.4825 12.4186 14.936 13.0672 14.3432C13.7132 13.7346 14.2014 13.1032 14.5319 12.4491C14.8597 11.7791 14.9719 11.1284 14.8682 10.4969C14.6558 9.20216 13.3655 8.74909 10.9971 9.13765C10.2866 9.25422 9.49434 9.46528 8.62027 9.77082C7.74362 10.0606 6.77729 10.4461 5.72128 10.9274C5.38231 11.8262 5.03262 12.8077 4.67219 13.8721C4.32496 14.9181 3.98537 16.0602 3.65344 17.2983L1.89311 23.7646C1.81083 24.0537 1.70863 24.4191 1.58652 24.8607C1.46181 25.2865 1.3186 25.7477 1.15689 26.2445C1.08263 26.4836 0.974453 26.6149 0.832353 26.6382ZM16.1855 23.6572C14.9066 23.867 14.1493 23.2536 13.9135 21.8168C13.8047 21.1536 13.8486 20.433 14.0453 19.6549C14.2419 18.8768 14.5502 18.1371 14.9702 17.4359C15.3876 16.7188 15.8797 16.1112 16.4465 15.6128C17.0291 15.1119 17.652 14.807 18.3151 14.6982C18.8993 14.6024 19.3619 14.7535 19.7028 15.1515C20.0438 15.5496 20.2583 16.017 20.3463 16.5539C20.4629 17.2644 20.44 18.014 20.2775 18.8027C20.1125 19.5756 19.8357 20.3101 19.4473 21.0062C19.0589 21.7022 18.5879 22.2902 18.0343 22.7702C17.4807 23.2502 16.8644 23.5458 16.1855 23.6572ZM16.0374 22.9032C16.1322 22.8877 16.1861 22.8707 16.1993 22.8524C16.8022 22.6724 17.3343 22.3581 17.7958 21.9095C18.2572 21.4608 18.6334 20.937 18.9242 20.338C19.2283 19.7207 19.4311 19.0793 19.5328 18.4141C19.6344 17.7489 19.6347 17.1084 19.5337 16.4926C19.4741 16.1295 19.3249 15.8621 19.0859 15.6905C18.847 15.5189 18.5696 15.4591 18.2539 15.5109C17.796 15.586 17.3376 15.8558 16.8788 16.3202C16.4357 16.782 16.0331 17.3426 15.6711 18.0019C15.3248 18.6586 15.0627 19.334 14.8847 20.0279C14.7041 20.7061 14.6553 21.2978 14.7382 21.8031C14.8781 22.6557 15.3112 23.0224 16.0374 22.9032ZM25.7343 12.6298C25.4659 12.6738 25.3097 12.5616 25.2656 12.2932C25.2527 12.2143 25.2846 12.0631 25.3615 11.8397C25.4357 11.6005 25.5258 11.3588 25.6316 11.1144C25.7374 10.8701 25.8234 10.7019 25.8893 10.61C26.1085 10.266 26.2827 10.0429 26.4119 9.94061C26.5568 9.83576 26.6924 9.77297 26.8187 9.75225C27.1503 9.69785 27.3407 9.82065 27.3899 10.1206C27.408 10.2312 27.359 10.377 27.2428 10.5582C27.1398 10.721 27.0118 10.8799 26.8589 11.0347C26.6322 11.234 26.495 11.3862 26.4474 11.4913L26.0468 12.311C26.0414 12.3767 26.0123 12.4464 25.9595 12.5199C25.9199 12.575 25.8448 12.6116 25.7343 12.6298ZM23.2818 22.8821C22.8397 22.9546 22.5018 22.9209 22.268 22.7809C22.0501 22.6383 21.9126 22.3933 21.8556 22.046C21.8012 21.7144 21.83 21.2476 21.942 20.6455C22.0514 20.0276 22.2096 19.3612 22.4166 18.6463C22.6394 17.9288 22.8831 17.2402 23.1478 16.5807C23.4125 15.9211 23.6796 15.3747 23.949 14.9413C24.2316 14.4896 24.4755 14.2469 24.6808 14.2132C24.965 14.1666 25.1278 14.2696 25.1692 14.5222C25.1951 14.6801 25.1101 15.0021 24.9143 15.4883C24.7184 15.9744 24.5014 16.4802 24.2633 17.0057C24.1655 17.2001 24.0307 17.4654 23.8589 17.8016C23.687 18.1379 23.5205 18.4571 23.3593 18.7592C23.1955 19.0455 23.0898 19.2411 23.0422 19.3462C22.9231 19.609 22.8208 20.023 22.7352 20.5883C22.6338 21.1562 22.6064 21.5823 22.6531 21.8665C22.6738 21.9928 22.713 22.0836 22.7707 22.139C22.8443 22.1918 22.9836 22.2014 23.1889 22.1677C23.5836 22.103 24.005 21.9041 24.453 21.5712C24.901 21.2383 25.3466 20.8409 25.7896 20.3791C26.2301 19.9014 26.6377 19.4211 27.0125 18.9381C27.403 18.4524 27.7315 18.0337 27.9981 17.6819C28.0509 17.6084 28.1404 17.5613 28.2668 17.5406C28.5036 17.5017 28.6376 17.577 28.6686 17.7665C28.6971 17.9402 28.619 18.1557 28.4342 18.413C28.0778 18.9092 27.7453 19.3529 27.4365 19.744C27.1278 20.1352 26.8284 20.4843 26.5382 20.7913C26.0794 21.2557 25.5601 21.6976 24.9803 22.117C24.4006 22.5364 23.8344 22.7914 23.2818 22.8821ZM27.2236 22.5759C26.971 22.6173 26.8278 22.5354 26.7941 22.3302C26.7812 22.2512 26.7972 22.1513 26.8422 22.0304C26.8847 21.8938 26.9231 21.7821 26.9575 21.6953L28.3857 17.0589C28.9958 15.0456 29.284 13.9363 29.2504 13.7311C29.2141 13.51 29.3065 13.3814 29.5275 13.3451C29.8275 13.2959 30.0034 13.4292 30.0552 13.7449C30.0734 13.8555 30.0412 14.104 29.9586 14.4904C29.8761 14.8769 29.7619 15.3172 29.616 15.8113C29.3717 16.6945 29.1596 17.3779 28.9795 17.8614C29.3625 17.2311 29.7586 16.631 30.1677 16.0613C30.5769 15.4915 30.9978 14.9442 31.4305 14.4192C32.7155 12.8626 33.7606 12.0183 34.5658 11.8862C35.1184 11.7955 35.4374 12.0107 35.5229 12.5317C35.6006 13.0054 35.3729 14.1372 34.8396 15.9271C34.309 17.7329 34.0799 18.8568 34.1525 19.2989C34.1861 19.5041 34.274 19.5951 34.4161 19.5718C34.4635 19.564 34.5319 19.5366 34.6215 19.4894C34.7242 19.4239 34.8309 19.3821 34.9414 19.364C35.2098 19.32 35.3647 19.4243 35.4062 19.6769C35.458 19.9927 35.1444 20.2062 34.4655 20.3176C34.1497 20.3694 33.9091 20.3359 33.7437 20.2172C33.5757 20.0826 33.471 19.889 33.4296 19.6364C33.3052 18.8785 33.5029 17.6624 34.0227 15.9882C34.5451 14.3297 34.7804 13.3426 34.7286 13.0268C34.6975 12.8374 34.6109 12.7543 34.4688 12.7776C34.1215 12.8346 33.6089 13.2187 32.9311 13.9298C32.1979 14.6986 31.4802 15.5622 30.7781 16.5205C30.076 17.4788 29.4328 18.5491 28.8485 19.7313L27.5676 22.3006C27.4961 22.4582 27.3815 22.55 27.2236 22.5759ZM37.6604 21.9337C37.3604 21.9829 37.1715 21.7707 37.0938 21.297C36.9798 20.6023 37.1672 19.3231 37.6559 17.4594C38.1604 15.5931 38.9558 13.1278 40.042 10.0635C39.442 10.1619 38.8866 10.3341 38.3757 10.5801C37.8779 10.8077 37.6314 11.0346 37.6361 11.2608C37.6307 11.3266 37.6016 11.3962 37.5488 11.4697C37.5092 11.5249 37.4341 11.5615 37.3236 11.5796C37.071 11.6211 36.9239 11.5155 36.8825 11.2629C36.8152 10.8523 37.0831 10.4598 37.6864 10.0852C38.2898 9.71055 39.1756 9.42739 40.344 9.2357L41.5352 6.26769C41.6172 6.07588 41.7045 5.86699 41.7972 5.64101C41.8872 5.39924 41.9905 5.13909 42.1069 4.86057C42.2285 4.61362 42.392 4.4733 42.5972 4.43963C42.7235 4.41891 42.8247 4.44284 42.9008 4.51142C42.9744 4.56421 43.0176 4.63008 43.0306 4.70903C43.0694 4.94586 42.8257 5.63441 42.2993 6.77466C41.6408 8.19604 41.289 8.96717 41.2439 9.08805C41.4808 9.04919 41.8399 9.01459 42.3214 8.98425C42.8002 8.93812 43.3698 8.90142 44.0301 8.87416C44.2695 8.85109 44.4073 8.95008 44.4436 9.17112C44.4851 9.42375 44.3637 9.57337 44.0795 9.62C43.969 9.63813 43.7453 9.65861 43.4086 9.68143C43.0692 9.68846 42.7075 9.70727 42.3234 9.73786C41.9393 9.76845 41.6143 9.81366 41.3485 9.87349L40.9971 9.95545C38.7167 16.1179 37.6971 19.8847 37.9383 21.2558L37.993 21.4413L38.0008 21.4887C38.0423 21.7413 37.9288 21.8897 37.6604 21.9337ZM51.7392 18.6997C51.0603 18.8111 50.4604 18.8608 49.9396 18.849C49.3373 18.8343 48.8077 18.6699 48.3508 18.3557C47.9071 18.0232 47.6374 17.5648 47.5415 16.9806C47.5104 16.7911 47.5228 16.5702 47.5787 16.3178C47.6346 16.0655 47.7285 15.8474 47.8605 15.6636C47.9899 15.464 48.1335 15.3513 48.2914 15.3254C48.4493 15.2994 48.5412 15.3654 48.5671 15.5233C48.5801 15.6023 48.5283 15.781 48.4119 16.0595C48.2954 16.3381 48.2592 16.6115 48.3033 16.8799C48.4768 17.9378 49.5425 18.3061 51.5003 17.9849C52.053 17.8943 52.5991 17.7641 53.1387 17.5945C53.6784 17.4249 54.2037 17.2171 54.7146 16.9712C56.0525 16.3301 57.179 15.5373 58.0941 14.5926C59.2256 13.3855 59.7548 12.1637 59.6816 10.9273L59.6544 10.7615C59.4809 9.70362 58.9339 9.1367 58.0134 9.06071C56.8353 9.98363 55.8594 10.5085 55.0858 10.6355C54.4226 10.7443 54.0703 10.6724 54.0289 10.4197C54.0211 10.3724 54.0238 10.3395 54.037 10.3211C54.0856 9.82673 54.4181 9.4317 55.0343 9.13603C56.072 8.64151 56.9657 8.35706 57.7155 8.28268C60.0937 6.07654 61.1533 4.18403 60.8943 2.60514C60.7078 1.46834 59.8409 1.02687 58.2936 1.28072C56.6041 1.5579 55.1919 2.48679 54.0568 4.06741C54.0172 4.12255 53.9683 4.21975 53.9101 4.35902C53.8677 4.49569 53.808 4.67572 53.7312 4.89911C53.6357 5.20662 53.3785 5.51636 52.9594 5.82831C52.9041 5.88604 52.8132 5.92527 52.6869 5.94599C52.3395 6.00298 52.1438 5.89727 52.0998 5.62885C52.0843 5.53412 52.095 5.45129 52.132 5.38036C53.5014 2.65875 55.5045 1.08164 58.1413 0.649044C60.3202 0.291569 61.5326 0.862806 61.7787 2.36275C62.0559 4.05217 61.0354 6.08419 58.7173 8.45882C59.7739 8.77189 60.3955 9.49682 60.582 10.6336L60.617 10.8468C60.7725 12.7831 59.7816 14.5509 57.6443 16.15C55.8391 17.5001 53.8707 18.35 51.7392 18.6997Z" fill="#F33E5C"/>
<path d="M0.336851 25.9899L0.0557171 25.8852L0.052811 25.893L0.050342 25.9009L0.336851 25.9899ZM0.464149 25.5799L0.177344 25.4908L0.173896 25.504L0.464149 25.5799ZM0.921717 24.0699L0.634 23.9849L0.921717 24.0699ZM1.38354 22.4376L1.09508 22.3551L1.0941 22.3586L1.38354 22.4376ZM1.961 20.3242L1.67225 20.2427L1.6709 20.2478L1.961 20.3242ZM2.75347 17.4459L2.46459 17.3649L2.46386 17.3676L2.75347 17.4459ZM3.73651 14.0986L3.45 14.0096L3.73651 14.0986ZM4.63499 11.4218L4.91661 11.5252L5.17993 10.8079L4.49895 11.1544L4.63499 11.4218ZM3.67489 11.9441L3.81859 12.2076L3.82567 12.2035L3.67489 11.9441ZM2.98733 12.3488L2.8205 12.0992L2.8115 12.1057L2.98733 12.3488ZM2.63948 12.6004L2.77918 12.8659L2.79805 12.856L2.81532 12.8435L2.63948 12.6004ZM2.28608 11.9288L2.09111 11.7008L2.08153 11.709L2.07268 11.7179L2.28608 11.9288ZM5.04797 10.3812L5.17323 10.6538L5.28118 10.6042L5.3259 10.4942L5.04797 10.3812ZM5.42098 9.54176L5.16246 9.38955L5.15679 9.39918L5.15185 9.40921L5.42098 9.54176ZM5.6741 9.30567L5.55511 9.03009L5.54607 9.03436L5.6741 9.30567ZM6.13426 9.88683L5.85058 9.78924L5.63243 10.4234L6.25058 10.1634L6.13426 9.88683ZM13.638 14.8576L13.4434 14.6292L13.4415 14.6309L13.638 14.8576ZM11.1083 16.6346L11.2541 16.8968L11.2578 16.8947L11.1083 16.6346ZM10.7825 15.9827L10.9296 16.2442L10.9314 16.2431L10.7825 15.9827ZM13.0672 14.3432L13.2696 14.5646L13.2729 14.5615L13.0672 14.3432ZM14.5319 12.4491L14.7997 12.5843L14.8013 12.5809L14.5319 12.4491ZM8.62027 9.77082L8.71443 10.0557L8.71927 10.054L8.62027 9.77082ZM5.72128 10.9274L5.59686 10.6544L5.48425 10.7058L5.44058 10.8216L5.72128 10.9274ZM4.67219 13.8721L4.38803 13.7759L4.38746 13.7776L4.67219 13.8721ZM3.65344 17.2983L3.9429 17.3771L3.9432 17.3759L3.65344 17.2983ZM1.89311 23.7646L2.18167 23.8467L2.18257 23.8434L1.89311 23.7646ZM1.58652 24.8607L1.87446 24.945L1.87567 24.9406L1.58652 24.8607ZM1.15689 26.2445L0.871598 26.1516L0.870379 26.1555L1.15689 26.2445ZM0.832353 26.6382L0.783783 26.3422C0.732572 26.3506 0.698748 26.3494 0.67841 26.3462C0.659584 26.3432 0.65295 26.3385 0.651398 26.3374C0.649846 26.3363 0.643335 26.3315 0.634457 26.3146C0.624865 26.2964 0.612987 26.2647 0.604585 26.2135L0.308543 26.262L0.0125004 26.3106C0.044596 26.5062 0.126696 26.6993 0.301419 26.8248C0.476142 26.9502 0.685295 26.9663 0.880923 26.9342L0.832353 26.6382ZM0.308543 26.262L0.604585 26.2135C0.601297 26.1934 0.600845 26.1513 0.623361 26.0788L0.336851 25.9899L0.050342 25.9009C0.00920897 26.0334 -0.0101151 26.1728 0.0125004 26.3106L0.308543 26.262ZM0.336851 25.9899L0.617985 26.0946C0.6672 25.9624 0.712543 25.8159 0.754402 25.6557L0.464149 25.5799L0.173896 25.504C0.136071 25.6488 0.096548 25.7755 0.0557171 25.8852L0.336851 25.9899ZM0.464149 25.5799L0.750658 25.6688C0.910175 25.155 1.0631 24.6503 1.20943 24.1548L0.921717 24.0699L0.634 23.9849C0.488486 24.4776 0.336367 24.9797 0.177639 25.4909L0.464149 25.5799ZM0.921717 24.0699L1.20943 24.1548C1.35605 23.6583 1.51057 23.1122 1.67298 22.5165L1.38354 22.4376L1.0941 22.3586C0.932595 22.9511 0.779228 23.4931 0.634 23.9849L0.921717 24.0699ZM1.38354 22.4376L1.67198 22.52C1.84785 21.9051 2.0409 21.1986 2.25111 20.4006L1.961 20.3242L1.6709 20.2478C1.46147 21.0428 1.26955 21.7451 1.0951 22.3551L1.38354 22.4376ZM1.961 20.3242L2.24972 20.4057C2.47572 19.6052 2.74019 18.6447 3.04307 17.5242L2.75347 17.4459L2.46386 17.3676C2.16135 18.4867 1.8975 19.445 1.67229 20.2427L1.961 20.3242ZM2.75347 17.4459L3.04234 17.5269C3.38948 16.2883 3.71637 15.1752 4.02302 14.1875L3.73651 14.0986L3.45 14.0096C3.14137 15.0037 2.8129 16.1222 2.4646 17.3649L2.75347 17.4459ZM3.73651 14.0986L4.02302 14.1875C4.32947 13.2005 4.62735 12.3131 4.91661 11.5252L4.63499 11.4218L4.35337 11.3184C4.05993 12.1178 3.75882 13.015 3.45 14.0096L3.73651 14.0986ZM4.63499 11.4218L4.49895 11.1544C4.16487 11.3244 3.83992 11.5012 3.52411 11.6848L3.67489 11.9441L3.82567 12.2035C4.13155 12.0257 4.44666 11.8542 4.77104 11.6892L4.63499 11.4218ZM3.67489 11.9441L3.53125 11.6808C3.23063 11.8447 2.99236 11.9846 2.82061 12.0994L2.98733 12.3488L3.15405 12.5982C3.30376 12.4981 3.52386 12.3682 3.81853 12.2075L3.67489 11.9441ZM2.98733 12.3488L2.8115 12.1057C2.63757 12.2315 2.52162 12.3154 2.46365 12.3574L2.63948 12.6004L2.81532 12.8435C2.8733 12.8016 2.98924 12.7177 3.16317 12.5919L2.98733 12.3488ZM2.63948 12.6004L2.49979 12.3349C2.48996 12.3401 2.46839 12.3488 2.42902 12.3553L2.47759 12.6513L2.52616 12.9474C2.6131 12.9331 2.69946 12.9079 2.77918 12.8659L2.63948 12.6004ZM2.47759 12.6513L2.42902 12.3553C2.39938 12.3601 2.38536 12.3583 2.38271 12.3578C2.38179 12.3576 2.38895 12.3591 2.39762 12.3658C2.40581 12.3721 2.40611 12.376 2.40221 12.3682C2.39774 12.3593 2.38987 12.339 2.38378 12.3019L2.08774 12.3505L1.79169 12.399C1.81781 12.5582 1.88317 12.7267 2.03106 12.8408C2.18317 12.9582 2.36457 12.9739 2.52616 12.9474L2.47759 12.6513ZM2.08774 12.3505L2.38378 12.3019C2.38517 12.3104 2.38042 12.3053 2.39325 12.278C2.40728 12.2482 2.43809 12.2018 2.49949 12.1396L2.28608 11.9288L2.07268 11.7179C1.8989 11.8938 1.74715 12.1275 1.79169 12.399L2.08774 12.3505ZM2.28608 11.9288L2.48106 12.1568C2.91507 11.7856 3.80049 11.2846 5.17323 10.6538L5.04797 10.3812L4.92271 10.1086C3.55138 10.7388 2.59555 11.2694 2.09111 11.7008L2.28608 11.9288ZM5.04797 10.3812L5.3259 10.4942C5.45083 10.1867 5.57227 9.91358 5.69011 9.67431L5.42098 9.54176L5.15185 9.40921C5.02645 9.66383 4.89921 9.95038 4.77004 10.2683L5.04797 10.3812ZM5.42098 9.54176L5.6795 9.69397C5.71469 9.63421 5.75528 9.59908 5.80213 9.57697L5.6741 9.30567L5.54607 9.03436C5.38224 9.11167 5.25408 9.23394 5.16246 9.38955L5.42098 9.54176ZM5.6741 9.30567L5.79302 9.58109C5.90415 9.5331 5.97856 9.51108 6.02278 9.50383L5.97421 9.20779L5.92564 8.91174C5.81197 8.93039 5.6863 8.97363 5.55518 9.03024L5.6741 9.30567ZM5.97421 9.20779L6.02278 9.50383C6.05622 9.49834 6.02735 9.51149 5.98147 9.48246C5.95795 9.46758 5.94131 9.44827 5.93138 9.431C5.9224 9.41536 5.92166 9.40629 5.9224 9.41085L6.21845 9.36228L6.51449 9.31371C6.49506 9.1953 6.43714 9.06074 6.30222 8.97539C6.17492 8.89486 6.0343 8.89392 5.92564 8.91174L5.97421 9.20779ZM6.21845 9.36228L5.9224 9.41085C5.93084 9.46227 5.92279 9.57933 5.85058 9.78924L6.13426 9.88683L6.41794 9.98442C6.49943 9.74755 6.5475 9.51492 6.51449 9.31371L6.21845 9.36228ZM6.13426 9.88683L6.25058 10.1634C8.13648 9.37011 9.6835 8.87892 10.8977 8.67971L10.8491 8.38367L10.8005 8.08763C9.52005 8.29771 7.92385 8.80863 6.01794 9.6103L6.13426 9.88683ZM10.8491 8.38367L10.8977 8.67971C12.3465 8.44201 13.4198 8.48767 14.1509 8.77246C14.8553 9.04686 15.2599 9.54863 15.3856 10.3147L15.6816 10.2661L15.9777 10.2176C15.8184 9.24684 15.2751 8.56647 14.3687 8.21338C13.4889 7.87069 12.2884 7.84352 10.8005 8.08763L10.8491 8.38367ZM15.6816 10.2661L15.3856 10.3147C15.5238 11.1575 15.4153 11.9227 15.0675 12.6212L15.336 12.7549L15.6045 12.8886C16.0128 12.0687 16.1347 11.1747 15.9777 10.2176L15.6816 10.2661ZM15.336 12.7549L15.0675 12.6212C14.7102 13.3387 14.1717 14.0086 13.4434 14.6292L13.638 14.8576L13.8326 15.0859C14.6122 14.4215 15.2057 13.6896 15.6045 12.8886L15.336 12.7549ZM13.638 14.8576L13.4415 14.6309C12.7196 15.2568 11.8924 15.8382 10.9589 16.3744L11.1083 16.6346L11.2578 16.8947C12.2209 16.3415 13.0802 15.7382 13.8345 15.0842L13.638 14.8576ZM11.1083 16.6346L10.9626 16.3723C8.66262 17.6506 6.62933 18.4274 4.85916 18.7178L4.90773 19.0138L4.9563 19.3099C6.81758 19.0045 8.91803 18.1951 11.2541 16.8968L11.1083 16.6346ZM4.90773 19.0138L4.85916 18.7178C4.83073 18.7224 4.81881 18.7197 4.8181 18.7196C4.81783 18.7195 4.81918 18.7198 4.82133 18.721C4.82349 18.7221 4.82482 18.7232 4.8251 18.7235C4.82567 18.724 4.81788 18.7172 4.80709 18.693C4.79609 18.6684 4.78397 18.63 4.7747 18.5735L4.47866 18.6221L4.18261 18.6707C4.2123 18.8516 4.2779 19.0363 4.42058 19.1666C4.57597 19.3085 4.77118 19.3402 4.9563 19.3099L4.90773 19.0138ZM4.47866 18.6221L4.7747 18.5735C4.77227 18.5588 4.7749 18.5594 4.77219 18.5697C4.76901 18.5819 4.76207 18.5936 4.7549 18.6011C4.74919 18.6071 4.74986 18.6035 4.76701 18.5961C4.78446 18.5886 4.81392 18.5793 4.85953 18.5718L4.81096 18.2757L4.76239 17.9797C4.60762 18.0051 4.44207 18.0605 4.32194 18.1857C4.18776 18.3256 4.15522 18.5037 4.18261 18.6707L4.47866 18.6221ZM4.81096 18.2757L4.85953 18.5718C6.68899 18.2716 8.7133 17.4911 10.9296 16.2442L10.7825 15.9827L10.6354 15.7212C8.45795 16.9463 6.50123 17.6944 4.76239 17.9797L4.81096 18.2757ZM10.7825 15.9827L10.9314 16.2431C11.8225 15.7335 12.6025 15.1744 13.2696 14.5646L13.0672 14.3432L12.8648 14.1217C12.2347 14.6977 11.4917 15.2315 10.6336 15.7223L10.7825 15.9827ZM13.0672 14.3432L13.2729 14.5615C13.9391 13.9339 14.4506 13.2753 14.7996 12.5843L14.5319 12.4491L14.2641 12.3138C13.9523 12.9311 13.4873 13.5352 12.8615 14.1248L13.0672 14.3432ZM14.5319 12.4491L14.8013 12.5809C15.1519 11.8646 15.2796 11.151 15.1643 10.4483L14.8682 10.4969L14.5722 10.5454C14.6641 11.1058 14.5676 11.6937 14.2624 12.3172L14.5319 12.4491ZM14.8682 10.4969L15.1643 10.4483C15.1035 10.0779 14.9628 9.75384 14.7343 9.48805C14.5063 9.22283 14.2035 9.0304 13.8405 8.90297C13.1244 8.65154 12.15 8.6445 10.9486 8.84161L10.9971 9.13765L11.0457 9.4337C12.2126 9.24225 13.0675 9.26747 13.6418 9.46909C13.924 9.5682 14.1317 9.7075 14.2793 9.87923C14.4265 10.0504 14.5268 10.2684 14.5722 10.5454L14.8682 10.4969ZM10.9971 9.13765L10.9486 8.84161C10.2169 8.96166 9.40736 9.17788 8.52128 9.48762L8.62027 9.77082L8.71927 10.054C9.58132 9.75267 10.3564 9.54679 11.0457 9.4337L10.9971 9.13765ZM8.62027 9.77082L8.52613 9.48597C7.63696 9.77986 6.66036 10.1697 5.59686 10.6544L5.72128 10.9274L5.8457 11.2004C6.89422 10.7225 7.85028 10.3413 8.71442 10.0557L8.62027 9.77082ZM5.72128 10.9274L5.44058 10.8216C5.10023 11.724 4.74938 12.7088 4.38804 13.7759L4.67219 13.8721L4.95634 13.9683C5.31585 12.9067 5.6644 11.9283 6.00198 11.0333L5.72128 10.9274ZM4.67219 13.8721L4.38746 13.7776C4.03812 14.83 3.69688 15.9777 3.36367 17.2206L3.65344 17.2983L3.9432 17.3759C4.27386 16.1426 4.61179 15.0063 4.95691 13.9666L4.67219 13.8721ZM3.65344 17.2983L3.36397 17.2195L1.60364 23.6858L1.89311 23.7646L2.18257 23.8434L3.9429 17.3771L3.65344 17.2983ZM1.89311 23.7646L1.60456 23.6825C1.52201 23.9726 1.41959 24.3387 1.29737 24.7807L1.58652 24.8607L1.87567 24.9406C1.99768 24.4994 2.09965 24.1348 2.18165 23.8467L1.89311 23.7646ZM1.58652 24.8607L1.29861 24.7763C1.17487 25.1988 1.03257 25.6572 0.871625 26.1516L1.15689 26.2445L1.44215 26.3373C1.60463 25.8382 1.74875 25.3741 1.87442 24.945L1.58652 24.8607ZM1.15689 26.2445L0.870379 26.1555C0.839829 26.2539 0.809071 26.3066 0.788564 26.3315C0.771866 26.3517 0.77052 26.3443 0.783783 26.3422L0.832353 26.6382L0.880923 26.9342C1.20126 26.8817 1.36146 26.5973 1.4434 26.3334L1.15689 26.2445ZM14.0453 19.6549L14.3361 19.7284L14.0453 19.6549ZM14.9702 17.4359L15.2276 17.59L15.2295 17.5868L14.9702 17.4359ZM16.4465 15.6128L16.2509 15.3853L16.2484 15.3875L16.4465 15.6128ZM19.7028 15.1515L19.9307 14.9564L19.7028 15.1515ZM20.2775 18.8027L20.5709 18.8653L20.5713 18.8632L20.2775 18.8027ZM18.0343 22.7702L17.8377 22.5435L18.0343 22.7702ZM16.1993 22.8524L16.1135 22.5649L16.0154 22.5942L15.9557 22.6774L16.1993 22.8524ZM17.7958 21.9095L18.0049 22.1246L17.7958 21.9095ZM18.9242 20.338L18.6551 20.2055L18.6544 20.207L18.9242 20.338ZM19.5328 18.4141L19.2362 18.3688L19.5328 18.4141ZM16.8788 16.3202L16.6653 16.1093L16.6623 16.1125L16.8788 16.3202ZM15.6711 18.0019L15.4081 17.8575L15.4057 17.862L15.6711 18.0019ZM14.8847 20.0279L15.1746 20.1051L15.1753 20.1025L14.8847 20.0279ZM16.1855 23.6572L16.1369 23.3612C15.5526 23.457 15.1392 23.358 14.8471 23.1214C14.5482 22.8792 14.3212 22.4489 14.2096 21.7682L13.9135 21.8168L13.6175 21.8653C13.7415 22.6214 14.0111 23.2163 14.4695 23.5876C14.9347 23.9645 15.5395 24.0672 16.234 23.9533L16.1855 23.6572ZM13.9135 21.8168L14.2096 21.7682C14.1086 21.1528 14.1477 20.4742 14.3361 19.7284L14.0453 19.6549L13.7544 19.5814C13.5496 20.3918 13.5009 21.1545 13.6175 21.8653L13.9135 21.8168ZM14.0453 19.6549L14.3361 19.7284C14.5254 18.9792 14.8223 18.2667 15.2276 17.59L14.9702 17.4359L14.7128 17.2817C14.2781 18.0076 13.9583 18.7744 13.7544 19.5814L14.0453 19.6549ZM14.9702 17.4359L15.2295 17.5868C15.6322 16.8949 16.1044 16.3131 16.6446 15.8381L16.4465 15.6128L16.2484 15.3875C15.6551 15.9092 15.143 16.5428 14.7109 17.285L14.9702 17.4359ZM16.4465 15.6128L16.6421 15.8403C17.189 15.37 17.7624 15.0929 18.3637 14.9943L18.3151 14.6982L18.2665 14.4022C17.5416 14.5211 16.8692 14.8538 16.2509 15.3853L16.4465 15.6128ZM18.3151 14.6982L18.3637 14.9943C18.8604 14.9128 19.2121 15.0398 19.475 15.3467L19.7028 15.1515L19.9307 14.9564C19.5116 14.4672 18.9382 14.292 18.2665 14.4022L18.3151 14.6982ZM19.7028 15.1515L19.475 15.3467C19.7788 15.7014 19.9708 16.1176 20.0503 16.6024L20.3463 16.5539L20.6424 16.5053C20.5458 15.9164 20.3087 15.3978 19.9307 14.9564L19.7028 15.1515ZM20.3463 16.5539L20.0503 16.6024C20.1603 17.2727 20.1396 17.9851 19.9837 18.7421L20.2775 18.8027L20.5713 18.8632C20.7403 18.0428 20.7655 17.256 20.6424 16.5053L20.3463 16.5539ZM20.2775 18.8027L19.9841 18.74C19.8254 19.4834 19.5593 20.1898 19.1853 20.86L19.4473 21.0062L19.7093 21.1523C20.1121 20.4304 20.3995 19.6677 20.5709 18.8653L20.2775 18.8027ZM19.4473 21.0062L19.1853 20.86C18.8124 21.5283 18.3628 22.0883 17.8377 22.5435L18.0343 22.7702L18.2308 22.9969C18.8129 22.4922 19.3054 21.8762 19.7093 21.1523L19.4473 21.0062ZM18.0343 22.7702L17.8377 22.5435C17.3232 22.9896 16.7574 23.2594 16.1369 23.3612L16.1855 23.6572L16.234 23.9533C16.9713 23.8323 17.6381 23.5107 18.2308 22.9969L18.0343 22.7702ZM16.0374 22.9032L16.086 23.1993C16.1392 23.1906 16.1923 23.1797 16.2389 23.1651C16.2621 23.1578 16.2915 23.1472 16.3215 23.1314C16.3467 23.1181 16.4001 23.0871 16.443 23.0273L16.1993 22.8524L15.9557 22.6774C15.9753 22.65 15.9958 22.632 16.0094 22.6215C16.0233 22.6108 16.0351 22.6041 16.0421 22.6004C16.0553 22.5934 16.0628 22.5915 16.059 22.5927C16.0517 22.595 16.0304 22.6004 15.9889 22.6072L16.0374 22.9032ZM16.1993 22.8524L16.2852 23.1398C16.9354 22.9457 17.5096 22.6061 18.0049 22.1246L17.7958 21.9095L17.5866 21.6944C17.159 22.1101 16.6689 22.3991 16.1135 22.5649L16.1993 22.8524ZM17.7958 21.9095L18.0049 22.1246C18.4922 21.6508 18.8886 21.0983 19.1941 20.4691L18.9242 20.338L18.6544 20.207C18.3782 20.7757 18.0222 21.2708 17.5866 21.6944L17.7958 21.9095ZM18.9242 20.338L19.1934 20.4706C19.5107 19.8263 19.723 19.1557 19.8293 18.4594L19.5328 18.4141L19.2362 18.3688C19.1393 19.003 18.9459 19.615 18.6551 20.2055L18.9242 20.338ZM19.5328 18.4141L19.8293 18.4594C19.9354 17.7655 19.9362 17.0932 19.8297 16.444L19.5337 16.4926L19.2377 16.5412C19.3332 17.1235 19.3335 17.7323 19.2362 18.3688L19.5328 18.4141ZM19.5337 16.4926L19.8297 16.444C19.7607 16.0232 19.5798 15.6758 19.2609 15.4469L19.0859 15.6905L18.9109 15.9342C19.0699 16.0484 19.1875 16.2357 19.2377 16.5412L19.5337 16.4926ZM19.0859 15.6905L19.2609 15.4469C18.9514 15.2246 18.592 15.1514 18.2053 15.2148L18.2539 15.5109L18.3024 15.8069C18.5473 15.7667 18.7426 15.8133 18.9109 15.9342L19.0859 15.6905ZM18.2539 15.5109L18.2053 15.2148C17.664 15.3036 17.1512 15.6176 16.6653 16.1093L16.8788 16.3202L17.0922 16.531C17.5241 16.0939 17.928 15.8683 18.3024 15.8069L18.2539 15.5109ZM16.8788 16.3202L16.6623 16.1125C16.1981 16.5963 15.7807 17.179 15.4081 17.8575L15.6711 18.0019L15.9341 18.1463C16.2856 17.5061 16.6732 16.9678 17.0952 16.5279L16.8788 16.3202ZM15.6711 18.0019L15.4057 17.862C15.0489 18.5387 14.7782 19.2359 14.5941 19.9534L14.8847 20.0279L15.1753 20.1025C15.3473 19.432 15.6008 18.7785 15.9365 18.1418L15.6711 18.0019ZM14.8847 20.0279L14.5948 19.9507C14.4071 20.6556 14.3503 21.292 14.4421 21.8516L14.7382 21.8031L15.0342 21.7545C14.9603 21.3036 15.0012 20.7566 15.1746 20.1051L14.8847 20.0279ZM14.7382 21.8031L14.4421 21.8516C14.5178 22.313 14.6809 22.6983 14.9741 22.9465C15.2764 23.2025 15.6637 23.2686 16.086 23.1993L16.0374 22.9032L15.9889 22.6072C15.6849 22.6571 15.4925 22.5993 15.3618 22.4886C15.2218 22.3701 15.0984 22.1457 15.0342 21.7545L14.7382 21.8031ZM25.3615 11.8397L25.6453 11.9374L25.648 11.9287L25.3615 11.8397ZM25.8893 10.61L26.133 10.785L26.1379 10.7783L26.1424 10.7712L25.8893 10.61ZM26.4119 9.94061L26.2359 9.69731L26.2256 9.70541L26.4119 9.94061ZM27.2428 10.5582L26.9903 10.3963L26.9893 10.3978L27.2428 10.5582ZM26.8589 11.0347L27.057 11.26L27.0649 11.253L27.0723 11.2455L26.8589 11.0347ZM26.4474 11.4913L26.717 11.6231L26.7206 11.6151L26.4474 11.4913ZM26.0468 12.311L25.7773 12.1793L25.7525 12.23L25.7478 12.2863L26.0468 12.311ZM25.9595 12.5199L26.2031 12.6949L26.2032 12.6949L25.9595 12.5199ZM22.268 22.7809L22.1037 23.0321L22.1139 23.0383L22.268 22.7809ZM21.942 20.6455L22.237 20.7004L22.2374 20.6978L21.942 20.6455ZM22.4166 18.6463L22.13 18.5573L22.1284 18.5629L22.4166 18.6463ZM23.1478 16.5807L22.8694 16.4689L23.1478 16.5807ZM23.949 14.9413L23.6946 14.7822L23.6942 14.7829L23.949 14.9413ZM24.9143 15.4883L25.1925 15.6004L24.9143 15.4883ZM24.2633 17.0057L24.5316 17.1406L24.5366 17.1295L24.2633 17.0057ZM23.8589 17.8016L24.126 17.9382L23.8589 17.8016ZM23.3593 18.7592L23.6198 18.9082L23.624 18.9004L23.3593 18.7592ZM23.0422 19.3462L22.7689 19.2224L23.0422 19.3462ZM22.7352 20.5883L23.0306 20.6411L23.0318 20.6332L22.7352 20.5883ZM22.7707 22.139L22.563 22.3555L22.5784 22.3703L22.5958 22.3827L22.7707 22.139ZM24.453 21.5712L24.2741 21.3304L24.453 21.5712ZM25.7896 20.3791L26.0062 20.5868L26.0102 20.5824L25.7896 20.3791ZM27.0125 18.9381L26.7786 18.75L26.7754 18.7542L27.0125 18.9381ZM27.9981 17.6819L28.2373 17.8632L28.2418 17.8569L27.9981 17.6819ZM28.4342 18.413L28.1905 18.238L28.4342 18.413ZM27.4365 19.744L27.672 19.9299L27.4365 19.744ZM26.5382 20.7913L26.7517 21.0022L26.7563 20.9973L26.5382 20.7913ZM24.9803 22.117L24.8045 21.8739L24.9803 22.117ZM25.7343 12.6298L25.6857 12.3337C25.5972 12.3483 25.5815 12.3283 25.5908 12.335C25.6001 12.3417 25.5762 12.3332 25.5617 12.2446L25.2656 12.2932L24.9696 12.3418C24.9991 12.5216 25.0753 12.7035 25.2408 12.8223C25.4064 12.9412 25.603 12.9553 25.7829 12.9258L25.7343 12.6298ZM25.2656 12.2932L25.5617 12.2446C25.5645 12.262 25.5593 12.2493 25.5734 12.1827C25.5859 12.1237 25.6089 12.0428 25.6451 11.9373L25.3615 11.8397L25.0778 11.7421C25.0372 11.8601 25.0058 11.9665 24.9864 12.0586C24.9685 12.1431 24.9538 12.2455 24.9696 12.3418L25.2656 12.2932ZM25.3615 11.8397L25.648 11.9287C25.7188 11.7004 25.8051 11.4687 25.9069 11.2336L25.6316 11.1144L25.3563 10.9952C25.2465 11.2488 25.1526 11.5007 25.075 11.7508L25.3615 11.8397ZM25.6316 11.1144L25.9069 11.2336C26.0125 10.9897 26.0876 10.8482 26.133 10.785L25.8893 10.61L25.6457 10.435C25.5591 10.5556 25.4623 10.7504 25.3563 10.9952L25.6316 11.1144ZM25.8893 10.61L26.1424 10.7712C26.3624 10.4258 26.513 10.2431 26.5981 10.1758L26.4119 9.94061L26.2256 9.70541C26.0524 9.84259 25.8547 10.1062 25.6363 10.4488L25.8893 10.61ZM26.4119 9.94061L26.5877 10.1837C26.709 10.0959 26.8015 10.0591 26.8673 10.0483L26.8187 9.75225L26.7702 9.45621C26.5833 9.48686 26.4046 9.5756 26.236 9.69754L26.4119 9.94061ZM26.8187 9.75225L26.8673 10.0483C26.9944 10.0274 27.0392 10.0503 27.0476 10.0557C27.0495 10.0569 27.0781 10.0729 27.0939 10.1692L27.3899 10.1206L27.6859 10.0721C27.6525 9.86837 27.5613 9.673 27.3728 9.55144C27.1908 9.43404 26.9747 9.42266 26.7702 9.45621L26.8187 9.75225ZM27.3899 10.1206L27.0939 10.1692C27.0926 10.1615 27.0968 10.1743 27.0824 10.2173C27.0681 10.2597 27.0399 10.3189 26.9903 10.3963L27.2428 10.5582L27.4953 10.7202C27.6194 10.5267 27.7231 10.2986 27.6859 10.0721L27.3899 10.1206ZM27.2428 10.5582L26.9893 10.3978C26.8992 10.5403 26.7852 10.6824 26.6455 10.8238L26.8589 11.0347L27.0723 11.2455C27.2385 11.0773 27.3805 10.9018 27.4963 10.7186L27.2428 10.5582ZM26.8589 11.0347L26.6608 10.8094C26.5424 10.9135 26.4422 11.0098 26.3631 11.0975C26.2873 11.1817 26.2169 11.2731 26.1741 11.3675L26.4474 11.4913L26.7206 11.6151C26.7255 11.6044 26.7475 11.5672 26.8088 11.4992C26.8669 11.4347 26.9487 11.3552 27.057 11.26L26.8589 11.0347ZM26.4474 11.4913L26.1778 11.3596L25.7773 12.1793L26.0468 12.311L26.3163 12.4427L26.7169 11.623L26.4474 11.4913ZM26.0468 12.311L25.7478 12.2863C25.7482 12.2813 25.7482 12.2998 25.7158 12.3449L25.9595 12.5199L26.2032 12.6949C26.2763 12.593 26.3345 12.4721 26.3458 12.3357L26.0468 12.311ZM25.9595 12.5199L25.7158 12.3449C25.7309 12.3239 25.745 12.3176 25.7419 12.3191C25.7403 12.3199 25.7352 12.3221 25.7256 12.325C25.716 12.3278 25.7029 12.3309 25.6857 12.3337L25.7343 12.6298L25.7829 12.9258C25.9234 12.9028 26.0947 12.8458 26.2031 12.6949L25.9595 12.5199ZM23.2818 22.8821L23.2332 22.5861C22.8192 22.654 22.5665 22.61 22.4222 22.5235L22.268 22.7809L22.1139 23.0383C22.437 23.2318 22.8602 23.2553 23.3304 23.1781L23.2818 22.8821ZM22.268 22.7809L22.4323 22.5298C22.3069 22.4478 22.2 22.2922 22.1516 21.9974L21.8556 22.046L21.5596 22.0945C21.6252 22.4945 21.7933 22.8288 22.1038 23.0319L22.268 22.7809ZM21.8556 22.046L22.1516 21.9974C22.1057 21.7176 22.127 21.2916 22.2369 20.7004L21.942 20.6455L21.6471 20.5906C21.533 21.2036 21.4967 21.7112 21.5596 22.0945L21.8556 22.046ZM21.942 20.6455L22.2374 20.6978C22.3447 20.0922 22.5002 19.4362 22.7048 18.7297L22.4166 18.6463L22.1284 18.5629C21.919 19.2862 21.7582 19.9631 21.6466 20.5932L21.942 20.6455ZM22.4166 18.6463L22.7031 18.7352C22.9236 18.025 23.1647 17.3441 23.4262 16.6924L23.1478 16.5807L22.8694 16.4689C22.6015 17.1364 22.3551 17.8325 22.1301 18.5573L22.4166 18.6463ZM23.1478 16.5807L23.4262 16.6924C23.6868 16.0433 23.9464 15.5137 24.2038 15.0997L23.949 14.9413L23.6942 14.7829C23.4128 15.2356 23.1383 15.7989 22.8694 16.4689L23.1478 16.5807ZM23.949 14.9413L24.2033 15.1004C24.3383 14.8847 24.456 14.7321 24.5555 14.6332C24.6594 14.5297 24.717 14.5113 24.7293 14.5093L24.6808 14.2132L24.6322 13.9172C24.4392 13.9489 24.2722 14.0686 24.1323 14.2078C23.9878 14.3516 23.8423 14.5463 23.6946 14.7822L23.949 14.9413ZM24.6808 14.2132L24.7293 14.5093C24.8338 14.4921 24.8608 14.5123 24.8556 14.509C24.8525 14.5071 24.8524 14.5053 24.8552 14.5102C24.859 14.5168 24.8673 14.5347 24.8732 14.5708L25.1692 14.5222L25.4653 14.4737C25.4355 14.2921 25.352 14.1131 25.1764 14.002C25.0084 13.8957 24.8119 13.8877 24.6322 13.9172L24.6808 14.2132ZM25.1692 14.5222L24.8732 14.5708C24.8731 14.5701 24.8739 14.5748 24.8738 14.5864C24.8737 14.5978 24.8727 14.6137 24.8701 14.6348C24.8649 14.6773 24.8538 14.7337 24.8348 14.8056C24.7968 14.9497 24.7316 15.1389 24.636 15.3761L24.9143 15.4883L25.1925 15.6004C25.2928 15.3515 25.368 15.1366 25.415 14.9587C25.4591 14.7916 25.4891 14.6191 25.4653 14.4737L25.1692 14.5222ZM24.9143 15.4883L24.636 15.3761C24.4419 15.858 24.2266 16.3599 23.9901 16.8819L24.2633 17.0057L24.5366 17.1295C24.7762 16.6005 24.9949 16.0908 25.1925 15.6004L24.9143 15.4883ZM24.2633 17.0057L23.9954 16.8708C23.8979 17.0644 23.7634 17.3291 23.5917 17.6651L23.8589 17.8016L24.126 17.9382C24.298 17.6017 24.4331 17.3357 24.5313 17.1405L24.2633 17.0057ZM23.8589 17.8016L23.5917 17.6651C23.4206 18 23.2549 18.3175 23.0946 18.6179L23.3593 18.7592L23.624 18.9004C23.7861 18.5966 23.9535 18.2758 24.126 17.9382L23.8589 17.8016ZM23.3593 18.7592L23.0989 18.6102C22.936 18.8949 22.8233 19.1025 22.7689 19.2224L23.0422 19.3462L23.3154 19.47C23.3563 19.3798 23.455 19.1961 23.6197 18.9081L23.3593 18.7592ZM23.0422 19.3462L22.7689 19.2224C22.6322 19.5243 22.5251 19.972 22.4386 20.5434L22.7352 20.5883L23.0318 20.6332C23.1165 20.074 23.2141 19.6937 23.3154 19.47L23.0422 19.3462ZM22.7352 20.5883L22.4399 20.5356C22.3373 21.1104 22.3018 21.5782 22.357 21.9151L22.6531 21.8665L22.9491 21.8179C22.9111 21.5863 22.9304 21.2021 23.0305 20.6411L22.7352 20.5883ZM22.6531 21.8665L22.357 21.9151C22.3824 22.0698 22.4378 22.2354 22.563 22.3555L22.7707 22.139L22.9784 21.9226C22.9844 21.9283 22.9809 21.9276 22.9734 21.9104C22.9659 21.893 22.9566 21.8635 22.9491 21.8179L22.6531 21.8665ZM22.7707 22.139L22.5958 22.3827C22.6961 22.4548 22.8124 22.4784 22.9099 22.4851C23.0109 22.492 23.122 22.4827 23.2375 22.4638L23.1889 22.1677L23.1403 21.8717C23.0506 21.8864 22.9893 21.8891 22.9509 21.8865C22.909 21.8836 22.9189 21.8761 22.9457 21.8954L22.7707 22.139ZM23.1889 22.1677L23.2375 22.4638C23.6944 22.3888 24.1598 22.1628 24.6319 21.812L24.453 21.5712L24.2741 21.3304C23.8502 21.6454 23.4729 21.8171 23.1403 21.8717L23.1889 22.1677ZM24.453 21.5712L24.6319 21.812C25.0951 21.4678 25.5531 21.0589 26.0061 20.5868L25.7896 20.3791L25.5731 20.1714C25.14 20.6228 24.7069 21.0088 24.2741 21.3304L24.453 21.5712ZM25.7896 20.3791L26.0102 20.5824C26.4561 20.099 26.8692 19.6121 27.2495 19.122L27.0125 18.9381L26.7754 18.7542C26.4062 19.2301 26.0042 19.7039 25.5691 20.1757L25.7896 20.3791ZM27.0125 18.9381L27.2463 19.1261C27.6379 18.639 27.9684 18.2179 28.2372 17.8631L27.9981 17.6819L27.759 17.5007C27.4947 17.8495 27.1681 18.2659 26.7787 18.7501L27.0125 18.9381ZM27.9981 17.6819L28.2418 17.8569C28.2379 17.8623 28.2361 17.8614 28.2446 17.8569C28.2544 17.8518 28.276 17.8431 28.3153 17.8366L28.2668 17.5406L28.2182 17.2445C28.0462 17.2727 27.87 17.346 27.7544 17.5069L27.9981 17.6819ZM28.2668 17.5406L28.3153 17.8366C28.3558 17.83 28.3816 17.83 28.3957 17.8314C28.4093 17.8327 28.4074 17.8348 28.3978 17.8294C28.3867 17.8232 28.377 17.8135 28.3714 17.8045C28.3669 17.7972 28.3698 17.798 28.3726 17.8151L28.6686 17.7665L28.9647 17.7179C28.9384 17.5578 28.8577 17.3996 28.6919 17.3064C28.5403 17.2212 28.3682 17.2199 28.2182 17.2445L28.2668 17.5406ZM28.6686 17.7665L28.3726 17.8151C28.3811 17.8672 28.3628 17.9981 28.1905 18.238L28.4342 18.413L28.6779 18.588C28.8752 18.3132 29.0131 18.0132 28.9647 17.7179L28.6686 17.7665ZM28.4342 18.413L28.1905 18.238C27.8363 18.7313 27.5065 19.1713 27.2011 19.5582L27.4365 19.744L27.672 19.9299C27.9841 19.5345 28.3194 19.0871 28.6779 18.588L28.4342 18.413ZM27.4365 19.744L27.2011 19.5582C26.8969 19.9435 26.6032 20.2857 26.3202 20.5852L26.5382 20.7913L26.7563 20.9973C27.0535 20.6828 27.3587 20.3268 27.672 19.9299L27.4365 19.744ZM26.5382 20.7913L26.3248 20.5804C25.8786 21.032 25.3721 21.4633 24.8045 21.8739L24.9803 22.117L25.1562 22.3601C25.748 21.9319 26.2801 21.4794 26.7517 21.0021L26.5382 20.7913ZM24.9803 22.117L24.8045 21.8739C24.2523 22.2734 23.7289 22.5047 23.2332 22.5861L23.2818 22.8821L23.3304 23.1781C23.9399 23.0781 24.5488 22.7994 25.1562 22.3601L24.9803 22.117ZM26.8422 22.0304L27.1234 22.1351L27.1263 22.1273L27.1288 22.1194L26.8422 22.0304ZM26.9575 21.6953L27.2364 21.806L27.2407 21.795L27.2442 21.7837L26.9575 21.6953ZM28.3857 17.0589L28.6724 17.1473L28.6728 17.1459L28.3857 17.0589ZM29.9586 14.4904L29.6652 14.4278L29.9586 14.4904ZM29.616 15.8113L29.3282 15.7263L29.3268 15.7314L29.616 15.8113ZM28.9795 17.8614L28.6983 17.7567L29.2359 18.0172L28.9795 17.8614ZM31.4305 14.4192L31.1992 14.2282L31.199 14.2284L31.4305 14.4192ZM34.8396 15.9271L34.5521 15.8415L34.5518 15.8425L34.8396 15.9271ZM34.6215 19.4894L34.7612 19.7549L34.7722 19.7491L34.7828 19.7424L34.6215 19.4894ZM33.7437 20.2172L33.5562 20.4513L33.5623 20.4562L33.5687 20.4608L33.7437 20.2172ZM34.0227 15.9882L33.7366 15.8981L33.7362 15.8992L34.0227 15.9882ZM32.9311 13.9298L33.1482 14.1368L33.1482 14.1368L32.9311 13.9298ZM28.8485 19.7313L29.117 19.8651L29.1174 19.8642L28.8485 19.7313ZM27.5676 22.3006L27.2989 22.1666L27.2943 22.1768L27.5676 22.3006ZM27.2236 22.5759L27.175 22.2798C27.1309 22.2871 27.102 22.2871 27.0852 22.2854C27.069 22.2837 27.0684 22.281 27.0757 22.2851C27.0845 22.2902 27.0918 22.2978 27.0954 22.3037C27.0979 22.3078 27.0937 22.3031 27.0902 22.2816L26.7941 22.3302L26.4981 22.3787C26.5254 22.5451 26.6079 22.7087 26.7778 22.8059C26.9343 22.8955 27.1134 22.898 27.2722 22.8719L27.2236 22.5759ZM26.7941 22.3302L27.0902 22.2816C27.0902 22.2816 27.0902 22.2816 27.0902 22.2816C27.0902 22.2816 27.0902 22.2816 27.0902 22.2816C27.0902 22.2816 27.0902 22.2816 27.0902 22.2816C27.0902 22.2815 27.0902 22.2815 27.0902 22.2815C27.0901 22.2814 27.0901 22.2812 27.0901 22.281C27.0901 22.2807 27.09 22.2801 27.09 22.2793C27.0898 22.2777 27.0898 22.2754 27.0898 22.2722C27.0899 22.2657 27.0906 22.2563 27.0927 22.2436C27.0968 22.2176 27.106 22.1818 27.1234 22.1351L26.8422 22.0304L26.5611 21.9257C26.5079 22.0686 26.473 22.2259 26.4981 22.3787L26.7941 22.3302ZM26.8422 22.0304L27.1288 22.1194C27.17 21.9866 27.2058 21.8829 27.2364 21.806L26.9575 21.6953L26.6787 21.5847C26.6404 21.6812 26.5994 21.8009 26.5557 21.9415L26.8422 22.0304ZM26.9575 21.6953L27.2442 21.7837L28.6724 17.1473L28.3857 17.0589L28.099 16.9706L26.6708 21.607L26.9575 21.6953ZM28.3857 17.0589L28.6728 17.1459C28.9783 16.138 29.2042 15.3529 29.3498 14.7924C29.4225 14.5126 29.4762 14.2849 29.5098 14.1115C29.5265 14.0251 29.5391 13.9481 29.5461 13.8828C29.5525 13.8245 29.5576 13.7506 29.5464 13.6825L29.2504 13.7311L28.9543 13.7796C28.9516 13.7628 28.955 13.7685 28.9496 13.818C28.945 13.8605 28.9358 13.9196 28.9207 13.9975C28.8907 14.1528 28.8405 14.3667 28.7691 14.6415C28.6265 15.1904 28.4033 15.9665 28.0986 16.9719L28.3857 17.0589ZM29.2504 13.7311L29.5464 13.6825C29.5412 13.651 29.5427 13.6349 29.5435 13.6301C29.544 13.6269 29.5433 13.6338 29.5361 13.6438C29.529 13.6537 29.5227 13.6566 29.5256 13.6551C29.5298 13.6529 29.5446 13.6463 29.5761 13.6411L29.5275 13.3451L29.479 13.0491C29.3228 13.0747 29.1577 13.142 29.0488 13.2938C28.9398 13.4455 28.9287 13.6235 28.9543 13.7796L29.2504 13.7311ZM29.5275 13.3451L29.5761 13.6411C29.6765 13.6247 29.7026 13.6467 29.7033 13.6473C29.7071 13.6502 29.7402 13.6776 29.7592 13.7935L30.0552 13.7449L30.3513 13.6964C30.3185 13.4965 30.2377 13.2994 30.0656 13.169C29.8904 13.0363 29.6786 13.0163 29.479 13.0491L29.5275 13.3451ZM30.0552 13.7449L29.7592 13.7935C29.7591 13.793 29.761 13.8067 29.7596 13.842C29.7583 13.8752 29.7545 13.9192 29.7472 13.9757C29.7325 14.0886 29.7057 14.2385 29.6652 14.4278L29.9586 14.4904L30.252 14.5531C30.2941 14.3558 30.3246 14.1883 30.3422 14.0527C30.3586 13.9263 30.368 13.7985 30.3513 13.6964L30.0552 13.7449ZM29.9586 14.4904L29.6652 14.4278C29.5847 14.8049 29.4726 15.2375 29.3283 15.7263L29.616 15.8113L29.9037 15.8963C30.0512 15.3968 30.1675 14.9489 30.252 14.5531L29.9586 14.4904ZM29.616 15.8113L29.3268 15.7314C29.0834 16.6115 28.874 17.2852 28.6983 17.7567L28.9795 17.8614L29.2606 17.9661C29.4452 17.4705 29.66 16.7775 29.9051 15.8913L29.616 15.8113ZM28.9795 17.8614L29.2359 18.0172C29.6151 17.3931 30.0069 16.7995 30.4114 16.2363L30.1677 16.0613L29.924 15.8863C29.5102 16.4626 29.1099 17.0691 28.7231 17.7056L28.9795 17.8614ZM30.1677 16.0613L30.4114 16.2363C30.8168 15.6718 31.2337 15.1297 31.662 14.61L31.4305 14.4192L31.199 14.2284C30.7619 14.7586 30.337 15.3113 29.924 15.8863L30.1677 16.0613ZM31.4305 14.4192L31.6619 14.6102C32.2972 13.8405 32.8654 13.2568 33.3666 12.8519C33.872 12.4435 34.2861 12.236 34.6144 12.1822L34.5658 11.8862L34.5172 11.5901C34.0402 11.6684 33.5292 11.9491 32.9895 12.3851C32.4456 12.8246 31.8488 13.4413 31.1992 14.2282L31.4305 14.4192ZM34.5658 11.8862L34.6144 12.1822C34.8492 12.1437 34.9795 12.1795 35.0518 12.2283C35.1203 12.2745 35.1924 12.37 35.2269 12.5803L35.5229 12.5317L35.819 12.4831C35.768 12.1724 35.6378 11.8998 35.3873 11.7308C35.1406 11.5644 34.835 11.538 34.5172 11.5901L34.5658 11.8862ZM35.5229 12.5317L35.2269 12.5803C35.256 12.7574 35.2303 13.1101 35.1163 13.6766C35.0049 14.2299 34.8175 14.9506 34.5521 15.8415L34.8396 15.9271L35.1271 16.0128C35.395 15.1137 35.5881 14.3735 35.7045 13.795C35.8183 13.2297 35.8676 12.7797 35.819 12.4831L35.5229 12.5317ZM34.8396 15.9271L34.5518 15.8425C34.2854 16.7491 34.0928 17.4906 33.9759 18.0645C33.862 18.6231 33.8101 19.0652 33.8564 19.3474L34.1525 19.2989L34.4485 19.2503C34.4223 19.0904 34.4486 18.7495 34.5638 18.1843C34.6759 17.6342 34.8632 16.9109 35.1275 16.0117L34.8396 15.9271ZM34.1525 19.2989L33.8564 19.3474C33.8773 19.4751 33.9221 19.62 34.0279 19.7295C34.1505 19.8564 34.3121 19.8929 34.4647 19.8678L34.4161 19.5718L34.3675 19.2757C34.3677 19.2757 34.3821 19.2735 34.4044 19.28C34.4282 19.2871 34.4473 19.3001 34.4594 19.3126C34.4698 19.3234 34.4699 19.3283 34.4654 19.3175C34.461 19.3066 34.4543 19.2855 34.4485 19.2503L34.1525 19.2989ZM34.4161 19.5718L34.4647 19.8678C34.5629 19.8517 34.6675 19.8042 34.7612 19.7549L34.6215 19.4894L34.4818 19.224C34.4431 19.2443 34.4132 19.2581 34.3913 19.2669C34.3678 19.2763 34.3614 19.2768 34.3675 19.2757L34.4161 19.5718ZM34.6215 19.4894L34.7828 19.7424C34.8543 19.6968 34.923 19.671 34.99 19.66L34.9414 19.364L34.8928 19.068C34.7388 19.0932 34.5942 19.1511 34.4602 19.2365L34.6215 19.4894ZM34.9414 19.364L34.99 19.66C35.0829 19.6448 35.1011 19.6646 35.0914 19.6581C35.0778 19.6489 35.0977 19.6495 35.1102 19.7254L35.4062 19.6769L35.7022 19.6283C35.6732 19.4516 35.595 19.2738 35.4264 19.1603C35.2618 19.0495 35.0684 19.0392 34.8928 19.068L34.9414 19.364ZM35.4062 19.6769L35.1102 19.7254C35.1138 19.748 35.1102 19.7564 35.1076 19.7616C35.1034 19.7701 35.0886 19.7935 35.041 19.826C34.9388 19.8955 34.7428 19.9681 34.4169 20.0216L34.4655 20.3176L34.5141 20.6137C34.8672 20.5557 35.1674 20.4658 35.3788 20.3218C35.488 20.2475 35.5842 20.1514 35.6455 20.0275C35.7083 19.9004 35.7244 19.7637 35.7022 19.6283L35.4062 19.6769ZM34.4655 20.3176L34.4169 20.0216C34.1362 20.0676 33.9908 20.0253 33.9187 19.9735L33.7437 20.2172L33.5687 20.4608C33.8274 20.6466 34.1633 20.6712 34.5141 20.6137L34.4655 20.3176ZM33.7437 20.2172L33.9313 19.983C33.8317 19.9033 33.7574 19.7819 33.7256 19.5878L33.4296 19.6364L33.1335 19.6849C33.1846 19.9961 33.3197 20.2619 33.5562 20.4513L33.7437 20.2172ZM33.4296 19.6364L33.7256 19.5878C33.6137 18.9059 33.7899 17.75 34.3093 16.0771L34.0227 15.9882L33.7362 15.8992C33.216 17.5749 32.9967 18.8511 33.1335 19.6849L33.4296 19.6364ZM34.0227 15.9882L34.3089 16.0783C34.5709 15.2464 34.7628 14.5772 34.8828 14.0736C34.9428 13.822 34.986 13.6071 35.0107 13.4314C35.0344 13.2632 35.0454 13.1045 35.0247 12.9783L34.7286 13.0268L34.4326 13.0754C34.4378 13.1071 34.4388 13.1902 34.4166 13.3477C34.3954 13.4977 34.3569 13.6925 34.2992 13.9345C34.1839 14.4179 33.9969 15.0716 33.7366 15.8981L34.0227 15.9882ZM34.7286 13.0268L35.0247 12.9783C35.0044 12.8551 34.9588 12.7122 34.8481 12.606C34.7226 12.4856 34.5635 12.4581 34.4203 12.4816L34.4688 12.7776L34.5174 13.0737C34.5204 13.0732 34.509 13.0755 34.4892 13.0703C34.4674 13.0647 34.4474 13.053 34.4327 13.0389C34.4195 13.0263 34.417 13.0178 34.4195 13.0236C34.4221 13.0297 34.4277 13.0456 34.4326 13.0754L34.7286 13.0268ZM34.4688 12.7776L34.4203 12.4816C34.1743 12.5219 33.9121 12.6674 33.644 12.8683C33.3693 13.0741 33.0589 13.3608 32.7139 13.7228L32.9311 13.9298L33.1482 14.1368C33.481 13.7876 33.7658 13.5267 34.0038 13.3485C34.2482 13.1653 34.416 13.0903 34.5174 13.0737L34.4688 12.7776ZM32.9311 13.9298L32.714 13.7227C31.9709 14.502 31.245 15.3757 30.5361 16.3432L30.7781 16.5205L31.0201 16.6978C31.7155 15.7487 32.4249 14.8953 33.1482 14.1368L32.9311 13.9298ZM30.7781 16.5205L30.5361 16.3432C29.8227 17.3169 29.1707 18.4023 28.5795 19.5984L28.8485 19.7313L29.1174 19.8642C29.6949 18.6959 30.3293 17.6407 31.0201 16.6978L30.7781 16.5205ZM28.8485 19.7313L28.58 19.5974L27.2991 22.1667L27.5676 22.3006L27.836 22.4344L29.117 19.8651L28.8485 19.7313ZM27.5676 22.3006L27.2943 22.1768C27.2603 22.2519 27.2247 22.2717 27.175 22.2798L27.2236 22.5759L27.2722 22.8719C27.5382 22.8283 27.732 22.6645 27.8408 22.4244L27.5676 22.3006ZM37.6559 17.4594L37.3663 17.3811L37.3657 17.3833L37.6559 17.4594ZM40.042 10.0635L40.3248 10.1637L40.4944 9.68528L39.9934 9.76747L40.042 10.0635ZM38.3757 10.5801L38.5004 10.853L38.5058 10.8504L38.3757 10.5801ZM37.6361 11.2608L37.9351 11.2855L37.9364 11.2701L37.9361 11.2546L37.6361 11.2608ZM37.5488 11.4697L37.7925 11.6447L37.5488 11.4697ZM37.6864 10.0852L37.8447 10.34L37.6864 10.0852ZM40.344 9.2357L40.3925 9.53175L40.5594 9.50437L40.6224 9.34744L40.344 9.2357ZM41.5352 6.26769L41.2593 6.1497L41.2568 6.15595L41.5352 6.26769ZM41.7972 5.64101L42.0749 5.75486L42.0783 5.74572L41.7972 5.64101ZM42.1069 4.86057L41.8378 4.72802L41.8337 4.73632L41.8301 4.74485L42.1069 4.86057ZM42.9008 4.51142L42.7 4.73428L42.7124 4.74541L42.7259 4.7551L42.9008 4.51142ZM42.2993 6.77466L42.5715 6.90078L42.5717 6.90039L42.2993 6.77466ZM41.2439 9.08805L40.9628 8.98334L40.7824 9.46779L41.2925 9.38409L41.2439 9.08805ZM42.3214 8.98425L42.3402 9.28382L42.3501 9.28287L42.3214 8.98425ZM44.0301 8.87416L44.0424 9.1739L44.0507 9.17356L44.0588 9.17277L44.0301 8.87416ZM43.4086 9.68143L43.4148 9.98169L43.4289 9.98074L43.4086 9.68143ZM42.3234 9.73786L42.3472 10.0369L42.3234 9.73786ZM41.3485 9.87349L41.2826 9.5808L41.2803 9.58133L41.3485 9.87349ZM40.9971 9.95545L40.929 9.6633L40.7718 9.69997L40.7158 9.85134L40.9971 9.95545ZM37.9383 21.2558L37.6428 21.3077L37.6458 21.3244L37.6505 21.3407L37.9383 21.2558ZM37.993 21.4413L38.2891 21.3928L38.2861 21.3743L38.2808 21.3564L37.993 21.4413ZM37.6604 21.9337L37.6118 21.6377C37.5762 21.6435 37.5584 21.6394 37.5511 21.637C37.5448 21.6349 37.5339 21.63 37.5179 21.612C37.4791 21.5685 37.4252 21.4636 37.3899 21.2485L37.0938 21.297L36.7978 21.3456C36.8402 21.6041 36.9195 21.8422 37.0696 22.0109C37.2379 22.2 37.466 22.2696 37.7089 22.2297L37.6604 21.9337ZM37.0938 21.297L37.3899 21.2485C37.3404 20.9471 37.3534 20.4901 37.4457 19.8601C37.5372 19.2353 37.7034 18.4613 37.9461 17.5355L37.6559 17.4594L37.3657 17.3833C37.1198 18.3212 36.9479 19.1186 36.852 19.7731C36.7569 20.4222 36.7332 20.9522 36.7978 21.3456L37.0938 21.297ZM37.6559 17.4594L37.9455 17.5377C38.4471 15.6821 39.2396 13.2249 40.3248 10.1637L40.042 10.0635L39.7593 9.96328C38.6719 13.0306 37.8737 15.5041 37.3663 17.3811L37.6559 17.4594ZM40.042 10.0635L39.9934 9.76747C39.3672 9.87021 38.7841 10.0505 38.2455 10.3098L38.3757 10.5801L38.5058 10.8504C38.9891 10.6177 39.5168 10.4537 40.0906 10.3596L40.042 10.0635ZM38.3757 10.5801L38.2509 10.3073C37.9891 10.427 37.7708 10.5562 37.6143 10.7002C37.4586 10.8436 37.3313 11.0334 37.3362 11.267L37.6361 11.2608L37.9361 11.2546C37.936 11.2545 37.936 11.2533 37.9367 11.2505C37.9375 11.2476 37.9394 11.2415 37.9444 11.2323C37.9547 11.2129 37.9767 11.1822 38.0207 11.1417C38.1107 11.0589 38.2645 10.9608 38.5004 10.8529L38.3757 10.5801ZM37.6361 11.2608L37.3371 11.2361C37.3375 11.2312 37.3375 11.2496 37.3051 11.2947L37.5488 11.4697L37.7925 11.6447C37.8656 11.5428 37.9238 11.422 37.9351 11.2855L37.6361 11.2608ZM37.5488 11.4697L37.3051 11.2947C37.3202 11.2737 37.3343 11.2675 37.3312 11.2689C37.3296 11.2697 37.3245 11.272 37.3149 11.2748C37.3054 11.2776 37.2923 11.2808 37.275 11.2836L37.3236 11.5796L37.3722 11.8757C37.5128 11.8526 37.6841 11.7957 37.7925 11.6447L37.5488 11.4697ZM37.3236 11.5796L37.275 11.2836C37.1944 11.2968 37.1849 11.2779 37.1989 11.2878C37.2128 11.2978 37.1918 11.295 37.1785 11.2143L36.8825 11.2629L36.5865 11.3114C36.6147 11.4834 36.6879 11.6596 36.8489 11.7752C37.0098 11.8908 37.2002 11.9039 37.3722 11.8757L37.3236 11.5796ZM36.8825 11.2629L37.1785 11.2143C37.1425 10.9945 37.2651 10.6999 37.8447 10.34L37.6864 10.0852L37.5282 9.8303C36.9012 10.2196 36.4878 10.7102 36.5865 11.3114L36.8825 11.2629ZM37.6864 10.0852L37.8447 10.34C38.3994 9.99558 39.2406 9.72075 40.3925 9.53175L40.344 9.2357L40.2954 8.93966C39.1106 9.13404 38.1801 9.42552 37.5282 9.8303L37.6864 10.0852ZM40.344 9.2357L40.6224 9.34744L41.8136 6.37943L41.5352 6.26769L41.2568 6.15595L40.0656 9.12396L40.344 9.2357ZM41.5352 6.26769L41.811 6.38565C41.8937 6.19225 41.9816 5.98194 42.0747 5.7548L41.7972 5.64101L41.5196 5.52722C41.4274 5.75203 41.3407 5.95952 41.2593 6.14973L41.5352 6.26769ZM41.7972 5.64101L42.0783 5.74572C42.1668 5.5082 42.2685 5.25176 42.3837 4.97628L42.1069 4.86057L41.8301 4.74485C41.7124 5.02642 41.6077 5.29028 41.516 5.5363L41.7972 5.64101ZM42.1069 4.86057L42.376 4.99311C42.47 4.80224 42.5657 4.74882 42.6458 4.73567L42.5972 4.43963L42.5486 4.14359C42.2183 4.19779 41.987 4.42499 41.8378 4.72802L42.1069 4.86057ZM42.5972 4.43963L42.6458 4.73567C42.6786 4.73029 42.6946 4.73297 42.6988 4.73399C42.7009 4.73447 42.7011 4.73474 42.7003 4.73433C42.6995 4.73391 42.6993 4.73365 42.7 4.73428L42.9008 4.51142L43.1017 4.28856C42.9413 4.14403 42.7403 4.11214 42.5486 4.14359L42.5972 4.43963ZM42.9008 4.51142L42.7259 4.7551C42.7371 4.76317 42.739 4.7671 42.7376 4.76503C42.737 4.76413 42.7362 4.76263 42.7355 4.76079C42.7348 4.75895 42.7345 4.75774 42.7345 4.7576L43.0306 4.70903L43.3266 4.66046C43.299 4.49243 43.2047 4.3603 43.0758 4.26774L42.9008 4.51142ZM43.0306 4.70903L42.7345 4.7576C42.7338 4.75355 42.7357 4.76287 42.7331 4.79186C42.7306 4.8194 42.7247 4.85711 42.7138 4.9065C42.6918 5.00566 42.6529 5.1369 42.5941 5.30295C42.4767 5.63453 42.2886 6.08216 42.0269 6.64893L42.2993 6.77466L42.5717 6.90039C42.8364 6.32692 43.0333 5.86014 43.1597 5.50317C43.2228 5.32495 43.2703 5.16838 43.2996 5.0362C43.327 4.91241 43.346 4.7785 43.3266 4.66046L43.0306 4.70903ZM42.2993 6.77466L42.0271 6.64854C41.3732 8.05998 41.0132 8.84812 40.9628 8.98334L41.2439 9.08805L41.5251 9.19276C41.5648 9.08621 41.9084 8.3321 42.5715 6.90078L42.2993 6.77466ZM41.2439 9.08805L41.2925 9.38409C41.514 9.34775 41.8609 9.31387 42.3402 9.28365L42.3214 8.98425L42.3025 8.68484C41.8189 8.71532 41.4475 8.75064 41.1954 8.79201L41.2439 9.08805ZM42.3214 8.98425L42.3501 9.28287C42.8219 9.23741 43.3858 9.20101 44.0424 9.1739L44.0301 8.87416L44.0177 8.57441C43.3538 8.60182 42.7785 8.63882 42.2926 8.68563L42.3214 8.98425ZM44.0301 8.87416L44.0588 9.17277C44.1361 9.16533 44.1487 9.18241 44.138 9.17478C44.1332 9.17127 44.132 9.16829 44.1338 9.17159C44.1363 9.17615 44.1427 9.19029 44.1476 9.21969L44.4436 9.17112L44.7396 9.12255C44.7129 8.95956 44.6402 8.79673 44.488 8.68742C44.3395 8.5808 44.1634 8.55992 44.0013 8.57554L44.0301 8.87416ZM44.4436 9.17112L44.1476 9.21969C44.1535 9.25583 44.1514 9.27536 44.1499 9.28281C44.1488 9.28841 44.1483 9.28672 44.1507 9.28381C44.1545 9.27905 44.1354 9.30681 44.0309 9.32396L44.0795 9.62L44.128 9.91604C44.3077 9.88656 44.4914 9.81619 44.6166 9.6618C44.7476 9.50042 44.7694 9.30412 44.7396 9.12255L44.4436 9.17112ZM44.0795 9.62L44.0309 9.32396C43.9368 9.33939 43.7275 9.35913 43.3883 9.38211L43.4086 9.68143L43.4289 9.98074C43.7632 9.95809 44.0011 9.93687 44.128 9.91604L44.0795 9.62ZM43.4086 9.68143L43.4024 9.38149C43.0564 9.38866 42.6888 9.40781 42.2996 9.43881L42.3234 9.73786L42.3472 10.0369C42.7262 10.0067 43.082 9.98826 43.4148 9.98136L43.4086 9.68143ZM42.3234 9.73786L42.2996 9.43881C41.9066 9.47011 41.5666 9.51688 41.2826 9.58081L41.3485 9.87349L41.4144 10.1662C41.662 10.1104 41.9719 10.0668 42.3472 10.0369L42.3234 9.73786ZM41.3485 9.87349L41.2803 9.58133L40.929 9.6633L40.9971 9.95545L41.0653 10.2476L41.4166 10.1656L41.3485 9.87349ZM40.9971 9.95545L40.7158 9.85134C39.5742 12.9362 38.7458 15.4281 38.2325 17.324C37.976 18.2718 37.7968 19.0758 37.6972 19.7333C37.5985 20.3849 37.5739 20.9162 37.6428 21.3077L37.9383 21.2558L38.2337 21.2038C38.182 20.9098 38.1945 20.4561 38.2904 19.8232C38.3854 19.1963 38.5585 18.4163 38.8117 17.4808C39.3181 15.61 40.1396 13.1372 41.2785 10.0596L40.9971 9.95545ZM37.9383 21.2558L37.6505 21.3407L37.7053 21.5263L37.993 21.4413L38.2808 21.3564L38.226 21.1708L37.9383 21.2558ZM37.993 21.4413L37.697 21.4899L37.7048 21.5373L38.0008 21.4887L38.2969 21.4401L38.2891 21.3928L37.993 21.4413ZM38.0008 21.4887L37.7048 21.5373C37.7172 21.6132 37.6985 21.6202 37.7085 21.6071C37.7157 21.5978 37.7047 21.6224 37.6118 21.6377L37.6604 21.9337L37.7089 22.2297C37.8845 22.2009 38.0644 22.1294 38.1851 21.9717C38.3085 21.8103 38.3258 21.6168 38.2969 21.4401L38.0008 21.4887ZM49.9396 18.849L49.9323 19.1489L49.9328 19.1489L49.9396 18.849ZM48.3508 18.3557L48.1707 18.596L48.1808 18.6029L48.3508 18.3557ZM47.8605 15.6636L48.1042 15.8386L48.1083 15.8328L48.1122 15.8268L47.8605 15.6636ZM48.4119 16.0595L48.6887 16.1753L48.4119 16.0595ZM53.1387 17.5945L53.2287 17.8807L53.1387 17.5945ZM54.7146 16.9712L54.585 16.7006L54.5845 16.7008L54.7146 16.9712ZM58.0941 14.5926L58.3096 14.8014L58.313 14.7978L58.0941 14.5926ZM59.6816 10.9273L59.9811 10.9095L59.9802 10.894L59.9777 10.8787L59.6816 10.9273ZM58.0134 9.06071L58.0381 8.76173L57.921 8.75206L57.8284 8.82455L58.0134 9.06071ZM54.037 10.3211L54.2807 10.4961L54.3277 10.4307L54.3356 10.3505L54.037 10.3211ZM55.0343 9.13603L54.9053 8.86521L54.9046 8.86555L55.0343 9.13603ZM57.7155 8.28268L57.7452 8.58121L57.8456 8.57125L57.9196 8.50262L57.7155 8.28268ZM54.0568 4.06741L54.3005 4.24241L54.3005 4.2424L54.0568 4.06741ZM53.9101 4.35901L53.6333 4.2433L53.6278 4.25645L53.6236 4.27006L53.9101 4.35901ZM53.7312 4.89911L53.4474 4.80147L53.4447 4.81016L53.7312 4.89911ZM52.9594 5.82831L52.7803 5.58768L52.7603 5.60259L52.743 5.62062L52.9594 5.82831ZM52.132 5.38036L52.398 5.51915L52.4 5.51521L52.132 5.38036ZM58.7173 8.45882L58.5026 8.24926L58.1552 8.60517L58.6321 8.74646L58.7173 8.45882ZM60.617 10.8468L60.916 10.8227L60.915 10.8104L60.913 10.7982L60.617 10.8468ZM57.6443 16.15L57.824 16.3902L57.824 16.3902L57.6443 16.15ZM51.7392 18.6997L51.6906 18.4036C51.0246 18.5129 50.4439 18.5604 49.9465 18.5491L49.9396 18.849L49.9328 19.1489C50.477 19.1613 51.096 19.1092 51.7878 18.9957L51.7392 18.6997ZM49.9396 18.849L49.947 18.5491C49.3976 18.5357 48.9256 18.3869 48.5208 18.1085L48.3508 18.3557L48.1808 18.6029C48.6898 18.9529 49.2771 19.1329 49.9323 19.1489L49.9396 18.849ZM48.3508 18.3557L48.5307 18.1157C48.1535 17.8329 47.9218 17.4455 47.8376 16.932L47.5415 16.9806L47.2455 17.0292C47.3529 17.6841 47.6608 18.2134 48.1709 18.5958L48.3508 18.3557ZM47.5415 16.9806L47.8376 16.932C47.8144 16.7908 47.8213 16.6099 47.8716 16.3827L47.5787 16.3178L47.2858 16.253C47.2244 16.5305 47.2065 16.7915 47.2455 17.0292L47.5415 16.9806ZM47.5787 16.3178L47.8716 16.3827C47.9199 16.1644 47.999 15.985 48.1042 15.8386L47.8605 15.6636L47.6168 15.4886C47.458 15.7098 47.3492 15.9666 47.2858 16.253L47.5787 16.3178ZM47.8605 15.6636L48.1122 15.8268C48.2182 15.6634 48.2991 15.6281 48.34 15.6214L48.2914 15.3254L48.2429 15.0293C47.968 15.0744 47.7616 15.2646 47.6088 15.5004L47.8605 15.6636ZM48.2914 15.3254L48.34 15.6214C48.3733 15.6159 48.3452 15.6289 48.3038 15.5991C48.2623 15.5693 48.2656 15.5386 48.2711 15.5719L48.5671 15.5233L48.8632 15.4748C48.8427 15.3502 48.7871 15.2075 48.6538 15.1117C48.5204 15.016 48.3674 15.0089 48.2429 15.0293L48.2914 15.3254ZM48.5671 15.5233L48.2711 15.5719C48.2671 15.5476 48.2708 15.5384 48.268 15.5566C48.2658 15.5715 48.2605 15.5963 48.2499 15.6332C48.2285 15.707 48.1913 15.8095 48.1351 15.9438L48.4119 16.0595L48.6887 16.1753C48.7489 16.0311 48.7958 15.905 48.8262 15.8C48.8522 15.7102 48.8816 15.5874 48.8632 15.4748L48.5671 15.5233ZM48.4119 16.0595L48.1351 15.9438C47.9994 16.2683 47.9531 16.5986 48.0072 16.9285L48.3033 16.8799L48.5993 16.8314C48.5654 16.6244 48.5914 16.4078 48.6887 16.1753L48.4119 16.0595ZM48.3033 16.8799L48.0072 16.9285C48.0584 17.2403 48.1781 17.5151 48.3743 17.7408C48.5698 17.9658 48.8282 18.1272 49.1347 18.2331C49.738 18.4416 50.553 18.4443 51.5489 18.281L51.5003 17.9849L51.4518 17.6889C50.4898 17.8467 49.7931 17.8259 49.3307 17.666C49.1043 17.5878 48.9415 17.4788 48.8272 17.3473C48.7135 17.2164 48.6349 17.0485 48.5993 16.8314L48.3033 16.8799ZM51.5003 17.9849L51.5489 18.281C52.1157 18.188 52.6756 18.0545 53.2287 17.8807L53.1387 17.5945L53.0488 17.3083C52.5225 17.4737 51.9902 17.6005 51.4518 17.6889L51.5003 17.9849ZM53.1387 17.5945L53.2287 17.8807C53.7821 17.7068 54.3209 17.4937 54.8447 17.2415L54.7146 16.9712L54.5845 16.7008C54.0865 16.9406 53.5747 17.143 53.0488 17.3083L53.1387 17.5945ZM54.7146 16.9712L54.8443 17.2417C56.2101 16.5872 57.3668 15.7746 58.3096 14.8014L58.0941 14.5926L57.8787 14.3839C56.9912 15.2999 55.8949 16.073 54.585 16.7006L54.7146 16.9712ZM58.0941 14.5926L58.313 14.7978C59.4811 13.5516 60.0606 12.2531 59.9811 10.9095L59.6816 10.9273L59.3822 10.945C59.449 12.0743 58.9701 13.2194 57.8752 14.3875L58.0941 14.5926ZM59.6816 10.9273L59.9777 10.8787L59.9505 10.7129L59.6544 10.7615L59.3584 10.81L59.3856 10.9758L59.6816 10.9273ZM59.6544 10.7615L59.9505 10.7129C59.8573 10.145 59.6585 9.67518 59.3299 9.33459C58.9973 8.98985 58.5577 8.80463 58.0381 8.76173L58.0134 9.06071L57.9888 9.3597C58.3896 9.39279 58.6838 9.52902 58.8981 9.7512C59.1165 9.97753 59.278 10.3201 59.3584 10.81L59.6544 10.7615ZM58.0134 9.06071L57.8284 8.82455C56.66 9.73985 55.7336 10.2252 55.0372 10.3394L55.0858 10.6355L55.1343 10.9315C55.9852 10.7919 57.0106 10.2274 58.1984 9.29688L58.0134 9.06071ZM55.0858 10.6355L55.0372 10.3394C54.7159 10.3921 54.5058 10.394 54.3842 10.3692C54.3257 10.3573 54.3082 10.3431 54.3091 10.3438C54.3161 10.3497 54.3236 10.3629 54.3249 10.3712L54.0289 10.4197L53.7329 10.4683C53.7549 10.6029 53.822 10.7199 53.9275 10.8068C54.0268 10.8887 54.1466 10.9331 54.2642 10.9571C54.4949 11.0042 54.7925 10.9876 55.1343 10.9315L55.0858 10.6355ZM54.0289 10.4197L54.3249 10.3712C54.3234 10.3618 54.3254 10.3679 54.3241 10.3842C54.3229 10.3987 54.3171 10.4454 54.2807 10.4961L54.037 10.3211L53.7934 10.1461C53.7437 10.2152 53.73 10.2875 53.7261 10.3349C53.7221 10.3841 53.7266 10.4303 53.7329 10.4683L54.0289 10.4197ZM54.037 10.3211L54.3356 10.3505C54.3703 9.99776 54.6028 9.67583 55.1641 9.40651L55.0343 9.13603L54.9046 8.86555C54.2334 9.18757 53.801 9.6557 53.7385 10.2918L54.037 10.3211ZM55.0343 9.13603L55.1634 9.40684C56.1844 8.92024 57.043 8.65087 57.7452 8.58121L57.7155 8.28268L57.6859 7.98414C56.8884 8.06325 55.9595 8.36278 54.9053 8.86521L55.0343 9.13603ZM57.7155 8.28268L57.9196 8.50262C59.1214 7.38772 60.005 6.33878 60.5557 5.35525C61.1069 4.37068 61.3342 3.43345 61.1903 2.55657L60.8943 2.60514L60.5982 2.65371C60.7134 3.35572 60.5405 4.15419 60.0321 5.06214C59.5232 5.97112 58.6879 6.9715 57.5115 8.06274L57.7155 8.28268ZM60.8943 2.60514L61.1903 2.55657C61.0848 1.91362 60.7752 1.42647 60.2404 1.1541C59.7246 0.891453 59.0462 0.853236 58.245 0.984682L58.2936 1.28072L58.3421 1.57677C59.0883 1.45435 59.6169 1.50994 59.9681 1.68877C60.3002 1.85787 60.5172 2.15986 60.5982 2.65371L60.8943 2.60514ZM58.2936 1.28072L58.245 0.984682C56.4661 1.27653 54.9877 2.25679 53.8131 3.89242L54.0568 4.06741L54.3005 4.2424C55.3961 2.7168 56.7422 1.83926 58.3421 1.57677L58.2936 1.28072ZM54.0568 4.06741L53.8132 3.89242C53.7521 3.97745 53.6923 4.10217 53.6333 4.2433L53.9101 4.35901L54.1869 4.47473C54.2443 4.33733 54.2824 4.26766 54.3005 4.24241L54.0568 4.06741ZM53.9101 4.35901L53.6236 4.27006C53.5824 4.4026 53.5239 4.57942 53.4475 4.80152L53.7312 4.89911L54.0149 4.9967C54.0922 4.77202 54.1529 4.58878 54.1966 4.44797L53.9101 4.35901ZM53.7312 4.89911L53.4447 4.81016C53.3765 5.02972 53.1775 5.29199 52.7803 5.58768L52.9594 5.82831L53.1386 6.06895C53.5795 5.74073 53.8949 5.38352 54.0177 4.98806L53.7312 4.89911ZM52.9594 5.82831L52.743 5.62062C52.7487 5.61467 52.748 5.6182 52.7308 5.6256C52.7134 5.63314 52.6839 5.64246 52.6383 5.64995L52.6869 5.94599L52.7355 6.24203C52.8902 6.21664 53.0558 6.16122 53.1759 6.036L52.9594 5.82831ZM52.6869 5.94599L52.6383 5.64995C52.4945 5.67354 52.4363 5.65311 52.4222 5.6455C52.4179 5.6432 52.4164 5.64171 52.4139 5.6378C52.4103 5.63224 52.4017 5.61587 52.3958 5.58028L52.0998 5.62885L51.8038 5.67742C51.8371 5.8806 51.9391 6.06649 52.137 6.1734C52.3186 6.27149 52.5319 6.27543 52.7355 6.24203L52.6869 5.94599ZM52.0998 5.62885L52.3958 5.58028C52.3887 5.53643 52.3966 5.5217 52.398 5.51914L52.132 5.38036L51.866 5.24159C51.7934 5.38088 51.7799 5.53181 51.8038 5.67742L52.0998 5.62885ZM52.132 5.38036L52.4 5.51521C53.7332 2.86552 55.6621 1.3598 58.1899 0.945086L58.1413 0.649044L58.0927 0.353001C55.347 0.803481 53.2696 2.45197 51.864 5.24552L52.132 5.38036ZM58.1413 0.649044L58.1899 0.945086C59.2545 0.770415 60.0309 0.832911 60.5569 1.08075C61.0608 1.31814 61.3731 1.74359 61.4827 2.41132L61.7787 2.36275L62.0748 2.31418C61.9382 1.48197 61.5213 0.871828 60.8126 0.537977C60.1262 0.214583 59.2069 0.170198 58.0927 0.353001L58.1413 0.649044ZM61.7787 2.36275L61.4827 2.41132C61.7347 3.94735 60.8119 5.88364 58.5026 8.24926L58.7173 8.45882L58.9319 8.66839C61.2589 6.28474 62.3771 4.15698 62.0748 2.31418L61.7787 2.36275ZM58.7173 8.45882L58.6321 8.74646C59.1137 8.88917 59.4805 9.12044 59.7482 9.43259C60.0164 9.74546 60.1997 10.1568 60.2859 10.6822L60.582 10.6336L60.878 10.5851C60.7777 9.97365 60.557 9.45411 60.2037 9.04205C59.8497 8.62926 59.3775 8.34154 58.8025 8.17118L58.7173 8.45882ZM60.582 10.6336L60.2859 10.6822L60.3209 10.8953L60.617 10.8468L60.913 10.7982L60.878 10.5851L60.582 10.6336ZM60.617 10.8468L60.3179 10.8708C60.4623 12.6681 59.5536 14.3468 57.4646 15.9098L57.6443 16.15L57.824 16.3902C60.0097 14.7549 61.0827 12.8982 60.916 10.8227L60.617 10.8468ZM57.6443 16.15L57.4647 15.9098C55.6963 17.2323 53.7725 18.0621 51.6906 18.4036L51.7392 18.6997L51.7878 18.9957C53.9689 18.6379 55.9819 17.7679 57.824 16.3902L57.6443 16.15Z" fill="#F33E5C" mask="url(#path-2-outside-1_797_5993)"/>
</g>
</svg>
