<svg width="60" height="24" viewBox="0 0 60 24" fill="none" xmlns="http://www.w3.org/2000/svg">
<path d="M7.37163 23.64C6.30496 23.64 5.31296 23.544 4.39563 23.352C3.47829 23.16 2.71029 22.84 2.09163 22.392C1.66496 22.072 1.33429 21.6667 1.09963 21.176C0.886292 20.6853 0.779625 20.184 0.779625 19.672C0.779625 19.032 0.960959 18.4347 1.32363 17.88C1.68629 17.3253 2.26229 16.952 3.05163 16.76C3.15829 16.7387 3.25429 16.728 3.33963 16.728C3.44629 16.7067 3.54229 16.696 3.62763 16.696C4.05429 16.696 4.42763 16.792 4.74763 16.984C5.08896 17.176 5.32363 17.4 5.45163 17.656C5.36629 17.72 5.24896 17.8373 5.09963 18.008C4.95029 18.1573 4.85429 18.2853 4.81163 18.392C4.49163 18.9253 4.33163 19.4587 4.33163 19.992C4.33163 20.7173 4.60896 21.3147 5.16363 21.784C5.73963 22.232 6.48629 22.456 7.40363 22.456C8.23563 22.456 9.01429 22.2533 9.73963 21.848C10.4863 21.4213 11.0836 20.856 11.5316 20.152C12.001 19.448 12.2356 18.6373 12.2356 17.72C12.2356 17.0373 12.0756 16.312 11.7556 15.544C11.4783 14.8827 11.0943 14.296 10.6036 13.784C10.1343 13.272 9.68629 12.792 9.25963 12.344C8.68363 11.7253 8.12896 11.128 7.59563 10.552C7.08363 9.95467 6.65696 9.31467 6.31563 8.632C5.99563 7.928 5.83563 7.13867 5.83563 6.264C5.83563 5.432 6.00629 4.62133 6.34763 3.832C6.71029 3.04267 7.22229 2.37067 7.88363 1.816C8.63029 1.176 9.48363 0.727999 10.4436 0.471998C11.4036 0.215999 12.4063 0.0879993 13.4516 0.0879993C14.753 0.0879993 15.777 0.258666 16.5236 0.599998C17.2916 0.919998 17.8356 1.336 18.1556 1.848C18.497 2.36 18.6676 2.904 18.6676 3.48C18.6676 4.03467 18.5396 4.568 18.2836 5.08C18.049 5.592 17.7183 6.02933 17.2916 6.392C16.865 6.73333 16.3956 6.94667 15.8836 7.032C15.7983 7.05333 15.713 7.064 15.6276 7.064C15.5423 7.064 15.4463 7.064 15.3396 7.064C14.8703 7.064 14.4543 6.95733 14.0916 6.744C13.7503 6.53067 13.5796 6.168 13.5796 5.656C13.5796 5.592 13.5796 5.51733 13.5796 5.432C13.601 5.34667 13.6223 5.26133 13.6436 5.176C14.0276 5.176 14.4223 5.03733 14.8276 4.76C15.233 4.48267 15.4996 4.17333 15.6276 3.832C15.7343 3.55467 15.7876 3.29867 15.7876 3.064C15.7876 2.488 15.521 2.04 14.9876 1.72C14.4756 1.37867 13.8676 1.208 13.1636 1.208C12.3316 1.208 11.585 1.38933 10.9236 1.752C10.2836 2.09333 9.78229 2.552 9.41963 3.128C9.05696 3.68267 8.87563 4.29067 8.87563 4.952C8.87563 5.61333 9.07829 6.25333 9.48363 6.872C9.82496 7.36267 10.2516 7.87467 10.7636 8.408C11.2756 8.92 11.7983 9.42133 12.3316 9.912C12.865 10.3813 13.3236 10.8187 13.7076 11.224C14.5823 12.0773 15.2116 12.952 15.5956 13.848C15.9796 14.7227 16.1716 15.5867 16.1716 16.44C16.1716 17.4213 15.937 18.3493 15.4676 19.224C15.0196 20.0773 14.3903 20.8347 13.5796 21.496C12.769 22.1573 11.8303 22.68 10.7636 23.064C9.69696 23.448 8.56629 23.64 7.37163 23.64ZM28.3136 23.192C27.6523 23.192 27.1936 22.936 26.9376 22.424C26.703 21.912 26.5856 21.2827 26.5856 20.536C26.5856 19.8533 26.6496 19.1813 26.7776 18.52C26.8416 18.2213 26.9056 17.9227 26.9696 17.624C27.055 17.304 27.151 16.9733 27.2576 16.632C26.895 17.2933 26.511 17.9333 26.1056 18.552C25.7216 19.1707 25.327 19.7147 24.9216 20.184C24.239 21.016 23.5136 21.7093 22.7456 22.264C21.999 22.8187 21.2523 23.096 20.5056 23.096C19.9083 23.096 19.3963 22.8827 18.9696 22.456C18.5643 22.008 18.3616 21.24 18.3616 20.152C18.3616 19.0427 18.5536 17.9013 18.9376 16.728C19.3216 15.5547 19.855 14.4667 20.5376 13.464C21.2416 12.44 22.063 11.6187 23.0016 11C23.9616 10.3813 25.007 10.072 26.1376 10.072C26.5003 10.072 26.895 10.1253 27.3216 10.232C27.7483 10.3387 28.143 10.5413 28.5056 10.84C28.8683 11.1173 29.1136 11.512 29.2416 12.024C29.263 11.9813 29.2843 11.9493 29.3056 11.928C29.3483 11.9067 29.3803 11.8853 29.4016 11.864C29.7003 11.3947 30.0416 11 30.4256 10.68C30.8096 10.36 31.2363 10.2 31.7056 10.2C31.9403 10.2 32.271 10.2107 32.6976 10.232C33.1243 10.2533 33.4336 10.2533 33.6256 10.232C33.519 10.3173 33.3696 10.488 33.1776 10.744C33.007 11 32.847 11.2667 32.6976 11.544C32.5483 11.8 32.431 12.0027 32.3456 12.152C31.7696 13.2613 31.247 14.36 30.7776 15.448C30.3083 16.536 29.9456 17.5813 29.6896 18.584C29.6256 18.7973 29.583 19 29.5616 19.192C29.5403 19.3627 29.5296 19.5333 29.5296 19.704C29.5296 20.2587 29.711 20.536 30.0736 20.536C30.415 20.536 30.8416 20.3227 31.3536 19.896C32.1003 19.2987 32.751 18.552 33.3056 17.656C33.8816 16.76 34.383 15.896 34.8096 15.064C34.895 14.9147 34.9696 14.84 35.0336 14.84C35.1616 14.84 35.2256 15.0213 35.2256 15.384C35.2256 15.5547 35.1936 15.7467 35.1296 15.96C35.087 16.1733 35.0123 16.376 34.9056 16.568C34.607 17.08 34.2123 17.7093 33.7216 18.456C33.2523 19.2027 32.719 19.9387 32.1216 20.664C31.5243 21.368 30.895 21.9653 30.2336 22.456C29.5936 22.9467 28.9536 23.192 28.3136 23.192ZM21.9456 20.408C22.0096 20.4293 22.1056 20.44 22.2336 20.44C22.639 20.44 23.0763 20.2693 23.5456 19.928C24.015 19.5867 24.4843 19.1493 24.9536 18.616C25.423 18.0613 25.839 17.5067 26.2016 16.952C27.1403 15.4587 27.8336 14.3387 28.2816 13.592C28.7296 12.8453 28.9856 12.4187 29.0496 12.312C28.943 11.9493 28.751 11.6827 28.4736 11.512C28.2176 11.3413 27.9083 11.256 27.5456 11.256C27.0763 11.256 26.575 11.384 26.0416 11.64C25.5296 11.896 25.0923 12.2053 24.7296 12.568C24.175 13.1227 23.6416 13.8373 23.1296 14.712C22.639 15.5867 22.2336 16.4507 21.9136 17.304C21.615 18.1573 21.4656 18.872 21.4656 19.448C21.4656 19.9813 21.6256 20.3013 21.9456 20.408ZM33.2626 23C33.4973 22.5733 33.764 22.0293 34.0626 21.368C34.34 20.7067 34.6173 19.992 34.8946 19.224C35.1933 18.4347 35.46 17.6773 35.6946 16.952C36.228 15.3093 36.772 13.688 37.3266 12.088C37.9026 10.488 38.4786 9.10133 39.0546 7.928C39.2893 7.416 39.588 6.79733 39.9506 6.072C40.3133 5.32533 40.7186 4.55733 41.1666 3.768C41.636 2.97867 42.1373 2.24267 42.6706 1.56C43.2253 0.856 43.812 0.290666 44.4306 -0.136002C45.0706 -0.562668 45.732 -0.776001 46.4146 -0.776001C47.0973 -0.776001 47.556 -0.626668 47.7906 -0.328001C48.0466 -0.0293344 48.1746 0.343999 48.1746 0.792C48.1746 1.28267 48.068 1.80533 47.8546 2.36C47.6413 2.91467 47.4386 3.37333 47.2466 3.736C46.82 4.54667 46.2653 5.464 45.5826 6.488C44.9213 7.49067 44.228 8.42933 43.5026 9.304C43.14 9.752 42.7026 10.264 42.1906 10.84C41.6786 11.3947 41.1666 11.928 40.6546 12.44C40.164 12.952 39.7373 13.3893 39.3746 13.752L38.7986 15.352C39.3533 14.6267 39.94 13.976 40.5586 13.4C41.1773 12.824 41.8493 12.248 42.5746 11.672C43.108 11.2453 43.6626 10.9253 44.2386 10.712C44.836 10.4987 45.38 10.392 45.8706 10.392C46.2333 10.392 46.564 10.4453 46.8626 10.552C47.1826 10.6587 47.4173 10.8293 47.5666 11.064C47.6733 11.2133 47.748 11.3733 47.7906 11.544C47.8333 11.7147 47.8546 11.8853 47.8546 12.056C47.8546 12.3973 47.7906 12.728 47.6626 13.048C47.3853 13.7093 46.98 14.2747 46.4466 14.744C45.9346 15.192 45.348 15.5333 44.6866 15.768C44.452 15.8533 44.1426 15.9493 43.7586 16.056C43.3746 16.1627 43.0333 16.2373 42.7346 16.28C42.7773 16.5787 42.8093 16.8773 42.8306 17.176C42.8733 17.4747 42.916 17.7733 42.9586 18.072C43.0866 18.7973 43.2466 19.416 43.4386 19.928C43.652 20.44 43.9826 20.696 44.4306 20.696C44.836 20.696 45.38 20.4293 46.0626 19.896C46.5533 19.512 46.98 19.0747 47.3426 18.584C47.7693 18.0293 48.1746 17.4427 48.5586 16.824C48.9426 16.184 49.2733 15.5973 49.5506 15.064C49.636 14.9147 49.7106 14.84 49.7746 14.84C49.9026 14.84 49.9666 15.0107 49.9666 15.352C49.9666 15.544 49.9346 15.7573 49.8706 15.992C49.828 16.2053 49.7426 16.4187 49.6146 16.632C49.316 17.144 48.964 17.6987 48.5586 18.296C48.1746 18.8933 47.7693 19.48 47.3426 20.056C47.108 20.376 46.8093 20.728 46.4466 21.112C46.084 21.496 45.7 21.848 45.2946 22.168C44.932 22.4453 44.4946 22.7013 43.9826 22.936C43.4706 23.1493 42.9693 23.256 42.4786 23.256C42.0946 23.256 41.732 23.1707 41.3906 23C41.0706 22.8293 40.804 22.5413 40.5906 22.136C40.356 21.688 40.1746 21.1547 40.0466 20.536C39.9186 19.9173 39.8546 19.2987 39.8546 18.68C39.8546 18.3387 39.8653 18.008 39.8866 17.688C39.9293 17.3467 39.9933 17.0373 40.0786 16.76C40.1853 16.3973 40.292 16.152 40.3986 16.024C40.5053 15.896 40.644 15.832 40.8146 15.832C41.4333 15.8107 42.0413 15.7253 42.6386 15.576C43.236 15.4053 43.7373 15.1387 44.1426 14.776C44.6333 14.3493 44.8786 13.8693 44.8786 13.336C44.8786 13.1013 44.7933 12.8987 44.6226 12.728C44.4733 12.536 44.2173 12.44 43.8546 12.44C43.364 12.44 42.884 12.6 42.4146 12.92C41.9453 13.24 41.4973 13.656 41.0706 14.168C40.644 14.68 40.2493 15.2133 39.8866 15.768C39.524 16.3013 39.2146 16.792 38.9586 17.24C38.7666 17.56 38.5533 17.976 38.3186 18.488C38.084 19 37.8386 19.5333 37.5826 20.088C37.3266 20.6427 37.0706 21.144 36.8146 21.592C36.5586 22.04 36.3133 22.3707 36.0786 22.584C35.8013 22.8613 35.5133 23 35.2146 23H33.2626ZM40.2066 11.576C41.2733 10.3387 42.3186 9.03733 43.3426 7.672C44.3666 6.30667 45.2413 4.90933 45.9666 3.48C46.0306 3.37333 46.1373 3.14933 46.2866 2.808C46.436 2.46667 46.5746 2.09333 46.7026 1.688C46.852 1.28267 46.9266 0.930665 46.9266 0.631998C46.9266 0.247999 46.7773 0.0559998 46.4786 0.0559998C46.18 0.0559998 45.8173 0.312 45.3906 0.823999C44.9853 1.336 44.548 2.01867 44.0786 2.872C43.6306 3.704 43.172 4.632 42.7026 5.656C42.2333 6.65867 41.7853 7.68267 41.3586 8.728C40.932 9.752 40.548 10.7013 40.2066 11.576ZM57.0429 7.64C56.4882 7.448 56.2109 7.08533 56.2109 6.552C56.2109 6.06133 56.4029 5.56 56.7869 5.048C57.1922 4.51467 57.6295 4.17333 58.0989 4.024C58.2055 3.98133 58.2909 3.96 58.3549 3.96C58.4402 3.96 58.5255 3.96 58.6109 3.96C58.9735 3.96 59.2722 4.06667 59.5069 4.28C59.7415 4.49333 59.8589 4.73867 59.8589 5.016C59.8589 5.4 59.6562 5.72 59.2509 5.976C58.9309 5.93333 58.6215 6.008 58.3229 6.2C58.0242 6.392 57.7575 6.62667 57.5229 6.904C57.3095 7.18133 57.1495 7.42667 57.0429 7.64ZM51.5389 23.192C51.2615 23.192 50.9949 23.128 50.7389 23C50.4829 22.8933 50.2695 22.6693 50.0989 22.328C49.8642 21.816 49.7469 21.208 49.7469 20.504C49.7469 19.736 49.8642 18.8827 50.0989 17.944C50.3335 16.984 50.6429 16.0027 51.0269 15C51.1762 14.6373 51.3682 14.1893 51.6029 13.656C51.8375 13.1227 52.1149 12.5893 52.4349 12.056C52.7549 11.5227 53.1175 11.0853 53.5229 10.744C53.9495 10.3813 54.4082 10.2 54.8989 10.2C55.1335 10.2 55.4642 10.2107 55.8909 10.232C56.3175 10.2533 56.6269 10.2533 56.8189 10.232C56.6909 10.3173 56.5415 10.488 56.3709 10.744C56.2002 11 56.0402 11.2667 55.8909 11.544C55.7415 11.8 55.6242 12.0027 55.5389 12.152C54.9842 13.2613 54.4615 14.36 53.9709 15.448C53.4802 16.536 53.1069 17.5813 52.8509 18.584C52.8082 18.7547 52.7762 18.9253 52.7549 19.096C52.7335 19.2667 52.7229 19.4267 52.7229 19.576C52.7229 20.1947 52.9255 20.504 53.3309 20.504C53.5015 20.504 53.6829 20.4613 53.8749 20.376C54.0882 20.2693 54.3335 20.1093 54.6109 19.896C55.1015 19.512 55.5282 19.0747 55.8909 18.584C56.3175 18.0293 56.7229 17.4427 57.1069 16.824C57.4909 16.184 57.8215 15.5973 58.0989 15.064C58.2055 14.8933 58.2802 14.808 58.3229 14.808C58.4509 14.808 58.5149 14.9893 58.5149 15.352C58.5149 15.5227 58.4829 15.7253 58.4189 15.96C58.3762 16.1733 58.3015 16.376 58.1949 16.568C57.8962 17.08 57.5442 17.6453 57.1389 18.264C56.7335 18.8827 56.3175 19.48 55.8909 20.056C55.5922 20.4613 55.1975 20.9093 54.7069 21.4C54.2162 21.8907 53.6935 22.3173 53.1389 22.68C52.5842 23.0213 52.0509 23.192 51.5389 23.192Z" fill="#EF6E84"/>
</svg>
