<svg width="93" height="24" viewBox="0 0 93 24" fill="none" xmlns="http://www.w3.org/2000/svg">
<path d="M6.53725 23.64C5.47058 23.64 4.47858 23.544 3.56125 23.352C2.64392 23.16 1.87592 22.84 1.25725 22.392C0.830583 22.072 0.499917 21.6667 0.26525 21.176C0.0519167 20.6853 -0.05475 20.184 -0.05475 19.672C-0.05475 19.032 0.126583 18.4347 0.48925 17.88C0.851917 17.3253 1.42792 16.952 2.21725 16.76C2.32392 16.7387 2.41992 16.728 2.50525 16.728C2.61192 16.7067 2.70792 16.696 2.79325 16.696C3.21992 16.696 3.59325 16.792 3.91325 16.984C4.25458 17.176 4.48925 17.4 4.61725 17.656C4.53192 17.72 4.41458 17.8373 4.26525 18.008C4.11592 18.1573 4.01992 18.2853 3.97725 18.392C3.65725 18.9253 3.49725 19.4587 3.49725 19.992C3.49725 20.7173 3.77458 21.3147 4.32925 21.784C4.90525 22.232 5.65192 22.456 6.56925 22.456C7.40125 22.456 8.17992 22.2533 8.90525 21.848C9.65192 21.4213 10.2493 20.856 10.6973 20.152C11.1666 19.448 11.4013 18.6373 11.4013 17.72C11.4013 17.0373 11.2413 16.312 10.9213 15.544C10.6439 14.8827 10.2599 14.296 9.76925 13.784C9.29992 13.272 8.85192 12.792 8.42525 12.344C7.84925 11.7253 7.29458 11.128 6.76125 10.552C6.24925 9.95467 5.82258 9.31467 5.48125 8.632C5.16125 7.928 5.00125 7.13867 5.00125 6.264C5.00125 5.432 5.17192 4.62133 5.51325 3.832C5.87592 3.04267 6.38792 2.37067 7.04925 1.816C7.79592 1.176 8.64925 0.727999 9.60925 0.471998C10.5693 0.215999 11.5719 0.0879993 12.6173 0.0879993C13.9186 0.0879993 14.9426 0.258666 15.6893 0.599998C16.4573 0.919998 17.0013 1.336 17.3213 1.848C17.6626 2.36 17.8333 2.904 17.8333 3.48C17.8333 4.03467 17.7053 4.568 17.4493 5.08C17.2146 5.592 16.8839 6.02933 16.4573 6.392C16.0306 6.73333 15.5613 6.94667 15.0493 7.032C14.9639 7.05333 14.8786 7.064 14.7933 7.064C14.7079 7.064 14.6119 7.064 14.5053 7.064C14.0359 7.064 13.6199 6.95733 13.2573 6.744C12.9159 6.53067 12.7453 6.168 12.7453 5.656C12.7453 5.592 12.7453 5.51733 12.7453 5.432C12.7666 5.34667 12.7879 5.26133 12.8093 5.176C13.1933 5.176 13.5879 5.03733 13.9933 4.76C14.3986 4.48267 14.6653 4.17333 14.7933 3.832C14.8999 3.55467 14.9533 3.29867 14.9533 3.064C14.9533 2.488 14.6866 2.04 14.1533 1.72C13.6413 1.37867 13.0333 1.208 12.3293 1.208C11.4973 1.208 10.7506 1.38933 10.0893 1.752C9.44925 2.09333 8.94792 2.552 8.58525 3.128C8.22258 3.68267 8.04125 4.29067 8.04125 4.952C8.04125 5.61333 8.24392 6.25333 8.64925 6.872C8.99058 7.36267 9.41725 7.87467 9.92925 8.408C10.4413 8.92 10.9639 9.42133 11.4973 9.912C12.0306 10.3813 12.4893 10.8187 12.8733 11.224C13.7479 12.0773 14.3773 12.952 14.7613 13.848C15.1453 14.7227 15.3373 15.5867 15.3373 16.44C15.3373 17.4213 15.1026 18.3493 14.6333 19.224C14.1853 20.0773 13.5559 20.8347 12.7453 21.496C11.9346 22.1573 10.9959 22.68 9.92925 23.064C8.86258 23.448 7.73192 23.64 6.53725 23.64ZM27.4793 23.192C26.8179 23.192 26.3593 22.936 26.1033 22.424C25.8686 21.912 25.7513 21.2827 25.7513 20.536C25.7513 19.8533 25.8153 19.1813 25.9433 18.52C26.0073 18.2213 26.0713 17.9227 26.1353 17.624C26.2206 17.304 26.3166 16.9733 26.4233 16.632C26.0606 17.2933 25.6766 17.9333 25.2713 18.552C24.8873 19.1707 24.4926 19.7147 24.0873 20.184C23.4046 21.016 22.6793 21.7093 21.9113 22.264C21.1646 22.8187 20.4179 23.096 19.6713 23.096C19.0739 23.096 18.5619 22.8827 18.1353 22.456C17.7299 22.008 17.5273 21.24 17.5273 20.152C17.5273 19.0427 17.7193 17.9013 18.1033 16.728C18.4873 15.5547 19.0206 14.4667 19.7033 13.464C20.4073 12.44 21.2286 11.6187 22.1673 11C23.1273 10.3813 24.1726 10.072 25.3033 10.072C25.6659 10.072 26.0606 10.1253 26.4873 10.232C26.9139 10.3387 27.3086 10.5413 27.6713 10.84C28.0339 11.1173 28.2793 11.512 28.4073 12.024C28.4286 11.9813 28.4499 11.9493 28.4713 11.928C28.5139 11.9067 28.5459 11.8853 28.5673 11.864C28.8659 11.3947 29.2073 11 29.5913 10.68C29.9753 10.36 30.4019 10.2 30.8713 10.2C31.1059 10.2 31.4366 10.2107 31.8633 10.232C32.2899 10.2533 32.5993 10.2533 32.7913 10.232C32.6846 10.3173 32.5353 10.488 32.3433 10.744C32.1726 11 32.0126 11.2667 31.8633 11.544C31.7139 11.8 31.5966 12.0027 31.5113 12.152C30.9353 13.2613 30.4126 14.36 29.9433 15.448C29.4739 16.536 29.1113 17.5813 28.8553 18.584C28.7913 18.7973 28.7486 19 28.7273 19.192C28.7059 19.3627 28.6953 19.5333 28.6953 19.704C28.6953 20.2587 28.8766 20.536 29.2393 20.536C29.5806 20.536 30.0073 20.3227 30.5193 19.896C31.2659 19.2987 31.9166 18.552 32.4713 17.656C33.0473 16.76 33.5486 15.896 33.9753 15.064C34.0606 14.9147 34.1353 14.84 34.1993 14.84C34.3273 14.84 34.3913 15.0213 34.3913 15.384C34.3913 15.5547 34.3593 15.7467 34.2953 15.96C34.2526 16.1733 34.1779 16.376 34.0713 16.568C33.7726 17.08 33.3779 17.7093 32.8873 18.456C32.4179 19.2027 31.8846 19.9387 31.2873 20.664C30.6899 21.368 30.0606 21.9653 29.3993 22.456C28.7593 22.9467 28.1193 23.192 27.4793 23.192ZM21.1113 20.408C21.1753 20.4293 21.2713 20.44 21.3993 20.44C21.8046 20.44 22.2419 20.2693 22.7113 19.928C23.1806 19.5867 23.6499 19.1493 24.1193 18.616C24.5886 18.0613 25.0046 17.5067 25.3673 16.952C26.3059 15.4587 26.9993 14.3387 27.4473 13.592C27.8953 12.8453 28.1513 12.4187 28.2153 12.312C28.1086 11.9493 27.9166 11.6827 27.6393 11.512C27.3833 11.3413 27.0739 11.256 26.7113 11.256C26.2419 11.256 25.7406 11.384 25.2073 11.64C24.6953 11.896 24.2579 12.2053 23.8953 12.568C23.3406 13.1227 22.8073 13.8373 22.2953 14.712C21.8046 15.5867 21.3993 16.4507 21.0793 17.304C20.7806 18.1573 20.6313 18.872 20.6313 19.448C20.6313 19.9813 20.7913 20.3013 21.1113 20.408ZM37.0363 23.192C36.4176 23.192 35.9483 22.9467 35.6283 22.456C35.4789 22.2213 35.3723 21.944 35.3083 21.624C35.2443 21.304 35.2123 20.9733 35.2123 20.632C35.2123 20.2907 35.2336 19.9493 35.2763 19.608C35.3189 19.2453 35.3723 18.8933 35.4363 18.552C35.5429 17.9973 35.6603 17.496 35.7883 17.048C35.9376 16.5787 36.0869 16.1307 36.2363 15.704V15.672C36.0656 15.992 35.8523 16.344 35.5963 16.728C35.3403 17.0907 35.1589 17.3573 35.0523 17.528C34.9029 17.7627 34.7856 17.88 34.7003 17.88C34.6149 17.88 34.5723 17.784 34.5723 17.592C34.5723 17.1653 34.7003 16.696 34.9563 16.184C35.1269 15.8427 35.3616 15.4053 35.6603 14.872C35.9589 14.3173 36.2683 13.72 36.5883 13.08C36.9083 12.44 37.1856 11.8213 37.4203 11.224H35.2763C35.1696 11.224 35.1483 11.1387 35.2123 10.968C35.2763 10.7973 35.3723 10.6373 35.5003 10.488C35.6283 10.3173 35.7243 10.232 35.7883 10.232H38.2203C38.4549 9.67733 38.7216 9.08 39.0203 8.44C39.3403 7.8 39.6923 7.20267 40.0763 6.648C40.4816 6.072 40.9189 5.60267 41.3883 5.24C41.8576 4.87733 42.3589 4.696 42.8923 4.696C43.1269 4.696 43.4149 4.696 43.7563 4.696C44.1189 4.696 44.3429 4.68533 44.4283 4.664C43.9803 4.96267 43.4576 5.56 42.8603 6.456C42.2629 7.33067 41.6123 8.58933 40.9083 10.232H44.1403C44.2043 10.232 44.1829 10.3173 44.0763 10.488C43.9696 10.6373 43.8309 10.7973 43.6603 10.968C43.5109 11.1387 43.3616 11.224 43.2123 11.224H40.4603C40.1829 11.928 39.8736 12.696 39.5323 13.528C39.2123 14.36 38.9136 15.1813 38.6363 15.992C38.3803 16.7813 38.1883 17.5067 38.0603 18.168C37.9749 18.5733 37.9323 18.9467 37.9323 19.288C37.9323 20.0987 38.1883 20.504 38.7003 20.504C39.0416 20.504 39.4469 20.3333 39.9163 19.992C40.3856 19.6507 40.8549 19.1813 41.3243 18.584C41.7509 18.0293 42.1563 17.432 42.5403 16.792C42.9456 16.152 43.2869 15.5653 43.5643 15.032C43.6496 14.8827 43.7243 14.808 43.7883 14.808C43.9163 14.808 43.9803 14.9787 43.9803 15.32C43.9803 15.4907 43.9483 15.6933 43.8843 15.928C43.8416 16.1413 43.7563 16.3547 43.6283 16.568C43.3296 17.08 42.9776 17.6453 42.5723 18.264C42.1669 18.8613 41.7509 19.4587 41.3243 20.056C41.0256 20.44 40.6309 20.8773 40.1403 21.368C39.6709 21.8587 39.1589 22.2853 38.6043 22.648C38.0709 23.0107 37.5483 23.192 37.0363 23.192ZM47.661 23.256C46.6797 23.256 45.8263 22.9467 45.101 22.328C44.397 21.7093 44.045 20.7173 44.045 19.352C44.045 18.3493 44.2263 17.304 44.589 16.216C44.9517 15.128 45.4637 14.1147 46.125 13.176C46.8077 12.2373 47.629 11.4693 48.589 10.872C49.549 10.2747 50.6263 9.976 51.821 9.976C52.8023 9.976 53.5597 10.168 54.093 10.552C54.6477 10.9147 55.0423 11.4053 55.277 12.024C55.5117 12.6427 55.629 13.304 55.629 14.008C55.629 14.5413 55.565 15.0853 55.437 15.64C55.3303 16.1733 55.1703 16.7067 54.957 17.24C55.3197 17.6667 55.7783 17.88 56.333 17.88C56.9303 17.88 57.485 17.656 57.997 17.208C58.2957 16.952 58.5623 16.632 58.797 16.248C59.053 15.8427 59.277 15.4693 59.469 15.128C59.533 15 59.6077 14.936 59.693 14.936C59.7997 14.936 59.853 15.0853 59.853 15.384C59.853 15.576 59.821 15.8 59.757 16.056C59.7143 16.312 59.6077 16.568 59.437 16.824C59.117 17.3787 58.7863 17.8053 58.445 18.104C58.1037 18.3813 57.7197 18.6053 57.293 18.776C56.973 18.904 56.6317 18.968 56.269 18.968C55.6077 18.968 55.0103 18.7653 54.477 18.36C54.3063 18.7227 54.093 19.096 53.837 19.48C53.2183 20.5253 52.4183 21.4213 51.437 22.168C50.4557 22.8933 49.197 23.256 47.661 23.256ZM48.877 22.04C49.3677 22.04 49.837 21.88 50.285 21.56C50.7543 21.2187 51.181 20.8027 51.565 20.312C51.949 19.8213 52.2797 19.3093 52.557 18.776C52.8557 18.2427 53.101 17.7733 53.293 17.368C52.5677 16.7493 52.205 15.9707 52.205 15.032C52.205 14.4133 52.3757 13.9333 52.717 13.592C53.0583 13.2507 53.5277 13.1013 54.125 13.144C54.1037 12.6533 53.9757 12.248 53.741 11.928C53.5063 11.608 53.1223 11.448 52.589 11.448C52.0983 11.448 51.629 11.5973 51.181 11.896C50.7543 12.1947 50.349 12.5787 49.965 13.048C49.6023 13.496 49.2717 13.9653 48.973 14.456C48.6957 14.9253 48.461 15.352 48.269 15.736C47.9917 16.2907 47.7357 16.9627 47.501 17.752C47.2663 18.5413 47.149 19.2773 47.149 19.96C47.149 20.5573 47.2663 21.0587 47.501 21.464C47.757 21.848 48.2157 22.04 48.877 22.04ZM75.828 23.192C75.1027 23.192 74.6013 22.9787 74.324 22.552C74.068 22.104 73.94 21.592 73.94 21.016C73.94 20.3973 74.036 19.6827 74.228 18.872C74.4413 18.04 74.6973 17.1867 74.996 16.312C75.316 15.416 75.636 14.584 75.956 13.816C76.0627 13.56 76.1587 13.2827 76.244 12.984C76.3507 12.6853 76.404 12.4187 76.404 12.184C76.404 11.7573 76.212 11.544 75.828 11.544C75.6787 11.544 75.508 11.576 75.316 11.64C75.124 11.6827 74.9 11.7787 74.644 11.928C74.196 12.1413 73.7693 12.44 73.364 12.824C72.9587 13.1867 72.6707 13.464 72.5 13.656C71.6893 14.7013 71.0707 15.832 70.644 17.048C70.2387 18.264 69.812 19.5013 69.364 20.76C69.236 21.1227 69.108 21.496 68.98 21.88C68.852 22.264 68.7347 22.6373 68.628 23H65.492C65.8547 21.976 66.2173 20.9627 66.58 19.96C66.964 18.936 67.348 17.9227 67.732 16.92C67.9667 16.344 68.18 15.7893 68.372 15.256C68.564 14.7013 68.7347 14.1893 68.884 13.72C68.9693 13.4853 69.044 13.24 69.108 12.984C69.172 12.728 69.204 12.4933 69.204 12.28C69.204 11.7893 68.9907 11.544 68.564 11.544C68.4147 11.544 68.2333 11.576 68.02 11.64C67.828 11.6827 67.5933 11.7787 67.316 11.928C66.868 12.1413 66.4413 12.44 66.036 12.824C65.6307 13.1867 65.3533 13.464 65.204 13.656C64.9267 13.9973 64.66 14.3813 64.404 14.808C64.148 15.2133 63.924 15.6293 63.732 16.056C63.3053 16.9733 62.964 17.848 62.708 18.68C62.4733 19.4907 62.2493 20.184 62.036 20.76C61.908 21.1227 61.78 21.496 61.652 21.88C61.524 22.264 61.4067 22.6373 61.3 23H58.196C58.196 23 58.2707 22.7333 58.42 22.2C58.5693 21.6667 58.7507 21.1333 58.964 20.6L61.044 15.288C61.108 15.1173 61.204 14.84 61.332 14.456C61.4813 14.0507 61.6307 13.6133 61.78 13.144C61.9293 12.6533 62.0573 12.184 62.164 11.736C62.2707 11.2667 62.324 10.8827 62.324 10.584C62.324 10.392 62.3027 10.264 62.26 10.2C62.452 10.2 62.6653 10.2 62.9 10.2C63.156 10.1787 63.3907 10.168 63.604 10.168C63.9027 10.168 64.18 10.1787 64.436 10.2C64.7133 10.2213 64.8947 10.2747 64.98 10.36C65.2147 10.5307 65.332 10.7867 65.332 11.128C65.332 11.4053 65.2787 11.6827 65.172 11.96C65.0653 12.216 64.9907 12.4293 64.948 12.6C65.2467 12.3227 65.5773 12.056 65.94 11.8C66.3027 11.544 66.8253 11.2133 67.508 10.808C67.9347 10.5733 68.436 10.3813 69.012 10.232C69.588 10.0827 70.1107 10.008 70.58 10.008C71.7107 10.008 72.276 10.4773 72.276 11.416C72.276 11.8 72.1587 12.312 71.924 12.952C72.372 12.504 72.8307 12.12 73.3 11.8C73.7907 11.4587 74.3027 11.128 74.836 10.808C75.2627 10.5733 75.764 10.3813 76.34 10.232C76.916 10.0827 77.4387 10.008 77.908 10.008C79.0387 10.008 79.604 10.488 79.604 11.448C79.604 11.6613 79.5613 11.9067 79.476 12.184C79.412 12.4613 79.316 12.7707 79.188 13.112C79.06 13.4533 78.8787 13.9227 78.644 14.52C78.4093 15.096 78.164 15.7147 77.908 16.376C77.6733 17.016 77.4707 17.6347 77.3 18.232C77.1507 18.808 77.076 19.288 77.076 19.672C77.076 19.9067 77.108 20.12 77.172 20.312C77.2573 20.4827 77.4067 20.568 77.62 20.568C77.7693 20.568 77.9827 20.4933 78.26 20.344C78.644 20.1093 79.028 19.8 79.412 19.416C79.796 19.032 80.052 18.7547 80.18 18.584C80.6067 18.0293 81.012 17.4427 81.396 16.824C81.78 16.184 82.1107 15.5973 82.388 15.064C82.4947 14.8933 82.5693 14.808 82.612 14.808C82.74 14.808 82.804 14.9893 82.804 15.352C82.804 15.5227 82.772 15.7253 82.708 15.96C82.6653 16.1733 82.5907 16.376 82.484 16.568C82.1853 17.08 81.8333 17.6453 81.428 18.264C81.0227 18.8827 80.6067 19.48 80.18 20.056C79.8813 20.4613 79.4867 20.9093 78.996 21.4C78.5053 21.8907 77.9827 22.3173 77.428 22.68C76.8733 23.0213 76.34 23.192 75.828 23.192ZM89.8773 7.64C89.3226 7.448 89.0453 7.08533 89.0453 6.552C89.0453 6.06133 89.2373 5.56 89.6213 5.048C90.0266 4.51467 90.4639 4.17333 90.9333 4.024C91.0399 3.98133 91.1253 3.96 91.1892 3.96C91.2746 3.96 91.3599 3.96 91.4453 3.96C91.8079 3.96 92.1066 4.06667 92.3413 4.28C92.5759 4.49333 92.6933 4.73867 92.6933 5.016C92.6933 5.4 92.4906 5.72 92.0853 5.976C91.7653 5.93333 91.4559 6.008 91.1573 6.2C90.8586 6.392 90.5919 6.62667 90.3573 6.904C90.1439 7.18133 89.9839 7.42667 89.8773 7.64ZM84.3733 23.192C84.0959 23.192 83.8293 23.128 83.5733 23C83.3173 22.8933 83.1039 22.6693 82.9333 22.328C82.6986 21.816 82.5813 21.208 82.5813 20.504C82.5813 19.736 82.6986 18.8827 82.9333 17.944C83.1679 16.984 83.4773 16.0027 83.8613 15C84.0106 14.6373 84.2026 14.1893 84.4373 13.656C84.6719 13.1227 84.9493 12.5893 85.2693 12.056C85.5893 11.5227 85.9519 11.0853 86.3573 10.744C86.7839 10.3813 87.2426 10.2 87.7333 10.2C87.9679 10.2 88.2986 10.2107 88.7253 10.232C89.1519 10.2533 89.4613 10.2533 89.6533 10.232C89.5253 10.3173 89.3759 10.488 89.2053 10.744C89.0346 11 88.8746 11.2667 88.7253 11.544C88.5759 11.8 88.4586 12.0027 88.3733 12.152C87.8186 13.2613 87.2959 14.36 86.8053 15.448C86.3146 16.536 85.9413 17.5813 85.6853 18.584C85.6426 18.7547 85.6106 18.9253 85.5893 19.096C85.5679 19.2667 85.5573 19.4267 85.5573 19.576C85.5573 20.1947 85.7599 20.504 86.1653 20.504C86.3359 20.504 86.5173 20.4613 86.7093 20.376C86.9226 20.2693 87.1679 20.1093 87.4453 19.896C87.9359 19.512 88.3626 19.0747 88.7253 18.584C89.1519 18.0293 89.5573 17.4427 89.9413 16.824C90.3253 16.184 90.6559 15.5973 90.9333 15.064C91.0399 14.8933 91.1146 14.808 91.1573 14.808C91.2853 14.808 91.3493 14.9893 91.3493 15.352C91.3493 15.5227 91.3173 15.7253 91.2533 15.96C91.2106 16.1733 91.1359 16.376 91.0293 16.568C90.7306 17.08 90.3786 17.6453 89.9733 18.264C89.5679 18.8827 89.1519 19.48 88.7253 20.056C88.4266 20.4613 88.0319 20.9093 87.5413 21.4C87.0506 21.8907 86.5279 22.3173 85.9733 22.68C85.4186 23.0213 84.8853 23.192 84.3733 23.192Z" fill="#EF6E84"/>
</svg>
