<svg width="100" height="115" viewBox="0 0 100 115" fill="none" xmlns="http://www.w3.org/2000/svg">
<g opacity="0.7">
<mask id="mask0_748_5248" style="mask-type:alpha" maskUnits="userSpaceOnUse" x="0" y="0" width="100" height="115">
<rect width="100" height="115" fill="#D9D9D9"/>
</mask>
<g mask="url(#mask0_748_5248)">
<g filter="url(#filter0_n_748_5248)">
<path d="M50.0003 0.792969L99.4874 29.3447V86.4481L50.0003 115L0.513111 86.4481V29.3447L50.0003 0.792969Z" fill="url(#paint0_linear_748_5248)"/>
</g>
</g>
</g>
<mask id="mask1_748_5248" style="mask-type:alpha" maskUnits="userSpaceOnUse" x="7" y="42" width="85" height="30">
<rect x="7.95117" y="42.8223" width="83.8996" height="28.5616" fill="#D9D9D9"/>
</mask>
<g mask="url(#mask1_748_5248)">
<path d="M76.9681 70.4922H70.8995C70.8444 70.4922 70.8138 70.4289 70.8464 70.386L75.2351 64.5338C75.2923 64.4582 75.2371 64.35 75.1432 64.35H71.3139V63.605H76.613C76.7273 63.605 76.7926 63.7336 76.7252 63.8254L72.5794 69.4532C72.5447 69.5001 72.5794 69.5634 72.6366 69.5634H76.9681V70.4922Z" fill="#231815"/>
<path d="M39.0674 46.5337H47.3875V47.7666C47.3875 47.8544 47.3161 47.9258 47.2283 47.9258H40.5534V51.4735H46.4649C46.5343 51.4735 46.5894 51.5286 46.5894 51.598V52.7595C46.5894 52.8289 46.5343 52.884 46.4649 52.884H40.5534V56.7849H47.5284C47.7305 56.7849 47.8958 56.9502 47.8958 57.1523V58.2076H39.0694V46.5337H39.0674Z" fill="#231815"/>
<path d="M49.9141 58.0096V46.1602L58.4813 54.9457V46.699C58.4813 46.6072 58.5548 46.5337 58.6466 46.5337H59.6979C59.7897 46.5337 59.8632 46.6072 59.8632 46.699V58.4546L51.3981 49.8303V58.0096C51.3981 58.1301 51.3002 58.2301 51.1777 58.2301H50.1326C50.0121 58.2301 49.9121 58.1321 49.9121 58.0096H49.9141Z" fill="#231815"/>
<path d="M61.7979 47.7669V46.6748C61.7979 46.5871 61.8693 46.5156 61.9571 46.5156H71.0835C71.1713 46.5156 71.2427 46.5871 71.2427 46.6748V47.7669C71.2427 47.8547 71.1713 47.9261 71.0835 47.9261H67.2909V57.8752C67.2909 58.065 67.1378 58.2202 66.9459 58.2202H66.0233C65.9151 58.2202 65.8273 58.1324 65.8273 58.0242V47.9261H61.9571C61.8693 47.9261 61.7979 47.8547 61.7979 47.7669Z" fill="#231815"/>
<path d="M82.9382 46.5381H84.1364C84.2201 46.5381 84.2874 46.6054 84.2874 46.6891V56.6403C84.2874 56.728 84.3589 56.7974 84.4446 56.7974H91.0052C91.1542 56.7974 91.2726 56.9179 91.2726 57.0648V57.9262C91.2726 58.0753 91.1522 58.1936 91.0052 58.1936H82.9708C82.8688 58.1936 82.7871 58.112 82.7871 58.0099V46.6891C82.7871 46.6054 82.8545 46.5381 82.9382 46.5381Z" fill="#231815"/>
<path d="M28.7411 64.5108C28.045 63.8494 27.1673 63.5146 26.1365 63.5146C25.4996 63.5146 24.8974 63.6677 24.3504 63.9719C23.8013 64.276 23.3624 64.7027 23.046 65.2395C22.7276 65.7764 22.5684 66.3663 22.5684 66.995C22.5684 67.938 22.9215 68.7545 23.6196 69.418C24.3157 70.0814 25.1812 70.4182 26.1936 70.4182C27.2061 70.4182 28.0512 70.0793 28.7472 69.4139C29.4433 68.7464 29.7964 67.9217 29.7964 66.9644C29.7964 66.007 29.4433 65.1721 28.7452 64.5108H28.7411ZM28.9575 66.9623C28.9575 67.4604 28.835 67.9217 28.5941 68.3279C28.3533 68.7362 28.0124 69.0607 27.5817 69.2975C27.1489 69.5323 26.6733 69.6527 26.165 69.6527C25.4057 69.6527 24.7484 69.3935 24.2095 68.8811C23.6727 68.3708 23.3991 67.736 23.3991 66.9929C23.3991 66.4908 23.5216 66.0295 23.7645 65.6233C24.0074 65.215 24.3504 64.8864 24.7831 64.6455C25.2159 64.4046 25.6813 64.2822 26.163 64.2822C26.6447 64.2822 27.1285 64.4046 27.5674 64.6455C28.0063 64.8864 28.3512 65.2109 28.5921 65.6131C28.833 66.0131 28.9554 66.4683 28.9554 66.9644L28.9575 66.9623Z" fill="#231815"/>
<path d="M31.4461 63.6334H31.7319C31.8687 63.6334 31.9768 63.7436 31.9768 63.8783V66.4687C31.9768 66.5299 32.0503 66.5605 32.0932 66.5156L34.9489 63.5864H36.0818L32.8362 66.6973L36.6309 70.3185C36.6799 70.3654 36.6472 70.445 36.5799 70.445H35.8552C35.6123 70.445 35.3776 70.3491 35.2061 70.1756L32.2116 67.1852C32.1483 67.1219 32.0422 67.1668 32.0422 67.2566V70.445H31.4767C31.3236 70.445 31.2012 70.3205 31.2012 70.1695V63.8804C31.2012 63.7436 31.3114 63.6354 31.4461 63.6354V63.6334Z" fill="#231815"/>
<path d="M36.5792 63.5864H37.4794C37.5917 63.5864 37.6978 63.6395 37.7652 63.7293L39.588 66.14L41.4557 63.6946C41.5088 63.6273 41.5884 63.5864 41.6742 63.5864H42.1804C42.3069 63.5864 42.3804 63.7334 42.3008 63.8334L39.9228 66.8912V70.2368C39.9228 70.3511 39.8309 70.443 39.7166 70.443H39.3186C39.2042 70.443 39.1124 70.3511 39.1124 70.2368V66.8912L36.5771 63.5864H36.5792Z" fill="#231815"/>
<g style="mix-blend-mode:multiply">
<path d="M19.0086 51.022C17.9533 49.9156 16.406 49.3318 14.5363 49.3318C12.9686 49.3318 11.7704 49.9054 10.9334 50.5239V44.4083H19.6659V42.8223H9.34739V51.32L11.0539 52.555C11.5274 51.9977 12.6869 50.9158 14.5363 50.9158C15.9611 50.9158 17.1123 51.3302 17.8615 52.1161C18.5861 52.8734 18.9352 53.9757 18.8739 55.3025C18.7698 57.5622 16.4469 58.9584 14.3566 58.9584C11.5744 58.9584 10.0312 57.803 9.50048 55.3209L7.95117 55.6515C8.42678 57.8826 9.92506 60.5424 14.3566 60.5424C17.1756 60.5424 20.311 58.5665 20.4579 55.3739C20.5396 53.6042 20.0395 52.0998 19.0086 51.0199V51.022Z" fill="#231815"/>
</g>
<path d="M30.6964 58.2567H26.4424V46.4644H31.1352C33.2051 46.4644 37.0692 48.1933 37.0692 52.3615C37.0692 56.7727 32.6947 58.2587 30.6984 58.2587L30.6964 58.2567ZM27.8958 56.8033H30.6964C31.6721 56.8033 35.6117 56.0133 35.6117 52.3615C35.6117 49.2609 32.6458 47.9198 31.1332 47.9198H27.8958V56.8033Z" fill="#231815"/>
<path d="M81.4445 58.0522L75.633 46.1782L69.8951 57.8399C69.8318 57.9685 69.9257 58.1196 70.0706 58.1196H71.1055C71.2301 58.1196 71.3444 58.0481 71.3974 57.9358L72.8488 54.9413H78.2948L79.8993 58.2155H81.3404C81.4261 58.2155 81.4812 58.1257 81.4445 58.0502V58.0522ZM73.4795 53.639L75.5555 49.3544L77.6539 53.639H73.4795Z" fill="#231815"/>
<path d="M22.7011 49.6628C22.4439 49.5566 22.3643 49.1321 22.3643 47.4623V43.341C22.3643 43.2492 22.4051 42.9858 22.5316 42.9858C22.6582 42.9858 22.699 43.2471 22.699 43.341V49.6628H22.7011Z" fill="#231815"/>
<path d="M23.6729 46.1154V46.1358C23.6729 46.2563 23.5748 46.3522 23.4564 46.3522H21.7861C21.6105 46.3522 21.4675 46.2093 21.4675 46.0337H23.5912C23.6361 46.0337 23.6729 46.0704 23.6729 46.1154Z" fill="#231815"/>
<path d="M22.0175 63.5864H16.4775V64.3927H18.6882L18.6964 70.4348H19.2863C19.3945 70.4348 19.4802 70.3471 19.4802 70.2409L19.4721 64.3948H22.0155V63.5885L22.0175 63.5864Z" fill="#231815"/>
<path d="M48.6806 64.5108C47.9845 63.8494 47.1068 63.5146 46.0759 63.5146C45.4391 63.5146 44.8369 63.6677 44.2898 63.9719C43.7407 64.276 43.3019 64.7027 42.9855 65.2395C42.667 65.7764 42.5078 66.3663 42.5078 66.995C42.5078 67.938 42.8609 68.7545 43.5591 69.418C44.2551 70.0814 45.1206 70.4182 46.1331 70.4182C47.1455 70.4182 47.9906 70.0793 48.6867 69.4139C49.3828 68.7464 49.7359 67.9217 49.7359 66.9644C49.7359 66.007 49.3828 65.1721 48.6846 64.5108H48.6806ZM48.8969 66.9623C48.8969 67.4604 48.7745 67.9217 48.5336 68.3279C48.2927 68.7362 47.9518 69.0607 47.5211 69.2975C47.0884 69.5323 46.6128 69.6527 46.1045 69.6527C45.3452 69.6527 44.6879 69.3935 44.149 68.8811C43.6121 68.3708 43.3386 67.736 43.3386 66.9929C43.3386 66.4908 43.4611 66.0295 43.704 65.6233C43.9469 65.215 44.2898 64.8864 44.7226 64.6455C45.1553 64.4046 45.6207 64.2822 46.1025 64.2822C46.5842 64.2822 47.068 64.4046 47.5068 64.6455C47.9457 64.8864 48.2907 65.2109 48.5316 65.6131C48.7724 66.0131 48.8949 66.4683 48.8949 66.9644L48.8969 66.9623Z" fill="#231815"/>
<path d="M56.8862 70.4655C55.9738 70.4655 55.0246 70.0655 54.3408 69.3918C53.6774 68.7366 53.3242 67.8976 53.3242 66.9668C53.3242 64.8684 55.2389 63.46 57.0271 63.46C58.6233 63.46 59.3357 64.1662 59.3725 64.1969L59.0152 64.9031C58.9887 64.8807 58.2967 64.2989 57.0291 64.2989C55.8574 64.2989 54.1652 65.2481 54.1652 66.9668C54.1652 67.8527 54.5816 68.4488 54.9307 68.7938C55.4594 69.3163 56.2187 69.6388 56.9148 69.6266C58.0701 69.6123 58.5968 69.2979 58.8356 69.0979V67.4547L57.0189 67.4465V67.1546C57.0209 66.8525 57.2659 66.6055 57.57 66.6035L59.6766 66.5872V69.4531L59.5541 69.5756C58.9703 70.1594 58.111 70.4492 56.927 70.4655C56.9148 70.4655 56.9005 70.4655 56.8882 70.4655H56.8862Z" fill="#231815"/>
<path d="M62.0137 63.6152H61.6238C61.5144 63.6152 61.4258 63.7039 61.4258 63.8132V70.2677C61.4258 70.377 61.5144 70.4657 61.6238 70.4657H62.0137C62.123 70.4657 62.2117 70.377 62.2117 70.2677V63.8132C62.2117 63.7039 62.123 63.6152 62.0137 63.6152Z" fill="#231815"/>
<path d="M63.9609 70.3939V63.3066L69.0845 68.5608V63.6292C69.0845 63.574 69.1294 63.5312 69.1825 63.5312H69.8112C69.8663 63.5312 69.9092 63.5761 69.9092 63.6292V70.6592L64.8468 65.503V70.3939C64.8468 70.4674 64.7876 70.5245 64.7162 70.5245H64.0916C64.0181 70.5245 63.9609 70.4653 63.9609 70.3939Z" fill="#231815"/>
<path d="M83.9891 70.3326L80.7945 63.4312L77.453 70.2836C77.4163 70.3612 77.4714 70.449 77.5551 70.449H78.2756C78.3471 70.449 78.4124 70.4061 78.445 70.3408L79.4636 68.3138C79.5004 68.2403 79.5759 68.1934 79.6575 68.1934H81.905C81.9887 68.1934 82.0662 68.2424 82.1009 68.3179L83.0236 70.2673C83.0705 70.3673 83.1705 70.4306 83.2808 70.4306H83.9319C83.9809 70.4306 84.0136 70.3775 83.9911 70.3326H83.9891ZM79.78 67.4851L80.717 65.5255L81.7274 67.4851H79.78Z" fill="#231815"/>
<path d="M91.851 66.8418H83.9023V67.1214H91.851V66.8418Z" fill="#231815"/>
<path d="M16.018 66.8418H8.06934V67.1214H16.018V66.8418Z" fill="#231815"/>
</g>
<defs>
<filter id="filter0_n_748_5248" x="0.512695" y="0.792969" width="98.9746" height="114.207" filterUnits="userSpaceOnUse" color-interpolation-filters="sRGB">
<feFlood flood-opacity="0" result="BackgroundImageFix"/>
<feBlend mode="normal" in="SourceGraphic" in2="BackgroundImageFix" result="shape"/>
<feTurbulence type="fractalNoise" baseFrequency="2 2" stitchTiles="stitch" numOctaves="3" result="noise" seed="4876" />
<feColorMatrix in="noise" type="luminanceToAlpha" result="alphaNoise" />
<feComponentTransfer in="alphaNoise" result="coloredNoise1">
<feFuncA type="discrete" tableValues="1 1 1 1 1 1 1 1 1 1 1 1 1 1 1 1 1 1 1 1 1 1 1 1 1 1 1 1 1 1 1 1 1 1 1 1 1 1 1 1 1 1 1 1 1 1 1 1 1 1 1 0 0 0 0 0 0 0 0 0 0 0 0 0 0 0 0 0 0 0 0 0 0 0 0 0 0 0 0 0 0 0 0 0 0 0 0 0 0 0 0 0 0 0 0 0 0 0 0 0 "/>
</feComponentTransfer>
<feComposite operator="in" in2="shape" in="coloredNoise1" result="noise1Clipped" />
<feFlood flood-color="rgba(0, 0, 0, 0.25)" result="color1Flood" />
<feComposite operator="in" in2="noise1Clipped" in="color1Flood" result="color1" />
<feMerge result="effect1_noise_748_5248">
<feMergeNode in="shape" />
<feMergeNode in="color1" />
</feMerge>
</filter>
<linearGradient id="paint0_linear_748_5248" x1="24.4364" y1="17.8238" x2="74.5113" y2="100.003" gradientUnits="userSpaceOnUse">
<stop stop-color="#F1F1F1"/>
<stop offset="1" stop-color="#A4A4A4"/>
</linearGradient>
</defs>
</svg>
